/* XPM */
static char *Y29sbGVjdCUyODElMjk_[] = {
/* columns rows colors chars-per-pixel */
"64 64 173 2 ",
"   c #2E2E2E",
".  c #343434",
"X  c #363A3A",
"o  c #3C3C3C",
"O  c #363537",
"+  c #433A3D",
"@  c #755C3E",
"#  c #736B2E",
"$  c #726731",
"%  c #363F46",
"&  c #463D46",
"*  c #364147",
"=  c #3E4244",
"-  c #364049",
";  c #3B444A",
":  c #3D484E",
">  c #394C57",
",  c #2E624C",
"<  c #30664C",
"1  c #3F576A",
"2  c #454545",
"3  c #454847",
"4  c #45454A",
"5  c #4D444B",
"6  c #464A4B",
"7  c #4D4D4D",
"8  c #4C4546",
"9  c #53414A",
"0  c #5B4849",
"q  c #4A5141",
"w  c #4C554F",
"e  c #50504E",
"r  c #414B52",
"t  c #4A4E51",
"y  c #514F50",
"u  c #594C53",
"i  c #4F5252",
"p  c #495657",
"a  c #525252",
"s  c #5B5B5B",
"d  c #555558",
"f  c #64434C",
"g  c #625C5E",
"h  c #775F53",
"j  c #7B5454",
"k  c #6D5644",
"l  c #4A644D",
"z  c #5D654E",
"x  c #436451",
"c  c #5B6259",
"v  c #4B5A66",
"b  c #555E63",
"n  c #445D73",
"m  c #5B686F",
"M  c #5C6063",
"N  c #566874",
"B  c #636363",
"V  c #6A6A6A",
"C  c #666867",
"Z  c gray44",
"A  c #9E7E2B",
"S  c #866437",
"D  c #8F793F",
"F  c #947C35",
"G  c #8D5148",
"H  c #845F45",
"J  c #864F4A",
"K  c #B64547",
"L  c #866245",
"P  c #9F7546",
"I  c #857C5C",
"U  c #A47B5D",
"Y  c #987764",
"T  c #508737",
"R  c #6A922F",
"E  c #6A9234",
"W  c #6CD820",
"Q  c #67D222",
"!  c #258055",
"~  c #67935E",
"^  c #42A541",
"/  c #4EAE44",
"(  c #679360",
")  c #B49B19",
"_  c #BAA413",
"`  c #AB8F2C",
"'  c #A89121",
"]  c #B29626",
"[  c #B2962B",
"{  c #B29A25",
"}  c #AEA023",
"|  c #B3A528",
" . c #D5BB0D",
".. c #C4AD2D",
"X. c #D0BF29",
"o. c #CEBA35",
"O. c #E2CB1C",
"+. c #DDC529",
"@. c #CEC039",
"#. c #D6C736",
"$. c #E4D02F",
"%. c #878054",
"&. c #83815E",
"*. c #AB8C54",
"=. c #A29258",
"-. c #B3895F",
";. c #949F63",
":. c #8A8675",
">. c #B58969",
",. c #92A063",
"<. c #8CB57A",
"1. c #C68858",
"2. c #C78B4F",
"3. c #C9BD4B",
"4. c #CB9363",
"5. c #EADE54",
"6. c #D7CD7A",
"7. c #E8DF68",
"8. c #F0E86B",
"9. c #EBE67D",
"0. c #F1EB73",
"q. c #526D84",
"w. c #4F7DA7",
"e. c #507BA6",
"r. c #5176A0",
"t. c #5181AF",
"y. c #5A8DBD",
"u. c #5C94C5",
"i. c #6695C1",
"p. c #72A2CB",
"a. c #74B3EE",
"s. c #8D998F",
"d. c #9DA39E",
"f. c #B8A698",
"g. c #9CADB5",
"h. c #9FB1BB",
"j. c #ADB3AC",
"k. c #B3B5AC",
"l. c #A3B4B9",
"z. c #B8BDB5",
"x. c #F99F85",
"c. c #CDA988",
"v. c #A8CE83",
"b. c #DACA8A",
"n. c #DBD384",
"m. c #E5CC8C",
"M. c #E3D18C",
"N. c #E0CC91",
"B. c #E8D499",
"V. c #F4F28D",
"C. c #F9FC9D",
"Z. c #F5F593",
"A. c #D8CDAD",
"S. c #C2C8BD",
"D. c #EBDEA9",
"F. c #EAE0AD",
"G. c #FAFEA0",
"H. c #ECE9BF",
"J. c #E8E4BF",
"K. c #A2B8C3",
"L. c #8FBEE8",
"P. c #84B9EB",
"I. c #91C1EA",
"U. c #C1D3D7",
"Y. c #C6D9DF",
"T. c #C9D9DB",
"R. c #D0DEDE",
"E. c #D4E1DC",
"W. c #DCE4DB",
"Q. c #DDE1D4",
"!. c #F2F1C6",
"~. c #E4E8DA",
"^. c #C8D9E0",
/* pixels */
"7 a a a s d a a a 7 e a e 7 7 3 y a y y d a 3 7 7 7 7 3 a a o . a C s 7 7 y a a a d a e e y e 3 7 7 8 7 a a 3 3 e s s e e e 3 7 ",
"a d d d a a a e 7 7 d d e 7 7 7 a a 7 3 a e o & 7 e a 7 a a 2 X d C s e e a a a 7 e 7 3 7 a e e e 7 3 7 a 7 3 7 a s d a a y 7 e ",
"a a a e e y t 7 7 7 a s a e a a a a 7 7 a 7 2 2 7 7 7 7 e e o O e B s 7 a a a 7 4 3 7 3 7 a d d a y 7 7 a y 7 y s d d a a y y a ",
"7 a e 3 3 e a a e 3 e a y a d d 7 e 7 3 a e 7 7 a a e 7 e e 2 O 7 g d e e a e 7 7 e y 7 a a d e a a e y a a e y a a e y e e 7 a ",
"7 a 7 3 7 e a a 7 8 e a e 7 a a 3 7 7 7 7 a e a d a a e a a 3 o 7 B s e y a t 7 y a a a a a e 7 a 7 7 e a a e e 7 7 e a 7 3 7 y ",
"e a a 7 7 e a a 7 7 a d 7 8 7 7 7 7 7 a a 7 7 a 7 7 e a a a o . 3 g d 7 7 a a e 7 y y a a a e 7 e 3 4 8 y 7 3 7 8 e a d 7 7 y a ",
"e a a 7 7 y y a e 7 a d e 3 7 3 a a a a 7 e a a e 7 a a d a 2 . 2 d a 7 a a a 7 3 e a y e y e 7 e 3 2 3 a e 7 7 7 a d s y a a a ",
"7 7 e y a y a a a 7 a a y a a a a a a a 7 a d a a a d s a e o O 3 g d 7 a d a 7 2 7 e 7 7 3 7 7 y 7 3 y d d e a e a a a 7 e y 3 ",
"a a a y a t a a a 7 a a a e a a a a a 7 a a a a t 7 a y 7 e 2 o 3 g c a a a 7 8 3 7 7 7 7 3 7 7 a e a a d a e 7 i a a e a 7 7 7 ",
"a a a a e 7 7 a a 7 7 a 7 7 7 a a a y 7 a a a a e 7 7 7 e 7 + X 7 B g a e e 7 3 y a a e 7 7 7 7 a a a a a a e 7 7 a i a a y 7 7 ",
"a d a e 7 7 7 7 7 3 7 7 7 7 a a y y e 3 7 7 a a 7 7 7 e 7 7 o . 3 B s a a a a e a d d a e 7 7 7 d d 7 3 7 7 7 8 a a a 7 a a 7 a ",
"d d a 7 7 7 e a 7 7 7 7 y a a a y e 7 7 7 a a 7 7 7 e 7 3 3 o . 3 B s a d d a 7 e e 7 7 7 7 e a d a 7 7 7 e e e d a a e 7 a 7 7 ",
"d d e e 7 a a a a a 7 7 t a y 7 7 e 7 e a d a e 7 7 7 8 8 3 X . 7 B s a a a 7 2 2 3 8 2 3 7 a d d e 7 e a d d d d a a a a a 7 7 ",
"d e e e e 7 y a a 7 e 7 e e e 7 y e 7 t a a a e a 7 i 7 7 3 + X e B s 7 7 e 3 3 2 7 e e e a e a e e 7 7 y a 7 7 a a 7 7 7 a 7 a ",
"7 7 8 7 7 e 7 6 3 7 a e 7 7 y a e 7 7 e a a e 3 7 7 a a a e 3 o e B d 7 a a a 7 e d s d a a a a 7 7 7 7 7 3 3 2 7 7 7 7 7 7 7 a ",
"3 7 7 e a a 3 8 4 e d a 7 7 7 a a 7 7 a a a 3 & 3 3 a a a a 3 o e g d e a a a 7 y a d a a d a d 7 7 7 e a a 7 7 e a a a a 7 a a ",
"7 e a a a a 7 7 7 d s a 8 3 a d d e 7 7 a a 8 2 3 a d a a 7 o . e B s e a a a 7 e a d a a a a a e 7 a a a d a a a d s e a a a a ",
"e a a a a a 7 7 a s s d 7 e a d d a e e a a 3 2 7 a d a e 7 o . i C B a d a a y e e a a 7 e a a 7 7 a a a a a e a s d a e a e e ",
"a a a a a a 7 a a d a e 7 7 7 e e 7 3 7 e e 7 : : r a a a a + X 7 V g a a a 6 r : : 7 a 7 7 e 7 7 3 a a a a e 7 d d e 2 3 3 3 e ",
"a a a 7 7 7 3 7 e 7 7 7 7 3 7 e a e 8 3 3 7 ; y.Y.~.V 3 7 e o . 3 B s 7 e 7 B ~.Y.u.; a y 7 a a 7 3 e a a y 7 7 a a 7 2 3 7 e 7 ",
"i 7 7 7 7 7 8 6 7 3 7 e 7 e a d d a e 7 7 7 ; j.~.E.N 4 7 7 + O 7 M d 3 i 6 N W.~.z.* a a a a a 7 7 a 7 7 a 7 e y a y e d d a a ",
"a a a e a 7 7 7 e e e a a e a a a 7 a a 7 a 4 j.~.P.a.1 7 q j j j J j q i > a.a.~.z.; d a a a a 7 7 a y 7 7 6 a a a 7 7 u a a a ",
"a a a a a a e a d d a a y 7 7 3 a 3 3 7 3 6 ; g.W.I.R.b 3 X.C.C.G.C.C.+.3 p R.I.W.l.; a a a a a 7 7 a 7 a a 7 a a 7 3 2 3 7 e e ",
"a a 7 7 a a 7 a d a a a a a e 7 e 2 2 2 o 2 4 w.U.~.~.b D 9.C.C.G.G.C.9.D p ~.~.U.t.4 a a a a a 8 3 a y e a a a a a 3 8 7 e e a ",
"a e 3 7 e 7 7 7 e a 7 7 a d a a e e 7 7 e a a 6 h.W.Y.v '  .0.C.C.G.0. .' p T.W.l.* a e 7 a a a 7 y 7 7 a a a 7 a a i 7 a s d a ",
"s a 3 7 a a a 7 a a 7 7 a a e 7 7 y a s s s d 6 w.U.p.c =.o.$.C.G.C.$.o.=.z p.T.w.; 7 7 7 a a a 3 3 7 7 a a y 7 7 a 7 8 3 a a e ",
"d a y a a a e e a a 7 7 7 y 7 7 3 7 a a a d a e * g.v ) V.0.6.b.0.M.6.0.V._ v l.; 7 3 7 3 y a e 8 7 e a a a a 7 7 t e 7 7 e a a ",
"e 7 7 e 7 7 7 7 e a 7 7 a y 7 e 7 7 y a e a a e 4 r.z @.8.| P *.X.*.P | 8.#.z e.8 7 e w e a d a 3 6 a a a a e 7 7 y a 7 7 a a a ",
"a 7 7 e a e 7 2 3 7 7 3 e e 3 3 2 7 e a a 7 7 9 S &.3.V.O.@ 1.m.m.M.1.k O.Z.3.&.S 8 8 8 7 e d a e y y a e e e e a a e e a a a a ",
"7 7 e a y 3 2 2 a a a a a a y a 7 y d a e e 7 9 ) 5.7.6...2.-.H.!.!.>.1...6.7.5.) 9 7 7 7 d d a e 7 7 7 7 3 7 7 y 7 3 7 a a a a ",
"O o 2 3 & O o o 3 2 + o 2 2 o o & 2 2 2 o = o * # { ] ` L b.0 J.!.!.f N.H ` [ { # * 2 2 2 2 2 + o o X o o o o o & X X o o o o o ",
"      O O . . . O X .     . . . . . X . . . O X & F ] ] 0 c.I J.!.!.I c.0 [ ` ` & X o O . . O         . .   . . O . . . . . . . ",
"7 3 7 7 2 o 2 e i 7 7 7 7 7 7 7 3 7 7 7 7 7 7 3 9 $ A L ; J 1.B.x.B.1.G ; L ` $ 9 2 2 8 7 7 7 7 3 7 8 3 7 7 7 a a 7 3 y y 7 3 e ",
"s B V V d y s Z V V V V V V V V C C C C C C B s B s 5 p T l G U K U G l T w & i V V V C C V C s C C g B C C V Z V C V V V C C C ",
"s s B g s s C V C s s s B B g s s g M s g g g d s B > <./ < x E R R x < / <.> d V Z V B B V V B s B d s B B B C B g B B B g g B ",
"a 7 7 e a d s d 3 7 7 7 a e 7 7 7 a a 7 7 e y e a 0 s.n.%.; ! Q W W ! ; %.M.s.u a a 7 3 7 a a 7 7 e 7 7 a a y 7 y 7 3 7 3 3 7 y ",
"7 3 7 a 7 8 3 7 7 7 a a a e 8 2 e a a 7 3 7 7 7 y f A.F.h * ,.^ ^ ^ ;.% h F.A.f a 3 + 2 7 7 7 7 7 a e y a a 7 7 e 3 7 3 3 3 7 y ",
"8 2 7 a e 3 3 y e y a 7 3 3 4 3 y a e 3 2 7 e y t 5 >.:.d.6 ( v.v.v.( ; d.:.>.8 a 3 2 3 a a e 7 3 e a e a a e 7 3 8 7 e y 7 7 7 ",
"3 7 a a a e a d d a 7 3 8 3 a d a y 7 3 7 y a a t 4 f.k.~.i.d 4.Y 4.d u.R.k.f.; 7 3 2 e d d a 7 7 a a 7 7 7 a a 7 7 e a a y 7 7 ",
"a a s s e e a a a y a a e e a a s a 7 3 y d s a 7 ; S.~.~.q.+ 0 4 f u N ~.~.S.: a e 7 a s s a 7 7 a d a a a a a a y a d d a a e ",
"a d d e e e 7 e 7 7 7 e y 7 7 e d e 7 7 e y a y a * p.R.L.> o X 7 M c > L.W.p.* 7 e y a a d a 7 e a a a 7 a y 7 7 7 a a a y 3 7 ",
"3 7 7 7 7 3 3 7 7 3 3 e y e e d s y e 7 7 e a y t 7 n m n t 2 o d V s t n m n 4 3 7 7 3 7 a a a a d a y 7 a y 7 e 7 7 a a 7 7 7 ",
"7 e 7 8 7 7 e e a a e d d a a d s d e e a a a a y y 3 6 7 7 2 o y C s 7 t 6 6 3 y e e 7 7 7 i e a e 3 3 7 7 e e e y y 7 7 7 e 7 ",
"a d d d e a a e a e 7 a a 7 7 a d a e a a a a a e y 7 7 7 7 o . 3 s d a a e 7 a a a a y a a a a 7 3 8 3 a a a e 7 a a a y a a 7 ",
"a s d a 7 e y 7 8 2 3 e 7 3 8 a a 7 7 7 y a a 7 7 e 7 7 7 7 % * * ; ; a d a 7 a y 7 7 y a a a a y 7 e a d d e e y a a y 7 e 7 8 ",
"a d a 7 3 7 y y 7 7 3 a a 7 7 d d e 3 7 7 y a 3 7 a e 3 i * % * * - - ; a 7 7 e y 7 3 7 a d a a y a d d s d e e a a a e 3 7 4 2 ",
"e a e 3 7 a a a a a a s s a e a d a a 7 7 a a 7 7 a i 7 i e * * ; - - a a e 7 e a a 7 a a a 7 7 3 7 a a a y 7 7 y a e 3 7 3 7 3 ",
"e a 7 7 a d a 7 3 7 a a a a 7 7 a e a a 7 7 y 7 3 a 7 7 7 a 2 . 7 B s a a a 7 i i e a a a e 8 2 2 7 7 e 3 7 7 7 7 3 7 7 7 a a a ",
"7 a a 7 e a 3 o o o 3 e 7 7 7 7 e e y y 7 e a a e a 7 3 2 7 o . 7 C B a a a 7 y e 7 7 a a 7 7 7 7 d s e e e a a 7 7 a 7 7 7 a a ",
"8 e 7 3 a a e & o 2 e d a e a a d a 7 3 + 2 7 e 7 7 3 7 7 a o . 3 C c e a 7 a a 7 7 3 7 e a a a d d e e a a e y a a y 7 6 7 e a ",
"7 a a 3 e a 7 o 2 e B s d a a d y 7 7 3 2 6 a e y e y a a s 2 o 5 C g 7 y 7 7 a y 7 3 y y a a a a y 7 7 d a 7 7 y a 7 7 e e a d ",
"a a e 7 e d 3 o 7 d C B a a a a 7 7 7 y a s d d a a a a e s 2 . 7 C M 7 a a e y a y a a a a a y 7 e e e a a 3 7 7 7 a a a a d a ",
"y 7 7 8 a a 7 3 e g B d 7 7 e 7 y 3 7 e a s d a a 7 e 7 7 a o . 7 C g 7 a a a e 3 7 a a a a y 7 7 a a a a y 7 7 y y e e e 7 7 7 ",
"a y 3 7 a a e a a s d e 3 e y e e 7 7 7 a a a 7 7 7 3 7 7 y + X 3 B s 7 a a a 3 y e a a a e 7 7 7 e 7 7 y a y 7 a 7 7 7 7 7 7 3 ",
"a a a e a d a a a d a 7 3 a a a a 7 a a a a a a 7 7 3 a a d 2 . 4 B s 7 y a a 7 a a a y t e 7 7 a 7 3 3 a a e 7 y 7 3 7 7 e y e ",
"a d d e a a a e e e 7 7 7 a a a y e e a 7 7 y y a 7 e a d d +   3 V g e 7 7 7 3 7 7 a 7 7 7 7 7 a y 7 7 a e 7 7 a e 7 e a d d a ",
"7 a 7 7 7 7 a 7 7 7 3 7 7 a d a i 3 e 7 3 3 3 7 7 3 e d s a o . a V B e 7 7 7 7 a a a e 7 7 7 e a 7 7 d s d a 7 a y a a a a a a ",
"a a a 7 7 a a a 7 7 a a e a a e 7 3 7 7 8 3 7 e 2 3 e d d a o . 7 V B a y a a a a e 7 3 7 7 y y a 7 e a d a a a a y 7 a a a a a ",
"s d a a a 7 a a e a a a a a a 7 3 8 3 7 7 7 y 3 2 3 a a e e o . 3 B g 7 7 e y a d e 3 7 e a a a e a a 7 e e 7 7 a a a a y a a a ",
"d a a y 7 7 7 a a a a a e i 7 8 8 7 e 7 7 a a 7 e d d a e 7 o . 7 C s 7 6 7 7 a d 3 8 e a a a a a a a 7 7 e 7 7 a a 7 7 7 e 3 7 ",
"a e 7 7 7 3 y a a a a y 7 7 7 3 7 a a a e d d e a s g a y y & . 7 V B 7 e 7 e a a 7 7 a a a 7 a e a a 7 7 a a y 7 7 e t 7 3 7 7 ",
"a e 7 7 7 7 a a a 7 a a a a a 7 e a d a 7 e d a e d s a a y o . 7 C B a 7 a y a a 7 7 a a a 7 y 7 y e 6 e a a 7 7 7 e a 7 7 7 e ",
"a e 7 e a a a a a a e a a a a 7 e a a e 7 e d a 7 e d e e 7 o . 7 C s 7 7 7 y a a 7 7 a a a 7 a y 7 7 7 e 7 e 3 a a a a a y y a ",
"a a a 7 7 a a a a a a 7 7 y y 7 e a a a e e d a 3 7 e e 7 3 o   7 C B 7 7 7 a 7 y 7 3 3 7 y 7 a e 7 7 7 t y y a e y a a a 7 a a "
};
