/* XPM */
static char *_d8dced4c34a46fbec815b4ca216706daD6njqLcsguRt34H[] = {
/* columns rows colors chars-per-pixel */
"64 64 194 2 ",
"   c #2E2E2E",
".  c #343434",
"X  c #363836",
"o  c #3C3C3C",
"O  c #363839",
"+  c #423C3E",
"@  c #3E403F",
"#  c #45473F",
"$  c #5D5D39",
"%  c #614C3F",
"&  c #69543E",
"*  c #765C39",
"=  c #4D7B3D",
"-  c #686534",
";  c #343D44",
":  c #4F3F40",
">  c #3B4245",
",  c #364149",
"<  c #3B444B",
"1  c #374047",
"2  c #2F5C4F",
"3  c #3C4A56",
"4  c #38614F",
"5  c #366150",
"6  c #3E5364",
"7  c #454545",
"8  c #494946",
"9  c #454749",
"0  c #4C4749",
"q  c #45494D",
"w  c #4D4D4D",
"e  c #474743",
"r  c #564949",
"t  c #4D504E",
"y  c #50504E",
"u  c #5B5646",
"i  c #424B51",
"p  c #4C4E50",
"a  c #524F52",
"s  c #475157",
"d  c #4A5358",
"f  c #525252",
"g  c #565856",
"h  c #5B5B5B",
"j  c #585356",
"k  c #62514B",
"l  c #66564A",
"z  c #685B59",
"x  c #7C5454",
"c  c #624B43",
"v  c #4C7543",
"b  c #587B42",
"n  c #4B6552",
"m  c #5D6954",
"M  c #4B6E44",
"N  c #61604E",
"B  c #756F45",
"V  c #485766",
"C  c #535D63",
"Z  c #5B5F64",
"A  c #4A5F71",
"S  c #6C5D60",
"D  c #56656E",
"F  c #58676C",
"G  c #50706F",
"H  c #636363",
"J  c #666769",
"K  c #6A6A6A",
"L  c #666869",
"P  c #606E77",
"I  c #717676",
"U  c #877838",
"Y  c #987835",
"T  c #88782A",
"R  c #AD5F52",
"E  c #8F7542",
"W  c #907540",
"Q  c #9C6552",
"!  c #8E6B53",
"~  c #A47E4E",
"^  c #AB6851",
"/  c #907F77",
"(  c #8B6E66",
")  c #B17D68",
"_  c #6B9332",
"`  c #47AC3D",
"'  c #6CD820",
"]  c #398B44",
"[  c #40A441",
"{  c #6FA555",
"}  c #7CBC66",
"|  c #8C8537",
" . c #94892B",
".. c #AD912B",
"X. c #A99125",
"o. c #B49927",
"O. c #A58B2F",
"+. c #B8A024",
"@. c #C6AB15",
"#. c #C59A39",
"$. c #C4A73F",
"%. c #DDC725",
"&. c #DBC834",
"*. c #E4D238",
"=. c #99995E",
"-. c #BE895D",
";. c #BCA84C",
":. c #BDAB57",
">. c #938177",
",. c #AE906A",
"<. c #AA9675",
"1. c #B49B79",
"2. c #B28867",
"3. c #80BE6B",
"4. c #89B371",
"5. c #C1885B",
"6. c #C0A441",
"7. c #C8B85C",
"8. c #CEBF60",
"9. c #D6AB73",
"0. c #C5B572",
"q. c #DAB37C",
"w. c #D9CC48",
"e. c #D7CD52",
"r. c #ECDD4D",
"t. c #ECE258",
"y. c #DFD671",
"u. c #E3DA67",
"i. c #E5DE7B",
"p. c #EEE668",
"a. c #EEE461",
"s. c #E8E178",
"d. c #F1EB73",
"f. c #577B94",
"g. c #54728C",
"h. c #798281",
"j. c #5F8EBA",
"k. c #5A87AE",
"l. c #7A94B7",
"z. c #6B95BB",
"x. c #6E9CC0",
"c. c #709FC9",
"v. c #77A9D3",
"b. c #7AA6CD",
"n. c #898F86",
"m. c #979C8C",
"M. c #938B90",
"N. c #A29688",
"B. c #B5A984",
"V. c #B5BB96",
"C. c #B7B38D",
"Z. c #8E9FA6",
"A. c #8A8CA3",
"S. c #A3A9A4",
"D. c #ADB2AC",
"F. c #B5B3AD",
"G. c #B3BBB3",
"H. c #96A9B0",
"J. c #C8B48B",
"K. c #D1BE93",
"L. c #EFBA8E",
"P. c #F0BD92",
"I. c #AACE84",
"U. c #BCC1B9",
"Y. c #DAD385",
"T. c #E4CF8E",
"R. c #E4CF90",
"E. c #F7F48C",
"W. c #F8F58E",
"Q. c #F9FD9F",
"!. c #F8F691",
"~. c #C1C7BD",
"^. c #FAFDA1",
"/. c #EFE9BA",
"(. c #A4BECB",
"). c #8CBEEA",
"_. c #83B9EB",
"`. c #AEC4CF",
"'. c #BACCD4",
"]. c #BFD1D5",
"[. c #BCC9CF",
"{. c #95C2E7",
"}. c #A4C9E6",
"|. c #BAD4E1",
" X c #C4D8DF",
".X c #C9DBDE",
"XX c #C0D7DF",
"oX c #D0DEDE",
"OX c #D3E1DC",
"+X c #DDE4DA",
"@X c #F2F1C5",
"#X c #E4E8DA",
"$X c #E0E6DA",
"%X c #C7DAE0",
/* pixels */
"w f f f g g f f f w a f a w w 8 a f a a g f 8 0 8 w w 9 a a o . f L Z w 8 f f f g j a p f f w 8 w 8 8 p f f 8 9 f h g f a w 8 w ",
"f g g f f f f f w w g g p w w w f f t 8 f w > # w f f w g f 7 O g L z p p f f p 8 w w 9 w w f a a w 8 w y w 0 8 f h g a f f w p ",
"f g f a a a t w w w f h f a f f f f w 8 a t 7 7 w w w 8 p t o X f S C w f f f w 8 w 8 8 w f g f f a w w f f w y g h f f f f a f ",
"w f p 8 8 w f f p 8 w f f f g f w a w 8 f a q w f f f w w p : X w m g w y f f w w p f a f f g f f f p a f f p f f f f f p w w f ",
"w f a 9 8 f f f w 0 w f a p f f 9 w w w a t t a g f f a f f 7 o w H h w a f w w f f y w f f f 8 f p w a j t w a 8 w a f w 8 w p ",
"a f f 8 w a f f w w f g w 8 8 w 8 w w f t w t f p w a f f f o . 8 H g w w f f w w f f f f f a w w 8 7 9 t w 8 w 8 p j g y w a f ",
"w f f w w w f f a w f g w 8 w w j f f f w f f f a 8 f g f f 7 . 7 g f w f f f w 8 p y t a a a w w 8 7 0 f f w w a a g g f f f f ",
"w w y a f f f f f w f f f p f f f f f f w f g f f f g h f a 7 . 0 h f a f g f w 7 w y w w q w w f w 8 p g g a p p f g f 8 w a 8 ",
"f f f f f t f f f w a f f a f f f f f t f f g f a w f t t a : o 9 Z h g f f w 8 8 w w w w 0 8 w f p f f g f f w f f f w f w w w ",
"f f f f w w t a a p p f y w w f f f a t a f f f w w w a w q o X w H h f f p w 9 w f f p p w w w f f a f f f w w w f f a f f y p ",
"f g f t w w w w w 8 w w w w f f a t w w w t a a w w t w w w o X q z h f f f f a f g g f a w w y h f w 8 w w w 8 f f a w f f w y ",
"g f f w w w a f w w 8 w w f f f a a w 8 w a a t w 8 p 8 w 9 o X e H h j g g f a y a w w w w w f g f w w w a f f g g f w p a w w ",
"h g f a a a f f f w w w f f w w w w w w f f f f f w w 9 7 7 o . w H h y j y 8 7 : 9 7 7 8 p f f g a w a f f g f g f f f f f w y ",
"f f w w w a t f f f w w w f f w a p w f f f f w f w y w w 8 o o a H h w y t e 7 7 q y p f a f f f w w w f w w w f a w w y w w f ",
"w w w w w w w 8 8 w f f w f w f f w w w f g p 0 w w f f y w 7 o t H j w y f f w f g g g f f f a w w 8 p w w 7 7 w w w w w w w f ",
"8 w 8 a a y w 9 8 p f f w w w f f w w f f f 8 7 7 8 f f j f 7 o a F g y j f f w a g g f f g f g w w w f f f w w a f f f f w f f ",
"w f f f f f 8 w a g h f w 8 f g g f w w f f 9 7 e a g a p w o X w S h f f f f w f f f f f f f f a f f f f g f f f g g f f f f f ",
"p f f f f f w p f g h f w p f f g f w w f f w e w g h f t t o X y H F f g f f w w f f f p a f f w 8 f f f f a f f h g f a f a w ",
"f f f f f a w f f g f f w w w p f w 0 w a q 3 3 q f g a a t > X f L H f f p 8 q i 3 i f w w w w w 8 f f f f t w g g a 9 0 8 w w ",
"f f f a w w 8 w a w w w w 8 w a f w 0 e 9 3 _.#XU.i a w t a o . w H h w a w 3 G.$X).V p w a a f 8 8 t a f f w w f f 8 7 7 w w w ",
"t t w w w w 0 9 8 8 w w a w f f g f a w 9 d #X$XoX`.3 e w w + . 0 z f 9 w 3 G.OX+X#XC f f f f f w w y y w a w w f f p w f g f f ",
"f f a a f w w w a f p f f y f f f w f f w d #X.X{.%Xj.< t c x x x x k 8 9 k.].{. X#XF a f f f f w p f p y p w a f f w w f g f a ",
"f f f f f f y f g g f f f w w w p 7 8 w < d OXoX{.oXD., U t.Q.Q.^.^.t.| < S.OX{. XOXC w g f f f w w f y y f w f f w 0 7 8 w p f ",
"f f w w f f w f f f f a f f p w y 7 e e ; 3 v.#X%Xv.D.u :.E.Q.Q.^.^.!.7.u S.).|.#Xv.6 p f f f f 0 9 f p a f f f f f 8 9 w w a f ",
"f f 8 w f w w w a a t w f f f f a w w w w a C .X.X{.H.$ @.*.E.Q.^.E.w.@.- Z.}..X.XD w p p f f f w w w w f f f f f f p w f g g f ",
"h f 9 w f f f w a f t w f f f w w f g h h g 6 c.#X].k.B ;.&.t.Q.Q.p.&.6.B f.[.#Xb.6 w w w f f f 7 8 w w f f p 8 w p w 8 w f f a ",
"g f y f f f a a a a w w w f w w 8 w f f g f w V  XG.- &.E.i.Y.i.i.y.i.E.r.- D. XD q 8 8 8 w f p 8 w f f f f f w w w y w 8 a f f ",
"a w w w w w 8 w t f w w f a w w w w w f f f p V l.m.| r.w.O.~ ;.$.=.Y w.r. .m.l.V w f p a f g f 0 w f f f f w w y f a w p f f f ",
"f w w y f a 0 7 w w w w w w 8 8 7 w p f p w 8 c U =.u.d.o.! 9.Y.R.9.! X.p.u.=.W % 7 8 0 w f g f p p f f a w w f f f y y f j f f ",
"w w w f f 8 8 e f f f y j f a p w f g f f w r & %.p.u.8.#.-.K.@X@XK.5.#.7.y.p.%.* 0 w w w f g f w w w w w 8 w a a w 8 w f f f f ",
"O o 7 7 ; X X + 7 7 > o o # o o o e 7 : ; + > #  .o.o.Y 2.1.>.@X@XN.<.,.Y o.+. .8 7 7 7 : > e o o o o o o O o o o o O o o @ o o ",
"      X o . . . X X .   . . . X . O O X . X O o % ..o.Y x 1.C.@X@XC.1.( U o...& O O O X X O .   .       . . . . X . . . X .   . ",
"w 9 w w 7 o 7 f w w w w w w w w w 8 w 0 w w 8 0 r T Y l r ^ q.P.L.q.^ k k Y T % 0 7 7 7 8 p w q 8 8 8 8 w y y y a w w w y w 8 w ",
"h H K L g f h K K K K K K K L J J J J H H H J Z z a 0 v = g Q ^ R Q l v M w p h K K K K K K J S L J F S H K K I K J K K K J J J ",
"h h H S g h K K H F z h F H Z z h z z F z F h h h C G } ] 4 b _ _ b 4 ] 3.G i g K K K H H K K h H h g g z F H J H z F H F z z F ",
"f w w a f g h f 0 0 w y y y w w w f y w w y f w f S V.0.l 2 ` ' ' ` 2 u 0.V.S j g f 8 9 w f a y w a w w f f y y y w 0 8 0 8 0 y ",
"w q w f w 9 8 w 8 w f g f w 9 7 t f f w 0 0 w p k ) /.J.: S { [ [ { m r 0./.2.z j 9 : 7 w y w w w f f a f f p w w w 8 w 8 8 w y ",
"e 7 w f w 7 8 a w f y w 0 7 8 8 f f t e 8 8 p w V A./ n.{ d m.I.I.4.n I M./ A.Z f 7 ; 8 f f w w 8 y a y f f w w 9 8 w w w w 8 w ",
"8 w f f f a f g f f w 8 9 8 f g f f w 9 w a f p D [.F.~.`.f.! 2.2.! g.(.U.F.[.P q 7 7 w g g f w w f f p w w f f w w a f f f w w ",
"f f h h f y f f f f f a a a f f h f w 8 y g g p A }.#X.Xx.V e r r l V z. X+X}.g.p a w f h h f w w f f f f f f f a a f f g f f f ",
"f f g f a p w p 8 w w y a w w w f p w y a f f a p A P D V 9 @ O p L h V D F A s w p f f f g g w y f f a w f f w w w f f f a w w ",
"8 w w w 0 8 w w w 8 w p f w a g g f w w w w f f t q 9 q p a 7 o g K Z p p p q 8 8 8 w 8 w f f p f g f p w f y w w w w f f w 8 w ",
"w w p w w w w w f f a g g f a g h f f y f f f f a f w p f t 7 O p J g a f p 8 8 a p p w t t a t f p 8 9 8 p p a f a t w w w w w ",
"f g g f f f f a f p w f f w w f h f f f f f f f w f w 8 t 9 1 ; , < p y f a w a f f f f f f f a w 8 0 8 f f f f w f f f a f f w ",
"g h g f w w a w 7 7 7 w p 8 8 f f w w w w f f 8 w t w 8 q , , , , , < q g y w f y w p f f f f f a w w f g g f a f f f a t a w 9 ",
"f f f w 8 w p f w w w f f w w f g w w 8 w f f w w f t w t q , , , , i a f y w f f w 8 w f f f a a f g g g f a w f f f w 8 8 9 7 ",
"a f w 8 w f f f f f f h h f a f g f a t w y p w w y a w f f 7 X e Z h f f f w f f f w f f f w w 8 w f f f a w w w f p w 8 8 w 8 ",
"a f w w f g f w 8 w f f f f w w a p f f a w f w q a a 8 t f > O w L H f f y w w w a f f f y 0 7 7 w p y w 8 w w w 8 w w p f f f ",
"w f a w f f 8 e + O 7 t w w w y p w f a w t f f y a w 9 7 w o   w J H f f j p y a w w f f w w w w g g a t f f f w a f w w w t f ",
"7 f f 7 f f w ; o 7 f f f t f f g f w 0 @ 7 w p w w 8 w w f :   8 J h f f w f f p 8 8 w w a f g f g a a f f w a f a t w w w f f ",
"w f f 7 p f 8 o 7 y z z g f f f p w 0 0 7 8 f a f t a f f h 7 X 8 J h w w t w f f w 8 p f f f f f a w w f f w w t a t w f f f f ",
"f f a 8 a f w o w h J F f f f f w w w f f g h g f f f f f g 7 . w J H w y f a p a y f f f f w f w y p f f a w w t t a f f g f f ",
"f w 8 8 f f w 8 f h H g w w p w p w 8 y f g g f y w w a w f 7 . w J h w f f f w w w f f f f a w w f f f f f w w f p p f w p w w ",
"f a 9 w f f f p f h g a 8 a f y f 8 w p f f f w w w 8 w w f o . 8 H h w f f f 8 w w f f f f w w w a w w a f w w f a w 8 w 8 w w ",
"f f f a f g f f f g f w 8 f f f f w a g f f f f w w 8 f f g : . 8 H h w a f p w f f f f y w 8 w f w 7 8 f f a w y w 8 w w f y a ",
"f g f f f g f a a a p w 8 f f f f w a f w w w a f w p f f g ; . w J H y w y w 8 w f w w w w p f f y w w f w w t f y w a f f f f ",
"w f w w 8 f f w w 8 8 8 w f g f y w w w 0 7 w w w 8 a j g f o . w K H y w w w w a f f w w w w w f w w g h f f w f a w f f f f f ",
"f f f y a f f p w p a f a f f a p 8 w 8 q 8 w w 7 7 f g g y > . w K H f f f f f f a w 8 w p w f f w w f g f f f f t w f f f f f ",
"h g f f w f f f a f f f f f f w 0 7 w 8 8 w a 8 7 8 f f f y o . 0 J h w w f y f g y 7 w a f f f f f f w f f w w f f f f f f f f ",
"g f f p w 8 a f f f g f p a w 9 9 8 a w p f f w p f g a y w o . 8 J h w 8 w w a f w 8 p f f f f f f f w w w w w f f w a w w w w ",
"f w w w w 8 w f f f f f y w w 8 w f f f p j g f g g S f f y + . w K H w w w a f f w w f f f t f a f y w w f f f w w w w w 8 8 w ",
"f a w w w w f f f y y f f f a w w f g f w a g f a g h g f f 7   w J H w p f f f f w w f g f w t w a w w f f f w w w f f w w w p ",
"f p a w f f f f f f p f f f f w f f f w w a f f w p f f y w o . w J z w w f w f f w w f f a w a f w w w w w w w f f f f f a f f ",
"f f f w w f f f f f f w w w f w p f f f f f g f 8 w p p 8 8 o . 8 J F w w w w y p w 8 8 w w a f w w w w w w f f w f f f f w f f "
};
