/* XPM */
static char *a76d0de61dc44b5aadddb35475dfc26dmFqxWareMFFLqamw[] = {
/* columns rows colors chars-per-pixel */
"64 64 201 2 ",
"   c #2F2F2F",
".  c #2E2E30",
"X  c #343434",
"o  c #3C3C3C",
"O  c #3C3638",
"+  c #40403E",
"@  c #794F3F",
"#  c #7F553C",
"$  c #7C6C36",
"%  c #70703E",
"&  c #68663D",
"*  c #363F48",
"=  c #393E43",
"-  c #5D3B46",
";  c #423F48",
":  c #623F49",
">  c #663D48",
",  c #354147",
"<  c #3D4345",
"1  c #364049",
"2  c #3B444A",
"3  c #3B4954",
"4  c #3B4D5C",
"5  c #335E4A",
"6  c #32674D",
"7  c #317252",
"8  c #2D6B50",
"9  c #3E5265",
"0  c #2B5065",
"q  c #454545",
"w  c #41464A",
"e  c #45494C",
"r  c #4D4D4D",
"t  c #484646",
"y  c #534D4D",
"u  c #59474D",
"i  c #4E504F",
"p  c #45524C",
"a  c #58534E",
"s  c #424B53",
"d  c #4E4F51",
"f  c #424F58",
"g  c #514F50",
"h  c #4F5151",
"j  c #42515C",
"k  c #525252",
"l  c #565857",
"z  c #575759",
"x  c #5B5B5B",
"c  c #565A5D",
"v  c #6F404A",
"b  c #694745",
"n  c #79454A",
"m  c #69584A",
"M  c #6A4650",
"N  c #587A57",
"B  c #676E5D",
"V  c #706B4B",
"C  c #465766",
"Z  c #535D66",
"A  c #425C73",
"S  c #5A666E",
"D  c #4E6170",
"F  c #586975",
"G  c #636363",
"H  c #626A6B",
"J  c #6A6A6A",
"K  c #696768",
"L  c #677375",
"P  c gray44",
"I  c #76796E",
"U  c #885D3A",
"Y  c #917E2F",
"T  c #8F7C30",
"R  c #866F34",
"E  c #A47F3B",
"W  c #965B48",
"Q  c #A35D4B",
"!  c #957844",
"~  c #936956",
"^  c #B66649",
"/  c #A26C50",
"(  c #827161",
")  c #539D3A",
"_  c #58B42E",
"`  c #51AF35",
"'  c #6DBA28",
"]  c #6DD820",
"[  c #3C9A44",
"{  c #3D8E49",
"}  c #7A825B",
"|  c #56A65B",
" . c #67A453",
".. c #B59D15",
"X. c #BDA314",
"o. c #9A8136",
"O. c #93842A",
"+. c #A28439",
"@. c #BAAF31",
"#. c #BFB438",
"$. c #C5A913",
"%. c #D5BA12",
"&. c #C6A90D",
"*. c #C58A3E",
"=. c #C9B735",
"-. c #CFB535",
";. c #DBC10C",
":. c #DAC311",
">. c #D3C337",
",. c #E4D238",
"<. c #E4CF26",
"1. c #9D8140",
"2. c #83895D",
"3. c #A78454",
"4. c #AD9F5E",
"5. c #A6814D",
"6. c #818276",
"7. c #9A8661",
"8. c #A3857B",
"9. c #B0936A",
"0. c #90B974",
"q. c #B1A460",
"w. c #C58641",
"e. c #F0865E",
"r. c #C5B85E",
"t. c #C5A840",
"y. c #C49765",
"u. c #D19B62",
"i. c #EE8B61",
"p. c #CAAB6C",
"a. c #D3A268",
"s. c #CCB06B",
"d. c #DBC841",
"f. c #D5C657",
"g. c #E6D74D",
"h. c #D3CA7F",
"j. c #DDD476",
"k. c #CFC661",
"l. c #E3D972",
"z. c #EFE563",
"x. c #F3ED7C",
"c. c #F2EB76",
"v. c #F3F07F",
"b. c #4A7196",
"n. c #4B759B",
"m. c #577A9A",
"M. c #5A81A5",
"N. c #5684AC",
"B. c #588BB9",
"V. c #6588A9",
"C. c #678BBA",
"Z. c #7292AB",
"A. c #6DA0CD",
"S. c #73A4CC",
"D. c #6AAEEF",
"F. c #61ACF0",
"G. c #74B2EF",
"H. c #869292",
"J. c #AD9F9E",
"K. c #B9A894",
"L. c #A9AB94",
"P. c #A7ABA9",
"I. c #B5B8A8",
"U. c #B5BAB3",
"Y. c #ADB2AC",
"T. c #CEBF84",
"R. c #CCAF9D",
"E. c #C3B199",
"W. c #CDBCA0",
"Q. c #D2B7A2",
"!. c #AACE84",
"~. c #B8CE8A",
"^. c #BAC0B1",
"/. c #CCC084",
"(. c #DFCB84",
"). c #DFCD9B",
"_. c #E5CE8E",
"`. c #EBE789",
"'. c #F1EE84",
"]. c #F5F38C",
"[. c #F4F285",
"{. c #F9FD9F",
"}. c #F4F490",
"|. c #C3C8BE",
" X c #E5D8A4",
".X c #EBDEB4",
"XX c #ECE1AE",
"oX c #F4F2B0",
"OX c #95BEDE",
"+X c #9AC5E7",
"@X c #94C2E9",
"#X c #9FC8E6",
"$X c #ABCDE3",
"%X c #A7CBE5",
"&X c #B4D1E2",
"*X c #CADBDE",
"=X c #DAE4DA",
"-X c #D6E1DB",
";X c #F2F1C5",
":X c #E2E5DA",
">X c #E4E8DA",
/* pixels */
"r k k k z l k k k r k k g r r r k k i r k k q q r r r t k k o X k K x y r k k k k k k r i k g r r t r r k k q q y x z k g i t r ",
"k z z k k k k k r r k z g r r r k k r r k k q q r g k r k k q O l K x r h k k g r r r r r k k k r r q r k r r r k x l i k g r i ",
"k k k g r g i r r r k x k i g k k k r t k r q q r r i r h i + X h B z y d k k r t r r r r k z k k g r r k i r g z x k k k k k k ",
"r k i t r r k k r t i k k k l k r i r r k r r r k k r r r i q O r S z t g k k r r r r r h k k k k k i i k k i k k k k k i r r k ",
"r k r t r i k k r t i k g i k k t r r r i g g k z k k g k k q X r G x y g k i r k k k g k k k r k i r g k k r r r r g k r r r r ",
"k k k r r g k k r r k k r t r r r r r i r r i k r r k k k k q X t G z r i k k r r r h k k k r r r r q q g r r r t g k l r r k g ",
"r k k r r i g k k r k l r r r r k k k k g g k k k r k k l k q X q c k r k l k r r r k r k k r r r r q r k g r r i k z l i k k g ",
"r i g i k k k k k r k k g r k i k k k k i k k l k k l z k r + X t x k r k k k r q r h r t r r r r r q r l l g i g g k k r r i r ",
"k k k k k k k k k r k k k i k k k k k g k k k k k r i i r i < o t G x k k h r r t r r r r t r r g i k k z k r r k k k i k i r r ",
"k k k k r r r k g i r r r r r k k k i r g k k k r r r i i r + o r G x i g g r t i k k i i r r r l k g g k k r r i k g g k k r r ",
"l k k r r r r r r r r r i r k k k g r r r i g i r r r r r r o X r G x k k k g i k x k k k r r g z k r r r r r r g k k r k g r g ",
"z l k r r r r k r r r r r k k k g r r r i i k g r r r r r t o X q x G k l l k i i g r r r r r k l k r r r i y k l k k i g k r r ",
"z l g g g k k k k k r r k k r r i r r r k k k k r r r r t t o X r G x k k k r q + q t q r r k k k g r i k k l l l l k g k g i i ",
"k k y r r i i k g i g r r k g r g r r i k k k r k r r r t r o O r G z i g g t q t r r y g i k k k g r i k r r r i g r r i i r g ",
"r r r r r r r r r r k k r r k k g i r g k z r q r r k k k g q o i G k r g g g r k c l l k k k k r r r r r r q q r r r r i r r k ",
"t r r i k r r q q r k k r r r k k r r k k k r q q q k k k k q o g G z i k l h i k k l k k l k k r r r g k k r r g k k k k i g k ",
"r i k k k k r r g l x k r t k l l k r r k k t q t h c k g r o X r G x g k k k r k h k l k g l k i r k k l l g h k x l k k k k k ",
"i k k k k k r r k z x k r i k k l k r e 1 1 1 q r k z k g r + X g G G k z k h r h 2 1 1 e i g g r r k k k l y g l x x k g k y p ",
"k k k k k r r k k z k k r r r i k r q C C.*X^.2 h k l k k i + X k G G k k h r r 2 U.|.S.A t i i t r k k h k r r k l y t q r r r ",
"k k k r r r r r r r r r r r r r k r w S *X>X:XU.e i k r 2 u : - b M u 2 h r q * Y.=X>X*XL e g g r t g g g g r i k k r + q r r r ",
"h y r r r r t r r t r r k r k k l h e H >X-X@X>XB.j r < T r././.T.T.p.O.t r 3 B.=X+X-X:XL e k k r r g g i g r r h k h r k z k k ",
"k k k i k r r r g g i k k r k k k i i S >X-XD.>X&XB.j m r.].{.{.{.{.}.k.m f B.&X:XG.*X>XL d k l i r h g i i i g k h i i k l k k ",
"k k k k k k r k z l k k k r r r r q q D %X=X%X+X>X&XC T >.[.{.{.{.{.[.d.O.j $X>X#X$X=X$XF e k k r r g i i h g h k r t q t i r g ",
"k k r r k k r k k k k k k k i r k q q 4 V.>X=XF.=X$XC O.$.,.v.{.{.[.,.$.O.j $X:XD.-X>XZ.C k k k t e h g g g g l k k t t r g g k ",
"k i r r i i r i g k r i k k k k k r r r S &X=XOX$XN.V q.f.g.v.{.{.[.g.r.q.% m.%X+X=X&XS i k k k r r r r k k k r k k r r k z l k ",
"x k q r k k g r g k r r k k k r r k l z H C.P.&X@Xj ..c.c.j./.l.z./.j.c.[.$.3 @X&XP.V.D r h k k q r r r k k i r r g r r r k k r ",
"z k r k k k h h k g r r r k r r t r k k l k 3 C.P.V >.z.=.E / t.t.3.1.=.z.>.& Y.C.j q r r i g i q r k k k k k r r i r r r k k k ",
"y r r h r r r i i k r r h i r r r r y k g g u U B #.'.,.$ / s._.(.s./ $ <.}.=.B U u r i g k l k r r k k k k y r r k k r r g k k ",
"k r r i k h t q r r r r r i r t q r h h r r b %.x.'.`.-.w.y.).;X;X Xy.*.>.`.'.[.:.@ q r r k l k r r k k i i i k k r k k k k k k ",
"r r i h k r t < k k k h k k h y r k l l h r q ..:.X.o.! p.~ K.;X;XK.~ s.! o.$.%.X.q 2 r i k l k r r r r r e r i i r r r k k k k ",
"X o q q o O o o q q + o + + o < o q q + o = , * ! ! X.U E.} L.;X;XK.I W.n X.! ! < * q < + q q < o o O o o O O q o o X o + o + o ",
"      O O X X X X O X   X X X X X O o X X X O > X.;.o.p W u. X;X;X Xa.W p 1.;.&.b O o O X O O           X   X X X X X X X X   X ",
"t e r r q o q k i r r r r r r r t r r r r r r q q v > ; - Q u.i.e.a.Q : ; v b q q q q t r r r r e r t r y r y g k r r y d r t r ",
"x G J K z k x J P J J J J J J G K K G G G G G G Z w 7 _ [ l n n n n a { _ 7 2 x K J J K K J G B G G B Z G G J P J K K J J K G K ",
"x Z G B z x J J B x x x G G G x x Z G x Z B x x w 0 ~.| 6 6 ) ' ' ` 6 5 | /.0 2 K J J G G J K x G x z z S B G K G Z B G G x Z G ",
"g y r g k l z k t r r i g i i r y g g y r r d 2 W I.(.3.y 8 ` ] ] ` 7 r 7.j.^.W w h r t i k k i r r y y k k i r d r t r r t y k ",
"y t r k r q r r e r k z k i q q g k k r q r r , ^ .XXX( w }  .[ [  .2.; V XX;X^ 2 e ; q r i r r r g k d k k r r r r r r t t r k ",
"q q y k k q q k r g g r t q t e g k i t q r r 1 R.8.6.M.9 N 0.!.!.0.N 9 M.6.( Q.2 q + t k k r r r g k r g k h y t q r r r r r r ",
"t r k k k r k z k k r r t r g x k g r q r g k * OXP.V.b.4 p 7.9.9.9.f 4 n.m.R.+X3 q q i z l k r t k k r r r k k r r g k k k r r ",
"h k x x k g k k k g k r g i k k x l r t k z k t b.H.m.j w y b b b m u ; C m.H.n.e i r k x z k r r k z k k k k k k i k k l k k r ",
"k l l k k r r i r r r i g r t g k g r r g h k g w 2 2 r r r = o w Z x g h e 2 2 r r g k k z k r y k k i r k k r r r k k k r r r ",
"r r r t t r r r t r r r k i g l x k i i r i k g h k r r k i w o z J x k k k r r r t r r r k k k k l k r r g k r r r r k k r r r ",
"t r r r r r r r k g g l l k g z x k k g g k k k h r r r k r < o e c z g i r r r i i r r r i k i k i r q r i g r k i k r r r r r ",
"k l c k k k k g k i r k k r r k l h g k g k l k r h r t r , * * 1 1 2 r k r r g k k k g k k k k r r q r g k k k r k k k y k k r ",
"k z z k r i r r q q q r i t t g k r r r g h h i r h r r w , 1 1 1 1 * w k g r k g r r r k k k k r r r k x l k i h k k h r h r t ",
"k l k t t r k k r r r k k i r l l i t r r g g r r k i r h w , , 1 1 s k k k r k k r r r k k k k i k k x z k g r k k k r r t t q ",
"k k r r r k k k k k k z z k i k l g g i i y g i r k r r k k q X r S x y k g r k k k g k k k r r t r k k d r r r h k r r t r r t ",
"g k r r g z k r t i k k l g r i g g k g i r i i t k y r i k q X r K B g k g r i i r k k k g t q q r y i r t r r r r r d h h k h ",
"r k k r h k r q o O q r i r r r k r k k r r k k r k r q q r o   r K G k k k r i i r r g k r r r r l l g k g k k r k h i r r r k ",
"t i i t r k r o o q g k k i k k k k r q q q r k r r r r r k q X r G x k k r k g i t r r g r k l c k k r k k r i k k y r r r k k ",
"r k k t r l r O q i G G l k k l r r r r q t k r i g r k k x q X t G x r g i k k i r r r k g k k k k r r k k r r r k r r k k k k ",
"k k i r i l t o r c G G k k k k r r r k k z x l k k k k k z q X r K G r g k r r k i k k k k g i r i g k k r r r r i k k k k z k ",
"i i t t h k r r k x G z r r y r k r r r k l z k k r r r r k q X r K x i k k k r r r k k k k g r r k k h k h r r k k i i r r r r ",
"k i r r k l k r k z z h t r k i r r t r k k k r r r r r r g o X t G c r k k k r r r k k k k i r i g r r k k k r k r r r r r r r ",
"k z k g k l k k k l k r r k k k k r k k k k k k r r r g k l + X t G G r k k r r h k k k r r r r g r t t k k i r r r r t r g r r ",
"k k k g k k k k g g r r t k k k k r k k r r i h k r r k k z + X e G G r r r r r r h y r r r r i k g r r k i r r k g i g k z k k ",
"i g i r r g k r r r r t r k l k r r r r q q t r r r k k z k o X i J G d r d r r k k k r r r i r k r r k x z i r k g g k k k k k ",
"k k k g i k k i r r g k i k k i r r r r q r r r q t g l l k o X r J B i g g k k k k r r r r g g k r g k z k k k k i r k k k k k ",
"x l k k i i g k g k k k k k k r t t r r t i h r q t k k k y o X t G G r r k d k k r q r r k k k g k g i g g g r k k k k k g k k ",
"l k g r r r r k l k k k g k r q q r r r r k k r r k z k i r o X r G x r r r r g l r t i k k k k k k k i r r r r k k i r i r r r ",
"k y r r r r r l l k k k i i r r r g k k g k l k k z G k g i +   y K B r r r r k k i r k l k i g g k g i k k k r r r r k r r t r ",
"g r r i r r g k k g i g g k r r i k l k r k l k k l x k k k q X y K Z y r k k k k r r k k g i g i i r r r k k r r r g k r r r r ",
"k i r i i k k k k g g k k k g r i k k i r g k k r i k k i r o X r G x y r h d k g r r i k g i g g r r r r r r r k k k k k i i k ",
"k k k r i g k i l g g i r i g r g g k k k k k g r r k i r t o   r J S r r r i y r r t r r i i g i r r r k r i k r k k k k r k k "
};
