/* XPM */
static char *ed11680106651[] = {
/* columns rows colors chars-per-pixel */
"64 64 71 1 ",
"  c #05050F",
". c #050511",
"X c #0A0E1A",
"o c #1D131E",
"O c #27181F",
"+ c #0E1621",
"@ c #1D1220",
"# c #131F2B",
"$ c #291921",
"% c #14202C",
"& c #1B2C36",
"* c #1B2B38",
"= c #2F2F2F",
"- c #312927",
"; c #342C2A",
": c #39312F",
"> c #382F30",
", c #333333",
"< c #3D3533",
"1 c #3D3835",
"2 c #3C3C3C",
"3 c #421E06",
"4 c #4F1716",
"5 c #4F1917",
"6 c #501817",
"7 c #521719",
"8 c #511919",
"9 c #63351D",
"0 c #403635",
"q c #413937",
"w c #443C3A",
"e c #6B5C3F",
"r c #3E3747",
"t c #154259",
"y c #454545",
"u c #49474A",
"i c #4D4D4D",
"p c #504E4F",
"a c #50514F",
"s c #4D4F52",
"d c #4D4B5D",
"f c #514F51",
"g c #4D5152",
"h c #495058",
"j c #525252",
"k c #5A5A5A",
"l c #605E5F",
"z c #636363",
"x c #676769",
"c c #6A6A6A",
"v c #726B7D",
"b c #717171",
"n c #9F2929",
"m c #9D3F3F",
"M c #A0292A",
"N c #9E4040",
"B c #AC7676",
"V c #AC7578",
"C c #CF755C",
"Z c #AF9A97",
"A c #B19997",
"S c #B29A98",
"D c #B4ACAA",
"F c #C4B59E",
"G c #FCAA95",
"H c #C4B5A0",
"J c #D0C8C6",
"K c #E5E6C7",
"L c #E6E6C9",
"P c #ECE3E4",
"I c #FFFFFF",
/* pixels */
"ijjjkjjjjigjaiiiajaikgyuuiiyja2,jxkiiajjjjjiaajuiuiajjuyalkaaiui",
"jkjjjjjjiijkauiijjiijiyyiajajjy2jxlaagjaiiiiigjaiiuuaiuujkkjgaia",
"akjjajiiiujkjijjjjiujiyyiiiuiar,jzkiajjiuuuuijkjjauijgiakkjjjjaj",
"ujiuuijjauajjjkjiaiuaauijjgiaay2ilkujjjiiajiajjjjjaajgaajjaaiiij",
"ijiuuajjiuijaajjuiuiifffkjjajjy,izkiijaiajjjjjjujaiijaiauiaaiuii",
"jjjiiajjiijjiuiuiiaaiifjauoooOoooooogjjiigajjjgiiuyuaiuiiijkaijj",
"ijgiapajaijkauiijjjjjfjjooAAFFFFFFAAoojiuiaaajaiauyugiiiijkjjjjg",
"iaapjgjjjijjgijajjjjijj@AFFKKKLKKLKFFAoiyiaauuiaaiuikkaagakjuiau",
"jjjjjfjjaajjjjgjjjjajjoAFKKKKKLKKKKKKFAoypiuuiuigajjkjaiajjjpiii",
"jjjjiiijiiiaiiijjjiifjoAKKKKIIIIIIKKKKFoijjjpiiijjajjjiiajjijjii",
"jjjaiuiiiuiiapjjjjiiioAFKKKIIIIIIIIKKKFAokjjaiiakjiuiuuijjiijaij",
"kkjaiipjaiiiijjjaiiuioAFKKIIIIIIIIIIKKFAoppiiiijkjiiiaaajkjjgjii",
"jjjjagjjjjiipjaiai..poZFKKIIIIIIIIIIKKFZoy..uiajjjiajjkkkjjjjjip",
"jjsiiaajsaiiijiig.+.joZFKKIIIIIIIIIIKKFAoi.+.agjjiiipaiugaiipiij",
"iiiiiiiuuijpiijj.+X.joAFFKKIIIIIIIIKKFFAoj.X+ jjiiuiiiyyiiiuiiij",
"uiuaaaiuyajjsii.++X.joSFALLKIIIIIIKKKAFAok.X++.jiiijjjiipjjjjjaj",
"iajjjjiiikkauu.X%.X.jovFASKIIKKKKIIKAAFv$j.X.%X.aijjjkajjkkjajjj",
"ajjjjjiiakkji X+%.XX.@dSAdIIIIKLIIIIdAAd@.XX.#+X.ijjjjfjjkkjjjii",
"jjjjgaijjkkgi.+%%.XX.goSrIILKIIIIKKIIrAou.XX.%%+ ujjjjiajkiyuuui",
"jjjiiiuiiiii X+%.XXX.aodrIoovKKKKvooIrdos.XXX.%+X.jgajiijjuyuiia",
"iaiiiuuuuuii.+%%.XXXX.joAKn4ddKKddd@KAoi.XXXX.%%+.jipjisajaijkja",
"jjjijaiiaia.X%%X.XXXX jkoAS5nFooFdvAA@uj.XXXX.X%%X.giiiiaaiijjja",
"jjjgjjaajkj.+%%.XXX...XXXovn6IddIKAv@XXX...XXX.%%+ iajijjauyuiaa",
"jjaijjajkj.X+%%.XX X%&&+XovnnKILKKAvOX+**#X.XX.%%+X.fjjjjguuuagj",
"jjuiaiiijj.X+%%.X.X%&&*&#rddnIdIdKddr#&&&&%X X.%%+X.jjjajkaijkka",
"kjuijjgiaj.X+%%.X.#&t&&#%%%@ooooooo47%%&&t&% X.%%+X.jjiuiiiuiaji",
"kjaajjagaj.X+%%..X&&ttt&&&%%%mmBm474MB&ttt&&X..%%+X.jjjiiaiiiijj",
"iiiiiiiiaj.X%%%X.&+%%%&t&ttt%VmmBeMn$6B&%%%+&.X%%%X.jjaiiagiijjj",
"jiigjguuui.X%&%X.&%&tt%&ttttBtBm67$JD$MBtt&%&.X%&%X.giagjjsgjjjj",
"iiijaiyyjj.X%&%.&%&ttt+%&ttttBmenPP66D6Mttt&%& %*%XXiuiaaiuijjjj",
"12yyw2,2yy.X%&%.&%&tttX%%*tBmm5nO66JD$66ttt&%&.%&%X 222222222yy2",
"===,2,,,2,.X%&% %+&&t.X+%&tttB55PPJ65D$X t&*+%.%&%X ,=,,1,=,,,=;",
"uuiiy2yaii.X%&*.&%%+...X+#o33Vm8666DD66.. +%%&.&&%X.iiijjiiaaiui",
"lzcxkalcbb.X%%*.%t&&.xz.+oho9333eDJ66Mnzx &&t% &%%X.xccbcxxccxxz",
"klzlkkcczk X+%% Xt&+. kX++ooo999333mnGek..+&tX.%%+X.lzzxzllzlllz",
"aiiajjkjuu X+%%%.%t&%..X+ohotooo999333n..%&t% %%%+X.ajaiaiiuuuia",
"iyagiuiiui X+%%+.%t&&&.X+%o%++B5ooo999O33&&t%.+%%+X.jjsiiiiuuyia",
"yyajiuyiaag +%%+.+*&X&.+%oho&Bm54mCOoo999X&&+ +%%+ ajjiiyiuaaiui",
"iiajjaakkjiu +%+.X&*XX.+%+o%+NBN4CmMM4OOoX&&X.+%+.jiiaajiiajjaii",
"ijkkaijjagjg +%+. +&%%.%tohoXNN%en44mBm %%&+.9o%+.kaajjjaajjkjja",
"gkjjaiiiuiia X++.i.....+toootX.. N6mBm&X....oo++X.jipjjiiigjkaui",
"iuiiiuuiuiuaj X+.jiiij.oohhhoo.. Xtm&+&.uuuii.+X.jjiiijiaiaaiiii",
"iiaiiaaijaakka.X.jjaa<<ohhohho.X ++&+%+.<aiii.X.aaiuiiigigaaiiii",
"ajkjajgajiijjiu .jj0<1ohhhhhhhoX.X++t++.111jj..jiiuujjjjigjjjjai",
"jkkjaiaiuyyijyyjji<<<oh@hshhhohoX.+#++X.<<<<jjjjaigjkjjaajjaiaiy",
"jjaiuigaiuujjjijj<><<<ohhohohhoXXX.+%#X.<<<<<jjjaajkkjaigjjiuiuy",
"jjiuijjgjjjkkjaj01<<<.Xohhhhho<...X%#%%+..<<q<iiuijjjaiiaaiiuiiu",
"ajiiakjiuijjjjip<101<.+@ohohoo;;<.+#&&&%.<<q1<uyyuaiuiiiuiiiiaja",
"ijaiajuy22yiaiia<<<<<.%&&oho%.;-<.%&&&&&+.<<<<iiijkisgjjijjiiijj",
"uaiujji22yikjigjk1<:;.&&&&o&%.;;<.%&&&&&&.:<<jjjkkaijjaiajaiiuaj",
"ajjuaji2yikljjjkji<::.%&t+tt+.:;<w.tt+t&% <<jfjjjgiijjaisjiiijjj",
"ajaujju2ikczjjjjuii<00.......1:;<wq.  . .<<jjjjjiiajjaiiiijjjjjk",
"aiuuajiygklkiiaiauiaj0011<1<:q;-<wq<001<<ijjjjaiijjjjaiujaaajiii",
"gaiujkjajkkauijijuiijjjii<:1:1;=<w0<<jjuijajjgiiijiujjaijaiuuiiu",
"jjjsjkagjkjiujjjjaakjjgaiiuajjw1uzkiajpiajjaiiiijiyujjaiiiuiiiaa",
"jkjaajjaaiaiujjjiiajiiiajiijkk2,ixzjiiiussjiiiaijjuajauajgigjkjj",
"ijaiuajiiuuuijkgaiiiiyiiiuajkj2,ixzaaaiiajaiuiiijiijkkjijapjjjjj",
"jjjiajjsiiajajjiiuiuiyiiyygkjay,iczaaajgjaiiiajajiajjjjjjpijjjjj",
"kkjjasjjjajjjjjiuyiuyiaiyujjji2,uzziigajkiuuajjjjjgpjjiijjjjijjj",
"jjjaiuajkjjjaaiuuuaiiajiajkjii2,uzluiiiajiujjjgjjjjauiiijjiajiii",
"jiiiiuijjjjjiaiuijjjajjajkljaa2,icziiiajjiijjjijajjiajjpiiiauuui",
"jiijiijjjjijajaiijkpigkjjjkkjay,icljijjjjiijkjiaifauijjiiijjaiia",
"jaisjajjjjjjjjgiajjaujkjiajjai2,ixkiijijaiipjiijgiiuipiijfjjjaaj",
"jjaiijjjjjiaipaigajjjjjjuiaiuu2,uxziiiiaiiuiiiijaiiagiajijjjjigj"
};
