/* XPM */
static char *ed21680106651[] = {
/* columns rows colors chars-per-pixel */
"64 64 79 1 ",
"  c #04050F",
". c #050511",
"X c #0A0E1A",
"o c #0D161F",
"O c #1D131E",
"+ c #0E1621",
"@ c #0E1822",
"# c #1D1220",
"$ c #131F2B",
"% c #281920",
"& c #14202C",
"* c #1B2C36",
"= c #1B2B38",
"- c #2F2F2F",
"; c #312927",
": c #352C2B",
"> c #39312F",
", c #333333",
"< c #3D3533",
"1 c #3E3936",
"2 c #3C3C3C",
"3 c #421E06",
"4 c #4F1716",
"5 c #501817",
"6 c #501819",
"7 c #63351D",
"8 c #403635",
"9 c #413936",
"0 c #453D3A",
"q c #6B5C3F",
"w c #3E3747",
"e c #3C3847",
"r c #3E3749",
"t c #3F3848",
"y c #154257",
"u c #154259",
"i c #454545",
"p c #474749",
"a c #474948",
"s c #4D4D4D",
"d c #504E4F",
"f c #4E504E",
"g c #51514F",
"h c #4F4E50",
"j c #4D4A5D",
"k c #514F50",
"l c #4A5155",
"z c #495058",
"x c #525252",
"c c #595957",
"v c #575759",
"b c #5A5A5A",
"n c #615F62",
"m c #636363",
"M c #6A6A6A",
"N c #726B7D",
"B c gray44",
"V c #9F2929",
"C c #9D3F3F",
"Z c #A02929",
"A c #9E3F40",
"S c #9E4040",
"D c #AC7676",
"F c #AB7877",
"G c #AC7578",
"H c #CE755D",
"J c #D0765E",
"K c #F78D73",
"L c #AF9A97",
"P c #B19997",
"I c #B29998",
"U c #B4ACAA",
"Y c #C4B59E",
"T c #FCAA95",
"R c #D0C8C6",
"E c #E5E6C7",
"W c #E6E6C9",
"Q c #ECE3E4",
"! c #FFFFFF",
/* pixels */
"sxxxccxxxshxssssxxxsvxppsdsaxx2,xmnsslxxcxxddxsasaaxxxaakbbxxsas",
"xccxxxxxssvcxassxxsaxdi0slgsxxi1vMbffxxgsssaskxxksasxsaacbxxxksk",
"xxxhxddsssxbxhxxxxsaxsaisssssge1fmcsxxxsaaaasxvxxkssxxsdvcxxxxxx",
"sxspasxxspsxxxcxskssxdasxxdsffi,snvsdxgssdxsxxxxxxsdxxsxkxxksssx",
"sxdaaxxxdasxgsxxassaksskcxxxxxi,smbsgxxakxxxxxxaxksdxksxasdxsass",
"xxdssdxxssxxspasasdxksxkkaxxxxi,ancssxxdsdxdxxgssaiaddasssxcshxx",
"sxgsdsgxksxcsassxxxxsxxxksxxxli,icxsxxxsasxdxxxssaaakdsssxvvxxxx",
"slgxxxxxvsxxxkxxxxxxsxcxxO#O%#OOOOOsxvxsasddaasdxsasvcxsdxcxaska",
"xxxxfxxxssxxxkxxxxxlxccOOPIYYYYYYIPO#hsppssasassxkxxcxxsxxxsxsss",
"xxxxsssxsxsxsssxxxhsdgOPYYEEEEEEEEYYPOsasxxgssasxxkxxxsssxxxxxss",
"xxxxssssssasssxxxgsasOPYEEEEEEEEEEEEYIOhxccxxssscxsasssaxxksglsx",
"vcxssssxssssxxxxgfdssOPEEEE!!!!!!EEEEYOkhksssssxbxssshxxcxxhgxss",
"cxxxxdxxxxsssxhslsssOIYEEE!!!!!!!!EEEYPOiaaipsxxxxshxxcxxcxlxxsd",
"xxsssgxxxdgssxgsxssdOIYEE!!!!!!!!!!EEYPOisxskhxxxsssdxssgddsddsx",
"sssssssapsxgsdxlx..sOPYEE!!!!!!!!!!EEYPOd..xxxxxsssssaiisssssssx",
"aashddsaasxxssdg.+.sOPYEE!!!!!!!!!!EEYPOx + vxxvsasxxxssxxxxxggx",
"sxxxxxssscbxaag.+X.dOPYYEE!!!!!!!!EEYYPOx.X+.xxcxhxxxcxxxccxxxxx",
"kxxxxxssxbbvss ++X dOPYPEEE!!!!!!EEEPYIOd.X++.dgssxxxxhxxbvkxxss",
"xxxxxxshxxxxs.X&.X.sONYPLE!!EEEE!!EPPYNOd.X.&X.daaxxxxshxchapass",
"xxxkssashsss.X+&.XX.OjPPj!!!!EE!!!!jPIjO.XX.&+X.sagdxxssxxsiasss",
"sgssssapspas.+&&.XX.sOPw!!EE!!!!EE!!wPOs XX.&$o.sssxsxakkxdsxcxx",
"xxxsxssskhx.X+&.XXX.sOjw!OONEEEENOO!wjOx.XXX.&oX.sxxhssxkxssxxxx",
"xxxxxxdxvxx.+&&.XXXX.aOPEZ5jjEEjjjOEPOs.XXXX.&&o.akssgfxxdaipssk",
"xxdsxxsxvv.X&&X.XXXX.ixOPP5VYO#YjNPIOda XXXX X&&X.xkxxxxxxaashxx",
"xxasxdssxx.o&&.XXXXXX.xcONV5!jj!EPNOXX....oXX.$&+.sdxxxxxxxsxbcx",
"bxasxxgsx X+&&.XXX....XXONVVE!EEEPN#X+&&&X.XX.$$+X.ddxxasgsaaxxs",
"cxdxxxglx.X+&&.XX.X$&&o&tjjV!j!jEjje&*uuu&X.X.$$+X.xxxxsssxsskxx",
"hssssasss.X+&&.X.X+*****&&OOOOOOOO44*$uuu&&.X.$$+X.xxxfdsxsssxxx",
"xssfxlsaa.X+&&.X.&*uuu*&*&$&CCDA555VDuu****X..&$+X.xlffxxglfxxxx",
"sshxgsppx.X&&&X.+**uuyuuuu&&FCCDqVV%5D*+&@+*.X$&&X.ssassgssfxxxx",
"122p02,2i.o$=&X.u+****$uuuuDuDC55%RU%VDuuu&*.X$*$X.22220222220e2",
"--,,,,,,,.X$=&X.uu+$+&+*uuuuDCqZQQ55U4Vuuu+*&.$*$X.,,,,,,,,,,,-,",
"aasga2idd.X&*&.X*+**uu+$*uDSA5V%55RU%54*uu*+*.&*&X.pssfxxsssksas",
"nmMmxxbBB.X&*&.+*+*uuuX$*uuuD55QQR55U%..uu+$&.&*&X.nmMMBMMMMMmmM",
"bbmnbbmMn X&** &&*&uu.X+&=O3333655UU55.. +&* +**&X.cnmmMmbmmmnmm",
"xsskxvcca.X&&*.*u*&..d.o+OzO77733333VVs.&&**.&*&&X.sxxssssasaaax",
"sasxsapsa.X+&&.&yu&.as.+&$#OOOO7777733333&**.&&&@X.hxxsssssaaasd",
"aidxsaadd X+&&&.*u+..a.&&OzOuA5OOOOO77777O*+.3&&@X.hxxhspaakdsas",
"aadxxkxcc.X+&&+.&=*&..X&&*O*+D5VKTHZOOOOOO*X.O$&@X.sssxxsssxxdss",
"dcbbgdxxdg.+&&+.&u***.X&+OzOFA65CHC5V5.&&*@.O#$$@.xxxxxxxkxxccxd",
"xcvxdssdsss +$@.+**X*.+&++O&AFC4HCVV5&......++$+.xxddxxsssxxxsss",
"aasaaspsasa.+$+.X**XX.+&&OzOCC$qV55CGCX.saas.+$+.vxsslkskskxxsas",
"ssssasddxkk.X++..+*&&.o&##OoX...C5CDCuX.kkds.++X.ksassxsdxssssss",
"xvvcxxxdxssx.X+.b.....OOzzhOO.X.$uC*+u+.xxxg.+X spaaxxxxsxxxxxxs",
"xbcxdddsaiisx.X.xa<<88OlzOzzO.X.+$*+u&+.8<ss.X xdsdxccxkxxxdsdsa",
"xxxsasxgsssxxs..c<<<8OzlzzzzzOX.X&+++&X.<<<s..xxkxxcbxssxxxsasai",
"xxsaaxxxxxxbbxxx<<<<OzOhzzzzOzOX.++uu+.<<8<<xxsspsxxxdssdgsssasp",
"xxssxcxsasxxxxs<<<<1<#zzOzOzzO XX.$+++..<<<89saiiaxgassssasssdxx",
"sxxaxxai22asdss<<<<<< OjlzzzO<:...+&&XX. .<<8ssssxvdxxxxsfsldddx",
"pkkaxxs02igxxsx81<<<.+OOlOzOO9:;.X&&&$+.<>><<ddxccxsxxshxxxssadx",
"scxphxa22lnmvxx9<<<<.***OzO&.9>:.+*=**$X.8<<<xxcxxssxxsskxssgxxc",
"xxdakxs2hbmmxxxx<><<.$*u@Ou.<9>:.+uu+u*+ <<9xxglssdxxkssssxxxxxx",
"ssaaxxsaxbmcssdsg<<<1......<<<>;.X+++++..<8xxxxssxxxxksaxxkxgsss",
"xkasxcxkxccdasxdds><<<<<<,<<<<:;8.XXXX..<<xxxxsssxssxxxsxssaassa",
"xxxdxcxkxxxsaxxxxsxx888<<<><<9:;>0..  .<xxxsfsssxsaakxgsssassgxk",
"xvxxxxxdkxsssxxxxsxxsskd<<<<19>;<008ssssssxsssssxxasxdssxxskxvxx",
"sxsssdxsssspaxcxssssaiasaaxxvv0,dMmgssssxxdsssssxssxbcxsxsxxxxxx",
"xxxssxxxssxxxxxhssspasssaaxvvx2,sMmgxxxxxxsassdxxsxxcxxxxxsxxxxx",
"bcxxfkxxxxxxxxxaaasaasdsiaxxff2,amndsxdxxdaaxxxxxxxdhsssxxxxxxxx",
"vxxxsasxxxxxdxdpaadsddxsdxcxfs2,smbsassgcspdxxxxxxxsssssxxssssas",
"xssssadxcxxxsssasxxxkxcxxbnxlg2,sMnssslgxssxxxsxfxssgxxfsssxsass",
"xsssssxxxdlxxxxssxvxsxxxxxbxxxi-fMnfxdxxxssxxxsxsxssdxxssksxssss",
"xkxsxxxxxddxxxxsxxxhskxxsscxff0-smnssggxxssxxxsxxsssssssxxxxxkkx",
"xxxssxxgxgxsssxssxxxxxcxasxssp2,aMnsssddkaassssxhsssfddxdlxxxsxx"
};
