/* XPM */
static char *ed31680106652[] = {
/* columns rows colors chars-per-pixel */
"64 64 72 1 ",
"  c #05050F",
". c #050511",
"X c #0A0E1A",
"o c #1D131E",
"O c #0E1621",
"+ c #0E1822",
"@ c #1E1220",
"# c #131F2B",
"$ c #281920",
"% c #14202C",
"& c #1B2C36",
"* c #1B2B38",
"= c #2F2F2F",
"- c #312927",
"; c #352D2B",
": c #38302E",
"> c #333333",
", c #3D3533",
"< c #383639",
"1 c #3C3C3C",
"2 c #421E06",
"3 c #421E08",
"4 c #4F1716",
"5 c #4F1917",
"6 c #501817",
"7 c #63351D",
"8 c #403635",
"9 c #413937",
"0 c #433C3B",
"q c #6B5C3F",
"w c #3E3747",
"e c #3E3749",
"r c #154259",
"t c #454545",
"y c #4D4D4D",
"u c #504E4F",
"i c #4E504F",
"p c #51514F",
"a c #4C4E52",
"s c #4D4B5D",
"d c #514F50",
"f c #4D5152",
"g c #495058",
"h c #525252",
"j c #575956",
"k c #575558",
"l c #585659",
"z c #5A5A5A",
"x c #615F62",
"c c #636363",
"v c #6A6A6A",
"b c #726B7D",
"n c #717171",
"m c #9F2927",
"M c #9F2929",
"N c #9D3F3F",
"B c #A02829",
"V c #9B403D",
"C c #9D3F40",
"Z c #9E4040",
"A c #AC7676",
"S c #CF755C",
"D c #B19997",
"F c #B29999",
"G c #B4ACAA",
"H c #C4B59E",
"J c #C4B5A0",
"K c #D0C8C6",
"L c #E5E6C7",
"P c #E5E6C8",
"I c #ECE3E4",
"U c #FFFFFF",
/* pixels */
"yhhhljhhhyhhyyyyhhhyhhtyyyythh1<hczyyhhhhhhyyhiyytyyhhttyzzhpyyy",
"hllhhhhhyyjlhyyyhhyyhht1yihyhht<jvcyyhhhyyyyyhhhyytyhyyyhzhhhhyy",
"hjhiyhyyyyhzhyihhhythyttyyyyyi1<pclyhhhytyyyyhlhhpyyhhyilzhhhhih",
"yhptyyhhytyhhhlhyyyyhyyyhhhyhft<yxlyyhhyyyyyhhhhhhyhhhyhhhhhyyyh",
"yhytyyhhytyhpyhhtyyyhyfhlhhhhht<yxzahhyyhphhhhpyhuyyhhyyyyphyyyy",
"yhhyyhhhyyhjyyyyyyyhyyphyyphhh1>txlyyhhyyhhihhyyyytthyyytihjyppa",
"yhhyyyhhhyhlyyyyhhhhpyhhyyhlhft>tzhyhhhytuhahhpyyytyhhyyphlluhhh",
"yhyhhhhhhyhhyyhyhhhhdhhlhhl@$@oooooo@lhytypytyyyyytyhlpiyhhhyyyy",
"hhhhhyhhhyihhhhhhhhuhhhhaooDDHHHHHHDDoottayyyytyhphhlhyyhhhyhyyy",
"hhhhyyyhhyyyyyyhhhyyhhhdoDHHLLLLLLLLHHFodhhuuyyyhhyhhhyyyhhphhyp",
"hjhuyyyyyyyyyyhhhyyyyyhoDHLLLLLLLLPLLLHDojlhhyyylhyyyyyyhhhyhpya",
"lhhyyyhhyyyyyhhhhpyyyphoDLLLLUUUUUULLLLHouyyyyihzhyyyyhhlhhiphyy",
"lhhfphhhhayyhhyyyiyyhhoDHLLLUUUUUUUULLPHDottyyhhhhyyhhjhlhhyhhyy",
"jhuyyuyhphyyyhpyhyyyhhoDHLLUUUUUUUUUULLHDoyuyhhhhiyyhyyyhhyyyuyh",
"yyyyyyyyyyhhyyhhpyy..hoDHLLUUUUUUUUUULPHDol..hhhyyyyyyttyyyyhyyh",
"tyyyhyyttyhhyyyhhd.+.hoDHLLUUUUUUUUUULLHDoj.+.hhyyyhhhyyihhhhyhh",
"yhhhhhyyylzhyyhhl.+X hoFHHLLUUUUUUUULLHHF@h.XO.liyhhhlhhhzlhphhh",
"phhhhhyyhzzjyyhh.++X.hoDHFLLLUUUUUULLLDHFoh.Xo+.yyhhhhphhzlhhhiy",
"hhhhhyyphhhhyyy.X%.X.dobHDFPUULLLLUULDDHboy.X.%X yhhhhuyjhhttyyy",
"hhhyyyyyuyyyyt.X+%.XX.osDDsUUUULLUUUUsDFso.XX.%+X.hpdhyuhhyttyyy",
"ydyyyytyytyyyy.+%%.XX.hoFwUULLUUUUPLUUwFoy.XX.#%X.huyhyyhhhyhlhh",
"hhhihyyyhpyhd X+%.XXX.hoswUoobLLLLbooUwsof.XXX.%+X.yyyypphyyhhhh",
"hhhhhhyhlhhhd.+#%.XXXX.h@FLM4ssLPsssoLF@j.XXXX.##+.uhhyhhyttyyii",
"hhyyhhyhlhhh.X#%X.XXXX.htoDD4MHooHsbDDohh.XXXX.X%%X.dhfhhhttyiph",
"hhyyiiyyhpyy.+#%.XOXXXX.utobM4UssUPDboXX....XXX.##O hhhyhhyyhljh",
"zhtyhhpyhpi.X+##.XXXXXX. XobMMLULPLDboXO%%%X.XX.%#OX.hyyyhyyyhhy",
"lhyhphpphhy.X+%%.XXX ...X+wssmUsUsPssw#&rrr%X.X.#%+X.hhyyyyyyfhh",
"iyyyyyyyuhy XO%%.XX.X%%#o+##oooooooo66&#rrr%% X.%%+X hiyyhhyyhhh",
"hyyihiytyyy.XO%%.X.X%&rr&O&%%%NNAN666MArr&*&+X..%%+X.yihhpiihhhh",
"yyippytthhh.X%%%X..#%rrrrrrr#%ANNAqMB$6A&X+%#&.X%%#X yyipitiphhh",
"<1tt1<<1tt1.X%&%X.XX&rrr&O&rrArAN66$KG$BAX&&+&.X%&#X.1111111w101",
"===<<<>><<>.X%&%X.**+&+#OrrrrrANqMII66G6BX&&O+.X%*#X.>>><>>>>>>>",
"ytiit1tuayy.X%&%+.&++rrr%&rrANN4m$46KG$66.+&#X.O%&%X.yuhhyyiiyyy",
"zcvclhzvnvv.X%&%+.#%rrrrX&rrrrA46IIK66G$..XO#O.O%*%X.vvnvvvvvcvc",
"zxcxlzvvczz.X%&&O.##rrr&.%&ro2222664GG56.X+&&%.O*&%X.ccccxxcxxzc",
"pyyphlzhyyy.X%%&#.&###X.XOOogo77722222Sq.X&&##.%&%%X.hyuyytyytyh",
"itihytyytyh.XO#%#.*r*&X .X%%ooooo7777722222##+.#%%+X.huyyyyyttyp",
"ttihytyyyap.XO%%#O.rr&X.XO%ogorA6o@ooo7777o##X.2%%+X huuttyypyyy",
"ttphhphjlhu.X+##+O.*r&#.X+%&o&AN66NSZ6ooooo&+.7o%%OX.upuyyphhpyy",
"hlzzhyhhuuhp O%#+O.#&&&X.++@goNAN5SNBM6X.....ooo%%+.uhhkyhhhjhhi",
"hjjhpyyptyyuh.O#OO.#&r&#.+%OoONN#qB65NAN.. ...++#o.ayhhyyyhhhyyy",
"yyyyytyyyyyyh O#O..O&&X& O&ogoX..XN6NAV+.,tyyh.+#+.yydhyhyuihyyy",
"tyuyyyyyhhhjl.X+O..X&&XX.+&%ooo. +r+NOr+.,,,yy ++X tyyhyyhhyyyyy",
"hjlhhhhdhyyhhy.X+.d.+&&# Ooogggoo+r&+&rO.9,,,h.+X.tyhhhhyhhhyhhy",
"hljfyiyhtttyhtt.X.:,. . X+oggoggoXO&OO%X.,,,,,.X.yihljhyhhhyyyyt",
"hhhytyhyytyhhudh..,,88,.+oasggggaoOOrr% ,,,,,9. ffhzzhhyhhhyyytt",
"hhyyyhhhhhhzlhahh,,,:,,.ogoggggg@go+OOO ,,,,9,,ytyhhiyyyyhyyyyyy",
"hhyyplhyyyhhhhydd,88,,.O&oggogogso.X%%OX..8,9,:ttyppytyyyyyyyyhh",
"yhpyhhyt<1tiyyyyy,,,,,.&&&oggggso0.###O+ ,,,,,,yyjlpuhhhypdyyyih",
"thhthhy11tijhphhj8,,;:.#&roogogoo.X#&&*#X ,,,,,lhlhyhhyfhhpyyyyh",
"yhhtyhy1tixxhhhjuy,::,,.....ogo;8.O&&&&#O.,,,,hhhhyyhhyyuhyyhhhl",
"hhyypjt<ylcchhhhyyy,89889,,,,o:;8.Orr+r&# ,99hhyyyfhhyyyyyhhhhjh",
"hytyyhyyhzcjyyyyhyyy,99,,,,,,,:-, +O+++OO.,,hhhyyhhhhhyyhhyhyyyy",
"huyyhhhihllyyyhyayyyhh,,,,,,,,;-:0.......,dhhpyyupythhhyhyytyyyy",
"hhhdhlhhhjhyyhhhhyhhhhhhay,,,9:-:008,9yyhhfayyyyhytyhhiyyyyyyhyy",
"hjhhhhhhupyyyhhhdyhhyyyhhyyhhj1>ycxuyyyyyuiuyyuahpyyhyyyhhyhhhhh",
"yhyyyphyyyytyhlhyyyytttyyyhhzh0>uvcppyyydhhyyyyphyyhzlhyhyhhhhhh",
"hhhyyhhayyhhyhhpyyyyytyyttpjlh1>yvxppphhhpyyyyyhhyphlhhhhhyhhhhh",
"zlhhuphhhhhhhhhyytyytyhytthhfi1>tcxuupphlytyyhhhhhhipiyyhhhhhyhh",
"lhhyyyyhhhhhyhittyyyyhhyyhlhiy1>yczyyyyajytfhhhhhhhyyyyyhhyyyyyy",
"hyyyyyyhhhhhiyyyyhhhhhlhhlxhhi1>yvcyyyhhhyyhhhyhyhhyhhhyyyyyyyyy",
"hiyiyyphhyhhhhyyyhhhyhjhhlzjhht>yccuypyhhyyhhhyhpyyyyhhyyyphyyyy",
"hyyphhhhhhyhhhhyhhhyyyhhyihhyy1>yvcyyhhhhyyhhhyhhyyyyyyyhhhlhyyh",
"hhpyyhhhhhhyyyhyihhhhhhpyypiyy<>yczyyyiyyytyyyyhyyyyhyihyhhhhyhh"
};
