/* XPM */
static char *ed41680106652[] = {
/* columns rows colors chars-per-pixel */
"64 64 66 1 ",
"  c #05050F",
". c #050511",
"X c #0A0E1A",
"o c #1D131E",
"O c #0E1621",
"+ c #1D1220",
"@ c #131F2B",
"# c #281920",
"$ c #14202C",
"% c #1B2C36",
"& c #1B2B38",
"* c #2F2F2F",
"= c #342C2A",
"- c #39312F",
"; c #2F3130",
": c #333333",
"> c #3D3533",
", c #3C3C3C",
"< c #421E06",
"1 c #4F1716",
"2 c #4F1917",
"3 c #501817",
"4 c #63351D",
"5 c #403635",
"6 c #413937",
"7 c #433C3A",
"8 c #6B5C3F",
"9 c #3E3747",
"0 c #3C3847",
"q c #3F3848",
"w c #154259",
"e c #454545",
"r c #494947",
"t c #474749",
"y c #4D4D4D",
"u c #4E504F",
"i c #50504E",
"p c #4C4F53",
"a c #4D4A5D",
"s c #504E51",
"d c #495056",
"f c #495058",
"g c #525252",
"h c #575958",
"j c #5A5A5A",
"k c #636363",
"l c #6B6A6B",
"z c #726B7D",
"x c #9F2927",
"c c #9F2929",
"v c #9D3F3F",
"b c #A02829",
"n c #AC7676",
"m c #CF755C",
"M c #F78E71",
"N c #AF9A97",
"B c #B19997",
"V c #B19999",
"C c #B4ACAA",
"Z c #C4B59E",
"A c #FCAA94",
"S c #D0C8C6",
"D c #E5E6C7",
"F c #E6E6C8",
"G c #EDE3E4",
"H c #FFFFFF",
/* pixels */
"yggghhgggysgsyyygggyggetryyrdi,:glkyyigggggyygyyyytyggttyjjgiyyy",
"ghhggggsyyghiyyyggyygieedigyhge>gljpsigiryyyygggyytysyrygjggggyy",
"gggsyguyyyghgsggggytgyt7yyyruge:gkhyiggyyyyyyghgggyyggyyhjggggig",
"ygyryyggyyyggghgyyyygsyygggyii,:ykgygggyyyyyggggggyyggigggggyyyg",
"ygytyyggyyygysggryyyssyghggdghe>ykjyyguygggiggyygiyyggyyyysgyryy",
"gggyyiggyyggyryyyyyiuyssyyuggie:tkhrsggyyygsgggyyyetiyyyrsghpsig",
"yggyysigyyghyyyyggggyighytgooooooooooggirysysigyyyerggyyyghhiggg",
"ysyggggghyggiygyggggygghg#+BBZZZZZZBNooytyuyyyyyyytyhggsisggyyyy",
"ggggugggsyiggigggggsggggoVZZDDDDDDDDZZVoyyyyyryygygghgsyggggiyyy",
"ggggyyygsyyysyyggigyiggoBZDDDDDDDDDDDDZBoggysyryggiiggyyygisggyy",
"ghgsyyyyyyyyyygggsyryygoBDDDDHHHHHHDDDDZ+hggsyyyjgyyyyyygggyipyg",
"hggyyyygyyyyuggggiyyyg+BZDDDHHHHHHHHDDDZB+yyyyyghgyyyyighggsggyy",
"hggsyggggyyygipyisyyggoBZDDHHHHHHHHHHDDZVoreryihhsysgghghggigiyg",
"hsysygggggiyygsyiyy .goBZDDHHHHHHHHHHDDZBoy. ssggyyysyyyggyysyyg",
"yyyyyyyryygiysiggd.O.goBZDDHHHHHHHHHHDDZBoh.O.ssyyyyyyttyyyyyyyg",
"rrysiyyttyggyyygg.OX.goVZZDDHHHHHHHHDDZZBoh.XO.hyyyiggyyyggggsig",
"ygggggyyyhjgyrgh OOX.g+VZBDDDHHHHHHDDDBZVog.XOO gyggghggghhgsggg",
"ygggggyygjjgyyg.X$.X.g+zZBBDHHDDDDHHDBBZz+g.X.@X yggggsggjhgggsy",
"gggggyyigggssr.XO@.XX.oaBNaHHHHDDHHHHaBBao.XX.$OX.ggggyyhhseeyyy",
"gggiyyyysyyyyr.O@$.XX.ioB9HHDDHHHHDDHH9Boy.XX $@O.guggyyggreeyyy",
"ssyyyytyyrrsy.XO@.XXX.goa9HoozDDDDzo+H9aoy XXX $OX.gygyysgsyghgs",
"iggigyyygiggd.O$@ XXXX hoBDx1aaDDaaa+DBoh XXXX $$O yyyygigyyghgs",
"gggiggyghggg.X$$X.XXXX.hroBB3xZooZazBB+gh.XXXX.X$$X.igsggyreyysi",
"ggpyggyighgi O$@.XXXXXX tyozx3HaaHDBz+XX .. XXX.$$O.igigggreysii",
"ggyygyyydgs XO$$.XXXX....XozbbDHDDDVzoXO$$$X XX.$$OX.gggggpyghhg",
"jgtygggyigs XO$$.XXX.X$$O$0aabHaHaDaaq&%%wwwX X.$$OX.ggrygyryigs",
"hgyiggigigy XO$$.XX X$ww%&@$oooooooo33%wwwww$.X.$$OX.ggyyyuyyggg",
"syyuryyrggy.XO$$.X.X$wwwwO%$$$vvnv113bnww%%%$.X.$$OX.giiyggyyggi",
"gyyygdrtyry X$$$X..@&wwwwww%$$nvvn8bb#1n%OOOOO.X$$$X.yuiidgygggh",
"yyygiyttggg.X$%@X.XO%%%%%Owwwn%nv33#SC#cnX%%$%.X$%$X yrdsyyysggs",
":,et7,:,ee,.X$%$X.OwO$O$O&wwwwnv8bGG31C3xXww$&.X$%$X.,,,7,,,,7,,",
";=;:,::::,:.X$%$O.wO&wwwO@wwnvv3b#33SC#11XwwO%.O$%$X.:::::::::;:",
"rryse,esssy.X$%$O.w$wwwwX$%wwwn33GGS33C#..%%$$ O$%$X.syggsryiyyy",
"jkllhgjllll X$%%O $$&ww.XO$%o<<<<111CC13...Ow$ O%%$O.llllllllkkl",
"jkkjhjllkjj X@$%$ %$$$.h.OO+fo444<<<<<ccl.$w%$ $%$$X.kkkkkjkkjjk",
"iyysghjgyyy XO$$$.%w%X.y.O$$ooooo44444<<<<<%%$ $$$OX giyyyyyyyyg",
"yrygyryyyyg.XO@$$.%w%$.g.O$+fowv3oo+oo44444o&O.<$$OX gsyyryyttri",
"teygyttyyys.XO@$O.$%%%X.X$$$o%On3cMAmxoooooo%X.+$$OX.gdyrtyyyyyy",
"tysggsghggpy.O@@O.$%w%$.X$Oodonv33vmv3c1.$$%O.++$$O.yuggyysgggyy",
"yhjhgyggggisg.O@O.O%%X%.O$OOo$vnv2mvcc1O......OO$O ggggggygghggu",
"ghhgssysryyys.O@O.X&&XX O$$odovv$8c31vnv diggh.O$O.yyggyyyggggyy",
"ryrrrryyyyyyg.XOO. O%%$.O$%ooo...Xv3vnvO.ryyyg.OOX yyiiysyyigyyy",
"yyyyyyyygggghg.XO.g.....O+offfoo.Xw$vOwO.>yryy.OX.rrypssuigyyyyy",
"gghhgggsgpyggyy X.gg>6>..offodfo.O$&Ow%X.66>gg X ttyigggygggggyy",
"hhhiysyyteeyyytg .y>>>>>offfffff+XO$OO$ >>>>>g .gysghhgsiggpyyyr",
"gggytyigyyyygyyggy>>>>>ofofffffofoOO%%XX>>>>66ggsghjhgsygggyytte",
"sgyyyggggggjjgggg6>>>>>.offofoffoX.X$XOX >>>>>>yrygggyyysgyyryyy",
"sgyyshgyyyggggyyg>>>>>>.@offfffo...$$$OO..>>>>>eeypyryryyyyyyuis",
"ygiyggye,,tyyyysy>>>>>.O%oodofoo>.X$%%%OX ->5-5yyghygiggyggyyyyg",
"rsyrggy,,egggyggh5>---.%&&%ofo.=>.O%%%%$O >>>5-ghhsygguyggiyyydg",
"yggtygy,,gjkhgggpy->-- $%wOwo.-=> $%%&%%$.>>5>ghhiysggyyyygyssgh",
"ggyyygy,yhlkggggyyy>567......6==>.$%&%%%%.>55gidyssggyyyygsgihgg",
"gyttsgyrgjkhyyyyyyyy>66>>>-5>>==>.OwwOw%$.>>ggiyysgggsyygissiyyy",
"gsyygggighhsyygygyyygg>>>>>>>5==-7...... >gggsyyysyyigsygiryyyyr",
"ghggghggghgyyigggyggggggyy->>7-=-67>>>yygggugyyyiyrtgggyuyryyssi",
"gggigggissyyrshggyggyyiydsyggh7;ylkyyuyyyiuuyyyygiyygyyygiysgghg",
"ygyyyggyyyyryghgyyyyteryyyighge:ylkgyyyyggiyyyyygyyhjhyyggyggggg",
"gggyyggiyysiyggsyryytryyerihhd,:ylkggiggggyyyygggyyghggggyyggggg",
"jhggygggsgggiggyrtryrysy,yggsy,:tkjyyggggytyyggggggygsyyggggsggg",
"hggyyyyggghgisyttyysyggyygjisy,:ykjuyyyugytggggggggyyyyyggygyyyy",
"gyyyyyyggggysuyyyiggsghsghjhgy7:ykkyyyyggyygggyisgiyggggyyysyyyy",
"gyysyysgggggigyysghgyshgghjhgge;slkiyggggyyghgygysyyyggyyysiyyyr",
"gyyigggggggggggyigisysggyshyuy,:ylkyygsgyyyigsyggyyryyyyiighgidi",
"gggyuggyggiiyysygiggighsyysyty,:rkjyyyyuyyyyyyygsyyuiysgiggggsgg"
};
