/* XPM */
static char *ed51680106652[] = {
/* columns rows colors chars-per-pixel */
"64 64 77 1 ",
"  c #05050F",
". c #050511",
"X c #0A0E1A",
"o c #0D161F",
"O c #1D131E",
"+ c #261A1E",
"@ c #0E1621",
"# c #101622",
"$ c #1D1220",
"% c #131F2B",
"& c #281920",
"* c #14202C",
"= c #1B2C36",
"- c #1B2B38",
"; c #2F2F2F",
": c #312927",
"> c #352D2B",
", c #39312F",
"< c #333333",
"1 c #3D3533",
"2 c #373936",
"3 c #3E3936",
"4 c #3C3C3C",
"5 c #421E06",
"6 c #421E08",
"7 c #4F1716",
"8 c #4F1815",
"9 c #501817",
"0 c #511919",
"q c #63351D",
"w c #403635",
"e c #413937",
"r c #443C3A",
"t c #6B5C3F",
"y c #3E3747",
"u c #144357",
"i c #154259",
"p c #454545",
"a c #484846",
"s c #4D4D4D",
"d c #504E4F",
"f c #4E504E",
"g c #51514F",
"h c #4F4F51",
"j c #4D4A5D",
"k c #514F50",
"l c #4C5153",
"z c #495058",
"x c #525252",
"c c #595957",
"v c #575759",
"b c #595758",
"n c #5A5A5A",
"m c #636363",
"M c #6A6A6A",
"N c #726B7D",
"B c gray44",
"V c #9F2927",
"C c #9F2929",
"Z c #9D3F3F",
"A c #A02829",
"S c #9E3F40",
"D c #9E4040",
"F c #AC7676",
"G c #AA7678",
"H c #CF755B",
"J c #B19997",
"K c #B29999",
"L c #B4ACAA",
"P c #C4B59E",
"I c #FCAA95",
"U c #D0C8C6",
"Y c #D0C7C8",
"T c #E5E6C7",
"R c #E5E6C9",
"E c #ECE3E4",
"W c #FFFFFF",
/* pixels */
"sxxxbvxxxsfxssssxxxsxxasssspgg4<xmnfssxxxxxssxsssspsxxppsbbxfssa",
"xbbxxxxfssvbxsssxxssxhp4ssxsvxp4xMnfxxxxsssssxxxssssxsssxnvxxxsl",
"xxxfsxssssxbxdlgxxsaxsppssssfsy2xmbsfxxsassssxvxxkssxgsdnbxxxxgx",
"sxhassxxsssxxxcxssssxfssxxssffp2smbsxxxsssssxxxxxxssxxdxxxxxdssx",
"sxsasdxxsssxgsxxasssgssxbxxfxxp2fmnssfxsxxxgxxhsxlssxxssssxxssss",
"xxxsskxxssxxssssssshhsxxssxxxx4<snbskxxsskhxxxdsssppxssssfxxsfxd",
"sxxsssxxssxbssssxxxxsxxxhsxxxlp<pvxsxxxsasgdxlkssapsxxsssfbvxxxx",
"sslgxxxxvsxxssxsxxxxsxvxxxOO$&OOOOOOxxxspsxsasssdsasxblgsxxxssha",
"xxxxxsxxfsxxxhxxxxxsxxcxOOJJPPPPPPJJOOsaasssssasglxxbxssxxxxxsss",
"xxxxsssxxssssssxxxdsxxxOJPPTTTTTTTTPPJOadxxdssssbxsxxxsssxgdxdsg",
"xbxhssssssssssxxxxssssOJPTTTTTTTTTTTTPJOxbvxxssfbxssssssxxxlxssx",
"bxxsssxxssssdxxxlssssdOJTTTTWWWWWWTTTTPOfssssssxbxssssxxbxxsxxss",
"bvxfgxxxxxssgxsssssskOJPTTTWWWWWWWWTTTPJOpapssxxxxsfxxcxbxxsxxsx",
"xxsshssxfgsssxxsxsshx$JPTTWWWWWWWWWWTTPJOssxxsxxxsssgsssxxsssssx",
"ssssshssssxxsdlgxs..xOJPTTWWWWWWWWWWTTPJOx..xxxxssssssppsssssssx",
"sssfkhaapsxxssdxx.@.xOJPTTWWWWWWWWWWTRPJOc.#.vxxsssxxxdslxxxxxsx",
"ssxxxxssscnxsaxb @X.xOKPPTTWWWWWWWWRTPPJOd.X@.xxssxxxbxxxbbxxxxx",
"sxxxxxssxcnxssl.@@X.x$KPJTTTWWWWWWTTTJPJOs.X@@.xssxxxxxgxnbglxfs",
"xxxxxssxxvxxss.X*.X.fONPJJTWWTRRTWWTJJPNOs.o.*X.spxxxxssvvfppsss",
"xxxssssssssss.X@*.XX.OjKJjWWWWTRWWWWjJJjO.XX.*@X sxggxssxxsppsss",
"shsssspssassx.@*%.XX.s$JyWWTTWWWWTTWWyJOx.Xo.**@.sxssxssgxssxcxx",
"xxxfxsssxfsx.X@*.XXX.fOjyWOONTTTTNOOWyjOb.XXX.*@X.xksssgxxssxbxs",
"xxxxxxsxbvxx.@**.XXXo.vOJTA9jjTTjjjOTJOx XXXX.*%@.fsxlsxxsppsssx",
"xxssxxsxxxx.X**X.XXXX.xxOJJ9CPOOPjNJJOsx XXXX.X*%X.gxxxxxxspssxx",
"xxsskhsslxs.@%*.XXX. .@XXONC9WjjWTJNOXXo...XXX.**@.sxxxsxxhsxbvx",
"nxpsxxksxx.X@**.XX.X*-=@XONCATWTTTJNOXo-=*X.Xo.%*@X xxdsshsasxxs",
"bxsxxxkhkx.X@*%.X.X%====*yjjCWjWjTjjy*====*X.X.%*@X xxxsssgssgxx",
"xssshashdx.X@**.X.%-i==****OOO$OOOO79%%==i=*.X.%*@o.xxfssxxssxxx",
"xsshxsaass.X@%*..X==iii===%%*SZFD908AF=iii==X .**@X.fsfxxkkhxxxx",
"ssskxsapxx.X%%*X.-@***=u=iiu*FSZFtCA&9F=%**@=.X***X.ssssssssxxxx",
"24pp4224pp.X%-*X.=*=ii*-iiiiFiFD80&YL&AGii=*=.X*-*X.244y44244444",
";;;24<<<22.X%-%.=*=iii@*=iiiiFZtCEE99L9Aiii=*=.*-*X.<<<<2<<<2<<<",
"ssssp4pxss.X*=*.=*-uuiX*%=iFZZ9A&09YL&99iii=*=.*=*o sssxxsssssss",
"bmMMxxnMBM.X*-*.%o==i o@%=iiuF99EEU89L+X.i==@*.*=*X.MMMBMMMMMmMm",
"nnmnnnMMmn.X*==.=*%#...X@%+55FZ8809LL99...@**=.==*X.nmmmmmnmmnnm",
"xssxxbnxas X**=.*i--.sf.@Ok+q55+tLU90AAxx.-=i*.=*%X.xxxssssssssx",
"sssxsspsas.X@%*.Xi=@..s.@@OOOqqq555DAItn..@=iX.**@X.xxssssaspash",
"ppsxspsssf.o#*%*.%i=*..X@$hOiOOOqqq555A..*=i%.***@X.xxdksasdssss",
"aalxxgxbxx.X@**@.*i==-.X@%$%@@F7OOOqqq555=-i* @**@X.dsxxsplxxxss",
"xbnnxsxxxgd.@**@.@==X-.@%$zO=FZ88DHOOOqqqO==@.#**@.xxxxxkxxxbxxs",
"xxxxxsslssss.@*@.X==XX.@%@O%@ZFZ8HZCC7OOO$==X.@*#.xssxxsssxxxsss",
"sssssassasss.@*@..@=**.=%OzO@ZS%tC88ZFZ.%%=#.qO%#.xssxlsfsgxxsss",
"ssssssssxxxx.X@@.x....X=%OOOX. .XZ0SFZ@.....OO@@o.spssxhhxssssss",
"xxbxxxxgxssxx.X@.xgxxx.OOzzlOOX.@*iS@iX.bxxxx.@X.apsxxxxsxxxsxxs",
"xnxxsskspppssa.X.sssf1.OzzOzzOo.@@*#*@.31ssdx.X.ksgxbvxslxxxsssp",
"xxxsasxxsssxxds. ss,11OzzzzzzzO X@@i@X.311,sx..xklxnbxfsxxxsssap",
"xxsssxxxkxxnnxdxxx111OzOzzzzzOzO.X@=@@X.w113xdssssxxdxssdgsspsss",
"xxssxxxsssxxxxsdg1e311OzzOzOzzOX..*@*@@.111wwsappssdasssssssshxk",
"sxksgxsp44psssss11311.@OzzzzjO   X*%**@X 11111sssbbfxxxxssfsssxx",
"axhadxs44pxbxxxxew1,> *OOzOzOO,:.o*===*@.1,111gvxxxsxxshxxkssssx",
"sxlasvs4pxnnvxxv11,,.@===Oz$.e,> *==-==*.1,113xxxxssxxssxxssxxxb",
"xxssfxp4sxMmxxxxs111.====-O*.e,>.*======.113wxgdssxxxsssssxxxxxx",
"xsspxxssxnmbssssds,1.%-i@ii.11>>.@iioi=*.111xxxssxxdxsssxxsxlsss",
"xdssxxxxxbclasxflss13   ...111>:1 ......111xxddsdlssxxgsxsspsssa",
"xxxsxxxxxxxssxxxxsxxxw3131,11e>>1rr1131,3xxsslssgspsxxxslssssgdd",
"xbxxxxxxxxssaxxxgsxksssxk11w3e>:1rr11sssdsddssssxgssxsssgdsgxvxx",
"sxksskxsssspsxbxssssppasssxxbx4<sMmldsssxxxsssssxssxnbxsxxsxxxxx",
"xxxssxxgssxxsxxlsssspsssppxvvx4<sMmxxgxxxxssssxkxsxxbxxxxdsxxxxx",
"nbxxdfgxxxxxxxxsapssssdsppxxxs4<amnssxxxxspssxxxxxgdlgssxxxxxxxx",
"vxxsssdxxxxxkgsapssdslxssxbxfs4<smnhssssvsafxxxxxxxsssssxxsgssss",
"xssssssxxxxdsssssxxxfxbxxbnvxs4<sMmssssxxssxxxsxsxxsfxxdsssfsssa",
"xssfsslxxsxxxxsshxxxsxbxxvncxxp<sMnxsxxxxssxxxsgfdssdxxsssxxssss",
"xxsxxxxxxxxxxxxssxxssfxxsfxxhs4<sMnssxxxsssxxxsxlsssssssxxxxxdhx",
"xxsssxxxxxfdssxsxxxxxxxfssxssa4<smmsssssssssssdgdsssgsdxlkxxxsxx"
};
