/* XPM */
static char *ed61680106652[] = {
/* columns rows colors chars-per-pixel */
"64 64 75 1 ",
"  c #05050F",
". c #050511",
"X c #070D19",
"o c #0A0E1A",
"O c #1D131E",
"+ c #0E1621",
"@ c #1D1220",
"# c #131F2B",
"$ c #281920",
"% c #14202C",
"& c #1B2C36",
"* c #1B2B38",
"= c #2F2F2F",
"- c #312927",
"; c #352C2A",
": c #39312F",
"> c #333333",
", c #3D3533",
"< c #3C3C3C",
"1 c #421E06",
"2 c #4F1716",
"3 c #4F1917",
"4 c #501817",
"5 c #511918",
"6 c #63351D",
"7 c #413837",
"8 c #443C3A",
"9 c #3E403F",
"0 c #6B5C3F",
"q c #3E3747",
"w c #3E3846",
"e c #154257",
"r c #154259",
"t c #454545",
"y c #484846",
"u c #474749",
"i c #4D4D4D",
"p c #504E4F",
"a c #4E504F",
"s c #50514E",
"d c #4D4F54",
"f c #4D4A5D",
"g c #514F50",
"h c #495056",
"j c #495058",
"k c #525252",
"l c #565857",
"z c #575759",
"x c #5A5A5A",
"c c #5E605F",
"v c #61615F",
"b c #636363",
"n c #6A6A6A",
"m c #726B7D",
"M c gray44",
"N c #9F2927",
"B c #9F2929",
"V c #9D3F3F",
"C c #A02827",
"Z c #A0292A",
"A c #AC7676",
"S c #CF755D",
"D c #AF9A97",
"F c #B19997",
"G c #B29A98",
"H c #B4ACAA",
"J c #C4B59E",
"K c #FCAA95",
"L c #C4B5A0",
"P c #D0C8C6",
"I c #D0C7C8",
"U c #E5E6C7",
"Y c #E6E7C8",
"T c #ECE4E4",
"R c #FFFFFF",
/* pixels */
"ikkkzlkkkikksiiikkkikktiiiiukk<>kbviikkkkkkiikaiiitikkttixzkkiiy",
"kzzkkkksiikzgiiikkiikpt<iikikkt<knxpgkkdiiiiikkkiiyikiiikxkkkkis",
"kkksskppiikxkkkkkkiukittiiiips9>kbzipksitiiiikzkksiikkiszxkkkkkk",
"ikiyypshpyikkkkkiiiiksiikkpisht,ivzikskiiiiikkkkkspdkkikkkkkiiik",
"ikiyiikkiuikiikkyiiippppzkkkkkt>ibziskkikkskslhiksiikkiiiikkiiii",
"kkgiikkkiikkiiiiiiiaappkiiipkkt>uvziikkiikkgkkpiiitykiiiiskkipik",
"ikkiiikkkikliiiikkkkpakkkiOOOOOOOOOOkkkiyikppssiiitukkiiiszzkkkk",
"ikikkkkkkikkkikikkkkpsklOOFFJJJJJJGFO@kitipiyiiipitikzkiikkkiiii",
"kkkksskkkiskkkkkkkkikklOFJJUUUUUUUUJJDOtyiiiiiiikikkzkiikkkikiii",
"kkkkpiisapiiiiikkkgikkOFJUUUUUUUUUUUUJFOikkiiiuikkspkkiiikkskkia",
"lkkiiiipiiiiiikkkgiiihOFUUUURRRRRRUUUUJOkzzkkiigxkiiiiiikkkpkiik",
"zlkiiippiiiipkkkiiiiiOFJUUURRRRRRRRUUUJFOsiiiiikzkiiiskkkzkikkii",
"zlkpgkklksiihsspgiiigOFJUURRRRRRRRRRUUJF@titiikkkkipkkzkzkkikkik",
"kkpiikhskkiipspigi..kOFJUURRRRRRRRRRUUJGOi..iipkksiikiiikkiiiiik",
"iiiiiiiiiikkipskk.+.kOFJUURRRRRRRRRRUUJDOl.+.kgkiiiiiittiiiiiiik",
"yiiiiiittikkiiik.+X.kOFJJUURRRRRRRRUUJJFOl.o+.kkiiikkkiiskkkkkik",
"ipkkkkiiizxkyik.++o.lOFJFUUURRRRRRUUUFJFOk.o++.kiikkkzkkkxzkkkkk",
"pkkkkkiikxxlyi.o%.o.lOmJGFURRUUUURRUFFJmOs.o.%o iikkkksskxlkskpi",
"kkkkkiiskzkki.X+%.oo OfFFfRRRRUURRRRfFFfO.oo.%++ ikkkkipllpttiii",
"kkkiiiiiiiiii.+%%.oo iOFqRRUURRRRUURRqFOp.oo.%%+.ygkskipkkittiii",
"ikiiiiititii.o+#.ooo.i@fqROOmUUUUmOORqfOk.ooo.%oX.iaikiikkiiklkk",
"kkkikiiikkik.+%%.oooo.zOGUN2ffUUfffOUFOk.oooo.%%+.kkiipskkiiklkg",
"kkkkkkakzkk.o%%o.oooo klOGD5CLOOJfmFFOik.oooo.o%#X.ikhpkkittiipp",
"kkiikkikzkk.+%%.ooo  . oXOmN5RffRUFmOky.oooooo.%#+.kkkskkkitiisk",
"kgiispiisk.X+#%.oo.X#%%+oOmCNURUUUFmOXo....ooo.%%+X.kkkikkiikzzk",
"xktikkkikk.X+%%.o.o#rre&%wffNRfRfUffq%+%%%o.oo.%%+o.kkkiipiiikki",
"zkikksshkk.o+#%.o.##rrr#&%%OOOOOOOO55&&&&&+o.o.%%+X.kksiiikiiskk",
"piiaiiiipk.o+#%..X**&&rrr&%%%VVAV534CA&rrr&%.o.%%+X.kkaiikiiikkk",
"kiisksitii.o%%%o.&++%+&&rr&%%AVVA0NN$5Arrr&&+.o%%%o.aaakkikskkkk",
"iihkkitukk.X%&%o.&%rrr+%rrr&A&AV55$IH$CA&&&+r.o%&%o.yyiaaiidkkkk",
",<9t<,>9tt.X%&%.#&+rrro%&rerrAV0NTT35H5A+%+rr.o%*%o.<<w98<>998<9",
"==>><>>>>,.X%&%.&+*rr&o%%&rAVV4C$43IH$5Cr*&+&o.%*%o.>>>>>>>>>>=>",
"iyiit<tsii.o%&%.%%+rr..+%&rrrA54TTI34H$4rr&o&+.%&%+ iiikkiiiiiii",
"xbnnzkxnMM.X%&&+.&%+...X+%&AAAV4445HH44.rr#&%%.&&%o.nnnMnnnnnbbb",
"zxbvzxnnbx +%%&%.&*%%.v.++O11VA40HI55CNz..%&r&.&%%o.xbbbbcbcbxbb",
"kiiskzxkii.oo%%%.&*%%%.o+OjO6111CVCVCK0kl.%rr%.%%+o.kkkiiiiiitik",
"iiikiiyiti.o+#%%.+&&o&.X+%OOO666111SKZBx..+r*.%%%+o.kkiiiiyiitii",
"ttikitupii.o+##+.o&&oX.+%@dO+OOO6661110..%&&%.+%#+o.gkgityipiiii",
"tikkkskzkkg.+%%++.+&%%.+%%@+&AV4@O@666111*&r%.+%#+.ppgkkiipkksii",
"slxzkikkkkkk.+%++......%%OdO+VAV5SV@@@666@&&+.+%+ zkkkkkgpkllkkd",
"klzzpippyiii.+%+.pips.Xr%&OX+VV%0Z55VAO@OO&&o.+%+.kgikkiiikkkkii",
"uiyyyyiiiiii.X++.kiii.Xr+OjOX...oV5VAV+ %%&+.6O++.kiikgiiiikkiii",
"iiiiiiiikkkkz.o+.lkip.+r+OOO%.X.&+&V&%o ..  @O+X iytiikikkiiiiii",
"kllzkkkpkiikki.o.kg77.+O@jjjOOo.&++&&+ ,77<kk.o.iutikkkkikkkkkii",
"lxzkiigitttipti. i:,, XOjjOjdO+.o+++++.,,,,,k  kpiakzlkskkkpiiii",
"kkkiyihkiiikkiikk,,:,,OjjjjjjdOX  +r+X.,,,:,7kkkkpkxzksikkkiittt",
"pkiyikksskkzzksk77,,,OjOjhjjj@jO +%+%%+.,,,,7,iiyikkppiiikiiyiii",
"pkpislkpiakzkkii,,77..Ojj@j@jjO- +%&&&%.,,,7,,uttipsiuiiiiiiissd",
"ikkikkit<<tiiiip,,,,,.+OjjjjdO;-.%&&&&&+.,,,,:yiillpikkkikspiiik",
"ypiykki<<tkzkskk7,,:.o%OOjOjOO:-.#&*&&&&.:,,77klkzkikkgikksiiisk",
"ikkuiki<8hvxlkkli,::.+&r+OjO.8:;,.rr+r&%.,:,,pkkkkiikkiiisppkkkz",
"kkiikkt<iznvkkkkii,,..++++Oo.8;;,8......,,77kksdiiskkiiiihskkkkk",
"sitykkiikxbkiipisii,7. oooo.,7;-,88,,7,,,,7kkkkiikkkksiiskkisiii",
"kkiikkkilzziyikisiiip7. . .::,:-,88,,,,,,igkkkiiikiukkkikiiuiiii",
"klkkkzkkklkiikkkkiklkkkhh,:777:-,88,,siikkkpiiiikitikkgidiiiisii",
"kkkgkkkkspiiikkkpppsiiiiksikll9=unxidiiiipgiiiiiksiikiiispigkzkk",
"ikpiikkiiiiyikzkiiiittiiiikkzk<>inbgiiiikkkiiiiikiikxldikkakkkkk",
"kkkiikkiiikkikkpiiiitiiittkzkit>inbkkkkkkkiiiigkkikklkkkksikkkkk",
"xzkkpakkkkkkkkkiytiiiiii9ikkks<>ibxiikikkitiikkkkkspspiikkkkkpkk",
"lkkiiiikkkkkskittiiaigkiikzkai<>ybciiiikkiiikkkkkkkiipiikkipiiii",
"kiiiiiikkkkkiiiiikkkgklkkxxkki<>inbiiiskkiikkkikikkiskkkiiipiiiy",
"kiipiikkkdskkkiipkkkiglkklxlkkt>ibbkidskkiikkkiksiiiikkiiipkiiii",
"kaisskkkkkkkkkkiikkpiplkiplgki<>inxiiikgiiikkkikkiiiiiiiskkkkshk",
"kkkipkkkksipiikikpkkkkksiispti<>ibbiiikiiiiiiiikiiiikipkgslkkpsk"
};
