/* XPM */
static char *ed71680106652[] = {
/* columns rows colors chars-per-pixel */
"64 64 77 1 ",
"  c #05050F",
". c #050511",
"X c #0A0E1A",
"o c #0D161F",
"O c #1D131E",
"+ c #0E1621",
"@ c #101622",
"# c #1D1220",
"$ c #131F2B",
"% c #281920",
"& c #14202C",
"* c #1B2C36",
"= c #1B2B38",
"- c #2F2F2F",
"; c #322927",
": c #372F2D",
"> c #37322F",
", c #39312F",
"< c #333333",
"1 c #3D3533",
"2 c #373938",
"3 c #3C3C3C",
"4 c #421E06",
"5 c #421E08",
"6 c #4F1716",
"7 c #511716",
"8 c #501817",
"9 c #511919",
"0 c #63351D",
"q c #403635",
"w c #413836",
"e c #443C3A",
"r c #48403E",
"t c #6B5C3F",
"y c #3E3747",
"u c #3C3847",
"i c #154259",
"p c #454545",
"a c #4D4D4D",
"s c #504E4E",
"d c #4E504E",
"f c #50504E",
"g c #4F4F51",
"h c #4D4A5D",
"j c #514F50",
"k c #495058",
"l c #525252",
"z c #585657",
"x c #5A5A5A",
"c c #6B5B41",
"v c #636363",
"b c #6A6A6A",
"n c #726B7D",
"m c gray44",
"M c #9F2927",
"N c #9F2929",
"B c #9D3F3F",
"V c #A02829",
"C c #9B403F",
"Z c #9E4040",
"A c #AC7676",
"S c #AC7578",
"D c #CF755D",
"F c #D0745D",
"G c #F78D73",
"H c #AE9996",
"J c #B19997",
"K c #B29A98",
"L c #B4ABAA",
"P c #C4B59E",
"I c #FCAA95",
"U c #D1C8C6",
"Y c #D0C7C8",
"T c #E5E6C7",
"R c #E5E6C9",
"E c #ECE3E5",
"W c #FFFFFF",
/* pixels */
"alllzzlllaflfaaalllallpaaaaplf3<lbvaadlllllagldaaapalfppgzxffgpa",
"lzzlllllaazzfaaallaalap3aalalzp2zvxdaflfpaaaalllaapalaaazxzfllgf",
"lllfagggaalxlgflllaplappaaaadfu<lvzalllgaaaaalllllaallagzxlllffl",
"allpagffdpdlllzlafaallaallladdr2avzafldaaaaallzlllalllallllffagl",
"algpagllgpglflllpaaaalllzllflzp<avxaglgalllfllgalaaallaaaallgpag",
"llgaafllaallapaaaaggfaalaallllp<pvzgdlfgaaglllgaaapplaaapgllagff",
"alfgggflfalxgpaallllgallfalllfp<pzlalllgaalffllaaapallaagfxxffll",
"affflflllgllfgfgllllfllzllzzlgp<pxlglllapagapaaaaapalzlfflllaaga",
"llllfgflfgfllgfllllfllllaajaOOOO####OOapaaaaaapalfllzlgallfflgaa",
"llllgaggfagfgafflldallljag#OJJPPPPPPJHOOallafaaallfllfaaglfgllag",
"zllgaaagaaaggglllaaaaalla#JPPTTTTTRTRPPJOzllfdadxlapaaaafllglfag",
"zzfaaallaapaallllaaaaljdOKPTTTTTRTTTTTTPJOaaaaalxlaagdffzllgffaa",
"zzldfflllfaaglfagaaallllOJTTTTWWWWWWTTTTPOppaalllfggllzzzzfglfgg",
"lldaaalffaggafgafdadlllOKPTTTWWWWWWWWTTTPKOdslfllgaaggaadggaggaf",
"aaaaggapaaffagfflaajllaOKPTTWWWWWWWWWWTRPKOzzlllaaaaaappaagaggal",
"apaglfappgzlaaglfaaf..aOJPTTWWWWWWWWWWTTPKOl..llaaadlfgafllffffl",
"afllllgaazxlaplzzla +.pOJPTTWWWWWWWWWWTTPJOz.+.lgalllzlflxxlflll",
"flllllaglxxzadllzl.+X.a#JPPTTWWWWWWWWRTPPKOl.X@.aalllzgflxzlllga",
"llllffagllllaaaal o+X.aOJPJTTTWWWWWWTTTKPJOl.X++.aflllagzzfppaaa",
"flldgapagaaaaaaa.o$.X.aOnPJJTWWTTTTWWTJJPn#l.X.$X.ffflaallappaaa",
"gfgaaapaapaaaal.X+$ XX.OhKKhWWWWTTWWWWhJHhO.XX.$+X.ggfaaflgglxll",
"lfgfffaglldllla.+&$.XX.lOKuWWTTWWWWTTWWyHOl.XX.$&+.ggggflfaalllf",
"lllfllggzlllla.X+&.XXX.z#hyWOOnTTTTnOOWyhOa.XXX.&+X.gfgllgpppagd",
"llaglfgfzlllll.+&& XXXo.pOJTN6hhTThhhOTHOa.XXXX.&&+.glfllfapagll",
"lfaafsaalsaal.X&&X.XXXX.apOJH6MPOOPhnJJOaa.XXXX.X&&X.llallfalxzl",
"xlpalllallaaf.+&&.XXX  . XXOnN6WhhWTJnOag.oXXXXX.&&+.lfagfapaflg",
"zlgllflflfaa.X+&$.Xo.o&&$@XOnMNTWTTTJnOX..XXXXXX.$&@o.laagaagflf",
"gaagaaaallaa.X+&$.X.X&iii=$yhhNWhWhThhy@X... XXX.&$+X.faggfgalll",
"faaalgapaaaa X+&$.X.&&iii$*&&O%OOOOOO78++&&$X.XX.&&+X dlldldllll",
"aagffappllla.X+&$..X@***ii*=&&&ZCAC877NA*ii*&X.X.$&+X.aadaadflll",
"23ppu223ppp3.X&&$X.=&&+@=iiii&&ABBAcNN%7Aiii&&..X&&&X.3p3323u3p3",
"---22<<<<2<-.X$*&X.=@**X$*iiiiA=AB79%YL%NAii*XX.X&*&X.-<<<-<<<-<",
"apagp3pggaaa.X&*&X.++**X+$*iiiiAZtNEE88L8A+*+**.o$=$X.allaaaaapa",
"xvbvzlxbmbbb.o&*&+.X&*+.X&$iiSBB6N%76UL%8Vii++*.o$*$X.bmbbbbbbvb",
"xvvvxxbbvxxx.X&*&+.+&+X..+$*iiiA98EEU69L%8iii&&.@&*&X.vbvvxvvxxv",
"lpaflzxlpaaf.X&**+.&**+X.X+$*AAAC8888LL88*iii&& o**&X.aaaaaaaaal",
"gpflgppapglz.X&&*&.&&**X XO44&ABA8cLU86Dt.X&&&*.&*&&X aaaaaappal",
"ppglgpaffffa.X+&&&.+&&*+.OkO0445tcNBBBGNV.X**i* &&&oX.sappaaaaaa",
"ppflldlxzlgp.X+&&&.X&&XX..OOO000444GIDN6t.X*ii.+&&&+X.flaaflllaa",
"lzxxfgllfflf.X+&&++.+**X.OkO*OOO0004449N8.&*i*.o@&&+X.llalllzlla",
"lzzldaddaaaff.+&&+++.....XO&*+*BOOO000444X***& ++&$+.llaaalllfaa",
"aaaapaaapaaalg.+&++......OkO$++BB+tOOO000O*i*&.++$@.aslalaajlaaa",
"padaaaaglldzzl.+&+.dall3.+O+i&XX. XZ8BOOOOX**o..@&+.aaddallaaaaa",
"zzzldlldldalla.X++.fl1q1.OkO*+i+..X&*B*+.XX**X..++X.llllalllllga",
"lxzlgdggpppgjpa.X+ a1111.+OOO*i+..X+&*++.&**+.O.+X.lzzldlllgaaaa",
"lllapaffaaallaal.X.11111OOkkkOOX...X++*+X....#q.X.lzzllalllaappp",
"llgpalllllzzxljll..11111OkkOkkOX....+&&&+.11111..alllaaaalaapaaa",
"flgafzlapallllaafl11111OkkkkkkkO...+&***$.11w1>>paalpaaaaaaagfla",
"gllaflap32pggaaggd111.Og#khkkkOk#e.$**=**+.11111alzfffllgggaaafl",
"pffpfla33pflffflzl1>:>1OkkOkOkkO1e.$******.1111wzzlfllfgffgaaagl",
"glladld2pfvvzllzfa1<>>q.OkkkkkO.1ee.ii+i*$.1111wzfagllaalfggflll",
"llgpdlauazvvllllaaa1qww.OOk#kOO.1ee1... ..1w111jagfflaaaagfllllz",
"dgppllgplxvzaggalaaf1e3.&*OkOio.1ee11q1111111qgaaflllfaalffffaaa",
"fgaalzlflxzfpffagapaj11.+++O+++ 1ee111q111112faaggaallaalgaaaaap",
"llldlzlllzlaallllallzll1.......;1ee,1111111faapafgppllgggapagffl",
"lzzdlllffdgaplllggfgaafflda11e>;1ee111<affagagfglfaalgaafgaglzll",
"gfgaaflagaaaplzlgpfapppgaadlxl3<jbvjaaaallfaaagalaalxzgglfgfllll",
"lllfgllfaallllldaaaapaaappfzzfu<abvgjllllfgaaalffaflxlffllglllll",
"xzllggfldllllllaapaaaggappzldd3<pvxaaljllfpaglllllggffaallfffglf",
"zlffgpglllllffgpppgfaffadlzlda3<avvaaaagzapgllfllllaaggallgggaag",
"lgaaapgzllllggapaglldlzflxxllae<abvaaaallgalzlgfflfgfllfaaagapaa",
"fgaagafllglfllfaglllalzllzxzllp<abvlalllfgallfafggaaallaaaglgaaa",
"lfafflllllflfllgllldadzladzlla3<abxaaaglfaaflfgggaaaaaaafflzlffl",
"lfdggllfllagggdadlllllzlpafdpa2-avvaaalagapaagffgaaaggglfllllgfl"
};
