/* XPM */
static char *ed81680106652[] = {
/* columns rows colors chars-per-pixel */
"64 64 77 1 ",
"  c #05050F",
". c #050511",
"X c #070D19",
"o c #0A0E1A",
"O c #0D161F",
"+ c #1D131E",
"@ c #0E1621",
"# c #1D1220",
"$ c #131F2B",
"% c #261920",
"& c #281921",
"* c #14202C",
"= c #1B2C36",
"- c #1C2B38",
"; c #2F2F2F",
": c #302826",
"> c #352D2B",
", c #39312F",
"< c #333333",
"1 c #3D3533",
"2 c #3C3C3C",
"3 c #421E06",
"4 c #4F1716",
"5 c #4F1917",
"6 c #501817",
"7 c #501819",
"8 c #63351D",
"9 c #413736",
"0 c #403836",
"q c #443C3A",
"w c #6B5C3F",
"e c #3E3747",
"r c #3C3847",
"t c #3E3749",
"y c #3F3848",
"u c #154257",
"i c #154259",
"p c #454545",
"a c #474749",
"s c #4D4D4D",
"d c #504E4F",
"f c #4E504E",
"g c #51514F",
"h c #4E4E50",
"j c #4D4A5C",
"k c #475057",
"l c #4C5153",
"z c #495058",
"x c #525252",
"c c #585657",
"v c #575759",
"b c #5A5A5A",
"n c #615F62",
"m c #636363",
"M c #6A6A6A",
"N c #70706E",
"B c #726B7D",
"V c gray44",
"C c #9F2927",
"Z c #9F2929",
"A c #9D3F3F",
"S c #A02A28",
"D c #9B403F",
"F c #9D3F40",
"G c #AC7676",
"H c #CF745D",
"J c #AF9A97",
"K c #B19997",
"L c #B29998",
"P c #B4ACAB",
"I c #C4B59E",
"U c #FCAA95",
"Y c #D0C8C6",
"T c #E5E6C7",
"R c #E6E6C9",
"E c #ECE3E4",
"W c #FFFFFF",
/* pixels */
"sxxxvvxxxsfxfsssxxxsxxspssspxx2<xmnssgxxxxxssxgssspsxxppfbbxxssa",
"xvvxxxxxssccgsssxxssxx2psxxsxxp2xMbdfxxgsssssxxxsspsdsssxbxxxxsd",
"xcxgsgfsssxbxxxxxxspxsppssssld2<xmvssxxspssssxvxxxssxxsgvbxxxxgx",
"sxsassxxsadxxxxxssssxsssxxhssxp<smvsxxxsssssxxxxxxsxxxdgxxxxsssx",
"sxdpsgxxsasxssxxsssssxxxvxxxxxa2smbsgxxsxxxxxxdsxsssxxssssxxssss",
"gxlssdxxssxxssssssssgssxssxxxx2<anvssxxsssdxxxfsssppxsssssxcgshx",
"sxxsssxxgsxcssssxxxxhgxxdsxxxxp<pvxsdxxsssxsgxgssspsxxsssgvvfxxx",
"ssgxxxxxcsxxxsxsxxxxsxxxx+#+%#+++++sxvxspsgsassssspscxxlsxxxssss",
"xxxxxxxxlsdxxxxxxxxhxxc++KKIIIIIIKK++dsaasssssasxsxxvxssxxxxxsss",
"xxxxsssxggsssssxxxxsxx+LIITTTTTTTTIIK+sasxxdfsssxxfgxxsssxsxxxss",
"xvxsssssssssssxxxssss+KITTTTTTTTTTTTIJ+xxvcxgsssbxssssssxxfsxssx",
"vxxssssxssssfxxxffsss+KTTTTWWWWWWTTTTI+dsgsssssxvxsssdxxccxfxxss",
"bcxgxxxxxxssxghssssh#KITTTWWWWWWWWTTTIK+ppppssxccgsgxxxvvxxsxgdd",
"xxsssshxghfssxssxssf+KITTWWWWWWWWWWTTIK+psgldgxxxsssxsssxxssslsx",
"ssssssssssxxdsxxx..h+KITTWWWWWWWWWWTTIK+x..xxxlxssssssppssssxssx",
"sssfxssppsxxsssx.@.s+KITTWWWWWWWWWWTTIK+g.@ cvxxssslxxgssxxxxsgx",
"ssxxxxsssvbxssd.@o d+KIITTWWWWWWWWTTIIK+x.o@.xxcdsxxxcgxxvvxgxxx",
"sxxxxxssxbbcas O@o d+KIKTTTWWWWWWTTTKIK+d.o@@.ggssxxcxgxxvvxxxgs",
"xxxxxssxxxxxs X$.o.s+BIKKTWWTTTTWWTKKIB+d o.*o.daaxxxxhsccfppsss",
"xxxsssssssss OO$.oo.+jKKjWWWWTTWWWWjKKj+.oo.*@o.ssgglxssxxsppsss",
"sxssssaasass.@**.oX.s+KeWWTTWWWWTTWWeK+s.oo.**O.sssxsxssxxgsxcxx",
"xxxsxsssxhs.o@*.ooo.s+jeW##BTTTTB++Wej+x.ooo *Oo sxxfssxfxssxcxx",
"xxxxxxgxvxx.@**.oooo s+KRZ6jjTRjjj+TK+s oooo **O sssdgsxxsppsssf",
"xxgsxxsgvv.o**o.oooX.px+KK6ZI+#IjBKK+da oooo o**X.xdxxxxxxapsfxx",
"xxssfsssxx O**.ooo....oo+BS6WjjWTKB+ss.Oooooo.**@.ssxxxsxxgsxvvx",
"bxpsxxxsx.o@**.oo.o$**@o+BSSTWTTTKB+o....oooo.**@o.dgxgssxsasxxs",
"vxsxxhxxl.o@**.o.oiii===ejjSWjWjTjje$@$$o ooo.**@o.cxxxsssdssgxx",
"gsssssssd.o@*$.o.$iiiii==$+++++++#77==ii*o.oo.**@o.xxxdlsxxssxxx",
"xssxxssps.o@**.o.$=-=ii==$$*AAGA667ZGiiii$o.o.**@o.xfsdxxgglxxxx",
"sssxxsppx o***o.@@@@@==ii==*GDAGwZZ%6Giii=*..o***o.sssssdsssxxxx",
"<2pp22<2p.o*-*o.=*==o**-iiiG=GA64&YP&SG=-=@o.o$-$o.22<2p22222222",
"<;;<2<<<<.o*=*o.=$iio@$=iiuiGAwSEE76P6G@*@i@.o$=$X <<<<<<<<<<<<<",
"sssfp2pxs.o*=*@.=Oiioo**=iGAA6S&66YP%6Zii-@i.@*=*o.sssgxxsssfsss",
"bmMmvxbMN.o*=*@.**==..@*=uiiG66EEY46P&6iii*i.@*=*o nmMMVMMMMMmMm",
"vbmnvbMMm.o*==@.*i@...o@*=GGGA6677PP54.ii=**.@--*o cnmmmmnnmmbbm",
"xssgxcbxa.o$*=*.*=i*.f.@@+33FG7wPY66ZZs.***=.*-**o sxxgsssassasx",
"fssxspssa.oO***.*====.o@+z+8333SASAZUws.o-i=.***@o.xxxdsfaasaasg",
"ppsxsppxs.o@***.@==o=.o@*+++888333HUZZx.$=i=.***@o.sxxlsaasfgsas",
"psgxxxxvx.o@$$@.o==oo.o*+z+O+++888333w.O=-=*.@*$@o.sssxxssfxxxss",
"gcbvxgxxxx.@$$@@.O=**.@**+O=GA6+++888333=i=*.@$$@.cxxxxxggxccxgg",
"xxxxxssfass O$@@......@*+z+@DGA6HA+++888o==@.@$@.xxshxxsssxxxdss",
"sssssasssss @$@.vxsss.@**+o@AD$wS66AG#++o-=o.@$@.vxssfxsgdfxxsss",
"ssssssssxxs.o@@.bxxfd.@i+z+oo...A4AGF@.$=-@.8+OO.dspssxssggsssss",
"xxvcxxxgxhsx.o@.vxxx1.@+++*io.o.@@A=$@.....++@X.sspsxxxxsxxxxxfs",
"xbxxssgspppss.o.xs111++zzz++@.o.@@-=*o.111ss.o.xhssxvcxgxxxsssss",
"xxxsasgxsssxxx..c1,11+zz+zz+o.o.$$**@.11111f..xgxxcvvxgsxxxssppp",
"xxsssxxxfxxvbxxx1111#zkzzzzz+oo..@$*o.110111xxssasxxxssssxssssss",
"xxssgvxssfxxcxs1110+z+zzzlj+z+..o$$$*@.111100spppsgspsssssssssxd",
"sxxsgxsp22pssss1111.+zz#z+zz+.>.@*===$.111111ssssccfgxxxsshsssgx",
"pxxpxxs22pxxxdx90111.+zzzzz+.0, *=====@.11,11dxxxcxfxxsxxxxssssx",
"sxxpgxs2pdmmcxx21,11.++z+z++.0, *======.11111xxcxxssxxssgxssxxxv",
"xxssgxa2sxmmxxxg1,11.*=#k+-* 0,> ii@i=* 1110xxxsssfxxsssssxxxcxx",
"xsspsxsaxbmvssgsg,11 ===+=-*.1,:1......1111xxxxssxxfxdssxgggssss",
"xhssxxxxcvcgasxdgs,1.*=i@ii@.1>:,q01101111xxxxhssxssxxdsxssassss",
"xxxfxxxxxxxssxxxlsxx1. .....20,>1qq11111fxxdssssxspsxxlsssssslss",
"xcxxxvxxggsasxxxxfxgssgx111100>:1qq1sssshggsssssxgssxssdxxsgxcxx",
"sxssssxssssasxvxssssppasssxxxxp<dMmgssssxxxsssssxssxbvxsxhlxxxxc",
"xxxhsxxxssxxsxxgssssaassppxcvx2<sMmgxxxxxxssssxgxsxxvxxxxgsxgxxx",
"bvxxxsxxxxxxxxxspassasgspaxxxs2<amnssxgxvspssxxxxxxsggssxxxxxgxd",
"vxxssssxxxxxggdppsssdgxssxvxgs2<smbsssssxspxxxxxxxxsssssxxsdssss",
"xssssssxxxxssssssxxxgxcxxcnxxs2<sMmsssxxxssxxxsxsxxsgxxgssssssss",
"xfsdssgxxhxxxxsssxvxslcxxcbcxxp<fmmdsxdxxssxxxsxxssssxxsssgxssss",
"xssgxxxxxxxxxxxsxgxfsfcxsfxghs2<sMmssxlgxssxxxsxxsssssssxxxvxssx",
"xxxssxxxxxghssxsfxxxxxxfssxfsp2<smbsssdgsspssssxssssddlxsxxxxsxx"
};
