/* XPM */
static char *el11680105950[] = {
/* columns rows colors chars-per-pixel */
"64 64 66 1 ",
"  c #04050F",
". c #050511",
"X c #070E18",
"o c #0A0E1A",
"O c #1D131E",
"+ c #0E1621",
"@ c #0E1822",
"# c #1D1220",
"$ c #141F2C",
"% c #281920",
"& c #14202C",
"* c #1B2C36",
"= c #1B2B38",
"- c #2F2F2F",
"; c #322A27",
": c #342C2A",
"> c #39312F",
", c #312F30",
"< c #343334",
"1 c #3D3533",
"2 c #3C3C3C",
"3 c #431E06",
"4 c #4F1716",
"5 c #501817",
"6 c #63351C",
"7 c #403635",
"8 c #413936",
"9 c #443C3B",
"0 c #6B5C3F",
"q c #154257",
"w c #154259",
"e c #454545",
"r c #484846",
"t c #4D4D4D",
"y c #504E4F",
"u c #4E504F",
"i c #51514F",
"p c #4F4E50",
"a c #4D4A5D",
"s c #514F50",
"d c #4F5150",
"f c #495158",
"g c #525252",
"h c #5B5B5B",
"j c #636363",
"k c #6A6A6A",
"l c #726B7E",
"z c gray44",
"x c #9F2929",
"c c #9D3F3F",
"v c #A02A2A",
"b c #AC7676",
"n c #AB7877",
"m c #AF9A97",
"M c #B19997",
"N c #B29A98",
"B c #B4ACAB",
"V c #C4B59E",
"C c #C4B5A0",
"Z c #D1C7C6",
"A c #D0C8C6",
"S c #D0C7C8",
"D c #E5E6C7",
"F c #E5E6C9",
"G c #ECE3E4",
"H c #FFFFFF",
/* pixels */
"tggghggggtggttprggdphgertttrui2<ujjttggghgsppgprtrrgggeeghhggtrr",
"ghggggggttghgrtpggtrgteetpgthge2gkhttgggtttrtdgpptrtgtrtghgpggpg",
"gggggpptttghgpggggprgteettprty22gjhptggrrrtrtghggdttgdtshhggggpg",
"tgprrtggsrtggghgtptrgprtgggtuue<tjgtgggttpdtggggggppggpgggggtttg",
"tgtrtpggprtgupggrttttdtghggggge<tjhtggdtsgdggggrgpppggtdttggtrtp",
"gggtrgggttggtrtrtttggtsgpruggge<rhhttggttggsgggttrrrptrtrtggdtgg",
"tggtgtggptghtrttggggtsggptgOOOOO##OOgggtrpgppgdptrerdgttpghhdggg",
"ttgtggdggtgggpggggggtgghg#OMNVVVVVNNO#gtetdprrttgtrphgpstgggttsr",
"ggggtggggtgggggggggugggg#MVVDDDDDDFVVMOerpttrttpgtgghggtgggtgttt",
"gggggttdsdtdtttgggstiggOMVDDDHHHHHDDDVMOtgggdtrtggpgggttpggdggyt",
"ghggrttttrttttggguttttgOCFDHHHHHHHHDDDVOghgggttthgtttrrtggtsggtg",
"hggtttggttttpggggttttdONVDHHHHHHHHHDDFVMOiyttttghgtttpppghgttdtt",
"ghstpgggggtttggtputtsgOVDDHHHHHHHHHFDDVmOeeettggggttgghhhgggggtt",
"ggpttptggtgtgtttspttggOVDDHHHHHHHHDDDDVNOttggdgggtttggrttgtttgtg",
"tttttptrrtggttgggttpggOVDDDHHHHHHFDDDVVNO..gggggprtttreetttttttg",
"trttgptrrtggtttggttpggONFDDDDDDDDDDDDVVMO.@.ghggtttgggttgggggtgg",
"tgggggtttghgtrghggttgg#NDDDDDDDVDDDDVVVlO.o@.ggggtggghggghhgpggg",
"pgggggttghhgtpgghgttggONDDDDDDVVVDDVVVMlO.o@@.ggttggggtgghhgggtt",
"gggggptgghggtttpgtrtyuOaVDDDVVlMVVVVVMMaO.o.$o.trrggggptghtrrrtt",
"gggtttrtpttttrtgitrtrtOOaVFDHHllMVVVMMlO.oo.$@o.trgidgttggrerttt",
"gtttttrrrrttgtghhgspttgOVVOOOVHOlllDMlaO.oo.&&@.tttddgttpggthhgd",
"gggpgttpggpggtpggpgstsgOHVDaOOHOalDVla#g.ooo.&@o.tgptttgggtppggs",
"ggggggdghggggttrtertrrhOOVDlaMHHDDllaOt.oooo.&&O.tppgitggtrertpp",
"ggttggtgggggggptteee2egOlOVVHHHDlVaOOse.oXoo.X&&o.dpsgggggretpdg",
"gtrtppttdsttghdggttttughOFVVVVVO#OOooo. ooooo.&&+.ttgggggggtghhp",
"hgrtgggtggttggtttghhhhhgrODOH#VOOooo$$&o.oooo.$&@o.siggrtgtrtggt",
"hggggggdggttppttrrtgghgt.cOa#Vaooo@@$ww*o.ooo.$&+o.ggggtttgrtpgg",
"tttpptrtdgttgsttttpgggg.o@@ccbbccbww*&ww=.ooo.$&+o.gggdttpgttggg",
"gttdgdrrrttrptrrrtgdptt.$$cbc0555%bww*&w*o.oo.&&+o.ggptgggdggggg",
"tttggteegggggggdtgghgpp.w+*cb%cvvB5b&*&*+&.o.o&&$o.ttrtpstrrgggg",
"<2ee2<22ee22e2222ee22e2.&+&c0ZZGZ5%vw+++ww.o.o&=$o.22<2222222222",
",-,<2<<<2<<<,<<2<22<<<<.w+=c%5555B55w*&w$w.o.o&=$o.,<<<<2<<<<<<<",
"trtpe2etptttttttrttttpr *@=4%5AGZ5%5w*&w&w..o@&*&o.titpggtttgtrt",
"hjkjgpjzzkkkkkkjjkjjjjj.o&n4AA455B5%*&q*@*..o+&*&o.jjkkzkkkkkjjk",
"hjjjhhjkjhhhjjjhhjjhjhjh..bc544GZ5.o+$w*&o..o+**$o.hhjjkjjhjjjjj",
"grrtghhhrttpdppttsgptsstg.@bcBA...o@ww*&o.33O&*&$o.tggtttttrrrrg",
"prtgtertrtghgprepggtrttpO.occ4.@+&&w*$@..666O&&&@o.sggtttttrrrtp",
"eepgpergpgprrerrggprrrpst.o@b.X=wwq=&@.OOOOOO&$&+o.psgptrrtpptrt",
"rtpggtghggprerdhgdrrtggg.o@+*.@**w=+o..t.oo+++&&+o.ttpggtrpggdpt",
"dghhgtgggggggpgghgttsgh.o++$+.$=**+.....oo++++&$+.gggggggpgghggp",
"ghhgpppprtttptrggptppgg.+o&&+.X$*+.o+.+.....++$+.ggdtgitptggggrt",
"trtrrrrttrtpgpgghgpttd.o+$&@&o....++w$..rtrr.+$+.hgptigtpptdgttt",
"rtttttptggphhgthhggs11.o+$+$@...XwwO+w.@.1sp.++o.prrttpttdsptttt",
"ghhggggpgttggttghgs117.o@+$@o.%.@*ww@$w.@.1s.+o.tretggggtggggggt",
"ghhgtppteeetgrrggt>11#.o++@o OaO.@*w*&$..@.1.o.gstsgghgithggtpte",
"gggtrtgdtttggttght1...o@+oo.ffO;<.o&@@$+o.+...gsd..hhgttpggtrtre",
"ggtrtggdggghhgygg7.&=&@@@o ffO>:19..X++$+o.++.....gggpttpdprrttr",
"ggprphgtrtggggttg1 o&=@@@o fOO>:1991.@+*$@.oo++..rsttttttrttppgg",
"tgstpgre22ettttpt11.o&&@@+.%>1:;19..o$**$+.....rphggtgggtggtttgg",
"egprtgt22ephgdgghg11..o@@o.111::1 @*****@ 11sgghhggtggptgggttrdg",
"thgrtht2ephhhgggptr>:1....11891:>.$$**$@.11tggggggttggttttgtsggh",
"pgprthr2thkjggggttsg9871911118::19......11gggggtttpgggtptgtggggg",
"tprrghtrghjhttptpttsgh91111111>:19911811rtgggggttgggggtrggpgpttt",
"gutrgggpghggrtgtgrrppgstt11111::199>7ggtpsigggsttgttdgptgtttrttt",
"ghggghpgghgtrggggtgggggptttdgg2<rjhtdgstgggpttttgtergggtptrrttpu",
"gggtgggtpttttggggpsgttppdttghh2,tjjysttrttgtpttpgyttgtrggttgghgg",
"tgttrggttrrtrghgtttprerttrgghg2<ykjgttttgggpttttgtrhhhgtggtggggg",
"gggtsggdptgggggptttrrrtteegggg2<tkjiiggggptrttpggtpggggggitggggg",
"hhggptgggggggggrrrrtrpptergggg2<rjhytgsggtrrpggggggtguttgggggggg",
"gggdttpgggggpgpretgtpggtgghgtt2<tjhytttuhprdgggggggtttttggtptttt",
"gtttrttgggggtptrtgggpghgghhggte<tkjttttggttgggtgsggtgggytttttrrt",
"gstuttgggtgggggttghttgggghhggg2<tkhgtggggttghgtptdprtggttttgtttd",
"gdtgggggggggggdtdggttpggtthggp2<tkhttggggttggttggttttttrggghgtsg",
"ggsttgggggtpttgtsggggghgrtdtre2<tjjtttttptrrttigttttupggpggggpgg"
};
