/* XPM */
static char *el21680105950[] = {
/* columns rows colors chars-per-pixel */
"64 64 70 1 ",
"  c #05050F",
". c #050511",
"X c #070E18",
"o c #0A0E1A",
"O c #1D131E",
"+ c #0E1621",
"@ c #0E1822",
"# c #1D1220",
"$ c #131F2B",
"% c #281920",
"& c #14202C",
"* c #1B2C36",
"= c #1B2B38",
"- c #2F2F2F",
"; c #322A27",
": c #352D2B",
"> c #39312F",
", c #333334",
"< c #3D3533",
"1 c #3D3835",
"2 c #3C3C3C",
"3 c #431F07",
"4 c #4F1716",
"5 c #501817",
"6 c #511919",
"7 c #63351D",
"8 c #403635",
"9 c #413937",
"0 c #433C3A",
"q c #6B5C3F",
"w c #154259",
"e c #454545",
"r c #484846",
"t c #4D4D4D",
"y c #504E4F",
"u c #4E504F",
"i c #51514F",
"p c #4F4F51",
"a c #4D4A5D",
"s c #514F51",
"d c #4F5150",
"f c #495058",
"g c #525252",
"h c #565857",
"j c #595957",
"k c #565658",
"l c #5B5B5B",
"z c #636363",
"x c #6A6A6A",
"c c #726B7D",
"v c gray44",
"b c #9F2929",
"n c #9D3F3F",
"m c #9D3F40",
"M c #9E4040",
"N c #AC7676",
"B c #CF755D",
"V c #F88E74",
"C c #AF9A97",
"Z c #B19997",
"A c #B29A98",
"S c #B3ADAA",
"D c #C4B59E",
"F c #FCAA95",
"G c #C4B5A0",
"H c #D0C8C6",
"J c #E5E6C7",
"K c #E5E6C8",
"L c #ECE3E4",
"P c #FFFFFF",
/* pixels */
"tgggjkgggtggptprggppkgrrrtrrdd2,dxzttdggkggppgirtrrgggrrpljgdtrt",
"gjjgggggttgjprtpggtrgueeppgpgge2gxlttgggtttrtgggptrtptrtglkpggtp",
"gggpggttttglggggggtrgtrettprup21dzkptggtrrtrtgkggpttggtgjlggggsg",
"tgprrtggtrpgggjgtpttgyrtgggtuue,tzktggdtttgtggggggppggtgggggpttg",
"tggrrgggprpgptggrtrtyupglggggge1tzjttgprggppgggtgttpggtsrtggtrtt",
"gggrtpggtrggtrttttgsutsgpruggge,rzjtgggptpggggtttrerptrttpgktpgg",
"tggtptpggtgjprtrggggyuggprg#OOOO#OOOgggtrtgpggdtprrrpgtttgjjpggg",
"ttgpggggktgggpggggggtggjg##AADDDDDAAO#gtrtpprrtpgtrpkkuipgkgrtgr",
"gggggyggptgggggggggugggg#ZDDJJJJJJJDDZOrrprtrtrtgpggjggtggggyttt",
"ggggtttggttptttgggptgggOZDJJJPPPPPJJJDCOtgggdtttggpgggtttgugggtt",
"gggutttttrttttgggttrttgOGJJPPPPPPPPJJJDOgjkggtttlgtrttrtggptgitg",
"jjgtttugtttttgggggtttdOADJPPPPPPPPPJJKDZ#ssrtttgjgtttpiggjgpggtt",
"jggppggggtttggttptttsgODJJPPPPPPPPPJKJDC#rrrrpggggttggkkjgggggtp",
"kgtttpgsggtttggtsttuggODJJPPPPPPPPJJKJDZOtutpdgggpttgpttgitttttg",
"tttttttrrtggtgtggptpggODJJJPPPPPPJJJJDDAO..hggggprtttrretttttttg",
"trtpgptrrpggtttggttsggOZKJJJJJKJJJJJJDDZO.+.gkgktttgggttpggggtgg",
"tgggggttpjlgrtgjkgttgg#AJJJJJJJDJJJJDDDcO.o+.ggkgtgggjgggjjggggg",
"tgggggttgjlgtpggggtsggOAJJJJJJDDDJJDDDZcO.o@@ sgttgggggpglkgggtt",
"gggggptggkggtttpggrtydOaDJJJDDcZDDDDDZAaO.o.$o srrggggtpkjtrrttt",
"gggtttrttttttrtpgtrrrtOOaDKJPPccCDDDZZc#.oo.$@o.trgupgttggteettt",
"tdtttrrtrtrpptggkgspttgODDOOODPOcccKZcaO.oo.&&@.ttpgtgttpgppgkgg",
"gggtgpttgggggpgggtgstpgOPDJaOOPOacJDcaOg.ooo &+o.tgttttgpgttgkgp",
"gggggggsjggggttttrrtrrj#ODJcaCPPKJccaOy.oooo &&+.tppgitggtrerttg",
"ggptggtggggggggrpree2rgOcODDPPPJcDaOOo .oooo o$&o.pdigggggtrrgtg",
"ggrtpptpppttggggptttuugj%KGGDDDOOOOoooo.ooooo.&&+.tyggggggptgljg",
"lgrtggdtggttgggttgkllljgr#KOPODOOooo$$=o.oooo.&&@o.sigprtgtrrggp",
"jgpgggdpggttpgttrtgggkgg.nOaODaooo+$&ww*o.ooo.$$@o.ggggtttittggg",
"pttttttpsgttpgtttttgggg.o++mnNNnnNww*&ww*.ooo.$&@o.gggpdtggttdgg",
"gttpgdrerttrpprrrrgdptr.+*nNnq555%Nww*&w*o.oo.&&@o.sftdgggdpgggg",
"ttpddtrrggggggdgtgkkgtp.*++nN%nbbS5Nw*&w@*.o.o&&$o.ttrttstrtsggg",
"12ee21,2re22ee222ere2e2.*+*MqHHLH5%b++&+&w.o.o&=$o.2212222222222",
"---,2,,,,2,--,,,,2,,,,,.&+&n%5555S55ww&*$w.o.o$=$o.>,,,,1,,,,,,,",
"trttr2eptttttppprtttttt.*+*6%5HLH5%5w*&*+*..o+&*&o.rytgggtttptrt",
"lzxxkglvvxxxxxzzzxzzzzz.$+N5HH555S4%w&**+$..o+&=&o.zzxxvxxxxxzzx",
"lzzljlzxzlllzzzllzzlzlll oNn555LH55.&+w*+.o.o+**$o.llzzxzlzzzzzz",
"grtpgklkrttpgpprtggttgdO3 +NnSH65b.o&w*$o.Oo+$*$$o.tggttttrtrrrg",
"prtgtrrtrtgkgpeedggrrt#f%.omm5bbn.o+ww*o.7Oo@&&$@o.sggutttrtrrtp",
"retgtrrppgptrrrrggprrrp##.X@NmmF.++***&.#%Oo@&&&+o.ppgttrrttptrt",
"rrpkgpgjggtrrrgjgptrrgOa#.owwbV.+*ww*+o..ooo@+&&+o.ttsggttdggptt",
"pkljgpgggggggpgglktruhh#t.$++6B.o**w=o..oo++++$$+.ksgggggpggkkgp",
"gkjkgptprttpprrggpttygOf.o+&=&6.o***@.. ....@o&@.gkptggtttgggttt",
"rttrrrrttrtpggpkjgpttgg.o@+$$@o.+**+..@ rrrt.@&@.ksttditpptggtrt",
"ttttttptggggjgpjlkgstgg.+$&&++oo....o.@.ssst.@+o.ptrrggttsgtttpt",
"gkkggggggptggttgjgdsggO.+&&++$o+***+.oo@.ggg.+o.trrrggggtggggggt",
"kljgtptpreetprrggtrt<<O +&++$ooww*&o..o@@.tp.o.gptpglkgtpggptgtr",
"gggtrtsdtttggttgkut<<Of.+++&o.o***++o. o++.t .ggdggjjgitgggtrrre",
"ggprtggggggljggggg<<Of#.+&&o.f.o&&&&&+.oo++..sttr..ggtpttgtttrtt",
"pgdrpjgtrpggggttg<89<Of.+++o.O>..o@=&&...oo++.....pgtrtttrttppgp",
"rggtggre22rttrppp<<<<..o+@@@.<:;..+**+.<<..oo+@..glppgggtigtttgg",
"rgprggt22egkgpggk1<<.$&$++++.<>;.&**=o.<<><....gjlgtggtpggitrtpg",
"tgsrpgr2epzlgggjdt<<.+**$$@X.0<.**=*+.<<<<<<ggggggrpggtttpttyggk",
"gkprpgt2tjzzggggtrt<..... ..<8>......<<<<<8ggggsttsgggtttgggghgg",
"ptrrgktrglzkttgtgrtt<90<<<<<<<:;<00<198<<<ggggdttggggptrdgpgiptt",
"ggrtgggggjjgrpgtgrtpgg<<<<<<<<>;<00<<<<<tsggggtttpttgggtggrtrttr",
"gggtgggggkgtrggggpggggdpt<<<<8:;<00<<gstgggydtttgtrrpggtptrttgds",
"ggkggkggpgptrgggstggttpppttggl2,rzzttptrtpgtttttggttgtttgtttgkgg",
"tggrrggttrrtrgjgptttrerttrgglge,dxzdptttggdtttttgttgljgtgggggggg",
"gggdgggtptggggkptttrrrttergkgd2,txzppdggggrtttgggtggjggggstggggg",
"ljggptgggggggggrrrtrrpptergggt2,rzzttgdggprrsggggggtppttgggggggg",
"kggtttpgggggppprrrgtpkptpglgtt2-tzltrttskprpgggggggtttttggttttrt",
"gptttrggggggtttrtgggsgjgglzggp2,txztptgggttgggtgtggtiggptttytrtt",
"gtttttggggtggggttgkgtgjggglggge,tzzgtggggttgggtggtttpggtttggtttp",
"gutgtggggggggggtsggttpggttgggt2,txlttttggtrgggtggttrtttrgggggupg",
"ggsttgggggsttpdtdgggggkgrtgprr2,tzztttgtstrtttugtttptgggtggggtgg"
};
