/* XPM */
static char *el31680105950[] = {
/* columns rows colors chars-per-pixel */
"64 64 75 1 ",
"  c #05050F",
". c #050511",
"X c #0A0E1A",
"o c #1D131E",
"O c #0E1621",
"+ c #1D1220",
"@ c #131F2B",
"# c #261920",
"$ c #281920",
"% c #14202C",
"& c #1B2C36",
"* c #1B2B38",
"= c #2F2F2F",
"- c #342C2A",
"; c #39312F",
": c #2F3130",
"> c #333333",
", c #3D3533",
"< c #393738",
"1 c #3C3C3C",
"2 c #421E06",
"3 c #4F1716",
"4 c #4F1917",
"5 c #501817",
"6 c #511918",
"7 c #63351D",
"8 c #403635",
"9 c #413937",
"0 c #443C3A",
"q c #40403E",
"w c #6B5C3F",
"e c #154259",
"r c #454545",
"t c #494947",
"y c #494748",
"u c #4D4D4D",
"i c #504E4F",
"p c #4E504F",
"a c #50514F",
"s c #4D4E52",
"d c #4D4B5D",
"f c #514F50",
"g c #4C5054",
"h c #495058",
"j c #525252",
"k c #585856",
"l c #565658",
"z c #5A5A5A",
"x c #636363",
"c c #6A6A6A",
"v c #6F6B7C",
"b c #726B7D",
"n c gray44",
"m c #9F2927",
"M c #9F2929",
"N c #9D3F3F",
"B c #A0292A",
"V c #9E4040",
"C c #AC7676",
"Z c #CF755D",
"A c #F78D73",
"S c #AF9A97",
"D c #B19997",
"F c #B29A98",
"G c #B4ACAA",
"H c #C4B59E",
"J c #FCAA95",
"K c #C4B5A0",
"L c #CEC9C6",
"P c #D0C8C6",
"I c #D0C7C8",
"U c #E5E6C7",
"Y c #E5E6C9",
"T c #ECE3E4",
"R c #FFFFFF",
/* pixels */
"ujjjkkjjjujjuuuujjipkjttyuutjj1>jxxuyajjjkjugjpyuyupjjttgzzjjuyy",
"jkkjjjjjsulkjyuujjuyjurrusjujjt<jczusjaguuuyujjjuutuauyyjzjjjjuj",
"jkjsjuauuujzjgjjjjutjurruuuuaaq>jxksjjjutyuyujkjjgyujjuakzjjjjjj",
"ujuyyujfuyujjjkjujyujjyujjsuaaq<uxkuijauuujujjjjjjpjjjijjjjjuuuj",
"ujuyyjjjutgjaujjtyuuiisikjjajjt<uxzuajausjaijjaujiuujjuauujjuyup",
"jjjuyjjjuujjuyyuuugauuijiyo+++++ooouijjsujjjjjauuyryguyuyujlguaj",
"ujjugajjaujkuyuujjjjfujl+oFDHHHHHDFo+jjutujgfjjupytyjjyuujkkjjjj",
"ygaajajjjijjjpjjjjjjpjjoDHHUUUYUUUHHFojytuauyyuuautukkjggjkjyuay",
"jjjjujjjjuajjajjjjjujjoDHUUURRRRRUUUHDoyysuyutyujujjkjjujjjujuuu",
"jjjjjuujaiiguuujjjiujjoHUURRRRRRRRUUUHoyujjgguuujjaijjuuujjjjjuu",
"jjjjyuuuuyuuiujjjjuuuoFHURRRRRRRRRUUUHFojkkjjuuuzjuuuuuyjjjujfuj",
"kkjuuuujuuuuujjjaguyuoHUURRRRRRRRRUUUKDoujuyuuujzjuuugjjjkjujjuu",
"kjjgjajjjjuyjjuuuiuufoHUURRRRRRRRUUUUKDorttryujjjjuajjkjkjjjjjup",
"ljiuupjjupjuujjujuujjoHUUURRRRRRUUUUHHFo..isijjjjuuusjuujjuuuuuj",
"uuuuuuuyyujjujujjuuujoDUUUUUUUUUUUUUHHSo.O.jjjjjpyuuuyrtysuuuuuj",
"uyuujgyttjjjuuujjpuujoDUUUUUUUHUUUUHHHbo.XO.jjjkuuufjjuuajjjjujj",
"ujjjjjuuukzjyyjkljuujoSUUUUUUHHKUUHHHDbo.XOO.jjjjujjjzjjjkkjjjjj",
"ujjjjjuujkzlugjjkjugj#dHUUUHHbDHHHHHDFdo.X.%X.jjuujjjjujjzkgjjsu",
"jjjjagujjkjjuuuajuyuuo+dHUURRbbDHHHDDbo.XX.%OX.uyyjjjjfullpttuuu",
"jjjuiuyuauuuuyuajuyyyuoHHoooHR+bbbUDbdo.XX.%%O.juyujjjuujjytruuu",
"upuuuyyyyyuuaujjkaapuuoRHUdooRodbUHbdot.XXX %OX.uujuujuuajgujljj",
"jjjujaupfjgjjpjjjiagusooHUbdSRRUUbbdog.XXXX.%%O.pujuisujjjuujjjj",
"jjjjjjajkljjjuuuutyuyyoboHKRRRUbHdookj.XXXX.X%%X.ugiijujjutryuii",
"jjpujjujjjjjjjuujrrr1rjoUHHHHHooooXXX...XXXX.%%O.yjaajpjjjytuujj",
"jjyuaauujjuujjjjufuuujjk+UoRoHooXXX%%%&X.XXX.@%OX.uujjjpjjgujkkj",
"zjyujjjuajuujjjuujjzzzk.VodoHdXXXX%%%ee&X.XX.@%OX.uujjjyujuyujju",
"kjpjjagpjjuuajuuyyjjjk.XOONNCCNNC%ee&%ee@.XX.%%OX.pjjjjuuujuujjj",
"juuuuuupujuuaguuuuajjj.%%NCNw565$Ceee&%e&X X.%%OX.jjjjjuuiauujjj",
"juuajiyryuuyupyytujgau.%*ONC$NBBG5C&e&%&Oe..X%%%X.jjpupjjaggjjjj",
"uuugjurrjjjgjjppyjljju.&eONwPLTP5$B@%O%Oee..X%&%X.uuuuuuauuujjjj",
"<<rr1<<1trq1r111qtrr11.&%OV$3555G55ee&O%e&..X%&%X.<1<<1111<11111",
"==:<<<>><<>=>><<><<><>.%eO6$5PTP5$5ee&%&%&.XO@&%X =>>>>><>-><>>>",
"yyuut1rpauuuuuuyuuuyuu.X@C5PL534G5$&e&O&%* XO%&%X.ttuuujjuuujuyu",
"zxccjjzcncccccccxo2222x.XCN555TI35BXOO%e%O XO&&%X.xxxccncccccxxc",
"zxxxkzccxzzzxxxzoho77722.OCNGP54B55 .X%ee%.O%*%%X.llxxxxxxzxxxxx",
"gyujjkzjyuuagpgyuooooo77.XNN4MMNNN5X .%e*%.O%%%OX ppjjpjuuuytyyg",
"uyujuytuyujjjurrohoyyu+o.XOCNNJZB6$X..e&**.O%%%OX.jjjjuuuuyuytup",
"trujutyjpjjuttyyjopytyug.Xe@MAJJAB$X.&&&**.OX%%OX.pppjuutyuuuuyu",
"yygkjgjkjjuytyjkohoyusjj..XO4ZANV5OX.%&&eOXOO%%O.gjuupjjuygjjjuu",
"jjzkjujjjjjjpjjjzohojkkj.X&*&44CNOOX.X&&:X OO%O.ujkjjjjjjjjjkjjj",
"jkkjgpupyuupguyajooopjja.&&eeeOO&%X..X%&O.j.O%O.pjjpujjuuujjjayu",
"yuuytyyuyuupjuuo+hhhoo, X&eeOO&&%X.XX....ty.OOX.jljpufjupuujjuuu",
"uuuuyuppjjpkkjjohhohho,.Oeee%XXXX.XXXXO.,ag.OX.ajpyyuuaupjpuuuuu",
"jllkjjjjjuujjuohhhhhhho.X&&%%%O..0.XXXOO.8j.X.jguttyjjjjujjjjjju",
"kzkjupputrruj+hohhhhhoho.XO%%%%X..0.XXXOO.,..jkjjuujzljaajjgugut",
"jjjuyujjuyujjuohhoh+hho,,...X&*O...8. XXOO..jjjj .jzzjuujjjuyytt",
"jjuyujjajjjzkjsohhhhso,,,,,.X&&& X.88,  XXOO.....pjjjjuuajuuuyyy",
"gjsyjkjuyijjjjuoohohoo,,,,.X%&&O.X..8,,,..XXOO..tyujyyuuuyuuujjj",
"ujjuajyr1<tuuuuupoho,,,,, X&ee&XXXX.8,,,,,. ..uuulljaajjujujuujj",
"yuutjjuq1rjljgjjk,o;;;,,,.X&&OX.XXX.,,,,,;,,fjjjjkjujjiiajjuyuuj",
"ukjyaju<rjxzkjjkpu,,;,,,,.....  ...,,,,,,,,ujjjjjaypjjuufjuugjjl",
"jjpygju1ukxxjjjjuuu,,89,9,,,,,--,00,,,,,,,jjjjjauigjjguuuujjjjkj",
"upyyjjuyjzxkuuuufyuuj88,,,,,;,--,00,,8,,uujjjjauujjjjjuujapjauuu",
"jfyujkajjkkjyujsauuujjju<,,,,8--,00,jjjuuujjjauuiauugjuujpuyyuuy",
"jjjsjkjajljuyjjjjujjjjjjpuuajlr<yxzsajjyjjjfgiuujutyjjauuuyuujaj",
"jkjjjjjggjpuyjjjagjjuugjauujjk1>ucxuuuuuuisuuuuujayujiyjjjujjjjj",
"ujauuajuuuyyujkjuyuuyrypuyjjkj1>ucxgauuujjjuuuuujuulzljujujjjjjj",
"jjjuujjjuuijjjjuuyuuyyuurtjkljq>ucxjjjjjjjuyupjjjuujkjjjjjujjjjj",
"zkjjsijjajjjjjjyttuyypayryjjju1>yczuujujlutyujjjjjjujuuujjjjjjjj",
"ljjuuuujjjkjajgytugupgjuujkjsu1>yxzuyuujjutajjjjjjjuuuuujjuuuuyu",
"juuuuypjjjjjuupyujjjgjkjjkxjjuq:uxxpuujjjiujjjujjjjujjjfuuuuuyuu",
"juuiuujjjujjjjauujkjujljjlzjjjr>icxuujjjjuujjjiauauyujjuuuijuuup",
"jjujjjjjjjujjjjuijjiuajjuiljpu1>ucxuujujauyjjjujjuuuuuuyjjjkjgpj",
"jjpuujjjjjjuuujuajjjajkjyuguuy<>uxzuuiupguyuuuiaguuuapjjiajjjujj"
};
