/* XPM */
static char *el41680105950[] = {
/* columns rows colors chars-per-pixel */
"64 64 76 1 ",
"  c #05050F",
". c #050511",
"X c #0A0E1A",
"o c #1D131E",
"O c #27181F",
"+ c #28191E",
"@ c #0E1621",
"# c #1D1220",
"$ c #141F2C",
"% c #281920",
"& c #14202C",
"* c #1B2C36",
"= c #1B2C38",
"- c #2F2F2F",
"; c #342C2A",
": c #39312E",
"> c #333333",
", c #3D3533",
"< c #3F3A37",
"1 c #3C3C3C",
"2 c #421E06",
"3 c #4F1716",
"4 c #501817",
"5 c #511919",
"6 c #63351D",
"7 c #413937",
"8 c #443C3A",
"9 c #6B5C3E",
"0 c #3E3E40",
"q c #154257",
"w c #154259",
"e c #454545",
"r c #484846",
"t c #494748",
"y c #4D4D4D",
"u c #4E504F",
"i c #50514E",
"p c #4D4E52",
"a c #4D4A5D",
"s c #514F50",
"d c #4F5150",
"f c #495058",
"g c #525252",
"h c #595957",
"j c #565658",
"k c #575958",
"l c #5B5B5B",
"z c #61615F",
"x c #636364",
"c c #686866",
"v c #6A6A6A",
"b c #6F6B7C",
"n c #726B7D",
"m c gray44",
"M c #9F2927",
"N c #9F2929",
"B c #9D3F3F",
"V c #A02829",
"C c #9C403F",
"Z c #9E4040",
"A c #AC7676",
"S c #CF755D",
"D c #F78D73",
"F c #AF9A97",
"G c #B19997",
"H c #B29A98",
"J c #B5ACAA",
"K c #C4B59E",
"L c #FCAA95",
"P c #C4B5A0",
"I c #D0C8C6",
"U c #D1C8C9",
"Y c #E5E6C7",
"T c #E5E6C9",
"R c #ECE3E3",
"E c #FFFFFF",
/* pixels */
"ygggkhgggyggsyyygggyggeeyyyegg1>gclyypgggggyygsyyyeyggeeskkgsyyt",
"gkkggggsyygksyyyggyyggeeysgsgge1gczypggsyyyyygggyyryiyyygljgggys",
"gggsygyyyygkggggggyygyeeyyyyis1>gxlyiggytyyyygkgggyygiypklggggig",
"ygytyyggyyygggggyyeygyyyggyyype1yzjygguyyyyydgggggydggsiggggyyyg",
"ygytyyggytygyyggyytyyspgkgpsgge>yxlyygsyigisgggygyysggyyyyggyyyy",
"gguyygggyygkyyyyyyyuyysgyyo#oooOoooyiggyysggggyyyyeeyyyytsgkyggy",
"yggyyygggyggyyyyggggssggoOGGKKKKKGHo#ggyyygiggyyyyeyggyyygkkyggg",
"yygggggggygggygyggggdig#GKKYYYTYYYKKHogyeypyeyyypyeyhgggsiggyyyy",
"gggggggggyyggygggggyggoGKYYYEEEEEYYYKGottyytyyyygyggkgyygggigyyy",
"ggggyyyggyyygyygggsyggoKYYEEEEEEEEYYYKotyggdiytygggsggyyygsgggyy",
"gkgyyyyyyyyygyggsdyyyoHKYEEEEEEEEEYYYKHogkkgiyyylgyyyyyygggygpyg",
"kggyyyygyyyyyggggyyyyoKYYEEEEEEEEEYYYPGoypyyyyygkgyyyygggkgyigyy",
"kggsgsggggyyygsyyyyyuoKYYEEEEEEEEYYYYPGoeeeeyygjggyygggkkggsggyy",
"jgsyuyigsygyugyyguyggoKYYYEEEEEEYYYYKKHo..ssyggggsyygyyyggyyysyg",
"yyyyyyyyyygyyygggyyygoGYYYYYYYYYYYYYKKFo.@.gggggyyyyyyeeyyyyyyyg",
"yyyygyyeeykgyyyggyysgoGYYYYYYYKYYYYKKKno.X@.jgggyyygggsyyggggigg",
"yyggggyysklgyygjhgyygoHTYYYYYKKPYYKKKGno.X@@.gggyygggkggglhggggg",
"sgggggyygklgyyggggyyg#aKYYYKKnGKKKKKFGao.X.&X.ggyyggggiggljgggyy",
"gggggyyggkggyyysgyyysooaKYYEEnnGKKKGGno.XX.&@X.uyeggggsygkseeyyy",
"iggyyyyyyyyyytyygyyeyyoKKoooKE#nnnYGnao.XX.&&@.uyysgpgypggyeeyyy",
"ysyyyytyytyygyggkgiyyyoEKYaooEoanYKbaoy.XXX &@X.yygyygyyggyyghgg",
"gggygyyyggyggygggsiuyyooKYnaFEEYYnnaoi XXXX.&&@.yygsyyygggyygjgi",
"ggggggygkggggyyyyeryeyonoKPEEEYnKaoohg.XXXX.X&&X yyyggyggyeeyyss",
"ggiyggyuggggggsygeee1egoYKKKKKooooXXX...XXXX &&@.tgpggygggyeyyig",
"ggyyyyyygyyygjggsyyyyggk%YoEoKooXXX&&&*X.XXX.&&@X.yygggyggyygkkg",
"lgeygggygggyggpyygglllk.BoaoKaXXXX$&&ww*X.XX.&&@X.yygggyysytyggy",
"kgyggggddgyyddyttygggk X@@BBAACCA**ww&ww&.XX &&@X.iggggyyydyyggg",
"syypyyyyygyyddyyyygggg.@$BAB9443OAwww*$w&X.X.&&@X.ggggyyyggyyggg",
"gyyugdyeyyyyyyyteyggpy.*wwBAOBVNJ4A***&@@@..X&&&X.ggyyuggsgygggg",
"yyuggyeeggggggddydkggy.*w=B9IIRI4%N&&@@&wwX.X&*&X.yyyyysyyyygggg",
",10e1>11ee11ee181ee00e.*w$B%4444J44Xww&w&*X.X&*&X.111>1e11111111",
"-->>1>>>>1>-->>>>11>>>.$**3O4IRI4%4Xwww&*$&.@&*&X.-->>>>>>>>>>>>",
"ytyye1egyyyyyyyytiiiyu.X@A4UU444J4%@.**&w&&.@$*$X.tryyysgyypyyty",
"lxvvgglvvvvvvvcxcczzxc...AB444RI44V@.X&@ww&.@**&X.zzcvvmvccvvcxc",
"klxzklvvxllzzxo22zzzz .X.@ABJI34N44X...@wwX.&*&&X.lkzxxcxzzzzzzx",
"gyyggklgyyyigofo622+.XXX.@BZ3NNBCC4X.y.@w*X.&&&@X.ypggyupyyyytyp",
"yyygyytytygggyoeO666.@XX.X@ACBLSV5%..g.&**@.&$&@X.ggggyyyyyytttp",
"eeygyeegysgyeofoyooo.@XX.X*&NDLLDOX...&***=.@&&@X.gyigyseeyspyyy",
"tysggigkggyytyokgsye.@XX..X@4SDB5@X.@.&**w@.@&&@.sgppygsyypgggyy",
"ggllgyggggpgiofolgyt.XXX.X@*w43B@@X.@.X***@.@&@.ygggggggiuggkggy",
"gggggyyytyypuyofoyyyg ...@&www&@@..XX.X$*@..@&@.yggiyggyyyggguyy",
"yyyyyyyyyyyyguooogyyy,,,.&ww*@w&.X.XX@....y.@@X.gkgyysgygyyggyyy",
"yyyyyyyyggggoofff##,,<<,.w*@@w&X.X.XXX@.,ys.@X.sgiyeyysyygsyyyyy",
"ggkggggsgyygoffopfo<,,7,.w=*w&X XXX XX@@.7g.X.gsyyeyigggygggggsy",
"gkkgypiyeeeofffffff#,,,,.@**&X.XXXX.XXX@@.,..jjgsyyglhgsgggyyyyy",
"gggyeysgyyofofffffofo,,,.@*&&..X@@XX..XX@@..sggg .glkgyygggyyeee",
"ggyyygggdggoff#fofp#,...@$*&@.. @@@X.7..XX@@.... yggsyyyygyyyyyy",
"ggyyyhgyyydgofffffo,,.******@...X@@@X.,,..XX@@..eyspytyyyyyyyygu",
"yggydgye1<ep#ofofoo<, @*****&.XXX@@@@.,,,,. ..yyygkgsgggygysyyyg",
"tsyeggy11esjgy#po7<;;:.@****=.XXX@@@X.,,,:,,sggggkgyggydpggyyyug",
"ykgyygy10szzkgg#iy,::,,..@**&.  .....,,7,,,yggggggyyggyyiiyysggk",
"ggyegge1ykcxggggyyy,77<<,.. .7;;,88,,,,,,,ggggguyygggyyyysgggjgg",
"syeyygyyglxkyygysyyyg77<,,,,:,;;,88,<,,:yygggggyygggguyyggyyyyyy",
"ggyygggsghhitygpyytyggsy,,,,,,;;,87,gggyyygggiyyysytgggygyyyyyyy",
"gggggkgggggyyigggygggggdyyysgge>txlyigyygggssyyygyeyggiyuyyyygys",
"gghyggggpgyytggggpgiyyddsyyggk0>ycxuyyyyypsyyyypggyygyyygsyigggg",
"yggyyygyyyytygkgyyyyeetyyygggge>yvxdyyyygggyyyyygyyjlkiyguyggggg",
"gggyygggyyggyggsyyyyrtyyeeshkg1>yvxuggggggyyyyiggyyghggggiyggggg",
"kkgggygggggggggytrtytydyetgggy1>txlyygyggyeyyggggigyspsygggggggg",
"hggyyyygggggigyeeyusyggyygkgsy1-yxzyyyygkyeggggggggyyyyyggysyyyy",
"gpyyyyygjgggyyyyygggpghggklggp1>ycxyyyyggyygggygggiygggyyyyyyyyy",
"syysyygggyigggyyygjiyghggjlkgge>pcxgyggggyygjgyssyyyyggyyysgyyyy",
"gsyiigggggiggggyuggyysggysjgyy1>yclyygsgyyyyggyggyyyyyyygggkgyyg",
"ggiyyggsggspyygysggggggiyygyyt1-yczyyyuyyyyyyyigyyyygyugyggggygg"
};
