/* XPM */
static char *el51680105951[] = {
/* columns rows colors chars-per-pixel */
"64 64 70 1 ",
"  c #05050F",
". c #050511",
"X c #0A0E1A",
"o c #1D131E",
"O c #0E1621",
"+ c #0F1821",
"@ c #1D1220",
"# c #131F2B",
"$ c #281920",
"% c #14202C",
"& c #1B2C36",
"* c #1B2B38",
"= c #2F2F2F",
"- c #342C2A",
"; c #39312F",
": c #312F30",
"> c #333333",
", c #3D3533",
"< c #363638",
"1 c #3C3C3C",
"2 c #421D06",
"3 c #4F1917",
"4 c #4F1919",
"5 c #501817",
"6 c #501819",
"7 c #63351D",
"8 c #413937",
"9 c #443C3A",
"0 c #6B5C3F",
"q c #154257",
"w c #154259",
"e c #454545",
"r c #474749",
"t c #474948",
"y c #4D4D4D",
"u c #4E504E",
"i c #51514F",
"p c #4F4E50",
"a c #4C4A5D",
"s c #514F50",
"d c #4C5153",
"f c #495058",
"g c #525252",
"h c #565658",
"j c #575958",
"k c #5A5A5A",
"l c #5E5E60",
"z c #636363",
"x c #6A6A6A",
"c c #726B7D",
"v c gray44",
"b c #9F2927",
"n c #9F2929",
"m c #9D3F3F",
"M c #A02829",
"N c #AC7676",
"B c #AC7578",
"V c #D0765E",
"C c #F78D73",
"Z c #B19997",
"A c #B29A99",
"S c #B4ACAA",
"D c #C4B59E",
"F c #FCAA95",
"G c #D1C7C5",
"H c #D0C8C6",
"J c #E5E6C7",
"K c #E6E6C8",
"L c #ECE3E4",
"P c #FFFFFF",
/* pixels */
"ygggjjgggysgsyytggssggrrtsyrgg1>gxlyyiggghgssistyttsggrrikksiyty",
"gjjggggsyyhjyyysggytggeeysiygge<gxkysiggyyytyiggsyrygytthkhiggys",
"ghgsgsgyyygjgsggggytgyreyyyyus9<izkiiggyrtttyghggiyyguyihkggggsg",
"ygyrtysiytsgggjgygytgytyggsyyue<ylhysgsyysgyggggggysggsigggisyyg",
"ygyrtgggyrygsyggtyyygyydjgiigge<yzkysiiygiggggiygsyigsysyyigytys",
"iggyysggyyghyttytyssyysgyysggge>tkjysggyyisgggsyytersytyryhhyygi",
"yggyyyggsygjytyyggggiyghstoooooooooygggyrygsigsyytrriiyyisjjsggg",
"yysigggghygggsgiggggsgggooZZDDDDDAZooggyrysyttyyiyrijhsssshgtyst",
"ggggggggiysigiiggggyggg$ZDDJJJJJKJDDZoytryyttytygyggjgsyiggsgyyy",
"ggggyyygsisssyygggsyggoADJJJPPPPPJKJDZotyiggsyyyggsgggyyygiiggyy",
"gggsytyyytyyyyggsdyyyuoDJJPPPPPPPPJJJDodgjjgiytskgyyyytygiiygyyg",
"jjgsyyygyytygggggpyyyoADJPPPPPPPPPKJJDZoyistyyigkgytyssghhgsggyy",
"jhgssgggggyyyggyyyyydoDJJPPPPPPPPPJJJDZoerreryghggyiggjhjgggggyp",
"ggyyyiugygyyygyyssyugoDJJPPPPPPPPJJJKDZoeyysssiggyyysgyysiyyyuyg",
"yyyyyyyttyggyygggyyygoDJJJPPPPPPJJJJDDZ@ .hjgggisyyyyteeyyyyyyyg",
"ttysisyrrsggyyyggyysgoZJJJJJJJJJJJJJDDZo O.ghgghytysggyygggggygg",
"ygggggyyyjkgryijhgyyioZJKJJJJJDJJJJDDDco.XO.gggggsgggjgggjjggggg",
"sgggggyygjkhyygghgyigoZJJJKJJDDDJJDDDZco.XOO.sggtyggggiigkhgigsy",
"gggggsyigjggyyysgiryioaDJJJDDcZDDDDDZZao.X.#X.syytggggsyjhsreyyy",
"gggyyytysyyyyrysgyrryooaDJJPPccZDDDZZco.XX.#OX.sttygsgyyggteryyy",
"yuyyytttttyysyggjsiyyyoDD@@oDPocccJZcao.XX.%%+.gyygyygyssgiyghii",
"gggygsysggsggigggsisysoPDJaooPoacJDcaoy.XXX.%OX.sygyyyyiisiyghgi",
"ggggggsgjggggyyyyrryrrooDJcaZPPJJccaog.XXXX.%%O.yyssggyggyreryss",
"ggsyggysggggggyyseee1eocoDDPPPKcDa@@jd.XXXX.X##X.tssggdgggtrysig",
"ggtygiyysgyyggggiyyyyggoKDDDDDoo@oXXX...XXXX.%#+.ysygggyggsygjjg",
"kgrygggyggyygggyygjkkkjgoKoPoDooXXX###@X..XX.%%OX.tyggiyyiyttggs",
"jgsggggiggyyygyyttsgjgg.moaoDaXXXX##%ww&%X.X.%%OX.iggggyyysyyggg",
"syyyyttyygyysgyyyyiigg.X+OmmBNmmN#&q&%%w&%.X.%%OX.sgggdyyggyysgg",
"gyyugdtttyytuytteydiuy.O&mNm0455$N&ww*&%w#X. %%OX.gguyuggggigggg",
"yyygiyetghggggigygjhgy.&&wmN$mnnS5N&ww&%OO&.X%%%X.yyyyyyiytygggg",
"<1ee1<<1ee91e1119re911.&wqm0HHLH5$n%%%+O%Ow&.%&%X.<11<1191<11111",
"-==<<<>,<<>=>><<><<<<<.&w%m$3363S55*+www%&Ow %&#X :>>>>><>:><>>>",
"ytyye1esdyyyyyuyyuyyyy.X&w5$5HLH5$5OXwww%&OwX.&%X.ttyiyggytssyty",
"kzxxhilxvxxxxxxzzzzzz.XXXN5HH555S5$XX.w&%%&%%.&%X.zlzxxvxxxxxzzx",
"kkzljkxxzkkko22kkzl .XXX.Nm555LH55nO. ..OOwo%.&%X.jjkzzzzkzzzklz",
"iyysgjkgytyofo7222.%O%%X.ONmSH55n55X.yy.%Ow*X.%%X.yygggysytyytyg",
"stisyrtytsggoyo777.#%X%X.Xmm5MMmmm$X.uyk.+&&O.%OX.gsggyyytytttys",
"eeigyrriysgoaotooo.%OOXX.X+NmmFVM$+..jg.%&*&*.%OX.gyiggyyrysstyy",
"rtsggsgjggstoygjgg.OOOX...X%MCFF5#+.+.t.%*&wO.%OX.gyyyggytiggiyy",
"shkjisggggiofoggkg.OOO.o7 XXO55m##+.+...X&&*O.%O.jggggggisgghggs",
"ghhgiyyityysoytdgdy   gs.X+&qwO#%OX.XO..X#*O.%O.sggsyggyyyggggty",
"yyyttyyyytyopophjgsyy,,,.O&wqO%+XXX.X+.y....O%O.ghgsyysyssyggyyy",
"tyyyysyygido@@pjkgg;,88 X&wwO%&XOOXX.X+.,ys.OOX.gyttyissyisyyyyy",
"ikhhsissgoofffookg88,8,.X&%O%&X.OO+X.X+X 88.OX.gytrtiggiygggsggy",
"hkjgssiytopfoffog,,,,,,.+*&&&X.XOOOO.XXOO.;.X.ggiyggjjsssggsysyt",
"gggyryssofffffffo,;;,,,.%&&#X...XOOOO.XXOO...ggs  hjkgsyiggyttrr",
"igytyggofofffffofo,,,,,.&&#X..;-.XOOOX..XXOO.....ygggsyysiyyryyt",
"ssyysjgyoffofoff@,8,,,.X&*#X.,;..XOOOO.,..XX++..etsyryyyytyyisgi",
"ygiyggte1offfffoy,,,,.X#*&&%., XXOOOOO.,,,  ..tyyhjisgggygyiyygg",
"risrigy91@oaofooj8,,.&&&&&&&.,.XXXXO. ,8,;,,,gghhhsiggsyiggyytsg",
"yhirsgy1edkofogjgy,;.#&&&&&%.8. ....,,,,,,,,gggggiyyggyyypyygggh",
"igstigt1yjxzougiyts,,.......,8;-,99,,,,,,,ggggisyysiggtyyggggggg",
"sstrghsrgkzjyyiystyug888<,,,,,;-,99,,8,,yysggggyygggggyygsisiyyy",
"gytyghishhhgtygygtyysgsy,;,,,,--,98,gggtysggggyyygytigyygsyttyty",
"gggighgiihgytgggisihhgissytigge>rzkyggyygggpyyyygyrtggssyytyyggs",
"gjgiiggsiisytgggsssiyyssiysggj1>rxzsypytppsyuyyygstsgstiguysghgg",
"ygyytggyyyyryghgiyyyretyytggjg1>yxzsyyyyiggytyyygyygkjgyggyggggg",
"gggysggsyyiisggsyttyttyyerihjg1>yxzsiggggiyyysisgyggjggggyyggggg",
"kjggygggigggiggyrryttysyetgggy1>tzlsygighyrtsggggggyssyyggggsggg",
"jgsgytygggggisytryiyyggysgjgsy1>yzkytyyshytsgggggggyyyyyggygyyyy",
"gsyyytsggggisyytygggshhigkkgis1>ixlyyyyggsygggygyggygggyyyyyytty",
"gyyyyygggyggiggyyghgyihgghkhgie>yxlisggggyygggygusytyggyyysgyyys",
"guygggggggggggsysggsyiggyshiis1>yxliyygdgttgggyggyyyyyyygggjgygg",
"ggsyygggggysyygyiigisghgtyiitt1:yzlyysyssytyyyygsyyygysgyggggygg"
};
