/* XPM */
static char *el61680105951[] = {
/* columns rows colors chars-per-pixel */
"64 64 75 1 ",
"  c #05050F",
". c #050511",
"X c #0A0E1A",
"o c #1D131E",
"O c #27181F",
"+ c #0E1621",
"@ c #1D1220",
"# c #131F2B",
"$ c #261920",
"% c #281920",
"& c #14202C",
"* c #1B2C36",
"= c #1B2B38",
"- c #2F2F2F",
"; c #342C2A",
": c #39312F",
"> c #333333",
", c #3D3533",
"< c #3E3936",
"1 c #3C3C3C",
"2 c #421E06",
"3 c #421E08",
"4 c #4F1716",
"5 c #4F1916",
"6 c #501817",
"7 c #511918",
"8 c #64351D",
"9 c #403635",
"0 c #413937",
"q c #443C3A",
"w c #6B5C3F",
"e c #154259",
"r c #454545",
"t c #494947",
"y c #474948",
"u c #4D4D4D",
"i c #4E504F",
"p c #51514F",
"a c #4C4F53",
"s c #4D4A5D",
"d c #514F50",
"f c #4F5150",
"g c #495058",
"h c #525252",
"j c #585657",
"k c #575958",
"l c #5A5A5A",
"z c #5E605F",
"x c #636363",
"c c #676769",
"v c #676968",
"b c #6A6A6A",
"n c #726B7D",
"m c gray44",
"M c #9F2927",
"N c #9F2929",
"B c #9D3F3F",
"V c #9D3F40",
"C c #AC7676",
"Z c #CE755D",
"A c #F78D73",
"S c #F98E74",
"D c #B19997",
"F c #B19999",
"G c #B4ACAA",
"H c #C4B59E",
"J c #FCAA95",
"K c #C4B5A0",
"L c #CEC9C5",
"P c #D0C8C6",
"I c #D1C8C9",
"U c #E5E6C7",
"Y c #E6E6C8",
"T c #ECE3E4",
"R c #FFFFFF",
/* pixels */
"uhhhkkhhhudhuuuuuhhuhhtyuuuyhh1>hcluudhhhhhuuhduuuyuhhtyulkhduuu",
"hkkhhhhhuujkduuuhhuuhhr1udhuhhr<hczudhhhuuuuuhhhuuyuhuuthljdhhuu",
"hhhddpuuuuhkhuhhhhuuhuyruuuuapr<hxkuphhuyuuuuhkhhdyuhuupklhhhhah",
"uhuttahhdtuhhhjhuuuuhuuuhhuuaf1>uxkuhhauuuuidhhhhhddhhdahhhhduuh",
"uhutuuhhutuhhuhhtuuupuupkhhhhhy>uxludhhuhhduhhhuhuuuhduuuuhhuuuu",
"hhpuuhhhuuhhuyuuuuuuauhhuuuoo@oooooouhfuudhhhhauuuryduuuuuhjuupp",
"uhhuuuhhhuhjuuuuhhhhduhhaOoDFHHHHHDDoohuyuhddpuuuuryhhuuuukkdhhh",
"uaddhhhhhuhhadhuhhhhphkhoDHHUUUUUUUHHDouyuuutuuuduyujhhhdhhhuuuu",
"hhhhpdhhhufhhhhhhhhihhkoDHUUURRRRRUUUHDoyuuuuuuuhdhhkhuuhhhihuuu",
"hhhhuudpdpuuuuuhhhhuhhh@HUURRRRRRRRUUUHouhhuuutuhhuhhhuuuhdhhhuu",
"hjhiuuuuuuuuuuhhhuuuuuoFHURRRRRRRRRUUUHD@kkhpuuulhuuuuuuhhhuhduh",
"khhuuuahuuuuuhhhpuuuudoHUURRRRRRRRRUUYHDoduuuuuhkhuuuudhhkhuhhuu",
"kjhddphhhuuuhhuuauuuhhoHUURRRRRRRRUUUUHDoyrryuhjhhuhhhkjkhhuhhuu",
"hhuuadhphhuuuhhuhuudhhoHUUURRRRRRUUUUHHDo..uddhhhuuuuuuuhhuuuuuh",
"uuuuuuutuuhhuhuhhuuuhhoDUUUUUUUUUUUUUHHDo.+.jhhhuuuuuuyruuuuuuuh",
"uuupddyyyuhhuuuhhuuhhhoDUUUUUUUHUUUUKHHno.X+.hhhuuuuhhuudhhhhhhh",
"uuhhhhuudklhuuhjjhuuhh@FUUUUUUHHHUUHHHDno.X++.hkhuhhhkhhhlkhhhhh",
"uhhhhhuuhklhuuhhhhuuhhosHUUUHHnDHHHHHDDso.X.&X.huuhhhhhphljdhhuu",
"hhhhhuuhhjhhuuudhuuuuhoosHUURRnnDHHHFDno.XX.&+X.tyhhhhuuhkdyyuuu",
"hhhuuuuuuuuuuyuuhuttuuhoHHoooHRonnnUDns@.XX.&&+.uudhhhuuhhurruuu",
"puuuuuyuuyuuhuhhjhduuuhoRHUsooRosnUHnsou.XXX.&+X uuhuhuddhuuhjhh",
"hhhdhuuuhhuhhuhhhuhauuhooHUnsDRRUUnns@u.XXXX.&&+ uhduuupdhuuhhhh",
"hhhphhudkhhhhuuuuyyuyuj@noHHRRRUnHsoofu.XXXX.X&&X.auphhhhayruuuh",
"hhauhhuhhhhhhhdudrrr<yhhoUHHHHHooooXXX....XXX.&&+ dduhahhptyuudh",
"hduuuuuuhduuhhhhuduuphhkuoYoRoHooXXX++&&&X.XX.&&+X.ihhhuhhuuhkjh",
"lhyuhhhuhhuuhhhuuhhlllkh.VosoHsXXXX&&&ee*&X.X.&&+X.uhhduuhuuuhhu",
"khuhhhhahhuuuhuuuuhhhhh.X++VBCCVBC&*e*&&e*&.X.&&+X.hhhhuuduuudhh",
"uuuuuuuuuhuuduuuuuuhhhh.+*VCVw665OC*ee**&eX&..&&+X.hhhuuuhpuuhhh",
"huuuhhyyuuuuuuuyruffuuu.&*eVCOVMNG7C*ee*+++e&.&&&X.hauuhhhafhhhh",
"uuahduyrhhffhhauuujhhua.&eeBwPPTI6%N*&&&&+&ee.&*&X.uyyuhuuuuhhhh",
"<1rr11>1rrr11r1r1rrr1r1.+e&VO6666G65&++*e&+&e &*&X.111<r11<11111",
"---><>>>><>->>>>><1>>>>.X*e6O6PTP6O5+.&ee&e&&.&*&X >>>>>>>>>>>>>",
"tyuur1rdduuuuduuuuuutuuu.XC6LL656G6%+..&e&&e+.&*&X.uuuuhhuuuuutu",
"lvbbjhlmmbbbbbccxcxxvvx. .CB644TP66N&+..+X**+ **&X zvbbmbcvbbcvc",
"llxlklcbzzllzxxlko22lxl. .+CBGP66N67&X.j.+e*&.*&#X.lzxxvxlxxxllx",
"huuhhjlhuuudhduyoa@822.XX.+BB6NNBBV6&.uh.&e*&.&&+X.uhhuuduuuutuh",
"uyuhutyuyuhhhurraoho88.+X X#CVBJZN6O+.p.+&e*..&&+X.dhhuuuyuuyyud",
"truhuyydudduyrytogoyoo.+X.X&#NAJJSN%+..&****.+&&+X.udhhuyyuudutu",
"yydjhuhkhhdutufjhouyud.+XX X+6ZABB6+X..&**e+.+#&+.hduddhuufhhduu",
"djlkhdhhhphuafhh@aotdj.XXX.X+#66CB+X.. X***+.+&+.hjhhhhhddhhjhhd",
"hjhhhuuauuuddutOgouiuhh....X#*ee++X..2.X#*+..+&+.hhuuhhuuuphhuuu",
"yuuuyuuuuuyuhuiooouuuf9,,,.X*ee+*X...82....u.++X.jhuuihududhhuuu",
"yuuuuuuuhhuhk@ogsgoo,,<9,,.*ee+**.XX.o+.,,uu.+X.pduyuapuapduuuuu",
"hjjjdhhdhuuhh@ggoggo<99<,,.e++**X.++.X++.9,h.X.huuruhhhhuhhhhhhu",
"hkjhuuduyrruogggggggo,9,,,.e**+X.X++X X++.,,..hhuufhjjhddhhduuuy",
"hhhytuhhuuuogogggggogo,,,,.#*#X..++++X.X++..9hhh..hkkhpuhhhuuytr",
"hhuuuhhdfhhkoggogoggo,,,:,.*=+X...++++..XX++.... uhhdauuapuuyuuy",
"hhuuhkhuuuhhhogggggo,,,,,.X=*+X..X+++X.,..XX++ .rudatuuuuuuuudhd",
"uhhuhhur<1ruuoogogoo,,,..X&***+.X++++.,,,,. ..uuukhhhhhhuhhuuuuh",
"tduyhhu11rajhppoao,:;:,.=******.+++X..,,,:,,,hhhhjhuhhuuhhhuuuhh",
"uhhyuhu<rfzxkhhk@uu,>,,.&=****+ . ..,,,,,,,,hhhhhhuuhhuuuuhuhhhh",
"hhdyahu1ykcxhhhhuuuh9,0<...... ;,qq,,,,,,,,hhhhduuphhuuuuhuhhhjh",
"duyydhuthlxhuududuuuhl0,<,,,:,:;,qq,99,,,uhhhhhuuhhdhduuhpuuuuuu",
"hduuhhhahkkutuhuautudhduu,,,,,;;,q0,9hhuuuhhhpuuuhuuhhfuhauuuuuu",
"hhhfhjhhhjhuuhhhhuhjhhdduuuhhkr>txluipuuphppuuuuhuyyhhuuduuuuhuu",
"hjhhhhhhppuuuhhhhuahuuddhuuhhk1-ucxauuuudapuuuauhpuuhuudhuuuhkhh",
"uhuuuuhuuuuyuhjhuuuuyryuuyhhkh1>ubxduuuuhhhuuuuuhuuhlkhuhhhhhhhh",
"hhhduhhhuuhhuhhuutuyyyuuryhjjh1>ucxddhhhhduuuuhdhuhhjhhhhpuhhhhh",
"lkhhhuhhhhhhhhhuyyuutdduryhhhu1>uvluuhdhhdyuuhhhhhhuhuuuhhhhhuhh",
"jhpauuuhhhhhdhuyyuuiudhudhkhiu1>txzuuuudhuyfhhhhhhhuuuuuhhuuuuuu",
"huuuuuuhhhhhuuuuuhhhhhkhhllhhu1>ucxuuuhhhuuhhhuhuhhuhhhduuuiuuuu",
"huupuudhhhuhhhuudhhhuhjhhhljhhr>ubzhupuhhuuhhhuhhuuuuhhuuuhhuuuu",
"hhuhfhhhhhdhhhhuuhhuuuhhuujhuu1>ucluudhhduuhhhuhhuuuuuuuhhhhhduh",
"hhuuuhhhhhhuuuhuhhhhhhhhuuhuuy<>ucxuuufuuuyuuuuhuuuuiuhhudhhhuhh"
};
