/* XPM */
static char *el71680105951[] = {
/* columns rows colors chars-per-pixel */
"64 64 72 1 ",
"  c #05050F",
". c #050511",
"X c #070E18",
"o c #0A0E1A",
"O c #1D131E",
"+ c #0E1621",
"@ c #1D1220",
"# c #131F2B",
"$ c #261920",
"% c #281920",
"& c #14202C",
"* c #1B2C36",
"= c #1B2B38",
"- c #2F2F2F",
"; c #352D2B",
": c #30302E",
"> c #38302E",
", c #333334",
"< c #3D3533",
"1 c #3F3A37",
"2 c #3C3C3C",
"3 c #411D03",
"4 c #4F1716",
"5 c #511716",
"6 c #501817",
"7 c #501819",
"8 c #413937",
"9 c #443C3A",
"0 c #6B5C3F",
"q c #154259",
"w c #454545",
"e c #484846",
"r c #4D4D4D",
"t c #504E4F",
"y c #4E504F",
"u c #51514F",
"i c #4F4F51",
"p c #4D4A5D",
"a c #514F51",
"s c #4F5150",
"d c #495058",
"f c #525252",
"g c #565857",
"h c #5B5B5B",
"j c #6B5B41",
"k c #636363",
"l c #6A6A6A",
"z c #726B7E",
"x c gray44",
"c c #9F2929",
"v c #9D3F3F",
"b c #A02829",
"n c #9D4140",
"m c #AC7676",
"M c #CF755D",
"N c #D0765E",
"B c #F78E72",
"V c #FA8E74",
"C c #AF9A97",
"Z c #B19997",
"A c #B29A98",
"S c #B4ACAA",
"D c #C4B59E",
"F c #FCAA95",
"G c #C4B5A0",
"H c #CEC9C6",
"J c #D0C8C6",
"K c #D0C7C8",
"L c #E5E6C7",
"P c #E5E6C9",
"I c #ECE3E5",
"U c #FFFFFF",
/* pixels */
"rfffggfffrfftrreaffigfeeeieeff2,fkkerfffggaiifaereefffeefhgaaier",
"fggffffarrggtrrrffrefiwwiififfw2flhraffferreraffirerfreeghgfffri",
"fffaiffrrrfgffffffrefrewrrieru22fkgirffrerrerfgffirrfurtghffffff",
"rfaeefrireafffgfrirrfrerffaryyw,rkgrffirrrirffffffiiffyffafarrrf",
"rfreriffaerfaiffererrfffhfffffw,ikhrrfirffifffsrfrrifsrierffrerr",
"fffrefffrefgrererrfsarrfieyfffw,ehgruffrrifuffirreweiirertfgriff",
"rffrfrffaifgrerrffffytffirfOOOOO@@OOfffreififffraeeeiarrrfggifff",
"rrfrfffffrfffiffffffrffgf@OZZDDDDDZAO@frerrieerrfreiggafaagfeiae",
"ffffiffffifffffffffyffff@ZDDLLLLLLPDDCOeeireererfiffgffrfffufrrr",
"ffffrrrfarrirrrffffrfffOZDLLLUUUUULLLDZOrfffiirrffffffrrifafffrr",
"ffffrrrrrerrrrfffrrrerfOGLLUUUUUUUULLLDOfggfarrrgfrerrrefffrfrrf",
"gffrrrrfrrrrrffffrrrifOZDLUUUUUUUUULLPDZ$arrrrrfhfrrraaafgfrffrr",
"hgfaiffffrrrffrrirrraf@DLLUUUUUUUUUPLLDAOweweragffraffgggffuffrr",
"fftrriufffrrrffrfrrrffODPLUUUUUUUULLLLDZOririsfffrrrfirrffrrrirf",
"rrrrrrreerffrfrffrrrffODLLLUUUUUUPLLLDDAO..ggfaairrrreeweirrrrrf",
"rerrfireeiffrrrffiraffOZPLLLLLLLLLLLLDDZO.+.fgfgrrefffrrffffftff",
"rfffffrrtghferfggfrrff@ALLLLLLLDLLLLDDDzO.o+.ffgfifffgfffggfafff",
"rfffffrrfghgrrffgfriffOALLLLLLDDDLLDDDAzO.o++ tferfffffffhgffftt",
"ffffffrufgffrrrafterttOpDLLLDDzZDDDDDZZpO.o.#o.treffffirggaweerr",
"fffirrerirrrreraateeerOOpDPLUUzzZDDDZZzO.oo.&+o.rerfrfrrffrwerrr",
"rurrrreeeerrrrffgfiirrfODDOOODUOzzzLZzpO.oo.&&+.rrrfrfrrifirfgfa",
"fffrfrriaffffffffrfirtfOUDLpOOUOpzLDzp@f.ooo.&+o.rfsfrrfifrrfgfa",
"ffffffifggfffrrrreerwrg$ODLzpCUULLzzpOt.oooo.&&+.rirrurffreweraf",
"ffirffriffffffrrawww2waOzODDUUULzDpOOte.oooo.o&&X.iaffffffrerraf",
"fferiirrifrrffffirrryffgOLDDDDDOOOOooo ...ooo.&&+.rrfffffffrfhgf",
"hferfffrffrrfffrrfghhhggrOLOUODOOooo++&&#o oo.&&+o.aufferfreeffi",
"gfiffififfrriirrerfffffy.vOpOGpoooo&&&qq*&o.o.&&+o.ffffrrrrrraff",
"rrrirrrrrfrrfarrrrrffff.o++vnmmvvm&&**&qq*&.o.&&+o.fffirrffrrfff",
"frrifteeerreireeeeafarr.&&vmv0766%m*q**&q**o..&#+o.ffiifffifffff",
"rrrffeeefgffffffrfggaii.&*+vm%vccS4mqq*&*=+&.o&#&o.reerrfreeffff",
"222ew2,2ww22ww222ww22w2.*q+vjJJIJ6%b&q*++#qq.o#=#o.2222w22222222",
"--,,,,,,,2,--,,,,22,,,,.*&+v$6666S65&++q#q#q.o#=#o.,,-,,,,,,,,,,",
"reraw2wiirrrrrirerrrrrr.&q+6%5HIJ6%6o.qq&q&q.+&*&o.esraffrrrfrer",
"hkllgfhlxllllllkklkkklk.o#m6JH666S6%&.qq&q&*.+&*&o.kkllxlllllkkl",
"hkkhghllkhhhkkkhhkkhhhhg.omv666IJ66b&o.+&q+&.+*=#o.ghkklkkhkkhkk",
"ferafghgerriirirrffttffO3.+mvSH46b66&o +q*+o.&*&#o.rffrrrrrerres",
"reiareererfffiwwyffeer@dO.onn4ccvvn6&.+qq&o.+&&&+o.affrriereeeri",
"wwifreeiiffreeeeffieeeiO..o+mvnFNc4$..&**+.o+&&&+o.rafareeriirer",
"eraffafggfreeefgfireefOp..oq&cBFFVc &***&o.+++&&+o.iirffrrrfffrr",
"ffhhfiffaaffafffhgreuggO.o.o&4NBvv6.&**q+.++++&#+.gfffffaafggffi",
"ffggaiiirrriareafirrafOd.o.o+&66mn+.o***+...++&+.ffirffrrifffaer",
"erreeeererrrfraggfrrrOdO..o.o&*qq+*.o&*+.rre.+&+.gfiifrrirrffrrr",
"rrirrrirfaaggffghgfirOOOs.o.o+*qq+*.....ftur.++o.irerrairfirrrrr",
"fggffffafrrffrrfgffOOdddO.+.o+*=q+*.....ffff.+o.reeeffffrffffffr",
"gggfritrewwrieeffrr@ddOdd.oo.X&**&*.o..+.<rr.o sairfggaiiffirire",
"fgfrerfarrrffirfgrOdddddd..oo.O***o.oo.++.<r..ffiafhhgarfffrerew",
"ffrerfffffghgfafg$dOdddddO  ..o+**o.oo.o++..ffrr..fffsirifrrerre",
"aaaeagfreraffarrarOddOdOddO<>2 +&*.ooo..oX++.....rtirerreerriiff",
"rffrafee22erirrair8OpddddO<>;.o+&*.oo.<<..oo++..rfgfftffrytyrrff",
"eaieffr22wagfrffgf<@OdOdOO<. o#***&...<1<<....fgggftffrfffirerif",
"rgfeifr2wikkgffffr<<>OdO<<< ==*****.<<<<<<<<ffffffrrffrirfrrtffg",
"ffieige2rgkhffffrer<<1O8<8<.##**&++.<<<<<<8fffisrtrffirrrufffgff",
"ireeffrefhkgrrirferi188<<<<<..  ...<<8<<<<afffarrffffirefifftrrr",
"firefgaffggfeafrferrif<<<<><<8;;<98<<8<<riffffrrrfrrfffrfireerer",
"fgfffgfafgfreffffrfffffir<<8<8>;,99<<frrfffrurrrfreeffirrrerraff",
"fffafffaaarrrffffrffrriiurrffg2,elkrrrrrrarirrrifreffrrrfirifgff",
"rfrreffrrrreefgfrrriewerreaggf2,tlkiirrriffrrrrrfrrfhffrfurfffff",
"fffraffrrrfffffairreeerrweaggf2,rlkfsffffferrrsffrffgfffffrfffff",
"hgffsifffffffffreereeiirwefffa2,ekhrrfrffieeaffffffrffirffafffff",
"gfffreffffffaareeefyiifrafgfrr2,elkeerrfgieafffffffrrrrrffryrrrr",
"frrrrerffffiirrerfffafgffghgfr2,rlkyiraffrrfffrfrffrfffrrrrureer",
"farrrrfffrfffffrtfffragffghgffw,rkkrrffffrrfffrfttrrrffrrrffrrrf",
"ffaufffffffffffrrffaraffrtgafr2,rlkrrfrfirefffrffrrerurrfffffiif",
"ffirrfffffrfrrirfaffffgferatee2,rkhrrrrffrerrryfrrrirrffrifffrff"
};
