/* XPM */
static char *el81680105951[] = {
/* columns rows colors chars-per-pixel */
"64 64 67 1 ",
"  c #05050F",
". c #050511",
"X c #0A0E1A",
"o c #1D131E",
"O c #0E1621",
"+ c #1D1220",
"@ c #131F2B",
"# c #261922",
"$ c #281921",
"% c #14202C",
"& c #1B2C36",
"* c #1B2B38",
"= c #2F2F2F",
"- c #352C2A",
"; c #38302E",
": c #333333",
"> c #3D3533",
", c #363638",
"< c #3C3C3C",
"1 c #4F1716",
"2 c #4F1917",
"3 c #511716",
"4 c #501817",
"5 c #64361E",
"6 c #403635",
"7 c #413937",
"8 c #433B39",
"9 c #6B5C3F",
"0 c #154259",
"q c #454545",
"w c #494947",
"e c #474749",
"r c #474948",
"t c #4D4D4D",
"y c #4F514F",
"u c #51514F",
"i c #4D4F52",
"p c #4D4A5D",
"a c #514F50",
"s c #4D5152",
"d c #495058",
"f c #525252",
"g c #585856",
"h c #565658",
"j c #5B5A5A",
"k c #636363",
"l c #6A6A6A",
"z c #726B7D",
"x c gray44",
"c c #9F2927",
"v c #9F2929",
"b c #9D3F3F",
"n c #A02829",
"m c #9E4040",
"M c #AC7676",
"N c #CF755D",
"B c #F78D73",
"V c #B19997",
"C c #B29A99",
"Z c #B4ACAA",
"A c #C4B59E",
"S c #FCAA95",
"D c #D0C8C6",
"F c #E5E6C7",
"G c #E5E6C8",
"H c #ECE3E3",
"J c #FFFFFF",
/* pixels */
"tfffggffftifttiwffatgfqewtteff<:fkjataffffftifawtwwiffqefjgfitww",
"fggffffftthgfwttfftwfiqqtfftffq<fljtfffftttttffaitwtftwwfjhfffif",
"fffitftttwfjfffffftwftqqtttwuu8:fkhtfffwwwtwtfgffawtfftagjffffaf",
"tfiwwiffiwafffgfiawtfawtfffttsq,tkgtafftttftffffffiffftffffftttf",
"tftewffftwifatffewttfttfjfffffq,tkgtafutfafiffstftttfftyttfftwtt",
"fffttaffttfftewtttiuttfftttfffq:ekgttffttfufffattwqwatwtwtfhtiff",
"tfutttffatfgtwttffffatffiwoooooooootffftwifiafftiwqefftttfggifff",
"taayffffftfffiffffffyfgfooVCAAAAAVVoogfwqwftwwttftwtghiaafffttaw",
"ffffuiffftaffffffffufff+VAAFFFFFGFAAVorewttwtwwtftffgfitffftfttt",
"ffffattffaastttsffityfoVAFFFJJJJJFGFAVoeysffttttfffifftttfafffts",
"fffftwttwtwttafffatttfoAFFJJJJJJJJFFFAosfghfftttgftttttwffftfatu",
"ggfttttftttttfffaitttoVAFJJJJJJJJJGFFAVotftwtttfjftttaffhffyfftt",
"jhftauffffttufttttttsoAFFJJJJJJJJJFFFAVoqqqqwtfhfftaffhggffuffta",
"ffittfffytfttfftfttifoAFFJJJJJJJJFFFGAVoqtitafffftttfftwfftttttf",
"tttttttwwtffttaffttafoAFFFJJJJJJFFFFAAV+..ghfffftttttwqqwitttttf",
"wwttaitqwifftttfftttfoVFFFFFFFFFFFFFAAVo.O.hfgfftttsffttaffffiuf",
"tfffffttigjftwfggfwtfoCGGFFFFFAFFFFAAAzo.XO.fuffatfffgfffjgfffff",
"ffffffttfgjftifffftahoVFFFGFFAAAFFAAAVz+.XOO.afattffffftfjhffftt",
"fffffitafhfftttiftwtfopAFFFAAzVAAAAAVVpo.X.%X.aawwfffftafgfqqttt",
"ffftttwttttttwtafaeewoopAFFJJzzVAAACCzo.XX.%OX.ftwtfffttfftqqttt",
"tattttwwwwttttffhfftwtoAA++oAJozzzFVzpo.XX.%%O.fitfttfwiafftfgff",
"ffftftttffifffffftafiioJAFpooJopzFAzpow.XXX.%OX.ttftittfufttfhff",
"fffuffafggfffttttwwtqwooAFzpVJJFFzzp+f.XXXX.%%O.wtaauutffteqwttf",
"ffatffisffffffttsqqq<qozoAAJJJFzApoogs.XXXX.X%@X.taiffffffwettif",
"ffwtfittufttffffatttttf+GAAAAA+oooXX....XXXX %%O.tttfffaffatfjgf",
"jfwtffftffttfffttffjkjgf+GoJoAooXXXO@@%X.XXX.%@OX.ttffswtftwwffi",
"gfiffffffftttftwwwffgff.mopoApXXXX@@%0*%X.XX.%%OX.afffftttittaff",
"ittttwwttfttsfttttufsf.XOOmmMMbbM&00%00&%.XX.@%OX ffffuttfuttfff",
"fttufywqwtwwittwqtfutt.O*mMm9114$M000%0&%X.X.@@OX.ffuytffffuffff",
"tttsftwwffffffustfgfft.&OOmM$mvvZ3M00%0OOO. X%@@X.twwttyttwtffff",
",<qq<,,<qqq<q8<<<qqq<8.&O&m9DDHD3$n%%OO%00..X%*@X.<<<,<<<<,<<<<<",
"-==,,,::,,:=::,,,,,,,,.%O%b$4444Z43&00%0%0..X%*@X.=:::::,,::,:::",
"wwtiq,qtatttttttwttwtt.*O&4$1DHD4$4.&0%0O&.XO@&%X.tetttfftwtftwt",
"kklkgikxlllllllkkklkkk.%OM4DD434Z4$.&0%0O&.XO@*@X.kklllxlllllkkl",
"hjkkgjkxkkjjkkkjkjkjkjj.XMb444HD44nX.%0%OX.XO&&%X.hjjkklkkjkkkjk",
"fttafgghwwtifaiwtffytffo OMbZD44n22.X0&&X.oO@&@@X ttffttttttewtf",
"twtftwwtwtfffteqsfftewod Obb4cnbm..X%&&O.5+O%@%OX aafftttwwtweti",
"qqiftqwfiffteqwwuftewwio XOMbbSN.%&&&&%X.#oO%%%OX.ftuftawwttttwt",
"wwafftfgfftwewfgfftqwsopo.00vBSS.%&&0%X.XXOOO%%OX.attiufttiffftt",
"fhjgfifffaffasffjftwygg+t.@O4NBb.X&&&O.XXOOOO%%O.ghafffffafgffff",
"fhhffitawttiatwafutttfodo XO@44M.X%&%......OO%O.thfttfftttfffawt",
"wttwwwwttwttftahgffttffo XXX%%&X.....XO.wrt.O@O.fgfittfttitffttt",
"ttttwtitfffhgffgjhftt>7.XOO.X%&&OXX.XXO.syy OOX.ftwwtuftaasttttt",
"fhhffffffttffttfjfi>>oo.OOO.XO&&&%X.XXXO ff OX.ftwqwfffftfffffft",
"hjgftiatqqqtiwwfft;66od OOO. XO&&&X.XXXOO.t.X.fffttfghftfffatite",
"ffftwtaftwtffttfg7>:opd..OXX.XO%&&OX.XXXOO...ffffafjjfitffftwwwq",
"ffawtffffffjjfuff7>ododd...XX.XO%&%X...XXOO..fttw..ffaitaattwwwt",
"iftwsgftttfffuttu>7>oddodo.XXX.XO&&O.>>..XXOO.....ustwttwwttiiff",
"tffwffwq<<qatwtit>>>>oddd.XOOX..XO%%.7>>>  XXOO..fgfiffftuatttsf",
"qfiwfft<<qfgffffg>>>;oop XOOOX.XX%%%X.>>>>> ...hggfifftaffytttaf",
"tffwtft,qsjjgffgi>>>->>o.OOOX.&&&&&&O.>>>>:affffffttfftttfttffff",
"ffaefft<thlkfffftw>>7777......%@&&%OO.>>>>fffffyittffftttaffffgf",
"ftwefftwfjkhttttawt>677>>>>6;7 ......6>>>tfffffttffffftwffiftitt",
"fttwfffafggaetftfwttf6>>>:;>>>-=>88:>>>ttafffutttatwffatftttwttw",
"fffffffffhftwaffftfffffa>:;677;-;886affwfffuttttftqwffftttwwtfft",
"fgfffhffsfitwfgfftffttifuyuffg8:wlkuttttttftttttffttftwsfatafhff",
"tfawwaftttwwtfgfttttwqwttwffgf<:ulkattttafftttttfttfjgftfuffffff",
"fffafffattffaffiiwttwettqqfggf<:tlkffufffftwttffftffgffffstuffff",
"jgfftsfffffffffwwqtwetfwqwfffi<,wkkttfsfgtqtifffffftfittfffffyfa",
"hfftttsfffffffteqtittfftifgftt<:wkjtwttaftwiffffffftttttfftatttt",
"fttttwtffffftttwwfffffgffgkfutq:tlkttttffttffftftffttffutttttwtw",
"fttyttffftafffatafgftfgffhjfff<:tkkfaffffttffftuatttafftttffttti",
"fitfffffffyfffftiffttifftaffft<:tljttasuattffftffttwtttwfffhftff",
"ffattfffffaittftafffffffwtfitw,:tkkttttfitwwtytfattistffaaffftff"
};
