/* XPM */
static char *er11680107292[] = {
/* columns rows colors chars-per-pixel */
"64 64 73 1 ",
"  c #05050F",
". c #050511",
"X c #070D19",
"o c #0A0E1A",
"O c #1D131E",
"+ c #0E1621",
"@ c #1D1220",
"# c #151F2B",
"$ c #281920",
"% c #14202C",
"& c #1B2C36",
"* c #1B2B38",
"= c #2E2E2E",
"- c #322A27",
"; c #342C2A",
": c #36312E",
"> c #39302E",
", c #333333",
"< c #3D3533",
"1 c #383639",
"2 c #3C3C3C",
"3 c #421E06",
"4 c #4F1716",
"5 c #511716",
"6 c #501817",
"7 c #511918",
"8 c #63341D",
"9 c #403635",
"0 c #413937",
"q c #443C3A",
"w c #6B5C3F",
"e c #154357",
"r c #154259",
"t c #18425A",
"y c #454545",
"u c #4D4D4D",
"i c #504E4F",
"p c #50504E",
"a c #4D4E51",
"s c #4D4A5D",
"d c #514F50",
"f c #4E5152",
"g c #495058",
"h c #525252",
"j c #585856",
"k c #5A5A5A",
"l c #636363",
"z c #6A6A6A",
"x c #726B7D",
"c c gray44",
"v c #9F2927",
"b c #9F2929",
"n c #9D3F3F",
"m c #A02827",
"M c #A0292A",
"N c #9B403F",
"B c #9E4040",
"V c #AC7676",
"C c #CF755D",
"Z c #F78D73",
"A c #736B80",
"S c #B19997",
"D c #B19999",
"F c #B4ACAA",
"G c #C4B59E",
"H c #FCAA95",
"J c #C4B5A0",
"K c #D1C7C6",
"L c #D0C8C6",
"P c #E5E6C7",
"I c #E6E6C9",
"U c #ECE3E4",
"Y c #FFFFFF",
/* pixels */
"uhhhjjhhhuhhhuuuhhpujhyuuuuyfp2,hlkaahhhhhhuhhuuuuydhhyyukjhauuu",
"hjjhhhhhuuhjuuuuhhuuhuy2uahpjhy2hzkuphhhyuuuuuhauuyupuuuhkjhhhuu",
"hhhaudpuuuhkhahhhhuyhuyyuuuupp21hljauhhuuuuuuhjhhhuuhhuujkhhhhah",
"uhuuuuhdayahhhjhufuuhduuhhiuppy,uljuhhuuuuuuhhjhhhuhhhdhhhhhuuuh",
"uhuyufhhayuhihhhyuuuiauhjhhfhhy1aljuhhhuhhpdhhhuhuuuhhuuuudhuuuu",
"hhhuuhhhuuhhuyuuuuuhpuhhuupfhhy,ukjuuhhuuuhhhhuuuuyupuuuuahjdufh",
"uhhuuuhhhuhjuuuuhhhhuhhhuufO@OOOO@OOhhhuuuhphhpuuuyyhduuuajjhhhp",
"uudphhhhhuhhhuhuhhhhuhjhh$ODDGGGGGSSO@huyufuyuuufuyujjahihhhuuuu",
"hhhhhhhhhuhhhdhhhhhphhhhOSGGPPPPPPPGGSOyuuuuuuyuhdhhjhuuhhhphuuu",
"hhhhuuuhppuuuuuhhhauhhhOSGPPPYYYYYPPIGS@uhhuiuuuhhuahhuuuhahhhiu",
"hjhuuuuuuuuuuuhhhpuuuuhOGIPPYYYYYYYYPIGOjjjhhuuakhuuuuuuhhhuhfup",
"jhhuuuuhuuuufhhhhuuuudOSGPPIYYYYYYYYYPGD@auuuuuhjhuuuhhhhjhuhhuu",
"kjhahhhhhhuuihpuiuuuhhOSGPPPYYYYYYYYYPPG@yyyuuhhhhuphhjhhjhhhpud",
"hhuuuuihhupuuhuuhuuihhOSGPPPIYYYYYYYYPPGOuaaaahhhauuhuuuhfuuuiuh",
"uuuuuuuuuuhhuahhhuuu..OSGGPPPPYYYYYYPPPGOjjjhhhhuuuuuuyyuuuuuuuh",
"uuuahuuyyuhhuuuhhuu.+.OSGGPPPPPPPPPPPPPS@hjjhjhhuuuhhhuudhhhhuhh",
"uuhhhhuuujkhyuhhjh.+o.@xGGGIPPIGPPPPPPPSOdjhhhhhuuhhhjhhhjjhhhhh",
"uhhhhhuuhjkjuuhhj.++o.OASGGGPPGGGIPPPPPDOajhuphhuuhhhhhhhkjdhhau",
"hhhhhuuhhjhhuuua.o%.o.OsSSGGGGGDxGGPPPGs@uuhuuuuuyhhhhfujjayyuuu",
"hhhuuuuupuuuuuu.o+%.oo.OxSSGGGDxxYYPPGsOOuuhhuhhyuhhihuuhhuyyuuu",
"uhuuuuyuuyuufuh.+%%.oo.OsxDPxxxOYGOOOGGOhuuhhhhhuuuauhuuhhuuhjhh",
"hhhuhuuufauhpp.o+%.Xoo.j@sxJPxsOYv44PGYOhhhhhhhhuuhhuiupuhuuhjha",
"hhhhhhuhjjhhhu.+%%.oooo.u@sAxPPYYS6bIGOOjuuhhhhhuuuuphuhhhyyuuad",
"hhiuhhuhjhhhh.o%%o.Xooo.yyOOsGxPYYb6GOxOhuuhhhhhuuhuhhhhhhuyuuhh",
"hpuuppuuhuupj.+%%.ooooo..opf@$@OGGGvGPOupupfpfhhuuuuhhhuhhuuhjjh",
"khyuhhfuhhuu.o+%%.oooo.o%%%uyuOOGOYbPOuupuuuuhhhyuuahhhuuuuuuhhu",
"jhuhhphphhuu.o+%%.ooo.X&rr%++fy;sGOs@B.hpuuuyuhfyuuhhhhuuuhuuhhh",
"duufuuuuafpu.o+%%.ooo.&rr%&rr#Nnn#6bV+o.uupfhhjhuuhhhhuuuhduufhh",
"huuphfuyuuuy.o+%%.oo.o&r%&rte+VnN7w$7V%.yyyyuhjhuuhhfuphhhpphhhh",
"uuuphuyyhhhf.o%%%o.o.%+&%&%+%VeVN6LV$br.yuuuahkhuuuuuyupuuuuhhhh",
"12yy2112yy22.o%*%o.o.rr+++rX%rVnwM66F6%.yyyy2yy22222222222122222",
"===12,,,11,:.o%*%o.o.r%r%&rXVBn7M$LU$6r.,,11,21====;,,,,1,,,1,,,",
"uuuay2yhiuyu.o#&%+o..t%t%&ro+%V77766F$&.yyyyuauuuuuyuhuhhuuuuuuu",
"jlzzjhkzczzz.o%&%+o..&+&e%&oVVVB67UL46X.lzzzzzllllllllzczzzzzlzl",
"kklkjkzzlkkl.o%&*+o. X%&r%+X.VBV6w46M..jzczllzzklkjjllllllkllkkl",
"huufhjkhuuuh.o%%&%O33.o%&tt+X..wwvnbH.uhjhuyuhhuuauahhhuuuuuuuuh",
"uuuhuuyuyuhh o+%%%O888..+%&r%%++.MCCM.Okju2yuuuuudhhhhuuuuuuyyuh",
"yyuhiyuuudhd.o+%%%OOO@OO.+%&rrr&o.ZC7.hjhyyyhhuuudhudhhuyyuuuuuu",
"uudhhuhjhhuu.X+%%+++oo.hp.o+&r&&+.N7Mo.uuyyajjhuuphuuuhhuufhhhuu",
"uhkkhahhhhhud.+#%++++oX.u ..+&&&%.NM7+o.huuhkkhuuhhhhhhhdhhhjhhu",
"hhjjaauduuuupu.+%++... .h.+X.+&%o.7BV++.pfhhhjhafhhuuhhuuuuhhhuu",
"uuuyyuuuuuuuhu.+%+.iuhh<.%r++....o6VB%+X.yyuuhhhhjhuuuhuhuhhhuuu",
"uuuuuuuuhhhhjh.X++.di<9<.r++rrX...+n+%+o.<<uuphfhuuyudaiuhuuuuuu",
"hhjjhhhahuuhhuu.o+.h<90.r%+rr&+.O.o+%++o.<0<hhhhuuyuhhhhuhhhhhuu",
"jjhhuhuuyyyuhyyf.o.<<<..%%&r&+.OgO.o+++X.O<<<jhhuuphjjhahhhuuuuy",
"hhhuyuhhuuuhhu..j..<..o+%++%X.;;Ogg oo+Oo...<hhhhijjjhhuhhhuuuyy",
"hhuuuhhhfhhjkhf......o+%++o..<<->Ogg.o+++%&%.<puyuhhhuuuuhuuuuuu",
"ahuudjhuuphhhhuu..++.+%&++.<<<;;<OOg.o+++&%o.<yyyuuauyuuuuuuuuhh",
"uhhuhhuy22yuuuuuuh...+%&&%X..<;;<qqO.++o%#X.9<uuujjahhhhuphuuuph",
"yhhyhhu22yphhhhhjhu>>.+&&&&&+.;;<qq<.+++o..<<uhjjjdahhuahhuuuuah",
"uhhyahu22hkljhhjfuuy><.+%&&%%.<;>qq1<. ..<<<hphhhhuuhhuuifiuhhhj",
"hhuuuhu2ukzlhhhhuuphh00......0;;9qq<<<<<<<<hhhuhuuahhuuuuphhhhhh",
"huyuuhuyhklhuuduhuuuhjj<<<<<><;;<qq<<0<<<dhhhhduuhhhhhuuhhuuduuu",
"hduuhhhhhkjuyahuauyahhhuuu<<<<;-<q0<<<huduhhhhuuuhuuhhpuhuuuuuuu",
"hjhahjhhhjhuuhhhhuhjhhhhuuuihjy1ylkpihuuuhhuduuuhuyydhhuauuuuhuu",
"hhhhhhhhahuuuhhhdadduuuhhuuhhj2,uzlpuuuuhhduuuuuhhuuhuuuhuuuhjhh",
"uhuuuuhuuuuyuhjhuuuuyyyuuuhhjh2,uzlfuuuuhhduuuuuhuujkjpuhhphhhhh",
"hhhauhhhuuhhdhhauuuuyuuuyyhjhh21uzlphhhhhfuuuuhhhuuhjhhhhpuhhhhh",
"kjhhhuhhhhhhhhhuuyuuuuhuyyhhhf2,ylluuhphjuyuuhhhhhhuhafuhhhhhhhf",
"jhhuuuuhhhhhphuyyuuuuuhuahjhiu2,ulkuuuufjuyihhhhhhhuuuuuhhuduuuu",
"hauuuuuhhhhduuauuhhhahjhhklhhu2,uzluuuuhhuuhhhupdhhuhhhuuuupuuyu",
"huuuuuphhuhhhhuuuhhhuhjhhhkhhhy,uzkhuhhhhuuhjhuhuduuuhhuuuhhuuuu",
"hhphhhhhhhhhhhhuhhhuuahhuphhhu2,uzluuhihuuuhhauhfuuuuuuuhhhhhihh",
"hhuuuhhhhhuhuupuphhhhhhhuuhiuy2,ulkuuuupuuuuuuuhiuuudpuhifhhhuhh"
};
