/* XPM */
static char *er21680107292[] = {
/* columns rows colors chars-per-pixel */
"64 64 70 1 ",
"  c #05050F",
". c #050511",
"X c #0A0E1A",
"o c #1D131E",
"O c #0E1621",
"+ c #1D1220",
"@ c #131F2B",
"# c #281920",
"$ c #14202C",
"% c #1B2C36",
"& c #1B2B38",
"* c #2E2E2E",
"= c #312927",
"- c #332C2A",
"; c #36312E",
": c #39312E",
"> c #333333",
", c #3D3533",
"< c #3C3C3C",
"1 c #421E06",
"2 c #4F1716",
"3 c #501817",
"4 c #511819",
"5 c #63351D",
"6 c #403635",
"7 c #413937",
"8 c #443C3A",
"9 c #6B5C3F",
"0 c #154257",
"q c #154259",
"w c #454545",
"e c #4D4D4D",
"r c #504E4F",
"t c #4E504F",
"y c #50514F",
"u c #4E4E50",
"i c #4D4A5D",
"p c #514F51",
"a c #4F5151",
"s c #495058",
"d c #525252",
"f c #575958",
"g c #5A5A5A",
"h c #636363",
"j c #676968",
"k c #6A6A6A",
"l c #726B7D",
"z c gray44",
"x c #9F2927",
"c c #9F2929",
"v c #9D3F3F",
"b c #A02827",
"n c #A0292A",
"m c #9B403F",
"M c #AC7676",
"N c #AC7578",
"B c #CF755C",
"V c #D1755E",
"C c #F78E71",
"Z c #B19997",
"A c #B29A98",
"S c #B4ACAA",
"D c #C4B59E",
"F c #FCAA95",
"G c #CFC7C5",
"H c #D0C8C6",
"J c #E5E6C7",
"K c #E6E6C9",
"L c #EBE4E4",
"P c #FFFFFF",
/* pixels */
"edddgfddderdeeewddedfdwweeewdd<>djhewpdddfddedpwewerddwwdgfppewe",
"dffddddddwffpeeyddewdrwwpddrddw<djgepddyeeeweddddeewdewefgfdddrd",
"dddrddeeeedfdpddddeedewweeeety<>phfedddeweewedfdddeedyeeffddddrd",
"eddwweddrwddddfdddwwdyewddueedw<ehfeedyeeededdddddedddaddddpreed",
"edeweddddwrddpddeeeeruudfddrddw,ehfedddwddeddddwdeedddpdwepdewed",
"dddeepddeeddewewweedeeudeeo+oooooo+eedddeddddddeywweeeweeeffeedd",
"eddeeeddtedfrweedddddeddo+ZZDDDDDZAo+ddewddddddeuwwwdpeerdffdddd",
"eededddddeddddddddddtddoZDDJKKKJJJDDAodeweeeeweedewdffryyrfdwedw",
"dddddydddeddddddddddddoZDJJJPPPPPJJJDZoweeewwewdddddfddedddddeee",
"ddddeeedpyedeeedddeeddoDJJJPPPPPPPPJJDowddddreeeddddddeerdedddee",
"ddddeweeeweeeedddpeeeoZDJJJPPPPPPPPPJDZodffdyeerfdeweeweddredeed",
"ffdeedtdeeeetdddreeeeoZDJJJPPPPPPPPPJJDoedeeeeedgdeeerdpdfdrddee",
"ffprtdddddeedptepeeeeoZDJJJJPPPPPPPPJJDowwwwwpdddderddffffddddee",
"ddreedrdtrteedeedee..oZDDJJJJPPPPPPJJJDowerrpdrddeeedeeereeeeyed",
"ereepeeewedderddde.O.oZDDJJJJJJJJJJJJJZodfffdddddeeeeewweeeeeeed",
"eweeddwwwdddeeedp.OX.olDDDJJJJDJJJJJJJZopdfdfddfewedddeerddddudd",
"edddddeeefgdwedf.OOX.olZDDDJJDDDJKJJJJZodddddddddddddfdpdfgddddd",
"edddddeedggfeed.X@.X.oiAZDDDDDZlDDJKJDioddddedddewdddddddggdddee",
"ddddddedddddew.XO$.XX olZZDDDZllPPJJDiooewedeeeeewdddddeffrwweee",
"dddeeewereeeee.O$$.XX.oilZJllloPDoooDD+eteeddepdewddedeeddwwweee",
"edeeewewwwere XO$.XXX.doilDJlioPx23KDPoedeedddddeeeyedeeddpddfdd",
"dddedpeddyddd O$$.XXXX.doillKJPPZ2cKDo+dfdddddddeeddeeeaedeedfdp",
"dddddddddfdd.X$$X.XXXX..eooiDlKPPc2Dol#dfeedddddeededdeddtwwwerr",
"ddreddetfddy.O$$.XXXXX.XXeeooo+DDDcDK+wddeedddddwedrpdddddeweryd",
"dtwrdaeedee.XO$$.XXXX.X%$$rrd#oDoPbJouaeeedyedddedeedddddddedffd",
"gdwedddeddr.XO$$.XXX.X%qq$$Owe<iDoiov.eedeeeedddwweedddwedeweddr",
"fddddddddde.XO$$.XXX.%qq@&00Ovvv$3cMOX.drewewedpweyddddeeeeeerdd",
"eeedaweetde.XO$$.XX.X%q$%00%$Mmv49#3NO.eeuddddfdweadddaeeddeeddd",
"deeadawwwae.X$$$X.X.&Oq$%00$M0Mm4HN#n%.ewwwwedddddddaaaddddedddd",
"eeaddwwwddd.X$%$X.X.q$O$OO$OqMm9c33S4%.weweeedfdeeeweweedewedddd",
",<www<<<ww<.X$%$X.X.q$%$q0&Mvv4c#HL#2$.wwwwwwwww<<<<<<<<8<<<<<<<",
"***>>>>>><>.X$%$OX..%O%$%0&.$M43332S#% *>>><>>>***>>>>>>>>>>>>>>",
"ewerw<werre.X$%$OX..$O%%@0%MMMv33LH43$.wwwwweueewewweeeddeeerewe",
"ghkhdrhzzkk.X$%%OX.X.O%0O@..MvM3933c3.ghjkkjkkjhjjhhjjkzkjjkkjjj",
"ghhhfgjkhgg X$$%@OX#.X$%0@X.Ov99cmcF.1+fkzkhhkjgghfghhhjhghjhggh",
"dwepdfffewr.OX$$$OX+5.X%q0OX.@v3cVBc.+s+ddeeeddeepeeddrereweeeed",
"rwpdeweewed.XO$$$OXooo.$&%%OO.N3nCV3.oogfww<ereeepddddeeeeewwwep",
"wwedewwddyp.XO$$OOOXX..XO%00%O.33v4n.osodw8eddeeepderdrtewerreee",
"wwdddpdffdew.O$$OOOOXX. X%q&&X.v3mb3.eoeewwrffdewdpreeddewrdddee",
"dfggdeddddddd.O$OO.....d.O%&&X.O93mMX.sodredgfdeefddddddddddfddr",
"dfddprrreeeed.X$O.eetddd..O%%O.XO3MvOX aataddfdeddddeddeeeddddwe",
"eeeeewweweedd.XOO.eeeydp.X....XXOOv$$O.wweeweddyddddeederreddeee",
"weeeeededdpffp.XO.ated,.O.O&%%OX$OO$$O.oyteeeudydeewerdeydeeeere",
"fffddddddeeddee.X.aa,6.O..X$%0qXX$OO$O.o,7ddddddewwwddddedddddde",
"fggdeprewwweywwy  e,,.O..XOO%%%X.X@OOO.so,,tdddddetdffdrddddeaew",
"dddeweddeerdf  ffe,..OO.O$$$@@X.s.X@@O oso,,ddddddffgdredddeweww",
"ddewwddddddggd.....OOXX.$$&OX..=#.XOOO.io,,,7yeewpddddteedeeewee",
"rdredfdewedddre..OOXX...O%%O..:-,.OOOOX..,,,7ewwwwreweeeeweeeddd",
"eddwadww<<weewder....,,.X%%%@.--,.OOOO$$@.,,6eweyffrtdddeeueeeyd",
"wddwudew<wddddddfd,:::,,.O%%%%.-,.XO@@%%O ,,ddddffpeddeddddeeeed",
"tddwefe<<dghfddftee::,,,,......-,8........,edpdfddeeddeeydeepddf",
"dddeade8efkhddddeeed,7777,,767>-,88,,,,,,,ddddrdeerdddepeedddfdd",
"deewdfewdghfeeredwerdf7,,,,,,,--,88,,7,,eedddddeedddddewddrdedee",
"drweddrddffdwrdedwetdddee,,,,,--,8,,,ddeeuddddeerpeedddedeeeewew",
"dddedfdddfdewddddedddddyeeepdfw>whgtydeedddeueeedewwddteeeweepdd",
"dfdddddpppeeeddddrpdeedddeeddf<*ejhteueeuepueaeedywddpeedderdfdd",
"edtewddeeeweedfdyeepwwwerwpdfd<>tkhrreeepddreeeedeedgfdededddddd",
"dddedddpeeddrddrreweweedwwdffd<>ejhdydddddeweeyddeddfddyddeddddd",
"gfddtrdddddddddwwwweeedwwwddde<>wjgeedrdfewwdddddddprededddddddd",
"fddeeeeddddddddwwedeedderffdre<>ejgeweeyfdwtdddddddeeeeeddeeedwe",
"dreeewdddddyerewwdfdrdfpdfhddu<>ejhadedddeedddededpedddeeeeeewee",
"deeeeedddedddddeedfpepfddfgdddw>ejheeduddeedddededeeeddeeeddeeee",
"pdeddddddddddddedddrerfdeeddue<>ejheedyddewdddeddeeweedwdddfdedd",
"ddreeddddduyeedepyddddfdwedrew<-ejgeeepereeeeeedteedpeddtrdddedd"
};
