/* XPM */
static char *er31680107292[] = {
/* columns rows colors chars-per-pixel */
"64 64 74 1 ",
"  c #05050F",
". c #050511",
"X c #0A0E1A",
"o c #1D131E",
"O c #28191E",
"+ c #0E1621",
"@ c #1D1220",
"# c #131F2B",
"$ c #261920",
"% c #281920",
"& c #14202C",
"* c #1B2C36",
"= c #1B2B38",
"- c #2E2E2E",
"; c #302826",
": c #352D2B",
"> c #38302E",
", c #333333",
"< c #3D3533",
"1 c #373936",
"2 c #3F3A37",
"3 c #3C3C3C",
"4 c #421E06",
"5 c #4F1716",
"6 c #501817",
"7 c #501819",
"8 c #63351D",
"9 c #403635",
"0 c #413936",
"q c #443C3A",
"w c #6B5C3F",
"e c #154257",
"r c #154259",
"t c #18425A",
"y c #454545",
"u c #484846",
"i c #4D4D4D",
"p c #504E4F",
"a c #4E504F",
"s c #50504E",
"d c #484F57",
"f c #4D4A5D",
"g c #514F50",
"h c #4D5152",
"j c #495058",
"k c #525252",
"l c #585856",
"z c #565658",
"x c #5A5A5A",
"c c #615F62",
"v c #636464",
"b c #6A6A6A",
"n c #726B7D",
"m c gray44",
"M c #9F2927",
"N c #9F2929",
"B c #9D3F3F",
"V c #A02829",
"C c #9C413E",
"Z c #9E4040",
"A c #AC7676",
"S c #CF755D",
"D c #F78D73",
"F c #B19997",
"G c #B19999",
"H c #B3ADAA",
"J c #C4B59E",
"K c #FCAA95",
"L c #C4B5A0",
"P c #D1C9C7",
"I c #E5E6C7",
"U c #E6E6C8",
"Y c #ECE4E5",
"T c #FFFFFF",
/* pixels */
"ikkklzkkkikkdipuiliikkuuipiyss3,kvciikkkkkkiikduiiupkkuudxxkkiiu",
"kllkkkkkiiklpiiipliikpy3idkikly2zbxiikkkiiiiikkkpiuikiiulxkgkkii",
"slkdikpiiiklkikkkkiikiuyiipupp31kvlikkkiuiiiiklkksiiksisllkkkkkk",
"ikpuiikhiiikklklipiuksiikkpidk31icziikaiiiiigkkkkkipkkpspkkkpiik",
"ikiuiikkiiikipkkuiupkiiklkkkkky1ivxikkkikkgkklsikpidksppiigkiiii",
"pkkiikkkiikkiuiiiiidiikkiikkkky-uvliikkiigkhkkpiiiuupiuiiikliikk",
"ikkiiikkiikliiiikklkhpkksikkkky1ylkikkkiuikiispiiiyukgipiglzsskd",
"ipsgkkkkzikkapkikkkkiklkkkooo@ooo@@ikkkiuihiuiipiiuillgddglkipsu",
"kkkkkkkkgiakkkkkkkgpkkkkooFFJJJJJGFoogiuupiiuiupkiilllpiskkikiii",
"kkkkiiikkiiiiiiklkpikkloFJJIIIIIIIJJG@iudkkpdiiikksikspiskkpkkis",
"klkiiiiiiiiiiikkssiiiioGJIIITTTTTIIIJFopkllgkiiixkiiiiupskpissik",
"lkkiiiikiiiipkkkpdiiiaoJIIITTTTTTTTIIJoiipiiiiiklkiiiidsllkpkdii",
"xzkdsskkkkiikapipiiihoFJIIITTTTTTTTTIJFoyuuyuikkzkiikllklkkskspp",
"kkppipskgapiikaikiiskoFJIIITTTTTTTTTIIJoyipgggkkkiiispiikkiippik",
"iiupppiuiikkiikksiiiloFJIIIITTTTTTTTIIJodllkzkkkiiiiiiyyiiiiiiik",
"iuipdiiuuikkiiikhii  oFJJIIIITTTTTTIIIJosllkkzkkiiikksppdkkkkiil",
"islkksiiplxkiuklkk.+.oFJJIIIIUIIUIIIIUFokkkkkkkkdplkklkkkxlkkkkk",
"akkkkhiiklxkiikkz.+X.$nJJJIIIIJIIIIIIIFokkkkikkkpukkkkkhlxzkkkii",
"kkkkkiiglkkkiiip.++X.onFJJJIIJJJIIUIIIGoiiikiiiiiuskkkikkkguuiii",
"skkpiiiidiiiiii X&.X.ofFFJJJJLGnJJIIIJfoiiikkiskuisppkiikkiyyiii",
"pppiiiuiiuiigg.X+&.XX.onGGJJJGnnTTIIJfookiikkpkkiispikiikkiiklkk",
"kksskiiigpikkg.+&&.XX.@fnFInnnoTJoooJJokkkkkkgkkiissipiiikiikkkk",
"klskkkikzlkkk.X+&.XXX.kofnLInfoTV65IJT@kliiklkkkiidpskigkguyuidp",
"ksdikkigzkkgk.+&&.XXXX.kofnnIITTG6NIJ@okkiikkkkkuippkkhlkkiuippk",
"kdupggiihgig.X&&X.XXXX.lioofLnUTTN5Jonoaiigggkkkiiiilkkikkkiklzk",
"lkuikkkikkii.+&#.XXXX...Xikoo@oJLJMJIoiipiiipdkkyiiiikpiihiuikki",
"lkpsggggkki.X+&&.XXX.X*&&&kki@oJoTNIoiikpiiiuipiuikkkkkiipiiiskk",
"giisiiiddss.X+&#.XX.X*rr&&&XkkyfJofoB.uiipdgpllkuikkkksiikkiikkk",
"kiigkduuupi X+&&.XX.&ee&*rr&&CBB&6VA+X.iyyyupkzkidssgdppkkspkkkk",
"iiigsiuysld.X+&&.X.X*r&*rrr&*ABB6w%6A&.yiuiuikzkiiiiuiippiidkkkk",
"13yyq113yyq.X###X..t+*&*e*&rArAB6PA%V&.3yyyyyyy331231333q3133333",
"---111,,11,.X#=#X..te+&+&&+=rABwM67H6=.-,,11,11-,--,,,,,1,-,1,,,",
"uiiiu3ugaai.X&*&X. *r&+=rrXABC6NOPY%7*.uuyyuidiiuiuuikikkiiikiii",
"xvbbkkxbmbb.X&*&+X *&*&*eeX+#A55755HO& cbbbvbbbxvbccvvbmbbvbbvvv",
"xcvxxxbbvxx.X&*&X+.*&*+*e=.AAAB55YP65X.lbbbvvbbcvxllvvvbvxvvvxvv",
"kiikkzlkuii.X&**XX.+&e&++X.+ACA7w55NX.i4444oiksiipiikkiiiiiiiuik",
"iuikiuuiuik.X&&*&+.&tr&X..X+&ZwwNBNK.O4888odoiiiikkkkkiiiiiiuuid",
"yyikiyiphhp.X+&&&+.&*t&..X+#&&Z7NSSN.88Oooookliiiikiikikuuiiiiui",
"uikklpklkkp.X+&&&+.***t..X+#*&A6NDS5 OOuiuojokkiikkiikikiupkkpii",
"dkxxsdkkskk.X+&&++.***==.XX#*&++5B5N.siskss@xxkiikkkkkkkkgkkllkg",
"klzkkdppuiii.+&&++ +r**&.X+#=*r+++N7.kkpiiojolkikkkipkkiiikkkpii",
"uiiuuuiiiiiil.+&++.+***X.X+++*rr***X kiiiojoikkikkkiissipdikkiii",
"iiiiiipikkkkk.+&+.k.+*&X..X#*++rrr**.iiigoooipspkiiuiipppskiiiii",
"kllkkkspkaikk.X++.kk....+X.X&**++rr*X.>oojjdookdiiyikkkkiskkkkii",
"kxlkippiyyyipu.X+.ii<<.+XXX.XXXX#rrr+.9odjojjokkiiikllkdikkiiiii",
"kkkuuipkiiikkii X i>< ++XX....+&&#**X.odjjjjjjokkkzllkkiklkiiuuy",
"kkiiikkkgkkxxksl..<2.++XXX...X&#&&+X.odojjjjd@joiikkgiiipppiiuiu",
"kkiiklkiipkk..upd<..++XX.....+**X...2<ojjojojjouyiiiiuiiiiiiidkk",
"ikpipkiy31yii.....++XX..<<.X.==*X.q09<<odddddoiiiklkiskkiisppisk",
"udpuiki33ykkkh..++XX..<<<..X.+=*&X.<<<<oododookzklsdkkikkkdiuipk",
"ikkupli1ygcvkkkl... :<<<<.XXXX=rr*X.<<<2<odokdkklsipkliikkiiiklk",
"kkiidki2ilbckgkli<<<2902<.XXX.X+**X.<<<<<<O9lskgiipkkiiiiikkklkk",
"kiiudkiikxvliidigi<<909<<<..........99<<><9klssiikkgkdiikkiikiii",
"kpiislksklziiisppii<<<9<<<><<2::<q0<<9<><<kkssiipiiisksikiiiiiiu",
"klkiklkpklkiislskikkk92<<<<<<0>;>qq<<<9>kkkppiiisiuukkpiaiiiikig",
"kkkkkkkpigiiikkssikkiipsg<>2<2:;<qq<<iiipipiiippkkiikpipkpiikzkk",
"ikiiikkiiiiuiklkdiiiuyuiiugklk3,sbvkiiiigkkiiiidkiikxliikkkkkkkk",
"kkkpikkpiikkdklpiuiuuupiyukklk3,ibvaskkkkkiiiiikkiillkkkkiiakkkk",
"xlkkiaskkkkkkkpuuuiiudpiyulkkd3,ivxiikhkziuiikkkkkspkdkikkkkkkkp",
"lkkiiiikkkkkgkiuuiiiggkidkxspp3,uvciiiipkiuhkkkkkksiipiikkikiiii",
"kdipiupkkkkkiiiiiskkkklkllxkki3,ibviiiikkiikkkikpkkikkkiiipdiiui",
"kiiippslkkikkkiipklkikzkplxlkky,ivvkikkkkiikkkikisiiikkiipskiiii",
"ksppdskkkkkkkkkisksdiikkiglgii3,ibxiiiskgiikkkikkiiiiiiisskkkkik",
"kssiikkkkkikiigipplkkkkgiigiii1,ivviiikiiiuiiiikiiiispikkskkkikk"
};
