/* XPM */
static char *er41680107292[] = {
/* columns rows colors chars-per-pixel */
"64 64 80 1 ",
"  c #05050F",
". c #050511",
"X c #070D19",
"o c #0A0E1A",
"O c #1D131E",
"+ c #25181F",
"@ c #0E1621",
"# c #1D1220",
"$ c #141F2B",
"% c #281920",
"& c #14202C",
"* c #1B2C36",
"= c #1B2B38",
"- c #2E2E2E",
"; c #342C2A",
": c #39312F",
"> c #2E2E30",
", c #333333",
"< c #3D3533",
"1 c #3D3835",
"2 c #383639",
"3 c #3C3C3C",
"4 c #421E06",
"5 c #4E1915",
"6 c #501817",
"7 c #521719",
"8 c #511918",
"9 c #63351D",
"0 c #403635",
"q c #413836",
"w c #433B39",
"e c #6B5C3F",
"r c #154257",
"t c #154259",
"y c #454545",
"u c #494748",
"i c #4D4D4D",
"p c #504E4F",
"a c #4E504F",
"s c #51524F",
"d c #4E4E50",
"f c #4D4B5D",
"g c #514F50",
"h c #4D5154",
"j c #495058",
"k c #525252",
"l c #5A5A5B",
"z c #6B5C41",
"x c #605E5F",
"c c #636363",
"v c #686667",
"b c #666867",
"n c #6A6A6A",
"m c #726B7D",
"M c gray44",
"N c #9F2927",
"B c #9F2929",
"V c #9D3F3F",
"C c #A02829",
"Z c #9E403E",
"A c #9D3F40",
"S c #9E4040",
"D c #AC7676",
"F c #AC7578",
"G c #CF755D",
"H c #F78D73",
"J c #736B80",
"K c #B19997",
"L c #B19999",
"P c #B4ACAA",
"I c #C4B59E",
"U c #FCAA94",
"Y c #C4B5A0",
"T c #CFC7C5",
"R c #D0C8C6",
"E c #D0C7C8",
"W c #E5E6C7",
"Q c #E6E6C9",
"! c #ECE3E4",
"~ c #FFFFFF",
/* pixels */
"ikkklkkkkikkiiaukksalkyyuiiykk3,kbliidkklkhaassuiuukksuukllkkiui",
"klkkkkkkiiklkuaikkiukiyyakkakky3kbxikkkkiiiuiskpiiuihiuullkkkpia",
"hlkkakpiiiklkikkkkiukiyyiiiiasy,kcldikkiuuiuiklkkaiikkikllkkkkkk",
"ikiuuikkauikkklkisiukiiikkpiss3,ickiskkiiikikkkkkkaakkikassaiiik",
"isiuukkkiuiksikkuiuipsiklkkkkky2iclidkkiskkdkkkukaiakkiiuiskiuii",
"sksiukkkiikkiuuiiikhiipkiuakkky,ulliikkiikskkksiiuyuaiiuupkkiakk",
"ikkihpskaikliuiikkkkkikksikOOOOOOOOOkkkiuikhskaaiuyukkiiakllskkk",
"ipikkskkkakkkhkkkkkkikklkOOKLIIIIIKLO#kiyisiuuiikiualkakkkkkiihu",
"kkkkkpkkspkkkkkkkkkikkkkOKIIWWWWQWWIIKOuuiiuuiiakikklksiskkikiii",
"kkkkiiiksiiaiiikkkkikkkOKIWWW~~~~~WWWIK#ikkhiiuikkkkkkiiikkakkig",
"kkkkiuiiiuiiiikkkiiiiisOIQWW~~~~~~~~WQIOkllkkiiilkiiiuuikkiikdik",
"klkaiiskiiiiskkkkiiiik#KIWWQ~~~~~~~~~WILOaauiiaklkiuisshklkkksii",
"lkkksskkkkiidkpipiiikkOKIWWW~~~~~~~~~WQI#uuyuikkkkiikklllkkpkkis",
"kkiiiapkkipiikiikiiakkOKIWWWQ~~~~~~~~WWIOiiaakkkkiiaakiupsiiiiik",
"iiiiiaiuuikkiakkkiii..OKIIWWWW~~~~~~WWWIOllkkkkkiiuiiuyyiiiipiik",
"uiukhaiuuikkiiikkii.@.OKIIWWWWWWWWWWWWWKOkkllkkkiiikkkiikkkkshgk",
"ikkkkkiiullkuiklkk.@o.OmIIIWWWQIWWWWWWWKOklkkkkkkikkklkskllpskkk",
"akkkkkiisllkiikkl.@@o.OJKIYIWWIIIWWWWWWKOikkiakkiikkkkhskllkgkii",
"kkkkkaikklksiiia X&.X.OfKKIIIIILmIIWWWIf#iikiiiiuukkkkkilkpyuuii",
"kkkiiiuiaiiiiui X@&.XX.+mKKIIILmm~~WWIfO#uikspkkiuakikiikkiyuiii",
"ikiiiiuuuiuaaak.@&&.oo.OfmKWmmmO~IOOOIIOkiikkkkkiisiikiiakaikkkk",
"kkkikiiiaiakak.o@&.Xoo lOfmYQmfO~N66WI~Olkkkkkkkiiksipikkkiiklkk",
"kkkkkkhsklkkka.@&&.oooX.iOfmmQW~~K6BWIOOliikkkkkiihikkikkiuyuiih",
"kkpiskaklkkkk o&&o.XooX.uu#OfImW~~B6IOmOsiikkkkkuisaikkkkkiuussk",
"ksuiaaiikiiik.@&&.oooo...oskOOOOIIIBIW#iiiskikkkiiiikkkakkaikllk",
"lkuikksikkii.o@&&.ooo.o*&&$iuiOOI#~BQ#iisiiiikkkyuiikkkuiaiuukki",
"lkhskkaakkii.X@&&.oo.o*tt&&&Xky-fIOf#A.kaiiuuikkuikkkkkiiapiikkk",
"iiipiiiipkai.o@&&.oo.&tt&tt**$VVV$6NF@o.iishkkkkuiskkksiikkiiakk",
"kiisksuuuiiu.o@&&.o.o&t&*ttt@*DVA6z%6D@.yyyuikksihkshiskkkkskkkk",
"iiikkuuykkkk.o&&&o..@@@&***@tDtDV8TD%B*.uuiiiklkiiiiuuiiiiuikkkk",
"23yyy323yy33.o&=&o.ott&@@&&trtDVeB66P6*.yyyyyyyy3333333333333333",
"---,,,,,23,-.o&=&o.o*&t&ttotDZV8B+E!%6*.,,,3,,,-,---,,,,3,,,,,,,",
"uuiiy3yhiiii.o$*&@.&&*&tttX&*tD66666P%$.uyyuuaiiuiuyiiikkiiiaiui",
"lbnblsxnMnnn.o&*&@.&&t&=*.@@DFDV66!T66o.nnnbnnbxbbcxbvnMnnnnnbbn",
"lxcxllcncllx.o&**@.&tt@$X.@&@DVD6z66C...nnnbbnblclllxbcbcxcccxlc",
"kiiakklluuik.o&&*&.ott@...X$*$AzzCVBU.o..kuui44Oiiiikkpiiiuuiuuk",
"iuikiuuiuikl.o@&&&.o*t@.k.o$==&A8BGGC.ooX.4449OjOkkkkkiiauiuuuia",
"yyakiyukhsii.o@&&&.@**$.is.@&=&F6BHG8.oo@.999Oa+upaikkaiuuiiaiui",
"uualkiklkkiu.X@&&@.****$ l.o&=&=@6V5C.oo@.OOOkOjOkkiiikkiiakkkii",
"akllkikkkkkkk.@&&@.@t**$ ..o@&&>@@88..Xo@.akllkOiklkkkkkhakklkka",
"kklkaiaaiiiasi.@&@.@***X...o@@&&tt*@X.Xoo.gkklOjOkkaiksiiiskkgii",
"iiiuuuuiuiuaki.@&@..@*&X.@o..@@&rtr$@....uiuiOhOklkaigsiaapkkiiu",
"uiiiiiaikhkklk.o@@.s. ...@o.o.$t@*rt$.<<<giiiOOOkiuuukkaissiiiii",
"kllkskkakaikkiu.o@.kk<w.@oo.o.o$t@@*r <<111#OjjjOOuukkkkikkkkkki",
"kllkiaaiuuyapuyp.X.i<<.@@o.ooo.o&t**t.<<<<<OjjOjjOiklkkiilkaihiu",
"kkkiuiskuuikkiill..<< @@oo.oooo.X&**@.<0<<Ojjjjjjj#llkkiskkiuuuy",
"kkiuukkkkkkll..kkk0 .@@Xo.oo@@o..&&*@.<<0OfOjjjjjOj#ksiiasauuiiu",
"hkauklkiiikkkk... .@@oX...X@@@...@&*&@...<OjjOjOjhOauiiiiuiiaakk",
"iksiskiy33yidui. @@XX. 1.X@@@X...@*=**** <<OjjjjjOlipskkipipiikk",
"ussyski33ykkkskkl ...:<<.@@@@ooo.$*****@.:<O#dOj#Okikkpakkkiiuak",
"ikkyaku3yslxkkklki<:::<<.X@@@XXX.=****@.1<<<2OjOkkiikkiipsiikkkl",
"kkkuhki3ulnckgkkiii<0ww00 ..... .$=*@. <<<<1kkOkiidkkhiiiakkkkkk",
"kiuukkiuklxliikisuih1ww1<<<<<<;;<... 10<<<1kkkgiikkkkkuisphkiaii",
"shuiklkakllsuakikuuask<<<<:<<<;;:ww<10<<<ikkksiiikiukkkiksiuuiiu",
"kkkskkkkkkkiuakkkpkkkksaii<<<w;;<ww<<1kukkggsiiikiyukkiisiuiikka",
"klkpkkkksshiukkkgikkiiaakiikkly-ivxiiiiiiikiipiikkiikdigkiikkkkk",
"ikiiukkiiuuiuklkiiiiuyuiiukkkky,gnckiiiikksiuiiikiikllkikkpkkkkk",
"kkkphkkiiiikkkkiiiiuyiiiyykklk3,ivckgkkkkaiiiaskkikkkkkkkpikkkkk",
"llkksikkkkkkkkkiuuiuiiaiyukkki3,ucliikkkkiuuakkkkakikkiikkkkkakk",
"kkspiikkkklkahiuuuakihkikklkii3,ibliiiiiliupkkkkkkkiiiiikkiaiiii",
"kiiiiuikkkkkisiuikkkakkskllkkiy,ibciiidkkpikkkikkkkikkkiiiiiiuiu",
"kaipiikkkikkkskiikkkiklkkllkkk3,inciikkksiiklkiaiiiipkkiiikkiiik",
"kaaskkkkkkikkksipkkaukkkiplhki3,ivciikikhiiskipkspiuiiiukkkkkkak",
"kkgiikkkkkkiiikiskkkkklkuisiuy3,ibliiiikkuuiiiispiihaakkikkkkikk"
};
