/* XPM */
static char *er51680107292[] = {
/* columns rows colors chars-per-pixel */
"64 64 74 1 ",
"  c #05050F",
". c #050511",
"X c #0A0E1A",
"o c #1D131E",
"O c #27181D",
"+ c #0E1621",
"@ c #1D1220",
"# c #131F2B",
"$ c #281920",
"% c #14202C",
"& c #1B2C36",
"* c #1B2B38",
"= c #2F2F2F",
"- c #312927",
"; c #352D2B",
": c #39302F",
"> c #382F30",
", c #333333",
"< c #3D3533",
"1 c #3D3835",
"2 c #373739",
"3 c #3C3C3C",
"4 c #421E06",
"5 c #4F1716",
"6 c #501817",
"7 c #511919",
"8 c #63351C",
"9 c #403635",
"0 c #413937",
"q c #443C3A",
"w c #6B5C3F",
"e c #154259",
"r c #454545",
"t c #464648",
"y c #4D4D4D",
"u c #504E4F",
"i c #50514E",
"p c #4D4E51",
"a c #4D4A5D",
"s c #514F50",
"d c #4D5152",
"f c #495058",
"g c #525252",
"h c #585657",
"j c #595957",
"k c #575759",
"l c #595758",
"z c #5A5A5A",
"x c #636363",
"c c #666867",
"v c #676769",
"b c #6A6A6A",
"n c #726B7D",
"m c gray44",
"M c #9F2927",
"N c #9F2929",
"B c #9D3F3F",
"V c #A0292A",
"C c #9B403F",
"Z c #AC7676",
"A c #CF755D",
"S c #F78D73",
"D c #736B80",
"F c #B19997",
"G c #B29A98",
"H c #B4ACAA",
"J c #C4B59E",
"K c #FCAA95",
"L c #C4B5A0",
"P c #D0C8C6",
"I c #E5E6C7",
"U c #E6E7C8",
"Y c #ECE3E4",
"T c #FFFFFF",
/* pixels */
"ygggllgggyggiyyyggiyggtyyyytgg3,gczyysgggggyigiyyyryggrryzlgiyyy",
"gllgggggyygldyyyggyyggr3yygyggr3gcxyygggtyyyyggdyytygyyygzhggdyy",
"gggiyygyyygzggggggytgyrryyyydu3,gxlygggyyyyyyggggiyygiyplzgggggg",
"ygitygygytigggggyyyyguyygguysdr3yxlyugdyyyyygghggguiggugggggyyyg",
"ygytyiggytygiiggtyyysypsjgggggr,yxlyggiyggggggiygsyyggyyyyggyyyy",
"ggiyysggyyggytyyyyyiyysdyyugggr=rxzyyggyyyygggyyyyrrgyyytighiydi",
"yggyyygggygkyyyyggggsgsgy@ooooOooogygggyyygugguyyyrygdyyyglluggg",
"yydggggggygggygyggggpihooFFJJJJJFFooghgyryiytyyyyyryhhiiidggyyyy",
"gggggggggiggggsggggiggoFJJIIIIIIIJJFogytyyyyyytygygglgyygggygyyy",
"ggggyyyiiyyyyyyggiiyp$FJIIITTTTTIIIJFoytyggyiyyygguiggyyygggggyi",
"hggyyyyyyyyyyyggguyyyoJIIITTTTTTTTIIJogsglggdyyizgyyyyyygggygiyg",
"lggyyyugyyyydggggyyyoFJIIITTTTTTTTTILFoyigyyyyyglgyyydggjggygpyy",
"zhgiggggggyyiguyyyyyoFJIIITTTTTTTTTIIJ@rrrtryygghgyigghglggdggyg",
"ggyyyydggyiyyguygyysoFJIIIITTTTTTTTIIJorryyiiigggyyygyyyggyyyyyg",
"yyyyyyyyyyggyyggss..oFJJIIIITTTTTTIIIJoydllhggggyyyyyyrryyyyyyyg",
"tyydgyyrryggyyygs.+.oFJJIIIIIIIIIIIIIFoyggkggkggyyyiggiyyggggiug",
"yiggggyyyhzgytdj.+X onJJJIIIIJIIIIIIIFoygghgggggpyggglgdgzlggggg",
"igggggyygjzgyid.++X onFJJJIIJJLIIIIIIFoyidggygggyyggggiggzjgdgyy",
"gggggyygghhiyy.X%.X oaFFJJJJLFnJJIIIJaoyyyygyyyytyggggyuglgrryyy",
"gggyyyyyyyyyy X+%.XX.onFFJJJFDnTTUIJa@oyyyyggyggytdgggyyggyrryyy",
"yiyyyytyytyyg.+%%.XX.oanFInnnoTJoooJJorygyygggggyyiyygyyiggygjgg",
"gggugyyyiiid.X+%.XXX.doanJInaoTM66IJToygggggggggyyguiyygggyygjgs",
"ggggggyglhgg.+%%.XXXX.goannIITTF6NILooyggyigggggyyiupiyggyrryyyg",
"ggyyggygjgg.X%%X.XXXX.ggooaJnITTN6Jonoyhgyygggggtyiiggggggtrygyg",
"ggyyyiyydiy.+%%.XXXX...XirOoooJJLNJIoygdiyygigggyyyygggyggyyglhg",
"zgrygggygg.X+%%.XX..X+%%%ygyooLOTNIogiuyiyyyyiggryyyggsyygyyyggy",
"lgyggggygg.X+%%.X.X%*ee%%#XdygaLoaoC yygyyityygyrygggggyyyyyydgg",
"gyyyyyyyss.XX%%.X.%*e%%&e*%#BBB#5NZ+X.ryyiiiygkgyyggggiyyggyyggg",
"gyyiggyryy.X+#%..X%e%&*ee&+eZBB7wO6Z+.tyrrrtyglgyyggyygggiiggggg",
"yyygiyrrgg.X##%X.&++%&ee&+eZeZB6PZ$N&.rrttiyyhlgyyyytyyyyyyygggg",
"23rr3233rr.X%*%.&e+%++%%%eeeZBwV66H6& 2rrrrr3tr33323333rr3333333",
"===,3,,,22.X#*%.e+&%eee+&*ZBB6VOPY$5* ==,,22,3,====,,=,,,=,,,,,,",
"ytyyr3rgdy.X%&.Xe+&%eeeX+%&eZ66676HOX.ttrrrtyyiyyyrtyuyggyyyuyty",
"zxbcjgzbmb.X%*.%#*%%&e.XX%ZZZC66YP66XX xcbbccbczxczxcbbmbbcbbccc",
"zzxxlzbbxz.X%&.%+e++.. .+%%ZBZ6w66V6XXX .mbxc44oxzzlzxccxxzxxzxx",
"gyydglzgyy.X%%.X&e+%.yg.X%&%CwwVCVK.X%%+%.4448oaodyigguyyyyyytyu",
"yyyiyytyty X+%.+&&+.ryy.X%&&%B7VAAV.X%X%%.888oioyisiggyyytyyttyu",
"rrygyrtiyu X+%.*&&&% yyg +%&%Z7VSA6 XX++%.ooogofogggggpyttyyuyyy",
"ttgggiglhg.X+%.+e&&%.gj..+%&%%+7C6...X+++.rijhdoygiyyyggyygggiyy",
"ihzzgyggigg.+%.+&&&X. j..X%#%%%+66.8o.+++.yglzofogggggggiiggjgiu",
"gjgggyyiyyyy.+%.+&%X.  +.X+%%+ew&+X.gh. .yuggkgopggyigdyuyggggyy",
"yyyyytyyyyrs.+%+....y1.X XXX+%+ee&+.1<<ytytyyiofolgyyygyiuyggyyy",
"tyyyyyyygggg.X++.gg<0.+.XX++X&%+ee&X.<:<<iyyyioo@iyryyiiygiyyyyy",
"gjjggggigyygg.X+.1<9.++.X+++.X&%+#&X.<<<19ggoofffooydgggygggggyy",
"glliyyyyrrryir.X <1.++X.++++X.X*&*&+.<<<<<<yoffoffoghhiiiggiyyyt",
"gggyyyugyyy..iy... ++X.++X+X...X%&&#.<<<<<<oaffffffojhiygggyyttr",
"ggyyyggggggz.....++XX.X+++X.1<..X%&&.<<<<1ofofffffofoiyyguyytyyy",
"ggyydlgyyyggg..++XX ..++++X..1;.X%&&X.<<<<9offofoffotyytyyyyuigi",
"yggydgyr33rypyy....<<.+++++XX.;.#&&&#X.1<<<iofffffoiigggyigyyyyg",
"tiitggy33rgjgyg909<:>:..+XXXX.:.&&&&&&&.<:<y@ofofooyggydggiyyygg",
"yhgtygy3ryxzhggh:<<<:<<<......<.#&&&&&%.<<yyggof@gyiggyyugyygggg",
"ggitigy3yhcxggggyy<1900191<111:-...... <<yggggsoyyyggyyyyygggghg",
"iyrtggytgzxgyygygyyy1001<<<<:<;-<qq<191yypggggiyygggggyyggyyyyyy",
"giyygggihllgtygypytyuggy<<<<<<:-<q0<ggsypyggggyyyiytigsygyyyyyyy",
"gkggglggghgyyggggygggggiyyyighr,yxzyggyygggugyyygytygguyiyyyyiyd",
"gggiggggiiyytggggyggyyyygyyggl3,tcxpyyyyyyiyyyyygyyygsyygyyughgg",
"yguyyugyytytygkgyyyyrryyyyggkgr,ubxuuyyygggyyyyygyygzhgyggyggggg",
"gggyygggyiigiggyyyyyryyyrrgkgg3,ycxuiigggiyyyyiggygglggggpyggggg",
"zlggiyggdggggggyrtyyyyyyrtgggi3,yxxyygggguryyggggggydiyygggggggg",
"hggpyyygggkgigytryyyyggyyglgyy3,tczyyyyuhytdgggggggyyyyyggyiyyyy",
"gyyyyyygggggyyiyygggdghggzzggy3,ybxyyyyggyygggygugiygggiyyyyyyyy",
"giyyyyiggpigggyyygjgyihgghzhggr,ycxgyggggyygggygygyyyggyyyggyyyy",
"ggiyggggggiggggyiggiyiggyihgpyq=yczyyyigyyygggyggyyyyyyyggglgyyg",
"ggydyggggguuydyydigggghgtyidyt3,ycxyyygyyyyyyyygyyyypyggyigggygg"
};
