/* XPM */
static char *er61680107293[] = {
/* columns rows colors chars-per-pixel */
"64 64 77 1 ",
"  c #05050F",
". c #050511",
"X c #070D19",
"o c #0A0E1A",
"O c #0D161F",
"+ c #1D131E",
"@ c #0E1621",
"# c #1E1220",
"$ c #141F2C",
"% c #281920",
"& c #14202C",
"* c #1B2C36",
"= c #1C2B38",
"- c #2F2F2F",
"; c #302826",
": c #362E2C",
"> c #38302D",
", c #343434",
"< c #3D3533",
"1 c #3D3835",
"2 c #3C3C3C",
"3 c #421E06",
"4 c #4F1716",
"5 c #4F1917",
"6 c #501817",
"7 c #521719",
"8 c #511918",
"9 c #63351D",
"0 c #403836",
"q c #443C3A",
"w c #6B5C3F",
"e c #154257",
"r c #154259",
"t c #454545",
"y c #464845",
"u c #494947",
"i c #494749",
"p c #4D4D4D",
"a c #504E4F",
"s c #4F514F",
"d c #51504E",
"f c #4C4F54",
"g c #4D4B5D",
"h c #514F50",
"j c #4F5150",
"k c #495058",
"l c #525252",
"z c #565658",
"x c #595758",
"c c #5A5A5A",
"v c #6B5B41",
"b c #636363",
"n c #686667",
"m c #6A6A6A",
"M c #726B7D",
"N c gray44",
"B c #9E2826",
"V c #9F2929",
"C c #9D3F3F",
"Z c #A02829",
"A c #9B403F",
"S c #9D3F40",
"D c #AC7676",
"F c #CF755D",
"G c #D0765E",
"H c #F78D73",
"J c #B19997",
"K c #B29A99",
"L c #B4ACAA",
"P c #C4B59E",
"I c #FCAA95",
"U c #C4B5A0",
"Y c #D0C8C6",
"T c #E5E6C7",
"R c #E6E6C8",
"E c #EAE4E4",
"W c #FFFFFF",
/* pixels */
"plllxxlllpslsppplljplliipppijj2-lncspjlllllpplspppiplliiscxdjppi",
"lxxlllljppzxppppllppllt2psjpxlt2xncsjjllpppppjllppipdppilczlllps",
"lzlsplpppplxlsllllpilpitppppjpt1jbxplllpipppplxlljipldpfxclllljl",
"plpippllppplllxlpppplpppllspppt,pbzpfljpppppllllllssllalllljsppl",
"plpippllppplfpllippppasdxlllllt,pbcpdllpjlllllsplpppllppppjlpppp",
"sllppjllppllpupppppslpslppjlllt,ibxppllppsljllsppptisppppslzpslh",
"pllpppllpplxppppllllplllppllllt,txlalllpiplpllpppptillppppxxhllj",
"pplsllllzplldplallllplxl++++#+++#clplllpipppipppjpiplxjjjlllpppp",
"llllldllsplllfdllllpll++JJPPPPPJK++lllpiippipipplpllxlpplllalppp",
"llllpppddsppppalllapl+JPPTTTTTTTPPK#lapppllsdppplljpllpppljlllpp",
"xllppppappppapllldpp+JPTRTWWWWWTTTPJ#llplxzlspppclpppppplllplppl",
"xllpppflppppplllappp+PTTTWWWWWWWWTTP+llspsppppplclpppsldlxlpllpp",
"czlslpllllppdlspaap+JPRTTWWWWWWWWWTPJ+ittiitiplzllplllzzxllllppl",
"llpppjlllplpplhplpp+JPTTRWWWWWWWWWTTP+iitpssjsdllppplpppljppplpl",
"pppppppiupddfpljlpp+JPRTTTWWWWWWWWTTP+spsxxzllllpppppptipppppppl",
"pppssspiipllappla..+JUPTTTTWWWWWWTTTP+lpslxlzllzppppllpppllllpll",
"ppllllpppxclppjz.@.+JPPTTTTTTTTTTTTTJ+lplllllllllplllxlllxxlllll",
"plllllpplxclppl.@o.#MPPPTTTTURTTTTTTJ+lpllllplllpplllldllcxdllsp",
"lllllppllzllpi.@@o.+MJPPPTTPUPRTTTTTJ+puppplppppiillllfpzzsttppp",
"lllpppppppppp.X&.X.#gJJPPPPPJMUUTTTPg+ippppllpllppslldppllptippp",
"pdppppuppipp.o@&.oo.+MKKPPPKMMWWTTPg++pplpplllllpppsplppjlsplxll",
"lllplpppllpl.@&$.oo.+gMJTMMM+WU+++UP+dpsllllllllppllppplljpplllj",
"llllllplxll.o@&.ooo.i+gMPTMg+WV55TPW+dplxpplllllppspllpllpitppsj",
"lldpldafzll.@$&.ooXX t+gMMTTWWJ6VTP++ppllppllllliijjllhllliippsl",
"llppjjpfal X&&o.oooo.dx++gPMTWWV5P+M+pddfpplslllpppplllpllpplxxl",
"cliplljpll @&&.ooo....Olu++++UPPVPT+llppjppppslltppplllpphpiplls",
"xlpjlljjl.X@&&.oo.o&&&@@ulx+#P+WBT+ljpplsppipplpipjllllpppjpplll",
"jppppipfd.X@&$.o.o&=rr&&&ozllgP+g+A.lpipppjjplxlipdlllsppllppjll",
"lppslhitp o@&&.X.&=r&&=r*&&SSS$5VD@o.piptttiplzjpplljpfllpljllll",
"ppfjlpttl.o@&&..&or$==re=@=DCC5w%5D@.pttuippplxjpppppipppppfjlll",
"12tt2212t.X&$&.$r@@@=ee*&*DeDC5YD%V&.1,tttttttit22122222t1122222",
"---,1,,,,.X&*&.rr&@$&&&=eeeDCwV48L5&.,--,,,2,,,----,,-,,2-,,,,,,",
"yippt2tsa.X&*&.r&@&r*@@&*DSC6V%YE%8@ liiittiuspuupyipppllpppspip",
"bbmnzlcNN.o$*&.&&e&ee&.@&*eD66667L%X.bcbnmnnnnncnnbbnnmNmnnmmnnn",
"ccbbxcnmb X$=& Or&&e&..@&DDDA68EY75.tlszmNnbnmnbbczzbbbnbbcbbbcb",
"jppslzcli.O&**.@*=X@..@&&&DCD6v68V4..pplljpisllspspsllspjpppiupj",
"pipspiipi.X$&* &*r@.i.X&&*&SwwZAZI...aac33+tpspppjjjllpppippyypj",
"itslpiisa X@&&.&*r&.tp.&&**$C6VFGZ.oO 339+k+llspijljlldaiippspip",
"iiszlalxx.o@&&. *r&@ l.O&&=&D6ZHG6.o@.99+i#plclppjjppfalppjlljpp",
"szcxlalld.o@&&@.****&..O&&*$&@7C6Z.X@.++l+k+xclpplxjlllljsllzzjj",
"lzzldppsip.@&&@.@r*=&..O@@$$$@@86 XX@.lppp+lzxlppllppllppplllhpp",
"ippuupppppi.@&@.@***X...o@$$&$&@O oXX.ppi+k+pllplzlppljpjppjlppp",
"ussppppplls.@&@..@*&X.3..o@@ee=&o....pppal+k+plplspippjppllppppp",
"lzzllllslpp X@@.x....39.. O*@re=o 00<<phll+++lllpitpllllpllldlfp",
"lcllpsppittp.X@.lp<<.@+.oo.**@ee*.000<,<++kkk++ljpplxxlslllspppi",
"lllpipslpppll.X.x<<.@@X.@@ o**@Or.000<<<+kk+kk+lsllcxlsplllppuii",
"llppplllddlxcl .0<.@@o.X@@o.X@**r.q<0<<#kkkkkkk+iplzlpppplppippi",
"llppjxlpps. xdp<..@@o.X@@@@..X&*$.q0<<+f+kkkkk+f#pspippppppppsls",
"pllpjlpt21t ....@@Xo..@@@@...X@=*.q<0<<+kk#k#fk%plxfjlllppdappal",
"ispijlp22tfz..@@XX..>.o@@@o. O@=*o.<<<<<+kkkkk+lzxdallplllfppppl",
"pzlislp1tjbbll ...><>>.@@@@o.@***$o .<<<++k+k++lllppllppalppddlx",
"llsijzi2pzbblll<<<<<00..o@@@.=******.<<<11#k#jlappdllppppslllzll",
"spiislpilcbxppjp<<><<00<.....@==***& <0<<pl+lldppllllsppllppsppp",
"lsppllljxxlhpplfa<<<<<<1<<<<<.......<0<<ppjlllppplpilllplppppppp",
"lzlllxlllllppalllpl010<<<<><<0>;<qq0<<pplldpappplpiijlappppppjpp",
"llldllljplppullllpsapps10<<<<0:;<qqasppppplpfppallpplsppllpjlxll",
"plpppllpppppilxlppppitippijlxl2,anblpppplllppppplppzcxdplpllllll",
"lllppllpppllsllppppiiipptilzxl2,pmbldlllllpppphjlpplxlllllplllll",
"cxllhplllllllllpitppypjptilljj2,pncppdjlljippllllllpjsaplllllpll",
"xlljpppllllljjpiipphsjlpplcjspt-ibcpppaflptllllllllpppppllpppppp",
"lpppppplllllppfpplllslzllccljfq,pnbppplllpplllpldllpdlldpppppppp",
"lppjpplllpjlllppplllplxllzczllt-snbdpddllpplzlpdpjppfllpppllpppp",
"llpllllllllllldpjllppsllpszdjj2,pnbpplfdspplldplhpppppppllllllpl",
"llppplllllphpsdpdlllllllppjsui2-pncpppadppipppadfpppplplpllllpll"
};
