/* XPM */
static char *er71680107293[] = {
/* columns rows colors chars-per-pixel */
"64 64 65 1 ",
"  c #05050F",
". c #050511",
"X c #0A0E1A",
"o c #1D131E",
"O c #0E1621",
"+ c #1D1220",
"@ c #131F2B",
"# c #261920",
"$ c #281920",
"% c #14202C",
"& c #1B2C36",
"* c #1B2B38",
"= c #2E2E2E",
"- c #342C2A",
"; c #382E2D",
": c #39312F",
"> c #333333",
", c #3D3533",
"< c #3E3936",
"1 c #3C3C3C",
"2 c #421E06",
"3 c #4F1716",
"4 c #501817",
"5 c #501819",
"6 c #413937",
"7 c #443C3A",
"8 c #6B5C3F",
"9 c #154259",
"0 c #454545",
"q c #464847",
"w c #494947",
"e c #4D4D4D",
"r c #504E4F",
"t c #4E504E",
"y c #51514F",
"u c #4F4E50",
"i c #4D4A5D",
"p c #504E51",
"a c #495056",
"s c #495058",
"d c #525252",
"f c #5A5A5A",
"g c #636363",
"h c #6A6A6A",
"j c #726B7D",
"k c gray44",
"l c #9F2927",
"z c #9F2929",
"x c #9D3F3F",
"c c #A02A2A",
"v c #AC7676",
"b c #AD7679",
"n c #CF755D",
"m c #D0765E",
"M c #F98D73",
"N c #B19997",
"B c #B29A98",
"V c #B5ACAA",
"C c #C4B59E",
"Z c #FCAA95",
"A c #D0C8C6",
"S c #E5E6C7",
"D c #E6E6C9",
"F c #EDE3E4",
"G c #FFFFFF",
/* pixels */
"edddfddddeddeerwadyrddqwwre0yp1>dgfueyddfdpuudyweweudaw0yffdyewe",
"dfddddddeedfaeeeddeedy00epprfdq<dhfeaddyweeweadyeewedewedfddddep",
"dfddddeeeedfdrddddeedeq0eeeete0>dgferddeweewrdfdddeeddedffdpdddd",
"wdewweddewudddfduuwwdrweddpeue0>egfqyddeeedeydddddeuddedddddeeed",
"edeqwdddpwedyeddweeedeudfddddd0<egfeddeedddrdddwdueudpeueeddewee",
"dddeeuddewddewweweudeeudewo+oooooooeedduerydddueewqwpuweweddredd",
"eddeuedddedfuweeddddppdd+oBNCCCCCNBooddewraudddeewqwddeeudffuddd",
"euedddddfedddeddddddtydoBCCSSSDDSSCCBode0eyeeweudeqefdededddeedw",
"ddddpdddeeyddydddddpddoNCSSSGGGGGSSSCNowwuewewwededdfddedddrdeee",
"ddddeeedaurreeeddyypddoCSSSGGGGGGGGSSCowuddaeeeeddudddeeadyrdyed",
"ddddeeeeeewereddyyeeeoNCSSSGGGGGGGGGSCNodffddeeefdeeewweydrrddee",
"dfdeeeedeeeeedddreeeeoNCSSSGGGGGGGGGSSCoedrweeedfdeeeuuddfdyydee",
"fdddrdddddeeddeerreeuoNCSSSSGGGGGGGGSSCo1wwqweddddeadddffdddddee",
"ddeeeddyaedeedyeaee .oNCCDDSSGGGGGGSSSCoqeeedpdddeerddeeypeeeued",
"eeeeeeewweddeeddde.O.oNCCSSSSSSSSSSSSSNodfffddddeewrewq0eeeeeeed",
"wewddpwwwrddeeedd.OX.ojCCCSSSSCSSSSSSSNopddddfddeeeyddeeuddddtdd",
"edddddeeeffdwedd.OOX.#jNCCCSSCCCSDSSSSBodddddyddyedddfdddffdpddd",
"udddddeedffdeed.O%.X.+iNNCCCCCNjCCDDSCioydddyrdyeeddddyddffpdduw",
"ddddyyeaddddew.XO@.XX.+jNNCCCNjjGGDSCi++eeedeerrwwdddddedfeqqeee",
"ddduerwereeeee.O@@.XX.+ijNSjjjoGCoooCC+weweddeadewydedeeddwqqeee",
"epeeeewwwweet.XO%.XXX.d+ijCSjioGl44SCGoedeedddddeeyrryeepdpedfdd",
"dddtdreeyttda.O%%.XXXX doijjSSGGN4zSCo+dfdddddddeeyaeredpdeedddp",
"dddddddpfddd X%%X.XXXX.deooiCjDGGc4Cojodfeedddddeeuuydeddeq0weed",
"ddeeddedfddy.O%@.XXX....XwrooooCCCzCD+wddeedddddweduddrdddeqeeyd",
"ddwedueryde XO%%.XX.X%%%OOeydooCoGzSotdeueedpdddeeeedddrddpedffd",
"fdweddaeydr.XO%%.X.X%&99%@%Xwe1iCoiox.uedeeewdddqwerydeeedeqwdde",
"fduddddadde.XO%%.X.%&99%&&%@@xxx%4cvOX.deeewwudeweydddyreeyeeudd",
"eeeeeewerde.XO%%..X&&9%&&9&%&vxx58#4v%.eeeupddfdweddddaeeddeeddd",
"deeadrqqwee.X%%%X.@O&&%*99@9v9vx4Av$c%.w000qeddduudddeuddddtdddd",
"eeedye00ddd.X%&%X.99%OO&9%O99vx8c45V4&.qeweeedfdeeewwweuuewedddd",
"111q7<<1001.X%*%X.9@9%9OO%%vxx4c$AF$3&.0q00000q11111111011111111",
"==>>1>>>><>.X%*%O.9@9%99 X%%&v44444V#@.=>>>1>>>=>==>>=>>>>>>>>>>",
"eweeq10drpe.X%&%O.*%9%99 %Ovvvx44FA44X.q0000eerewewwtpeddeeepewe",
"fghhddfhkhh.X%&&O.%O9%O X%%%vxb4844z4.fghhhhhhggghgfgghkhhhhhghh",
"ffgfffhhgff X@%&%.XO*9O X%99@x88zxzZ.2odhhhgghhfgfffggghgfgggffg",
"deerdffdewe.XO%%%O X@99O %%99%x4zmnz.os#fdeqedaeepeeddeeteweeqed",
"uwedewwewud.XO@%%OX.O&&%. %%%%v4zMn4..ofde70eteeeddyddeeeewewqep",
"qqedr0wyuuu.XO@%OOO.X%&&&% %%%O44x4z..sodq1eddeewuyaddrrqweeuewe",
"qwpddadffdew.O@@OOOO O9&*%.O%%%x4xz4X.oeeqqefddeedderrydeeedddee",
"pfffueddudddd.O@OO ..O***X.O%%&9%OxvX.sodeedffdeedddydddduddfddd",
"ddfduuepweeay O@O eep.O*%X.&O99&%Xvx..oaordddfdeeddpeddeeeydddee",
"weewqwweeeeed XOO.euep.....&O99&OXxX.dooowwweddtdfdeeudeuurydewe",
"eeeeweuuddpdfd XO.dped.....&O9&&OX.O.oasso+eeedtdeeqeedeedareeee",
"dffddddddeuddee X.dd,.O..X.&%&&%X.XX.ssossoddddyewqwddddeddyddde",
"dffduarrwq0erqwa..e,.OO.XX.X&&&O.XX..sssssaoddddpeedfddeddduepew",
"dddeweyyewed. edft..OOX.XX.X&&OX....osssssoioddddddffddedddewwwq",
"ddtweddydddff ..  OOXX..XXX.&%O.>77ossosossodteewrdddueeudeeqeew",
"dduwrfdeeeddde..OOXX..,,.XX.&%OX.776ossssso6fwqq0waueweeeweeuudd",
"eddeddw011qeeeee....,,,6. .@&&&%X..<oosoioo,deeeefdyydddepreeedd",
"qeuwdde110dfdeddfd,:;:,,,,.&&&&&&&.,,,oso,:,pdddfddrddeydddeeeed",
"uddqudw10uffdddfpew,;:,,,,.OO@**@%.,,,,o,:>rddddddeeddeetdeedddf",
"dduwefw1efhgddddeeey666<6,,.......7,,,,,,,dddddeeeyddyeeeedddddd",
"dewwddrwdfgfeepeaeerdf6,,,,,,6--,776,,,,eeyddddeedddddewddrdeeee",
"drewdfdrddfdwudedwwrdddee,>,,,-->76,6ddwyyddddeeedewddredeeeweee",
"dfdddddddfdewddddedddddueewyyd0>wgfrddeepddrteeedeqwddareewwerua",
"dddeadddrauewddddudpeeeddeuddf0-eggreeeeeyyeeeeedrwpduerdyryyfdd",
"eddweydeeeewedfdpeeew0weeweffd1>rhgdeeeepddeeeepderdffyedptddddd",
"ddderddyeeydrddeewwewwee0qdddd1>rggyrdddddeweeeddeddfddydtepdddd",
"ffddrrydyddddddew0eeeeue0wdddd1>egfredddddqedddddrdeeyeedddddddd",
"ddddewadddddedewqeryupdeudfdee1>egfreeeedequdddddddeeereddedeeee",
"deeeeweddddereeweyddudfddffdde1>ehgeeeyddeedddeyayyeaddreeetewwe",
"duraeedddpdddddeyyddeddddffddd0>eggdeddddeedfdedryreedyreeddeeeu",
"dyrrdddddddddddedadteuddeefdde1>ehfeededdeepdeedyeeeeeuwdddddudd",
"dyyeedddddyuetueudddddfdwepewq1>eggeeeepeeweeeedreeededdeddddedd"
};
