/* XPM */
static char *er81680107293[] = {
/* columns rows colors chars-per-pixel */
"64 64 66 1 ",
"  c #05050F",
". c #050511",
"X c #0A0E1A",
"o c #1D131E",
"O c #0E1621",
"+ c #1D1220",
"@ c #131F2B",
"# c #261920",
"$ c #281921",
"% c #14202C",
"& c #1B2C36",
"* c #1B2C38",
"= c #2E2E2E",
"- c #352D2B",
"; c #2E302F",
": c #37322F",
"> c #38302E",
", c #333333",
"< c #3D3533",
"1 c #3C3C3C",
"2 c #4F1716",
"3 c #511716",
"4 c #501817",
"5 c #511918",
"6 c #64361E",
"7 c #403635",
"8 c #413937",
"9 c #443C3A",
"0 c #6B5C3F",
"q c #154259",
"w c #454545",
"e c #474749",
"r c #4D4D4D",
"t c #504E4F",
"y c #4E504F",
"u c #51514F",
"i c #4E4E50",
"p c #4D4A5D",
"a c #514F50",
"s c #4F5150",
"d c #495158",
"f c #525252",
"g c #565857",
"h c #565658",
"j c #595758",
"k c #5A5A5A",
"l c #636363",
"z c #6A6A6A",
"x c #726B7D",
"c c gray44",
"v c #9F2929",
"b c #9D3F3F",
"n c #A02829",
"m c #9D3F40",
"M c #AC7676",
"N c #CF755D",
"B c #F98D73",
"V c #B19997",
"C c #B4ACAA",
"Z c #C4B59E",
"A c #FCAA95",
"S c #D0C8C6",
"D c #E5E6C7",
"F c #E6E6C8",
"G c #ECE3E4",
"H c #FFFFFF",
/* pixels */
"rfffjgfffrffyrrrffurffeerrreff1,fllrrffffffrrfurrrerffewukjfyrrr",
"fjjfffffrrfjyrrrffrrffw9ryfrffw1jzkrrfffrrrrrffyrrerfrerfjgfffrr",
"fffyrfrrrrfjffffffrefrewrrrrfr1,alkruffrerrrrfffffrrfurtkjffffyf",
"rfyerrffrrrfffffrrrrfrrrffyrruw1rkjruftrrrrrffjfffrrffyfffffrrrf",
"rfrerrffrerfrrfferrruyrfjfffffw,rlkrffirffyfffurfurufurrrrsfrrrr",
"fffrruffrrffrrrrrrrurrifrrruffw,eljrrffrrufuffurrrweurrrrrfgurrf",
"rffrrrffurfjrrrrfffffrfgsrooooooooorfffrerfrfaurrrweffrrrfjjffff",
"rrufffffgrfffrfrffffifffooVVZZZZZVVooffrerurerrrrrerjffyfrffrrrr",
"ffffrffffrffffaffffafhg+VZZDDDDDDDZZVoreeyrereerfrffjfrrfffrfrrr",
"fffffrrfyrrrrrrfffrrffoVZDDDHHHHHDDDZVoeyufufrrrfffuffrrrfffffru",
"fffrrrrrrrrrrrfffirrrroZDDDHHHHHHHHDDZoyfjjuurryjfrrrrrrffsrffrf",
"jjfrrrtfrrrryffffrrrroVZDDDHHHHHHHHHDZVoyuyrrrrfkfrrryfffjfryirr",
"jgfyufffffrrffrrrrrraoVZFDDHHHHHHHHHDDZowwewrrffffryffgfjffrffrr",
"ffrrrufyftyrrftrfiraaoVZFDDFHHHHHHHHDDZowryyyyfffrrrfrrrffrrrarf",
"rrrrrrreerffrrffarr..+VZZDDDDHHHHHHDDDZoujjjffffrrrrrrwerrrrfrrf",
"rrryuureerffrrrffr.O.+VZZFDDDDDDDDDDDDVoufgffjffrrrfffrrrffffrff",
"rrffffrrrjkfrrfgf.OX.oxZZZDDDDZDDDDDDDVoffffffffrrfffjfffjjfffff",
"rfffffrrfjkfrrff.OOX.oxVZZZDDZZZDDDFDDV+rfffrfffrrffffyffkjusfrr",
"fffffrrffjffrrr.X%.X.opVVZZZZZVxZZDDDZporrrfrrrreeffffrigffeerrr",
"fffrrrrrrrrrre XO%.XX.#xVVZZZVxxHHDDZpo+rrrffyuferffffrrffrwerrr",
"rfrrrrerrerrrr.O%%.XX.+pxVDxxxoHZoooZZorfrrfffffrrfrrfrrffurfjff",
"fffrfrrrfyrff.XO%.XXX.fopxZDxpoHv44DZHofjfffffffrrfryrruuurrfffu",
"ffffffrfjgfff.O%%.XXXX.jopxxDDHHV4vDZo+fgrrfffffrruuffrffrewrryu",
"ffyrffrufffa.X@%X.XXXX.feoopZxDHHn4Zoxoffrrffffferuutfffffeerrsf",
"ftrrrurraurr.O%%.XXXX   .wrooooZZZvZDoururyfrfffrrrrfffrffrrfjgf",
"kferfffrffr.XO%%.XXX X%%%OfrrooZoHvDouirurrrrfffwrrrfffrrfrrrffr",
"jfrfffuuffr.XO%%.XX.X%&q%%%XrfwpZopom.rfrrrerrfrerfffffrrrrrrfff",
"yrrrrrrrrfu.XO%%.XX.%*qq%qq&Obbb%4nMOX.rrruyrfjferufffrrrffrrfff",
"frryfsewrrr.XO%%.X X%*q%qqqqOMbb50$2MO.rwwwerfgfrrffyrrfffisffff",
"rrrffreefff.X%%%X..OOOq%qq%OMqMb5SM#n& eerrrrfjfrrrrerrfsreryfff",
"<1we1,11ww1.X%*%X..qq%OO%%O&qMb0n52C2& wewwwwwe1111111111111w111",
";;;,1,,,,1,.X%*%X..q%q%qq&.Mmb5v$SG#2@ =,,,1,,,=;==:,;,,1,-,,,,,",
"rerrw1wusrr.X%&%OX.&Oq%q*.X%%M44554C$* ewwwwrrrrreeeurfffrrrfrrr",
"klzlfulzzzz.X%&%OX.&Oq%q& XMMMb42GS52% lzzzzzzlllzllllzczzlzzlll",
"kllljkzzllk.X%*&OX.XO%q% X%%MbM4044v5.rjzzzllzzklkjjlllzlklllkll",
"uerffjkfeer X%%*%Oo.X&&qX %%%b00vmvA.orfgurerfutryryffrrrrrrrerf",
"rerureererf.XO%%%O#6.O&&%X .%%b4vNNv.dokfr1wrtrrrufuffrrrerreeru",
"ewyfreeuyyu.XO%%%Ooo.X%&&&&%.%M4vBN2.ofkfwweffrreuuyffureerrrrer",
"erugfufjjfr.XO%%OOOXX.X%q&&%.O%42b4.odoyreerjgfrruurrrffrrufffrr",
"ufkjfyffruff O%%OOOOXX.O&&&X.O%b4bv.roysfyrfkjfrrfjfffffuuffjffu",
"fgjguyruerruu.O%OO......%&%X.X%%0Ob.odotrruffjhryfftyffrrrffffrr",
"erreeeerrreuf.O%O.rrruf.. ...X*%%XMb.orrrerrrffyfjfrrrfryyrffrrr",
"eryrrrurffugj.XOO.ftrf7.O.XXO&&%X.bOX.,<rfrrrrftuueerrurtuurrrrr",
"fjjfffuufrrffr.XO.uf<7.OX.X%*&&OX OOO.oo7<frfuffreerffffrfffffrr",
"fjgfutyrewwrtee.X.r<<.OOX.X&&&OX..OOO.d+<<<iffffurrfjgfyuffurrre",
"fffreruuerrffurf..<<.OOX XO&&@OX.XXO..ddo<<<fffyuffkjffrfffrreew",
"ffrrrfffyffk .sfff..OOXX.X%&%OX.XX...ddodo<<futrrrfffrrrfrrrerre",
"ffrrujfrryufg.....OOXX ..O*&OX.XXX.ododdo<77ftrwwrrferrrrrrruufu",
"rfurufrw11errr..OOXX..<<.%%OX..XOOX.ddd+<<<<frrrrjjyftffrrfrrrrf",
"eyreffr11wsffiff....>><.X%%%XX.XOOOX.d++<<,<iifffffrffrfffyrrrff",
"uffeyfr1wrllfffjrr<<>>7.O*&&&&&.XOOO.o<<<<<<fffhffrrffrrffrrffff",
"ffrrufe1rjllffffrrr<<99 OO%*&@@ .....7<<<<<ffffrrrsffrrrrrffffjf",
"ureeufrefkljrriryrrr7877.. ....-<99<<7<<<<fffffrrffffurrffrrrrrr",
"frrrffffhjjrrrfryrrrff<<<<<<<<--<98<<7<<raaffuarrfreuffrfrrrrrrr",
"fffffjfffffrrffffrffffuur<<<<8>->99<<frriffatrrrfreeffyrtrrrrsrr",
"fjgrfffussrrrffffyffyruufyrffj1,rzlyrrrrrfarrrrfffrrfurrfrryfjff",
"rfirrffrrrrerfjfrrrrewerreffff1,rzlurrrruffrrrrrfrrjkgfrffyfffff",
"fffrrffsrrffrffyrerreerrwefggfw,rzlrfffffurrrryffrrfjffffurfffff",
"kjffrafffffffffrewrrerurwefffr1,rlkrrfyfjrerrffffffrsirrffffftff",
"gffrrrrfffffyureerrfuufryfjftr1,ellrrrrufreifffffffrrrrrffrirrrr",
"frrrrrrfffffrrtrrfffyfjffjkffu1,rzlrrrrffrrfffrfyftruffarrrtrrrr",
"frryrrafffrfffrrrfffrfjffjkjffw,rzkfrffffrrfffrurfrryffrrrffrrrr",
"farffffffffffffrtffyryffrygurr1,rzkrrffirrrfffrffrrrrrrrfffffyrf",
"ffurruffffrfrryrfufffffurrfrer1,rllrrrrurrrrrryfrrrrtirfsufffrff"
};
