/* XPM */
static char *eu11680105316[] = {
/* columns rows colors chars-per-pixel */
"64 64 252 2 ",
"   c #05050F",
".  c #040311",
"X  c #030511",
"o  c #040410",
"O  c #050511",
"+  c #060411",
"@  c #050412",
"#  c #060412",
"$  c #060612",
"%  c #090D19",
"&  c #0A0C19",
"*  c #0A0E19",
"=  c #0B0D1A",
"-  c #080E1A",
";  c #0A0E1A",
":  c #0B0F1B",
">  c #0A0D1C",
",  c #080E1C",
"<  c #0B0E1D",
"1  c #1A121D",
"2  c #1B131E",
"3  c #1D131C",
"4  c #1C121D",
"5  c #1E121C",
"6  c #1C111F",
"7  c #1D131E",
"8  c #1E121E",
"9  c #1E141F",
"0  c #0D1520",
"q  c #0F1521",
"w  c #0C1620",
"e  c #0D1721",
"r  c #0F1620",
"t  c #0E1720",
"y  c #0E1621",
"u  c #0E1422",
"i  c #0E1623",
"p  c #1D1220",
"a  c #131F2B",
"s  c #151F2B",
"d  c #131F2D",
"f  c #132029",
"g  c #12202B",
"h  c #14212A",
"j  c #13212C",
"k  c #13212E",
"l  c #14202C",
"z  c #15212D",
"x  c #16202C",
"c  c #17212D",
"v  c #14202E",
"b  c #15212F",
"n  c #1A2B35",
"m  c #1D2B34",
"M  c #1D2B36",
"N  c #1B2C34",
"B  c #1A2D34",
"V  c #1A2C36",
"C  c #1B2C36",
"Z  c #1C2D37",
"A  c #1E2C37",
"S  c #1B2B38",
"D  c gray18",
"F  c #2F2F2F",
"G  c #322A27",
"H  c #322A28",
"J  c #352D2B",
"K  c #372F2D",
"L  c #38302E",
"P  c #39312F",
"I  c gray19",
"U  c #313131",
"Y  c #323232",
"T  c gray20",
"R  c #323433",
"E  c #343434",
"W  c #353535",
"Q  c #373737",
"!  c #383330",
"~  c #3A3230",
"^  c #3B3330",
"/  c #3B3331",
"(  c #3B3233",
")  c #3C3431",
"_  c #3C3432",
"`  c #3D3532",
"'  c #3D3533",
"]  c #3E3433",
"[  c #3E3633",
"{  c #3C3334",
"}  c #3D3435",
"|  c #3F3534",
" . c #3E3634",
".. c #3F3735",
"X. c #3E3536",
"o. c gray22",
"O. c #393939",
"+. c #3A3A3A",
"@. c gray23",
"#. c #3B3D3C",
"$. c #3C3C3C",
"%. c gray24",
"&. c #3F3F3D",
"*. c #3E3E3E",
"=. c #3F3F3F",
"-. c #403635",
";. c #413736",
":. c #413937",
">. c #423A37",
",. c #403738",
"<. c #423A38",
"1. c #433B38",
"2. c #433B39",
"3. c #443A39",
"4. c #453D3B",
"5. c #463E3C",
"6. c #154257",
"7. c #144158",
"8. c #174159",
"9. c #144259",
"0. c #154259",
"q. c #15415A",
"w. c #14425A",
"e. c gray25",
"r. c #414141",
"t. c gray26",
"y. c #434343",
"u. c #424443",
"i. c #454344",
"p. c #444444",
"a. c gray27",
"s. c #464646",
"d. c gray28",
"f. c #494947",
"g. c #474948",
"h. c #484848",
"j. c #494949",
"k. c #49494B",
"l. c #494B4A",
"z. c gray29",
"x. c #4B4B4B",
"c. c #4C4A4B",
"v. c #4B4D4A",
"b. c #4A4C4B",
"n. c #4C4C4A",
"m. c #4A4A4C",
"M. c #4D4B4C",
"N. c #4C4C4C",
"B. c gray30",
"V. c #4E4C4D",
"C. c #4C4E4D",
"Z. c #4E4E4C",
"A. c #4F4F4D",
"S. c #4C4C4E",
"D. c #4D4D4F",
"F. c #4F4D4E",
"G. c #4E4E4E",
"H. c gray31",
"J. c #504E4F",
"K. c #4E504F",
"L. c #50504E",
"P. c #51514F",
"I. c #4E4E50",
"U. c #4F4F51",
"Y. c #4D4A5B",
"T. c #4D4A5D",
"R. c #4C4B5D",
"E. c #4D4A5F",
"W. c #514F50",
"Q. c #4F5150",
"!. c #495058",
"~. c #4A5159",
"^. c #49505A",
"/. c #505050",
"(. c #515151",
"). c #525051",
"_. c #505251",
"`. c #525250",
"'. c #535351",
"]. c #515153",
"[. c #535152",
"{. c gray32",
"}. c #535353",
"|. c #545253",
" X c #555553",
".X c #525254",
"XX c #555354",
"oX c gray33",
"OX c #555555",
"+X c #565455",
"@X c #565654",
"#X c #565656",
"$X c gray34",
"%X c #585858",
"&X c gray35",
"*X c #5A5A58",
"=X c #59595B",
"-X c #5A5A5A",
";X c #5B5B5B",
":X c gray36",
">X c #5D5D5D",
",X c gray37",
"<X c #5F5F5F",
"1X c #606060",
"2X c gray38",
"3X c #626262",
"4X c gray39",
"5X c #646462",
"6X c #646464",
"7X c #656565",
"8X c gray40",
"9X c #676767",
"0X c #666867",
"qX c #676968",
"wX c #686868",
"eX c DimGray",
"rX c #6A6A6A",
"tX c gray42",
"yX c #6C6C6C",
"uX c #6D6D6D",
"iX c #6F6F6F",
"pX c #726B7D",
"aX c #706C7D",
"sX c #716D7E",
"dX c #736C7E",
"fX c #717171",
"gX c #B19995",
"hX c #B09896",
"jX c #B19997",
"kX c #B29897",
"lX c #C3B49D",
"zX c #C5B59C",
"xX c #C4B59E",
"cX c #C5B59E",
"vX c #C5B69F",
"bX c #C6B69F",
"nX c #C4B5A0",
"mX c #E3E6C7",
"MX c #E4E5C5",
"NX c #E5E4C6",
"BX c #E4E5C6",
"VX c #E6E5C7",
"CX c #E5E6C6",
"ZX c #E5E6C7",
"AX c #E5E5C9",
"SX c #E4E7C8",
"DX c #E6E7C8",
"FX c #FEFEFC",
"GX c #FFFFFD",
"HX c #FFFEFF",
"JX c #FEFFFF",
"KX c white",
/* pixels */
"G.}.}.$X$X$X}.}.}.x.G.}.G.x.G.x.G.oXG.G.$X}.x.x.x.M.x.s.}.G.@.U }.0X-Xx.G.}.}.|.$X$XG.G.G.}.G.g.x.x.x.G.$XG.s.s.Q.-X-XQ.G.G.h.x.",
"}.$X$X}.$X}.G.G.G.x.$X-XG.x.x.G.}.oXG.x.}.G.t.t.x.}.L.G..X$Xu.@.$XqX<XG.G.L.}.G.x.N.x.x.x.Q.}.G.G.M.s.x.G.N.x.x.$X;X$XW.}.}.G.G.",
"G.$X}.x.G.}.G.G.G.G.}.-X}.G.}.}.}.}.x.x.G.G.p.t.x.G.G.x.U.G.%.T K.5X-XG.G.}.}.x.s.x.x.x.G.}.$X}.}.G.x.N.}.G.G.G.$X%X}.}.}.Q.W.oX",
"G.}.G.s.x.G.G.G.G.s.G.}.}.}.$X}.G.G.x.x.}.G.x.x.$X}.G.G.G.}.t.o.G.<X$XG.G.}.}.x.G.G.G.G.}.+XoX}.oX}.G.}.oX}.G.}.}.}.}.G.G.G.N.}.",
"x.}.G.x.x.G.}.}.G.s.x.}.G.}.}.G.s.x.x.x.G.G.G.Q.%X}.}.Q..X$Xs.o.N.5X-XG.W.}.}.m.G.}.}.W.}.$X}.x.}.G.x.G.$XW.G.G.x.x.G.}.G.h.x.G.",
"G.}.G.x.G.G.}.}.x.x.}.}.x.s.x.x.x.G.G.}.}.G.U.Q.G.x.U..X}.}.t.T g.<X%XG.U.}.}.G.G.G.G.}.}.}.G.x.x.x.s.g.G.G.x.x.x.M.$X$XG.G.G.}.",
"G.}.}.G.G.G.G.}.}.x.}.$Xx.x.G.x.}.G.}.}.G.G.}.oXG.x..X5 2 5 2 5 2 5 p p 5 .X}.G.x.G.}.G.G.G.G.G.G.x.t.s.}.G.N.G.G.G.%X%XG.}.+XG.",
"x.G.G.}.}.}.}.}.$XG.}.}.}.G.}.}.+XQ.}.}.G.}.oXoX+X5 5 kXxXlXlXxXnXlXlXlXkX5 5 x.s.x.G.G.g.x.G.G.G.N.x.G.$X$XQ.W.G.}.$X.Xv.G.G.x.",
"G.}.}.}.}.G.G.$XG.G.}.}.}.G.}.}.oX}.Q.G.}.+X$XoX2 jXlXAXmXAXDXDXDXDXmXDXmXlXhX5 g.G.m.x.x.x.x.N.}.G.}.}.$X$XG.G.}.}.}.W.}.G.G.G.",
"}.}.}.}.G.G.G.G.G.G.G.G.G.x.G.}.}.}.G.G.G.}.}.5 kXlXDXNXmXGXGXGXGXGXGXVXVXDXcXjX5 }.}.G.G.G.x.x.$X}.G.Q.}.}.G.x.G.}.G.G.}.G.G.G.",
"$X}.}.G.x.x.G.G.G.x.x.G.G.G.G.}.}.G.G.x.v.G.G.5 lXDXNXDXGXGXGXGXGXGXGXGXAXmXDXcX2 -X$XL.Q.G.x.x.-X}.G.x.x.x.x.x.Q.}.G.G.Q.}.G.G.",
"$X$X}.G.x.G.G.G.G.x.x.x.G.}.}.}.K.G.G.x.G.}.5 jXlXDXDXGXGXGXGXGXGXGXGXGXGXVXVXlXhX5 G.x.x.G.G.}.$X}.x.x.G.G.G.}.$X$X}.G.}.G.N.G.",
"$X}.}.G.G.}.}.$X}.}.G.x.G.}.G.G.J.G.G.G.Q.}.7 jXxXDXVXGXGXGXGXGXGXGXGXGXGXAXDXcXhX5 s.s.g.G.W.$X}.W.G.G.}.$X$X$X$X$X}.Q.}.G.G.G.",
"}.}.G.G.G.G.G.}.G.G.G.G.G.G.G.G.G.G.G.G.}.$X5 jXxXNXAXGXGXGXGXGXGXGXGXGXGXAXmXcXhX5 G.Q.G.U.}.}.G.G.N.G.G.G.x.x.J.G.G.M.G.G.G.}.",
"G.x.x.x.G.G.x.x.x.x.G.G.G.G.}.G.Q.G.x.. X $Xp jXlXVXmXGXGXGXGXGXGXGXGXGXGXmXmXlXhX7 %XO . |.}.G.G.N.x.G.G.x.s.t.v.G.G.x.G.G.G.}.",
"x.x.G.G.}.G.x.s.s.G.$X}.G.G.G.}.}.G.O ; . }.5 hXnXmXAXGXGXGXGXGXGXGXGXGXGXAXVXlXjXp %XO ; O }.oXG.x.G.G.}.}.G.G.J..X}.G.}.G.G.}.",
"x.G.}.}.}.G.G.G.x.$X:X}.s.x.}.$X$X  ; y O }.5 hXcXDXmXVXGXGXGXGXGXGXGXGXVXDXDXxXhX2 +XO y ;   $XG.G.oXoX}.$XG.}.}.-X-X}.G.}.K.}.",
"G.}.}.}.}.G.x.G.}.$X-X$Xc.m.}. X. ; y y O }.5 aXcXcXVXSXDXGXGXDXAXGXGXVXVXNXxXxXaX5 }.O y y ; O n.G..X}.}.+XK.}.}.-X%X}.}.}.G.M.",
"}.$X}.}.}.G.G.G.$X$X}.}.G.x.G.X ; k O y O W.2 aXhXcXcXDXDXmXVXmXAXmXAXmXmXcXxXgXaX5 L.O y O l : X x.W.}.}.}.G.G.$X$Xc.s.s.x.x.N.",
"}.}.G.G.G.x.x.x.G.m.x.M.x.x.  ; y g O d ; O 5 dXaXhXcXnXAXmXmXVXVXmXDXDXnXlXgXaXaXp O = d O l t ; O Q.G.U.}.N.G.}.}.x.t.s.G.G.G.",
"G.}.G.x.G.x.s.x.x.h.x.G.G.J.O y l l O d ; O }.5 T.aXhXcXcXlXVXcXlXDXlXlXnXkXaXT.7 G.. ; l O l l y O J.L.G.}.N.G.G.}.W.G.oX$X}.G.",
"}.}.G.G.}.G.x.x.}.G.G.}.}.O ; q l O ; l ; O #X5 T.aXdXhXhXcXcXcXlXcXcXjXkXaXdXT.7 }.  ; g ; O l 0 ; O K.G.G.G.G.Q.}.G.G.}.$X}.Q.",
"}.}.}.}.}.}.}.G.$X.X}.}.J.  y l l O ; l l : @ #Xp T.T.dXaXaXaXdXaXdXaXaXaXT.T.5 $X. ; s s ; O l s y O J.G.Q.G.}.}.G.s.y.g.G.G.G.",
"G.}.G.G.G.}.G.}. X}.}.}.O ; d l = O l l l , O X . 5 5 T.T.T.T.T.T.T.T.T.T.5 2   O O ; d k s O ; a d ; O W.}.W. X}.}.x.s.x.G.W.}.",
"$XG.x.G.G.G.G.G.J.}.G.G.O y l l O ; l l Z d ; O y y aX5 5 5 E.DXdXT.5 5 7 dXy q O ; k n l l ; O d h y O }.$X}.M.}.}.G.G.}.-X$X}.",
"-XG.s.x.}.}.}.x.}.L.G.  ; y l l O = l h n h ; O C C l w.w.d l l d h d w.w.l Z C O ; d Z s l ; O l d y ;   }.G.x.M.G.G.s.x.}.}.G.",
"-X}.}.G.}.}.}.G.}.Q.m.O ; y l l O y l l M C l , O l S w.w.w.w.h l 8.6.w.w.M h O ; l C C k l y O l l y ; . }.Q.G.N.G.J.x.x.}.}.G.",
"G.G.G.G.x.x.x.x.G.}.G.  ; y l l O y l l Z Z w.l ; O O l M w.8.d l w.w.Z k O O ; l w.Z C s g y O l l y ;   G.G.G.G.Q.}.G.G.G.}.}.",
"G.G.x.G.}.G.x.s.x.M.x.. ; y l l O ; l l C C n w.l ; O O g N w.h k 7.Z h O   ; a w.n C C h k ; O l l y ; . G.W.}.}.}.W.G.}.}.$X}.",
"G.x.G.}.}.G.s.s.}.$X}.X ; d l l ; . l l Z C C C Z w.6.w.m Z w.l l 7.M M w.w.w.n C C C M d l   ; l l d ; X x.m.L.G.x.x.G.Q.}.}.G.",
"Q @.t.s.%.Q Q @.t.t.t.O , l Z l ; O y h d M C C Z Z n Z C d Z l l C k n C C M C C C Z l h y O ; h M l , O @.#.%.%.%.@.@.%.t.%.%.",
"D D U Q Q Q U Q Q Q U O ; l n l ; O ; y h S C l 0 O O O   h n l k C s   O O O y l n M d y ; O = d Z l = O U U Q Q U U U Q U D U ",
"x.s.M.G.y.@.p.K.G.G.x.O ; l C l y ; O y h g Z ; O g h Z w.a C l s C l w.Z d l O ; C h l y O ; y l C l ; O G.G..X}.m.m.G.G.m.x.x.",
":X8XyXqX$X}.<XyXyXyXeX. ; k C l l ; O y l s a O O y s g S l Z l g C l n s h y O O h l l y O ; l l C l ; O eXtXfXtXeX9XeXyX8X8XeX",
"-X<X5X<X-X;X8XeX5X<X:XO ; l C C l ; O ; y l g O h y y y l l d h l l d l y y y g O l l y ; O ; l Z C k ; O 4X5X8X5X<X5X5X5X<X<X5X",
"}.x.c.G.}.$X-X$Xh.x.G.O ; l k C l y ; O y l s O y d M w.Z l d y q l l Z w.Z l y O l l y O ; y d C a l ; . }.G.G.U.m.x.x.h.s.x.}.",
"m.x.G.}.G.s.x.G.h.G.}.. ; y h C Z l ; O ; y k O , M w.w.7.w.y y y q 6.w.w.w.M ; O l y ; O ; h C C k y ; O  XG.N.x.x.x.x.h.h.m.}.",
"s.t.v.}.G.s.s.J.G.U.G.O ; y l S n l q , O ; y O q Z w.6.6.N h y y d M w.w.6.Z y O y ; O ; y d C C d y ;   }.G.G.x.s.x.G.G.m.x.x.",
"s.s.U.$X|.K.}.$X$X}.G.O ; y g C Z l l : ; O ; O h s M w.w.M Z h h C N w.w.n s y O ; O ; : d k C C g y ; . G.W.}.x.x.x.}.}.G.x.x.",
"J.$X-X-XK.m.}.+XG.}.}.L.O y a a C l d y ; ; O O d y s Z Z S l q y l C M Z h y h O O ; ; q d l n h d y O L.}.}.}.}.G.}.$X$X$X}.}.",
"}.$X%X$XG.v.G.G.x.x.m.n.}.  y l l y X   O . O y g C y k O l n Z C C k O g y C h y O O O O O y a l y O G.G..X}.N.G.x.}.}.$XG.x.G.",
"x.x.x.s.h.x.x.M.x.x.c.}.}.  y a l O 5 !.2 ~.R.O y C C y O d Z n C C s O y C C y O x.x.x.x.}.. h l y O G.M.W.Q.G.G.G.G.G.G.x.x.x.",
"x.x.G.x.x.v.G.G.}.G.G.$X#XO ; y l O }.5 !.!.2 O ; M Z d O y h Z M h k O l S l q O G.G.m.M.G.O l y ; O s.x.G.G.L.G.G.}.G.x.G.G.G.",
"}.$X$X$X}.}.}.U.}.G.G.}..Xm.O ; q O }.Q.2 ~.!.  ; 0 Z h O y s n Z l y O l Z h O | | }.}.}.$XO y ; O s.x.U. X}.}.G.}.}.}.G.}.}.x.",
"$X-X%X}.G.G.Q.G.s.s.s.x.G.s.s.  ; O v.G.7 7 !.5 O ; y y O y l l n l y O y y ; . | { _ _ }.oXO , O G.G.}.$X$X}.G.G.}.}.}.G.G.x.s.",
"}.}.}.x.s.M.Q.W.x.x.x.}.$XG.x.$XO X x.( _ ' 7 O ; ; y y O y l l Z l O y y y ; ; O _ _ _ ..oXX X }.}.$X-X$X$XG.x.}.}.}.x.x.x.s.s.",
"G.}.G.h.x.}.+XU.G.}.}.-X%X}.G.$X$XU._ ' _ ' O ; = y k s O y l l d d O l l a 0 ; ; O | | ..| N.N.s.x.}.L.}.G.G.G.G.G.G.x.x.x.x.x.",
"J.K.G.x.G.$X$XG.x.G.G.}.$XG.x.M.}.{ ....' ' O - ; h n Z O y h g h y O l Z C g ; ; X | ...._ _ p.s.x.G.G.x.x.x.m.x.n.x.x.G.G.}.}.",
"G.}.}.x.G.}.x.t.$.@.s.G.G.x.G.G.G.| .._ _ ' O y y w.w.Z O y s s y ; O 0 Z w.8.y t O _ _ | _ L x.G.$X$XG.G.G.}.}.G.G.G.G.G.G.G.}.",
"s.K.J.s.G.}.x.%.%.t.U.$X}.G.}.}.%X| _ ! ! L O y d w.w.  O a k y ; O O y Z w.w.h y X _ _ _ _ | $X$X$XW.G.}.}.G.G.G.}.}.x.x.x.G.}.",
"v.}.}.s.G.$Xx.@.y.J.<X<X$X}.}.$XG.G._ ( K L ' O . O   y y u ; ; O 5.O = 0 A g ; O _ _ _ | .. X$X$X}.x.G.}.}.G.x.}.}.G.G.G.}.}.$X",
"}.$XG.x.G.$Xx.%.G.-X0X5X}.G.}.}.v.x.G.| | >.>.<.O O ; ; % ; ;   ' 5.1.O O   O X | ' _ .._ }.G.G.x.G.G.}.$XG.x.G.x.G.G.}.}.}.}.$X",
"G.G.h.s.}.+XG.s.}.:X5X-Xx.c.K.G.Q.M.x.G.....<.| ' ' O O O O   G ' 5.5.( | ...._ { ' ....$X}.G.G.x.}.$X}.}.G.G.x.}.}.G.G.G.G.x.x.",
"}.G.x.x.}.oX}.U.}.%X$XK.s.G.}.G.G.x.x.G.Q.}.| ) ) ) L ( ' -.J G L 5.>.) | | _ _ ' ' Q.}.}.G.x.x.G.G.x.x.G.}.G.G.}.G.x.x.x.x.x.x.",
"}.+XQ.G.}.oX}.Q.}.$X}.c.x.G.$X}.}.G.}.$X$X}.}.Q.G.M.( ' ' >.J D ! 5.3.) ' ' K.c.Q.}.}.G.G.G.x.G.G.G.s.s.}.}.G.G.G.x.x.x.G.G.G.}.",
"}.$X$XG.}.}.}.G.G.G.G.x.x.G.$XG.W.G.G.Q.m.x.G.W.}.G.G.}. X%X4.I x.8X5XG.G.G.G.m.G.G.Q.G.x.G.G.G.$XG.x.G.}.G.x.G.}.G.G.G.}.}.$X}.",
"G.G.G.x.x.}.}.G.m.c.x.x.x.}.$X}.G.x.G.N.s.s.x.x.x.x.G.}.$X}.%.Q G.eX5XU.G.G.M.G.U.}.}.G.x.x.G.G.}.x.x.$X-X$XG.G.}.G.G.}.}.}.}.}.",
"}.$X}.G.G.K.}.G.G.G.J.K.G.$X+Xv.G.x.x.x.s.x.G.G.p.s.G.$X$X}.%.U G.eX5XU.Q.}.U.}. XG.x.x.G.G.G.G.G.G.G.}.$X$X}.G.}.}.G.G.}.}.}.}.",
"-X$X}.}.G.G.G.}.}.G.}.}.}.+XQ.x.s.s.x.x.x.N.G.m.t.x.}.}.}.G.%.Q h.8X<XM.G.G.G.}.$Xx.s.x.G.}.}.}.}.}.}.G.G.L.G.G.}.}.}.}.}.G.G.G.",
"$X}.}.G.G.c.G.}.$X}.}.}.G.G.G.s.s.x.G.G.N.}.}.v.G.oX-X}.G.x.=.U x.6X:Xx.c.G.G.Q.$XG.s.G.}.$XG.}.}.}.}.G.m.G.G.G.}.G.G.G.G.G.G.G.",
"}.G.x.G.x.x.G.}.$X}.}.U.G.G.G.x.x.}.$X}.G.}.$XG.$X%X<X}.G.G.=.U G.eX1XG.G.G.G.}.}.G.x.}.$X}.G.G.G.}.G.G.G.}.}.G.G.x.G.G.x.x.x.x.",
"G.G.G.G.G.G.}.}.}.J.K.}.}.U.G.x.G.}.+XG.x.}.$X}.Q.$X-X+X}.}.t.U G.9X5XG.G.Q.W.}.}.G.x.}.}.}.G.}.G.G.G.G.G.}.}.m.G.G.G.G.G.x.x.G.",
"}.G.G.G.}.J.}.}.}.G.W.}.}.}.}.v.Q.}.}.G.x.Q.}.}.x.G.$XG.G.G.=.U m.0X<XN.G.J.G.}.G.G.x.G.}.G.G.U.G.G.x.x.G.G.x.x.G.}.}.$X}.G.G. X",
"}.}.G.G.G.K.}.G.}.}.G.G.G.G.G.G.G.G.}.}.}.+X$X}.x.x.}.G.x.x.@.U c.9X<XG.G.G.K.G.G.x.x.x.G.G.G.}.L.G.x.G.L.G.G.}.}.G.}.}.}.G.}..X"
};
