/* XPM */
static char *eu21680105316[] = {
/* columns rows colors chars-per-pixel */
"64 64 54 1 ",
"  c #05050F",
". c #050511",
"X c #0A0E1A",
"o c #0D161F",
"O c #1D131E",
"+ c #0E1621",
"@ c #0E1822",
"# c #1D1220",
"$ c #141F2B",
"% c #14202C",
"& c #1B2C36",
"* c #1B2B38",
"= c #2F2F2F",
"- c #302826",
"; c #342C2A",
": c #39312F",
"> c #333333",
", c #3D3533",
"< c #3E3936",
"1 c #3C3C3C",
"2 c #403635",
"3 c #413937",
"4 c #453D3B",
"5 c #154257",
"6 c #154259",
"7 c #454545",
"8 c #484846",
"9 c #494748",
"0 c #4D4D4D",
"q c #504E4F",
"w c #50514F",
"e c #4E4E50",
"r c #4D4A5D",
"t c #514F50",
"y c #4F5150",
"u c #495058",
"i c #525252",
"p c #585657",
"a c #585856",
"s c #575759",
"d c #5A5A5A",
"f c #615F62",
"g c #636363",
"h c #6A6A6A",
"j c #726B7D",
"k c gray44",
"l c #AF9A97",
"z c #B19997",
"x c #B29A99",
"c c #C4B59E",
"v c #C4B5A0",
"b c #E5E6C7",
"n c #E6E6C8",
"m c #FFFFFF",
/* pixels */
"0iiiasiii0yi00y9iiyysi990009ii1>igf000iiiii0yiy9099iii88idaiye99",
"iaaiiiii00sai900ii09iy810yy0ii71ihdeyiii00000iii0080y099idsyii0i",
"iiieyiq000idiiiiii09w08700e90y1<iga0yii089090isiiy00ii0iadiiiiyi",
"0iy990iy090iiiai0y09iw90iiy0yy7>0fae0ii00ey0iiiiii0yii0iiiiie00i",
"0i089iiiy90iyeii90900iiidiiiii7>0gd0iii9iyiiiii9iy0yiy0y00ii0900",
"iii00yii09is099000yiw00iy9yiii7>9fa00iiy0yieiii00979y09090is0yii",
"0ii00eiiy0ia0900iiiit0iie0isii7>7ai0iii090iyyiy00989iy000iaayiii",
"0e0iiiiis0iiiyiyiiiieiisi##O##OOOOO0isi080y09900i090ssyqyisi90y9",
"iiii0iiiy0iiiiiiiiieiii#OzcccccccczOO0089e099900yyiiaii0iiiiw000",
"iiiii00iw00y000iiit0wiOzvbbbbbbbnnbczO09yiiyi000iiiiii000ityii00",
"isii9000090000iiiw000OzcnbbmmmmmmbbbczOiidsii000di090090iii0ie0i",
"aii0000i00000iiiwq000OcbbbmmmmmmmmbbbcO00yy9000iai0000yisiiyii00",
"asiyieiiii00ii00w000#zcbbmmmmmmmmmmbnclO788890iisi00iissaiiiii0q",
"ii000yiii0t00ii0q000#zcbnmmmmmmmmmmbnczO990qiyiii000ty00ii09000i",
"0000e00990ii00yii00eOzcbbmmmmmmmmmmbnczOysssiiii000009870000y00i",
"990yyy988yii000ii..0OzcnbmmmmmmmmmmbbczOy..iisii009iii00yiiii0ii",
"0iiiii000adi99ys.X.0OlcnbmmmmmmmmmmbbczOi.X.iiiii0iiidiiiaaiiiii",
"yiiiii00iads0yi.X+.0Olvnbbmmmmmmmmbbbcz#w.+X.yii00iiiieiidsiii00",
"iiiiiy0iisii00.X++.0Ojccbbbmmbbmmbbbccj#0.++X.0099iiiie0sp088090",
"iii00090e0000.X$.+.9OjlccbbbbbbbbbbcczjO0.o.%X.i09iyyi00ii07800e",
"0y000099999y.X+%.$X.OjjzccbbnbbbnbccxjjO.X$.%+X.00e00i00iiy0isii",
"iii0i000iiii.+%%.$X.0OrjzcccbccbccczjrOi.X$ %$+.00iy0y0iyy00iiii",
"iiiiiiyisii.X+%.X%X.8OrjjzzcccccclzjjrOi.X%X.%+X.0yeii0iie97900i",
"iiy0ii0isii.+%%.X%$X 7OrrjjjjjjjjjjrrO9.X%%X %%+.9ie0iiiii980eyi",
"ii90yy00yi.X%%X.%%%X...OOrrrrrrrrrrOO...X%%%.X%%X.eeiii0iii0iaai",
"di90iii0ii.+%%.X%%&%X.X@j##OrbjrOOOj+$.X%&%%X.%%+.0eiiy00y990iie",
"aiyiiiyye.X+$%.X%%*%X.&&%66%%%%%%66&%&.X%&%%X.%%+X.iiiy000y00iii",
"e0000090e.X+%%.+%%&&%X.%&6665%%6566&%.X$&&%%+.%%+X.iiiy00ii00yii",
"i00yiy999.X+$$.+%%&&6%X..%&66%%66&%..X%5&&%%+.%%@X.iy0eyiieyiiii",
"000ui988i.X+%%.X%%&&&6$X..%&6%%6&%..X%6&&&%%X.%$+X.0090ey090iiii",
"<11711>17.o$%%X.%%&&&*&666&&6%%6&&666&&&*&%%.X$$$X.11<1111111111",
"==><1>>>>.X$*%X.+%$&&&&*&&&%&%%&%&&&&&&&*%%+.X$&$X >>>>>1>>>>>>>",
"9800717y0.X$*%X.Xo%&&%+....%*%%&%....@%&&%+X.X%&%X.9000ii000y090",
"fghhiyfhh.X$&$+X.o%%&X.%%&6%&%$&%6&%%.o&$%+.X+%&%X.ghhhkhhhhhggh",
"dfgfafhhg.X$&%%X.+%%%..+%%&%*%%&$&$%+. $%%+.X%%&%X.adggggffggdfg",
"y89yisas9.o%&&%X.X+%%.%++@%%%%%%%%+++$.$%+X.X%&&%X.eiii00090080y",
"080i09909.X%%&%+X.+%%.+%*6*%%++$$&6&%+.%$+.Xo%&%%X.iii000090890y",
"770s089y0.o@%&&%X.X+%.X&5565+@++6666&X.%+X.X%&&%+X.0iii08800y990",
"88ysi0iai.X+%&&%+X.X+.@&666*%++%&666&+.+X.X+%&&%+X.000ii09ywii00",
"yadsieiii.Xo%&*$%XX.X @%*55**$%&&65&$$.X.XX%%&&%+X.iiiiiiyissiii",
"issiy0yy90.@%%*%%oXX..%+%&&&%++%&&&%@%..oX+$$&%%@.iy0ii000iii000",
"80008890900.@%$+......$%@%.%&&&&$.%+%%.. ...+%%+.siy0tt00y0ii090",
"90y0900yiiy.+%$.d.....+%%+.%&&&&%.+%&%.90i00.%%+.09900yqyyi000y0",
"issiiiiyi00.X+%.aiOOu.X%%%.o%&&%+.$&*@.,iiii.%+X.999wiii0iiiiii0",
"sdaiy0i08780.X+.i9,,#..@%% +%&&$+.%&&X.,,,00.@X.i00iasiyysiy0y09",
"iii0800i009ii.X.s,,,,.XX++.@%&%+X.%&+.,,,,,0.X.tyisaaiy0iii09997",
"ii090iiiiiiddi..3,,,.XX%%.+%%&%+.@$oX.,,2,,,..0090iiiy000iy90909",
"ei00iai090iiiy0,,,,<.X@&&.+%%%+@.+%%XX.,,,,330877000800009000yiy",
"0ii9yi911180e90,,,,, o$&.+$$%++X.%$$+XX ,,,,,0900iaiyiii0ii000ii",
"8ey9ii0717yiiei32,,,.XX$.+%$++X..%*&$XX.,:,,,iiissi0ii0qiit009yi",
"0si9yi017iggsii4,,,::...+++++X.;.+&66++.,,,,,iisii00ii000iy0iiis",
"yiy9yi919aggiyii,,,,..XXXXXXX.:;.+&66$+ ,,,3iii000yiii0000wiiiii",
"y099is09idgs00y0i,,,,4... ...,;;.X+&%o.,,,,siit00iiiiy09iyyiw000",
"iy90iiiwiaai90i0y9,,,,,,,,,,,,;-,.....,,,,wiiie00w00iiy0iy099009",
"iai0iswwiii00iiiieii<,,,,>:,,,;;,44,,,,,wiiyw000i089iiye00900iiy",
"iiiiisiyii009iiiyeii00ey,,,,24:-,44,y009t0w00000ii90i000iw00isii",
"0i000ei000990iai0000979009iidi1>0hgi0000iii00000i00idai0ityiiiii",
"iii00iii00iiyiie0009980079iasi1>0hgyyiiiiy9000yii0iiaiiiii0iiiii",
"daiiy0iiiiiiiii099908yy079iii01>9gf00iiiiy89yiiiiii0ie00iiiiitii",
"aiiq000iiiiiiy0989i0yyi00iaiy01>9gd00000s09iiiiiiii00000ii000000",
"i00009yiiii000090iiiyisiiafii01>0hg000eii00iii0ieiy0tiie000t0990",
"ie0e00iiiwiiiii00isw0wsiisdiii7>0ggy0iiii00iii0i0iy9wii000ii000y",
"i00iitiiiiiiiiy0qiwy0yii0ysii01>0hg00iyiy09iii0ii0090009iiiiiyyi",
"iiy00iiiiiye00i0yiiiiisi90i0981>0gd000q0y09000qi000y0yiieyiii0ii"
};
