/* XPM */
static char *eu31680105317[] = {
/* columns rows colors chars-per-pixel */
"64 64 246 2 ",
"   c #04040E",
".  c #05050F",
"X  c #06040F",
"o  c #050310",
"O  c #040311",
"+  c #020410",
"@  c #030511",
"#  c #040410",
"$  c #050511",
"%  c #060411",
"&  c #050412",
"*  c #040612",
"=  c #060612",
"-  c #070D19",
";  c #090D19",
":  c #0B0D19",
">  c #0A0E19",
",  c #0B0D1A",
"<  c #080E1A",
"1  c #0A0E1A",
"2  c #0B0F1B",
"3  c #0A0D1C",
"4  c #1A121D",
"5  c #1B131E",
"6  c #1C121D",
"7  c #1D131E",
"8  c #1E121E",
"9  c #1E141F",
"0  c #0D1520",
"q  c #0F1521",
"w  c #0C1620",
"e  c #0D1721",
"r  c #0F1620",
"t  c #0E1720",
"y  c #0E1621",
"u  c #0F1523",
"i  c #0F1722",
"p  c #0E1623",
"a  c #1D1220",
"s  c #131F2B",
"d  c #131F2D",
"f  c #161F2E",
"g  c #13212A",
"h  c #14212A",
"j  c #15222B",
"k  c #13212C",
"l  c #13212E",
"z  c #14202C",
"x  c #15212D",
"c  c #16202C",
"v  c #14202E",
"b  c #1A2B35",
"n  c #1D2B34",
"m  c #1C2A35",
"M  c #1D2B36",
"N  c #1B2C34",
"B  c #1A2C36",
"V  c #1B2C36",
"C  c #1C2D35",
"Z  c #1C2D37",
"A  c #1B2B38",
"S  c gray18",
"D  c #2F2F2F",
"F  c #302826",
"G  c #322A28",
"H  c #352D2B",
"J  c #362E2C",
"K  c #372F2D",
"L  c #38302D",
"P  c #39312F",
"I  c gray19",
"U  c #313131",
"Y  c #333132",
"T  c #323232",
"R  c gray20",
"E  c #343434",
"W  c #353535",
"Q  c gray21",
"!  c #373737",
"~  c #3A3230",
"^  c #3B3331",
"/  c #3D3332",
"(  c #393431",
")  c #3A3532",
"_  c #3B3633",
"`  c #3C3432",
"'  c #3D3532",
"]  c #3D3533",
"[  c #3E3433",
"{  c #3E3633",
"}  c #3D3435",
"|  c #3F3534",
" . c #3E3634",
".. c #3F3734",
"X. c #3F3735",
"o. c #3E3536",
"O. c #3D3835",
"+. c gray22",
"@. c #393939",
"#. c #3A3A3A",
"$. c gray23",
"%. c #3C3C3C",
"&. c gray24",
"*. c #3D3D3F",
"=. c #3E3E3E",
"-. c #3F3F3F",
";. c #403635",
":. c #403836",
">. c #413937",
",. c #423A37",
"<. c #403B38",
"1. c #443C3A",
"2. c #473F3D",
"3. c #144259",
"4. c #154259",
"5. c #164358",
"6. c #15415A",
"7. c #14425A",
"8. c #16435A",
"9. c #16425B",
"0. c gray25",
"q. c #414141",
"w. c gray26",
"e. c #434343",
"r. c #444444",
"t. c gray27",
"y. c #444446",
"u. c #464646",
"i. c gray28",
"p. c #464847",
"a. c #484846",
"s. c #484848",
"d. c #494949",
"f. c #4A4A48",
"g. c #494B4A",
"h. c gray29",
"j. c #4B4B4B",
"k. c #4C4A4B",
"l. c #4A4C4B",
"z. c #4C4C4A",
"x. c #4D4D4B",
"c. c #4D4B4C",
"v. c #4B4D4C",
"b. c #4C4C4C",
"n. c gray30",
"m. c #4C4E4D",
"M. c #4E4E4C",
"N. c #4F4F4D",
"B. c #4C4C4E",
"V. c #4D4F4E",
"C. c #4E4E4E",
"Z. c gray31",
"A. c #504E4F",
"S. c #4E504D",
"D. c #4E504F",
"F. c #50504E",
"G. c #4E4E50",
"H. c #4F4F51",
"J. c #4D4A5B",
"K. c #4C495C",
"L. c #4D4A5D",
"P. c #4E4B5E",
"I. c #514F50",
"U. c #505050",
"Y. c #515151",
"T. c #525051",
"R. c #505251",
"E. c #525250",
"W. c #535351",
"Q. c #505052",
"!. c #515153",
"~. c #535152",
"^. c #515352",
"/. c gray32",
"(. c #535353",
"). c #545253",
"_. c #525453",
"`. c #555553",
"'. c #545653",
"]. c #525254",
"[. c #535554",
"{. c gray33",
"}. c #555555",
"|. c #565455",
" X c #545655",
".X c #565654",
"XX c #565656",
"oX c gray34",
"OX c #595957",
"+X c #575759",
"@X c #585858",
"#X c gray35",
"$X c #5A5A5A",
"%X c #5B5B5B",
"&X c gray36",
"*X c #5D5D5D",
"=X c gray37",
"-X c #5F5F5F",
";X c #606060",
":X c gray38",
">X c #606261",
",X c #626262",
"<X c gray39",
"1X c #646464",
"2X c #656565",
"3X c gray40",
"4X c #676767",
"5X c #686868",
"6X c DimGray",
"7X c #6A6A6A",
"8X c gray42",
"9X c #6C6C6C",
"0X c #6D6D6D",
"qX c #6F6F6F",
"wX c #706C7B",
"eX c #736A7D",
"rX c #726B7D",
"tX c #726A7F",
"yX c #706C7D",
"uX c #736B80",
"iX c #AF9A97",
"pX c #B19997",
"aX c #B29897",
"sX c #B19999",
"dX c #B39998",
"fX c #B29A98",
"gX c #C3B49D",
"hX c #C2B69E",
"jX c #C4B69C",
"kX c #C4B59E",
"lX c #C5B59E",
"zX c #C5B69F",
"xX c #C4B5A0",
"cX c #E3E6C7",
"vX c #E4E5C6",
"bX c #E5E6C6",
"nX c #E5E6C7",
"mX c #E7E6C8",
"MX c #E6E7C8",
"NX c #FEFFFD",
"BX c #FFFFFD",
"VX c #FFFDFE",
"CX c #FEFEFE",
"ZX c #FFFEFF",
"AX c #FEFFFF",
"SX c white",
/* pixels */
"C.(.(.oXoXoX(.(.(.j.C.(.C.j.C.j.C.(.C.C.oX(.u.j.j.C.v.u.C.C.&.U {.4X&Xj.v.I.(.[.oXoXC.C.C.(.C.j.j.j.j.C.).(.u.e.(.$X$X(.C.C.j.j.",
"(.oXoX(.oX(.C.C.C.j.oX$XC.j.j.C.(.oXv.j.(.C.u.w.C.C.(.C.oX[.w.$.oX5X-XC.C.(.(.C.c.l.j.j.c.D.(.C.C.l.u.j.C.C.j.j.oX$XoXD.(.A.C.C.",
"C.oX(.j.C.(.C.C.C.C.(.$X(.C.(.(.).(.j.j.I.C.w.w.j.C.C.j.C.(.&.! (.<X$XC.C.(.(.j.u.j.j.j.C.).oX).).C.c.l.(.C.C.C.oXoX(.(.(.A.C.oX",
"C.(.C.u.j.C.C.C.C.u.C.(.(.(.oX(.C.C.j.j.(.C.j.j.oX(.C.j.A.C.w.! j.-X@Xc.(.(.I.C.C.A.C.C.(._.oXD.oX(.C.(._.(.C.(.(.(.(.C.C.C.C.D.",
"j.(.C.j.j.C.(.(.C.u.j.(.C.(.(.C.u.j.j.v.C.C.C.C.@X(.(.C.(.(.u.! c.<X$XC.C.(.C.j.C.(.(.D.(.oX(.j.D.C.j.C.oXA.C.C.j.c.C.(.C.j.j.C.",
"C.(.C.j.C.C.(.(.j.j.(.(.j.u.j.j.j.C.C.U.(.C.A.I.C.i.C.(.(.(.w.U u.-X@Xj.C.(.(.C.C.C.C.(.(.(.C.c.j.j.u.u.C.C.j.c.j.l.oXoXC.C.(.C.",
"C.(.(.C.C.C.C.(.(.j.(.oXj.j.C.j.(.I.(.(.C.C.(.(.I.j.(.oX(.(.w.U u.$X(.j.C.oX(.C.j.C.(.C.C.C.C.C.C.j.w.j.(.C.C.l.C.C.@X@XC.(.(.C.",
"j.C.C.(.(.(.(.(.oXC.(.(.(.C.(.(.[.U.(.(.C.(.oX{.oXC.$X@X(.v.w.! u.$XoXv.(.oX(.j.u.c.C.C.p.j.C.C.A.C.p.C.oXoXC.(.C.(.oX(.j.C.C.j.",
"C.(.(.(.(.C.C.oXC.C.(.(.(.C.(.(.(.(.(.C.(.oXoX(.7 7 7 7 5 7 a 5 7 6 -XoXoXC.C.u.p.C.l.j.j.j.j.l.(.C.(.).oXoXC.C.(.(.(.D.(.C.C.C.",
"(.(.(.(.C.C.C.C.C.C.C.C.C.j.C.(.(.(.C.x.C.F.6 a fXxXgXjXjXgXgXgXjXfX6 6 F.C.j.j.C.).(.A.C.C.j.j.oX(.C.D.(.(.C.j.C.(.A.C.(.A.C.C.",
"oX(.(.C.j.j.C.C.C.j.j.C.C.C.C.(.(.C.x.j.C.6 fXxXcXcXcXcXMXMXcXMXMXvXjXfX6 ].(.U._.$XoX(.C.C.j.C.$X(.C.j.j.j.j.j.D.(.C.C.D.(.C.C.",
"oXoX(.C.j.C.C.C.C.j.j.j.C.(.(.(.C.C.C.c.6 pXjXMXmXcXVXVXVXVXVXVXvXMXvXxXpX4 (.C.C.C.C.j.j.c.C.D.oX(.j.j.C.C.C.(.oXoX(.C.(.A.l.C.",
"oX(.(.C.C.(.(.oX(.(.C.j.C.(.C.C.x.C.C.j.7 xXcXcXcXVXVXVXVXVXVXVXVXvXcXMXjX6 j.r.2.r.u.r.j.b.(.oX(.A.C.C.).oXoXoXoXoX(.(.(.C.C.A.",
"(.(.C.C.C.C.C.(.C.C.C.C.C.C.C.C.(.C.C.6 pXjXcXvXVXVXVXVXVXVXVXVXVXVXMXcXjXfX6 u.p.v.C.C.U.C.C.(.D.C.C.C.C.C.j.j.C.C.C.l.C.C.C.(.",
"C.j.j.j.C.C.j.j.j.j.C.C.C.C.(.C.A.x.C.7 pXjXcXMXVXVXVXVXVXVXVXVXVXVXMXvXxXfXa c.U.+X@XoXoX(.D.(.C.j.j.C.C.j.u.w.j.C.C.j.C.C.C.(.",
"j.j.C.C.(.C.j.u.u.C.oX(.C.C.C.(.(.C.x.9 pXxXvXMXVXVXVXVXVXVXVXVXVXVXvXMXjXfX6 C.U.+XoX[.oX].).oXC.C.l.C.(.(.C.C.C.(.(.C.(.C.C.(.",
"j.C.(.(.(.C.C.C.C.oX&X(.u.s.(.oX+ O b.a pXjXMXMXVXVXVXVXVXVXVXVXVXVXvXMXjXpX6 C.$ $ ].{.U.(._.{.C.C.oX(.(.oXC.D.(.$X$X(.C.(.D.(.",
"C.(.(.(.(.C.j.C.I.$X$XoXj.C.(.$ > O C.6 fXjXvXMXVXVXVXVXVXVXVXVXVXVXMXvXjXpX6 C.$ > $ oXC.G.I.(.C.j.(.(.(.oXA.(.oX%XoX(.(.(.C.c.",
"(.oX(.(.(.C.C.C.oX[.(.(.C.j.$ > y $ j.6 fXjXMXvXvXVXVXVXVXVXVXVXVXMXMXMXxXfX6 C.  r > $ C.C.C.C.u.j.C.(.(.(.C.C.).oXC.u.u.j.j.l.",
"(.(.C.C.C.j.j.j.C.v.j.C.j.$ > y y $ i.6 tXjXgXMXMXMXVXVXMXcXVXVXMXvXMXjXjXtX6 l.& i y > $ C.I.C.j.j.A.C.C.(.l.C.(.(.j.w.u.C.C.C.",
"C.(.C.j.C.j.u.j.j.u.j.C.$ > z $ r $ F.6 tXpXjXgXMXvXMXvXvXMXMXMXvXMXgXgXfXuX7 C.$ y $ z 3 $ (.(.j.l.C.C.C.(.j.C.A.(.(.C.oXoX(.(.",
"(.(.C.C.(.C.j.j.G.G.I.@ 3 y z $ z 2 $ 6 tXtXaXjXxXMXvXMXMXvXMXMXMXgXgXfXrXrX7 $ 3 z $ z y > $ oXC.C.(.A.C.C.C.C.(.D.C.C.(.(.(.C.",
"(.(.(.(.(.(.(.C.+XoX].$ y z z $ z > $ l.7 L.tXpXgXjXxXMXxXgXMXjXgXgXfXrXL.a c.$ 3 z $ z z y   (.c.j.D.C.C.C.C.(.(.C.u.w.p.C.C.C.",
"C.(.C.C.C.(.C.(.oX[.$ > y z $ > z > $ e.7 J.tXwXfXfXgXjXgXjXxXjXfXfXrXrXL.6 p.$ > z 2 = z y > $ j.j.(.C.(.(.(.(.(.D.j.u.c.A.C.(.",
"oXC.j.C.C.C.C.C.C.(.  y d z $ > z z 2 $ c.6 L.L.eXtXrXeXrXrXrXrXrXrXL.P.7 C.$ > z z 3 $ z z y $ b.C.C.C.(.oX(.C.).oXC.C.(.$XoX(.",
"$XC.u.j.(.(.(.j.(.+ > d z > $ z z z 3 $ $ O 7 7 L.L.L.L.L.L.L.L.L.P.7 6 $ $ $ > z z z $ 2 z s > O i.j.x.C.(.C.j.j.C.C.p.j.(.(.C.",
"$X(.(.C.(.(.(.C.(.$ y l z $ > z z V z > $ > y eX7 7 7 L.vXeXL.6 7 6 rXy z $ 3 z C z z > $ z z y @ v.(.(.(.(.(.l.j.A.C.j.j.(.(.C.",
"C.C.C.C.j.j.j.j.  > y z z $ > z z V l > $ C C d 7.7.z j d z s s 7.7.j V C $ > z A z z 3 $ s z y > O D.(.].A.C.C.C.D.(.C.C.C.(.(.",
"C.C.j.C.(.C.j.u.$ > i l g O y z z C V z > $ s C 7.7.5.7.s s 7.5.7.7.M s $ > l V C z z y $ z z r > $ (.(.C.C.x.(.(.(.(.C.(.(.oX(.",
"C.j.C.(.(.C.u.u.$ 3 i z z $ y z l M V 7.z 3 $ $ s C 7.7.j s 5.7.M z $ $ 3 z 7.V A z z r $ z z y 3 O j.j.j.j.c.C.C.j.j.C.A.(.(.C.",
"! $.w.u.&.! ! $.$ > i z z $ > l d V V V 7.l > $ % s M 5.s j 9.M j $ $ 2 d 7.C V C z z 2 $ z z y > $ $.$.$.$.&.&.&.$.$.%.w.&.&.&.",
"S S U ! ! ! U ! $ 3 z z z > $ d z C V V C C 7.7.7.C M 7.s d 5.M M 7.7.7.M V V V A z z $ > z z z > $ S U ! U U ! ! U U U E U I U ",
"j.u.c.C.r.$.w.C.$ > l V z > $ y z z C A A A A C V V j V z z A z V V M V V M V V z z y $ > l V d > $ i.j.C.C.C.(.(.C.C.C.C.c.j.j.",
"-X1X0X5XoX(.-X0X$ > z V z 3 $ 3 i z V C z r   $ @ $ g V z z V d O $ $ $ y d A V z y > $ > j V j > $ <X-X2X5X5XqX0X2X5X5X0X2X2X4X",
"$X&X<X-X$X%X2X0X$ > z V z y > O i g z A > $ z z V 7.s V z z V s 7.C d z @ > V l z y $ > y d V s > $ $X@X-X<X<X2X<X-X-X<X<X-X-X<X",
"(.j.j.C.(.oX$XoX$ 3 z V z z > $ y l z z $ $ y z d C j V z z C s C s z r @ $ z s g y @ 3 d g V l > $ c.C.(.(.C.C.C.C.j.j.j.s.j.(.",
"v.j.c.(.C.u.j.v.$ > l V V d > $ > y z z $ y z V 7.M z j y y s j C 7.V z y @ d z y 3 $ > d V V s > $ G.(.(.(.C.C.C.j.j.j.u.p.C.C.",
"u.w.C.(.C.u.u.I.$ > z z V z y > $ y l z $ > V 7.7.7.7.y y y y 7.7.7.7.V > @ z z y $ > y s V g z 3 $ (.G.C.C.C.C.u.u.j.v.C.j.j.C.",
"u.u.C.oX(.C.(.oX$ > y z V C d > $ > y j $ y M 5.7.7.M j y y d V 7.5.7.M y O z y > $ > s C V z y > $ (.v.C.C.C.C.j.j.C.(.).C.j.j.",
"U.oX$X$XC.b.(.oX@ > y z M C d y > $ > y $ y s M 7.7.V V d l V V 5.7.C z j $ y 3 $ > y s V V z y > $ oXU.(.(.(.oX(.(.(.oX@X(.(.(.",
"(.oX@XoXC.C.C.C.$ > i z V V s j 3 > $ > $ y y d V V V s y y V V C M j y z $ > $ 3 > g g V V l y > $ oXC.C.).(.C.j.C.C.oXoXC.j.C.",
"j.j.j.i.i.j.j.j.a.O y z z V d s y > 3 & $ y z y z $ j V V V V s $ d r d z $ $ > 2 y z z V z s y @ `.(.C.C.G.C.C.C.C.C.C.C.j.j.j.",
"j.j.v.j.j.C.C.C._.(.$ y l z y $ $ $ $ $ $ y j d y $ z V V C A j   y d M z $ $ $ $ + $ y z z y $ C.C.j.u.j.C.C.C.C.C.C.C.j.C.C.C.",
"(.oX+XoX(.(.(.C.).G.$ y j g $ oX$ $ $ $ $ > y z z $ y z V A g y $ d A V i $ ` ` } oX[.$ z d y $ v.s.u.j.U.(.(.(.C.(.oX(.C.(.(.j.",
").$X$X(.C.C.A.C.u.u.$ > r d   (.:.` ` $ > 3 > z d $ y s V V z 3 $ z C V y O ` :.` ` C.$ d y > $ (.C.C.oXoXoX(.C.C.(.(.(.C.C.j.u.",
"(.(.(.j.u.j.C.(.j.j.j.  > y $ :.:.` ` $ 3 > > y y $ w V V z y > $ z C A $ } ` ;.` ` `   y > $ ].C.(.`.+XoXoXC.j.(.(.(.j.j.j.u.u.",
"(.(.C.p.j.(._.(.A.(.(.$X$ > $ :.} O.` $ > > y z $ y l C z z y $ y z z y $ ` ` ` :.} ` $ > $ C.v.u.b.(.(.(.C.C.l.C.C.C.j.j.j.j.j.",
"C.C.C.j.C.oXoXc.j.C.A.(.oX$ $ ` ` ;.O.$ 3 y z $ $ y j z z r > $ y y y > $ ` / ` ` ;.:.$ @ c.u.r.u.j.C.j.j.j.C.c.j.c.j.j.C.C.(.(.",
"C.(.(.j.C.(.j.w.&.$.r.x.C.j.` ` ` } O.$ $ j $ $ y j g d y > $ $ s s l y 2 $ ` ` ` ` ` ` G.C.j.j.C.oXoXC.C.C.(.(.C.C.(.C.C.x.C.(.",
"u.D.A.u.C.(.j.&.&.w.C.oX(.A.` ;.:.$   $ $ $ 3 y y y y y 2 $ $ $ z V V g > > $ O.` ` ` ` (.C.(.oXoXoXG.C.(.(.C.C.G.(.G.b.j.j.C.(.",
"c._.(.u.C.oXj.$.e.C.-X<XoX(.:.:.} ` $ > > > > 3 3 > > > $ ,.L $ z V C V y > $ O.:.` / ` G.F.(.oXoX(.C.C.(.(.l.C.F.(.C.C.C.(.(.oX",
"(.oXC.j.C.oXj.&.C.OX4X<X(.D.`.;.` ` } $ $ $ $ $ $ @ $ $ :.<.L $ y V 7.7.p y $ } ` ` ` ).].(.F.C.j.C.C.(.oXF.j.C.C.C.C.(.(.].(.oX",
"C.C.j.u.(._.C.u.(.$X>X@Xj.c.D.x.` ` / ` :.:.:.:.} O.` ` ` } H $ y d 7.7.z y $ ^ ` ` (.oXoX(.C.C.j.G.].(.(.F.l.c.(.G.C.C.C.C.x.j.",
"(.C.j.j.(.oX(.D.(.$X$XC.p.C.(.A.D.^ ^ ` } } ;.` / ` ` ` ` O.K $ 2 y f s > @ ` ^ O.F.(.F.).C.C.l.A.C.x.j.(.(.C.C.(.C.C.j.j.j.j.j.",
"(._.(.C.(.oX(.A.(._.(.C.j.A.oX(.).C.(.} :.:.` ` ` ` ^ ` ;.:.L F $ $ % $   } ` j.(.F.D.C.C.C.j.C.(.C.u.u.G.).D.C.C.C.j.j.b.C.C.(.",
"(.oX).C.A._.(.C.C.A.C.j.j.C.oXC.F.C.D.(.x.x.C.` O.` ` :.:.<.H F / 2.1.A.x.C.C.c.G.C.D.C.v.C.C.C._.C.j.C.(.C.c.C.(.C.C.C.(.(.oX(.",
"C.C.C.j.j.(.(.C.C.j.j.j.j.(.oX(.C.j.C.j.u.u.j.j.j.j.C.(.@X[.0.R A.5X<X(.C.C.C.C.F.(.(.C.j.j.C.C.].j.b.oX$XoXG.C.(.C.C.(.(.(.(.oX",
"].oX`.C.C.D.(.C.C.C.C.C.C.oX_.c.C.j.j.j.u.j.C.C.e.u.U.oXoXU.=.R C.5X<XF.C.(.C.(.(.C.j.j.C.C.C.C.(.C.C.{.oXoX(.C.oXF.C.(.D.(.F.(.",
"$XoXoXA.C.C.C.(.D.(.(.(.(.(.(.i.u.u.j.j.j.j.C.j.w.j.[.(.U.C.*.R j.1X-Xx.C.C.C.(.oXC.u.j.C.(.(.(.F.(.F.C.C.A.C.C.(.(.G.(.(.C.C.(.",
"oX(.D.C.C.c.C.(.oX(.(.(.C.(.C.u.u.j.C.C.C.(.(.j.C.[.$X(.G.v.*.T j.1X*Xl.c.j.C.(.oXj.u.C.].oXC.(.(.(.(.C.l.C.C.b.(.C.C.A.C.C.j.b.",
"(.C.C.C.j.j.C.(.oX).(.(.C.C.C.j.j.(.oX(.C.(.oXC.oXoX$XoXD.C.2.T C.5X<XC.C.C.C.(.].C.j.(.oX(.C.(.C.(.G.C.C.(.(.C.C.b.C.C.b.j.j.j.",
"C.C.l.C.C.C.(.(.(.D.C.C.(.C.C.j.C.(.oXC.j.(.oX(.(.oX$X(.(.(.0.T C.5X-XC.C.D.(.(.(.C.C.(.oXC.C.C.C.C.C.x.C.(.(.v.C.C.C.C.C.b.j.C.",
"(.C.C.C.(.A.(.).(.C.(.(.(.(.(.C.C.(.(.C.j.C.(.(.j.C.oX(.C.C.&.U C.2X-Xj.C.C.C.(.C.x.C.C.G.C.C.(.C.C.b.j.C.C.C.j.C.(.(.(.(.C.C.(.",
"(.(.A.C.C.D.(.C._.(.C.C.C.C.C.c.C.C.(.(.(.oXoX(.j.j.(.j.j.j.$.U c.4X-XC.C.C.C.C.C.j.j.j.C.C.C.(.C.C.b.C.I.C.C.(.F.G.(.oX(.C.C.oX"
};
