/* XPM */
static char *eu41680105316[] = {
/* columns rows colors chars-per-pixel */
"64 64 53 1 ",
"  c #05050F",
". c #050511",
"X c #0A0E1A",
"o c #1D131E",
"O c #0E1621",
"+ c #0E1822",
"@ c #1E1220",
"# c #131F2B",
"$ c #14202C",
"% c #1B2C36",
"& c #1B2B38",
"* c #2F2A27",
"= c #2F2F2F",
"- c #352D2B",
"; c #39312F",
": c #333333",
"> c #3D3533",
", c #3D3835",
"< c #3C3C3C",
"1 c #413936",
"2 c #443D3B",
"3 c #3E403F",
"4 c #154257",
"5 c #154259",
"6 c #454545",
"7 c #484647",
"8 c #474749",
"9 c #4D4D4D",
"0 c #504E4F",
"q c #4E504F",
"w c #50504E",
"e c #4F4F51",
"r c #4D4A5D",
"t c #514F50",
"y c #4F5150",
"u c #495058",
"i c #525252",
"p c #585856",
"a c #5A5A5A",
"s c #636363",
"d c #666867",
"f c #696768",
"g c #6B6B6B",
"h c #726B7D",
"j c gray44",
"k c #AF9A97",
"l c #B19997",
"z c #B29A99",
"x c #C4B59E",
"c c #C4B5A0",
"v c #E5E6C7",
"b c #E6E6C8",
"n c #FFFFFF",
/* pixels */
"9iiippiii9iie998iiiwpi778997ii<:idae99iipiiqwii8888wii77qapiy988",
"ippiiiii99pp9999ii98i9669wwqpi6:pga9iiii99988iiii9790989iapiii9i",
"ipie9ii999iaiiiiiiq8i9668999i93:yspeiii97898wipiii99ii9iapiiiiii",
"9i988i9i989iiipi9w98ii89iiq99y6<9sp9yii999i9iiiiiiwwii9iiiii999i",
"9ii78iii97qitqii8999w9qiaiiiii7:esa9ity9iiiwiiw9i99qii9w89ti989w",
"iii89wii99ii989889wwe9iiq99o@ooooooooii99yqiiiw99877q9898eipq9ii",
"9ii99qwii9ip0899iiii9iiiwoolxxxxxxxxzoo979iiwiw9q867wi99iippiiii",
"8i9iiiiii9iii9iiiiii9iipolxvvvbvvvvvvxzo79w9889qi97qppye9ipi89w8",
"iiiiiiiiiqiiiiiiiiiiiiiolxvvvnnnnnnvvvxlo9998999iqiipii9iiiwi999",
"iiii999iw99w999iii99iiioxvvvnnnnnnnnvvvxoiiq9989iiiiii999iqiii99",
"iiii9899989999iiit9899olxvvnnnnnnnnnnvvxlopii999ai989989iii9ie9i",
"ppi0999i9999tiiiwi999qozxvvnnnnnnnnnnvbcloq899qipi9999iipiieii99",
"piiewiiiiy99yi99e9e9iiolxvvnnnnnnnnnnvvxlo8779iiii99iipppiiiii90",
"pie99wiyii999ii9i99..iolxvvnnnnnnnnnnvvxlo9. iiiie9qii98iw99999i",
"9999999889ie990iie.X.iolxvvnnnnnnnnnnvvxlop.X.yiw89998679999999i",
"8899iq9779pi999ii.XO.iolxvvvnnnnnnnnvvvxlop.OX.i999tii99eiiii9ii",
"9iiiii999pai88ip.XOO.iohxxvvvnnvvnnvvvxxhoi.O+X.iwiippiiipaieiii",
"iiiiii99ipap99i.X#.O.iohkxxvvvvvvvvvvxxkh@i.O.$X 8iiiiteiapiii99",
"iiiiiw9iipiie9.XO$ #X.ohhlxxvvvvvvvvxxzhh@.X$.$OX.iiiii9ppe67999",
"iii99989999998.O$$ #X.iorhlxxxvcxvxxxlhro9.X$.$$O.ii9i99ii966999",
"9w99998898899 X+$.X$X.iorhhllxxxxxxzlhhro9.X$X.$OX.w9i8wwiwqipii",
"iii9i999yiiie.+$$.X$#X.iorrhhhhhhhhhhrrop.X$$X.$$O.q999iii99iiii",
"iiiiiiwipiiw.X$$X.$$$X.. oorrrrrrrrrroo...X$$$.X$$X.wi9ii97689ey",
"iiw9ii9ipiii.O$# X$$%$X.$+hooorvhrooohO$.X$%$$X.$$O.wiiiii879eei",
"ii89yq99iy9.XO#$.X$$%$X.&%$55$$$$$$55%%%.X$%$$X.$$+X.iieiii9ippi",
"ai89iiy9ii9.X+#$.+$$%%$X.$%5555$$5545%$.X$%%$$O.$$OX.iy99i989ii9",
"piwiiiyyii9.X+$$.O$$&%5$X..$%55$$55%$..X$5%&$$O.$$OX.iy999i99iii",
"i9999999wi9.X+$$.X$$%%%5$X..$%4$$4%$..X$5%%%$$X.$$OX.iy99y999iii",
"i98iiw87899.X$$$X.$$%&%%%554%%5$$5%%555%%%&%$#.X$$$X.yyyiii9iiii",
"989ii978iii.X$%$X.O$$%&%%%%%%$%$$%$%%%%%%%%$#O.X$%$X.99e0989iiii",
"<<67<,:<663.X$&$X.XO$%%$+... $%$$%$....O$%&$+X.X$%$X.:<63<<<<<<<",
"===:<:::,::.X$&$OX O$$%X.$$%5$%$$%$5%$$.X%$#O.XO$%$X.-::::::::::",
"889e7<7y099.X$%$$X.O$$#..O##%$%$$%$%#$O..$$$O.X$$%$X.90ii980w989",
"asggpiagjgg.X$%%$X.X@$$ $OOO$$$$#$$$OOO$ $$OX.X$%%$X.ggjggfggddf",
"assapadgsaa.X$$%$+X.+$$.O$%5&$$OO$$%5%$O.$$O.XO$%$$X.ssdssasssas",
"i99yippp989.XO$%%$X XO$.X%5554OOOO5555%X.$OX.X$%%$+X.i999999789i",
"989i978989i.XO#%%$OX XO.+%555%$OO$%555%O.OX.XO$%%$OX.ie99989779q",
"669i978i0wi.XO#%%$$XX.X.$$%55%%$$%%55%$$.X.XX$$&%$OX.iw07899q989",
"79iiieipii98.O$$%$$OXX..#O$%%%$OO$%%%$O$..XXO$$&$$O.00wi99iiii99",
"yiaaieiiiiiiw +$$O......$&O$.$%&&%#.$O$$......O$$O.iiiiiwwiipiiw",
"ippii99w8999i.O$$.9.....O&%O.$%%&%$ O$%$.9iiip.$$X.w9ii999iii999",
"89988989989wi.XO$.99o@u.X$$$.O$&%$O.$%%O.>889i.$+X.q9ei9i99ii989",
"89q989w9iiippi.X+.i9>>o..XOO.O$%%$O.$%%X.>1>9e.OX.889ey9qwi99999",
"ippiiiiii99ii98.X.i>>1.XXXOO.O$&$OX $%O.1>1>>i.X.978iiii9iiiiii9",
"iapiwwq98769t88i..>>>>.XXOO.O$$&$O.O$OX.>>>>>>..i9tippieiii99w97",
"iii989ii989ii99ii>;>>>.XXOO.O$$#OO OOOXX >>>>11tiwpppii9iii98976",
"iiy89iitiiiaaitii1>>>>.OO$.O#$#OOX.#$#OXX.>>1>>989iiiw99wwq99898",
"ii98ipi98eiiii99i11>>>..$5.O$$O+X..#%%$XX >>1>;669ee989989999wii",
"9ii8ii86<<6999909,>>>>>...OOOOOX.2.+%55OO.;>1;>99ppewiii99i999ii",
"7iw8ii93<60ii0wipi>;;;..XXXXXXX.>2.O%55#O >>>1iiipieii9iiiq9980i",
"9pi7qi8<30sspiipw98>;>>>.. ... ->2.XO&$X.>>>10iiii99ii99ii99iiip",
"iiw8wi9<9adsiiii999i,1,1,>>,,1-->22.....>>>1iwiw99eiii9999iiiiii",
"q988ii98iasp9999i89wip1>>>>;11--;22>>>>>>>iiii0q9iiiiw98iwiwi999",
"iy98ipitippi89iiw88wiii999;>;>-->2,>>>i999iiii999e99iiw9iw988998",
"iiieipiiipi98iiiieiiiiii998iip6:7da9iiw9iiiq9999i978iiw999899iwi",
"ipiiiiiwei998iiii9iq99qqi99ipp<=8fs99q9890t999q9ii89iq8iii9iiiii",
"9iy99wi999889ipi9999767998eppi6:0gsi0999iii99999i99iaii9i9iiiiii",
"iii99ii099iiiii9q899779967ipii<:9gswwiiiiy9899iii9iipiiiii9iiiii",
"apiiq0iiiiiiiii977898qq968iiit<:8da99iqip978qiiiiii9iiw9iiiiiiii",
"aii999qiiiiiwi9879i9qii99ipi99<=8ds7999wp970iiiiiii99999ii999989",
"i999980iiiiq99988iiieipiipapiw<:9gs9999ii99iii9ieii9iii9999w9899",
"t99999iii9iiiii9eipi9ypiipapii6:9fsi9iiii99ipi9w99999ii999ii9999",
"itytiiiiiiiiiii9tiie9epi9epyi9<:9da999tii99iieeii9999998iiiiiiwi",
"iiy99iiiii0q90w9ytiiiiii89ee87<:8ds999i9w988999i9999i9iii9iii9ii"
};
