/* XPM */
static char *eu51680105317[] = {
/* columns rows colors chars-per-pixel */
"64 64 57 1 ",
"  c #05050F",
". c #050511",
"X c #070D19",
"o c #0A0E1A",
"O c #0E151F",
"+ c #1D131E",
"@ c #0E1621",
"# c #101622",
"$ c #1D1220",
"% c #141F2B",
"& c #14202C",
"* c #1B2C36",
"= c #1B2B38",
"- c #2F2F2F",
"; c #342C2A",
": c #37322F",
"> c #39312F",
", c #333333",
"< c #3D3533",
"1 c #373739",
"2 c #393738",
"3 c #3C3C3C",
"4 c #403635",
"5 c #413937",
"6 c #433C3A",
"7 c #154257",
"8 c #154259",
"9 c #454545",
"0 c #484846",
"q c #4D4D4D",
"w c #504E4F",
"e c #4E504F",
"r c #51514F",
"t c #4F4F51",
"y c #4D4A5D",
"u c #514F50",
"i c #4F5150",
"p c #495058",
"a c #525252",
"s c #565857",
"d c #595957",
"f c #595758",
"g c #5A5A5A",
"h c #61615F",
"j c #5F5D60",
"k c #636363",
"l c #696768",
"z c #6A6A6A",
"x c #726B7D",
"c c gray44",
"v c #736B80",
"b c #B19997",
"n c #C4B59E",
"m c #C4B5A0",
"M c #E5E6C7",
"N c #E6E6C9",
"B c #FFFFFF",
/* pixels */
"qaaafsaaaqaaqqt0aattda000qq0aa3,alhqquaasaaqtut0q0qtaa00ugsuut0q",
"affaaaaaqqafa0qtaaq0aq99tttqaa01algqiaaa0qqqquautq00aq00sgsaaaqt",
"aaaeaaqqqqagaiaaaaqqaq09qqt0ee32akfqtaaq0q0qtasaatqqaaqtfgaaaata",
"qat00qaaq0taaafaqtq0at0qsaaqqq91qksqaaiqqtiqiasuaataaaqaaaattqqa",
"qaq0qiaat0qaitaa0qqqaqqafaaaaa91qkgqqaqquaiaaaa0atqtaatt0qaaq0qt",
"aaaqqtaaq0asq00q0qatqqaat0qaaa9,0jfqiaatqaauaaaqq090tq0qqqasqqaa",
"qaaqqqaautafq0qqaaaartaat0$+++++$+++aaaq0qatuaaqq000auqqqafftaaa",
"qqaqaaaasqaaataaaaaaqasa$+bmmnmnnnnb+$aq9qtqq0qqaq0tsstutasa0qa0",
"aaaaiaaatqaaaiaaaaawaaa$bnMMMMMMNMMMnb+00qqq0q0qitaafauqaaaqaqqq",
"aaaaqqqauqttqqqaaauqaa+bnMMMBBBBBBMMMmb+qaaawqqqaaaaaaqqqaauaaeq",
"aaauqqqqqq0qqqaaatqqqt+nMMMBBBBBBBBMMMn+afsaaqqqgaq0qq0qaaaqaaqa",
"ffaqqqqaqqqqqaaaaqqqq+bnMMBBBBBBBBBBMNnb$ut0qqqafaqqqtuasaatquqq",
"fsaeqaaaaaqqaaqqqqtqq+bnMMBBBBBBBBBBMMmb$0090qaaaaqeaassfaaaaaqq",
"aaqqqtaairqqqaaqatqqa+bnMMBBBBBBBBBBMMnb+qqquiuaatqqatqqiaqqqaqa",
"qqqqqtq00qaawqtaaq..a+bnMMBBBBBBBBBBMNmb+f  saaat00tq0090aqqqqqa",
"q0qeutq00taaqqqaa.o a+bnMMBBBBBBBBBBMMnb+a.O.aasqqqaaaqqtaaaaqaa",
"qaaaaaqqqdga0qif.o@.a$bnMMMBBBBBBBBMMMnb$a.@o.aaaaaaafaaaffaaaaa",
"qaaaaaqqafgaqqa.o@@.a$xnnMMMBBMMBBMMMnnx+q.@OO.aq0aaaaeaagsaaatq",
"aaaaatqaasaaqq.o& @.r+xbnnMNMMMMMMMMnnbx+q.@.%o.0qaaaaqqsaa00q0q",
"aaaqqq0qqqqqq.X@&.&o.+vxbnnMMNMMMMMnnbxx+.o&.%@o.0qaraqqaa000qqt",
"qtqqq00q0qqqi.@&&.%o q+yxbnnnMnnMnnnbxy+a.o&.&&@.qqeqaqqaatqasaa",
"aaaqatqqiata.X@&.o&o a+yxxbbnnnnnnbbxxy$s.o&o.&@o.aaqwqattqqaaau",
"aaaaaatafaai.@&&.o&%O.a+yyxxxxvxxxxxyy+a.o&&o.&&@.aqritaat090qtt",
"aatqaaqaaaa O&&o.&%%o...++yyyyyyyyyy$+...X%&&.o&&o.taaiaaaq0qqaa",
"aa0qaeqqeaq.@&&.o&&=&o.@@x+++yMxy+++v@@.o%*&&o.&&@.qaaaaaatqagfa",
"ga0qaaaqaa.o@&&.o%&*&o.**&88&&&&%&88%**.o%*&&o.&&@o.aaq0qtq00aat",
"fataaaaaar.o@&&.@&&**&o.&*8888&&8888*%.o%**&&@.&&@X.aaaqqqrqqiaa",
"iqqqqq0qwa.o@&&.@&&==8&o..&*88&&88*&..o&8**&&@.&&@O.aaaqqaaqqaaa",
"aq0aaa090q.o@%&.o&&**=8%O .%*8&&8*&..o%8***&&o.%&@o.eqeaaareaaaa",
"qqqra099aa.X&&&o.&%*****787**8&&8**888*****&&.o%&&o.qqqquq0qaaaa",
"1199311309.o&*&o.@&&**=*****%*%&*&********&&@.o%*&o.113333133333",
"--,211,222.X&*%o.o@&**&@....%*%%*&....#&**&@o O&=&o.,,,21,,,2,,,",
"q0qq939tqq X&=&@o.@&%*O.&&*8&*&&*&8*&&.o*&&@.o@&*&o.qqqaaqqteq0q",
"gkzlaajzcl.o&=&&o.@%%% .@&&=&*&&*&*&&#. &&&@ o&&*&o.llzczllzzkll",
"gjkhfglzkj.X&=*&o.o@&&.&@@@&&&&&&&&###&.%&@o.o&**&o.hkklkjhkkjjk",
"iqqiafgs00.O&&*&@o.@&&.@&*8*&&@@&&*8*&#.&%@.o@&*&&o.aaqqiq0q00qi",
"q0tiq00q0w o@&**&X.o@&.X*8888@@@@8888*o.%@o.o&**&#O aaqqqqq000qi",
"09taq00tip.o@&**&@X.O@ @*888*&@@&*888*@.@o.o@%**&#o.uaiu00qeiq0q",
"00iaawadfa.o#&==&%oO.X.@&*88**&&**77*&&.o.oo%&*=&@o.qtwaqqqaaat0",
"tsggaqaarar.@&&=&%@XX .&@&***&@@%***&#&..oo@&&*%&#.aaaaaatasfaap",
"asfsttttqqqt.@&&@.....@&*O&.&****&.%@*&@.....@&&@.attaaqqqaaaiqq",
"0qq0000qq00i.@&&.+p+pp.@**@.&****%.#**@.0qq0q.&&@.atqitqtqqaaq0q",
"qqtqqqtqaaaa.o#&.a+py+.@&*&.@&**&&.&**o.qatqq.%@o.000iatqauqqqtq",
"assauaauatqaa.o#.aa+ppp.&*&.@&*=&@.&*@o.<aaua.@o.q0qaaaaqaaauaaq",
"sggaqttq909qa0.o.qq$+p+ o@@.@&&*&@.@@o.4<<<qa.o.tqtafsattaatqtq0",
"aaaq0quaqqqaaqq..t<<<+ Oo@@.@&%*&.@@@oo.<<<<a..ituaffaiqaaaq0q09",
"aaq0qaaaaaaffataa<<<> oo@&&.@&&%&.&&&@oo.<<<5aqq0qaaaaqqtaqq0qq0",
"tut0ifaq0qaasaqu<<<<< oo&**.@&&&#.&**&oo.<<54<0900ti0qqt00qqttaa",
"qaaquaq9310qq0qa<<<<<.@@88*.@&&@o.@*88@@.<<<<<qqtafutaaaqiqwqqaa",
"0tt0uaq339esaeaa54<,>.@&88..&%Oo..@=88%@.><<<<aassataaquaaaqq0ia",
"taa0taq39ijjsaasu<<<>>... @#@oX.<.o@*&o.<<<<<aaaaaqqaaqqqtqqaaaf",
"aat0ts03qflkaaaaq0<<<55..ooooo.;<6.....<<<<5aaarqqqaaaqqqaaaaaaa",
"tq00asq0agkfqqtqa0q<4644<  ...;;<66<<5<<<<<aaaaqqaaaatq0aiuaitqq",
"aaq0aaatafsu0qaqqq0tu<<<<<<<<<;;<55<<5<<<qaaaaqqqaqqaaaqatq00qq0",
"aaaaaaaaasaq0aaaaqaaasauq<<<<5:;<66<<aa0aaaaqqqqaq00aatqtq0qqaat",
"aafqasautaqqqaaaaqatqqtaiqqaaf3,0lhwqqqqqeeqqtqqaa0taqqqaqqaaaaa",
"qatq0aaqq0q0qafatqqq090qq0aaga3,alkitqqquaaqqqqqaqqsgaaqaaeaaaaa",
"aaaqiaaqqtaataaqt00q00qt90assa3,qlkitaaaauqqqqataqqafaaaatqaaaaa",
"gfaatuaaaaaaaaaq00q00tu090aaaq320lgqqaqasq0qtaaaaaaqaiuqaaaaawaa",
"saaqqqaaaaaataq00quutpaqtafaeq3-qkhq0qqaaq0taaaaaaaqqqqqaaqwqqqq",
"aqqqq0qasaaaqqt00asauasaafgaat3,qlkqtqiaaqqaaaqaaaaqaaaqqqqiq0qq",
"aqqqqqaaaqueaaaqqaaaqufaasgsaa9,ilhiqaaaaqqaaaqaqqqqqaaqqqaaqqqq",
"aqaqaaaaaaaaaaaqaaaqqtaaqtsaiq3,qkjqqaqaaq0aaaqaaqq0qqq0aaaaauia",
"aaaqqaawaaaqqtqqtaaaaasa0qaqq01,qlhqqqquiq0qqqqatqqutiaawtaaaqaa"
};
