/* XPM */
static char *eu61680105317[] = {
/* columns rows colors chars-per-pixel */
"64 64 254 2 ",
"   c #05050F",
".  c #030511",
"X  c #040410",
"o  c #050511",
"O  c #060411",
"+  c #050412",
"@  c #070512",
"#  c #060612",
"$  c #070D19",
"%  c #090D19",
"&  c #0A0E19",
"*  c #0B0D1A",
"=  c #080E1A",
"-  c #0A0E1A",
";  c #0B0F1B",
":  c #0A0D1C",
">  c #080E1C",
",  c #1C121B",
"<  c #1B131E",
"1  c #1D131C",
"2  c #1C121D",
"3  c #1D131E",
"4  c #1E121E",
"5  c #0D1520",
"6  c #0F1521",
"7  c #0D1720",
"8  c #0D1721",
"9  c #0E1720",
"0  c #0E1621",
"q  c #0F1722",
"w  c #0E1623",
"e  c #101622",
"r  c #1B1320",
"t  c #1D1220",
"y  c #131F2B",
"u  c #151F2B",
"i  c #13212A",
"p  c #12202B",
"a  c #14212A",
"s  c #13212C",
"d  c #14202C",
"f  c #15212D",
"g  c #16202C",
"h  c #14222D",
"j  c #14202E",
"k  c #1A2B35",
"l  c #1D2B36",
"z  c #1B2C34",
"x  c #1A2C36",
"c  c #1B2C36",
"v  c #1C2D37",
"b  c #1E2C37",
"n  c #1B2B38",
"m  c #1A2C38",
"M  c gray18",
"N  c #2F2F2F",
"B  c #322A28",
"V  c #342A29",
"C  c #362E2C",
"Z  c #372F2D",
"A  c #37322F",
"S  c #38302E",
"D  c #39312F",
"F  c gray19",
"G  c #313131",
"H  c #323232",
"J  c gray20",
"K  c #343233",
"L  c #353336",
"P  c #343434",
"I  c #353535",
"U  c gray21",
"Y  c #373737",
"T  c #3A3230",
"R  c #3B3331",
"E  c #3D3332",
"W  c #393431",
"Q  c #3A3532",
"!  c #3B3633",
"~  c #3C3431",
"^  c #3C3432",
"/  c #3D3532",
"(  c #3D3533",
")  c #3E3433",
"_  c #3E3633",
"`  c #3D3435",
"'  c #3E3634",
"]  c #3F3735",
"[  c #3E3536",
"{  c #3D3835",
"}  c #373739",
"|  c #393738",
" . c gray22",
".. c #393939",
"X. c #3A3A3A",
"o. c gray23",
"O. c #3B3D3C",
"+. c #3C3C3C",
"@. c gray24",
"#. c #3E3E3E",
"$. c #3F3F3F",
"%. c #403635",
"&. c #403836",
"*. c #413937",
"=. c #423A38",
"-. c #433B39",
";. c #443A39",
":. c #453D3B",
">. c #403E3F",
",. c #463E3C",
"<. c #154257",
"1. c #144158",
"2. c #144059",
"3. c #144259",
"4. c #154259",
"5. c #15415A",
"6. c #16435A",
"7. c #414141",
"8. c gray26",
"9. c #434343",
"0. c #454344",
"q. c #444444",
"w. c gray27",
"e. c #474745",
"r. c #454547",
"t. c #464646",
"y. c gray28",
"u. c #484846",
"i. c #484848",
"p. c #494949",
"a. c #4B494A",
"s. c gray29",
"d. c #4B4B4B",
"f. c #4A4C4B",
"g. c #4C4C4A",
"h. c #4D4D4B",
"j. c #4C4E4B",
"k. c #4B4B4D",
"l. c #4B4D4C",
"z. c #4C4C4C",
"x. c gray30",
"c. c #4E4C4D",
"v. c #4C4E4D",
"b. c #4E4E4C",
"n. c #4F4F4D",
"m. c #4C4C4E",
"M. c #4D4D4F",
"N. c #4F4D4E",
"B. c #4E4E4E",
"V. c gray31",
"C. c #504E4F",
"Z. c #4E504F",
"A. c #50504E",
"S. c #51514F",
"D. c #50524F",
"F. c #4E4E50",
"G. c #4F4F51",
"H. c #4C4B5B",
"J. c #4B4F58",
"K. c #4C495C",
"L. c #4D4A5D",
"P. c #4C4B5D",
"I. c #4D4A5F",
"U. c #4F4A5E",
"Y. c #4D4C5E",
"T. c #514F50",
"R. c #4F5150",
"E. c #495058",
"W. c #485158",
"Q. c #4A5159",
"!. c #505050",
"~. c #515151",
"^. c #525051",
"/. c #505251",
"(. c #525250",
"). c #535250",
"_. c #505052",
"`. c #535152",
"'. c #515352",
"]. c gray32",
"[. c #535353",
"{. c #545253",
"}. c #525453",
"|. c #555553",
" X c #535355",
".X c gray33",
"XX c #555555",
"oX c #545655",
"OX c #565654",
"+X c #555557",
"@X c #565656",
"#X c gray34",
"$X c #565857",
"%X c #595957",
"&X c #595758",
"*X c #585858",
"=X c gray35",
"-X c #58585A",
";X c #5A5A5A",
":X c #5B5B5B",
">X c gray36",
",X c #5D5D5D",
"<X c gray37",
"1X c #5F5F5F",
"2X c #5F5D60",
"3X c #606060",
"4X c gray38",
"5X c #606261",
"6X c #616163",
"7X c #626262",
"8X c gray39",
"9X c #646464",
"0X c #656565",
"qX c gray40",
"wX c #676767",
"eX c #696768",
"rX c #686868",
"tX c DimGray",
"yX c #6A6A6A",
"uX c #6C6C6C",
"iX c #6D6D6D",
"pX c #6F6F6F",
"aX c #716A7C",
"sX c #726B7D",
"dX c #726A7F",
"fX c #706C7D",
"gX c #736C7E",
"hX c gray44",
"jX c #736B80",
"kX c #B09896",
"lX c #B19997",
"zX c #B29897",
"xX c #C3B49D",
"cX c #C2B69E",
"vX c #C4B69C",
"bX c #C4B59E",
"nX c #C5B59E",
"mX c #C5B69F",
"MX c #C4B5A0",
"NX c #C5B6A1",
"BX c #E3E6C7",
"VX c #E5E4C6",
"CX c #E4E5C6",
"ZX c #E6E5C6",
"AX c #E5E6C6",
"SX c #E5E6C7",
"DX c #E5E5C9",
"FX c #E6E7C8",
"GX c #E6E6CA",
"HX c #FFFFFD",
"JX c #FEFEFE",
"KX c #FFFEFF",
"LX c #FEFFFF",
"PX c white",
/* pixels */
"B.[.[.#X#X#X[.[.[.d.B.[.B.d.B.d.B.[.B.B.#X[.d.d.d.B.B.t.B.Z.@.K [.eX,Xk.z.C.#X[.#X#XB.B.B.[.B.d.d.d.d.B.[.[.t.8.[.;X#X[.B.B.d.d.",
"[.#X#X[.#X[.B.B.B.d.#X;XB.d.d.B.[.#Xg.d.[.B.8.8.d.B.[.B.#X#X8.o.|.wX,XB.B.[.[.B.d.d.d.d.B.B.[.B.B.d.t.d.B.B.d.d.#X;X#X[.[.B.B.B.",
"B.#X[.d.B.[.B.B.B.B.[.;X[.B.[.[.[.[.d.d.[.B.q.8.d.B.B.d.G.B.@.} [.4X;XB.Z.[.[.d.t.d.d.d.B.[.#X[.[.B.d.B.[.B.B.B.#X#X[.[.[.B.B.#X",
"B.[.B.t.d.B.B.B.B.t.B.[.[.[.#X[.B.B.d.d.B.G.d.d.#X[.B.d.B.R.8. .d.4X;Xk.[.[.R.d.B.B.B.B.[.[.#XB.[.[.B.[.[.[.B.[.[.[.[.B.B.B.d.[.",
"d.[.B.d.d.B.[.[.B.t.d.[.B.[.[.B.t.d.d.k.G.B.B.B.;X[.[.[.[.oXr. .B.4X;XB.B.[.B.d.[.B.[.[.[.#X[.d.[.B.B.B.[.[.B.B.d.d.B.[.B.d.d.B.",
"B.[.B.d.B.B.[.[.d.d.[.[.d.t.d.d.d.B.B.S.B.B.B.R.B.t.B.[.[.[.8.G d.,X#XB.B.[.[.B.B.C.[.B.[.[.B.d.d.d.8.d.B.B.d.d.d.d.#X#XB.B.[.B.",
"B.[.[.B.B.B.B.[.[.d.[.#Xd.d.B.d.[.G.[.[.S.B.[.[.B.d.t 2 , 2 2 2 2 2 2 t B.#X[.B.i.B.[.B.B.B.B.B.B.d.8.t.[.B.d.B.B.B.;X#XB.[.[.B.",
"d.B.B.[.[.[.[.[.#XB.[.[.[.B.[.[.[.[.[.[.B.[.#X#X2 2 kXnXbXbXMXbXnXnXnXzX2 2 [.k.t.z.B.B.i.d.B.B.B.d.d.B.#X#X[.B.B.[.#X[.d.B.B.d.",
"B.[.[.[.[.B.B.#XB.B.[.[.[.B.[.[.[.[.S.B.[.#X$X2 kXnXSXSXSXSXSXSXSXFXSXSXbXkX3 u.i.B.B.d.d.d.d.g.B.B.B.#X#X#XB.B.[.[.[.B.[.B.B.B.",
"[.[.[.[.B.B.B.B.B.B.B.B.B.d.B.[.[.[.B.B.G.T.3 lXnXSXSXSXJXJXJXJXJXJXSXSXSXMXlX3 B.oX[.B.B.B.d.d.#X[.[.B.[.[.B.d.B.[.[.B.[.B.B.B.",
"#X[.[.B.d.d.B.B.B.d.d.B.B.B.B.[.G.G.k.d.c.G.2 nXFXSXFXJXJXJXJXJXJXJXJXSXSXSXnXt [.;X#X[.[.B.d.g.;X[.B.d.d.d.d.d.[.B.B.B.[.[.B.B.",
"#X#X[.B.d.B.B.B.B.d.d.d.B.[.[.[.[.B.c.d.f.2 kXnXBXSXJXJXJXJXJXJXJXJXJXJXBXSXnXlX2 B.B.d.d.B.g.[.#X[.d.d.B.B.B.[.#X#X[.B.B.B.d.B.",
"#X[.[.B.B.[.[.#X[.[.B.d.B.[.B.B.B.B.B.B.[.t lXnXSXSXJXJXJXJXJXJXJXJXJXJXFXSXMXlX2 t.t.t.d.z.T.|.#XB.B.B.[.#X#X#X#X#X[.B.[.[.B.B.",
"[.[.B.B.B.B.B.[.B.B.B.B.B.B.B.B.S.B.B.B.[.2 lXnXSXSXJXJXJXJXJXJXJXJXJXJXSXSXnXlX2 B.B.B.C.B.B.[.B.B.B.B.B.B.d.d.B.B.B.B.B.B.d.[.",
"B.d.d.d.B.B.d.d.d.d.B.B.B.B.[.B.G.B.o o [.2 kXnXSXBXJXJXJXJXJXJXJXJXJXJXSXFXMXlX2 $Xo o #X[.B.[.B.d.d.B.B.d.t.8.B.B.B.d.B.B.B.[.",
"d.d.B.B.[.B.d.t.t.B.#X[.B.B.B.[.[.o - o }.2 kXnXSXFXJXJXJXJXJXJXJXJXJXJXSXSXnXkX2 #X  - o #X[.#XB.B.d.B.[.[.B.B.B.[.[.B.[.B.B.[.",
"d.B.[.[.[.B.B.B.d.#X;X[.t.d.[.#Xo - e o |.2 kXnXSXSXSXJXJXJXJXJXJXJXJXSXSXSXbXkX2 [.o q - + #XoXB.B.#X[.[.#XB.S.[.;X%X[.G.S.[.[.",
"B.[.[.[.[.B.d.B.[.#X;X|.d.B.[.o - 5 5 o #X2 sXnXvXSXSXSXJXJXSXSXJXJXSXSXSXnXbXsX2 G.o 5 ; - X [.g.d.[.[.[.#XB.[.#X;X#X[.[.[.B.d.",
"[.#X[.[.[.B.B.B.#X#XoXC.B.d.+ - y o 5 o Z.2 sXkXbXnXSXFXSXFXFXSXFXSXBXSXbXbXlXsX2 l.o 5 + d - o d.t.B.[.[.[.B.l. X#XB.t.t.d.d.d.",
"[.[.B.B.B.d.d.d.B.g.f.B.d.o $ 5 p o d ; o 3 jXgXkXbXbXSXSXFXSXSXSXSXBXbXbXkXgXsX2 o - h o d q -   d.[.B.B.S.B.B.[.[.d.8.t.B.B.B.",
"B.[.B.d.B.d.t.d.d.d.d.B.[.o 5 y h o u - o B.2 H.sXkXbXbXbXBXbXnXSXnXbXbXkXsXP.2 [.o - y o d d e X k.B.B.B.[.g.B.B.[.G.B. X#X[.B.",
"[.[.B.B.[.B.d.d.Z.B.B.[.o - 5 h + : h - o C.2 L.sXgXlXlXvXbXbXbXnXnXkXkXsXsXL.t ;Xo - y - o a 5 - + [.B.B.B.B.B.S.[.B.B.[.#X[.S.",
"[.[.[.[.[.[.[.B.#X X[.[.o 5 h p o - y u - o #X2 L.L.sXgXfXgXjXgXgXsXgXgXL.L.2 #Xo - p d - o d d 5 o S.B.B.R.G.[.[.B.t.q.u.B.B.B.",
"B.[.B.B.B.[.B.[.#X[.[.o - a h - o y h u - o o o 3 2 L.L.H.L.Y.L.P.L.L.L.2 2 + o o - y d a o - d a - o [.G.[.S. X[.[.d.t.d.B.G.[.",
"#XB.d.B.B.B.B.B.B.B.B.o q d d o - h y x d - o d 5 sX2 2 t Y.FXgXL.2 t t jX5 - o : d x d d ; o d d 5 o B.[.#X[.B.[.[.B.B.[.;X#X[.",
";XB.t.d.[.[.[.d.[.[.o - 5 f d # - u u x d - o n d v 1.1.d d d d d p 1.6.d x v o : u x d d - o d d 5 - o B.[.B.d.k.B.d.d.d.[.[.B.",
";X[.[.B.[.[.[.B.[.S.o - 5 d d o 5 d h m l d - o a v 6.1.1.1.d d 1.1.1.1.x d o - u x x d d q o d d q $ o {.|.[.B.g.B.B.g.d.[.[.B.",
"B.B.B.B.d.d.d.d.B.[.o - 5 d d o w d d n v 1.d - o o d v 1.1.d d 1.1.v d o o - d 1.x v d d 5 o d h 5 -   [.R.B.B.B.[.G.B.B.B.[.[.",
"B.B.d.B.[.B.d.t.d.B.+ - 5 d d o - d d v x v 1.a - o o a x 1.d d 1.l d o o ; d 6.x x x u d - o d d 5 ; o Z.B.B.[.[.[.[.B.[.[.#X[.",
"B.d.B.[.[.B.t.t.[.{.  - d d d - o d d v v m v v 1.1.1.x v 1.d d 1.x v 1.1.1.v x v x l a d   : d d d : o d.d.f.B.B.d.d.B.G.[.[.B.",
"Y o.8.t.@.Y Y o.8.0.o - d x d - o 5 d d x x x v m x v v u x u y v d v z l v v x v x p h e o - d v d - o o.o.@.@.@.o.o.o.$.$.@.@.",
"M M G Y Y Y G Y Y Y o $ d x d - o - 5 d l l d 5 o o o o h x u h x d o o o o 5 a x x d 5 -   - h n d - o J J G L Y G G G Y G M G ",
"d.t.g.B.q.O.8.B.B.k.+ - d n f 5 - o 5 d d x - o d y v 1.d v d d v a 6.n u h o - x d d 5 o ; 5 d v d ; o B.B.B.[.[.d.d.B.B.d.d.d.",
";XwXiXtX#X[.2XiXiXuXo - d v d d - o q d d d o o 5 d d v d x d d v u v d u w o o d d d 5 o : d d v d - o wXtXtXhXuXwXtXiXiXwXwXwX",
";X,X4X4X;X;XwXtX4X2Xo - d m x d - . - 5 d d o d e 5 5 d d h d d u d u 5 5 5 y o d d 5 - o ; a x v d - o ,X9X4XwX4X,X4X4X4X,X,X4X",
"[.d.d.B.[.#X;X#Xd.d.o - d d x d 5 - o 5 d d o 5 d m 1.x d d q q d d x 1.v d 5 o d d 5 o ; 5 d v d g ; o [.[.B.B.B.B.d.d.d.d.d.[.",
"B.d.k.[.B.t.d.d.t.B.  - 5 d v l d - o ; e d o - v 1.1.6.1.5 e 5 q 1.1.6.1.x - + u 5 : o - h x x d 5 ;   #X[.B.d.d.d.r.d.r.d.d.B.",
"t.8.B.[.B.t.t.[.B.[.  - e d v x d e : o - 5 o 5 x 1.6.1.x u q 5 d v 1.1.6.n 5 o e - o - 5 u l v d e - o B.[.G.B.d.d.d.B.B.d.d.B.",
"t.t.B.#X[.B.[.#X#X[.o - q d v m p h ; ; o - o a d x 1.6.v x d a v v 1.1.v d 5 o - o - - y u x n d 5 ; o B.B.B.[.d.d.B.[.[.B.d.d.",
"S.#X;X;XB.c.[..XB.[.S.o 5 d d v d h 5 - - o o a 5 d v v v d 5 5 d v x v d 5 d o o - - 5 y h x y d 5 @ {.[.[.[.[.[.B.[.#X#X|.[.[.",
"[.#X*X#XB.B.B.B.d.d.d.B.o 5 d d 5 o o o o o o a a 5 d o d v x v v y . d 5 d d o o o o o o 5 d y 5 o #XG.B.[.[.l.g.B.G.#X|.B.d.B.",
"d.d.d.u.r.d.d.g.d.d.d.B.o 5 d d o [.B.2 W.W.o u v d 5 o d v v x x u o 5 d h 5 o o o o o B.o d h 5   [.g.g.G.G.B.B.B.B.B.B.k.d.d.",
"d.d.k.d.d.g.B.B.[.G.B.#X+ - 5 p o #X2 E.2 E.o 5 x x d o 5 d v v f 5 o d d d : o ' B.C.B.B.o y 5 - o d.t.d.B.G.G.B.B.[.B.d.B.B.B.",
"[.#X#X#X[.[.[.G.[.B.B.[.#Xo - q o [.B.t E.J.o ; v v d o 5 d m v d 5 o d d 5 o o ' ' ' [. Xo 5 - + d.t.d.[. X[.[.B.[.[.[.B.[.[.d.",
" X;X;X[.B.B.B.B.t.t.t.B.S.t.o - o B.E ^ t E.E.o 5 v d o ; 5 d x d w o q 5 ; -   ' E E '  Xo - o B.B.B.#X#X#X[.B.B.[.#XS.B.B.g.t.",
"[.|.[.d.t.B.B.[.d.d.d.[.|.B.d.X o ' R ^ 3 2 Q.o - q d 5 o 5 d v d d 5 o d d - ; o ^ R E ^ o X [.[.B.[.;X;X XB.d.[.[.[.k.d.d.t.t.",
"S.[.B.r.d.[. XS.B.[.[.;X;X[.T.#X' ' ' ^ E ^ o ; : d d 5 o q q d d d 5 o m x 5 - o ' ' ' ' ' B.c.t.k.[.[.S.[.B.k.B.B.B.d.d.d.d.d.",
"B.G.B.d.B.#X#XB.d.B.G.[.#XB.d.B.! ' &.%.^ o ; - q g d d o - 5 5 d d d q o v d q o ' ' ' ' ^ t.0.t.d.B.d.d.d.g.d.d.d.d.d.B.B.[.[.",
"B.[.[.d.B.[.d.8.+.o.q.B.B.d.B.B.^ ^ ' ^ ^ o - - d v v d o o - 5 e d d 5 + h - - o E ^ ^ ' R d.d.B.#X#XB.g.B.[. XB.B.[.B.B.g.G.[.",
"t.S.B.t.B.[.d.@.@.8.[.$X[.B.[.[.&.' ' D D o q 5 1.6.v 5 o %.o - 5 e 5 5 5 o . o ^ ! R ^ ^ R S.#X#X#XS.B.[.[.B.B.[.[.B.d.d.d.B.[.",
"d. X[.t.B.#Xd.o.8.[.,X2X#X[.[.#X[.R ^ R D o 5 d 1.<.v 5 o =.D o - - - - - - - o o ^ ^ ! ' [.[.#X#X[.d.B.[.[.B.k.B.B.B.B.B.S.[.#X",
"[.#XB.d.B.#Xd.@.B.;XwX4X[.B.[.[.B.d.^ ^ ' =.o - d v 5 - o &.S B o o + o o o o ^ ^ ' ^ ' [.[.C.B.d.B.B.[.#XB.d.B.B.B.[.[.[.[.[.#X",
"B.B.d.t.[.[.B.t.[.;X4X;Xd.g.B.B.B.d.d.^ &.&.&.o o o o o R ^ Z B E :.=.^ ^ &.' ^ ^ ^ ^ #X#X[.B.B.d.[. X[.[.B.B.d.[.S.B.B.B.B.B.d.",
"[.B.d.d.[.#X[.S. X%X;XB.t.B.[.B.Z.d.d.B.[.' ^ R ^ ^ R ! ^ ' Z B ! :.=.^ ^ ' ^ ! ^ [.[.[.[.G.B.d.B.B.d.d.[.[.B.B.[.B.B.d.d.d.d.d.",
"[.|.[.B.[.#X[.B.[.#X[.d.d.G.#X[.[.B.[.#X[.[.[.[.B.! R ^ ' &.Z B R :.;.^ ^ [.B.d.[.S.B.B.B.k.d.B.B.B.t.t.S.[.B.B.B.B.d.d.k.B.B.[.",
"[.#X[.B.B. X[.B.B.B.B.d.d.B.#XB.B.B.G.[.d.d.B.B.[.B.B.[.#X&X@.G d.tX5XG.B.B.B.d.B.B.B.B.B.B.B.B.#XB.d.B.[.B.d.B.[.B.B.B.[.[.#X[.",
"B.B.B.d.d.B.[.B.g.d.d.d.d.[.#X[.B.d.B.d.t.t.d.d.d.d.B.[.#X[.8.G B.tX4X[.B.B.d.B.G.[.[.g.d.k.B.B.|.d.k.#X;X#XB.B.[.B.B.[.[.[.[.#X",
"[.#X[.B.B.[.[.B.B.B.B.B.B.#X[.B.B.d.d.d.t.d.B.B.8.t.B.#X#X[.@.Y B.tX4XB.[.[.B.[.[.B.d.d.B.B.S.B.G.B.B.[.#X#X[.B.#XB.B.[.B.[.[.[.",
";X#X[.[.B.G.B.[.[.B.[.[.[.[.[.t.t.t.d.d.d.d.B.d.8.d.[.[.[.B.@.G d.wX,XB.B.B.[.[.#XB.t.d.B.[.[.[.[.S.B.B.B.B.B.B.[.[.G.[.[.B.B.B.",
"#X[.[.B.B.d.d.[.#X[. X[.B.[.B.t.t.d.B.B.B.[.[.d.B.#X;X[.B.d.8.G d.4X,Xd.d.B.B.B.#Xd.t.B.#X[.B.[.[.[.[.B.B.B.B.B.[.B.B.B.B.B.d.B.",
"[.B.d.B.d.d.B.[.#X[.[.B.B.B.B.d.d.[.#X[.B.[.#XB.#X;X;X#XB.B.@.G B.tX4XB.B.B.B.[.#Xd.d.[.#X[.B.[.B.[.[.k.B.[.[.B.B.k.B.B.g.d.d.d.",
"B.B.B.B.B.B.S.#X[.B.[.[.[.B.B.d.B.[.#XB.d.[.#X[.B.#X;X[.[.[.8.G B.tX4XB.B.B.[.[.[.B.B.[.#XB.B.S.B.B.B.d.B.[.[.g.B.B.B.B.B.B.d.B.",
"[.B.B.B.[.G.[.[.[.B.S.[.[.[.[.B.B.[.[.B.d.B.[.[.d.B.#X[.B.B.@.G B.wX,XB.B.B.B.[.G.g.g.B.G.B.B.G.B.B.g.d.B.B.B.d.B.[.[.[.[.B.B.[.",
"[.[.B.B.B.B.[.B.#XB.B.B.B.B.G.g.B.B.[.[.[.#X#X[.d.d.[.d.d.d.o.G d.wX,XB.B.B.B.B.B.d.d.d.B.B.B.[.B.B.B.B.G.B.B.[.B.S.[.#X[.B.S. X"
};
