/* XPM */
static char *eu71680105317[] = {
/* columns rows colors chars-per-pixel */
"64 64 48 1 ",
"  c #05050F",
". c #050511",
"X c #0A0E1A",
"o c #1D131E",
"O c #0E1621",
"+ c #1D1220",
"@ c #131F2B",
"# c #14202C",
"$ c #1B2C36",
"% c #1B2B38",
"& c #2F2F2F",
"* c #312927",
"= c #342C2A",
"- c #35302D",
"; c #39312F",
": c #333333",
"> c #3D3533",
", c #3D3835",
"< c #3C3C3C",
"1 c #413937",
"2 c #443C3B",
"3 c #154257",
"4 c #154259",
"5 c #454545",
"6 c #474948",
"7 c #4D4D4D",
"8 c #504E4F",
"9 c #4E504F",
"0 c #51514F",
"q c #4F4F51",
"w c #4D4A5D",
"e c #514F50",
"r c #4C5153",
"t c #495058",
"y c #525252",
"u c #5A5A5A",
"i c #636363",
"p c #666867",
"a c #676968",
"s c #6A6A6A",
"d c #726B7D",
"f c #717171",
"g c #B19997",
"h c #C4B59E",
"j c #C4B5A0",
"k c #E5E6C7",
"l c #E5E6C9",
"z c #FFFFFF",
/* pixels */
"7yyyuyyyy7yy7786yyy8uy667q75yy<:ypi760yyyu878ye6766eyy66euuy8766",
"yuyyyyyy77yuy678yy76y7257e0qyy5<ypu98yyy77677yy787670766uuyyyy7y",
"euyyye7776yuy7yyyy76y7657776q95:yiu70yy766767yuyyy77y07ruuyyyyyy",
"6y7667yye6eyyyuy7877e767yyy77y<:7iy7ey8777y7yyyyyy7eyy8y8yee877y",
"7y766yyy767yy7yy6676079yuyyeyy6,7iu8ryy7yyeyyyy6y878ye7e67yy7678",
"yyy77eyy77yy766777ey870y77eyyy5:6uu78yy778y8yyy77656e76778yy77yy",
"7yy777yye7yu7677yyyy98yye7yo+ooooo++oyy767yeey877656yy777yuuyyyy",
"77y8yyyyu7yyyeyeyyyy7yyuy+ogjjhhhhhhgoo767e76677y768uy8e8yyy6786",
"yyyyy9yy77yyyyyyyyy8yyyyoghkkkkklkkkkhgo67766677y7yyuye7yyy7y777",
"yyyy777ye77e777yyy97yyyoghlkkzzzzzzkklhgo0yey777yyeyyy777yy8yy79",
"uyy77777776777yyyq77770ohkkkzzzzzzzzkkkhouu8y77quy777667yy77y77y",
"uyy7777y77777yyy09777yoghkkzzzzzzzzzzkkhgo86777yuy767yeeyuyyyy77",
"uyy7y8yyyy77yy77q777eyoghkkzzzzzzzzzzkkhgo6567eyyy7eyyuuuyy7yy7y",
"yy877eyyy7q77ye7y77qyyoghkkzzzzzzzzzzkkhgo78eeyyy777ee76yy77777y",
"7777777667yy77yyy77..yoghkkzzzzzzzzzzkkhgoy..yey777776656777777y",
"6679e87667yy777yye.X.yoghkkzzzzzzzzzzkkhgou X.yy776yyy77yyyyyy7y",
"7yyyyy777uuy66yuy.XO.y+ghkkkzzzzzzzzkkkhgoy.OX uy7yyyuyyyuueeyyy",
"eyyyyy77yuuy77yy.XOO.y+dhhkkkzzlkzzkkkhhdoy.OOX.77yyyy7yyuueyye6",
"yyyyy77yyuyy777.X@.O.0odghhkkkkkkkkkkhhgdo8 O #X.6yyyy97yue66767",
"yyy87776777776.XO#.#X.oddghjlkkkkkkljhgddo.X@.#OX.yeey77yy666778",
"7y77766766777q.O##.#X.yowdghhhkhhkhhhgdwo7.X#.##O.y77y77ey87yuyy",
"yyy7y877yyeyr.XO#.X#X.uowddgghhhhhhggddwoy.X#X.#OX.8877yye77yyy8",
"yyyyyy8yuyyyy.O##.X##X.yowwddddddddddwwou.X##X.#@O.8yy7yy765677y",
"yy77yy7yyyye.X##X.###X...oowwwwwwwwwwoo  .X###.X@#X.7yyyyy766y7y",
"ye67yq77ey77.O##.X##$#X.#OdooowldwooodOX.X#$##X.##X.yyy7yyy7yuuy",
"uy67yyy7y07.XO##.X#@$#X.###4444#@4444###.X#%##X.##OX.0877e766yy7",
"uyeyyyrr0y7.XO##.O##$$#X.##4444#@4444##.X@$$##O.##OX.yy777y77yyy",
"7777776qyy8.XO##.O##$$4#X..#$44#@44$#. X#4$$##O.##OX yr77y777eyy",
"y76yyq65677.XO##.X##$$$4@X..#%4##4$#..X#4$$$##X.##OO.7qyyyqeyyyy",
"77qyy755yyr.X###X ##$$$$$444$$4##4$$444$$$$$##.X##@X.6778767yyyy",
",<55<,,<55<.X#%#X.O##$$$%$$$$#$##$#$$$$$$$$##O.X#$@X.<<<<<<<<<<<",
"&&&:<:::,,:.X#%#X.XO#%$#+....#$##$#....O#$%#OX.X#$@X.:::<:::::::",
"66775<58q77.X#$#OX.O##$X.##$4#$##$#4$##.X%##O.XO#$#X.77yy777q767",
"uispuyuffss.X#$##X.O###..O##$#$##$#$##O .###O.X##$#X.ssfsssssppa",
"uuiiuuasiuu.X#$$#X.XO##.O#$4$##OO##$4$#O.##OX.X#$$#X.iipiuiiiuui",
"y87eyyuy677.X##$#OX O##.X$4444OOOO4444$X.##O.XO#$##X.y87q767767y",
"867y756757y.XO#$$#X XO#.o$444$#OO#$444$O.#OX.X#$$#OX.y778676666e",
"558y766yqy7.XO#$$#OX.XO.##$44$$##$$44$#O.OX.XO#$$#OX.r0966788768",
"67eyy7yuyye.XO#%$##OX.X.#O#$$$$OO#$$$#OO.X.XX##%$#OX.00y768yye87",
"eyuuy7yyy0yy.O#@$##OXX..##O#.#$$$$#.#O#O..XXO#@%##O.0yyyeeyyuyye",
"yyuye78867788.O@#O    ..#$#X.#$$$$#.O##O......O@@O.87yy787yyy777",
"67766667767ey O@# 99ott.@$$#.O#$$#O.##OX.....e.@#O.77yy788qyy767",
"77777787yyeyu.XO#.rotot O$%#.O#$$#O ##XXX.,>>q.@OX.66e878y777787",
"yuuyyyyey78yy6.XO.,,otto.%%#.XX#$$O.OOXXX.,,>1.OX.66yyyy7yyyyyy7",
"yuuy77e76557866.X.;>>ott.O##O.O##$#O.#OXX.>>,,.X.78yuyy8eyy77e76",
"yyy767ey767yy77y. >>>oot.XOXO.XO###O..#OX.=>>1..yyyuuyy7yyy76666",
"yy766yyy0yyuuy8yy>>;>,> XO##@..XO###O. @..>>,>>767yye8778y876766",
"ey77euy777yyyy78y>1,>: XX#%%#...XOOOOOX.....>>;55608677776778eyy",
"7yy7ey65<<67777q7>>>>>.XO$$$@.=*.XXXXXXXXX.>>>>68uy8eyyy7ry777yy",
"5ye5ey72<5yyy7yyuy>;-;.OO44$O.-*>........ >>>>yuuyy8yy7e0y87677y",
"7yy57y7<5quiuyyyy76;;>.O#44@O.;=;21>>>>>>>;>>yyyyy77yy770y77yyyu",
"yyy67u6<7uaiyyyy778y>11 X##OX.;=>22>>,>>>>>1yy99787yyy7778yyyyyy",
"y766yu76yuiu77778768yy11.....>-*1221>1>>>>yyyyy77yyyye76yyey7877",
"ye67yyyeyyuy67yey677yye777>>>1=*;21;>>0677yyyy777077yy87y7766776",
"yyy7yyyyyuy76yyyy7yuyyee776yey5:6iu88y060yy77777y766eyy777677yye",
"yuyqyyyyqe776yyyy7qy778ey77yyu2&7pi878777re77779yy67y76yye7yyyyy",
"7y777y0776667yuy8688656776yyuy<:8aiy8777eyy77777y77uuuy7yyryyyyu",
"yyy77yyr778yeyy77676667756yyuy<:8pi08yyyye76788yy77yuyy0y7780yyy",
"uuyy88yyyeyyyyy66666688756yyr7<:6iu87y0yy7668yyyy80778r7yyyyy088",
"uyy777eyuyyyyee667yy8ey78yuy775&7iu87778u768yyyyyyy77777yy7y7777",
"y777767yyyyy77767yyy8yyyyuuy882:7si7777yy77yyy7yyyy7yyy777777667",
"977777yyyy7yyye77yyy6yuyyuuyyy5&7aiy7yyyy77yyy7y77777yy7777y777e",
"y708eyyyyyyyyyy7yey77yuy77ue87<:7pu7779yy76yyy7yy7767876yyyuy7yy",
"yyy77yyyyy7e77y7eyyyyyyy67y776<&7pi777y7e767777y97787eyy7yyyy7yy"
};
