/* XPM */
static char *eu81680105317[] = {
/* columns rows colors chars-per-pixel */
"64 64 253 2 ",
"   c #04040E",
".  c #05050F",
"X  c #040311",
"o  c #030511",
"O  c #040410",
"+  c #050511",
"@  c #060411",
"#  c #050412",
"$  c #070512",
"%  c #060612",
"&  c #070D19",
"*  c #090D19",
"=  c #0A0E19",
"-  c #0B0D1A",
";  c #080E1A",
":  c #0A0E1A",
">  c #0B0F1B",
",  c #0A0D1C",
"<  c #080E1C",
"1  c #0D161F",
"2  c #1C121B",
"3  c #1B131E",
"4  c #1D131C",
"5  c #1C121D",
"6  c #1D131E",
"7  c #1E121E",
"8  c #0D1520",
"9  c #0F1521",
"0  c #0D1720",
"q  c #0D1721",
"w  c #0E1720",
"e  c #0E1621",
"r  c #0F1722",
"t  c #0E1623",
"y  c #101622",
"u  c #1B1320",
"i  c #1D1220",
"p  c #131F2B",
"a  c #151F2B",
"s  c #13212A",
"d  c #14212A",
"f  c #13212C",
"g  c #13212E",
"h  c #14202C",
"j  c #15212D",
"k  c #16202C",
"l  c #14202E",
"z  c #1A2B35",
"x  c #1D2B36",
"c  c #1B2C34",
"v  c #1A2C36",
"b  c #1B2C36",
"n  c #1C2D37",
"m  c #1E2C37",
"M  c #1B2B38",
"N  c #1A2C38",
"B  c #1B2D39",
"V  c gray18",
"C  c #2F2F2F",
"Z  c #322A28",
"A  c #342A29",
"S  c #362E2C",
"D  c #372F2D",
"F  c #37322F",
"G  c #38302E",
"H  c #39312F",
"J  c gray19",
"K  c #313131",
"L  c #323232",
"P  c gray20",
"I  c #343233",
"U  c #353336",
"Y  c #343434",
"T  c #353535",
"R  c gray21",
"E  c #373737",
"W  c #3A3230",
"Q  c #3B3331",
"!  c #3C3231",
"~  c #3D3332",
"^  c #393431",
"/  c #3A3532",
"(  c #3B3633",
")  c #3C3431",
"_  c #3C3432",
"`  c #3D3532",
"'  c #3D3533",
"]  c #3D3334",
"[  c #3E3634",
"{  c #3F3735",
"}  c #3E3536",
"|  c #3D3737",
" . c #373739",
".. c #393738",
"X. c gray22",
"o. c #393939",
"O. c #3A3A3A",
"+. c gray23",
"@. c #3B3D3C",
"#. c #3C3C3C",
"$. c gray24",
"%. c #3E3E3E",
"&. c #3F3F3F",
"*. c #403635",
"=. c #403836",
"-. c #413937",
";. c #423A38",
":. c #433B39",
">. c #443A39",
",. c #453D3B",
"<. c #403E3F",
"1. c #473F3D",
"2. c #154257",
"3. c #144158",
"4. c #174159",
"5. c #144259",
"6. c #154259",
"7. c #15415A",
"8. c #16435A",
"9. c #16425B",
"0. c #414141",
"q. c gray26",
"w. c #434343",
"e. c #444444",
"r. c gray27",
"t. c #474745",
"y. c #454547",
"u. c #464646",
"i. c gray28",
"p. c #484846",
"a. c #484848",
"s. c #494949",
"d. c #4B494A",
"f. c gray29",
"g. c #4B4B4B",
"h. c #4A4C4B",
"j. c #4C4C4A",
"k. c #4D4D4B",
"l. c #4C4E4B",
"z. c #4B4B4D",
"x. c #4B4D4C",
"c. c #4C4C4C",
"v. c gray30",
"b. c #4E4C4D",
"n. c #4C4E4D",
"m. c #4E4E4C",
"M. c #4F4F4D",
"N. c #4C4C4E",
"B. c #4D4D4F",
"V. c #4F4D4E",
"C. c #4E4E4E",
"Z. c gray31",
"A. c #504E4F",
"S. c #4E504F",
"D. c #50504E",
"F. c #51514F",
"G. c #50524F",
"H. c #4E4E50",
"J. c #4F4F51",
"K. c #4C4B5B",
"L. c #4C495C",
"P. c #4D4A5D",
"I. c #4C4B5D",
"U. c #4D4A5F",
"Y. c #4F4A5E",
"T. c #4D4C5E",
"R. c #514F50",
"E. c #4F5150",
"W. c #495058",
"Q. c #4A5159",
"!. c #505050",
"~. c #515151",
"^. c #525051",
"/. c #505251",
"(. c #525250",
"). c #535250",
"_. c #505052",
"`. c #535152",
"'. c #515352",
"]. c gray32",
"[. c #535353",
"{. c #545253",
"}. c #525453",
"|. c #555553",
" X c #535355",
".X c gray33",
"XX c #555555",
"oX c #545655",
"OX c #565654",
"+X c #555557",
"@X c #565656",
"#X c gray34",
"$X c #565857",
"%X c #595957",
"&X c #595758",
"*X c #585858",
"=X c gray35",
"-X c #58585A",
";X c #5A5A5A",
":X c #5B5B5B",
">X c gray36",
",X c #5D5D5D",
"<X c gray37",
"1X c #5F5F5F",
"2X c #5F5D60",
"3X c #606060",
"4X c gray38",
"5X c #616163",
"6X c #626262",
"7X c gray39",
"8X c #646464",
"9X c #656565",
"0X c gray40",
"qX c #676767",
"wX c #696768",
"eX c #686868",
"rX c DimGray",
"tX c #6A6A6A",
"yX c #6C6C6C",
"uX c #6D6D6D",
"iX c #6F6F6F",
"pX c #716A7C",
"aX c #726B7D",
"sX c #726A7F",
"dX c #706C7D",
"fX c #736C7E",
"gX c gray44",
"hX c #736B80",
"jX c #B09896",
"kX c #B19997",
"lX c #B29897",
"zX c #C3B49D",
"xX c #C2B69E",
"cX c #C4B69C",
"vX c #C4B59E",
"bX c #C5B59E",
"nX c #C5B69F",
"mX c #C4B5A0",
"MX c #C5B6A1",
"NX c #E3E6C7",
"BX c #E5E4C6",
"VX c #E4E5C6",
"CX c #E6E5C6",
"ZX c #E5E6C6",
"AX c #E5E6C7",
"SX c #E5E5C9",
"DX c #E6E7C8",
"FX c #E6E6CA",
"GX c #FFFFFD",
"HX c #FEFEFE",
"JX c #FFFEFF",
"KX c #FEFFFF",
"LX c white",
/* pixels */
"C.[.[.#X#X#X[.[.[.g.C.[.C.g.C.g.C.|.C.C.#X[.g.a.g.C.c.u.C.S.$.K #XqX<Xf.c.R.}.#X#X#XA.C.C.[.C.g.g.g.g.C.[.[.u.q.[.;X#X[.C.C.g.g.",
"[.#X#X[.#X[.C.C.C.g.#X;XC.g.g.C.[. XC.g.[.C.w.q.C.C.[.C.#X{.q.+.|.0X<XC.H.[.[.C.g.g.g.g.C.C.[.C.C.g.u.g.C.C.g.g.#X;X#X[.[.C.C.C.",
"C.#X[.g.C.[.C.C.C.C.[.;X[.C.[.[.[.[.g.g.C.C.e.q.g.C.C.g.C.[.$.E R.4X;XC.H.[.R.x.u.g.g.g.C.[.#X[.[.C.g.C.[.C.C.C.#X#X[.[.[.C.C.#X",
"C.[.C.u.g.C.C.C.C.u.C.[.[.[.#X[.C.C.g.g.[.C.g.g.#X[.C.g.H.C.q. .C.4X;Xf.[.[.[.f.C.E.C.C.[.[.#XC.[.[.C.[.[.[.C.[.[.[.[.C.C.C.g.[.",
"g.[.C.g.g.C.[.[.C.u.g.[.C.[.[.C.u.g.g.g.C.C.C.C.;X[.[.C.#X[.a. .C.4X:XC.C.[.C.g.A.[.[.C.[.#X[.g.[.C.C.C.[.[.C.C.g.g.C.[.C.g.g.C.",
"C.[.C.g.C.C.[.[.g.g.[.[.g.u.g.g.g.C.C.[.H.C.C.[.C.a.C.[.[.[.q.K a.<X;Xf.C.[.[.C.C.C.C.[.[.[.C.g.g.g.q.g.C.C.g.g.u.C.#X#XC.C.[.C.",
"C.[.[.C.C.C.C.[.[.g.[.#Xg.g.C.g.[.C.[.[.F.C.[.[.C.f.i 6 2 2 u 6 6 6 6 6 C.#X[.C.g.C.[.C.C.C.C.C.C.g.q.u.[.C.g.C.C.[.#X&XC.[.[.C.",
"g.C.C.[.[.[.[.[.#XC.[.[.[.C.[.[.[.[.[.[.C.[. X#X6 2 kXmXvXvXmXvXvXvXvXlX6 6  Xf.u.g.C.C.a.g.C.C.C.g.g.C.#X#X[.C.C.[.#X[.x.C.C.g.",
"C.[.[.[.[.C.C.#XC.C.[.[.[.C.[.[.{.}.[.C.[. X#X6 lXzXZXZXZXZXZXBXDXZXDXZXzXlX6 u.a.C.c.g.g.g.g.j.C.C.C.#X#X#XC.C.[.[.[.[.C.C.g.C.",
"[.[.[.[.C.C.C.C.C.C.C.C.C.g.C.[.[.[.C.C.C.[.6 kXvXDXZXBXKXGXKXKXKXKXVXDXZXmXkX6 C. X XC.C.C.g.g.#X[.[.C.[.[.C.g.C.[.C.C.[.[.C.C.",
"#X[.[.C.g.g.C.C.C.g.g.C.C.C.C.[.[.H.c.g.c.C.2 vXDXZXZXKXKXKXKXGXKXKXKXBXZXDXvX6 [.;X#X[.[.C.g.j.;X[.C.g.g.g.g.g.C.[.C.C.[.C.C.C.",
"#X#X[.C.g.C.C.C.C.g.g.g.C.[.[.[.R.H.c.g.C.6 kXvXVXDXKXKXKXKXKXKXKXKXKXKXDXDXvXkX6 A.C.g.g.C.j.[.#X[.g.g.C.C.C.[.#X#X[.C.[.C.C.C.",
"#X[.[.C.C.[.[.#X[.[.C.g.C.[.C.C.C.C.C.C.H.6 kXvXZXZXKXKXKXKXKXKXKXKXKXKXZXZXmXkX6 u.u.u.g.g.R.|.#XC.C.C.[.#X#X#X#X*X[.C.[.C.C.C.",
"[.[.C.C.C.C.C.[.C.C.C.C.C.C.C.C.[.C.c.C.[.6 kXvXDXVXKXKXKXKXKXJXKXKXKXKXDXZXvXkX6 j.C.C.R.C.C.[.C.C.C.C.A.C.g.g.C.C.C.C.C.C.C.[.",
"C.g.g.g.C.C.g.g.g.g.C.C.C.C.[.C.C.C.+ +  X6 lXvXDXBXKXKXKXKXKXKXKXKXKXKXZXSXmXkX6 $X+ + #X[.C.[.C.g.g.C.C.g.u.q.x.C.C.g.C.C.C.[.",
"g.g.C.C.[.C.g.u.u.C.#X[.C.C.C.[.[.+ : +  X6 lXzXZXZXKXKXKXKXJXKXKXKXKXKXDXZXzXkX6 |.+ : + #X[.#XC.C.g.C.[.[.C.C.C.[.[.C.[.C.C.[.",
"g.C.[.[.[.C.C.C.g.#X;X[.u.g.E.;X+ : q + #X2 jXvXZXZXDXKXKXKXKXKXKXKXKXDXZXZXcXjX6 [.+ 9 : X #X XC.C.#X[.[.#XC.F.[.;X%X[.H.[.F.[.",
"C.[.[.[.[.C.g.C.[.%X;X#Xg.g.[.o & 9 9 + #X2 sXvXvXZXZXDXKXKXDXBXKXKXZXZXZXvXvXfX6 S.+ 9 1 : X [.j.g.[.[.[.#XC.[.#X;X#X[.[.[.C.g.",
"[.#X[.[.[.C.C.C.#X|.#XC.C.g.X : p + 9 + H.2 sXjXvXvXDXZXZXDXDXDXZXZXDXZXvXvXjXpX2 f.+ 9 X h : + g.u.C.[.[.[.C.x. X#XC.u.u.g.g.f.",
"[.[.C.C.C.g.g.g.C.h.g.C.g.+ : 9 s + h : + 6 fXfXjXcXnXZXZXDXDXZXZXDXNXvXvXkXfXsX6 o : f + h q :   g.[.C.C.F.C.C.[.[.g.q.u.C.C.C.",
"C.[.C.g.C.g.u.g.g.g.g.C.[.+ 9 h f + h : + C.6 L.sXjXvXnXvXZXvXvXDXvXvXvXjXpXT.6  X+ : f + a d 9 + f.C.S.C.[.j.C.C.[.A.C.#X#X[.[.",
"[.[.C.C.[.C.g.g.C.C.C.[.  : q f + , h , + S.6 P.pXsXjXjXcXvXvXvXvXvXjXjXsXsXL.6 *X+ : a : + d 9 : + [.A.C.C.C.C.F.[.C.C.[. X[.C.",
"[.[.[.[.[.[.[.C.#X#X[.[.+ 9 h f + : f a : + #X6 P.P.sXfXdXfXhXsXpXsXsXfXP.P.6  X+ : s f : X h h 9 + [.S.C.[.C.[.[.C.u.e.a.C.C.C.",
"C.[.C.C.C.[.C.[.#X}.E.+ : f h , + h a p : + +   6 6 K.P.K.P.T.P.L.P.P.P.u 6 + + + : p a p   1 h h : o C.A.[.E. X[.[.g.u.g.S.C.[.",
"#XC.g.C.C.C.C.C.C.C.C.+ q f f + : f h v h : + h 9 sX6 6 6 P.DXfXT.4 7 4 fX9 h + : p v h h , + h s 9 + C.[.#X{.C.[.[.C.C.[.;X#X[.",
";XC.u.g.[.[.[.g.[.[.+ : 9 h d + : a h v h : + M f b 5.5.h a h h h h 5.5.h n v X , a v h h : + h f 9 : + C.{.S.g.f.C.C.u.g.[.[.C.",
";X[.[.C.[.[.[.C.[.F.+ : 9 f h + 9 a h n v h : + d v 5.5.5.5.h h 5.5.9.2.n h + : a b v h h 9 + h f 9 : + |. X[.g.C.S.A.g.g.[.[.C.",
"C.C.C.C.g.g.g.g.C.[.+ : 9 h h + t f a B x 5.a : + + a n 5.5.h h 9.5.n a . + - a 5.b n h h q + h f 9 : . [.S.C.C.C.H.[.C.C.C.[.[.",
"C.C.g.C.[.C.g.u.g.C.X : 9 h h + , f h n v n 5.d : +   a b 5.h h 5.v h + + - h 5.b b b h h : + h h 9 1 X C.C.C.[.[.[.[.C.[.[.#X[.",
"C.g.C.[.[.C.u.u.[.{.. & h h h : + f h v b b n v 5.5.5.b b 5.h d 5.x n 5.5.5.n n b b b p h + : h f h : X g.g.h.C.C.g.g.C.F.[.[.C.",
"E +.q.u.$.E E +.q.e.+ : h v h : + 9 f h b b b n n b b b p b p h n a n b v v c b v n h s y + : h M p : + +.+.@.$.$.+.+.+.&.&.$.$.",
"V V K E E E K E E E + : h v h : o : 9 h b x h 9 + + . + a B h h b d + + + + 1 a v v h q : . : f M p : + E K K U  .K K K E K V K ",
"g.u.g.C.e.+.e.C.C.x.X : h v h 9 : + 9 p h v & + h p v 5.h n h h b a 5.n a h + - b h f 9 o , 9 h B h - + C.C.C.[.[.g.g.C.C.h.g.g.",
">X0XyXtX#X[.1XyXiXyX+ : h B h h & + 9 p h h + + 9 a d B h v h h v h M h h 9 + + a f a 9   1 h h v h - + 0XtXtXgXyXqXtXyXtX0X0XwX",
";X<X4X4X;X;X0XtX4X2X+ : h n v h : o 1 1 h h + s y 9 y h h f h h h h h 9 y q h + f a 9 :   : p v b a : + <X4X4X0X4X<X4X4X4X<X<X4X",
"[.g.g.C.[.$X;X#Xg.g.+ : h a v a 9 : + 9 h h o 9 f v 5.v h h q 9 h h v 5.v h 9 + p f q + : 9 p v a a 1 + [.[.S.C.A.C.g.g.g.g.g.[.",
"g.p.C.[.C.u.g.C.u.C.. : 9 h v n f : + : 9 s + : v 5.5.5.5.9 9 q y 5.5.5.5.n : + a 9 , X : f b b h 9 , + #X[.C.C.g.g.a.g.p.a.f.[.",
"u.e.C.[.C.u.u.H.C.H.+ : y h v v f 9 , + : 9 X 9 v 5.9.5.v a q 9 d x 9.5.5.n 9 + 9 : + : 9 a b n f 9 : + C.F.H.C.g.a.g.C.C.g.g.f.",
"u.u.C.#X[.C.[.#X#X[.+ : t h M n a p : 1 + : + d a n 5.9.v n h h b b 5.2.v h d + * X : : p p v M f 9 : + C.C.H.[.g.g.C.[.}.C.f.C.",
"R.#X;X;XR.g.[.#XC.[.F.+ y h h n p p 1 * : + . s 9 a c n v f 9 9 a b n v h 9 a +   1 : 9 h h v p h 9 + }.[.[.[.[.[.A.[.#X#X X[.[.",
"[.#X#X#XC.C.C.C.g.g.f.C.+ 9 h h 9 + + + + . o f p 9 h + f v b b b h + a 9 v h + + + + + + 9 h h 9 + #XR.C.[.[.C.j.C.[.|.#XC.g.f.",
"g.g.g.u.g.u.g.C.g.g.f.[.o 9 h h +  X4 W.W.W.+ h b h 9 + a n n M b p + 9 v v 9 + + + + + C.X h h 9 X [.c.f.[.H.c.C.C.C.H.C.g.g.C.",
"g.g.C.g.g.g.C.C.[.H.C.#X+ , q d + 2 K.3 W.K.. 9 b b f + 9 f B v h 9 + f f f : + ' A.C.x.C.+ h 9 : o g.u.f.H.C.E.C.H.[.C.f.C.C.C.",
"[.#X#X#X[.[.[.C.[.C.C.[.}.+ : q + [.3 W.W.2   1 b b f + 9 f v v h 9 + t 9 : + + { [ [ [.|.+ q :   g.u.g.[.}.[.[.C.[.[.F.[.[.[.f.",
"#X;X;X[.C.C.C.C.a.w.u.C.[.u.+ : + C.W 6 W.W.W.o q b s o 1 9 h v h 9 + 9 9 1 : : + ' ' ' [.. - + H.C.C.#X#X#X[.C.C. X#XR.C.C.f.a.",
"[.[.[.g.u.C.C.[.g.g.f. X|.C.f.. + ' ! 6 2 W.4 + : 9 p 9   9 h v g f 9 + 8 1 : : . ' W ' [ o X {.E.[.[.#X;X#XC.g.[.[.[.c.a.g.g.w.",
"C.[.C.u.g.[. XF.F.[. X%X;X[.R.#X*.[ ' ' ! 2 + 1 : 9 9 9 X 9 q d h f 9   9 9 : & X ' ' [ [ E j.c.u.C.[.[.F.H.C.C.C.C.C.x.g.g.g.g.",
"[.C.C.g.C.#X#XC.g.C.C.[.#XC.g.C.' ' { [ ' X : & 9 f f p   : q 9 h h f 9 X p 9 q + ' [ { { ( a.e.w.g.C.g.g.g.g.g.g.g.f.j.C.C.H.[.",
"g.[.[.g.C.[.g.q.+.+.e.C.C.g.j.C.' ' [ ' ' + 1 & p b x a + + : 9 9 f h 9 + 5.h + + ! ' ' [ W g.g.C.#X#XC.C.C.[.[.C.C.C.C.C.C.H.}.",
"u.H.S.u.C.[.g.$.$.q.[.$X[.C.[.}.-.[ ' F D + 9 9 2.5.v 9 + [ X : 9 9 9 t 9 + o + ' ( W W ' ' C.#X#X#X[.C.[.[.C.C.C.[.[.f.g.g.C.[.",
"g.#X[.a.C.#Xg.+.q.[.<X2X#X[.#X#XH.' W W G + 9 h 5.2.v 9 + ;.H o 1 & : : : : : o + W ' ( [ [.[.#X#X[.g.C.[.[.C.g.[.[.C.C.S.H.{.$X",
"R.#XC.p.C.#Xg.$.C.;X0X4X[.H.[.R.C.g.[ [ [ ;.+ : h v q : + -.D A X   + + + + + [ ' [ ' [ [.[.R.C.g.C.C.[.#XC.g.C.g.C.C.[.[.|.{.#X",
"C.C.g.u.[.[.C.u.[.:X4X;Xg.f.E.C.C.g.g.' [ -.;.+ + + + + ! [ D Z W 1.:.' [ [ [ ! ' ' [ #X#X[.C.C.g.C.#X[.[.C.C.g.[.H.C.C.C.C.C.g.",
"[.C.g.g.[.#X[.C. X#X;XC.p.C.[.C.F.g.g.C.[.[ [ ! ! ' H ( ' [ D A W ,.;.' [ [ [ W ' C.F.[.[.H.C.g.S.H.j.g.C.[.C.C.[.C.C.g.g.g.g.g.",
" X|.[.C.[.[.[.[.[.#X[.g.g.R. X[.[.C.[.#X[.[.[.C.C.( W ' [ [ F A W ,.;.] ! [.E.f.[.F.H.C.C.C.f.g.[.C.u.u.[.[.C.C.C.C.g.g.f.C.A.F.",
"[.#X[.C.C.#X[.C.C.C.C.g.g.C.#XF.S.C.H.[.f.g.C.[.[.C.C.[.#X#X$.J g.wX4XC.C.C.C.g.C.A.S.C.C.C.C.C.{.C.g.C.[.C.g.C.[.C.C.R.}.|.#X X",
"C.A.C.x.g.[.[.C.j.g.g.g.g.[.#X[.C.g.C.C.u.u.p.c.g.g.C.[.%X[.&.Y C.tX8X[.C.C.g.C.H.[.[.j.g.C.C.C.[.C.f.#X;X#XC.C.[.C.C.[.[.[.[.[.",
"[.#X XC.C.C.[.C.C.C.S.C.C.|. XC.C.g.g.g.u.g.C.C.w.u.C.#X#X[.$.K C.tX4XH.F.[.C.[.[.C.g.g.C.C.[.C.H.C.C.[.#X#X[.C. XF.C.C.[.[.[.[.",
";X#X#XC.C.C.C.[.[.C.[.[.[.#X[.a.u.u.g.g.g.g.H.g.q.g.[.[.[.C.$.E g.0X<Xg.C.C.[.[.#XC.u.g.C.[.[.[.[.F.C.C.C.C.C.C.|.[.[.[.[.H.C.H.",
"#X[.R.C.C.x.C.[.#X[. X[.C.A.C.u.u.g.C.C.g.[.}.g.C.#X;X[.C.g.&.K g.4X<Xg.g.C.C.C.#Xg.u.C. X|.C.[.[.[.[.C.C.C.C.C.[.C.C.C.C.C.j.C.",
"[.C.j.C.g.g.C.[.#X}.[.[.C.C.C.u.g.F.#X[.C.#X#XC.[.#X<X[.C.C.&.K C.tX2XC.C.C.C.[.[.C.g.[.#X}.C.F.C.[.R.C.C.[.[.C.C.f.C.C.j.g.g.g.",
"C.C.C.C.C.C.C.#X[.H.C.C.F.[.[.g.C.[.#XC.g.C.#X[.[.#X;X#X[.[.q.K C.tX4XC.C.C.[.[.[.C.C.[.#XH.C.[.C.E.C.g.C.[.[.j.C.C.C.C.C.C.g.C.",
"[.C.C.C.[.F.[.}.[.C.[.[.[.[.C.C.C.[.[.C.g.C.#X[.f.C.[.[.C.C.$.I h.0X<XC.C.C.C.[.[.g.C.C.A.C.C.H.R.C.f.x.C.C.C.g.H.[.[.[.[.C.C.[.",
"[.[.C.C.C.A.[.C.{.[.C.C.C.C.C.C.[.H.[.[.C.#X#X[.g.g.[.g.g.g.+.K h.qX<XC.C.C.C.C.C.g.p.g.C.C.C.[.C.C.c.C.A.S.C.[.H.F.[.#X[.C.F. X"
};
