/* XPM */
static char *_53d39d63c8d4c50c4207369f58146ecq0EGVWc1TniORM4Z[] = {
/* columns rows colors chars-per-pixel */
"64 64 256 2 ",
"   c black",
".  c #010101",
"X  c #020202",
"o  c gray1",
"O  c #040404",
"+  c gray2",
"@  c #060606",
"#  c #070707",
"$  c gray3",
"%  c #090909",
"&  c gray4",
"*  c #0B0B0B",
"=  c #0C0C0C",
"-  c gray5",
";  c #0E0E0E",
":  c gray6",
">  c #101010",
",  c #111111",
"<  c gray7",
"1  c #131313",
"2  c gray8",
"3  c #151515",
"4  c #161616",
"5  c gray9",
"6  c #181818",
"7  c #191919",
"8  c gray10",
"9  c #1B1B1B",
"0  c gray11",
"q  c #1D1D1D",
"w  c #1E1E1E",
"e  c gray12",
"r  c #202020",
"t  c gray13",
"y  c #222222",
"u  c #232323",
"i  c gray14",
"p  c #252525",
"a  c gray15",
"s  c #272727",
"d  c #282828",
"f  c gray16",
"g  c #2A2A2A",
"h  c gray17",
"j  c #2C2C2C",
"k  c #2D2D2D",
"l  c gray18",
"z  c #2F2F2F",
"x  c gray19",
"c  c #313131",
"v  c #323232",
"b  c gray20",
"n  c #343434",
"m  c #353535",
"M  c gray21",
"N  c #373737",
"B  c gray22",
"V  c #393939",
"C  c #3A3A3A",
"Z  c gray23",
"A  c #3C3C3C",
"S  c gray24",
"D  c #3E3E3E",
"F  c #3F3F3F",
"G  c gray25",
"H  c #414141",
"J  c gray26",
"K  c #434343",
"L  c #444444",
"P  c gray27",
"I  c #464646",
"U  c gray28",
"Y  c #484848",
"T  c #494949",
"R  c gray29",
"E  c #4B4B4B",
"W  c #4C4C4C",
"Q  c gray30",
"!  c #4E4E4E",
"~  c gray31",
"^  c #505050",
"/  c #515151",
"(  c gray32",
")  c #535353",
"_  c gray33",
"`  c #555555",
"'  c #565656",
"]  c gray34",
"[  c #585858",
"{  c gray35",
"}  c #5A5A5A",
"|  c #5B5B5B",
" . c gray36",
".. c #5D5D5D",
"X. c gray37",
"o. c #5F5F5F",
"O. c #606060",
"+. c gray38",
"@. c #626262",
"#. c gray39",
"$. c #646464",
"%. c #656565",
"&. c gray40",
"*. c #676767",
"=. c #686868",
"-. c DimGray",
";. c #6A6A6A",
":. c gray42",
">. c #6C6C6C",
",. c #6D6D6D",
"<. c gray43",
"1. c #6F6F6F",
"2. c gray44",
"3. c #717171",
"4. c #727272",
"5. c gray45",
"6. c #747474",
"7. c gray46",
"8. c #767676",
"9. c #777777",
"0. c gray47",
"q. c #797979",
"w. c gray48",
"e. c #7B7B7B",
"r. c #7C7C7C",
"t. c gray49",
"y. c #7E7E7E",
"u. c gray50",
"i. c #808080",
"p. c #818181",
"a. c gray51",
"s. c #838383",
"d. c #848484",
"f. c gray52",
"g. c #868686",
"h. c gray53",
"j. c #888888",
"k. c #898989",
"l. c gray54",
"z. c #8B8B8B",
"x. c gray55",
"c. c #8D8D8D",
"v. c #8E8E8E",
"b. c gray56",
"n. c #909090",
"m. c gray57",
"M. c #929292",
"N. c #939393",
"B. c gray58",
"V. c #959595",
"C. c gray59",
"Z. c #979797",
"A. c #989898",
"S. c gray60",
"D. c #9A9A9A",
"F. c #9B9B9B",
"G. c gray61",
"H. c #9D9D9D",
"J. c gray62",
"K. c #9F9F9F",
"L. c #A0A0A0",
"P. c gray63",
"I. c #A2A2A2",
"U. c gray64",
"Y. c #A4A4A4",
"T. c #A5A5A5",
"R. c gray65",
"E. c #A7A7A7",
"W. c gray66",
"Q. c #A9A9A9",
"!. c #AAAAAA",
"~. c gray67",
"^. c #ACACAC",
"/. c gray68",
"(. c #AEAEAE",
"). c #AFAFAF",
"_. c gray69",
"`. c #B1B1B1",
"'. c #B2B2B2",
"]. c gray70",
"[. c #B4B4B4",
"{. c gray71",
"}. c #B6B6B6",
"|. c #B7B7B7",
" X c gray72",
".X c #B9B9B9",
"XX c gray73",
"oX c #BBBBBB",
"OX c #BCBCBC",
"+X c gray74",
"@X c gray",
"#X c gray75",
"$X c #C0C0C0",
"%X c #C1C1C1",
"&X c gray76",
"*X c #C3C3C3",
"=X c gray77",
"-X c #C5C5C5",
";X c #C6C6C6",
":X c gray78",
">X c #C8C8C8",
",X c gray79",
"<X c #CACACA",
"1X c #CBCBCB",
"2X c gray80",
"3X c #CDCDCD",
"4X c #CECECE",
"5X c gray81",
"6X c #D0D0D0",
"7X c gray82",
"8X c #D2D2D2",
"9X c LightGray",
"0X c gray83",
"qX c #D5D5D5",
"wX c gray84",
"eX c #D7D7D7",
"rX c #D8D8D8",
"tX c gray85",
"yX c #DADADA",
"uX c gray86",
"iX c gainsboro",
"pX c #DDDDDD",
"aX c gray87",
"sX c #DFDFDF",
"dX c gray88",
"fX c #E1E1E1",
"gX c #E2E2E2",
"hX c gray89",
"jX c #E4E4E4",
"kX c gray90",
"lX c #E6E6E6",
"zX c #E7E7E7",
"xX c gray91",
"cX c #E9E9E9",
"vX c #EAEAEA",
"bX c gray92",
"nX c #ECECEC",
"mX c gray93",
"MX c #EEEEEE",
"NX c #EFEFEF",
"BX c gray94",
"VX c #F1F1F1",
"CX c gray95",
"ZX c #F3F3F3",
"AX c #F4F4F4",
"SX c gray96",
"DX c #F6F6F6",
"FX c gray97",
"GX c #F8F8F8",
"HX c #F9F9F9",
"JX c gray98",
"KX c #FBFBFB",
"LX c gray99",
"PX c #FDFDFD",
"IX c #FEFEFE",
"UX c white",
/* pixels */
"v k p i g d h B U E ^ ) _ _ ^ Q R ~ ( ~ E Q ( ` ( ^ Q ! ! / W m B _ | ! J J E R L Y W ! ^ ^ W U ~ ) ~ W ) ) ~ ( ( E E / / ^ / ^ ",
"z d u a h g x Z U R W ! ^ ( ( / ) _ ) ^ Q ~ ( ) ) ( ! ^ ^ ( Q N N ] O.) T T ^ ! Y ~ _ / E T T R ~ ) ~ ! _ ` ( ) T L Y ! W T Q / ",
"z i u g h h n D U T E E W Q Q E ~ ~ ~ ! ~ ( ) ( _ ( ~ ( / / Q B M { @._ E Q ) / / ' [ _ ! E W ! Q ^ Q Q ) _ ^ ~ T U ! _ ! T ~ ] ",
"v p p j f f m D I T Q ! ! ! E Y T E Q ~ ^ / / ^ ) / ~ ( ^ ~ E B V X.$._ ! ^ ' ` ) ( / / ( / ~ W Q ! Q Q / / Q R ~ ! '  ._ W ( | ",
"n d d h s f m D K Y ! ( _ ` ) ^ ^ ( ) / ! E E Q ( ~ ! ) ^ Q T B N ..@.) ~ ~ ~ ! E T T ! ( ( Q T ^ ^ / ( ( ( ^ E Q W ) [ / E ! ) ",
"c j g f s g m F L Y W ~ ( ` ` ) _ _ ) ~ T I T ~ / ! ! ) ^ E Y B M ..#.{ [ ) W R T R ~ ) _ / ~ Q ~ ~ ) _ / ( ( Q U U Q ~ R U T R ",
"k z j d d j n S P Y R W Q ! ! W Q ! ! W Y I E ( ^ W W ) ! Y P N S @.=.#.&...( ^ W ! ( ` _ ^ ~ / W Q ( ) Q ! ^ E Y R Q E I U R T ",
"g c l s f k v Z K U R E W W R U U T W ! W R Q ( Q R R / W P K m V  .O...@.[ Q Q E E W ~ ~ W E E Q Q ) ) E E ! T Q ^ ( W I R ! E ",
"8 w e 0 8 e s k v x V A A F Z C V S N B C B Z Z V C A Z V B V C m M B Z S B M A B m m M J C m M b A S A B N A S C A A C V Z S D ",
"5 8 0 8 7 w i d x k m N V A B N B A M M N b m M N B V B N M M N b n n M N v x m c z n N H B m b v M N B B V C N M B N m m N B N ",
"< 2 4 3 4 8 w t g s j h j j p u x m l k j d g h j k k k k j h h g h h j l f s h p u j z n k l g i d z b v c z g j j h g j l k j ",
"< < 1 2 4 7 9 0 r y s i u r 3 1 k x f a p y a d s s s d d s p i a s a d g d a g i r d g g a j d 4 0 l n j d a p s p u i s g f d ",
"5 3 3 4 7 9 0 q 9 i j g g a 7 7 N B l f f a j x j j k k l k h f h j h j z k h l l f c x l h v l 7 9 c B z j g g k f s d h l l k ",
"0 7 5 6 9 q e t u l m c n x y u I L M x z l b M c c v v c x z l x v x x b c l z c x B m M x b x i q b Z n M c x b z j l c v v v ",
"t q 8 9 q r p f b Z A M C N d d ) ^ G V V B A D N B V B M m m M N V B N V N b b n N S V D N M m g t Z I D F V B M n n N C C C C ",
"s u e r u a j v F L H V H G c c X.} R L P K U Y J L P K H G H J H K J H L J S A D K I H T J H J j d E ' T U H J A Z S J P P P I ",
"p y t i a d l M S K D H R I k c |  .! I Y R W Y T R R Y U Y T T U U E U I R U Y R E W W E R T T z k _ $.[ R R L S m A Y T R W R ",
"a i p s f g c V G Y P T ! R b N O.o.! P U R Q T E Q ! Q W ! ~ ! E R ! R R ! E W E W Q Q W T U I m b [ @.` Q ! Y H A I ( ^ ! ~ Q ",
"s a s f f g c V G T T W ! T n C @.O.^ U R Q ~ R R ! ^ ~ ~ ^ ^ ~ ! W ~ E W ^ W Q W Q ! ~ Q E Y U V m { X./ Q ~ E U P ^ } ` ( ) / ",
"d d s a i s x C I Q ! ( / Q Z F O.+.) Q ^ ( / E R ! / / ^ ~ ~ Q ~ Q ^ ! ! / E W Q Q ! ~ ~ ! W E C n } O.) ! ~ ! Q T / { _ ( _ ( ",
"h f a u y d n D T Q ! / ~ Q A F +.@.` ^ ) _ ) W E ^ _ _ ( / ^ ! / ~ ) ( / / E W ^ ~ ~ ^ ^ / ^ ~ A n o.&.{ ( ^ ( Q T ~ ' ( / ) ^ ",
"j g s i p j V K I Y R ! T U N V #.$.' ! ^ / ( W T ~ _ _ ( / ^ ~ ~ ! ) ( ^ ~ T E _ ( / ^ / / ^ ~ Z b @.*.{ ` ^ ) E U ! _ / / ( Q ",
"g f s p s z V H L Y ! ( T P N B X.+.` Q Q Q ! R Y ! ) ) ^ ! ! Q Q W / ^ Q W Y Q ` ) / / ( / ~ Q B n @.o./ _ ~ ~ R Y ! ( Q Q / ! ",
"d s a p s l m C D L Q / P F v n ]  .) Q Q E W U R ^ _ ) ^ Q W E ! Q ( ^ Q W R / _ ( / ( ( ( ~ W N N #.[ T _ / Q W T Q ~ Y T ^ / ",
"g d s s f l N D J R ) ( P B M C  .#.%.o.[ ) ~ R E ( ' ) ~ ! ! Q / ' / T Y E Q ~ _ / / ( / E L G M M ' +.#.>.X./ ~ ( / W E ^ _ _ ",
"p u u i s h b C L T ~ ^ Y F S G #.-.:.$.| ` / Q Y ^ _ ^ R T E Q ) ` ^ E ! ^ ^ / _ ^ W W R L S V N V [ #.%.:. .! W ~ ! E E ^ ) ( ",
"0 9 0 w r i g x M B A F S C B B Y W W P S C C V A L U H C C F K G G A Z H J F D F A V C Z B n v V M I T U ! L A Z A A Z S H J G ",
"8 7 7 9 q e i d h l v m N M m m B C B x g g l c M A S M c b B C v b c b N M b b x x v M N M M M Z n B b x M n c v b b b M V V M ",
"9 8 8 9 0 q r u i d l c v v v v n m v k d d j z l v c h d j l j j c b b n c l x j z b m b z l x v z c z l c l j z x x x v n n v ",
"6 4 2 3 4 4 6 9 7 t s f s s s d p a s a p p a s a d a t t a i q t j x k f s a f a f j k d u y i g g g f g f d d a a a s d f f f ",
"4 1 , < 1 3 5 8 w a j j f d f g a a d g k l l l h l k f g l f e r z m l d d d g g g j j g s d g v v j g g f g h a s s s s d g j ",
"9 6 4 5 7 9 e y f z n b x x c c z k h j z c v v c M M v b m z i p N S b k l x c b x l z x x c n n M x x c k k l h h j j j k x b ",
"w 9 7 7 9 w i d l m C C B V C C m m N C V M b v m b B V b n b h s L U A M c v m B N n v b M N M M M m n b b n n v b b N A C N C ",
"a t 0 9 w y d l M A K L H F D S S S F J J G F F G D H G A F A l l ! ( L D C Z S C B V D G F D D S D D S A A F H G H H L T P G G ",
"k a r e u f x m S J R ! E P J H J J P T R Y I I Y I I L K T K x c ' | E K J L P U K L R E P K I U I P I Y T T T T R Y R ! E I P ",
"z d y u d z M C D K W / ~ Y P P Y Y E ! ! E Y U U U Y L L W U v c } O.~ U U E R / ~ ~ ~ W T E ~ ~ R U R ^ ^ W U R R U U R R T W ",
"z f p a h c M C D L W / ^ W E W ^ ~ ~ ~ ~ Q W Q T E Q Y I ~ R M M O.*.` W Q ^ ! ~ ) ) ! E Q ( ` ~ W E ! ~ W U L R W E T E W ! ( ",
"x h s s h z n N G Y ~ / / ^ / / ( ~ E R R E ! / ^ ( ` ^ W ) ! C C #.;.[ ~ ! ^ ! W ) ` ~ W ^ ( ^ E ! ( ( W P I R Q / / ~ / / ^ ( ",
"v j s a d j b B K W ( / ^ ( ) / ~ W R R R E ! ( ` _ ' ) ~ ) Q Z V o.&.] ~ W Q W ^ ) ) / ^ ^ W U R Q ( ( W U R ( ) ` ( ~ ( ( ~ ! ",
"v k a i p h n Z L ! ) ~ Q / ( ! ~ ! ~ ( ) ( ( ) ) / ( ^ Q ^ R N N  .#.` ~ E W Q _ ^ ~ ( _ / R P Q E W ~ ~ Q ^ ' [ ' ~ E ^ ) ~ Q ",
"M j g f j v m D U Q ~ Q W ~ ^ ! ! ~ ~ ( ] _ / ( / T P U U Q ! B m #.#._ ! R ) ( ^ ~ ! ! Q W ~ _ ....' Q T ! / / ) ! Y U W ^ Q Y ",
"n j h g j c b Z G U W W Q ~ ^ Q ^ ! R T E T Y W ! I G P Y ! ! B C $.$.] / W _ ` / ~ ! Q E T R ! ] [ ` ~ ! / ( / W E R E ~ ^ E P ",
"b h h g j z z M S P W ~ / ) ( ^ ( / W Y T Y T ~ ` Q U E ! / W m C +.-.&.+.` _ ) ) ( / ^ Q E W ! Q ! ! Q Q ~ ! E R Q ^ ( ( ~ T J ",
"b j k h j z z m F I ! ( _ ` ) ^ ~ ( / ^ ( ( ) [ } ' ^ ( ) ( E M A | *.:.*.[ ( ^ ) ( ( / ^ ^ ( _ / / / / ( ) ( ^ ^ _ ' ` ( ! T L ",
"s t y t u a s l N A J P I P J F F K P P Y T T W Y U J L P L J M V R ~ ~ E J H P H H G F G J P U R Y I I I I I U I U U K G G F D ",
"8 3 6 7 9 e t f c n B C C B n c M C B M B V V A V Z m n M N Z B m A S C M v b V b b v c v m B B V N N N M n m B N N n v v m B B ",
"7 4 8 0 w t y f x v m N N b z h C A M c b n b n n B v v n b N N c m V N n v v m v b v c v n n b c c m B M v v m v c x z v M N m ",
"2 , 5 6 7 9 8 t t u a f f p r 0 v b j s d f s s u g a d h d f d i p g d s f f j d f f d f g f a w t d z k s p f f d s f j z h s ",
"< 2 3 2 2 5 9 w i i s d l d 8 q B b s p p a h d p f g d p p s d d g h f s a f k g h f a d j h a 8 q c n x a f s g g d d f j g d ",
"3 4 5 5 5 7 q t a f k h z g q t C m f f j k z h h k k j h j j h k j h h h j l x j k h d g z x k r t m B b j z l l k h f h l l j ",
"8 9 9 9 9 q y a f x m c n x i s H S x v V V B v v b b b n M M b v c x c n m n v z v v c v M N m d p A F C n N M M m v c b m M n ",
"e e r r r y s h l N S V S C k j E T A S I L G Z C Z A A D H H F C Z S D F D Z N M C D D D D S Z l f P T H Z A Z A A A Z S D A B ",
"u y u i p a h c N F P J U K v z ) ( K J W T L J H L L L L I U U P Y T I L K J G J P Y Y U P K H b k ^ ` T G D Z F H K L P L F V ",
"p u i a s f l m G I E T Q U n c [ [ P H W R I U T R R Y I Y R R E Q W I J K U T ! ! W R T T R R N x { X.Q L G D U Y T R R T L D ",
"p i i s f g x B L T ! Q ^ U m m o. .P G ! ! E ! ~ ! W T R W Q Q E ! W I K Y Q ^ ( ~ W E E Q ! ~ M z  .@.^ T U Y ( ^ Q E E W R U ",
"p u i d f h c V P T ! ~ ^ I N Z %.O.P G ( _ / _ ( ^ W R Q / ( ^ E ~ ^ W E ^ ` ' ^ Q E E ! ~ ^ ^ n j ..#./ ! ~ ) [ _ Q Y Y E W E ",
"a u u a s g m H T Y E ! ( T C D #...P Q  .X./ ~ ! E W / ` _ ( ( ~ ~ ! ! / _ ^ T ~ Q ( _ ( ] [ Q c x ..-.' E ^ ~ ' ` ( Q E ! ^ ^ ",
"i t t a f h b A U Y W ! ) E C Z X.O.! ` O.@._ ~ T R Q ^ ( ^ ! Q ~ / ( ^ E Y E ~ ( ! ~ ^ ~ ` ` E N M #.>.[ Q / / ' ) / / / ~ ~ ( ",
"d i p g l z b C J I E W ( W V M } +.( _ {  .) ! Q ^ ( ( / ^ ~ ! / ( _ ( E U ~ | ) Q E R R ! W K c c ..&.' Q ( ) ) ! ! ( ( Q W ^ ",
"g s d k x z n C F U Q W ~ R B n #.%._ ) ( ` ) ( / ) ( ^ ! ~ ~ ! E W Q W R W ) | ) ~ E W ~ ( Q L v v | %.} / ( / ^ ! ~ ( / Q W ^ ",
"d a d j k k b A L ! ) ! ~ T B m *.$._ ' ( ^ ! ~ ~ ~ ! Q ~ ^ ! E U W Q T T ~ ) ) ~ Q E ! ` ' Q P C C o.-.@.] ! U E ! ^ ! E R E Q ",
"s a d j k k m G Y ~ ) Q Q I m b .. .` X.[ / W T Q W Q / _ ) ~ Q ^ { | ) ! ( ` _ / / ! ^ ' ) Y H A A o.;.-.O.` W W ^ / Q R E Q ! ",
"a u u s d f x V F K P J P D j g U Q ~ } ( ! T K U L P E W Y I Y ! ) ) W Y T W E ~ ~ T R ^ E F Z S V _ } | ] ( ~ T T Y Y Y Y T R ",
"e 9 7 q w w u g v b m m A M u t f n B G V C C b Z m n B N v b C C N n v b n M M B V b n A V x z B z D V M n m N M x l b M b v m "
};
