/* XPM */
static char *_20e4029559d4cd4b9bffc3f4f18a880iNahtRPtsuJhmH5p[] = {
/* columns rows colors chars-per-pixel */
"64 64 256 2 ",
"   c black",
".  c #010101",
"X  c #020202",
"o  c gray1",
"O  c #040404",
"+  c gray2",
"@  c #060606",
"#  c #070707",
"$  c gray3",
"%  c #090909",
"&  c gray4",
"*  c #0B0B0B",
"=  c #0C0C0C",
"-  c gray5",
";  c #0E0E0E",
":  c gray6",
">  c #101010",
",  c #111111",
"<  c gray7",
"1  c #131313",
"2  c gray8",
"3  c #151515",
"4  c #161616",
"5  c gray9",
"6  c #181818",
"7  c #191919",
"8  c gray10",
"9  c #1B1B1B",
"0  c gray11",
"q  c #1D1D1D",
"w  c #1E1E1E",
"e  c gray12",
"r  c #202020",
"t  c gray13",
"y  c #222222",
"u  c #232323",
"i  c gray14",
"p  c #252525",
"a  c gray15",
"s  c #272727",
"d  c #282828",
"f  c gray16",
"g  c #2A2A2A",
"h  c gray17",
"j  c #2C2C2C",
"k  c #2D2D2D",
"l  c gray18",
"z  c #2F2F2F",
"x  c gray19",
"c  c #313131",
"v  c #323232",
"b  c gray20",
"n  c #343434",
"m  c #353535",
"M  c gray21",
"N  c #373737",
"B  c gray22",
"V  c #393939",
"C  c #3A3A3A",
"Z  c gray23",
"A  c #3C3C3C",
"S  c gray24",
"D  c #3E3E3E",
"F  c #3F3F3F",
"G  c gray25",
"H  c #414141",
"J  c gray26",
"K  c #434343",
"L  c #444444",
"P  c gray27",
"I  c #464646",
"U  c gray28",
"Y  c #484848",
"T  c #494949",
"R  c gray29",
"E  c #4B4B4B",
"W  c #4C4C4C",
"Q  c gray30",
"!  c #4E4E4E",
"~  c gray31",
"^  c #505050",
"/  c #515151",
"(  c gray32",
")  c #535353",
"_  c gray33",
"`  c #555555",
"'  c #565656",
"]  c gray34",
"[  c #585858",
"{  c gray35",
"}  c #5A5A5A",
"|  c #5B5B5B",
" . c gray36",
".. c #5D5D5D",
"X. c gray37",
"o. c #5F5F5F",
"O. c #606060",
"+. c gray38",
"@. c #626262",
"#. c gray39",
"$. c #646464",
"%. c #656565",
"&. c gray40",
"*. c #676767",
"=. c #686868",
"-. c DimGray",
";. c #6A6A6A",
":. c gray42",
">. c #6C6C6C",
",. c #6D6D6D",
"<. c gray43",
"1. c #6F6F6F",
"2. c gray44",
"3. c #717171",
"4. c #727272",
"5. c gray45",
"6. c #747474",
"7. c gray46",
"8. c #767676",
"9. c #777777",
"0. c gray47",
"q. c #797979",
"w. c gray48",
"e. c #7B7B7B",
"r. c #7C7C7C",
"t. c gray49",
"y. c #7E7E7E",
"u. c gray50",
"i. c #808080",
"p. c #818181",
"a. c gray51",
"s. c #838383",
"d. c #848484",
"f. c gray52",
"g. c #868686",
"h. c gray53",
"j. c #888888",
"k. c #898989",
"l. c gray54",
"z. c #8B8B8B",
"x. c gray55",
"c. c #8D8D8D",
"v. c #8E8E8E",
"b. c gray56",
"n. c #909090",
"m. c gray57",
"M. c #929292",
"N. c #939393",
"B. c gray58",
"V. c #959595",
"C. c gray59",
"Z. c #979797",
"A. c #989898",
"S. c gray60",
"D. c #9A9A9A",
"F. c #9B9B9B",
"G. c gray61",
"H. c #9D9D9D",
"J. c gray62",
"K. c #9F9F9F",
"L. c #A0A0A0",
"P. c gray63",
"I. c #A2A2A2",
"U. c gray64",
"Y. c #A4A4A4",
"T. c #A5A5A5",
"R. c gray65",
"E. c #A7A7A7",
"W. c gray66",
"Q. c #A9A9A9",
"!. c #AAAAAA",
"~. c gray67",
"^. c #ACACAC",
"/. c gray68",
"(. c #AEAEAE",
"). c #AFAFAF",
"_. c gray69",
"`. c #B1B1B1",
"'. c #B2B2B2",
"]. c gray70",
"[. c #B4B4B4",
"{. c gray71",
"}. c #B6B6B6",
"|. c #B7B7B7",
" X c gray72",
".X c #B9B9B9",
"XX c gray73",
"oX c #BBBBBB",
"OX c #BCBCBC",
"+X c gray74",
"@X c gray",
"#X c gray75",
"$X c #C0C0C0",
"%X c #C1C1C1",
"&X c gray76",
"*X c #C3C3C3",
"=X c gray77",
"-X c #C5C5C5",
";X c #C6C6C6",
":X c gray78",
">X c #C8C8C8",
",X c gray79",
"<X c #CACACA",
"1X c #CBCBCB",
"2X c gray80",
"3X c #CDCDCD",
"4X c #CECECE",
"5X c gray81",
"6X c #D0D0D0",
"7X c gray82",
"8X c #D2D2D2",
"9X c LightGray",
"0X c gray83",
"qX c #D5D5D5",
"wX c gray84",
"eX c #D7D7D7",
"rX c #D8D8D8",
"tX c gray85",
"yX c #DADADA",
"uX c gray86",
"iX c gainsboro",
"pX c #DDDDDD",
"aX c gray87",
"sX c #DFDFDF",
"dX c gray88",
"fX c #E1E1E1",
"gX c #E2E2E2",
"hX c gray89",
"jX c #E4E4E4",
"kX c gray90",
"lX c #E6E6E6",
"zX c #E7E7E7",
"xX c gray91",
"cX c #E9E9E9",
"vX c #EAEAEA",
"bX c gray92",
"nX c #ECECEC",
"mX c gray93",
"MX c #EEEEEE",
"NX c #EFEFEF",
"BX c gray94",
"VX c #F1F1F1",
"CX c gray95",
"ZX c #F3F3F3",
"AX c #F4F4F4",
"SX c gray96",
"DX c #F6F6F6",
"FX c gray97",
"GX c #F8F8F8",
"HX c #F9F9F9",
"JX c gray98",
"KX c #FBFBFB",
"LX c gray99",
"PX c #FDFDFD",
"IX c #FEFEFE",
"UX c white",
/* pixels */
"5 3 4 8 8 6 8 w w r r q q e e 9 8 w 0 2 , a a r w w w w w w w w q y e 0 w 8 5 q q w q 9 6 : i d e 0 9 q e e w w 0 e p r y t w : ",
"4 2 3 6 7 6 8 e u y r e t u y r r y w 3 1 h h u y y y t t r r r u r 6 5 q 0 8 e y t w 0 6 , a d y r r y y r e w 9 q i w r e q : ",
"4 3 3 5 6 6 q y a y r y a a p i a a e 3 4 c x p p i i u u u u u i w 6 q s s i a h d p u q 4 k l a a s d s i u i i p h p d a i 4 ",
"7 5 5 7 8 0 u f h s s h k h f g k k i 7 q Z V h j j h g g h h j s i s v V m l j x j g d w 5 v m z l z l j g h l j h x g k g d 8 ",
"q 0 0 q w u h c b v n B B m n M N B z u d R Y N C V B N M N N B b b C J H V n b B m N n p e F P C B M n x z b N M n B b m c l t ",
"e r r r y d c V C A F H G D S F D H B g z ) ) H G G F S A A A A S S J L D Z D F G D J F k d W ) L H S C M m V D F A G A D C M d ",
"r t y y i h m S D H K K K L L K G P A h l ` ' I H H G G F F F F G F K K S H T U F Z H D j d Q ) U P J G D S F K G S H D H A B g ",
"e t y y i j M D H K K J L Y T I H Y D h k _ [ Y K L L P P I I I J H I P H Y W P K D L J z k ( ' I L L L L K L I P J I L U J D x ",
"e e u p a l V F F K P L I T T I L U A k l [ ^ I L L P U T R R T Y T Y U I F A H K F K U x l ^ ] Q Y L L I U Y R T I Y ! T Y I x ",
"a i r e p l B F I Y Y I L P U Y U I G h j / ^ K K L I U U P L K K P P P U K H K P H K P k l _ O.Q Y L P I I U Y Y Y Y Y F S S h ",
"r y w r j v m Z F H K K H G L T G A F f l / { T K L L L K H D A Z F G H U Y I I I I Y Y z k / X.E U L L P P P P P T T P Z A G c ",
"w p i a c v c V A F L Y P J I Q P D H v n } +./ E T U I I I K H G L L L R Q T P U T T U c z / X.Q T L J K K L L H U P H S G K m ",
"u g p e y i f N K L U Y K F J Y F N m v c X.#.} / E L K P U P J I Y P J I I D V F F C N s h ~ o._ ~ Y L K L P P Y W I L L I K b ",
"f z j p i a x G Q E T I J H P T G N b m b | ...._ Q I L U T Y I Y Y L J I P D C D F V C x b ~ [ { ` ! Y U T T Y I Y H G L K S x ",
"4 8 0 9 8 w s x M n x k k c m N B z l h s V n M V m c x v n n b x z k z m b l l x v l v k f N M B M v z z c c l b M x c m b c h ",
"3 2 3 4 5 q a f j j f s g x v x j d c l z v g k f f f g h j k l j g d j c l g j v v j x k f v k j k k k z v x j j c h k z h k l ",
"% # @ # & - ; ; < ; $ : 0 7 < 4 ; , 1 1 1 1 1 > < > 2 : 1 1 4 : & : 0 8 1 1 , < 2 2 1 1 2 3 2 1 1 < 2 2 : * < w 6 , 1 < , 2 1 1 ",
"+ + + + @ $ % & % +   $ 3 , % * % * = * * = = & & $ = # & % * o   @ 3 < & & % & & % $ % & * & % & % & & O   $ 3 > $ * & $ * & & ",
"O @ # @ + @ % * * @ . * 9 6 : , - ; - = = ; ; - : - < ; , : > #   * 0 6 ; ; : , > : ; : > > > : > : : : # X = 0 4 - : ; - > ; ; ",
"% & * * = - > < 3 = + > y r 5 6 5 4 3 3 5 6 6 4 3 1 7 4 7 6 6 ; X < s y 3 3 5 7 7 5 4 5 7 6 5 5 6 4 4 4 = @ < a e 3 4 4 3 5 3 4 ",
"> > > < 2 5 8 0 u 4 * 5 g f e e w 0 0 w t t e q 0 9 t w y e e 1 $ 0 n l w q w r y e w r r e w w r q w w 1 = 8 c g w e e w r e r ",
"3 2 2 3 7 q t u h 0 , e M M h h s i i d h h s i f s j f k g s 9 , s G B a p a d j d s g g d s d h d g g q 3 p F m d s s s g f j ",
"4 4 4 5 6 q y a f 8 , i D D c x x j h z b c k g k g z j x k g w < g J B s d h k l h g k l j h k l h l l r 4 s K V h f f g k k x ",
"5 6 7 5 5 8 t s z r 7 k U L n x v l j z b c k g l j c l b x l y 3 k P Z h l b M c k j x v x z v c l c c y 4 d P F x k l z v v N ",
"9 9 7 5 5 0 p k b d 7 l R F x b z x c c c x x z j k l v M k z e 4 d P J x b N v b x x m M v l z l c x z w 1 k E L l c z z v M c ",
"7 7 6 6 0 u h c z i < p I L m c v v v b v v c c x x x v N z x t 5 g L D g l n c c z x b v l k z b b c c t 4 x ^ J h z c v x b c ",
"5 4 3 6 q p j x c d 5 a P U V z v v v v v v v v b c c v M x x y 6 l Y F j c N M m n m M n c v m m b c v u 5 x ~ K j c n M c b n ",
"3 3 4 5 9 t s h l a 7 f K K B z c c c c c v v v n x v c m x z y 2 l R H x v b c v c v b v x x v n v x v u 3 k E G l c z c l z x ",
"4 6 8 9 0 r a h z u 6 j I Y J S c c c c v b b n m x m c n z j t 6 v ! R S C m c b c v b n v c x v c z x y 4 k R Y S Z x v v b v ",
"4 7 0 q w t d k m i 5 g K Y P G l l l z x x c c v k n k l g a e 9 x U Y J H V N n b b n m m b c z l g g e 7 l I E P J b m M M n ",
", 1 2 3 5 8 e u d w 1 q h l l f u u i p p p i i s t g t t t e 0 4 r j j k l d g p p p p p p p i i i r t 0 6 p v v k k y s a p a ",
"= * & * = : < 2 5 7 3 5 7 7 0 5 5 6 7 7 7 6 5 4 8 2 w 3 4 6 7 7 8 7 8 3 5 6 2 7 5 6 7 5 4 4 5 7 6 7 5 9 7 2 7 9 6 2 5 < 8 5 3 8 ",
"# @ + + # $ % % - - = - - ; - - > = : = & : ; - ; ; - - = = = = - = = : ; = = - $ , - * = & ; : ; - = = - ; ; ; * - * = > ; * ; ",
". . . . X o X X           .     .   X     o .                         . .         o   . .       .         . . .         X .   . ",
"        .                           X   . @ o                                     .   @ @                 .                     ",
"X X X X o X X . X X X X o o o X o   O . o - & + X X X X X X X X o X X X X X o o O     ; : O o X X X X X o o X X . X o X   o o   ",
"@ O o o O + @ # $ $ # $ $ % $ $ $ # #   o 2 2 * $ $ $ $ $ # # @ $ $ $ # # $ % % %   . 4 6 * % # $ $ $ $ % % $ # # @ $ # + $ $   ",
"& $ # # % = ; : 1 1 1 1 2 2 2 1 < 1 > . # r y 3 1 1 2 2 1 < < , 2 2 1 , < 2 3 3 < . + t i 3 2 < 2 1 1 1 1 1 1 1 1 > 1 1 > 3 < o ",
"- = * = ; < 4 5 6 6 5 6 6 7 7 6 4 8 2   @ s g 7 5 5 6 6 6 6 5 4 6 7 6 3 4 7 8 8 5   + p g 8 7 6 7 6 5 5 5 6 6 6 6 3 6 7 4 9 4 X ",
"- = = - , 3 7 8 0 9 9 9 0 0 0 0 8 r 7 . % k c 0 8 8 9 0 0 0 9 8 0 q 9 7 7 0 w w 0 X # g z w q q q 0 9 8 9 9 9 9 q 7 0 w 9 r 8 X ",
"- - - ; > 2 6 9 9 0 0 q w q 0 9 0 w 5 # + d h 9 6 8 0 q w w w q r 0 8 0 w w w e 8 # $ l c i 9 9 t e 0 9 q e r e e 9 e q 8 0 w . ",
"> > > , 1 3 6 7 9 0 q e r r e w 7 w 6 # O s d 3 0 q q 0 9 0 q w 0 9 9 w e q 9 8 8 @ # k l r 9 e w q 9 9 q w e w e 9 e q 0 q r + ",
"; ; ; : , 2 4 6 6 7 9 q e e q 0 w y 8 @ + k v r r r r e q 0 q e 0 0 w r r w q q 9 + # k z e 0 i 0 q q w w e e e e 8 q 9 9 9 q o ",
"> : ; : < 4 9 q 9 0 q e r r w q t u 6 + # b C d y r e r e w 0 0 w w q q q q e t 9 + + l c y 0 r 8 0 q w w q q q e q e w e q q @ ",
"2 , ; - : 2 7 q 9 0 q e r r w q 0 9 < + & b B d s t q w e w 0 9 e e q 9 8 0 w r 8 + @ z N h t w 9 0 w w w 0 0 9 9 8 q q e 8 7 # ",
"7 3 , ; ; , 4 7 8 9 0 w e r e w 0 4 - @ = x B c k p w q w w q w r t r w q q q 9 3 # & l B M l s w e e r e e w q 0 0 q 9 0 1 < O ",
"3 1 > ; ; : < 2 4 4 4 5 6 7 7 6 4 - % $ # r s s e 7 2 3 3 1 2 5 4 5 4 3 4 4 2 > * @ $ e y a p q 4 3 2 3 4 4 3 2 6 8 8 4 5 - : # ",
"        . X o O o o o o o O o o +   + % . $ O X + o o @ + . X @ + + O o + # @ X o o   % X + #   + o . X O + O o X O + O # . # O ",
"X X X X X X o o O + o o + X . + o o o o o o o o . o O X X o o X X X + O . o + . + O O O + + + O   . X o O O o X + O o o O @ + o ",
"          . . .   .     .     . . . . . . . . .   X X . . X X       X X   . X                       X X . . X X           .     ",
"                          . . .                   . .     . .         .       .                     . .       X                 ",
"                X . . X . o o .                           X .   . X .   .     X . .     . . .       . .     . o X . . X .     . ",
"                .   o @ X . X                             X X   X @ o   .     X                 .     . X . X O o               ",
"              . X   # ; # . X                           . o X   + = #   X X   .           .     X     . X . + % @ X     .     . ",
". . . . X X X o o   = 6 ; O O O o o o o o o o o o o X X o + o   & 3 - . O # X X O o o o O O o o O o o o . X & 2 - @ X o + O O + ",
"X X o o O O + + X   ; q < + + @ # # # # # # # # $ # @ + @ # + X ; 9 1 o # * + O @ @ + + @ @ @ + @ @ # + . X ; q < & O @ $ $ # $ ",
"o O O + @ @ # # .   : w 6 % O # $ % & * * * * & & * % # % = #   & i 7 # * & @ # & & % % % % & & % % * & X   ; y 3 & $ % & % o $ ",
"O O + @ # $ & & + X > q 1 # $ * $ % % % & & & & % & $ @ # % O   = t 1 X % * % * % % $ $ $ $ % % @ # & * + . = q 6 = % % * = $ - ",
"+ + + + @ $ & * o   1 y 2 % = = & & & % % & & & % & % $ % % +   : t 3 # - - & & & % % $ $ % % & * % & % o X ; w 4 & # @ % * @ & ",
"+ + O O + @ # $ o   1 y < % = @ & & % % % % % & $ % & % & & # X : e 2 % = & # # & % % $ $ % % % = * * % o X ; e 2 * % $ = ; % & ",
"@ @ + + + @ $ % #   : q < - : + & & % % % % % & % & & % $ # O   : 0 2 * * # $ * & & % $ $ $ % % # % * & O X ; q 4 ; = $ & ; & * ",
"@ + + @ # $ & * O   > t w 9 6 = * * * & & * * * * = * % @ o     1 t e 0 6 ; * * = * * & & & & * & % $ +   o , r t 8 2 * $ * $ & ",
"o o o O + @ # $ .   * 8 9 7 2 & # # $ $ $ $ $ $ % % $ # O X     ; 8 9 0 7 - $ + % % $ # # # # $ * # o     . - 6 w 8 5 = $ & # % ",
"        . . . X @     o o o o         . X X . . . . X X .     X   + X o O   X X X X .         . X     X X   . O . . O     .     "
};
