/* XPM */
static char *_c9f4c5360214d2aca3bd9032dff55d1tXJuCfkUrjjIFw4v[] = {
/* columns rows colors chars-per-pixel */
"64 64 256 2 ",
"   c black",
".  c #010101",
"X  c #020202",
"o  c gray1",
"O  c #040404",
"+  c gray2",
"@  c #060606",
"#  c #070707",
"$  c gray3",
"%  c #090909",
"&  c gray4",
"*  c #0B0B0B",
"=  c #0C0C0C",
"-  c gray5",
";  c #0E0E0E",
":  c gray6",
">  c #101010",
",  c #111111",
"<  c gray7",
"1  c #131313",
"2  c gray8",
"3  c #151515",
"4  c #161616",
"5  c gray9",
"6  c #181818",
"7  c #191919",
"8  c gray10",
"9  c #1B1B1B",
"0  c gray11",
"q  c #1D1D1D",
"w  c #1E1E1E",
"e  c gray12",
"r  c #202020",
"t  c gray13",
"y  c #222222",
"u  c #232323",
"i  c gray14",
"p  c #252525",
"a  c gray15",
"s  c #272727",
"d  c #282828",
"f  c gray16",
"g  c #2A2A2A",
"h  c gray17",
"j  c #2C2C2C",
"k  c #2D2D2D",
"l  c gray18",
"z  c #2F2F2F",
"x  c gray19",
"c  c #313131",
"v  c #323232",
"b  c gray20",
"n  c #343434",
"m  c #353535",
"M  c gray21",
"N  c #373737",
"B  c gray22",
"V  c #393939",
"C  c #3A3A3A",
"Z  c gray23",
"A  c #3C3C3C",
"S  c gray24",
"D  c #3E3E3E",
"F  c #3F3F3F",
"G  c gray25",
"H  c #414141",
"J  c gray26",
"K  c #434343",
"L  c #444444",
"P  c gray27",
"I  c #464646",
"U  c gray28",
"Y  c #484848",
"T  c #494949",
"R  c gray29",
"E  c #4B4B4B",
"W  c #4C4C4C",
"Q  c gray30",
"!  c #4E4E4E",
"~  c gray31",
"^  c #505050",
"/  c #515151",
"(  c gray32",
")  c #535353",
"_  c gray33",
"`  c #555555",
"'  c #565656",
"]  c gray34",
"[  c #585858",
"{  c gray35",
"}  c #5A5A5A",
"|  c #5B5B5B",
" . c gray36",
".. c #5D5D5D",
"X. c gray37",
"o. c #5F5F5F",
"O. c #606060",
"+. c gray38",
"@. c #626262",
"#. c gray39",
"$. c #646464",
"%. c #656565",
"&. c gray40",
"*. c #676767",
"=. c #686868",
"-. c DimGray",
";. c #6A6A6A",
":. c gray42",
">. c #6C6C6C",
",. c #6D6D6D",
"<. c gray43",
"1. c #6F6F6F",
"2. c gray44",
"3. c #717171",
"4. c #727272",
"5. c gray45",
"6. c #747474",
"7. c gray46",
"8. c #767676",
"9. c #777777",
"0. c gray47",
"q. c #797979",
"w. c gray48",
"e. c #7B7B7B",
"r. c #7C7C7C",
"t. c gray49",
"y. c #7E7E7E",
"u. c gray50",
"i. c #808080",
"p. c #818181",
"a. c gray51",
"s. c #838383",
"d. c #848484",
"f. c gray52",
"g. c #868686",
"h. c gray53",
"j. c #888888",
"k. c #898989",
"l. c gray54",
"z. c #8B8B8B",
"x. c gray55",
"c. c #8D8D8D",
"v. c #8E8E8E",
"b. c gray56",
"n. c #909090",
"m. c gray57",
"M. c #929292",
"N. c #939393",
"B. c gray58",
"V. c #959595",
"C. c gray59",
"Z. c #979797",
"A. c #989898",
"S. c gray60",
"D. c #9A9A9A",
"F. c #9B9B9B",
"G. c gray61",
"H. c #9D9D9D",
"J. c gray62",
"K. c #9F9F9F",
"L. c #A0A0A0",
"P. c gray63",
"I. c #A2A2A2",
"U. c gray64",
"Y. c #A4A4A4",
"T. c #A5A5A5",
"R. c gray65",
"E. c #A7A7A7",
"W. c gray66",
"Q. c #A9A9A9",
"!. c #AAAAAA",
"~. c gray67",
"^. c #ACACAC",
"/. c gray68",
"(. c #AEAEAE",
"). c #AFAFAF",
"_. c gray69",
"`. c #B1B1B1",
"'. c #B2B2B2",
"]. c gray70",
"[. c #B4B4B4",
"{. c gray71",
"}. c #B6B6B6",
"|. c #B7B7B7",
" X c gray72",
".X c #B9B9B9",
"XX c gray73",
"oX c #BBBBBB",
"OX c #BCBCBC",
"+X c gray74",
"@X c gray",
"#X c gray75",
"$X c #C0C0C0",
"%X c #C1C1C1",
"&X c gray76",
"*X c #C3C3C3",
"=X c gray77",
"-X c #C5C5C5",
";X c #C6C6C6",
":X c gray78",
">X c #C8C8C8",
",X c gray79",
"<X c #CACACA",
"1X c #CBCBCB",
"2X c gray80",
"3X c #CDCDCD",
"4X c #CECECE",
"5X c gray81",
"6X c #D0D0D0",
"7X c gray82",
"8X c #D2D2D2",
"9X c LightGray",
"0X c gray83",
"qX c #D5D5D5",
"wX c gray84",
"eX c #D7D7D7",
"rX c #D8D8D8",
"tX c gray85",
"yX c #DADADA",
"uX c gray86",
"iX c gainsboro",
"pX c #DDDDDD",
"aX c gray87",
"sX c #DFDFDF",
"dX c gray88",
"fX c #E1E1E1",
"gX c #E2E2E2",
"hX c gray89",
"jX c #E4E4E4",
"kX c gray90",
"lX c #E6E6E6",
"zX c #E7E7E7",
"xX c gray91",
"cX c #E9E9E9",
"vX c #EAEAEA",
"bX c gray92",
"nX c #ECECEC",
"mX c gray93",
"MX c #EEEEEE",
"NX c #EFEFEF",
"BX c gray94",
"VX c #F1F1F1",
"CX c gray95",
"ZX c #F3F3F3",
"AX c #F4F4F4",
"SX c gray96",
"DX c #F6F6F6",
"FX c gray97",
"GX c #F8F8F8",
"HX c #F9F9F9",
"JX c gray98",
"KX c #FBFBFB",
"LX c gray99",
"PX c #FDFDFD",
"IX c #FEFEFE",
"UX c white",
/* pixels */
"! ( ) ` [ ' ( ( ( W ~ ) ! W ! R ~ _ ~ ! ] ) Y T E ! W U ^ ^ A b ) *...W W ^ _ _ ' ` / ! ~ / ~ T E R T ~ _ ^ U I / | { / ^ ! T R ",
") ] ' _ ` _ / ^ ! W ` { ~ E Q Q ( _ W R ( ! K J Q ^ / ! ` ` K C ' =.X.! ~ ( ( ~ E W E R W / ( ~ ~ W Y E ^ Q T R ` | ] / ( / ! ^ ",
"/ ' ) Q ! ^ ~ Q W E _ } ( ! ( ( ) ) E T / ! L K W Q ! R ~ ~ F M ^ #.} Q ^ ) / W U R R R ! _ ' _ ) ^ E W / ~ Q ^ [ { _ / ( / ^ _ ",
"W ( ! U T ~ ^ ~ ~ T ! _ ( ) ] ` ! ~ E E / ^ E E ` ( ^ W ~ ^ H N W O.[ W ^ ) / W Q ~ ~ ~ / ` ` / _ ( ~ / ` ( ~ ( ( ( / ^ ~ Q Q / ",
"W ) ~ U R ^ ) ) ! Y W ( ~ ~ ) / Y E E W ~ ~ ! ^ { ( ( / _ _ P B Q @.| Q ^ / ^ W ^ / / / ) ` / E / ~ W ~ _ / Q ~ R W ^ / W T E ! ",
"~ _ / E W ^ / ) W R ( ` W Y E E R Q ~ ^ ! Q ~ / ! T ~ ( ) ( H v Y X.[ W ~ ( / ! ! ^ / / ( ) ^ E Q T P Y ~ ! R W T Q ` ' ~ ! / / ",
"Q ( / ! ~ ~ ^ ( ^ Q _ ] Q T W W ( / ) ( ~ ~ ( ) ~ R ) ' _ / J n L } _ E ^ _ ) ! T ! / ~ ! ^ ^ ! ! T L Y / ^ W Q ! / [ [ ^ / _ ^ ",
"E ~ ^ ^ ( / / ` ' ! / ` / ^ ) / ` ( ( ( ~ / ` ` ` ^ { { / Q J M U  .` W ) ] ) E P W ^ Q T R Q ! ^ W Y ! [ ] ^ ~ ^ / ' ) E ! / T ",
"~ / ( ( ^ ~ / _ ~ ! ^ ( ( ^ / ) _ ) ^ ~ ( ` ' _ ~ Q ^ ~ ^ ~ J Z U O.X.` _ ^ W Y Y Q W R R R R Q ^ ~ / ` [ ` ^ Q / ) ( ^ / ~ W Q ",
") _ _ ( ~ Q ! ^ ~ ! ~ ^ ~ Q ! / ) ( ~ Q ~ ( ) / ! W ~ ! ~ Q F N E +.../ ^ ! W T ! ) ) ^ ~ Q E W ' ( ^ / ) / ! W ^ ( ^ ~ ( / ! ~ ",
"' ` ) ~ W E W ! W E E Q ! ! / ) / ^ Q E W ~ ^ ^ Q E ~ ! ! E S m R O. ./ ) ) ( ^ _ { ] ( / ! E Q } _ Q E E E E E / ( ~ ! / ^ Q ~ ",
"] ` ( ! W Q ~ / ! W E W ! / ) ) ^ ~ Q E Q ^ / ^ Q E ! E R Y A M Y o. ._ ] ' ) ~ Q ^ ! R E Q ! ( [ ( W E Q ~ ^ / ] ' ( ~ / ^ Q Q ",
"[ ` / ~ ~ / ) ` ) ^ Q W ~ / ^ Q ~ ! Q Q ^ ) ) / ~ E Q Y U P C m W +. .( ) ^ R L H I I P T Q / ' _ ^ Q ~ ) ` ' ] ] ] ( ^ ( ^ ! ~ ",
"_ / ! Q ! ~ ^ ^ ^ ~ ! Q ! ^ ~ Q ^ ! Q ! ( ` ) ! / ! ^ W R T D V ^ #.} Q ~ ! T L I W ! ! ^ ^ ^ ) ^ Q W ! ^ ~ W E ~ ^ ! W ~ ~ ! / ",
"Q W E W ! ! E T T Q ^ ~ ! ~ ^ / / ! W ! ) ` ~ U Q Q ) ( / ~ K S ^ @.{ Q / ( ^ W / ] [ ' ' ) ^ / ! W E Q Q R I K E ! Q W ! Q ! ( ",
"R R W ~ / ^ E U U ~ ` ( Q W ~ ( / ! W ! ) ) E H L U / _ ` ( L S ^ +.{ ! ) ` ( ! / ' ] ` ` ` ) ` Q W W ^ ) ( ~ Q ~ ) ) / / ~ ~ _ ",
"W / ) ) _ ^ W Q W [  .( Y T / ] ] ( E Q _ ( U J U ^ [ / ~ E A m ~ @. .^ ) _ ( ! ( / _ ` / / _ ` ^ ~ _ _ _ ' ^ / ) | { ( / ( ( ( ",
"~ ) ) ( ) ^ Q ! ( { | _ W Q ( ' ] ( Q ~ ` ( R I W _ { ( ^ ! D M ^ *.O._ ` ) / ! ~ ! ( _ ~ ! ^ / W W ( ) _ ` ~ ^ _ | { ( / ( ~ Q ",
"( ` ) / / ~ Q ~ ` ` ` / Q E Q ^ ( Q T E ~ ^ ! Q / ` [ / / ^ G M ~ =.+.) ) ~ W W W E ~ ( ! Q ! ! T T ^ / ( ) ! ! ` ' ! I I R E W ",
"/ ) ^ ! ! W R W ! W W Q W R W ^ ( W Y Y T W ^ ( ~ / ( E ! ~ D b E $.| Q ^ E Y E Q R Q / ~ ! ^ ^ R T ^ ^ ^ / W ! ) ( R K I W ! ! ",
"~ ^ ! W Q E Y T R T R ! ~ ! / ' [ / ^ ~ E Q ) _ E W W U Q ~ S c T +.' T ^ W Y Q ) Q ! ) / ^ ) ) W W ^ ~ ! ^ W ! / ) ^ ~ ` ] ) / ",
"/ ( ^ ~ / ~ W Q ^ ~ ^ ( / ~ ^ ) _ ! / ( Q ~ ' ' W Q ! E ) ` J m R #.] E _ ^ E ( [ ^ ^ _ ) / ) _ ! Q / ~ ! ~ Q ^ ^ / ! Q ) ` ( ^ ",
") _ ( / ) ( ^ / ] ` ) ( / ! W W Q P T E I E ' ' E ! / ^ [ { P N E *. .~ [ / E _ ] ! ! _ ) ( ) ) W W / ~ ~ / ~ ( ( ~ U K Y Q ! ^ ",
"/ ( ~ ! / / ~ / ' _ ( / ( ( ~ E ^ L L K A K ( ) U R ! ! ' [ K n R -.o.( { ^ Y _ ( R E ( ) ( ) ) T R / ^ ^ ( ^ _ ) / R U E ~ ^ ( ",
"` ! R W ~ ! Q ! ^ / ! ! _ ' ) ( ^ ~ ! W W ~ _ [ W P Q ^ ( ) H M Q =.O.( ^ ! ^ ~ ~ ! ~ ^ ~ ( ) ^ W Q Q ! ( ` ) ~ _ _ ^ Q ( } [ / ",
"| ^ Y W ) _ ^ W / ( ! W / ) ~ ! ! / ' |  .| [ ' T E _ Q T W F v E $. .^ _ / ! W ^ Q Q Q W ^ _ ( I T E ! ^ ( ~ E W ! W Y E ( ( ! ",
"{ ) ~ / _ ( / / / / Q E ~ ^ W E T E ~ _ ] ' ) ^ T ^ [ ^ Q / J l I #.X.^ / Q W ) ! W E R T Q / ! Y W ^ ) _ _ / Q W ~ ~ W W / ) / ",
"! Q Q ~ ! E R W ^ / ! Q / / ! W E Q ~ ^ / ( / ^ ! ^ ` ' ' ) H h Q *.#.) ) W P Q Q Q ^ ^ ^ ` [ ) T W ^ ( ( ^ ~ ! ! ^ ^ ! ! / ( / ",
"/ W E ^ ) ~ T I R Q E R ! ! R Y P E / / ~ W R U / ^ ) ] ~ K S N M P H A W / U T H K U T E ) ' ( ! ~ / / ^ ! ~ / ) ( ^ ^ ( ` ` _ ",
"Q W ! ( / E I P ( ` ( / _ ) ^ ~ E ( ] ` ^ ! Q E R ~ ( / H B Y ' ] [ ! F K Y J I R E Q W Q _ [ ) Q Q W W E R W ~ ~ W R Q / ( / ^ ",
"B A J L F B B A J L G S F G D F G P P H S F G G S I I J Z J } +.{ [ ` H M V C J K L P J G L P F S Z C Z Z C A D F Z V A F F D S ",
"z l c N B m b b N B b z v n n M n B V m n M M b v Z b x C ^ o.~ U U ! K N N z z b M V N m B M l c z x v b v v n N v c b n v x c ",
"T U W ! L A K ! ! W E E W W Q W R W W E E Q E Y U E I ! n R ! ( / I T ~ m ( Y P P L P U E ! Q E R E Y Y Q ! ! / ( Q E ~ ~ E T W ",
"..$.,.=.] / o.,.1.>.;.;.:.:.-.*.%.*.*.%.%.&.#.X.@.;.$...F ~ ) / ) Y T ^ L @.X.+.=.:.;.*.=.;.&.o.&.&.+.O.&.-.:.2.>.=.=.>.>.*.&.=.",
"} ..@.O.{  .*.>.+.X. ...O.@.O.X. .o.O.X.o.O.X.} ..@.o.` F E ' { ] E I L K ` / [ ;.,.;.$.%.;.*.X.o.X.} { o.#.#.&.#.o.O.#.@.X.X.@.",
"( W E ~ ( ] { ' T R Q ^ ( / ! E W ^ / ! Q ~ ^ ! ) ! ~ ! J D P R K G S V L Q E ` ' ( E Y Q _ ) ! W ~ Q Q ( ( ~ ! ~ W R E R T W ( ",
"Q T Q ( Q U T W Y Q ) ' ) Q I K ^ ) ( W Y R Q ! / Q / ` ( P S B n S G F ! ^ ~ | ` Y F J E ! Q E W / / ^ _ ) ! W Q R T R T Y W ^ ",
"P L Q _ ! P Y ^ ! ^ ~ W U P U T / ( ! Y I R ~ ^ Q ~ ^ ~ ) ^ L m Q ....] X.[ ( } _ I G R _ _ ~ Q E / / ! ^ / ~ ~ T T E ! ! E E W ",
"U Y ^ ' ) ~ ) ] ' ) ! T U R / [ ) ^ E U R / _ ) ~ _ ~ R T T Z z T ..[ ^ ^ Q Y Q ! P K Q ] ] ^ E R / / Q ! ~ ^ / E E ! ( ) ^ Q W ",
"^ `  .{ ^ Q ( ` ^ / / ^ ^ ^ ( ) | ` W T ~ ] [ ) Q ( ^ _ ~ I n k Y ..` Q W ^ Q ( ( ~ ! ) } } _ Q W ` ' ( / ( ( _ / / ( ` ] ` ) / ",
") ' [ ` ^ ! ! ~ R W W ~ ^ W R ~ _ ! W ! ~ ) ) ~ ^ ~ E E ^ W G V ) :.O.~ ) ' ) ~ Q ! ^ ( ' [ _ Q Q _ ` ~ ! ) ( Q Q Q ^ ` ` ~ E W ",
"T E E T Y T E W R R E ^ ) ~ ! ' { ( ! Q W ^ ) ^ ^ ^ W Q ( ~ L A ` :.O.^ ( / W R T T R R Q / / ! _ ' ) Q W ^ ^ W ~ ! ~ ^ ~ W E W ",
"R W Q E E Q ! ! ) ^ ^ ' [ / ^ { | ` / ~ ! / _ ) ~ ^ Q Q / ~ K C ~ $.| ! / ! R R ~ ~ ! W Q ! ^ ~ ^ ! R Y E ~ ^ ~ ~ ^ ^ ! Q ! ! Q ",
"_ ] [ ` ( ( ( ^ ) ! Q ) _ E R ` [ ( ^ / / _ ` / ! ^ W R ! E F n T X.[ ~ ) ~ W ^ _ _ ) ( ) ) ( ^ W Y I R ^ ) ( ( Q ( _ / ^ ( ^ W ",
"` { { ) ! ~ ~ ! Y P P Q ~ U I / _ Q E Q ~ ( ( W Q ^ Q R Q E D c E O.| ) ' ^ ! ( ~ Q W ~ ) ` _ ) ^ ! ~ ` [ ' ( ~ ! _ ` ^ ! ~ Q U ",
"( _ ( R Y W ^ ^ E R W ) ` ! W ` ' ! E E W ^ ^ W W ( ~ E ^ ~ J n R O. .) ` ~ Q ( ^ W R Q ( _ ) ( ^ / ` { { ` ~ W / _ ( W T T Y L ",
"/ ( ! T E ( _ / / ( _ { } ) ^ ` ` / ~ ~ Q ~ ^ ! E ( ^ W / ( P N Y +. ./ ) ~ Q ^ _ / ~ ( ) ^ Q W Y Q / ) ( ^ ! W ~ ^ ! E T R E R ",
"^ / ! E ^ ] ` Q T Q ^ ) ` ~ E ! ^ ~ ) ) ~ ! ~ Q T / ~ E ^ ( L m Q *.+.) ) ~ W ~ ~ ~ / _ ) W U L L R ! Q R E W W T E W Q ! ^ ( ( ",
"W ( / W ~ ( R H A Z P ! ! E Q ~ ! ~ / ^ W ~ ( / ~ ~ W Y L E Z c W &.+.) _ ( ~ ^ ^ W W ^ / Q R E W ' ] ~ ! ^ ( ) Q ~ ^ ~ Q Q ^ ( ",
"U ^ ~ Y ! _ W F S K ^ ] ( ~ / ) [ ) ! I G P Q ~ Q Q E E E ) H n T %.o.^ / ~ ~ / ~ R T Q ^ ^ ( ` [ ] / ! ( ( ~ ~ / / ^ Q E W ~ ( ",
"W ` / Y ! ' E Z K ^ o.+.] ( ` ' ^ Q R U L Y ~ ~ ^ ^ ~ / ) | I B R %.X.! ! ! ~ / / Q E ! / / ) ' ' / W ! _ ( Q Q ^ ^ ~ ~ ! ^ ) ' ",
"/ ` ~ T ^ ' E S W } *.+.) ^ _ ( Q E ! ( ` { | ] ) ( / ) ) { L M Q &.X.! ^ / ~ ~ ^ ~ ^ ) _ ( ^ ~ E ! ~ ( _ ^ E Q Q ~ ^ ( ( ) _ ` ",
"~ ! T Y / ` ! Y (  .+.[ E W ^ Q ^ E E ~ _ [ { _ ^ ! Q ! Q ( F b Q &...Q ( _ / Q W ! / ` ` ( ~ Q E ( ) ( ) ^ W E / ^ ^ ^ ~ ! Q W ",
"/ ~ R E ) ` / ^ _ { { ^ Y Q ( ! ^ R R ! ^ ( / W W E R W W / F m T #.| W ( ` ^ E ! ~ / ( ( ^ ! W ~ ^ W R ^ ) ~ W ( ~ W R R E E R ",
"_ ` / ~ ) _ ( / ) _ ) Q R ^ ` ( ( ! ( ' _ ) ( ^ ! W E ^ ( ' H m Y $...W ~ / ~ E / / / ~ ! Q W W / Q I Y / ) ~ ! ^ Q R R W ~ ^ ^ ",
"( ] ` ! / _ ( ~ ~ ~ ! E T ^ ` / ^ ! ^ / W E ~ / / ! Q ) ' [ F x R =.+.! Q ! Q E ~ ~ ~ ! Q Q ! ! ` ~ R ! ) ~ E ~ / ~ ! ~ ) ` ` _ ",
"Q ^ ~ R W / / W W E R T E ) ] ) ! W Q Q Y P T W W T ~ _ [ ) F b ~ ;.#./ ~ ! Q Q ^ ( / Q E W ! ! ) W W '  .] ^ Q ) ^ ~ / ) _ _ ` ",
"_ ` ) ~ ~ ( ( ~ Q Q ~ ^ ^ ` ` ! Q R E E Y T Q Q L I ^ _ ' / F n Q -.@.^ ^ / / ( ) ^ W E Q ~ ^ ^ ^ Q ! ) ] ` ( ^ ) ^ ~ / ( ( ( ( ",
"{ ] _ / ~ ~ ^ ( / / ) ) ( _ / T Y Y R R T Q ^ E K R _ ) / ! D b T %.X.Q ! ~ ^ ( ' Q U R ^ ( ( ( / / ^ ~ ~ ~ ! Q _ ( / / / ^ ^ ^ ",
"' ) ^ ~ Q E Q ( ' _ ) ( ~ ^ ! U I E ^ ! Q ( ) E ! _ } ( ! Q D v R %...E E Q ! ^ ] W U ! _ _ / ( ( ) ( ! W ! ! W / ^ ~ ~ ~ Q W Q ",
"( ! W Q W R ! _ ' ) ( / ! ~ ! Y E / ' ( ~ _ ' ^ ` { .._ ^ ~ F v ! -.O.! Q ! ~ / ` Q E ) ] ) ~ / ^ ( ^ Q ~ ) ) ~ Q W Q Q W T R E ",
"^ ! Q ! ! ! / ` ) ^ / ( / / ^ E ~ ) ' ^ E / ' ) ( ' | ` ) ( G v ! -.+.~ ! ^ / ( ( Q Q _ ` ^ ! ^ ~ ~ Q W ! ( / Q Q ! ~ ^ ! W W ~ ",
"/ ^ ! ~ ^ / ( ) ) ~ ^ ( / ( / Q ^ / ( ~ E ^ ` ) W ~ ` ( ^ ! D v W *.o.Q Q ~ ^ / ^ W W ^ / ~ ! ^ ^ ! W W Q ! Q E ^ / ) _ ( ~ ^ ) ",
"( / ~ ! ~ / / ~ ` ^ ~ ~ ! ~ ^ Q ^ ^ ( ( / _ ' ( R W / Q R Y C v E &.o.Q Q ! ~ ^ ~ E T E Q ! ~ / ~ Q Q ! ~ ~ / ( ^ / _ _ ( ~ ^ _ "
};
