/* XPM */
static char *pd11680099569[] = {
/* columns rows colors chars-per-pixel */
"64 64 155 2 ",
"   c #000000",
".  c #0A0C07",
"X  c #070909",
"o  c #080A09",
"O  c #1D0F0E",
"+  c #1B100E",
"@  c #180717",
"#  c #160817",
"$  c #0F1514",
"%  c #101415",
"&  c #1D131E",
"*  c #25181F",
"=  c #2B1D1D",
"-  c #311210",
";  c #222116",
":  c #242118",
">  c #1D1220",
",  c #261920",
"<  c #281920",
"1  c #1C2222",
"2  c #2E2E2E",
"3  c #312927",
"4  c #342D2B",
"5  c #39312F",
"6  c #2D2532",
"7  c #2F313D",
"8  c #333333",
"9  c #3D3533",
"0  c #3D3835",
"q  c #31313D",
"w  c #3B313A",
"e  c #3C3C3C",
"r  c #363837",
"t  c #421E06",
"y  c #4B2B14",
"u  c #63351D",
"i  c #403635",
"p  c #413937",
"a  c #453D3B",
"s  c #534C2F",
"d  c #46413E",
"f  c #704324",
"g  c #7E4E20",
"h  c #74502C",
"j  c #744A31",
"k  c #0C1E46",
"l  c #0B1B4E",
"z  c #091957",
"x  c #05145F",
"c  c #08175A",
"v  c #271F41",
"b  c #040F69",
"n  c #051262",
"m  c #03106D",
"M  c #061275",
"N  c #061279",
"B  c #09137B",
"V  c #081274",
"C  c #214373",
"Z  c #454545",
"A  c #484846",
"S  c #4D4D4D",
"D  c #474749",
"F  c #504E4F",
"G  c #4E504F",
"H  c #51514F",
"J  c #4E4E50",
"K  c #4D4A5D",
"L  c #514F50",
"P  c #495058",
"I  c #4F5150",
"U  c #525252",
"Y  c #5E5252",
"T  c #5A5A5A",
"R  c #575958",
"E  c #5E605F",
"W  c #5F5F61",
"Q  c #636363",
"!  c #6A6A6A",
"~  c #726B7D",
"^  c #737373",
"/  c #99423B",
"(  c #996F36",
")  c #996B4A",
"_  c #AE774B",
"`  c #AE784C",
"'  c #877E7F",
"]  c #C39653",
"[  c #C2AD56",
"{  c #D9B75D",
"}  c #CD8665",
"|  c #E4A57C",
" . c #0D1982",
".. c #0C1780",
"X. c #16218C",
"o. c #1A258F",
"O. c #1C2690",
"+. c #1D2993",
"@. c #222D97",
"#. c #222D99",
"$. c #1A4CA6",
"%. c #224AAD",
"&. c #2D4EAB",
"*. c #3C49AF",
"=. c #265AA8",
"-. c #3152AF",
";. c #304DB1",
":. c #274CB7",
">. c #736B80",
",. c #2D4EC2",
"<. c #2D50C4",
"1. c #3458CD",
"2. c #3555D2",
"3. c #3A5AD6",
"4. c #2461C5",
"5. c #2664CC",
"6. c #2E65C7",
"7. c #2A68D4",
"8. c #2D6ADC",
"9. c #2E67DB",
"0. c #316ED6",
"q. c #316ED9",
"w. c #3270DC",
"e. c #3E59E4",
"r. c #2F6EE0",
"t. c #3F61E6",
"y. c #3377EA",
"u. c #3879F7",
"i. c #3D76FE",
"p. c #3A7CFF",
"a. c #3778F6",
"s. c #3D68F3",
"d. c #425CEE",
"f. c #455FF2",
"g. c #4262EB",
"h. c #4964FE",
"j. c #446BFF",
"k. c #436AF6",
"l. c #4272FF",
"z. c #887F80",
"x. c #61A0EF",
"c. c #62A1F0",
"v. c #AF9A97",
"b. c #B19997",
"n. c #B29A98",
"m. c #B5B6B5",
"M. c #C4B59E",
"N. c #C2B6A0",
"B. c #F9D6BA",
"V. c gainsboro",
"C. c #E5E6C7",
"Z. c #E6E7C8",
"A. c #FAEDE7",
"S. c #F2F8F8",
"D. c white",
/* pixels */
"S U U U R R U U U S U U H S H D H U U H U U Z D S S S D U U e r U ! W S S H U U R U U F H H H D S D D H U U Z Z U T R U F S D S ",
"U R R U U U U L S S U R L D S S U U S D U U d Z S G U S U U Z r U ! T S F U U F S S S D S U U F G S A S U S D S U T R U U U S F ",
"U U U F U H S S S S U T U U U U U U S D U S Z Z S S S S S H e r F Q R S U U U S D D S D S U T U U U S S U U S H R R U U U U H U ",
"S U F D D S U U S D F U U U R U S H S D U S S S U U G S F S Z r S W T S H U U S S S U S U U U U U U S H U U S U U U U U F S S U ",
"S U S A D U U U S A S U H F U U D S D S U S S U R U U U U U Z r S Q R S F U U D U U U G U U U D U F S H U U S F D S U U S D S S ",
"U U U S S H U U S S U U S D D S S S H U S S U U U D G U U U Z 8 A W R S S U U H S H H U U U H S S D Z D F S S D S F U R S H U U ",
"S U U S S F U U H S U T S D S S U U U U S U U U F D U T           R U S       S D F U H U U U S G D Z A U U S S S U R R S U U U ",
"S S U G U U U U R S U U U G U U U U U U S               . o % % o       o X   S Z S H S D D S H H S D H T U G U F U U U S S U A ",
"U U U U U U U U F S U U U H U U U U H S U   o % o   o % % % $ q 1 1 % o X   G A A G S S S D S S H F U U R U U S U U U U U S S S ",
"U U U U S S S U H F F G S S S U U U U S G U   o o $ 1 o o $ 1 1 P 1 1 1 $ X           G S S D S U U U U U U S S S U F U U S S U ",
"U U U U S D S S S D S S S S U U U           o % 1 1 X o 1 K q q 1 P P 1 > P % % % o   U U S S H T U S D S S S D U U H S U U S U ",
"R R U H S S S U S S S S G U U U U   o % 1 1 1 1 1 q q 7 1 P P q q q P 1 7 P 3   o   G D S S G U R U S S S F U U R U U F U S S S ",
"R U U L L U U U U U S S U L S S J S   o o $ 1 o q P % 1 q 1 % 1 q 1 q P 1 q P o     Z Z D G U U U U S S U U R U R U U S U U S H ",
"U U L S S H G U H G F S S U U S U S S       . q P 1 o q P % 1 q P q 1 q P 1 o % % o   U S U U U U H S F U S S S U U S S S S S U ",
"S S S S S S S D D S U U S J G U U S S   o % 1 P % o q P 1 % q P P P q 1 q 1 % o % % o   T U U U S S S S S S Z Z S S S S J S S U ",
"S D S S U H S A D S U U S S S U U S   o % 1 1 % o o P 1 % . P 1 % P P q o % 1 %       U U U U U S S D U U U S S L U U U U S U U ",
"S U U U U U S S F R T U S D U T R U S S   . % o   1 P % o o 1 X   1 $ K 1 o % %   U U T U U U U U S U U U R U U U R R U U U U U ",
"S U U U U U S S U R T U S F U U U U S H U       o q % o     %   . $ o % P 1   o %   U U F F U U S S U U U U U U U T R U L U F S ",
"U U U U U H S U U R U U S S S F U F D S     o   1 1 X   B.  o   $ X     o q o   o   S U S S S F D D U U U U U S U R L Z A D S S ",
"U U U F S S D S F S S S S D S H U S D D   /     q $   B.B.B.  B..   B.  o % 1     * S U J H U U S D H U S U S S U U S Z A S S S ",
"S G S S S S D D D D S S S H U U R U H H < B.}   1 o   A.B.B.B.B.  B.A.A.  o q } B.< G U U H U U S S U S S U D H U U H H U R U L ",
"U U U S U S S S L U H U U S U U U S U U < B.}   %   / / | B.B.B.B.| / / }   1 | B.< U U U U U U S S U G S S S U H U S S U R U U ",
"U U U U U U H U R U U U U S S S S Z D D < B.B.  o g * * g | B.B.| g < < g   $ B.B.* S U U U U U S S H S U L S U U S D Z D S S L ",
"U U H S U U S U R U U U U U S S U Z Z Z e < B.} o S.* s S.B.B.B.B.S.s < S.| X B.* S S U U U U U A S U H U U U U U U D Z S J L U ",
"U U D S U J S S G U S > & & U U G S S S > F < X   B.; ; S.B.& & > S.: ; B.|   , S F F U S U U U S S S S U U U H U U J S U T R U ",
"T U D S U U L S U U S & C.M.& & & H T & j & & <   B.B.> & & M.C.& B.B.B.B.} , & > > S S S U U U Z D S S U U G D S U S A D U U F ",
"R U H U U J U G U U J & D.~ ~ ~ ~ & & & & & & &   & & M.M.C.~ Y & B.B.B.| / & K K 6 & & D S U J D S U U U U U S S S J S S H U U ",
"F S S S S S S S S U S & D.~ ~ ~ ~ ~ ~ ~ ~ ~ M.N.M.M.Z.~ ~ ~ ~ Y & B.| / / & K ~ ~ K 6 & & U R U D S U U U U U S S U U S S U U U ",
"U S S J U G S Z D S S & C.~ o.#.#.~ ~ ~ ~ ~ ~ ~ ~ ~ ~ n z k ~ Y * / / + + > ' ~ z.' K & & U R U H H U U L S L U U U U U U U U U ",
"S S S U U S Z Z U U L & D.~ o.@.@.@.@.O. .%.1.<.M m b x l k ~ Y & O + f h & & ' ~ & z.K & > R U S S S D S D S S F S D S U U U U ",
"r e Z Z e r r a Z Z Z & D.~ X.@.@.@.@.O.$.l.p.i.d.f.f.x l k ~ Y & f f h h h f & & ' & & & & Z e a r r e r e e e d r r e Z e e e ",
"4 2 2 r r r 8 8 r r 8 & M.~ o.@.@.@.@.@.$.p.p.p.p.u.p.x l k ~ Y & h h h h h f + ' K K 6 6 & r 2 8 2 8 8 8 8 8 r r 8 2 8 8 8 8 8 ",
"S D S S Z e Z S S S S & M.~ X.O.@.@.@.@.=.a.p.8.8.b b x l C ~ Y & h h h h h f O K 6 6 & & & S S D S A D S S G U U S S S G S D S ",
"T Q ! ! T U T ^ ! ! ! & M.~ l.j.,.=.@.@.#.q.p.M m b b ;.3.i.~ Y & h h ( h f f O & > & & K & Q Q ! Q E Q Q ! ! ^ ! Q ! ! ! Q Q ! ",
"T E Q T T T Q ! Q E T & M.~ B  .p.k.g.@.#.w.p.M m :.e.p.0.k ~ Y & h ( h f & & & & & K ' ' & ! T Q T R R W Q Q ! Q T Q Q E W E Q ",
"H S S H U U T R S D G & M.~ N  .@.0.p.h.0.w.p.M h.i.p.x l k ~ Y & & V.m.^ u t & * * M.N.' & L S S F S F U U S S U S D S S A S U ",
"S D F U S D D S A S U & M.~ j...X.O.@.y.w.0.p.N p.b b x l t.~ Y & ) m.j ^ & > & = & M.z.z.> S S S U U H U U S S F D D S A A S F ",
"Z Z S U S Z D U G U S > M.~ V j.s.1.@.O.w.0.p.M 7.b %.&.l.6.~ Y & > ^ ^ ^ q + . = & & & K > S S D F U H U U L S D A S S F S D S ",
"A D H T U F U R U U S > M.~ 2.N N l.d.g.8.0.p.M j.3.i.i.l -.~ Y & q 7 7 + + O = = | B.B.& & G S S U U S S S U U S S U U U U S S ",
"U U R T U H U U U U U & ~ ~ a.h.1.B u.u.5.5.p.m p.p.b x h.l.~ Y & O O O O - = ` ] = B.A.= < U J S U U U U U U U U H U U R U U H ",
"U R T U H S S F S S S & ~ ~ V y.a.h.B B 7.5.p.b 9.b j.k.r.k ~ Y & - - - - y w w { ] * = { < U J F U U H S U U S S S U U U H D S ",
"A S S D A S D S D S D & ~ ~ m V M N l.l.q.9.p.%.p.j.4.=.z k ~ Y & f f f w w z.z.w { C.{ [ < U S U R U H S S U S H S S U U S S S ",
"D S S S S S F S U U H & ~ ~ ~ m M N N M p.p.p.i.8.m n z k ~ >.Y & f w w z.z.w w = [ [ [ _ = L L U S D D S H H F F U G S S S S S ",
"U T R U U U U H U S S U & ~ ~ ~ m b m m b p.p.u.b n z l ~ Y Y & w w v.' w w > < j _ _ ` = U U U S D Z D U U U U S U U U U U U S ",
"R T R U S H F S A Z Z S S & > ~ ~ m b b b 1.p.n n c l ~ Y & w w v.v.w w u j ) # * = < = U R U U U S S U R R U F U U U H S H S A ",
"U U U S D S H U S S S U U U S & ~ ~ b b b b p.n z l ~ Y w w n.n.w w u u j j ) # c.*.@ J U U U U H U U T R U F S U U U S D D D Z ",
"U U S D S U U U H U U T T U U U & ~ ~ m n 5.p.c l ~ w w M.M.w w & y u u u u # x.*.6 @ U U U S S D H U U U H S S S U S S D S S D ",
"F U H D F R U S D H U U U H D S G & ~ ~ ~ ~ ~ ~ w w M.M.w w = = = & y u u u # 6 @ @ w p U S D Z Z D S U S D S S S D S S H H U U ",
"S U H S H U D Z e r Z F S D S U F 9 & ~ ~ ~ w w M.M.w w > = = 3 5 * - y u u # # 9 9 5 9 i S D S S T U U U U U U S U S U S S U U ",
"Z U S A U U S d e Z F R U H U U p 9 9 & w w M.M.w w u y y & 5 3 * y u u u u u u & 5 9 9 9 9 U R T U U S U U S F H U U S D S S U ",
"S R U D S U S e Z G E E R U U R 9 9 w w M.M.w w u u u u y & 5 4 & u u u u u u u & 9 9 9 9 0 U U U U S S U U S S J U S S U U U T ",
"U U H D F R D e S T Q Q U U U U w w M.M.w w ) ) u u u u y & 5 3 & u u u j j j j u & 9 0 i i U H S S H U U H S S S S U U U U U U ",
"F S D D U T S D U T Q R S S F w M.M.w w & ) j j j j j u y & 4 4 & y u j ) ) ) ) u & 9 i 0 U F S S U U U U H S D U U U H G S S S ",
"U F D S U U H U U R R U A S w w w w 9 9 9 & j j j j u y y & 5 3 & y y y y y y y & , 9 9 U U S S S U S S U U U S U S S A D S D S ",
"U U U S U T H H U R U S D U U U U J U p p 0 & & & & & & & p 5 3 5 & & & & & & & < 0 0 F J S D S U S Z D U U U S F S D S S F H U ",
"U R U U U U U F F F F S D U U U H S U H S 5 9 9 0 0 9 0 i p 4 3 5 d a 5 9 9 9 9 9 F G S S S F U U G S S U S D H U S S G U T U U ",
"S U S S S U U S S S S A D U R U H S S S D Z A S S w i i p p 4 3 i d a i 9 F S S U U U S S S S S U S S U T R U S U U S U U U U U ",
"U U U H S U U S S S U U U U U F S D D S D D S S Z Z L R R U e 8 S ! Q F F H H U U U D S S S H U U S U U R U U U U H S U U U U U ",
"T R U U H J U U U U U U U U U S D A S D S S H S Z A U U U J d 8 A Q E F S U F U U S D D H U U U U U U S L F S S U U U U U U U U ",
"R U H U S D H U U U U U F L S A A D U H S U U S S U R U S S e 8 S Q E A S S S H T S A H U U U U U U U S S S S S U U S G S S S S ",
"U S S S D S S U U U U G S S H D S U U U U U U H U T T U U F e 2 S ! Q S S S F U U S S U U U S U S U U S U U U G S S S S S D D S ",
"U S S F S S U U U J U U U U U S F U U U S U R U U T T U U U Z 8 S ! Q F S U H U U S S U R U S S U S H D S U U S S F S U S S S H ",
"U J S U U U U U U U L U U U U S S U U H D U T U S H T U U F e 8 S Q W S S U U L H S S U U U S U U S S D S F S D U U U R U F U U ",
"U U L S S U U U U U U S S H S S U H U U U U U U D S H S D A e 8 S Q W S S S G S F S D D S S U U S S S H S H U U G H U U U S U U "
};
