/* XPM */
static char *pd21680099569[] = {
/* columns rows colors chars-per-pixel */
"64 64 150 2 ",
"   c #000000",
".  c #080A07",
"X  c #060A09",
"o  c #080A09",
"O  c #1D0F0E",
"+  c #1B100E",
"@  c #180717",
"#  c #180719",
"$  c #170717",
"%  c #0F1314",
"&  c #101415",
"*  c #1D131E",
"=  c #261A1E",
"-  c #2B1D1D",
";  c #311210",
":  c #232017",
">  c #1D1220",
",  c #261920",
"<  c #281920",
"1  c #1C2222",
"2  c #2E2E2E",
"3  c #212629",
"4  c #312927",
"5  c #342C2A",
"6  c #36312E",
"7  c #39312F",
"8  c #2D2532",
"9  c #2B3035",
"0  c #2F313E",
"q  c #333333",
"w  c #3D3533",
"e  c #31313D",
"r  c #3B313A",
"t  c #3C3C3C",
"y  c #421E06",
"u  c #4B2B14",
"i  c #63351D",
"p  c #413937",
"a  c #453D3B",
"s  c #403637",
"d  c #7D4D1F",
"f  c #534C2F",
"g  c #46413E",
"h  c #704324",
"j  c #7E4E20",
"k  c #744D2D",
"l  c #74502C",
"z  c #744A31",
"x  c #0C1E46",
"c  c #0B1B4E",
"v  c #0A1955",
"b  c #06145E",
"n  c #08175A",
"m  c #09185B",
"M  c #040F69",
"N  c #051263",
"B  c #03106E",
"V  c #051275",
"C  c #07127A",
"Z  c #09147D",
"A  c #214275",
"S  c #454545",
"D  c #4D4D4D",
"F  c #474848",
"G  c #4E504F",
"H  c #50504E",
"J  c #4D4F52",
"K  c #4D4A5D",
"L  c #514F50",
"P  c #495058",
"I  c #4F5150",
"U  c #525252",
"Y  c #5E5252",
"T  c #5B5B5B",
"R  c #565658",
"E  c #605253",
"W  c #636363",
"Q  c #6A6A6A",
"!  c #726B7D",
"~  c #737373",
"^  c #99423B",
"/  c #996E37",
"(  c #9A6B4A",
")  c #AD774B",
"_  c #877E7F",
"`  c #C39654",
"'  c #C1AD56",
"]  c #D9B75D",
"[  c #CC8565",
"{  c #E4A57C",
"}  c #0E1982",
"|  c #0E1780",
" . c #16218B",
".. c #19268F",
"X. c #1B2690",
"o. c #1D2993",
"O. c #222D97",
"+. c #1D48A4",
"@. c #1851A8",
"#. c #224AAD",
"$. c #2D4EAB",
"%. c #2658A5",
"&. c #314EB4",
"*. c #3152B1",
"=. c #274CB7",
"-. c #2960B0",
";. c #2C4DC1",
":. c #2D50C4",
">. c #3457CD",
",. c #3555D3",
"<. c #3A5AD5",
"1. c #2461C5",
"2. c #2664CB",
"3. c #2E64C6",
"4. c #2A69D4",
"5. c #2E6ADC",
"6. c #2E67DB",
"7. c #316DD5",
"8. c #316DD9",
"9. c #3270DC",
"0. c #3E59E6",
"q. c #2D6FE0",
"w. c #3176E8",
"e. c #3B6CF3",
"r. c #3579F2",
"t. c #3879F7",
"y. c #3D75FF",
"u. c #3A7CFF",
"i. c #3778F8",
"p. c #425CEE",
"a. c #455FF2",
"s. c #4262EB",
"d. c #4062E7",
"f. c #4964FE",
"g. c #456AFE",
"h. c #4172FF",
"j. c #887F80",
"k. c #877E81",
"l. c #B19997",
"z. c gray71",
"x. c #C4B59E",
"c. c #C4B5A0",
"v. c #F9D6BA",
"b. c gainsboro",
"n. c #E4E6C7",
"m. c #E6E7C8",
"M. c #FAEDE7",
"N. c #F2F8F8",
"B. c white",
"V. c #F2F7FA",
/* pixels */
"D U U U R R U U U D H U H D H F U U L L R U F F D D D F U U t q U W T U D D U U R U U D H L H F D F F L U U F F L T R H U D F D ",
"U R R U U U U U D D R R U F D H U U D F U D g S D D U D R U S t U Q T H H U U U D D D D D U U U H D F D H D F D U T R U U U H H ",
"U U U H U L D D D D U T U D U U U U F F U D S F D D D D U D t q U W T G L U U D F F D F D U R U U U D D U J D H R T U U U U H U ",
"D U H F F D U U H F D U U U T U D H D D U U F D U U J D D H S t D T R D U U U D D D U D U U U U U U D L U U L U U U U U H D D U ",
"D U L F F U U U H F D U L L U U F D D D J H D U R U U U U U F q D W R D D U H D U U J U U U L D U L D H U L D J D D D U D F D H ",
"U U U F D U U U D F U T D F D F F D U U D D G U L F H U U U S q F W R D J U U D D L H U U U H D D F F F L D F D F D U T D J L L ",
"D U U D D D U U L D U R D F D D U U U U H L U U U F U R U           U D U       F D U U L U U D D F F F U L D D L U T U L U U U ",
"D U D U U U U U T D U U U D U U U U U U D U               o o & & o       X X   F D L D F F D D U D F D T U L U D U T U F D U F ",
"U U U U U L U U D D U U U H U U U U U D U U   o & o   o & & & & e 1 1 & o o   F F J D F F D F D U D U U R U U D U U U U J D D D ",
"U U U U D D D U L D J L D D D U U U U D U U U   o o & 1 o o & 1 1 P 1 1 1 & o           D D D J U U U U U U D D L U H U U U D H ",
"R U U H D F D D D D F D H D U U U D           o & 1 1 o o 1 P e e 1 P P 1 1 P & & & o   U D D D T U D F D D D F U U U D U L D H ",
"R R U J D D H U D D D D D U U U U H   o & 1 1 1 1 1 e e e 1 P P e e e J 1 e P 1   o   D D D H U R U D D D U D L U R U D U U D D ",
"R R H H L U U U U U D D L U J D D D D   o o & 1 o e P & 1 e 1 & 1 e 1 e P 1 e P X     F F D U R R H D H U U T T R U U H U U D J ",
"R H H H D H J U U D L D D U H D U D D H       o e P 1 o e P & 1 0 P e 1 e P 1 o & & o   U L U U U D D H U U F D U U D D D D D U ",
"D D D D D D D F F D U U D D U U U D D J   o & 1 P & o e P 1 & e P P P e 1 e 1 & o & & o   U U U H D D D D F S S F H D D D D D U ",
"D F D D U L D F F D U U D D D U U D D   o & 1 1 & o o P 1 & o P 1 & P P 0 X & 1 &       U U U U D F D L U U D D U U U U U U H U ",
"D H U U U U D D D R T U F D U R R U D D U   o & o   1 K & . . 1 o   1 & P 1 o & &   U U U U U U L J U U R R U U U T R U U U U U ",
"H U U U U U D H U T T R D D U U R U D H R U       o e & .     &   . & . % K 1   o &   U D H U U D D U U U U H H U T R H U U H D ",
"U U U U U L D L U R U U D D D H U H F D H     o   1 1 o   v.  .   % .     o e .   o   U D D D J F F U U U U D J U R U F F F D D ",
"U U U D D D F D H D D D D F D H U D F F F   ^     e &   v.v.v.  v.o   v.  o & 1     = U H H U U D F H U H U D D U U D S F D D D ",
"D U D D D F F D F D F D H D U R T U L J D < v.[   1 o   M.v.v.v.v.  v.M.M.  o e [ v.; H U U U U D D H D D U D D U U L H U R U U ",
"U U U D U J D D U H U U U H U U U D U L D = v.[   &   ^ ^ { v.v.v.v.{ ^ ^ [   1 x.v.- R U U U U D D U H D L D U L L D D U R U H ",
"U U U U U U H U R R U U U D D F D S F D S = v.v.  X d = = d { v.v.{ j < < j   & v.v.= U U U U U D D L J U H H U U J F S F D H H ",
"U U L D U U D L U U U U U U J F J S S S t S = v.[ X N.= f N.v.v.v.v.N.f = N.{ o v.= D U U U U U F D L L J U L U U U F F D H L U ",
"U J F D U J D D L U D D * * * U H J D D D D U , o   v.: = N.v.* > > N.: : v.{   , D J L L U U U D D D H U U U U U U L D U T R U ",
"T U F D U U U D U U J D * n.x.* * * R T T * R + ,   v.v.* * * x.m.> v.v.v.v.[ , * * * D D L U U F F D D U U U F D H D F F U U D ",
"R U H U U U U J J U D D * B.! ! ! ! = * * * * * *   > * x.x.m.! Y * v.v.v.{ ^ * K K 8 * * D U D F D H U U U U D D D L D D U U U ",
"H D D H D D F D H U D D * B.! ! ! ! ! ! ! ! ! c.x.x.x.m.! ! ! ! Y * v.{ ^ ^ > P ! ! K 8 * * R U F D J U U U D D D U U D D U U U ",
"U D D H U L F F F D F F , n.! X.O.O.! ! ! ! ! ! ! ! ! ! N c x ! Y * ^ ^ O O = k.! _ _ K * * R U D L U U U D D U U U J J U U U U ",
"D D D U U F F S U U U U * B.! ..O.O.O.O.X.} +.,.:.V V M b v x ! Y * O O h l * * _ ! * _ K * * U D D D D F F D U H D F D U U U U ",
"w t S F S t w t F S t t * B.! X.O.O.O.O.o.+.g.u.y.p.p.s.b c x ! Y * h h k l k h * * l.* * * * a t t t t t t t t t t t t S t t t ",
"9 2 2 q q q q q q t q q > x.! X.O.O.O.O.O.@.u.u.u.u.u.u.b c x ! R * l l l l l h % ! S K 8 8 * 2 9 2 2 5 q q q q t q 5 q q q q q ",
"D F D J F t S H D D D D * x.!  .o.O.O.O.O.-.i.u.6.q.M M b c A ! E * l l l l l h O K 8 8 * * * D F F F F D D D U U D F J H F F D ",
"T W Q W R U E Q Q Q Q Q * x.! h.h.&.%.O.O.O.7.u.V M M M &.7.h.! Y * l l / l h h O * * * * K * W W Q W W W Q Q ~ Q Q Q Q Q Q W Q ",
"T T W W T T Q Q W W T T * x.! C } y.g.p.O.O.9.u.V M =.0.h.7.x ! Y * k / l h * * * * * K _ K * T W T T T W W W Q W T W W W T E Q ",
"U D D I U R T U F F D U * x.! C } X.9.u.f.6.7.u.C f.y.u.b c x ! Y * * b.z.~ i y * = * > * k.* D D D D D U U D D D D F D D F D U ",
"G F D U D F F D F D U R > x.! f.}  .X.O.r.9.7.u.V u.M M b c 0.! E * ( z.k ~ = * = = { { { * * D D L U L U U D D D D D F F F D J ",
"F S D U D F F U D H H D * x.! V h.e.>.X.o.9.7.u.V 4.M #.$.g.3.! Y * * ~ ~ ~ 0 O < { { { { { = D F L U D U U L D F F D G J D F D ",
"F D U U U H U R R H D F > x.! ,.Z Z h.s.s.8.7.u.V y.<.y.y.c *.! Y * 0 0 0 O O O = - - v.v.= - D D L U L D D U U D D H U U U D D ",
"H R T R U H U U H U U U * ! ! t.f.>.Z t.u.2.2.u.M u.y.M b f.y.! Y * O O O u u u - ) ` - - ' ] - D U U U U U U U U H U U R U U U ",
"U U R U H D D H D D D L * ! ! V w.e.g.C C 4.2.u.M 6.M g.g.w.x ! Y * ; h h h h u r r ] ` m.] ' - D U U H D U U D D D L U U L D D ",
"F D D D F D F D F D F H * ! ! B V C C h.h.8.6.u.#.u.g.1.%.c x ! Y * h u O O O r _ _ r ] ' ' ) - U T U H D J U D H D H U U D F D ",
"D D H D F D H H U L H R * ! ! ! B V V V V u.y.u.y.q.N N n x ! ! Y * u O 9 9 r _ l.r = ' ) ) - H L L F F D H L D J H L D D D D D ",
"U R R U U U U U U D L U U * ! ! ! B B B B B u.u.t.B N m c ! Y Y * O O 3 9 r x.l.r - z ) - - U U D F F F U U U U D U U U U U U D ",
"U T R U H L D D F S S D H F * * ! ! M M N M 1.u.N N m c ! Y > * - @ % 9 r x.l.r = $ = - U R U U L D H U R R U U L U U H D J D F ",
"U R U D F D L U D D D U U H D R * ! ! M B M M u.N v c ! Y * * @ @ = = r x.l.r ( ( * $ w U U U H J U R R T U U F U U U D F D F S ",
"U U D F D U U U U U U T T U L U U * ! ! B B 3.u.m c ! Y * y > @ @ @ r x.l.r z z ( * w w s H D D F D U U U L D D L L H D F D D F ",
"U U H F U R U D F J U U U H D D H D = ! ! ! ! ! ! ! E * u y * - - r x.l.r i i i * w w w s w F S F D D H F D D D F D D D D H U U ",
"D U L D L U F S t w F D G D D D D w w * ! ! ! Y Y Y > u u u * - r x._ r i i i u * w w w w w w D D R R H L U U U D U J H D D U U ",
"F H D F H U D S t S U R U G U U T w w 7 * * * * > * i i u u * r c._ r * i i i i y * 7 w w w w R U R U H U U J D U U L D D F H U ",
"D R U F D R F t S J T T R U U R U w w 7 6 7 = $ # z z i i u r x._ r * y i i i i i * w w w w w U U U D D U U D D D U D D L U U T ",
"U U L F U U D t D R Q W U U U U F w w w s p > i z z z k u r x.k.r a * u i i i z z i * w p w w L D D H U U U F D D H U U U U U U ",
"H D F F U U D F U T W T D D H D L D w w s p * u ( ( ( u r x.k.r w a * u u z z ( ( u * w s w H D D U U U U U D D U L U U J H D D ",
"U L F D U T U L U R R U F H U D H D F w 7 w s * * * * r x._ r 5 w a * u u u u u u u * w w U D D H H D D J U L D U D D F F D D F ",
"U U U H U U U U U R U D F U U U U D U R p s s w r w r x._ r 5 4 6 a a * u u u u u > w w D H D D L D F F U U H D L D F D D L U H ",
"U R U U U U U U H H H D F U U U H G U H D F w w w r x._ r w 5 4 w g p w * * * > * w G J D D J D U L F L U H D D U D D H U R U U ",
"D U U F F U U D D D D F F U T U D D D D F F F D D r r r p p 5 5 w g a w w w D D U U U D F D D D U D D R T R H D U U H U U U U U ",
"U U U U H U U J D D U U U U U H D D D F F F D D g F H R R U t q D Q W U H U U U U L F D D U U L U D D U R U U U U U D U U U U U ",
"T R U U L D U U U U U U U U U F F F D F D D L D F F U U U J t q F W W D H D J U T D F F H U U U U U U D U H J D U U J U U L U U ",
"R U D U D D L U U U U U L L H F F F U D D L U D H U R U J D t q F W T F D D D H U D F U U U U U U U U D D D D D U U D H D D D D ",
"U H D D D F D U U U U U D D D F D U U U H U R U U R W U U H t 5 D W W D D D J U U D D U U U D U H U U D L U U L D D D D D F F D ",
"U D D D D D U U U U L H U U U D D U R U D U R U U R T U U U S q J Q W U D U U U U D D U R U D H H D D D D U U D D D H U D D D U ",
"U J H H U U U U U U U U U U L D L U U H D H U U D H R U H D t q D Q T D D L H U L D D U U H D U U D D D D H D F U U U R U J L U ",
"U U L D D U U H U U J L D D U D H U U U U U R U F D H H F F t q D W W D D D H D L D F F D H J U D D D D D H U U U H U U U D U U "
};
