/* XPM */
static char *pd31680099569[] = {
/* columns rows colors chars-per-pixel */
"64 64 152 2 ",
"   c #000000",
".  c #080A07",
"X  c #060908",
"o  c #080A09",
"O  c #1D0F0E",
"+  c #1B100E",
"@  c #180717",
"#  c #190818",
"$  c #170717",
"%  c #0F1314",
"&  c #101415",
"*  c #1D131E",
"=  c #2B1D1D",
"-  c #232017",
";  c #232019",
":  c #1D1220",
">  c #261920",
",  c #281920",
"<  c #1C2222",
"1  c #2E2E2E",
"2  c #23272A",
"3  c #342C2A",
"4  c #302826",
"5  c #39312F",
"6  c #2D2532",
"7  c #2B3034",
"8  c #2F313E",
"9  c #333333",
"0  c #3D3533",
"q  c #31313D",
"w  c #3B313A",
"e  c #3C3C3C",
"r  c #363837",
"t  c #431F07",
"y  c #4A1F16",
"u  c #4B2B14",
"i  c #63351D",
"p  c #413937",
"a  c #403738",
"s  c #443C3A",
"d  c #403635",
"f  c #7D4D1F",
"g  c #534C2F",
"h  c #704324",
"j  c #7E4E20",
"k  c #744D2D",
"l  c #74502C",
"z  c #744A31",
"x  c #0C1E46",
"c  c #0B1B4E",
"v  c #091957",
"b  c #05145F",
"n  c #08175A",
"m  c #271D40",
"M  c #281E41",
"N  c #040F69",
"B  c #051162",
"V  c #03106D",
"C  c #061275",
"Z  c #061279",
"A  c #09137B",
"S  c #081274",
"D  c #214373",
"F  c #454545",
"G  c #4D4D4D",
"H  c #464648",
"J  c #504E4F",
"K  c #50504E",
"L  c #4B4F54",
"P  c #4D4A5D",
"I  c #495058",
"U  c #525252",
"Y  c #5E5252",
"T  c #5B5B5B",
"R  c #636363",
"E  c #6A6A6A",
"W  c #726B7D",
"Q  c #737474",
"!  c #99423B",
"~  c #996F36",
"^  c #9A6B4A",
"/  c #AD774B",
"(  c #AE784C",
")  c #877E7F",
"_  c #BFAE56",
"`  c #C39653",
"'  c #C1AD56",
"]  c #D9B75D",
"[  c #CC8565",
"{  c #E4A57C",
"}  c #0E1981",
"|  c #0C1780",
" . c #16218C",
".. c #1A258F",
"X. c #1C2690",
"o. c #1D2892",
"O. c #222D97",
"+. c #232D99",
"@. c #194DA6",
"#. c #224AAD",
"$. c #2D4EAB",
"%. c #3C4BAD",
"&. c #285FAF",
"*. c #2658A4",
"=. c #3152AF",
"-. c #304DB1",
";. c #274CB7",
":. c #736B80",
">. c #2D4EC2",
",. c #2D50C4",
"<. c #3457CD",
"1. c #3555D2",
"2. c #3A5AD6",
"3. c #2461C5",
"4. c #2664CC",
"5. c #2E65C7",
"6. c #2A68D4",
"7. c #2D6ADC",
"8. c #2E67DB",
"9. c #316ED6",
"0. c #316ED9",
"q. c #3270DC",
"w. c #3E59E4",
"e. c #2F6EE0",
"r. c #3F61E6",
"t. c #3377EA",
"y. c #3D68F3",
"u. c #3879F7",
"i. c #3D76FE",
"p. c #3A7CFF",
"a. c #3778F6",
"s. c #466ACA",
"d. c #425CEE",
"f. c #455FF2",
"g. c #4262EB",
"h. c #4964FE",
"j. c #446BFF",
"k. c #436AF6",
"l. c #4272FF",
"z. c #887F80",
"x. c #877E81",
"c. c #61A0EF",
"v. c #62A1F0",
"b. c gray71",
"n. c #C4B59E",
"m. c #A8C3B2",
"M. c #F9D6BA",
"N. c gainsboro",
"B. c #E5E6C7",
"V. c #FAEDE7",
"C. c #F2F8F8",
"Z. c white",
/* pixels */
"G U U U T U U U U G U U G G K H U U J J T U H G G G G H U U e r U E T U G K U U T U U K K U U H G H H K U U H H U T T U K G H G ",
"U T U U U U U U G G U T U H G K U U G H J K F e G G J K U U F r T R T J J U U U H G G H G U U G K G H G G G H G U T U U U U G K ",
"U U U U U U G G G G U T U K U U U U G H U G F F G G G G U G e r G R T G U U U G H G G H G U T U U K G G U U G U T T U U U U U U ",
"G U K H H G U U G H K U U U T U K K H G J U G G U U K G G K F r G R U G U U U H G G K G U U U U U U K U U U G U U U U K G G G U ",
"G U G H G U U U K H G U G U U U H K G G J J G U T U U U U U F r G R T G K U U G U U G U U U U G U K K K U U G K H G G U G H G K ",
"U U U G G G U U G G U U G H G H H G K K K G K U G G U U U U F 9 H T T G G U J G G U U U U U G G G H H H K G G H G K U T K G U U ",
"G U U G K G U U K G U T G H G G U U U U L K U U G G U U U           U G U       H K U K U U U G G H F H K U G G G U T U K U U U ",
"G G U G U U U U U G U U U K U U U U U U G U               o o & & o       X X   F G K K H H G G U G H K T U K U K U T U H G U H ",
"U U U U U J U U U G U U U U K U U U U U U U   o & .   o & & & & q < < & o o   H H K G G H G H G U K U U T U U K U U U K U J G G ",
"U U U U K G J J U K G U G G G U U U G G K U U   o o & < o o & < < I < < < & o           U G G G U U G U U U G G G U K L U U G G ",
"T U U J G G G G H G G K L G U U U U           o & < < o o < I q q < I I < < I & & & X   U K G G T U G G H G G H U U G G U U G U ",
"T U J G G G J U G G H G J U U U G U   X & < < < < < q q q < I I q q q I < q I <   X   G H G G U T U G G G K G U U T U U J K G G ",
"T U U L K U U U U K G G K U K G J G G   o o & < o q I & < q < & < q < q I < q I X     F H G U T U U G G U U T T T U U K U U G G ",
"U U G G G K J U K J J G G K K G U G G K       o q I < o q I & < q I q < q I < o & & o   U U U U U G G L U G G H J U G G G K G U ",
"G G G G G K G H H G L J G G U U U G G G   o & < I & o q I < & q I I I q < q < & o & & o   U U U G G G G G G F F G G G G J G G U ",
"H G G K U K G H H K T U G G G U U G G   o & < < & o o I < & o I < & I I 8 . & < &       U U U U G G G K U U G G K U U U K L U U ",
"G K U U U U G G G T T U G H U T U U G G U   o & o   < P & o o < o   < & I < o & &   U U U U U U J G U U T U U U U T T J K U U U ",
"K U U U U U G G J T T U G G U U T U G G U U       o q & o     &   o & o % P <   o &   U G K U U G G U U U U L J U T T U U U G G ",
"U U U U U G G U U T U U G G G G U G G G K     o   < < o   M.  o   % o     o q o   o   U G G K G G H U U U U K G T U J F F G H G ",
"J U U J G G G G J G G G G G G G U G H H G   !     q &   M.M.M.  M.o   M.  o % <     = U U G U U G H K U K U G G U U G F F G G K ",
"G U K G G G H G G H G J K G U U T U K K G > M.[   < o   V.M.M.M.M.  M.V.V.  o q [ M.= K U U U U G G G K G U G G K U U G U T U U ",
"U U J K U G G G J G K J U K U U U J J L G = M.[   &   ! ! { M.M.M.M.{ ! ! [   < n.M.= Y U U U U G G U U L G G U U U G G U T U G ",
"U U U K U U G U U T U U J G G G G F H G F = M.M.  X j > , f { M.M.{ j , > f   % M.M.= J U U U U G G K G K U J U U G F F H G G U ",
"U U L G U U G K T U U U U U G G J F F F e F * M.[ X C.= g C.M.M.M.M.C.g > C.{ X M.= G K U U U U H G K K K U K U U U G F G G U U ",
"U J G G U K G G J U G * * * U U J G G G G J U > o   M.- ; C.* : : M.C.; ; M.{   > G L J K J U U G G G G U U U U U U U G U T T U ",
"T U H G U U K G U U G * B.n.* * : U T T T * T + >   M.* : # n.B.> M.M.M.M.M.[ > * : * G G J U U F H G G U U K H G U G H H U U G ",
"T U G U U U U U U U L * Z.W W W W : * * * * * : *   * n.n.B.W Y * M.M.M.M.{ ! * P P 6 * : G U G H G U U U U U G G G G G G U U U ",
"G G G G G G H K K K G * Z.W W W W W W W W W n.n.n.n.B.W W W W Y * M.M.{ ! ! * P W W P 6 : * T U H G U U U U J G G U U G G K U U ",
"U G G K U K H H H G G # B.W X.+.O.W :.:.W W W W W W W b c x W Y * ! ! ! O + : n.P :.x.P * * U I K K U U L J J U U K K K U U U U ",
"G G G U J G F F U U U * Z.W X.O.O.O.O.o.} #.<.,.C V N b c x W Y * O + & h l $ X n.:.* x.P * * P J G G G G H G G L G G J U U U U ",
"r e F H e r r e F F F * Z.W ..O.O.O.O.o.@.i.p.i.d.d.k.b c x :.Y * h h h l k h h * # n.* * * * g e e r e e e e e s e r e g e e e ",
"1 1 1 r r r 9 r r r 9 * n.W ..O.O.O.O.o.@.p.p.p.p.u.p.b c x W Y * k l l l k k h O :.8 P 6 6 * 1 7 1 3 9 9 9 9 9 r 9 7 7 8 9 9 9 ",
"G H G G F e F K K G G * n.W  .o.O.+.O.O.&.a.p.7.e.N V b c D W Y * l l l l l l h + P 6 6 * * * G H G H H G G G U U G G G U G G G ",
"T R E R U K R E E E E : n.W l.l.>.*.O.O.O.0.p.C N N B -.1.i.W Y * l l l ~ l h h + * * * * P * R R E R R R E E Q E R R E E R R R ",
"T R R R T T R E R R T : n.W A A l.k.g.O.O.q.p.C V ;.w.i.9.x W Y * l l ~ h f * * * * * * * P * T R T U T R R R R R T R R R T R R ",
"U H G G U T T T H H G * n.W Z } X.q.p.h.8.9.p.C h.i.p.b c x W Y * * * N.b.Q i = * ! [ { { = = G G K G K U U U J U G G G G H G U ",
"G H K U G H H G H G U * n.W j.|  .O.O.t.0.9.p.Z p.N N B c r.W Y * ^ ^ b.k Q * = : ! { { = ' = = G K J U U U G G G H G G G H G G ",
"F F K U G F H U K U K : n.W Z j.y.5.o.o.q.9.p.C 6.N #.$.j.5.W Y * * * Q Q Q 8 O = = = = ] ' / = G J U J U U J G H H G G G G G G ",
"H G K U U U U T U U K * n.:.1.Z A l.d.g.7.9.p.Z l.2.i.i.c =.W Y * m.8 8 8 O O O = ( ` B.' ' / = H U U K G G U U G G G U U U G G ",
"U U T T U G U U U U K * W W a.h.<.A u.u.4.4.p.N p.p.N b h.i.W Y * W O O O u u u = ( ' ' ' / = G G U U U U U U U K K U U T U U G ",
"U U T U K K K K G G G * W W S t.a.h.A S 6.4.p.N 8.N j.i.t.x W Y * u h O + + O + w = / / ( = U G U U U G K U U G K G K U U J G G ",
"H G G H H H H G H G H * W W N C Z Z l.l.0.8.p.#.p.j.,.*.c x W Y * h O 2 7 7 7 w n.w w = = U U J U U U G G G U G K G K K U G G G ",
"G G G G H G K G U K G = W W W V S Z Z C p.i.p.i.7.N B v c W W Y * O < 1 7 * * w n.w 6 # G G U U U G G H G G U G K U L K G G G G ",
"U T T U U U U U U G G U * W W W V V V V V p.p.u.N b v c W Y Y * = % * * * * w n.w v.v.@ U U U U G G H G U U U U G U U U U U J G ",
"U T T U K K K G H F F G J * : W W N N N V 3.p.N B n c W Y # = # $ * i i i i w n.w v.s.# d U U U G G G U T U U G U U U G G G G G ",
"U U U G H G U U G G G U U L G : W W N N B V p.b v c W Y : : % # $ * i i i w n.w $ c.%.@ a d U U K U U T T U U G U U U G G H H F ",
"U U G H G U U U U U U T T U K U * W W N N 5.p.n c W Y : u u * ; = * u i i w n.w v.%.m # d 0 0 H G G U U K G G G G U G G G G G H ",
"U U G G U U U G H G K K T K G J K * W W W W W W W Y * i u u : = = = * u w n.w @ m $ $ w 0 0 0 F F G G U G H G G G G G G G K U K ",
"G U U G U U H F 8 e F G K G G L G 0 * W W W Y Y Y : i i i u * = w s * u w n.w @ @ 0 0 0 0 0 9 G G T U U K K U U K K G J G G K U ",
"F U K F K U G g e F G T U K U U T 0 0 * * * # = : z i i i i * 4 5 = u w n.w i u * 0 5 0 0 0 0 U U U U G U U K L J K U G G G L U ",
"G T U H G U G e F L T T T U U T K 0 0 5 5 5 * k z z z z i * 5 3 0 # i w n.w i i u * 5 0 0 e 0 T U U G G U U G G J U G G K U U U ",
"K U K H K T H e L T E R U K U K G G 0 0 0 e p * : * * : * p 5 3 0 * w n.w z z i u * 0 d 0 d G K G G U U U K G G G J U U U U U T ",
"G G H H U T G H U T R T H G J G K G G 0 d s p d 0 0 0 0 5 0 3 4 0 * w n.w ^ ^ z i * d d 0 U U G G U U K U G G G J K K K K G G G ",
"U U G H U U U G U T U K H J U J U H H K 0 0 0 0 0 0 0 0 0 0 5 4 0 w n.w z z k i y * 0 0 U K G G G U G G U U L G U G G G G G H G ",
"U T U U U T K U U T U G H U U U U K U U U U 0 0 0 0 5 0 0 p 5 4 9 w n.w : * * * * 0 U J K G G G U G H G U U U G J G H G G G K K ",
"U U U G U U U K G K G G G U U U K J U K G G K U J L 0 0 e d 5 4 5 w w 0 0 0 G H U K J G G G G K U G G G U G G G U J K L U T U U ",
"G U K G H U U G G G H G H U T U G G G K H F H G G H K U T U e 9 J E R K G G G G U U U G G G G G U G G T T T J G U U L K U U U U ",
"U U U G U U U G G G U U U U U K G G G H G H G G F F U T U U e r G E R K U U U U U U G G G G U J U G G U T U U K U L J J U U U U ",
"T T U U K G U U U U U U U U U H H H H G H G K G F H U U U J e 9 H R R G G U J U U K H G G U U U U L J J G K K G U U K U U U U U ",
"U U U J G G U U U U U U K U K H F G U G K K U G K U T U G G e 9 G R T G G G G K U G H K U U U U U U U G G G L G U U K K K G G G ",
"U J G G G H G U U U U K G K G H G U U U U U T K U T T U K J e 9 G E R G G G G U U G G U T U K U K U K G G U U J G G K G G H G G ",
"U G G G G G U U U G U U U U U G G U T G G U U U U T T U U U F 9 G R R U G U U U U G G U U J G J K K G G K U U G G G J U G G G G ",
"U J J J U U U U U U U U U U U G K U U K H U U U G U T U U J e 9 G E T G G K K U K G G G U G G K J G G G G G G G U U U U U K K U ",
"U U J J G U U U U U G U G G K G U K U U U U T U H H U G G H r 9 G R R G G G J L K G H G K L K U L G G G K G K U L U U U U G U U "
};
