/* XPM */
static char *pd41680099569[] = {
/* columns rows colors chars-per-pixel */
"64 64 150 2 ",
"   c #000000",
".  c #080A07",
"X  c #070908",
"o  c #080A09",
"O  c #1D0F0E",
"+  c #1B100D",
"@  c #170616",
"#  c #180717",
"$  c #160817",
"%  c #190819",
"&  c #0F1414",
"*  c #101415",
"=  c #1D131E",
"-  c #25191E",
";  c #2B1D1D",
":  c #311210",
">  c #232017",
",  c #1D1220",
"<  c #261920",
"1  c #281920",
"2  c #1C2222",
"3  c #2E2E2E",
"4  c #322927",
"5  c #342D2A",
"6  c #392F2D",
"7  c #2D2532",
"8  c #333333",
"9  c #3D3533",
"0  c #31313D",
"q  c #3B313A",
"w  c #3C3C3C",
"e  c #3A3836",
"r  c #421E06",
"t  c #4B2B14",
"y  c #63351D",
"u  c #403636",
"i  c #413937",
"p  c #453E3C",
"a  c #483E3D",
"s  c #534C2F",
"d  c #48403E",
"f  c #704324",
"g  c #7E4E20",
"h  c #734A2E",
"j  c #74502C",
"k  c #744A31",
"l  c #0C1E46",
"z  c #0B1B4E",
"x  c #0A1957",
"c  c #05145F",
"v  c #08175A",
"b  c #281E41",
"n  c #040F69",
"m  c #051262",
"M  c #03106D",
"N  c #061275",
"B  c #061279",
"V  c #09137B",
"C  c #081274",
"Z  c #214373",
"A  c #454545",
"S  c #4D4D4D",
"D  c #494748",
"F  c #504F4E",
"G  c #51514F",
"H  c #4D4B5C",
"J  c #4E4E50",
"K  c #514F50",
"L  c #495056",
"P  c #495058",
"I  c #525252",
"U  c #5E5252",
"Y  c #5A5A5A",
"T  c #605252",
"R  c #636363",
"E  c #6A6A6A",
"W  c #726B7D",
"Q  c #737474",
"!  c #99423B",
"~  c #97423B",
"^  c #9A6E37",
"/  c #996B4A",
"(  c #AD774C",
")  c #877E7F",
"_  c #BFAE56",
"`  c #85807D",
"'  c #C39653",
"]  c #C1AD55",
"[  c #DAB75D",
"{  c #CD8666",
"}  c #E4A57C",
"|  c #0D1881",
" . c #101982",
".. c #17228D",
"X. c #1C2690",
"o. c #1D2892",
"O. c #222D97",
"+. c #222D99",
"@. c #1A4CA6",
"#. c #234AAD",
"$. c #2D4EAB",
"%. c #3C4AAD",
"&. c #265AA8",
"*. c #3152AF",
"=. c #304DB1",
"-. c #274CB7",
";. c #736B80",
":. c #2D4EC2",
">. c #2D50C4",
",. c #3457CD",
"<. c #3555D2",
"1. c #3A5AD6",
"2. c #2461C5",
"3. c #2964CA",
"4. c #2A68D4",
"5. c #2D6ADC",
"6. c #2C67DB",
"7. c #316ED6",
"8. c #316ED9",
"9. c #3270DC",
"0. c #3E59E4",
"q. c #2F6EE0",
"w. c #3F61E6",
"e. c #3376EA",
"r. c #3879F7",
"t. c #3D76FE",
"y. c #3A7CFF",
"u. c #3778F6",
"i. c #3D68F3",
"p. c #456ACA",
"a. c #425CEE",
"s. c #455FF2",
"d. c #4262EB",
"f. c #4964FE",
"g. c #446BFF",
"h. c #436AF6",
"j. c #4272FF",
"k. c #887F80",
"l. c #61A0EF",
"z. c #B19997",
"x. c gray71",
"c. c #C4B59E",
"v. c #A7C4B0",
"b. c #F9D6BA",
"n. c gainsboro",
"m. c #E5E6C7",
"M. c #E6E7C8",
"N. c #FAEDE7",
"B. c #F2F8F9",
"V. c white",
/* pixels */
"S I I I Y I I I I S L I G S S D I I G S Y I D A S S S A I G w 8 I R Y S S G I I Y I L G G G L D S D D G I I D A I Y Y I G S D S ",
"I Y I I U I I G S S I Y S S G S I I S S I S A A S G L S I U A w Y E Y G L I I G S S S D S G I G F S D S G S D D Y Y I I I I S G ",
"L Y I I I L F S S S I Y I S I I I I S D G S A A S S F D S L w 8 S R Y S G I I S D D S D S I I I I G S S I I S G Y Y I I I G L I ",
"S I S D D S I I G A G I I I Y I S G D S I G D S I I G S J J A e S R I S G I I S S S G S I I Y I I I S G I I S G L G G G F F F G ",
"S G L D D G I I S D S I G L I G D S D S G S F G Y I I I I I A e S R Y S K I I S G L G I I U I D I G S G I I S G S S G I S D S S ",
"G I I D S G I I S S I I S A S S S S L G S S G L G D S I I I A 8 D Y Y S S I L S G G I G I I L S S D A D G S D S D S I I S G I I ",
"F I G S G S G I G S I Y S D S S I I I I G S I I G D I Y Y I           S G I       G G L G G I S G D A D L S S S S I Y Y G I I L ",
"S F F I I I I I I S I I I F I G I I I I F I Y               o o * * o       o o   S G S D D S S L S D S Y Y G G I I I I S F G D ",
"L I I I I F G I I G G I I F I I I I I L G U I   o * o   o * * * * 0 2 2 & X X   D S S D D S D S I S I I Y I G S I I I G I F S S ",
"I U I G S S G L G S F L F S S G I I F S G I I I   o o * 2 o o * 2 2 P 2 2 2 & X           S S S I I I I I G F S S I G L I G S F ",
"Y I I L S D S S S D S S I S I I I S S           o * 2 2 o o 2 P 0 0 2 P L 2 4 P * * * o   S S G Y I S D S S S D I I S S I K S K ",
"Y I I G S S G I S S S S S I I I I I S   o & 2 2 2 2 2 0 0 0 2 P P 0 0 0 L 2 0 P 2   o   S S S L Y I S S S S G L I Y I G I I S S ",
"Y I I G G L I U I I S S S I I S F S S S   o o * 2 o 0 P * 2 0 2 * 2 0 2 0 L 2 0 P o     D G I U I I S G I I Y Y Y I I G I I S S ",
"G G G S S G G G I S I S S I S S G F S S I       o 0 P 2 o 0 P * 2 0 P 0 2 0 P 2 o * * o   L I I I S S S F F S D F I S S S S S I ",
"S S S S G S S D A S I I S S I I I S S G I   o & 2 P * o 0 P 2 * 0 P P L 0 2 0 2 * o & * .   I I S S D S S S A A D L S S F F S I ",
"S D S S G L D D D G I I S S S I G S S L   o * 2 2 * o o P 2 * o L 2 * L P 0 o * 2 *       I I I S S S I I G F F G I I G G L I I ",
"S I I I I I S S S Y Y I D D L Y I I S S I I   o * o   2 P * o o 2 o   2 * P 2 o * *   I I I U I I S I I I Y I I I Y Y G G I I I ",
"S I I I I I S S I Y Y I S G I I Y I G S I I S       o 0 * o     *   o * o * P 2   o *   G G L I S S I I I I S I I Y Y L G I S S ",
"I I I I G L S G I Y I G S S S G I S D S S I     o   2 2 o   b.  o   * o     o 0 o   o   S S S S D D I I I I S J I Y S D D S S S ",
"I I I G F S D S S S S S S D S G I S D D D S   !     0 *   b.b.b.  b.o   b.  o * 2     < G S I I S D G I I I S S I I D D D S S S ",
"S I S S S D D D D D S G S S I I Y G G G S S - b.{   2 o   N.b.b.b.b.  b.N.N.  o 0 { b.< I F I I S S L G S G D G L I G S I Y I I ",
"I I I S G G S G I I L I I G I I G S L I S J 1 b.{   *   ~ ! } b.b.b.b.} ~ ~ {   2 } b.< I I I I S S I G S F S I G G G S I I I G ",
"I I I I I I L G I I I I I S S S S A D S A D < b.b.  o g - - g } b.b.} g < < g   * b.b.1 I I I I S S L G G I S I G G A A D S S G ",
"I I F S I I G G Y I I I I I S S G A A A w D I < b.{ o B.- s B.b.b.b.b.B.s < B.} o b.< I I I I I D D G G G I I I I I S D D G L I ",
"I G D S I G S F G I S = = = I I G S S S S S I Y < o   b.> > = = , b.b.B.> > b.}   < S I S I I I S S S S I I I L I I I S I Y Y L ",
"Y I D S I I L S G I S = m.c.= = = I I Y Y Y , I + 1   , = = c.M.= b.b.b.b.b.b.{ - = = = S K I I D D S G G I G D S G S D D I G F ",
"Y I L G I I I L G I S = V.W W W W = < , = = = = = ,   c.c.M.W U = b.b.b.b.b.} ! = H H 7 = = I S A S G I I U I S S F S S S G I I ",
"S S S G S S D S S I F = V.W W W W W W W W W c.c.c.c.M.W W W W U = b.b.b.} ! ! = H W W H 7 = = I D S G I I L G S S I I S S I I G ",
"I S D L I G D D D S S = m.W X.+.o.;.W W W W W ;.;.W W c z l W U = ! ! ~ ! + O - ) W ) ) H = = I G G L G L S G G I G G L I I I U ",
"S S S I G S A A I I I = V.W X.O.+.+.O.o. .#.,.>.N M M c z l W U = O O O + f j = = ) W = ) H = = S S S S S D S G G S S S I I I L ",
"e w A A p w e w D A w , V.W ..O.O.O.O.o.@.j.y.y.a.s.d.m z l W U = f f f f j j j f = - ) = = = = w w w w w w w w w w e w A w w d ",
"3 3 3 e e 8 8 8 e e 8 , c.W X.O.+.O.O.O.@.y.y.y.y.r.y.m z l W U = j j j j j j j f O ) H H 7 7 = 8 3 3 3 8 8 8 8 e 8 8 8 8 8 3 3 ",
"S D S G A w A G J D S = c.W ..o.O.O.+.O.&.u.y.5.5.n M c z Z W U = j j j j j j j f O H 7 7 = = = D S D D S S S I I D D G L S D S ",
"Y R E R I G R E E E E , c.W j.j.:.&.O.O.+.8.y.N M n n =.,.j.W U = k j j j ^ j f f O = = = = H = R R R R E E E Q E E E E E R R E ",
"Y Y R R Y Y R E R R Y = c.W B | y.h.d.+.+.9.y.N M -.0.y.7.l W U = j j j ^ j f = = = = = c.) ) = R Y Y Y Y R R R R Y R R R R R R ",
"I S D G G Y Y Y D D S = c.W N  .X.7.y.f.7.9.y.N f.t.y.c z l W U = = = = n.x.Q y r = - = = = H = S J S D I I I S G S D S A D D G ",
"G D S L S D D S D S I = c.W g.| ..X.O.e.9.7.y.B y.n n c z d.W U = / / / x.k Q = = = ; ; b.} ; ; S I I L I I S S S S S D S A S G ",
"A A G I S D D L L G G = c.W N g.h.,.o.o.9.7.y.N 4.n #.$.h.3.W U = = = - Q Q Q 0 O ; ( ' ; 4 ] [ ; G I K I G I S D A S G S S D S ",
"D A G I I S I Y Y I S < c.W <.B B j.d.d.5.7.y.N j.1.j.t.z *.W U = 7 v.0 0 0 + O O q q [ ' m.[ ] ; I I S F G I I S S S I G G S S ",
"I Y Y Y J S I I J I S = W W u.f.,.V r.y.3.3.y.M y.r.M c f.j.W U = W W O O O O O q ) ) q [ ] ] ( ; I I I G I I I G G I I Y Y G L ",
"I I Y I G S G G D S S = W W N e.u.f.V V 4.3.y.n 6.n f.h.e.l W U = : : : : : : q ` z.q ; ] ( ( 1 S I I G F I G S S S I I I S S S ",
"D S S A D D D S S D S = W W M N N B j.j.6.8.y.#.y.g.2.&.z l W U = O f f f f q c.z.q ; ; ; ; > K I Y I G S G G S G S S I I S D S ",
"S S S S S G S S I I G = W W W M N B B N y.y.y.t.5.M m x z W W U = + O f f q c.z.q - o ; S S I K L G D D S S S L G G G F S S G S ",
"I Y Y I G I I L I S S I = W W W M n M M n y.y.r.n m x z W U U = O O O O q c.z.q = % p.% I I I I S D D D I I I I S L I I I I I S ",
"I Y Y I S I G S D D A S K = , W W n n n n >.y.M c v z W U = = ; $ % * q c.z.q y y # p.# I I I I G S G I Y I I G G I I G S L S D ",
"I I I S A S G L S D S I I S S = W W n n n n y.c x z W U = t t = ; ; q c.z.q y y y # l.b $ U I I S I I Y Y I I S L I I S D D D A ",
"I I S D D I I G G I I Y Y I G I = W W n M 3.y.v z W U = t t t = $ q c.) q y y y t # l.l.$ 9 S D D S I I I G S S G G S S D S S D ",
"G I S S I Y I F S S I I I G S F L = W W Q W W W W U = t t t = $ q c.k.q y y y y = # l.p.$ 9 9 A D D I S D S S S D S S S G G I G ",
"S I I S G I S A w e A S S S S G S G = W W W U U U = y y y t t q c.k.q , t y y t r # l.%.@ 9 9 9 S Y I G L G I I S G S K S S I I ",
"A I G A L I S p w A G Y L G I I Y I 9 = = = = = = @ y y y y q c.) q $ , t y y t # l.%.b @ 9 9 9 Y I L S I I G F I I I S S D L I ",
"G I I A S I S w A G Y Y Y I I I G S 9 9 5 9 # # b @ y y y q c.) q ; = t y y y y # b # # 9 9 i e I I S G I I S S F I S S G G I Y ",
"L U L D S Y D w S Y E R I I I I S D 9 9 e i i = # @ k k q c.) q 9 p , y y y y y @ # = i u 9 9 9 S S G G I I S S S S I I L U I I ",
"G S D D L Y S D I Y R Y S S G S G S S 9 9 u i = k k h q c.) q 5 9 p = y y k k k y t = 9 9 9 9 S S I I I I L S D I G G L G G S S ",
"G G D S G I I G I I Y L D S I S G D A G 9 9 u 9 , = q c.) q 5 4 9 p = y k / / / k y , 9 9 9 J S S G S S G I G S I G S D D S S D ",
"I I I G I Y G G I Y I S D I I I I G I I I u u 9 9 9 q q q i 6 4 6 p = y y k k k y = = e 9 S S S I S D D G I G S S S D S S S G G ",
"I Y I G I I I G S G G S D I I I G G G G S S L e 9 9 9 e i i 6 4 9 p p = = = = = = ; 9 F J S J G I I D S I G S F I G S G I Y I I ",
"S I S S S G I S S S S D D I Y I G D S S A A D S S D G e i 9 3 4 9 a p 9 9 9 9 D G I I S S S S S I S S I Y Y F S I L G I I I I I ",
"I I I S F I I G S S I I I I I G S S S S A S S S A D K U I G A 8 S E R I F I I I I L S S S S G G I S G I U I I G I G S G I I I I ",
"Y Y I I F S G I G I I I I I I D A A D S S S G D A D I I I L d 8 D R R S F L I I I S A S G I I I I L G G L G F S U G I I I J I I ",
"I I I G S S L I I I I I G G L A D S G G S I I S S I Y G F F w 8 D R Y S S S S K Y S A S I I I I I I I S S S F S L G G G S S S S ",
"I S S S S D S I U I I G G S F D S G I I G I I G I Y Y I L F p 8 S E R S S S F G U G S I I I S I G I G S I I I L S S S S S D S D ",
"I I S S S S I I I F I I I G I S G I U L D I Y I I Y Y I I I w 8 S R R K F F I I G S S I I I S K G F S S S I I S S S S G S S S I ",
"G L S I G I I I I L G I I I I S G G I S S I Y I S G Y L I G w 8 S E R S S I F G L S S I I I S I I S S S S S S S L G I Y G L G I ",
"I I K S G I I I I G L S S G S S L I I I I I I I D S G S D D w 8 S R Y S S S S I S S D S S S F I S S S S G S G I G I I U I S I I "
};
