/* XPM */
static char *pd51680099569[] = {
/* columns rows colors chars-per-pixel */
"64 64 156 2 ",
"   c #000000",
".  c #080A07",
"X  c #070909",
"o  c #080A09",
"O  c #1D0F0E",
"+  c #1B100E",
"@  c #170616",
"#  c #180717",
"$  c #180719",
"%  c #1A0818",
"&  c #180717",
"*  c #0F1415",
"=  c #101415",
"-  c #1D131E",
";  c #111518",
":  c #2B1D1D",
">  c #241D1A",
",  c #311210",
"<  c #232017",
"1  c #1D1220",
"2  c #261920",
"3  c #1C2222",
"4  c #2E2E2E",
"5  c #352D2B",
"6  c #302825",
"7  c #39312F",
"8  c #37322F",
"9  c #2D2532",
"0  c #2F313D",
"q  c #333333",
"w  c #3D3533",
"e  c #3E3936",
"r  c #31313D",
"t  c #3B313A",
"y  c #3C3C3C",
"u  c #421E05",
"i  c #4B2B14",
"p  c #63351D",
"a  c #413936",
"s  c #403738",
"d  c #453D3B",
"f  c #534C2F",
"g  c #704324",
"h  c #7E4E20",
"j  c #744B2F",
"k  c #74502C",
"l  c #744A31",
"z  c #0C1E46",
"x  c #0B1B4E",
"c  c #0B1B54",
"v  c #06145F",
"b  c #08175A",
"n  c #071959",
"m  c #281E41",
"M  c #040F69",
"N  c #051262",
"B  c #03106D",
"V  c #061174",
"C  c #07127A",
"Z  c #09147D",
"A  c #204174",
"S  c #454545",
"D  c #4D4D4D",
"F  c #484749",
"G  c #504E4F",
"H  c #4E504F",
"J  c #50504E",
"K  c #4E4E50",
"L  c #4D4A5D",
"P  c #514F50",
"I  c #4D5152",
"U  c #495058",
"Y  c #525252",
"T  c #5E5252",
"R  c #5A5A5A",
"E  c #595758",
"W  c #605252",
"Q  c #61615F",
"!  c #5F5F61",
"~  c #636363",
"^  c #6A6A6B",
"/  c #726B7D",
"(  c #737373",
")  c #9A423B",
"_  c #9A6E37",
"`  c #996B4A",
"'  c #AD774B",
"]  c #AE784C",
"[  c #877E7F",
"{  c #88807E",
"}  c #C39653",
"|  c #C1AD56",
" . c #D9B75D",
".. c #CC8565",
"X. c #E4A57C",
"o. c #0D1881",
"O. c #111A83",
"+. c #16218B",
"@. c #1B2690",
"#. c #1D2893",
"$. c #222D97",
"%. c #222D98",
"&. c #1B4DA6",
"*. c #224AAD",
"=. c #2D4EAB",
"-. c #3C4AAD",
";. c #265AA8",
":. c #3152AF",
">. c #314FB1",
",. c #274BB9",
"<. c #2D4EC2",
"1. c #2D50C4",
"2. c #3457CD",
"3. c #3456D2",
"4. c #3A5AD5",
"5. c #2664CB",
"6. c #2963C6",
"7. c #2A68D4",
"8. c #2F6BDE",
"9. c #2E67DB",
"0. c #316ED6",
"q. c #316DDA",
"w. c #3271DC",
"e. c #3E59E6",
"r. c #2F6EE0",
"t. c #3F61E6",
"y. c #3176E8",
"u. c #3579F2",
"i. c #3879F7",
"p. c #3D75FE",
"a. c #3A7CFF",
"s. c #3B71F5",
"d. c #3D68F3",
"f. c #466ACA",
"g. c #425CEE",
"h. c #445FF4",
"j. c #4162EB",
"k. c #4964FE",
"l. c #466AFF",
"z. c #4465F3",
"x. c #4272FF",
"c. c #5FA1EF",
"v. c #61A0EF",
"b. c #60A2F0",
"n. c #B19997",
"m. c #B29A99",
"M. c #B6B5B5",
"N. c #C4B59E",
"B. c #A8C3B0",
"V. c #F9D6BA",
"C. c gainsboro",
"Z. c #E5E6C7",
"A. c #F9EDE7",
"S. c #F2F8F8",
"D. c white",
"F. c #F2F7FA",
/* pixels */
"D Y Y Y E E Y Y Y D H Y H D H F Y Y J J E Y S F F D D S Y I y q Y ~ R D D Y Y Y Y E Y H H J Y F D F F J Y Y S S Y R R Y I H F D ",
"Y E E Y Y Y Y I D D E E J F D H Y Y D F Y H S S D Y Y H E Y S y Y ^ ! D H Y Y H D D D F D Y Y J H D F D Y D F D Y R Y Y Y J D J ",
"Y Y Y H D Y Y D D D Y R Y J Y Y Y Y D F Y D S S D D D F H D S q Y ~ E D Y Y Y D F F F F D Y E Y Y J D D Y Y D H E R Y Y Y Y Y Y ",
"D Y H F F Y D Y H F D Y Y Y E Y H H F D Y D D D Y Y Y D H Y y q D ~ E D G Y J D D H Y Y Y Y Y Y Y Y H H Y Y D Y Y Y Y Y D D D Y ",
"D Y D F D H Y Y H F D Y J J Y Y F D D D D Y D J E Y Y Y Y Y F y D ~ R G Y Y H D Y D Y Y Y Y Y D Y J D H Y Y D Y D D H Y D F D D ",
"Y Y Y D D J Y Y D F Y E D F F D F D D J D D D Y D D K Y Y Y           D D Y       Y Y D Y Y D D D F S F J D F D F H Y E D J Y Y ",
"D Y Y D D D Y Y H D Y E D F D D Y Y Y Y Y D Y               o o = ; X       X X   D J H Y Y J D D F S F Y H D D H J E E H Y Y Y ",
"D D Y D Y Y Y Y Y H Y Y Y H Y Y Y Y Y Y Y Y E   X = o   o ; = = = r 3 3 ; X X   S D Y H F F D D Y D F H E E H J H Y E Y F D Y F ",
"Y Y Y Y D Y Y Y Y D Y Y Y Y Y Y Y Y D D Y Y E Y   o o = 3 o X = 3 3 U 3 3 3 = X           F D D Y H Y Y E Y Y D Y Y Y G Y D D D ",
"Y Y Y Y Y D D Y J H D J D D D Y Y Y Y           o = 3 3 o X 3 U r r 3 U U 3 3 U = = = o   D D D Y Y J Y Y Y D D D Y Y H Y J D I ",
"Y Y Y Y F D D D D F D D D D Y Y Y Y H   o = 3 3 3 3 3 r r r 3 U U r r r U 3 r U 3   o   Y H D P R Y D F D D F D Y Y Y D Y Y D J ",
"E E Y D D D K Y D D D D D Y Y Y J Y D F   X o ; 3 o r U ; 3 r 3 = 3 r 3 r U 3 r U o     D D D Y E Y D D D H Y Y E Y Y H G Y D D ",
"E E I H H Y Y Y Y J D D Y Y D D K D D D Y       o r U 3 X r U = 3 0 U r 3 r U 3 o = = X   D Y Y Y Y D H Y Y E Y E Y Y Y Y Y D D ",
"Y Y H D D Y Y J Y Y D D D Y Y D Y D D G Y   . = 3 U = o 0 U 3 = 0 L U U r 3 r 3 ; X = = X   Y Y Y H D D Y D D D Y J D D D J D Y ",
"D D D D D D D F F D Y Y D G H Y Y D D K   . = 3 3 = o o U 3 = X U 3 * U U r . = 6 *       Y Y Y D D D D D D S S D D D D D D D Y ",
"F F D H J H D F F D Y Y D D D Y Y D D D Y Y   . = o   3 U = o X 3 .   3 = U 3 X * *   Y E Y Y Y D D D J Y Y D D I Y Y Y Y K Y Y ",
"D J Y Y Y Y D D H E R Y F F J E E I D D Y Y F       o r = o     =   o ; o ; L 3   X =   Y Y Y Y P D Y Y Y E Y Y Y E E Y Y Y Y Y ",
"J Y Y Y Y Y D H Y R R E D H Y E E Y D H E J     X   3 3 o   V.  X   ; o     . r X   X   D Y Y Y D D Y Y Y Y H Y Y R E I Y Y H D ",
"Y Y Y Y Y D D Y Y Y Y Y D D D J Y D F D I H   )     r =   V.V.V.  V.X   V.  X = 3     2 D D H D F F Y Y Y Y G D E E D S F F D D ",
"Y Y Y J D D D F H D D D D F D H Y D F F F H 2 V...  3 X   A.V.V.V.V.  V.A.A.  X r ..V.2 Y D Y Y D F Y Y Y Y D D Y Y D S F D D D ",
"D J D D D D F F F D F H J D I E E I J D D D : V...  =   ) ) X.V.V.V.V.X.) ) ..  3 X.V.2 Y Y Y Y D D Y D D Y D D I Y K D Y E Y Y ",
"Y Y Y D Y H D D Y H J Y Y J I Y Y D Y H D J 2 V.V.  X h 2 : h X.V.V. .) 2 2 h   = V.V.2 Y Y Y Y D D J H D D D Y Y I D U Y E Y H ",
"Y Y Y Y Y Y J Y E Y Y Y Y D D D H S F D S D Y 2 V.... S.2 f S.V.V.V.V.F.f 2 F.X.X V.2 Y Y Y Y Y D D Y H Y Y D Y Y D F f F D D H ",
"Y Y H D Y Y D Y E Y Y 1 - - D D J S S S y S Y Y 2 X   V.< > - - - V.V.F.< < V.X.  2 D Y Y Y Y Y F F J Y Y Y H Y Y Y F F D H H Y ",
"Y Y F D J H D D H J D - Z.N.- - - H D D D D - E O 2   - - - N.Z.- V.V.V.V.V.V...2 1 1 - Y Y Y Y D D D D Y Y Y Y Y Y J D Y R E Y ",
"R Y F D Y Y Y D Y Y D - D./ / / / - - - - - - - - -   N.N.Z./ T 1 V.V.V.V.V.X.) % L L 9 - - Y Y S F D D Y Y D F D I D F F Y Y H ",
"E Y J Y Y Y J H Y Y G - D./ / / / / / / / / N.N.N.N.Z./ / / / T - V.V.V.X.) ) - L / / L 9 - - D F D Y Y Y Y Y D D G D D F Y Y Y ",
"I D D D D D D D D Y D - Z./ @.$.$./ / / / / / / / / / N x z / T - ) ) ) ) O + - [ / [ [ L - - Y F D Y Y Y Y J D D Y Y D H Y Y Y ",
"Y D D I Y Y F F F D D - D./ @.$.$.%.%.#.O.*.2.1.V B M N c z / T 1 O + O + g k 1 - [ / 1 [ L - - H J Y Y H D J Y Y Y Y D Y Y Y Y ",
"D D D Y Y F F F Y E Y - D./ @.%.%.$.%.#.&.x.a.a.g.g.z.N x z / T - g g g g k k k g - 1 [ - - - - D D D D F F D H J D F D Y Y Y Y ",
"e y S S y y q y S S y - N./ @.$.$.$.%.#.&.a.a.a.a.i.a.b x z / T - k k k k k k k g O [ L L 9 9 - y y y y y y y y y y y y S y y y ",
"4 4 4 q y q q q q y q - N./ +.@.$.$.$.$.;.a.a.7.8.B B b c A / T 1 k k k k k k k g O L 9 9 - - - q 4 4 4 q q q q y q 4 q q q q q ",
"F S D H S y S D D D D - N./ x.p.,.;.$.$.%.0.a.V B M M >.4.x./ T - k k k k _ k g g O > 1 - - L - F F F F D D D J Y D D D I D F D ",
"R ~ ( ~ E H ! ^ ( ^ ^ - N./ C o.x.z.h.$.%.w.a.C B ,.e.p.0.z / T - k k k _ k g - - - $ 1 N.[ [ - ~ ^ ~ ~ ~ ^ ^ ( ^ ^ ^ ^ ^ ~ ~ ^ ",
"R ! ~ ! E R ~ ( ! R R - N./ C o.$.w.a.k.0.0.a.V k.p.a.v x z / T - - - 1 C.M.( p , > : - - - L - ~ R E E ! ~ ~ ^ ~ W ~ ~ Q ! ! Q ",
"J D D H J E R E F D D - N./ k.o.+.#.$.u.0.0.a.V a.M M b x t./ W - ` ` ` M.l ( - - - : : V.X.: : D H D D Y Y D D D D D D F F D Y ",
"D F D Y D F F D F D Y - N./ V x.d.2.#.#.w.0.a.V 7.M *.=.x.6./ W - - - % ( ( ( r O : ] } : : |  .: Y Y J Y Y D D H F F D F F D H ",
"S S D E D S F Y H H J - N./ 3.Z C x.j.j.0.7.a.V p.4.p.p.x :./ W - 9 B.r r r + + O t t  .} Z. .| : J Y D Y Y G D F F D D Y D F D ",
"F F H E Y J Y E Y Y H - / / u.k.2.Z u.a.5.5.a.B a.a.M N k.p./ T - / / O O O > O t [ [ t  .| | ] : Y Y D D H Y Y D D D Y J H D D ",
"Y Y R E Y D Y Y Y Y Y - / / V y.s.l.Z Z 7.5.a.M 9.B k.k.r.z / T - , , , , , , t [ n.t : | ] ] : D Y Y Y Y Y Y Y H Y Y E E E I Y ",
"Y E E Y Y H D H D D D - / / B V C C x.x.8.9.a.*.p.l.6.;.x z / T - O g g g g t N.m.t : : 2 < : D H Y Y H D Y Y D D D J E Y H D D ",
"D F D F S D F D D F F - / / / B V V V V a.a.a.x.q.M N n x / / T - O O g g t N.m.t - o : D Y T K Y E Y D D Y J D H D H J H D D D ",
"F D H D D D H H Y Y J E - / / / B B V B B a.a.i.M v n x / T T - O O O O t N.m.t - & f.% D D K Y Y D D F F Y H H H J Y H D D D D ",
"Y E E Y J Y J H Y D D Y Y - - / / N B N N 6.a.B N b x / Y - - : & & = t N.m.t p p % f.& Y Y Y P D F S F Y Y Y Y D J Y Y Y Y H D ",
"Y R R Y H H H D F S S D J F F 1 / / M M B B a.v c x / T - i i - : : t N.n.t p p p % v.m % Y Y Y J D H Y E E Y H J Y Y H D J H F ",
"Y Y Y F F D J J D F D Y Y I D Y - / / M M 6.a.b x / T - i i i - & t N.[ t p p p i & v.v.& s Y Y Y Y E E E Y H D Y Y Y D F F F S ",
"Y Y Y F F Y E H Y Y Y R R Y P Y Y - / / / / / / / T - i i i - @ t N.[ t p p p p 1 & v.f.& w w D F D Y Y Y J D D J Y H D F D D F ",
"Y Y D F Y E E D F G Y Y Y Y D D P P - / / / T T T - p p p i i t N.{ t - i p p i u & v.-.% w 7 7 S F H D D F D D D F D D D H Y Y ",
"D Y Y D H J D f y y S H D D D D H H w - - - - - - & p p p p t N.{ t $ - i p p i $ b.-.9 & w w w D E E D Y Y Y Y D Y J D D D K Y ",
"S Y H S D Y D y y S I E Y H Y Y E Y w 7 5 w & @ m & p p p t N.[ t : - i p p p p $ m $ & w w w w E E Y D Y Y D D Y Y Y D D D J Y ",
"D E Y S H E D y S I ! ! E Y Y E J D 7 8 7 7 w - @ $ l l t N.[ t w d - p p p p p $ $ - w w w s s E J D D Y Y D D D I G D Y Y Y E ",
"Y Y Y F H E F y U Y ~ ~ Y Y Y Y H D J e e e d - l j l t N.[ t 5 w d - p p l l l p i - s a w w J D H H I Y J D D D P J Y Y Y Y Y ",
"H D F F Y Y H S Y R ~ E D D H D D D D J e a e e - 1 t N.[ t 5 5 w d - p l ` ` ` l p - a w w I G D J Y Y Y J D D Y J J Y I D D D ",
"Y H D F Y E Y H Y E E H F D Y D H D F D J w w w w w t t t w 5 5 q d - p p l j l p $ - e w Y D D H H D D Y Y D D Y H D F F D F D ",
"Y Y Y H Y Y Y Y Y E Y D D H Y Y Y D J E E J Y w w w w w a s 7 6 7 d d - - - - - - 2 w Y Y D D D J D S F Y Y I J D D F D D Y Y J ",
"J E E H Y Y Y Y H H D D F H E Y H Y J Y D F H Y H D D w a a 5 6 w d d w w w w F Y D H K D D D D Y Y D D Y D D D Y Y D H Y E Y Y ",
"D Y G D D Y Y D D D D F D Y E Y D D D D S S S D D F I Y E E f q D ^ ~ Y H D D D Y Y Y D D D D D Y D D Y R E Y D Y D J Y Y Y Y Y ",
"Y Y Y D D Y Y D D D H H H Y Y H D D D D F F D D S F Y E E U r q D ^ ~ J J Y Y Y Y J D F D H J Y Y D Y Y E Y Y Y Y Y D Y Y Y Y Y ",
"R E Y Y G H Y Y I J Y Y Y Y Y F F S D F D D H D S F Y Y I D y q F ~ ! D D K J Y Y H F F H Y Y Y Y Y Y D H H K D Y Y Y Y Y I Y Y ",
"E Y Y D D D Y Y E Y E Y J J H F S D H D D Y Y D H Y E Y K D y q D ~ R D D D D Y E D F J Y Y Y Y Y Y Y D D D D D Y Y D K D D D D ",
"Y D D D D F D Y Y Y Y Y H D D F F J E Y Y Y Y Y Y E R E Y H y q D ~ ~ D D D J Y Y D D Y Y Y D Y D Y I D Y Y Y D D D D D D F D D ",
"I H D G D D Y Y Y Y D Y Y Y J D H Y E Y D Y E J Y E R Y Y Y S q Y ^ ~ D D Y Y Y Y D D Y E Y D J J P D D D Y Y D D D H Y D D D D ",
"Y P D J H Y Y Y Y Y Y Y Y Y Y D D Y Y Y F Y E Y D D E Y Y D y q D ~ ~ D D Y D Y Y D D Y Y H D Y Y D D D D D D D Y Y Y E Y G J Y ",
"Y Y J H D Y Y Y Y Y J H D D Y D Y H Y Y Y Y E I F D Y D F F y q F ^ R D D D D Y H D F F D D G Y D D D D Y D J Y D Y Y Y Y D Y Y "
};
