/* XPM */
static char *pd61680099570[] = {
/* columns rows colors chars-per-pixel */
"64 64 151 2 ",
"   c #000000",
".  c #070909",
"X  c #080A09",
"o  c #080A07",
"O  c #1D0F0E",
"+  c #1B100E",
"@  c #170616",
"#  c #180717",
"$  c #180818",
"%  c #0F1415",
"&  c #101415",
"*  c #1D131E",
"=  c #30110F",
"-  c #2B1D1D",
";  c #25181F",
":  c #311210",
">  c #232017",
",  c #1D1220",
"<  c #261920",
"1  c #281920",
"2  c #1C2222",
"3  c #2E2E2E",
"4  c #342C2A",
"5  c #352C2A",
"6  c #39312F",
"7  c #30302E",
"8  c #2D2532",
"9  c #2F313D",
"0  c gray20",
"q  c #3D3533",
"w  c #31313D",
"e  c #3B313A",
"r  c #3C3C3C",
"t  c #421E06",
"y  c #4B2B14",
"u  c #63351D",
"i  c #403836",
"p  c #443C3A",
"a  c #403635",
"s  c #7E4E1E",
"d  c #534C2F",
"f  c #704324",
"g  c #7E4E20",
"h  c #734F2B",
"j  c #74502C",
"k  c #744A31",
"l  c #0C1E46",
"z  c #0B1B4F",
"x  c #0A1A54",
"c  c #06145E",
"v  c #08175A",
"b  c #281E41",
"n  c #040F69",
"m  c #061262",
"M  c #03106D",
"N  c #061274",
"B  c #07127A",
"V  c #09137A",
"C  c #214275",
"Z  c #454545",
"A  c #4D4D4D",
"S  c #474948",
"D  c #504E4F",
"F  c #50504E",
"G  c #4D4F53",
"H  c #4D4A5D",
"J  c #514F50",
"K  c #4C5153",
"L  c #495058",
"P  c #475057",
"I  c #525252",
"U  c #5E5252",
"Y  c #575759",
"T  c #5A5A5A",
"R  c #595857",
"E  c #605252",
"W  c #636363",
"Q  c #6A6A6A",
"!  c #726B7D",
"~  c #737474",
"^  c #804D20",
"/  c #99423B",
"(  c #996F36",
")  c #9A6B4A",
"_  c #AD774B",
"`  c #877E7F",
"'  c #C39652",
"]  c #C1AD56",
"[  c #CC8565",
"{  c #E4A57C",
"}  c #0E1982",
"|  c #0C1780",
" . c #101982",
".. c #16218C",
"X. c #1B2690",
"o. c #1D2892",
"O. c #222D97",
"+. c #222D99",
"@. c #1A4CA6",
"#. c #224AAD",
"$. c #2D4EAB",
"%. c #3C4AAD",
"&. c #275AA8",
"*. c #3152AF",
"=. c #314EB2",
"-. c #274CB7",
";. c #2D4DC4",
":. c #2D50C4",
">. c #3457CD",
",. c #3555D2",
"<. c #3A59D6",
"1. c #2663CA",
"2. c #2963C5",
"3. c #2D6ADB",
"4. c #2B67D5",
"5. c #316DD5",
"6. c #316DD9",
"7. c #3270DC",
"8. c #3D5AE6",
"9. c #2F6EE0",
"0. c #3F61E6",
"q. c #3177E8",
"w. c #3578F2",
"e. c #3879F7",
"r. c #3D76FE",
"t. c #3A7CFF",
"y. c #3A70F6",
"u. c #3D68F3",
"i. c #466ACA",
"p. c #425CEE",
"a. c #455FF3",
"s. c #4162EB",
"d. c #4964FE",
"f. c #466AFF",
"g. c #436AF6",
"h. c #4172FF",
"j. c #887F80",
"k. c #5FA1EF",
"l. c #61A0EF",
"z. c #62A1F0",
"x. c gray71",
"c. c #C4B59E",
"v. c #C4B5A0",
"b. c #A8C3B0",
"n. c #F9D6BA",
"m. c #DBDDDC",
"M. c #E5E6C7",
"N. c #FAEDE7",
"B. c #F2F8F8",
"V. c #FFFFFF",
"C. c #F2F8F7",
/* pixels */
"A I I I R R I I I A I I A A A S J I J J R I S S A D A Z I I r 0 I W T F G I I I R I I D J I D S A S S I I I Z S I T T I J A S A ",
"I R R I I I I I A A Y R A A D A I I A S I A r Z A J I D I I Z r I Q T A A I I F S A A S A J I I D A S A I A S S I T I I I I A J ",
"I I I K I J A A A A I T I I I I I I A S I A Z Z A A A S F I r 0 I W R A I I I A S A S A A I Y I I I S A I I A J T R I I I I I I ",
"A I D S S A I I A S A I I I R I A D A S I I S A I I I A A K Z r A W R A G I I A A A I A I I I I I I D J I I A I I I I I A A A I ",
"A I A S S I I I J S A I A J I I S A A A A F D I R I I I Y           T A J       I I J A I I I S I D A D I J A J S A I I A S A A ",
"I I I A A J I I A S I Y A S A S S A A I A A               X X & & X       X X   A I I I I I D A A S Z S D A S A S A I Y A J I I ",
"A I F A D A I I J A I R A S A A I I I I I I   X & X   X & & & % w 2 2 & X X   A S A I J I F D D A S Z S I I S A J I R R J I I I ",
"A D I A I I I I R A I I I A I I I I I I A I I   X X & 2 o o & 2 2 L 2 2 2 & X           A S A A I A S D R R I J D I Y I S A J S ",
"I I I I F I I I A J I I I J I I I I           X % 2 2 X o 2 H 9 w 2 L L 2 2 L & & & X   S S A A F D I I R I I A I I I D I A A A ",
"I I I I A A A I I A D I A A A I I I   X & 2 2 2 2 2 w w 9 2 P G w w w L 2 w L 2   X   F I A A A I I G I I I A A A I I G I F A I ",
"R I I K A A A A A S A A A A I I F I A   X X & 2 o w L % 2 9 2 & 2 w 2 w L 2 w H X     I F A A K T I A A A A S A I I I F I I A A ",
"R I I A A A A I A A S A A I I I G I A A       X w L 2 X w L & 2 w L w 2 w L 2 X % & X   A A D I R I A A A A I I R I I A K I A A ",
"R R I G I D I I I I A A I I A A A A F A   X & 2 L % X w L 2 % w L L L w 2 w 2 & X & & o   A I I I I A A I I R I R I I I F I A A ",
"I I A A A J I I I F A A A I I A I A A   X & 2 2 % X X L 2 & X L 2 & L L w o & 2 %       F K I I I I A A F D A A I F A A D F A I ",
"A A A A A A A S S A I I A D K F I A A A I   X & X   2 L % X o 2 X   2 & L 2 X & &   R Y R I I I A A A A A A Z Z A A A A A A A I ",
"A S A F D D A S S A I I A A D I K F A F Y I       X w & X     &   X & X & L 2   X &   Y I Y I I A A S I I I A A K I I I I D I I ",
"A D I I I I A A A R T I A S I R Y I S D I     X   2 2 X   n.  X   & o     o w X   X   I I I I I I A I I I R I I I T R I I I I I ",
"D I I I I I A A I R T I A A I I Y I A D I   /     9 &   n.n.n.  n.o   n.  o & 2     1 I A F I I A A I I I I K F I T Y I I I D A ",
"I I I I I F A I I R I I G A A F I A S A I 1 n.[   2 X   N.n.n.n.n.  n.N.N.  X 9 [ n.< I F A D A S S I I I I A J R I I S Z A S A ",
"I I I A A A S A A A A A A S A F I A S S S 1 n.[   &   / / { n.n.n.n.c./ / [   2 { n.< I F A F I A S D I I I A A I I S Z Z A A D ",
"D K A A A S S A A S S D D D F I I I I D A < n.n.  X g < < s { n.n.{ ^ 1 < g   & n.n.1 I I K I I A A F A A I A A J I D D I Y I I ",
"I I I A I D A A F K D I F D I F I A I I A J < n.[ X C.< d C.n.n.n.n.B.d < B.{ X n.< I I I I I I D A I D A G A F I I A A I R I F ",
"I I I I I I J I R , * * I D A A D Z S A Z * I < X   n.> * * * n.n.n.C.> > n.{   < F G I Y I I I A A J D F I A I I A S Z S A A I ",
"I I F A I I A J I ; M.c.* * * A I Z Z Z * k * , <   * * c.M.* n.n.n.n.n.n.n.[ < O S A I I I I I S S I J I I I I I I S S A A J I ",
"I D S A J D A A I * V.! ! ! ! * * * * * * * * * *   c.M.! U , n.n.n.n.n.n.{ / y * * * A J I I I A A A D I I I A I I J A I T R I ",
"T I S A I I I A I * V.! ! ! ! ! ! ! ! ! c.c.c.c.M.! ! ! ! U * n.n.n.n.{ / / O ; H H 8 * , I I I Z S A A I I I A A D A S S I I G ",
"R I D I I I I I F * M.! X.O.O.! ! ! ! ! ! ! ! ! ! c z l ! U * / / / / / O O * H ! ! H 8 * * J A S A K I I I I A A A I A A D I I ",
"F A A D A A S A A * V.! X.O.+.O.+.X. .#.>.:.N M M c x l ! U * O O O O O f h * ` ! j.` H * * R I S A I I I I A A A I F A A I I I ",
"I A A I I A S S S , V.! X.+.O.O.O.X.@.h.t.h.8.a.a.c z l ! E * f f f f f h h , , ` ! * ` L * , I D D F I K A F I I F K F I I I I ",
"A A A I I A Z Z I * v.! X.+.+.O.O.O.@.t.t.t.t.t.t.c x l ! U * j j j j j h h j f * * ` * < * , I A A A A S A A F F A A A I I I I ",
"0 r Z Z r r 0 r Z * c.! ..o.+.+.+.O.&.e.t.3.9.m M c z C ! U * j j j j h j j j f O ` ` ! H 8 * r r r r r r r r r r r e r d r r r ",
"0 3 3 0 r 0 0 0 0 * v.! h.h.;.&.O.O.+.5.t.N M M n =.>.h.! U * j j j j j ( j f f O H H H , * , 3 3 3 3 4 0 0 0 0 0 0 3 9 9 0 0 0 ",
"A S A A Z r Z F A * c.! V  .t.g.a.+.O.7.t.N n -.8.r.5.l ! U * * j h j ( j f f y O * * * * H , K S A S S A A A I I A A A A S S A ",
"T W Q W R I T Q ~ * c.! V V X.7.t.a.5.5.t.B d.r.t.c z l ! U * k * , * m.x.~ * ; * ; * H ` ` , W Q W W W W Q Q ~ Q W Q Q Q Q W Q ",
"T E W W R T Q Q E , c.! f.| ..o.O.w.6.5.t.N t.n m m z s.! U * * ) ) ) x.k ~ u t * 1 * c.v.` * E W T Y Y W W W Q W T W W W W W W ",
"I K A K I R T I A , c.! V h.g.>.O.O.9.5.t.B 4.n #.$.h.2.! U * b.* * * ~ ~ ~ * * * - * c.` ` * A A F A A I I A A I A S A S S S J ",
"K S A I A S S A S * v.! ,.B B t.p.s.5.5.t.N r.,.h.r.z *.! U * 8 8 b.w w w O O O O < * , * H , S A F I K I I A A D S A S S S A D ",
"S Z A I F Z S F F * ! ! w.d.,.B w.r.1.1.t.M t.t.M v d.r.! U * ! ! ! O O O O O O O - { n.n.* * A A F I F F I F A S S A D D A S A ",
"S S F I I F I R Y * ! ! N q.y.d.B N 4.1.t.M 3.n d.g.q.l ! U * : O : = : : = y - - ] - n.N.{ < A S I I A A D I I A A A I I J A A ",
"I R T T F K I I K * ! ! M N B B h.f.3.6.t.#.r.f.2.&.z l ! E * + O f f f e e e e E e ] - - - ; A A I I I I I I I J D I R Y I I J ",
"I I R I J A D D A , ! ! ! n N N N N t.t.t.t.9.M m v z ! ! U * + e e e e c.c.c.c.E e ] M.] k - G D I I D D I I A A A I I I F A A ",
"S A A A S S S A S S * ! ! ! N n N M M t.t.e.M c x z ! E e e e e v.c.c.c.e e e e e _ ' ' ' _ - A I R I A A D K A D D A I I A S A ",
"A A A A S A D A I I J * , ! ! M M n n :.t.m m v e e e e c.c.c.c.e e e e * * * t ; - _ _ _ - I G I A A S S F I A A I J A A A A A ",
"I Y R I I I I I I J A I I , ! ! n n m n t.e e e c.c.v.c.e e e e @ * * * t y y y @ l.- - - I I J A S S S I I I I A I I I I I I A ",
"Y T R I D D D A S Z Z A F S , ! ! n e e e c.c.c.e e e e u * $ $ @ * t y y y y * @ l.i.@ q I I I J A A I R Y I A J I I D A J A S ",
"I I I A S A I I A S A I I A A , ! e c.v.c.e e e * u u u u * - - - * t y y y y * @ l.%.$ i i I I J I I T R I I A I I I A S S S Z ",
"I I F S A I I I I I I T T I F I * e e e e U U * y u u u * q 6 - - * y y y y y @ l.%.b $ i q q A S D I I I J A A J J A A S A A S ",
"D I A S F Y I A S A I I I I A A K * * * * * * t u u u u * q 4 4 q * y y u u u @ b @ @ q q q q Z Z S A I A S A A A S A A D J I I ",
"A I I S J I S Z r r Z F A A A F G q q q q q * u u u u u t * 4 4 q * y u u k k # $ * q q q q q F A I R I I I I I A D A F A A I I ",
"Z I J S I I A r r Z K Y K F I I R q q q 5 * u k k u u u y * 4 4 q * y y k k k k u * 6 q q q q I R R I A I I A G I I I A A S J I ",
"D I I S D I S r Z D E W Y I I Y J A q q 6 * y ) ) k k y y * 6 4 6 p * y y ) ) ) y * q q q q I Y I I A A I I A A F I A A I I I Y ",
"I I D S J I A r A Y Q W I I I I A S A q i * y y y y y y y * 4 4 q p p * * * * , * q q i q I F D A A G I I J A A A A I I I I I I ",
"J A S S I I A S I T W R A A A A I S A J i i * y y y y y * q 6 4 q p p q q i q q q q q a I I A A A I I I I I A S I I D D F A A A ",
"I I S A I R I I I R R I S A I A D A S D I I q * * * * * q q 4 4 q p i q i q q q q q F I I I G A D F A A J I I A I A A A S A S A ",
"I I I F I I I I I Y I A A I I I I A I I I I J J A A 6 q q i 6 4 q p i q q i D A I I I F A A A A I A Z S I I F A A A S A A I I J ",
"I I Y D I I I I K F D S S I I I J D I I A A D J J G A I Y R r 7 S W W F A A A S G A F F A A I A I I S A I D A A I I A A I Y I I ",
"A I I S S I I A A A S S A I R I A A A A S Z S A A S F I R I r 0 I Q W I A A A A I I I A A A A A I A A I T R I A I A G I I I I I ",
"I I I I J I I A A A F I J I I J A A A S S S A A Z Z I R R I r r A Q W J I I I I I J A S A D J I I A F I R I I F I I A I I I I I ",
"R R I I J A I I F I I I I I I S S S A S S D J A Z S I I K A r 0 S W W A A I A I I A S S D I I I I I I D K F D A I I I I I I I F ",
"R I A I A A I I I I R I D I J S S S D A D J I A D I T I K A r 0 S W T A S A A I R A S I I I I I I I I A A A A A I I A F A A A A ",
"I G A A A S A I R I F K A A A S A I I I F I Y I I R T I J G p 0 A Q W F A A D I I A A I I I D F F I G A K I I D A A A A A S A A ",
"I A A A A A I I I D I I I I I A A I R I A I R I I R T R I I r 0 A W W A D I I I I A A I Y I A G A I A A F I I A A A G I A A A A ",
"I I A I D I I I I F I I I I I A D I I G S I I I A A Y I I A r 0 A Q W A A I A I J A A F I F F I F A A A A A A S I I I R I F D I ",
"I I F A A I I I I I A I A A J A I F I I I I R I S A I A S S r 0 A W T A A A A I I S S A A A A I D A A A D D I I J F I I I A I I "
};
