/* XPM */
static char *pd71680099570[] = {
/* columns rows colors chars-per-pixel */
"64 64 149 2 ",
"   c #000000",
".  c #060909",
"X  c #080A09",
"o  c #080A07",
"O  c #1D0F0E",
"+  c #1E100F",
"@  c #180717",
"#  c #160817",
"$  c #0F1415",
"%  c #101415",
"&  c #1D131E",
"*  c #30120F",
"=  c #26191F",
"-  c #2B1D1D",
";  c #311211",
":  c #232017",
">  c #1D1220",
",  c #261920",
"<  c #281920",
"1  c #1C2222",
"2  c #2E2E2E",
"3  c #322A27",
"4  c #342C2A",
"5  c #39312F",
"6  c #2D2532",
"7  c #3B2F39",
"8  c #2E303C",
"9  c #333333",
"0  c #3D3533",
"q  c #31313D",
"w  c #3B313A",
"e  c #3C3C3C",
"r  c #363837",
"t  c #4A1F16",
"y  c #4B2B14",
"u  c #63351D",
"i  c #403635",
"p  c #413937",
"a  c #443D3B",
"s  c #7E4E1E",
"d  c #534C2F",
"f  c #704324",
"g  c #7E4E20",
"h  c #754D2D",
"j  c #74502C",
"k  c #744A31",
"l  c #0C1E46",
"z  c #0B1B4F",
"x  c #0B1A53",
"c  c #06145E",
"v  c #281E40",
"b  c #040F6A",
"n  c #030E67",
"m  c #03106E",
"M  c #041262",
"N  c #061275",
"B  c #07127A",
"V  c #091379",
"C  c #214275",
"Z  c #454545",
"A  c #4D4D4D",
"S  c #4E504F",
"D  c #50504E",
"F  c #4D4F52",
"G  c #4D4A5D",
"H  c #514F50",
"J  c #4D5153",
"K  c #495058",
"L  c #475057",
"P  c #525252",
"I  c #5E5252",
"U  c #5A5A5A",
"Y  c #595858",
"T  c #615353",
"R  c #636363",
"E  c #6A6A6A",
"W  c #726B7D",
"Q  c #747374",
"!  c #804D20",
"~  c #99423B",
"^  c #996E37",
"/  c #996B4A",
"(  c #AD774B",
")  c #877E7F",
"_  c #C39653",
"`  c #C1AD56",
"'  c #CC8565",
"]  c #E4A57C",
"[  c #0E1982",
"{  c #0C1780",
"}  c #17218B",
"|  c #1C2690",
" . c #1D2892",
".. c #222D97",
"X. c #232E98",
"o. c #1750A7",
"O. c #1C47A3",
"+. c #234AAD",
"@. c #2D4EAB",
"#. c #285FAF",
"$. c #2658A6",
"%. c #3152AF",
"&. c #2B4DB4",
"*. c #2D4EC2",
"=. c #2E51C5",
"-. c #3558CD",
";. c #3555D2",
":. c #3A59D5",
">. c #2763C8",
",. c #2A68D4",
"<. c #2D6ADC",
"1. c #2E67DB",
"2. c #316ED5",
"3. c #316DD9",
"4. c #3170D9",
"5. c #3E59E6",
"6. c #2F6EE0",
"7. c #3273E2",
"8. c #3176EB",
"9. c #3D68F3",
"0. c #3578F3",
"q. c #3D75FE",
"w. c #3A7CFF",
"e. c #3A70F4",
"r. c #425CEE",
"t. c #455FF2",
"y. c #4162EB",
"u. c #4062E7",
"i. c #4964FF",
"p. c #456AFF",
"a. c #436AF6",
"s. c #4272FF",
"d. c #887F80",
"f. c #868080",
"g. c #B19997",
"h. c #B5B5B6",
"j. c #C4B59E",
"k. c #C5B4A0",
"l. c #A8C3B0",
"z. c #CFC587",
"x. c #D0C688",
"c. c #F9D6BA",
"v. c gainsboro",
"b. c #E5E6C7",
"n. c #E6E7C8",
"m. c #F9EDE7",
"M. c #F2F8F8",
"N. c #FFFFFF",
"B. c #F3F9F7",
/* pixels */
"A P P P Y Y P P P A P P A A A A P P A A Y P Z A A A A Z P P e r P R R A A H P P P P P A A A F A A Z A A P P Z Z A U Y P P A A A ",
"P Y Y P P P P F A A P Y P A A A P P A A P A Z e A A P F P P Z r Y E U D A P P F A A A A A P P P A A Z A P A A A P U P P P P A A ",
"P P P F A P A A A A P Y P P P P P P A Z P A Z Z A A A A A P e r D R Y A P P P A A A A A A P P P P D A A P H A D Y U P P P P J P ",
"A P D Z A A P P A A A P P P P P A A A A P P A A P P A A A P Z r A R P A F P P A A A A A P P Y P P P A P P P A P P P P P D A A P ",
"A P A Z A H P P F Z A P A A P P Z A A A A D A P Y P P P Y           U A P       P P P P P P P A P P A A P P A A A A J P A A A A ",
"P P P A A P P P A A P P A A A A A A A P A A               . X $ % X       X X   A A P A P P F A A A Z Z D A A A A A P Y A A P H ",
"A P P A A A P P D A P Y A A A A P P P P P H   X % X   X % $ $ % q 1 1 % X X   A A A P P D P A A A A Z A P F A A A D Y Y H P P P ",
"A J D D P P P P Y A P P P A P A P P P P A P Y   X X % 1 X X % 1 1 K 1 1 1 % X           Z A A A A A Z A Y Y D J A P P P A A P Z ",
"P P P P P A P P J A P P P P P P P P           X $ 1 1 . . 1 K q q 1 K K 1 1 K % % % X   A Z A A P A P P Y P A A P P P D P A A A ",
"P P P P A A A P D A A A A A A H P P   X % 1 1 1 1 1 q q q 1 L F q q q K 1 q K 1   X   H D A A A P P P A P P A A F P P D P P A A ",
"P P P P A A A A A A A A A A P P P A A   X X % 1 . q K $ 1 q 1 % 1 q 1 q K 1 q K X     P P A A F U P A A A A A A P P D A P F A P ",
"Y Y P A A A P P A A A A P P P P P D A A       X q K 1 . q K % 1 q K q 1 q K 1 X $ % X   A A A P Y P A A A F P P P Y P F D P A A ",
"Y P P J P P P P P D A A A P P A A A F A   X % 1 K % . q K 1 % q K K K q 1 q 1 % X % % X   A P Y P P A F P P Y P P Y P P P P A H ",
"P P D A A A A P P F D A A P A A P A A   X % 1 1 % X X K 1 % o K 1 % K K q . % 1 %       P J P P P D A A P A A A P F A A D A A P ",
"A A A A A A A A A A P P A A P P P A A F P   X % X   1 K $ X X , X   1 % G 1 o % %   Y Y P P P P A A A A A A Z Z A A A A A A A P ",
"A A A A P A A Z Z A P P A A A P P A A P P P       X q % X     %   X % X $ K 1   X %   P Y P P P A A A D P P A A D P P P P A P P ",
"A A P P P P A A A Y U P A Z P Y Y P A A P     X   1 1 X   c.  X   % o     . q .   X   P P P P P P A P P P Y P H P Y Y P P P P P ",
"A P P P P P A A P U U P A D P P P P A A P   ~     q %   c.c.c.  c.X   c.  . % 1     < P A P P P A A P P P P D P P U Y J P P A A ",
"P P P P F A A P P P P P A A A D P A A A P , c.'   1 X   m.c.c.c.c.  c.m.m.  X 8 ' c., P A A A A A Z P P P P A A Y Y F Z Z A A A ",
"P P P H A A A A D A A A A A A A P A A Z A , c.'   %   ~ ~ x.c.c.c.c.x.~ ~ '   1 ] c., P D A H P A A A P P P A D P P A Z Z A A A ",
"A P A A A A Z A A Z A A A J D Y Y P P A A = c.c.  X ! , = s ] c.c.] ! < , g   % c.c.< P P P P P A A P A A P A A P P H D P Y P P ",
"P P P A P A A A J F & & & D D P P A H P A & = c.' X M., d & & & c.c.B.d , M.] X c., P P P P P P A A P A A A A J A P A A P P P P ",
"P P P P P P D P Y Y & b.j.& & & A Z Z A & k & = X   > & & j.b.& c.c.B.- : c.]   , A D P P P Y P A A A P P H A P P P Z Z Z A A P ",
"P P A A P P A P P P & N.W W W W & > & & > & & & &   j.j.b.W I & c.c.c.c.c.c.' , O A A P P J P P Z A P A P P P P P P A Z A D J P ",
"P P A A H F A A D P & N.W W W W W W W W W j.j.j.j.  W W W W I & c.c.c.c.c.] ~ y O & F F D P P P A A A A P P P A P P P A P Y Y P ",
"U P Z A P P P A P P & b.W | ....W W W W W W W W W W c z l W I & c.c.c.] ~ ~ O f & & & & A A P P Z A A A P P F A A A A Z A P P A ",
"Y P A P P H H H J P & N.W | ....X.X.| [ +.;.=.V b b c x l W I > ~ ~ ~ ~ O O h & G G 6 & & A P H Z A D P P P P A A F D A A F P P ",
"A A A A A A A A D D & N.W | ....X.X.| O.s.w.w.5.t.t.c z l W I & O O O O f j & G W W G 6 > P Y P A A P P P P H A A P P A A P P P ",
"P A A D P H A Z A A & j.W | ..........o.w.w.w.w.q.w.c z l W I & f f f f j j & ) W ) ) G & & Y P A A P P D A H P P P F P P P P P ",
"A A A H H A Z Z P P & j.W } | ..X.....#.q.w.<.<.n n c x C W I & j j j j j j & & d.W & ) G & Y P A A A A A A A A A A A A P P P P ",
"r r Z Z e r r e Z Z & j.W s.p.*.$.......2.w.N m m n &.-.s.W I & j j j j j j j f & & W & & & Z e e e r e e r e e e e r e d e e e ",
"9 2 9 r r r 9 r r r & j.W B [ w.a.t...X.4.w.V m &.5.w.2.l W I & j j j j ^ j f f O G G & & & q 2 9 2 4 9 9 9 9 9 r 9 2 8 8 9 9 9 ",
"A A A A Z e Z P A A & k.W V [ | 2.w.i.1.2.w.V i.s.w.c z l W I & & & & ^ j f f y O & & & G & A A A A Z A A A A D P A A A J A A A ",
"Y R E E P P U E Q E & j.W p.V }  ...e.4.2.w.N w.n m c z u.W I & / / / v.h.Q & & O > G d.d.& R R R R R R R E E Q E E E E E R R R ",
"U U R U U U E E U U = j.W N s.9.-. .| 4.2.w.N ,.m +.@.s.>.W T & & & & h.h Q u & O > j.j.) & R U R U Y Y R R R R R T R R R U R R ",
"P A A P P Y U P A A > k.W ;.B B s.u.9.4.2.w.N q.:.q.s.z %.W I & l.l.K Q Q Q & & O & j.) ) & P F A F A A P P P A A A A A A Z A J ",
"A A A P A Z A A Z F & W W 0.i.;.V w.s.>.>.w.N w.w.m c i.q.W I > 6 l.q q q O O O O & j.) ) > A A A D P F P P F A A A A A A Z A D ",
"Z Z A P H Z Z P F P & W W B 8.e.p.V V 2.>.w.n 1.n i.p.7.l W I & W W O O O O + O O & & & G & A A A H P A H P A A Z Z A A A A A A ",
"Z A J P P A P Y P P & W W b m B B s.q.1.1.w.+.w.a.>.$.z l W I & O ; * * * * y + O c.c.c.& & P A Z P P A A H P P A A D P P P A A ",
"F Y U Y P F P P P H & W W W m N N V V w.w.w.q.6.n n x z W W I & O f f f f y y O - c.m.c.] , P A A P Y P P P P P D J P P Y P J D ",
"P P P P P A A A Z A A & W W W b m m b n w.w.w.n M x z W I I > O O f f f y y + < ` - c.@ ' = P A J P P A A P P A A A P P P P A A ",
"A A A A A A A A A A A r 7 7 w w 7 r 7 w w w w w w w w w w w w w w w w w w w w I w ` - - - = P A P Y P A A H P A P A A P P A A A ",
"A A A A A A A A P J w z.z.x.z.x.x.x.j.j.j.j.j.g.g.g.g.g.g.g.d.d.d.) ) ) d.d.d.I w ` n.` k - P D P D A Z A A P A A P D A A A A A ",
"P P Y P P P P D P D A w 7 7 7 w w w w w w w w 7 w w w w w w w w w w w w w w 7 T w _ _ _ ( - P D A Z Z A P P P P A P P P P P A A ",
"P Y Y J A A A A Z Z Z A P Z Z P & W W W W W W W I & u u u y & - - & y y y y y 7 - ( ( ( - i 0 P P A A P Y Y P A P P P A A A A A ",
"P P P A A A A P A A A P P A A Y Y & W W W I I I & y u u y & - - - & y y u u u @ v < - - 0 i i J H P Y Y Y P J A P P P A A Z Z Z ",
"P P A A A P P P D P P Y U P A P P i > & & & & & # y u u y & 0 3 - & y u u u u @ @ & 0 0 i 0 0 A Z A P P P A A A A P A A A A A A ",
"P P A A P Y P A A A P P Y J A A P 0 i 0 0 0 0 & y u u u u y & 3 0 & u u u u k k u = r i i 0 0 Z Z A F A A Z A A A A A A A A P D ",
"A P P A H P A Z r e Z F A A A A A 0 i 0 0 0 & y u u k k u u & 3 7 d & u k k k k h & 0 0 i 0 5 A A Y Y J D P P P A F A H A A A P ",
"Z P A Z P P A e e Z P Y P P P P Y P 0 5 5 5 & y u k k k u u & 3 9 a p = & & & & & 5 0 0 0 0 P P Y P P A P P A H P P P A A A P P ",
"A Y P A A P A e Z H U U Y P P P F A A 5 5 0 & u k / / / k u > 4 0 a a 5 0 0 0 0 0 0 0 0 0 P P Y P P A A P P A A D P A A J P P P ",
"P P A Z D P A r A Y E R P P P P A A A P 0 i & t u k k k u u > 4 0 a e 0 0 0 0 0 0 0 0 i P P J H A A D P P D A A A A P P P P Y P ",
"A A Z A D P A A P U R Y A A A A P A A A P Y 0 & > & & & & & 4 4 0 a a 0 i 0 i 0 0 0 P P P P H A A P P P P P A A P P H D D A A A ",
"P P A A P P P F P Y Y A A A P A A A A A J P P A A A 5 0 0 0 4 3 0 p p 0 0 0 P A A J P P P D F A A P A A P P F A P A A A A A A A ",
"P Y P D P Y P P P P P A A P P P P A P P P P P P A A A H H P Z 9 Z R U A F P A A P H P D D A A A P A Z Z D P P A D A A Z A H A A ",
"P P P J P P P H J P A A A P P P P A P P A A A A H A A P Y Y e 9 A E R F A A A A F D D A A A A A P P A A P A A A P A J A P Y P P ",
"A P A A A P H A A A A Z A P Y P A A A A Z Z A A A A P P Y P e 9 A E R H A A A A D P P A A A A A P A A P U Y P A P P P P P P P P ",
"P P P A A P P D A A P P A P P P A A A A Z A A A Z Z P Y Y P e 9 F R R P P P P P P P A A A A P P P A P P Y P P P P H A P P P P P ",
"U Y P P A H P P P P P P P P P A Z Z A A A A A A Z Z P P P F e r A R U H A P A P P F Z A A P P P P P P D F A A A P P P P P D P J ",
"Y P P A A A D P P P P P A P A Z Z A A A A P P A A P Y P A A e 9 A R U A A A A P P A A A P P P P P P P A A A A A P P A A D A A A ",
"P F A A A A A P P P P H J D A A A P P P J P Y P P Y U P P A Z 9 J E T D A A D P P A A P P P A P A P P A D P P H A A A A A Z A A ",
"P A A A A A J P P A P P P P A A A P Y P A P Y P P Y U Y P P e 9 D E R J A J P P P A A P Y P A P F D A A A P P A A A P P A A A A ",
"P H D J P P P P P P P P P P D A D P P D A A P P A A Y J J A e 9 A E U A A P D H A A A H P D J D H A A A A D A A P P P P P P H P ",
"P P D A A P P P P P A P A A H A F P P P P P P P A A P A A Z r 9 A R R A A A A H A A A A A A A P A A A A J A H P A P P P P A P P "
};
