/* XPM */
static char *pd81680099570[] = {
/* columns rows colors chars-per-pixel */
"64 64 150 2 ",
"   c #000000",
".  c #060909",
"X  c #080A09",
"o  c #1D0F0E",
"O  c #1E100F",
"+  c #180717",
"@  c #160817",
"#  c #0F1415",
"$  c #101415",
"%  c #1D131E",
"&  c #26191F",
"*  c #2B1D1D",
"=  c #311210",
"-  c #232017",
";  c #1D1220",
":  c #261920",
">  c #1C2222",
",  c #2E2E2E",
"<  c #312927",
"1  c #342C2A",
"2  c #38302E",
"3  c #2D2532",
"4  c #2F323C",
"5  c #333333",
"6  c #3D3533",
"7  c #31313D",
"8  c #3B313A",
"9  c #3C3C3C",
"0  c #363837",
"q  c #421E06",
"w  c #421E08",
"e  c #4B2B14",
"r  c #63351D",
"t  c #413937",
"y  c #443D3B",
"u  c #534C2F",
"i  c #6F4424",
"p  c #704323",
"a  c #7E4E20",
"s  c #744D2D",
"d  c #74502C",
"f  c #744A31",
"g  c #0C1E46",
"h  c #0B1B4F",
"j  c #06145F",
"k  c #09165A",
"l  c #281E41",
"z  c #040F69",
"x  c #03106D",
"c  c #051163",
"v  c #061274",
"b  c #07127A",
"n  c #09137B",
"m  c #081274",
"M  c #214373",
"N  c #454545",
"B  c #4D4D4D",
"V  c #494947",
"C  c #504E4F",
"Z  c #4E504D",
"A  c #51514F",
"S  c #4E4E50",
"D  c #4D4A5D",
"F  c #514F50",
"G  c #4F5150",
"H  c #495058",
"J  c #525252",
"K  c #5E5252",
"L  c #5B5B5B",
"P  c #585856",
"I  c #636363",
"U  c #6A6A6A",
"Y  c #726B7D",
"T  c #737473",
"R  c #804D1E",
"E  c #804D20",
"W  c #99423B",
"Q  c #996E37",
"!  c #996B4A",
"~  c #AD774B",
"^  c #AE784C",
"/  c #877E7F",
"(  c #887E7F",
")  c #C39653",
"_  c #C2AD56",
"`  c #CD8565",
"'  c #E4A57C",
"]  c #0D1982",
"[  c #0C1780",
"{  c #16218C",
"}  c #1A258F",
"|  c #1C2690",
" . c #1D2892",
".. c #222D97",
"X. c #222D99",
"o. c #1851A8",
"O. c #1C47A3",
"+. c #224AAD",
"@. c #2D4EAB",
"#. c #3C4BAD",
"$. c #285FAF",
"%. c #2658A4",
"&. c #3152AF",
"*. c #304DB1",
"=. c #274CB7",
"-. c #736B80",
";. c #2D4FC3",
":. c #3457CD",
">. c #3555D2",
",. c #3A5AD6",
"<. c #2664CC",
"1. c #2963C6",
"2. c #2A68D4",
"3. c #2D6ADC",
"4. c #2E67DB",
"5. c #316ED6",
"6. c #316FD9",
"7. c #3367DD",
"8. c #3270DC",
"9. c #3E59E4",
"0. c #2F6EE2",
"q. c #3F61E6",
"w. c #3377EA",
"e. c #3D68F3",
"r. c #3D75FE",
"t. c #3A7CFF",
"y. c #3778F7",
"u. c #466ACA",
"i. c #425CEE",
"p. c #455FF0",
"a. c #4262EB",
"s. c #4964FE",
"d. c #446BFF",
"f. c #4465F4",
"g. c #4272FF",
"h. c #887F80",
"j. c #877E81",
"k. c #61A0EF",
"l. c #61A0F0",
"z. c #B6B6B6",
"x. c #C4B59E",
"c. c #C4B5A0",
"v. c #A8C3B0",
"b. c #F9D6BA",
"n. c gainsboro",
"m. c #E4E6C7",
"M. c #FAEDE7",
"N. c #F2F8F8",
"B. c white",
"V. c #F2F7FA",
/* pixels */
"B J J J P P J J J B S J S B B V G J J B P J V V B S B V J S 9 5 J U L S B G J J P J J B S S G V B V V S J J V V S L L J S S V B ",
"J P P J J J J J B B P P S B B B J J B B J S N 9 B S S B P J N 9 J I L B J J J J V B B B B J J S S B V B J B V V P L P S J J B S ",
"J J J S J S B B B B J L J S J J J J B V S B V N B B S V B F 9 0 J I P B J J J V V B B V B J P J J S B B J F B S P L J J J J S J ",
"B J S V V B J J S V B J J J P J B S V B J S V B J J S B S F N 0 B I P B F J J B B B S S J J P S J J S S J J G J G J J S S B B J ",
"B J B V V J J J S V S J J S J J V B B B S G B F L J J J J J V 0 S I P B G J J V J F J F J J G B J F B S J S B S V B S J B V B S ",
"J J J B B S J J B V J P B V V B B B B F B B F J S V C J J           P B B       B S G J J J S B B V N V S S V B V S P P B B J J ",
"B J J B B S J J S B J P B V B B J J J J J B               X X $ $ X       X X   V B J S J J G B S V V V F S B B S S P P S J J F ",
"B S B J J J J J J S J J J S J S J J J J B J   X # X   X $ $ $ $ 7 > > # X X   B V B S B V V B S G B V B P P S J S J P J V S G V ",
"J J J J G J J J G S J J J G J J J J J A J J P   . X $ > X X # > > H > > > $ X           V B B B J S J J P J S B J J J J J B V B ",
"J J J J B B B J F B S S B B B J J J           X $ > > X X > H 4 7 > H H > > H $ $ $ X   S B V B J J J J J S B B S J B J J J B J ",
"J J J F B B B B B B V B B B J J G S   X $ > > > > > 7 7 7 > D H 7 7 7 H > 7 H >   X   J F S B S L J B V B B B B J J S S J J B S ",
"P P J B B B B J B B B B C J J J J F B   X X $ > X 7 H $ > 7 > $ > 7 > 4 H > 7 H X     B V S B S P J B B B S S S P J J S B J B B ",
"L P G S B J J J J J B B G J B B B B B B       X 7 H > X 7 H # > 4 H 7 > 7 H > X $ $ .   V S J P J J B B J P P P P J J J J J B B ",
"J J S B S B J J G B J B B J J B J S B G   X $ > H $ X 7 H > $ 7 H H H 7 > 7 > $ X $ # .   G J J J S B S G F B B J J B B B J B J ",
"B B B B S S B V V B J J B B F J J B B   X $ > > $ X X H > $ X H > $ H H 7 X $ > #       P J G S B B V B B V N N V S B B B B B J ",
"V V B S F S V V V S J J B B B J J B B B J   X $ X   > H $ X X > X   > # H > X $ #   P P J P J P B B B J J J B B J J J J J B J J ",
"B J J J J J B B S P L J V V J P P J B S J J       X 7 $ X     #   . $ . $ H >   X $   J G J J J J B J J J P J J J L P J J J J J ",
"S J J J J J B B J P L P B S J J P J S S J     X   > > X   b.  X   $ X     . 7 X   X   J B J J J B B J J J J J B J L P S J J S B ",
"J J J J J S B F J P J J B B B S G B V V F   W     7 $   b.b.b.  b.X   b.  X $ >     : J S B B B V V J J J J S B J P J V V V B B ",
"J J J S B B V B S B B B B V B S J S V V B : b.`   > X   M.b.b.b.b.  b.M.M.  X 7 ` b.: J A B J J B V S J J J B B J J B N V B B B ",
"B G B B B B V V B V V S F B J P P J S S B & b.`   $   W W ' b.b.b.b.' W W `   > ' b.: J J J J J B B A B B J V S J J S B J L J S ",
"J J J B J B B B J S S J J S S J J B J J S : b.b.  X a : : E ' b.b.' a : & R   $ b.b.: J J J J J B B J S B S B J S S S B J J J S ",
"J J J J J J G J P P J J J B B V S N V V V B & b.` X N.: u N.b.b.b.b.N.u * N.x.X b.: J J J J J J B B S S J J B J J B V N V B S J ",
"J J S B J F S J J J J J J J J V S N V 9 9 ; S : X   b.- - N.b.b.b.b.N.- = b.'   : V B J J J J J V B S S A J J J J J V V B S S J ",
"J J V B S S B B J J B ; % % J J F F B B % f % % :   b.b.b.b.% % % b.b.b.b.b.` : o B S F S J J J B B B B J J J B J J S B J P L J ",
"L J V B J J F B F J B % m.x.% % ; F J % ! f q ; %   ' ; % % x.m.% b.b.b.b.' W e % % % B B G J J V V B B J J S B B J B V V J J S ",
"P J S J J J F S J G S % B.Y Y Y Y % ; ; % % % % % % % x.x.m.Y K % b.b.' W W O % D D 3 % % B J S V B G J J J J B B B S B V J J J ",
"S B B B B B B S G J B % B.Y Y Y Y Y Y Y -.Y x.c.x.x.m.Y Y Y Y K % W W W O O % D Y Y D 3 % % P J V B J J J J G B B J J B B J J J ",
"J B B F J S V N V B B % m.Y | ..X.Y Y Y Y Y Y Y Y Y Y k h g Y K % o o o i d % / Y / / D : % J J S S S J S B S J J J J S J J J J ",
"B B B J J B V N J J J % B.Y | ........| ] +.:.;.v x x j h g Y K % i i i d s % % / Y ; / D % ; J B B B B B B B B S B V B J J J J ",
"0 9 N N 9 0 0 y N N 9 % B.Y } ..........O.g.t.r.i.i.a.j h g Y K % s d d d d d i % % j.; ; % % 9 9 9 9 9 9 0 9 y 9 9 0 9 N 9 9 9 ",
", , , 0 0 0 5 5 0 0 5 ; x.Y } ..........o.t.t.t.t.t.t.c h g Y K % d d d d d d i o / / Y D 3 % , 5 , , , 5 5 5 5 0 5 5 5 5 5 5 5 ",
"B V B S V 9 N S B B B % x.Y { | ........$.y.t.3.3.z x j h M Y K % d d d Q d p p o D D D % % % B V C V V B B B J J B B B S B V B ",
"L I U U J J L U T U U ; x.Y d.r.;.%.....X.6.t.v x z z *.:.r.Y K % d d Q s p p e o % % % % D % I I I I I I U U T U I U U U I U U ",
"L L I L L L U U I L L % x.Y b ] g.f.a...X.6.t.v x =.9.r.5.g Y K % % % n.z.T % % o & % D ( ( % L I L P P I I I I I L I I I L L I ",
"J B B S J P L J V V B % x.Y b ]  .6.t.s.7.6.t.v s.r.t.j h g Y K % ! ! z.s T r % X * % x.x./ % B B S B S J J J B J B V B B B V J ",
"S V B S B V V B V B J ; x.Y d.[ {  ...w.6.6.t.v t.c z j h a.Y K % $ & T T T % % o * % x.j./ % B B F J S J J B B S V B V V V B S ",
"V N S J B V V S S G G ; x.Y v d.e.:. . .8.6.t.v 2.x +.@.d.1.Y K % z.4 7 7 O o o o & % % % D % B V F J B J J J B V V B S S V B B ",
"V V F J J J J P J J B ; x.-.>.b b l.a.a.6.6.t.v g.,.r.r.h &.Y K % Y o o O o o o o & ' b.b.% % B B J J S B B J J B B S J J J B B ",
"S P L L J S J J J J J % Y Y y.s.>.n y.t.<.<.t.x r.t.x c s.r.Y K % = = = = = e * * _ * b.M.' & B B J J J J J J J S S J J P J J S ",
"J P J J G S S S B B B % Y Y b w.e.e.b b 2.<.r.z 6.z d.d.0.g Y K % p p p 8 8 8 8 K 8 _ * * * & B S J J S B J J B B B J J J B B B ",
"V B B B B V V B V B V ; Y Y z v b [ d.e.4.0.t.+.r.d.1.%.h g Y K 0 8 8 8 x.c.c.x.K 8 _ m._ f * C J P J B B J J B S S B J J B V B ",
"B S S B V B B S J J B ; Y Y Y z b b v v t.t.t.r.0.x c k 8 8 8 8 x.x.x.x.8 8 8 8 8 ~ ) ) ) ~ * C S S B V V G S B B J J B B B S B ",
"J J P J J J J S J B B J % Y Y Y x x x x z t.t.y.8 8 8 8 x.x.x.x.8 8 8 8 w e e e % * ^ ^ ^ * J J B V V V J J J J B J J J J J J B ",
"P P P J S S S B V V N B C % ; Y Y z z x z 8 8 8 x.x.x.x.8 8 8 8 * ; e e e e e e + l.* * * J J J S B S J P P J S S J J S B S B V ",
"S P J B V B S J B V B J J S B % Y Y 6 8 8 x.x.x.8 8 8 8 % r % + + % e e e e e % + k.u.+ t J J J F J P P P J S S J J J B V V V N ",
"J J S V B J J J J J J L L J J J % 8 x.x.x.8 8 8 h Y K % r e % @ + + % e e e e ; + k.#.+ t 6 B B V S J J J S B B S J B B V B B V ",
"J S B V J P J B V B J J J A B C F 8 8 8 8 Y Y Y Y K % r e % @ * * % e e r r r + k.#.l + t 6 2 N N V S B B V B B B V B B S S J J ",
"B J S B S J V N 9 0 V S B V S S B 6 % Y Y Y K K K % r r e % + * * ; e r r r r + 3 + + 6 6 6 6 B B P P S J G J J B J B G B B J J ",
"V S S V S J B N 9 N J P J S J J P 6 6 % % % % % % r r r r e % * * % r r r r r + @ % 6 6 6 6 6 P P P S S J J B F S J J B B V S J ",
"B P J V S J B 9 N S L L P J J J F 6 2 6 2 6 % q r r r r r r % 2 6 % r r r f f f r ; 6 6 6 6 6 J J J B B J J B B A J B B S J J P ",
"S J S V S P V 9 B P U I J J J J B B 6 t t t % e r f f f r r % 1 6 y % r f f f f f ; 6 t 6 t S J B B S J J J B B B B J J J P J J ",
"S S V V J J S V J L I P B B S B G B B 5 t t % r f ! ! ! f r % < 6 y y % ; ; % % ; 6 t t 6 J F B B J J J J J B V G J J S S B B B ",
"J S V B J P J S J L P F V S J B J V V S 6 6 % ; r f f f r r % < 6 y t 6 6 6 6 6 5 6 6 6 J J B B S S B V F J S B J B B V V B V B ",
"J J J S J P J S J P J B V J J J J B J J J J 6 : % % % ; % % 2 < 6 y t 6 6 t 6 6 6 6 F F S B B B J B V V J J S B S B V B B S F J ",
"J P J J J J J S S S B B B J J J J B J F B B S S F B 6 6 6 y 1 < 6 y y 6 6 6 B V F S C S B B B B J G V S J S B S J F S S J P J J ",
"B J B B V J J B B B B V B J P J S B B B V N V B B V S P P J 9 5 B U I F S B B B S J J B B B B B J B B P L P J B J G G J J J J J ",
"J J J B S J J F B B S S S J J S S V V B V V B B N V F P P J 9 0 B U I F F J J J J S B B B B J S J B S J P J J J J F B J J J J J ",
"L P J J G B J J J J J J J J J V V N V B V S S B N V J J J S 9 5 V I I B B G S J P B V V S J J J J F J B G S C B J J J J J B J J ",
"P J J C B B S J J J P J J S S V V B S B S S J B S J P J B B 9 5 V I L B B B B J P B V S J J J J J J J B B B B B J J B S B B B B ",
"J B B B B V B J J J J G B S B V B J J J S J P J J L L J J S 9 5 B I I B B B B J J B B J J J B G G J J B J J J B B B B C B V B B ",
"J S B S B B J J J B J J J J S B B J P J S S P J J P L P J J N 5 G U I J B J J J J B B J P J B J B F B B B J J B B B J J B B B B ",
"J B B J J J J J J J J J J J J B S J J S B S J J B S J J S B 9 5 B I L B B B F J J B V J J S B J J B B V B B B V J J J J J S J J ",
"J J G B B J J J J J S F B B G B J G J J F J P J V S S S V V 9 5 B U I B B B J B S B V B B B S J B B B S G S J J B J J J J B J J "
};
