/* XPM */
static char *pl11680100646[] = {
/* columns rows colors chars-per-pixel */
"64 64 145 2 ",
"   c #000000",
".  c #0B0B07",
"X  c #070908",
"o  c #090A09",
"O  c #1D0F0E",
"+  c #1E100F",
"@  c #170616",
"#  c #180717",
"$  c #160817",
"%  c #180719",
"&  c #190818",
"*  c #0F1414",
"=  c #101415",
"-  c #1D131E",
";  c #26191F",
":  c #2B1D1D",
">  c #311210",
",  c #232019",
"<  c #1D1220",
"1  c #261920",
"2  c #281920",
"3  c #1C2222",
"4  c #2F2F2F",
"5  c #312927",
"6  c #352D2A",
"7  c #39312E",
"8  c #333333",
"9  c #3D3533",
"0  c #363837",
"q  c #31313D",
"w  c #3B313A",
"e  c #3C3C3C",
"r  c #421E06",
"t  c #4B2B14",
"y  c #63351D",
"u  c #403836",
"i  c #443C3A",
"p  c #524B2E",
"a  c #41413F",
"s  c #6F4223",
"d  c #704324",
"f  c #754A2F",
"g  c #74502C",
"h  c #744A31",
"j  c #091957",
"k  c #06145F",
"l  c #08175A",
"z  c #040F6A",
"x  c #051263",
"c  c #03106E",
"v  c #061274",
"b  c #081176",
"n  c #07127A",
"m  c #09137C",
"M  c #454545",
"N  c #484846",
"B  c #494748",
"V  c #4D4D4D",
"C  c #504E4F",
"Z  c #4E504F",
"A  c #51504E",
"S  c #4F4F51",
"D  c #514F50",
"F  c #4D5152",
"G  c #495058",
"H  c #525252",
"J  c #5E5252",
"K  c #595957",
"L  c #565658",
"P  c #595758",
"I  c #575958",
"U  c #5B5B5B",
"Y  c #605252",
"T  c #636363",
"R  c #696967",
"E  c #6A6A6A",
"W  c #726B7D",
"Q  c gray44",
"!  c #9A423B",
"~  c #996E37",
"^  c #996B4A",
"/  c #877E7F",
"(  c #CC8565",
")  c #E4A57C",
"_  c #0C1780",
"`  c #0E1982",
"'  c #16218B",
"]  c #1A268F",
"[  c #1C2690",
"{  c #1D2892",
"}  c #222D97",
"|  c #232E98",
" . c #1C47A3",
".. c #1851A8",
"X. c #224AAD",
"o. c #2F4EAB",
"O. c #295CAC",
"+. c #2257A3",
"@. c #314EB2",
"#. c #274BB9",
"$. c #736B80",
"%. c #2D4EC2",
"&. c #2D50C4",
"*. c #3153CE",
"=. c #375BCB",
"-. c #3555D2",
";. c #3A5ED6",
":. c #3958D5",
">. c #2461C5",
",. c #2664CB",
"<. c #2D65C6",
"1. c #2968D2",
"2. c #2F67DE",
"3. c #2B69D8",
"4. c #316DD5",
"5. c #316ED9",
"6. c #3270DC",
"7. c #3F5AE7",
"8. c #3077EB",
"9. c #3175E4",
"0. c #3D68F2",
"q. c #3578F2",
"w. c #3879F7",
"e. c #3D76FE",
"r. c #3A7CFF",
"t. c #3976F8",
"y. c #425CEF",
"u. c #455FF2",
"i. c #4162EB",
"p. c #4964FE",
"a. c #456AFF",
"s. c #436AF6",
"d. c #4271FF",
"f. c #887F80",
"g. c #B19996",
"h. c #C4B59E",
"j. c #A7C4B0",
"k. c #A8C3B0",
"l. c #CFC587",
"z. c #F9D6BA",
"x. c #E5E6C6",
"c. c #E5E5C9",
"v. c #FAEDE7",
"b. c #FBEDEA",
"n. c white",
/* pixels */
"V H H H I P H H H B H H H V V B A H H Z P H B B V V V N H H e 8 H R T V V F H H H H H V F H H B B B B F H H N N H U U H H V B B ",
"H I I H H H H H V V H I V V V V H H V B H V M a V F F V H H N 0 L R Y F F H H H V V V V B H H H H V N V S V B B H U H F H H V H ",
"H H H C Z H V V V V H U H H H H H H V B H V N M V V V B S S i 0 S T I V H H H V N B B B Z H I H H H V V H H V V I U H H H H H H ",
"V H V B B S H H Z B V H H H I H Z F V B H A B V H H H V V V M 0 V T P B V H H V V Z H V H H H H H H V A H H A H H H H H V V V H ",
"V H Z N B H H H V B Z H Z V H H B V B V V H H H U H H H H H M 0 S T U V H H V V H V H H H H H B H V V Z H H V H V V C H V B V V ",
"H H H B V F H H V V H H V B B V V V F A H V V H F B C H H H M 8     o o     H V V H H H H H H V V B M B Z Z B V B V H P V Z H H ",
"V H H V V C A H H V H I V B V V H H H H V D H H Z B H I H     3 * = = * * * = o   V H H F A H V Z B M B H H V V V H I I A H H H ",
"V V H H H H H H H V H H H Z H H H H H H V H H H H H U     = o q 3 q 3 = 3 3 o   o   V Z B B V V H V B V I H F A H H I H B V F B ",
"H H H H H A H H H V H H H H A H H H H H H H H H Z V   * 3 q 3 q G G 3 G q 3 3 o   o o   B V B V H V H H I H A V H H H V H V V V ",
"H H H H V V V H H V V Z V V V H H H V V A H H H V V   3 q G q G 3 3 q 3 G q 3 = o     o   V V V H H H H H H V V V H H H H H S V ",
"H I H H V B V V V B V V V V H H H A V B V V H H V   o q G 3 q = 3 G q q 3 q q 3 3 * o   H A V C U H V B V V B V H H A V H S V A ",
"I H H V V V C H V V V V F H H H F H V V V H H V Z   = G 3 = G 3 q 3 G q * G q 3 = 3 = *   V V H I H V V V Z H H H I H V H H V V ",
"I P H V H D H H H Z V V C H H V V V V V H H H H Z = o 3 * 3 3 G q * G 3 o G q q 3 o   o *   H H H H V H H H P H I H H V H H V Z ",
"H H C V V A H F H H V V C A V V H V V S H H H V   o   3 3 = 3 G 3 = 3 o q 3 G o q = o   o =   H H V V V H F V V H H V V V V V H ",
"V V V V V V V B B V H H V V H H H V V H H H Z N o * q = 3 * = 3 q 3 o = q o 3 = X 3 =   H H H H V V B V V B N M V V V V C V V H ",
"V B V V F Z V B N V H H V V V H H V V H H H B M * q 3 o = o 3   3 q   = 3 = o 3   o =   H I H H V V V H H H V V C H H H H V H H ",
"V H H H H H V V V I U H V B H P P H V V H H B M = 3 o   z.z.=   = 3 3   3 =   = =   o o   H H H H V H L H I H H H I I H H H H H ",
"V H H H H H V V H I U H V V H H H H V V H H B N   o   o z.z.  z.  = q   =   o o =     *   C H H V V H H H H D D H U P F H H V V ",
"H H H H H Z V H H I H H V V V F H V B V Z Z Z V H = o z.z.z.z.z.z.  G     o =   o     o   S V V B B H H H H V V L I C N N B V V ",
"H H H V V V B V V V V V V B V H H V B V B V Z H F   * z.z.z.z.v.b.  3   z.  = =     o     V H H V B S C H H V V H H B N N V V V ",
"V H V V V V B B B B B Z H V H I H H H F V V H H B   * z.z.z.) ! ! ( =   ) ) z.=   o   1   H H H V V H V V H V V H H F V H P H H ",
"H H A V H V V V H A H H H V H H H V H H V Z H I V V o z.z.z.1 - < - o z.) z.z.z.o o   H H F H H - - - C V V V H A H V V H L H F ",
"H H H H H H F H I P H H Z V V B Z N B B N B I P V V   z.z.z.p - c.h.  < - ) z.(   o   L H H - - h.x.- V H H V H H V B M B V V H ",
"H H Z V H H V H H H H H H H C V V N M M e M H H B V 1 z.z.z., - n.W W W W - - - -   - < - - h.h.W J - H H H Z H H H B N V V C H ",
"H H B V H V V V F H V V H H H H S V S V V H H I V N ; ) z.z.z.- n.W W W W W W W W W h.h.h.x.W W W Y - C H H H F H H H V H U I H ",
"U H N V H H H V H H V V H H H V V H H U U U I L B V H 1 ( z.z.- c.W [ | } W W W W W W W W W c k W J - C H H A B V H V B B H H V ",
"I H Z H H H H D D H V V F Z V B B V H H L H H D B F I D ; ! ) - n.W ] | } } { { ` X.*.&.v c z k W J - H H H H V V V V V V F H H ",
"C V V V V V B V D H V V H H V V V V C H D H H S C H - - t t ! - n.W [ { | | } {  .d.r.r.y.u.z x W J - H H H Z V V H H V V H H H ",
"H V B H H S B N B V V B V V B B N B H H S V B B H - r - g s + - h.W ] | } | | } ..r.r.r.w.r.z k W J < H H V D H H H H F H H H H ",
"V V S F H V B M H H H H H H H S V H H H H V V V B - r - g g s - h.W ' { { | } } O.w.r.3.c z z x W J - V V B V V Z V B V H H H H ",
"0 e a M e 0 0 e M N a e M M e e a M M M e e a a e - - y - g g - h.W d.d.%.O.} } } 4.r.b c c @.=.W J - e 0 e e e e e e e i e e e ",
"6 4 8 0 0 0 8 8 0 0 8 4 4 8 8 0 8 0 0 0 0 0 0 8 8 - - - y - g - h.W n ` e.s.i.} } 6.r.v #.7.e.4.W J - 8 8 8 8 8 0 8 4 8 8 8 8 8 ",
"B B V V N e M V S V V V V V V V B V V V V V V B N V O s - y - - h.W n ` ] 5.r.p.4.4.e.v d.r.z k W J - N S V S H H V V V F V B V ",
"U T E R L H U Q Q E E E E R R R T R T T T R T U T R + s ~ - y - h.W a._ ' { { q.6.4.r.v z z z k W J - T R R E Q E R R E E R T R ",
"U T T T I U R E T U U U T U T U U T T U U T U U U T + t ~ ~ - - h.W v a.s.=.{ { 6.4.r.v c X.o.a.W J - H U T T R T U T T T T U T ",
"F V B S H P U H B V S H H F V V V V H V V H H V H V + t s g ~ - h.W :.n n r.i.i.6.4.r.v :.e.e.x W J - V H H D V S V B V B B V H ",
"V B V H V N B V B V H L F V B M A H H V N V V w w w w g.G s d - W W q.p.*.m w.r.,.,.r.z r.c z p.W J < H H H V V V B V B B B V F ",
"N M V H V N B F V S S V B M N B H H V w w w w h.h.g.W 4 q G j.- W W v 8.t.p.n n 1.,.r.z z p.a.9.W J - Z A H Z V V N V Z V V B V ",
"B B F H H Z H I H H V B B B H w w w w h.h.g./ w w w w O O q k.- W W c v n n d.d.5.2.r.X.a.>.+.k W J < V V V H H V B Z H H H V V ",
"H H U U H S H H H H H w w w w l.l.h.g.w w w w A V : X O O O W - W W W c c n b b r.r.r.e.z x x l W J - H H H H H H F H H P H H F ",
"H I I H H V V w w w w l.l.h.h.w w w w V A H H V A : o + t s > O ; W W W c c c c z r.r.w.c k j W J < H A V H H V V V H H H V V V ",
"N V V w w w w l.l.h.h.w w w w I P H V V V H H H Z : - + + O d O ; - - W W z z z z >.r.z x l W J - P H V V V H V V Z V H H V B V ",
"B V w l.l.h.h.w w w w L I H H U U H H Z V H H H H : - ^ f y O O O 1 ; - W W z z x c r.x j W Y - A V B N V F H V A A H V V V Z V ",
"H I I w w w w H H V S H H V B H P H A H H I H u 9 : - h y y t - = O O O - W W c z <.r.j W J - A V B M V A H H H V H H H H H H V ",
"P I I H V A D V B M M V V N B H H V B V V H 9 9 : . < h y y t - @ : & 1 h & W W W W W W J - I H H V D H I P H V H H H F V F V N ",
"H H H V M V V H V B V H H Z V H H V V V V 9 9 9 2 - r y y y - & : @ & . < h - W W W J J < 9 9 F F H P I U H A V H H H V B B N N ",
"H H V B V H H H H H H I U H A H P H H C V 9 - - < r y y y t - & @ : @ . . 1 r < < - - - - 9 9 V B V H H H F V V V H V V V B B B ",
"C H V V H I H V V V H H H H V V H Z H H 9 - t ^ ^ h y y y t - : # : # . . & < r t y y t r - 9 7 N B V V B V V V V B V V V H H H ",
"V H H B H H B M 0 e N V V V V V S F H C 9 - f f h y y y t - @ : & & : . . ; - t y y y y r - 7 9 V I I S Z H H H V F H V V V H H ",
"N S F B V H V a e M H H H S H H I H V N 6 7 - t t y y y t - : : : : : : : - y y y y y y r - 9 9 I H H V H H V A H H A V B V V H ",
"V H H N V P V 0 M D U T P H H L Z V B N M 7 u - t t t t t - 9 6 7 a i 9 - ^ f h y y y t - 9 9 P H H V V H H V V C H V V V H H I ",
"H H A B H H V e V I R T H H H H V V S H H U u u - - - < < u 6 6 u i i 7 - ^ h h h t t - u 9 A Z V V C H H H V V V V H H H P H H ",
"H V B B H H V N H U T I V V V V A V B Z H I P u 9 9 9 9 9 9 6 5 7 a i u u - - - - - - u 9 H A V V H H H H D V B H A A F H V V V ",
"H H V B H I H F H I I H B V H Z H B V V H H A V V 9 9 9 9 9 6 5 7 i u u 9 u 9 9 9 9 9 H H A Z V V H V V H H H V H Z V B B V V B ",
"H H H H H H H H H H H V B H H H A V H H H H H A V V V D 9 u 7 5 u a u u 9 9 9 9 H H H A C V V V H V M N H H C V D V B V V H F A ",
"H H I V H H H H D H Z V B H H H H V H H V V V F D V V H H I i 8 B E Y V V V V V V V H V V V V V H F V V H V V V H V V Z H P H H ",
"V H C V B H H V V B B B V H P H Z V V V B M N V V B H H I H e 8 C R T F V V V V H H H V V V V C H V V H U P H V H H Z H H H H H ",
"H H H V A H H C V V H H F H H V V B B V B B V V M N D P P H e 0 C R T F H H H H H H B V V V F H H V H H I H H H H Z V H H H H H ",
"U P H H F C H H H H H H H H H V B N B B N V H V M B H H H V e 8 N T Y Z V H C H H V N B Z H H H H H H V C Z V V H H H H H C H H ",
"I H H V V V F H I H H H Z H V N N V H H F F H V S H I H V V e 8 V T T V B V V A I V B A H H H H H H H V V V V V H H V C V V V V ",
"H V V V V B V H H H H A V V V B V H H H C H I H H U U I H V M 8 V R T V Z V Z H H V V H H H C F V H H V A H H Z V V Z V V B V B ",
"A V V Z V V H H H C H F H H H V V H H H V H I H H H U H H H e 8 S R T V V H H H H V V H P A V H A S Z B C H H V V V A H V V V F ",
"H S V H H A H H H H H H A H H V H H H Z B H H H V V I H S V e 8 V T T V V H V H H V V H H V V H A C V B V V V B H H H H H H A H ",
"H H A V V H H H H H D A V C F V V H H H H H L H B V H V V B 0 8 V R U V V V V H F B B V V V A H V V V F C F H H V H H H H V H H "
};
