/* XPM */
static char *pl21680100646[] = {
/* columns rows colors chars-per-pixel */
"64 64 141 2 ",
"   c #000000",
".  c #080A07",
"X  c #060A0A",
"o  c #080A09",
"O  c #1D0F0E",
"+  c #1B100E",
"@  c #170616",
"#  c #180717",
"$  c #160817",
"%  c #180815",
"&  c #0F1414",
"*  c #101415",
"=  c #1D131E",
"-  c #2B1D1D",
";  c #311210",
":  c #232017",
">  c #1D1220",
",  c #261920",
"<  c #281920",
"1  c #1C2222",
"2  c #22272A",
"3  c #2F2F2F",
"4  c #332D2B",
"5  c #38302E",
"6  c #302F3D",
"7  c #2B3034",
"8  c #2F313D",
"9  c #333333",
"0  c #3D3533",
"q  c #31313D",
"w  c #3B313A",
"e  c #3C3C3C",
"r  c #421E05",
"t  c #4B2B14",
"y  c #63351D",
"u  c #403836",
"i  c #413738",
"p  c #443B3A",
"a  c #534C2F",
"s  c #704324",
"d  c #7F4F21",
"f  c #744B2F",
"g  c #74502C",
"h  c #744A31",
"j  c #091957",
"k  c #06145F",
"l  c #08175A",
"z  c #091859",
"x  c #281E41",
"c  c #040F69",
"v  c #051262",
"b  c #03106E",
"n  c #061274",
"m  c #07127A",
"M  c #09147D",
"N  c #454545",
"B  c #464847",
"V  c #494947",
"C  c #474749",
"Z  c #474948",
"A  c #4D4D4D",
"S  c #504E4F",
"D  c #4E504F",
"F  c #50504E",
"G  c #4C4F53",
"H  c #514F50",
"J  c #4F5150",
"K  c #495058",
"L  c #525252",
"P  c #5E5252",
"I  c #565857",
"U  c #5A5957",
"Y  c #565658",
"T  c #5A5A5A",
"R  c #605252",
"E  c #5F5D60",
"W  c #636363",
"Q  c #6A6A6A",
"!  c #726B7D",
"~  c gray44",
"^  c #99423B",
"/  c #996E37",
"(  c #9A6B4A",
")  c #CC8565",
"_  c #E4A57C",
"`  c #0C1781",
"'  c #0E1982",
"]  c #15218B",
"[  c #1B2690",
"{  c #1D2892",
"}  c #222D97",
"|  c #1C47A3",
" . c #1851A8",
".. c #2249AC",
"X. c #2C4DAA",
"o. c #2958A6",
"O. c #285FAF",
"+. c #2257A3",
"@. c #264CB7",
"#. c #314EB2",
"$. c #2D4EC2",
"%. c #2D50C4",
"&. c #3154CF",
"*. c #385CCC",
"=. c #3959D5",
"-. c #2561C7",
";. c #2664CC",
":. c #2D64C8",
">. c #2968D2",
",. c #2D69DA",
"<. c #316DD5",
"1. c #316ED9",
"2. c #3170D9",
"3. c #3E59E6",
"4. c #3273E3",
"5. c #3176EB",
"6. c #3B69F3",
"7. c #3A70F4",
"8. c #3578F3",
"9. c #3878F6",
"0. c #3E76FF",
"q. c #3778F8",
"w. c #3A7CFF",
"e. c #466ACB",
"r. c #445EF2",
"t. c #4162EB",
"y. c #4964FE",
"u. c #466BFF",
"i. c #436AF6",
"p. c #4271FF",
"a. c #B19997",
"s. c #C4B59E",
"d. c #A8C3B0",
"f. c #CFC587",
"g. c #CFC588",
"h. c #D1C686",
"j. c #D0C688",
"k. c #F9D6BA",
"l. c #E5E6C7",
"z. c #FBEDE7",
"x. c #FFFFFF",
/* pixels */
"A L L L I I L L L A H L A A G V L L L G Y L C C V A A C L L e 9 L W E A A L L L L L L A H L S V A V V H L L C C L T I L F S V V ",
"L I I L L L L L A A Y I L V A S L L A V L S N N V L F A L L N e L Q T S S L L L A A A A A L L L G A V V F A V V Y I Y S L L A L ",
"F Y L H L J A A A V L T L H L L L L A V L A N N A A A V J D e e L W I A L L L A V V V V A L U L L S A A L L A S I T L L L L H L ",
"A L G V V A L L H C H L L L I L A H A V F L V A L L L A A A N 9 A W Y A H L L V A G H A G L L L L L G L L L A L L L L L G A A L ",
"A L A C V L L L H V A L F G L L V A A A H A A L I L L L L L C w A W     X o     F L F L L L L V L F A A L L A G V A L L A V A A ",
"S L L A A H L L A V L Y A V A V V A G H A A L L L V L L L L N     1 * & * * * * * o   L L L L A A V C V H A A V V A Y I S A L L ",
"A L L A A A L L H A L I A V A V L L L L L A L L A V L U L     * o q 1 q 1 & 1 1 o   o   A L L A A V N V L L V A H L I I L L L L ",
"A S F F L L L L L G L L L H L L L L L L D L I L L L I T   * 1 q 1 q K K 1 K q 1 1 o   o o   A G L A C A Y Y L L H H L L V A H V ",
"L L L L L L L L L A L L L L L L L L L A L L L L H A H L   1 q K q G 1 1 q 1 G 8 1 * X     o   A L A L L I L H A L L L H L A A A ",
"L L L L A A A L S S A J A A A H L L L A L L L L G A A   o q K 1 q * 1 K q q 1 q q 1 1 * o   V A L L L L L L A A G L H L L J A S ",
"Y L L F A V A A A V A A G A L L L A A A A A L L A A G   * K 1 * K 1 q 1 K 8 * K q 1 * 1 & &   A T L A A A A V A L L F A L A A L ",
"U Y L G A A A L A A A A S L L L L A A A A L L A A V H * o 1 * 1 1 K q * K 1 o K q q 1 o   o *   I L A V A H L L Y L L F L L A A ",
"U L L S S F L L L L A A F L L A A A A A L L L L L V   o   1 1 * 1 K 1 * 1 X q 1 K o q & X   o *   H A S L L L I I L L J L L A A ",
"L L A A S G F L A L A A A F A A L A A S L L L A L A o * q * 1 * * 1 q 1 o * q o 1 * o 1 *   F L L G A S L L A A L L A A A D A L ",
"G A A A A A V V V A L L A A L L L A A L L L A C A A * q 1 o * o 1   1 q   & 1 * o 1   o *   L L A A V A A V C N V G A A A A A L ",
"V V V L L L A C C J L L A A A L L A A L L L V N C V * 1 o   k.k.&   & 1 1   1 *   * *   o o   L A V A L L F S A S L L L L H L L ",
"A L L L L L V A A I R L Z A L L I L V A L L V N V L   o   o k.k.  k.  & q   *   o o *     *   L L A L L L I L L L I I L L L L L ",
"S L L L Y L A G L I E I A A L I I L A G Y L V N A L I * o k.k.k.k.k.k.  K     o *   o     o   L A A L L L L F L L T U L H L A A ",
"L L L L L D A S L Y L L A A A A L S V A G H A A L L I   * k.k.k.k.z.z.  1   k.  * *     o     A V V L L L L S A Y U A C C V A A ",
"L L L S A A V A H V A G A Z A G L A V V V A H L G L L   * k.k.k._ ^ ^ ) &   _ _ k.*   o   ,   L A V G F L F A S L L V C C A A A ",
"L A A A A A Z V V V A A F D L L Y L S G V A L L A A A V X k.k.k.< , d d X k._ k.k.k.X o   L L L A A L A A L V G A L L A L I L L ",
"D L L A L A A A F A L L L A L L L A L L S L I L A A A V   k.k.k.a = = =   k._ _ k.)   o   L L L A A = > = D A L L L A A L L L L ",
"L L L L L w w w w L L L L A A A S C V V V V Y Y A A L L , k.k.k.: = l.s.= = = _ ^ ^ <   L L L L > = s.l.= H G L L A C N V A F L ",
"L L D A L w h.g.s.w w L L L A A S N N N e C L L C V A G , _ k.k.k.= x.! ! ! ! = = = = = = = > > s.s.! R = L F L L L V C A A H L ",
"L A A A L A w w w g.s.w w L L L F F A A A L L I A C A H L , ) k.k.= x.! ! ! ! ! ! ! ! ! s.s.s.l.! ! ! R = L L J L L A A L I I L ",
"T L B A L L L A L w w g.s.w w L A F U I T T I Y V A L A V A , ^ _ = l.! [ } } ! ! ! ! ! ! ! ! ! b v ! P = L J V A L A V A L L S ",
"T L A L L L L F J L A w w f.s.w w V A L L I L L V L I L = = t t ^ = x.! [ } } } } { ' | &.%.n c b k ! P = L L A A A G A V L L L ",
"S A A A G V V A J L A A L w w s.s.w w L H L L J A L L = r = g s + = x.! [ } } } } { | u.w.0.r.r.b k ! R = L D A A L F S A L L L ",
"L V V L L H V C V A A V A A V w w s.s.w w A V Z L H L = r > g g s = s.! [ } } } } }  .w.w.w.q.w.c k ! R = A D L L L H L L L L Y ",
"A A A L L A B B L L L L L L H L A w w s.a.w w A V J J = = y = g g = s.! ] { } } } } O.q.w.,.b c b l ! P = A A D G A V V L L L L ",
"e e N C e e 9 e C N e e N N e e N C N w w a.a.w w C C > = = y , g = s.! p.u.$.o.} } } 2.w.n n c #.*.! P > e e e p e e e e e e e ",
"3 3 3 9 w 9 9 9 9 e 9 3 9 9 9 9 9 9 0 9 9 w w a.a.w w 4 + s = y = = s.! m ' w.i.i.} } 2.w.n @.3.0.<.! P > 9 9 9 9 9 9 9 9 9 9 9 ",
"V Z A A N e N A A A A A A A A A Z D A A Z A A w w a.a.w 6 s / - y = s.! n ' [ 2.q.y.=.2.w.n 0.w.c k ! P = A S L L A V A D V V A ",
"E W Q Q I Y R ~ ~ Q Q Q Q Q Q Q W W Q W W Q W E W w w s.s.t / / = = s.! u.` ] [ } 8.2.2.w.n c c c v ! P = Q Q ~ Q Q Q Q Q Q W Q ",
"T T W E T T Q Q E E T E E W R W T E E E E W R E E W R w w t s g / = s.! n p.6.*.} { 2.<.w.n b ..X.p.! P = W W W W E W W W T E W ",
"L A A J L I I L Z A A J L J G V D L L D A D S A L D S S - w K s s = s.! =.m m w.t.t.2.2.w.n =.0.0.k ! P = L F A A A V A V Z A L ",
"A Z A L A V V A Z A L I L V V N D L L A C V A A J A L L - % q K d.= ! ! 8.y.&.M 9.w.;.;.w.c w.c c y.! P = L S A A V A V A Z A G ",
"N N G L A C V S D L D A C C C V L L D B C V H L D G L F - O + q d.= ! ! n 5.7.y.m m >.;.w.c c u.u.4.! P = L A S V V A S A A V A ",
"C V L L L L L I L L A V V V L I L F A C V L L L L L A % o O O O ! = ! ! c n m m p.p.,.1.w.| u.-.+.v ! P = A L L A A S L L L A A ",
"L U T I F G L L L J L L S L L L T L A V L Y I L A L L % o + t ; ; = ! ! ! n n n m n w.p.w.w.c c v l ! P = L L L L J L L Y L L L ",
"L L I Y H G A S V A A S S A V L L F V S L L L F S A A # o O t s s + = ! ! ! b b b b c w.w.q.c v j ! P = A L L A A A L L L A A A ",
"V A A V V V V A A V A G L A S Y I L S A A S L L L L V @ - O O O O O O = = ! ! b v c c -.w.c v l ! P = S A L F A G A S L L A V A ",
"A A A A V A S A L L L I I L L I T Y L S D L L L A F S @ = = = 7 7 1 = O + = ! ! c c c c w.v j ! P = V C A S L G S L A A A A G A ",
"L Y I L L L L L L A A L L A V Y I L F L L L L L S S @ x $ t = 7 7 = ( h r r = ! ! c c :.w.j ! P = C C V L L L L A L L L F L L A ",
"Y T I L G S S A C C N A S C V F L A A A A L L V A 0 @ e.@ t t = 2 > h h y t t = ! ! ! ! ! ! P = H A S L Y Y L A L L L H S L A C ",
"L Y L V V A L L A V V L L H V Y I A A V A L H A 0 0 @ e.@ t t t > 1 = y y y y y = ! ! ! P P = u H L Y I I Y S A L L L A V V C N ",
"F L S V A L L D L L L T I L G L L L F H V S L 0 9 i @ x @ y t t r = = = r r t t y = = = > = 0 0 9 A L L L H A A A L A A V V V V ",
"S L G V L I L A V S L L L L A A L L L L S S u 9 5 0 0 @ - y y t t = $ % = = r t y y y t = 0 9 5 5 0 S S V A A A A V A A G L L L ",
"A L L V S L V N e 9 C A A V A L S A L L A A 0 0 0 0 = = y y y y t = - - - = ( ( h h y = u 5 0 9 u u Y S L L L L A J L A A A L L ",
"V S G V L L A N e N L I L S L L I L A V e C 0 0 0 = ( ( f y y y t = p 0 = t h f y y t - 5 u u i u i F A L L A H L L L A V A G L ",
"A Y L V A L A e N L T T U L L Y L A V V C V F 0 0 = h h y y y y r > p 0 = t t t t t = 5 u u 0 u u F A A L L A A A A L A F F L Y ",
"L L S C G Y V e A I Q W L L L L S V G L L I T U i = = > = = = = = = p 0 = = = = = $ u 5 u u 0 0 V S S F L J A A A L A L L L Y L ",
"S A V V L L A V L T W Y A A A A H V A S L I T L D 0 0 0 0 0 4 4 0 p p 0 0 u 0 0 0 0 0 0 u 0 0 S A L L L L L A A L F S G F A A A ",
"L F A V L Y H L L I U L C A L A L V V G L L L V A V V 0 0 0 4 4 0 p u 0 0 u 0 5 0 0 0 0 0 L A A A L A V L L A A L S A A V A A V ",
"L L L F L L L L L Y L A V F L L L S L L L L L L H A A G L I 9 4 0 p p 0 0 u u 5 u 0 L L A A A A L A C V L L S A F A V A A L L H ",
"L Y L L L L L L S F G A V L Y L F G L L A A A L L A A L L I p 9 V W W A A A A A G A F G A A A A L L V A L G V L L A A A L Y L L ",
"A L H V V F L A A V A V V L I L S V A S V C V A V V L L I L e 9 H Q W S A A A A L L L A A A S A L A A Y T I A A L L A L L L L L ",
"L L L G L L L G A S L L L L L H A C V A V C A G C C L Y I L e 9 A Q W L L L L L L L V A A A G L L A A L I L L L L G A L L L L L ",
"T I L L A L L L L L L L L L L A C C V V V A H V N V L L L H e 9 V Q T G A L S L I A C V H L L L L L L A L H L A L L F L L L L L ",
"I L L H A V H L L L L L G L A C V A L G A L L A A L T L A A e 9 V W T A A A A F L A Z H L L L L L L L A A A A A L L S F A A A A ",
"L A A A A V A L L L L L A S A V V L L L J L Y L L I R T L A e 9 A Q W J A A A L L H A L L L A L F L S A F L L A A A A S A V V A ",
"L S A S A A L L L L A L L L L V A L I L A L I L L Y T I L L N 9 A W W A A L L L L A A L L L A L A L A A S L L A A A L L A A A G ",
"L L A L J L L L L L H L L L L A L L L G V L L L A J Y J L A e 9 A Q W A A L J L L V V L L L A L F S A V A A A V L L L L L H F L ",
"L L A A A L L L L L L A A A L A H F L L L L Y L V A L A V C e 9 A W T A A A H A G A V A A A A L F A A G F G L L A L L L L A L L "
};
