/* XPM */
static char *pl31680100646[] = {
/* columns rows colors chars-per-pixel */
"64 64 147 2 ",
"   c #000000",
".  c #090B07",
"X  c #070A09",
"o  c #080A09",
"O  c #1D0F0E",
"+  c #180717",
"@  c #160817",
"#  c #190816",
"$  c #180719",
"%  c #0F1414",
"&  c #101415",
"*  c #1D131E",
"=  c #2B1C1E",
"-  c #261A1E",
";  c #232017",
":  c #1D1220",
">  c #261920",
",  c #281920",
"<  c #1C2222",
"1  c #22272A",
"2  c #2F2F2F",
"3  c #302728",
"4  c #352D2B",
"5  c #2F2432",
"6  c #2F313D",
"7  c #343434",
"8  c #3D3533",
"9  c #3F3A37",
"0  c #31313D",
"q  c #3B313A",
"w  c #3C3C3C",
"e  c #421E06",
"r  c #4B2B14",
"t  c #63351D",
"y  c #413736",
"u  c #403836",
"i  c #443D3C",
"p  c #534C2F",
"a  c #48403E",
"s  c #704324",
"d  c #7E4E20",
"f  c #744D2D",
"g  c #74502C",
"h  c #744A31",
"j  c #071957",
"k  c #081856",
"l  c #06145E",
"z  c #08175A",
"x  c #261F41",
"c  c #281E41",
"v  c #040F69",
"b  c #051262",
"n  c #03106D",
"m  c #061174",
"M  c #081176",
"N  c #07127A",
"B  c #09147D",
"V  c #454545",
"C  c #484647",
"Z  c #464847",
"A  c #464648",
"S  c #4D4D4D",
"D  c #504E4F",
"F  c #4E504F",
"G  c #50514E",
"H  c #4C4E52",
"J  c #514F50",
"K  c #495056",
"L  c #495058",
"P  c #525252",
"I  c #5E5252",
"U  c #595957",
"Y  c #565658",
"T  c #59575A",
"R  c #5B5A5A",
"E  c #636363",
"W  c #6A6A6A",
"Q  c #726B7D",
"!  c gray44",
"~  c #99423B",
"^  c #996E37",
"/  c #996B4A",
"(  c #867F7F",
")  c #CD8565",
"_  c #E4A57B",
"`  c #0C1780",
"'  c #0E1982",
"]  c #16218B",
"[  c #1B2690",
"{  c #1D2892",
"}  c #222D97",
"|  c #222D99",
" . c #1C47A3",
".. c #1851A8",
"X. c #224AAC",
"o. c #2D4EAB",
"O. c #2958A6",
"+. c #285FAF",
"@. c #2257A3",
"#. c #284DB8",
"$. c #314EB2",
"%. c #2E4DC2",
"&. c #2D50C4",
"*. c #3153CE",
"=. c #375BCB",
"-. c #3555D2",
";. c #3A59D5",
":. c #2461C5",
">. c #2664CA",
",. c #2D65C6",
"<. c #2968D2",
"1. c #2D69DA",
"2. c #316CD5",
"3. c #316ED9",
"4. c #3270D7",
"5. c #3270DC",
"6. c #3E59E4",
"7. c #2F75E5",
"8. c #3376EB",
"9. c #3D68F3",
"0. c #3974F5",
"q. c #3578F2",
"w. c #3C76FD",
"e. c #3A7BFF",
"r. c #466ACA",
"t. c #435BEF",
"y. c #455FF2",
"u. c #4162EB",
"i. c #4964FE",
"p. c #466AFF",
"a. c #436AF6",
"s. c #4172FF",
"d. c #877E81",
"f. c #B19997",
"g. c #B29A98",
"h. c #C4B59E",
"j. c #A8C3B0",
"k. c #CFC587",
"l. c #D0C786",
"z. c #D0C688",
"x. c #F9D6BA",
"c. c #E5E6C7",
"v. c #E5E5C9",
"b. c #FAEDE7",
"n. c #F2F8F6",
"m. c #F2F7FA",
"M. c #FFFFFF",
/* pixels */
"S P P P U Y P P P C P P D S S C P P P F U P Z Z S S S Z D G w 7 P E E C S G P P P U G F G P P C S C S K P P V Z P R U P P S C S ",
"P U U P P P P P F S P U D S S S P P S C P S V a S F P S P U V 9 P W R S K P P P S S S C C P P P S S C S P S C S P R P P P P S H ",
"P P P H F P P S S S P U P P P P P P F C P D V V S S S C K D V 7 P E U S P P P S C C S C F P U P P G S S P S S S U U Y P P P P P ",
"S P D C C P S P S C K U P P U P S F S C P K S C P P P S S S V 7 S E T S G P G S D G K S P P P P P P S G P P P P P P P P S S S P ",
"S P K C S G P P F C S P F K P G C S C S G F S P R P P P P P V 7 S E U S G P J S P P P P P U K S P G S F P P S P S S D P S C S S ",
"P P P C S G P P S S P P S C S S S S P P H S F P P C S P P P V 7 A E U S D P P S S P S P G P G S S C Z C K S C S C S P U S G P P ",
"S P P S D D G P G S P U D C S S P P P P D G P P F C P U U P V 7 V     X o     S C S P G D P F S G S V C G D S S S P U U K P P P ",
"S F D P P G P P P S P P P D P D P P P P S P T P P P R R P S     < % & & % & & % o   P G C C S S P C C F U U P D P P U G S S P C ",
"G P P P P G P P P G P P P G P P P P P H P P P P K S D P     % o 0 < 0 < & < < .   .   C S C S S P S P P U P D S P P P J P S S S ",
"P P P P S S D G G S S F D S S P P P G S G P P P D S S   & < 0 < 0 L L < L 0 < < o   X o   S S S P P P P P G S S S P G P P P S S ",
"U P P K S C S S S C S S S S J P P S S S S D P J S S S   < 0 L 0 K < < 0 < L 0 < & o     o   S H R P S C S S S S P P H S P S S P ",
"U U P P q q q P S S S S D P P P P F S S S P G J S S   X 0 L < 6 & < K 0 0 < 0 0 < < & o   S S P U P S S S D H P P U P D P P S S ",
"T P P P q z.k.q P P S S G P S S F S S S P P P P G S   & L < & L < 0 < L 0 % L 0 < % < & &   P P Y P S S P P U Y P U P S P P S S ",
"P P S S S q f.l.q P S S S P S S P S S S P P P D P S & o < & < < L 0 * L < X L 0 0 < X   o &   P P S S S P S S S P P S S S G S P ",
"S S S S S F q f.k.q P S S G G P P S S S P T F V S   o   < < % < L < & < . 0 < L o 0 % X   X %   K S S S S S V V S S S S D S S P ",
"C C S D P P C q f.k.q P S S S P P S S P P P C V V o & 0 & < & & < 0 < o % 0 o < & o < &   U P Y D C S P P P S S G P P P P H P P ",
"S P P P P P S S q g.z.q C C P U U P S S P P C V V & 0 < o & o <   < 0   & < & o <   o &   P P P G S P P P U P P P U U P P P P P ",
"P P P P P P S S P q f.z.q F P P Y P S K P P C V S & < o   x.x.&   & < <   < %   & &   o o   P P S S P P P U S P P R U P P P K S ",
"P P P P P F S P P P q f.k.q S P P S C S S F G S P   o   o x.x.  x.  & 0   &   o o %     &   S S S C P P P P S S Y T S C C C S S ",
"P P P S S S C S S S S q f.k.q G P S C Z C S P P S P & o x.x.x.x.x.x.  L     o &   o     o   P P S C G G G G S D P P C V Z S D S ",
"S G S S S C C S C C S G q f.k.q U G P H S S P P S S   & x.x.x.x.b.b.  <   x.  & &     o     P P S S P S S P S S K P P S P U P P ",
"P P P S P F S S P J K P P q f.h.q S K P S P U P S S   & x.x.x._ ~ ~ ) &   _ _ x.&   o   ,   P U S S P G S S D K G P S S P U P G ",
"P P P P P P K G U Y P P P S q f.h.q C S Z S T P S S P o x.x.x.> > d d o x._ x.x.x.o o   P P P P S S F S P P S P G G Z V C S S P ",
"P P D D P G G P P P P P P P P q f.h.q V w V P P V S K   x.x.x.p , m.m.  x._ _ x.)   o   P P P P C S P F J P P P P P S C C P S P ",
"P P C S P F S D G P S D P U P P q f.h.q F K P U S V S - x.x.x.; ; : * * _ _ _ ~ ~ ,   D S P P P S S * * > P P S P U G S P R U P ",
"R P C S P P K S G P S S P P G S G q f.h.q R U U C S P > _ x.x.x.x.* c.h.* * * ) , , H S S P P P * * h.v.* G G S S S S C C P P H ",
"U P P P P P P P P G S S G G S S S Z q f.h.q K F C K U P > ) x.x.x.* M.Q Q Q Q * * * * * * * * * h.h.Q I : P P S S D S S S P P P ",
"K S S S F C S S G P S S G K S S Z S F q g.h.8 F D P U P P - ~ _ x.* M.Q Q Q Q Q Q Q Q Q h.h.h.v.Q Q Q I * P G S S P P S S P P P ",
"G S S F P P C C C S C C K G C C C S K G q g.g.7 G G J : * r r ~ ~ * c.Q [ } } Q Q Q Q Q Q Q Q Q m b Q I * S F K P P F H P P P P ",
"S S S P P C V V P P P P P P P F S G T P G q f.f.q G * e * f s O O * M.Q [ } } } } [ ' X.*.&.m v v l Q I * Z S F K S C S G P P P ",
"9 w V V w w 7 w V V V w a w w w a V V V w w q f.g.q * e * g g s s : M.Q [ } } } } [  .w.e.w.t.y.v l Q I * w w a a w w w w w i w ",
"2 2 2 7 w 7 7 7 w 7 7 2 7 7 7 w 7 w 7 7 7 9 7 q ( f.q - t * g g s * h.Q [ } } } | } ..e.e.e.e.e.v l Q I * 7 7 7 7 2 2 7 w 7 2 7 ",
"Z C S D V w V P S S S S S S F S C S S S C S S C q ( f.1 * t * f f * h.Q ] { } } } } +.0.e.1.n n n b Q I * S S P P S S S F S C S ",
"E E W W U P R W ! W W W W W W E E W E E E W E R E q Q f.q * t * g * h.Q s.w.%.O.| | } 5.e.M n b o.=.Q I * W W ! W W W W W E E W ",
"U R E R U R W W E R R R E E E R E R E R E E R R R E q f.s ^ * t * * h.Q N ' w.a.u.| } 5.e.m #.t.w.2.Q I * E E E E R E E E E E E ",
"P S S K P T R P C S S G P S F S S P P S S S G D P G S q r ^ ^ * / * h.Q N ' [ 3.e.i.;.2.e.m w.e.n b Q I * P P S S S C S Z C C P ",
"S C F P S C C S C S P U P F V V F P P S C S S D G S P O r s f ^ * * h.Q p.' ] { } q.4.2.e.N v v b b Q I - J S S S S S C C Z S G ",
"V V D P S V S G P P S S C Z C C P P S Z A C K G D G F = O L s s s * h.Q m s.9.=.{ { 7.2.e.N v X.o.s.Q I : J G J Z C S F F S C S ",
"C C G P P D P U U P F C C C P U P P S V S P P P P P F = O 6 L j.j.* h.Q -.N N w.u.u.1.4.e.m ;.w.w.b Q I : H G P S S F P P P S S ",
"P U R R P S P P G K P P P G P P R P S C J U U P S P G = O O 6 j.5 * Q Q q.i.-.B q.e.>.>.e.v e.n v i.Q I * P P P P F P P T P P P ",
"P U U P P S S F C S S F P C C K P P S S J P P K H D # . O O O Q O * Q Q m 8.0.i.N N <.>.e.b n p.p.7.Q I * P P S S S P P P S S S ",
"S C S Z Z S C S S C S F P P F T U P S S S J P G P J # . # O O O O * Q Q v m N N w.p.1.1.e.X.p.:.@.b Q I * P F S F S S P P S C S ",
"C F S S S D F F P P P Y U P P R R P P P D P P P P D $ . # . > * 1 * Q Q Q m m N m m w.e.e.s.n n b z Q I * S P S S P P S S S F S ",
"P T T P P P G K P S S P P S C P U P P P G P U P S J @ $ = * h t * * * Q Q Q v v n m n e.e.q.n b k Q I * P P P P S P P P P P P S ",
"P U U P S G D S Z V V S F C C P P D C S D P P S C J @ # > / h t t r * : * Q Q v n v v :.e.v b z Q I : P U T P F G P P G S P S Z ",
"P U P S C S G P S C S P P F S P U K S S S D D S 8 + c $ * / h t t t * r e * Q Q v v v v e.b z Q I : P U R P S S P P P S C C C V ",
"P P K C S P P P P P P R U P D P P P P S S D F 8 8 + r.# * h t t r r r * r : * Q Q b v ,.e.z Q I * G P P P F S S G P S S C C S S ",
"G P S C P U P S S S P P P P S D G G P P S S 8 8 8 # r.@ @ * t t t t r r * e * * Q Q Q Q Q Q I * V C D K C S S S S C S D K F P P ",
"S P G S G P C V w w V S S S S S S P P K S G 8 8 8 # 5 $ # $ : t t t t r * r e # * Q Q Q I I * 8 8 P U G G P P P S P F S S F P P ",
"C P J V H P S V w a F P P G P P U P S V a C 8 8 8 8 $ , = $ * t t t t e * r r # x * * * * * 8 y u U P S P P G S P P P S S C H P ",
"S P P C S U C w w P E E U P P U F S C V V Z 8 8 8 8 8 8 8 * t t t t t e * r r # # 8 8 8 8 8 8 u u P S S P P S S S D S S S P P U ",
"G U K C P P S w K U E E P P P P S S P P P T u 9 y 9 q 9 * / / h t t t * r r e e * 8 8 8 9 8 8 8 8 S P P P S S F S P P P P U P P ",
"G D C C P U S Z P R E U S S K D P C S F P U y y 8 8 8 8 * f h t r r e * r r = e * 8 8 u 9 8 8 8 8 J P P P P S C G P P G J S S S ",
"P D C S P P P F P U U P C S P S P C C P P P G 8 8 8 8 8 * * * * # - * * * * O - 8 8 9 8 8 8 8 8 G S S C P P G S P S S C C S C S ",
"P P P H P P P P P Y P S C G P P P S P P P P P G 8 8 8 8 8 u 4 4 8 i u q 8 8 8 8 8 8 8 8 8 8 8 S P S V C P P G S P S C S S K P P ",
"P U P P P U P P H P F S C D U P P S P P S S K P S S 8 8 8 u 4 3 8 i i 8 8 8 8 8 y 8 8 8 8 S S H P P C P P K S D P S D G P U P P ",
"S P P C S G P S S S C C S P U P S S S S C Z C S S C P U P 8 4 4 8 i i 8 8 y 8 8 y P P S S S S S P S S U R U P S P P S P P P P P ",
"P P P P S P P D S S P P P P P F S S S C S C S F V C K P U P V 7 D W E G G G G G P P C S S S J J P S S P U P P P P S S P P P P P ",
"R U P P J S G P P P P P P P P C C Z S C Z S P C a S P P P S w 7 C E E D S F P P P S V S P P P P P P J S H P S S P P P P P P P P ",
"T P S P S S D P P P P P F P P C Z C P S S P P S S P R P S S w 2 C E R S S S S D U S C D P P P P P P P S S S S S P P F D S S S S ",
"P D S S S C K P P P P P S S S C S P P P P P U P P U R P P F w 7 S E E S S S J P U S S P Y P D P H P G S P P P S S S S S S C S C ",
"K D S S S S G U P S J P P P P S S P U P S P P P P U R T P P V 7 H W E D S P P P G S S P P P S S D D S S S P P S S S D P S S S P ",
"P G S G P P P P P P G P G P P S S P P S S G P P S G U P P S i 2 S W R S S P S P K S S G P P F P P S S S S S S S P P P U P D K G ",
"P P G S S P P P P P G D D G K S P P P P P P U P C S K S C Z w 7 S E E S S S S F P C C S S S S P S S S S P S G P S P P P P S G U "
};
