/* XPM */
static char *pl41680100647[] = {
/* columns rows colors chars-per-pixel */
"64 64 148 2 ",
"   c #000000",
".  c #060A09",
"X  c #080A09",
"o  c #1D0F0E",
"O  c #1D100F",
"+  c #180717",
"@  c #180518",
"#  c #0F1314",
"$  c #101415",
"%  c #1D131E",
"&  c #2B1D1D",
"*  c #311210",
"=  c #1B211F",
"-  c #232017",
";  c #1D1220",
":  c #261920",
">  c #281920",
",  c #1C2222",
"<  c #2F2F2F",
"1  c #342D2B",
"2  c #39312F",
"3  c #2D2532",
"4  c #302F3D",
"5  c #2F313D",
"6  c #333333",
"7  c #3D3533",
"8  c #31313D",
"9  c #3B313A",
"0  c #3C3C3C",
"q  c #421D06",
"w  c #4B2B14",
"e  c #63351D",
"r  c #403637",
"t  c #413937",
"y  c #403738",
"u  c #453D3B",
"i  c #7D4D1F",
"p  c #524D2D",
"a  c #48403E",
"s  c #41413F",
"d  c #6F4324",
"f  c #704324",
"g  c #7E4E20",
"h  c #734F2B",
"j  c #74502C",
"k  c #744A31",
"l  c #0A1957",
"z  c #06145F",
"x  c #08175A",
"c  c #281E41",
"v  c #261F41",
"b  c #040F69",
"n  c #030E67",
"m  c #051262",
"M  c #03106D",
"N  c #061174",
"B  c #081176",
"V  c #071279",
"C  c #09137C",
"Z  c #454545",
"A  c #464847",
"S  c #484846",
"D  c #4D4D4D",
"F  c #504E4F",
"G  c #4E504F",
"H  c #51514F",
"J  c #4D4F52",
"K  c #514F50",
"L  c #495058",
"P  c #525252",
"I  c #5E5252",
"U  c #565759",
"Y  c #5B5B5B",
"T  c #595957",
"R  c #605252",
"E  c #636363",
"W  c #6A6A6A",
"Q  c #70706E",
"!  c #726B7D",
"~  c #99423B",
"^  c #996E37",
"/  c #996E39",
"(  c #996B4B",
")  c #AD774A",
"_  c #877E7F",
"`  c #C39653",
"'  c #C1AD56",
"]  c #DAB85D",
"[  c #CC8564",
"{  c #E4A57B",
"}  c #0E1982",
"|  c #0C1780",
" . c #16218B",
".. c #1B268F",
"X. c #1C2690",
"o. c #1D2893",
"O. c #222D97",
"+. c #1C48A1",
"@. c #1851A8",
"#. c #2249AC",
"$. c #2D4EAB",
"%. c #2958A6",
"&. c #285FAF",
"*. c #2357A3",
"=. c #314EB2",
"-. c #274CB7",
";. c #736B80",
":. c #2D4EC2",
">. c #2D50C6",
",. c #3457CC",
"<. c #3555D2",
"1. c #3A59D5",
"2. c #2461C5",
"3. c #2664CB",
"4. c #2D64C9",
"5. c #2D69DB",
"6. c #2968D2",
"7. c #316DD5",
"8. c #316DDA",
"9. c #3170D9",
"0. c #3E59E4",
"q. c #3273E3",
"w. c #3176EB",
"e. c #3D68F3",
"r. c #3578F2",
"t. c #3879F7",
"y. c #3D76FE",
"u. c #3A7BFF",
"i. c #3977F9",
"p. c #466BCB",
"a. c #425CEF",
"s. c #455FF2",
"d. c #4162EC",
"f. c #4963FE",
"g. c #456AFF",
"h. c #436AF6",
"j. c #4271FF",
"k. c #B19997",
"l. c #B29A99",
"z. c #C4B59E",
"x. c #A8C3B0",
"c. c #F9D6BA",
"v. c #E5E6C7",
"b. c #E5E5C9",
"n. c #FBEEE8",
"m. c #F1F7F7",
"M. c white",
"N. c #F2F8F8",
/* pixels */
"D P P P T U P P P D P P D D J S P P K K U P Z S D D D S P P 0 6 P E Y D D K P P P U P J H P F S D S S P P P S Z P Y T P J D S S ",
"P T T P P P P P D D U T D D D D P P D S P G Z Z D D P J P P Z 0 P W Y J P P P P D D D S S P P P J D A D H D S D P Y U K P P J P ",
"P U P J P K D D D D P Y P J P P P P J S P D Z Z D D D S D P s 6 P E T D P P P D S S D S J P T P P P D D P J D F T Y P P P P P P ",
"D P D S S D P P D S J P P P T U D J D S P F D S P P P D J D Z 0 S E T D P P P S D J K D P P P P P P D K P P H P P P P P D D D P ",
"D P D S D J P P D S D P K J P P S D D D P D D P T P P P P P Z 6 D E Y J D H D D P P F P P P P S P J D K P P D J S D P P D S D D ",
"F P P D D H P P 9 D P P D S D D D D D P D D P P K S G P P P s 6 S Y T D J P P D D P P H P P P D D S Z S K D D S D D P U D F P P ",
"D P P D D F P P 9 9 U T D D S D P P P P P D P P K D P U P P Z 6 Z Y P D P P P K S J P J K P P D D S Z S P P D D J P T T J P P P ",
"D D P D P P P P 9 z.9 P K K P K P P P P D P T P P K U Y P G Z     X X     T P S Z D D D D S D D P D S J U P P P F K U P S D P S ",
"P P P P P H P P 9 z.9 K P J P P P P P H P P P P K D K K     , # $ $ $ $ $ $ X   S J D S D S S D P J P P T P G D P P P D P D D D ",
"P P P P D D D P 9 k.z.9 K D D K P P K D P P P P D D     $ X 8 , 8 , $ , , X   X   P P P F D D D P P P P P P D D D P P P P P J D ",
"P U P F D D D D D 9 z.9 P F P P P D D S D F H P D   $ , 5 , 8 L L , L 8 , , X   X X   P P D D D T P D S D S D D P P P D P F D H ",
"T P P D D D D P D 9 k.z.9 P P P P H J D D J P D K   , 8 L 8 L , , 8 , L 8 , $ X     .   D D D P T P D D D P G H T P P D P P D D ",
"T U P H P P P P P P 9 z.9 P F D D D D D P P P P   X 8 L , 8 # , L 8 8 , 8 8 , , $ .   A S J P U U K D D P P U U T P P P P P D H ",
"P P D D D K J P P D 9 k.z.9 D D P D D P P T P D   $ L , # L , 8 , L 8 $ L 8 , $ , $ $   P F P P P D D J G G D D K K D D D D D P ",
"D D D D D D D S A D H 9 z.9 P P P D D H P P G Z $ X , # , , L 8 $ L , X L 8 8 , X   X $   P K P D D D D D D Z Z D D D D D D D P ",
"D S D J P J D S S D P 9 k.z.9 P P D D J P P D   X   , , $ , L , $ , X 4 , L X 8 $ .   X $   P P D D D H P P K D K P P P P D P P ",
"D P P P P P D D D T Y P 9 z.9 T T P D D P P S X # 8 $ , $ $ , 8 , X $ 8 X , $ X , $   P P P P P H D P P P T P P P T Y P P P P P ",
"D P P P P P D D P Y Y P y l.z.9 P P D K P P D $ 8 , X $ X ,   , 8   $ , $ X ,   X $   P D F P P D D P P P P P K P Y T P P P D D ",
"P P P P P K D P P P P P J 9 z.9 P D S D J P J $ , X   c.c.$   $ , ,   , $   $ $   X X   G D D D S S P P P P P D U U G Z Z D D D ",
"P P P D D D S D D D D D D 9 l.z.9 D D A S S K   X   X c.c.  c.  $ 5   $   X X $     $   P D P P D S J P D P D D P P S Z Z D D D ",
"D H D D D D S S S S D D G D 9 z.9 P H G D D P P $ X c.c.c.c.c.c.  L     X $   X     X   P P P P D D F D G P D D P P K D P T P P ",
"P P P D P D D J H P P P P G 9 k.z.9 H H D D U U   $ c.c.c.c.n.n.  ,   c.  $ $     X     P P P P J D P F D D D K J P D J P U P P ",
"P P P P P P P P U P P P K D D 9 z.9 S D Z D U U   # c.c.c.{ ~ ~ [ $   { { c.$   X   >   P P P P D D P J P P D P P D S Z S D D P ",
"P P F D P P J D U P P P P P G 9 k.z.9 Z 0 Z H P Z X c.c.c.& : g i X c.{ c.c.c.X X   D P P P P P S S P K H P P P P P S S D D J P ",
"P P S D P D D D P P D D P U P P 9 k.9 S D D P U D   c.c.c.p : N.%   % { { c.[   .   D P D P P P D % % % P P P G P P K D P Y T P ",
"Y P S D P P P D K P D D P P G G 9 _ z.9 E Y T U D & c.c.c.- - N.% v.z.% % % ~ >   D J D D P P % % z.b.% P K K D D P D S S P P D ",
"T P J P P P P P P P D D G K D D S 9 l.9 P P P K A & { c.c.c.c.c.% M.! ! ! ! % ; % % % % % % ; z.z.! I % P U K D D D F D D P P P ",
"K D D D J S D D D P D D K K D D D 9 _ z.9 P P J J J : [ c.c.c.c.% M.! ! ;.! ! ! ! ! ! z.z.z.v.! ! ! I % P K G G D P P D D P P P ",
"P D D P P D S S S J D S J D D A Z D 9 k.9 D D A K K P : ~ { c.c.% v.! X.O.O.! ! ! ! ! ! ! ! ! M m ! I % K J D K P P J J P P P P ",
"D D D P P D Z Z P P P D P P K K D P 9 _ z.9 S D S % % w w ~ ~ ~ % M.! X.O.O.O.O.o.} #.,.>.M N b z ! I % D D D K J D S D K P P P ",
"6 0 Z Z 0 0 6 0 Z Z Z 0 Z u 0 s s Z Z 9 k.9 s s % q % j f O O o % M.! X.O.O.O.O.o.+.y.u.y.s.h.n z ! I % 0 6 0 s u 0 0 0 s s s 0 ",
"6 < < 6 0 6 6 6 0 6 6 < 6 6 6 6 6 6 0 9 _ z.9 6 ; q % h j f f f % z.! o.O.O.O.O.o.@.u.u.u.i.u.M m ! I % 6 6 6 6 6 6 < 6 6 6 < 6 ",
"S S D J Z 0 Z K K D D D D D D D S D D D 9 l.9 S ; ; e % j h f d ; z.!  .o.o.O.O.O.&.j.u.8.b b b m ! I % D D D P P D D D K S D D ",
"Y E W W T P Y W Q W W W W W W E E E W E 9 _ z.9 ; + & e % h h j ; z.! j.j.:.%.O.O.O.8.u.N N b =.1.! I % W W W Q W W W W W W E W ",
"Y E E Y T Y W W E Y Y Y E E E Y Y E E Y Y 9 l.9 Y O f % e ; h h % z.! V } u.h.d.O.O.9.u.N -.0.y.7.! I % Y E E W E E Y E E Y Y E ",
"P D D J P T Y P S D D D P K J D D K P J J 9 _ z.9 - f / % e % h % z.! V } o.9.u.s.8.7.u.V y.u.b z ! I % H P D D D D S D D A D P ",
"D S D P D S S D S D P U P D S Z K P P D A A 9 l.` 3 w ^ / % ( % % z.! g.C  .O.O.r.7.7.u.N M M m z ! I % P P D D D D D S S A D K ",
"Z Z J P G Z S P K P K D Z Z S S K P J S Z A 9 ' ] O w i h / % ( % z.! N j.h.,...o.q.7.u.V M #.$.h.! I % P P G F A S D D J D S D ",
"S S K P P G P U U P D A Z D P T P P D Z A & ' ] ) & o L f f f % & z.! <.C C y.d.d.9.7.u.N 1.j.y.m ! I % D J H P D D P P P P D D ",
"P P Y Y G G H U K K P P F J P P Y P D S D & ' ` & ~ o 4 L x.x.x.+ ! ! r.f.,.C t.u.3.3.u.b u.M n f.! I % H P P P K J P P U P P P ",
"P T U P P K J F D D D K P D S P P K D D F & ' ` & ~ o o 5 x.3 x.; ! ! N w.i.f.V V 6.3.u.M n g.g.q.! I % J P P D D D P P P G D D ",
"D D D S S S S D S D S J P D J U T P J D D & ` ) & ~ O o o ;.! ! ; ! ! N M V V g.y.5.5.u.#.g.2.*.z ! I % D D P D P D D P P D S D ",
"S D J D S D K D P P K U T P K T Y P P J J P & & & ~ ~ o d * o * % ! ! ! M N N V B u.u.u.y.b n m x ! I % D D H D D P K D D D D D ",
"P U U P P P P P P D D P P D D P T P P P P P P & ~ ~ ~ o o o f d d % ! ! ! N b M M b u.u.t.b m l ! I % D H P P P D P P P P P P D ",
"P Y U P K K K D S A Z D K S Z P P D S D D P P D & & ; + % o o o O w % % ! ! n m b b 2.u.b m x ! I % D P U U P J P P P F D J D S ",
"P P P D S D K K D S D P P D D U T J D D D K K D 7 7 + + % ( k e o o o o % ! ! n b b b u.m l ! I % P P Y Y P K D P P P D S D S Z ",
"P P G S D P P P P P P Y T P P P P P P D D D 7 7 7 + c + ( k e e e e e % w % ! ! b b 4.u.x ! I % S D P P P K D J D P D D A D D S ",
"P P D D G U P G S J P P P P S D P H P P D 7 7 7 7 + p.+ k e e e e e e % w w % ! ! ! ! ! ! I % Z Z S G G D S D D D S D D J K P P ",
"D P K D P P S Z 0 0 Z G J D D G D K P P 7 7 7 7 7 + p.+ k e e e e e % w w w % % ! ! ;.I I ; S D J U T K P P P P D P P D D D P P ",
"S K G S D P D s 0 Z P Y K K K P T P D Z 1 2 7 7 7 + 3 + e e e e e w % w w w w + % % % ; ; 7 7 T T P P D P P D D P P P D S D J P ",
"G P K A D T D 0 Z J Y R U P U U P D S Z 2 7 7 7 ; ; @ w w e e e w % w w w w e + v + 7 7 7 7 7 P P P D D P P D D D D P D P P P T ",
"P U K S J U S 0 D U W E P P P G D D J P 7 t t r ; e e w w w w e w % w w w e e + + 7 7 7 7 7 7 G D D P P P P D D D P D P P P P P ",
"G D S S P U D S P Y E U D D G D P S D J r t t 7 + ( ( k k e e e ; w w w e e e w % 7 7 t r 7 7 D D P P P P P D S P P K P K D D D ",
"P G D S P P P D P T T K S G P D P S D D 7 7 r 7 ; w w w w k e w % w w w e e w % % 7 7 7 7 7 7 D D J D D K P J D P J D S S D S D ",
"P P P H P U P P P U P D D H P P P D P P P r 7 7 7 % w w w w k % % % % ; % % ; ; 7 7 7 7 7 7 D D P D Z S P P P D D D S D D J P P ",
"P U P P P P P P H G D D S P P P P D P P D D 7 7 0 7 % % % % % : 2 a s 7 7 7 7 7 7 7 7 7 7 D D D P H D D P D S P P D D H P U P P ",
"D P D D D K K D D D S S D P U P F D D D S Z S D 7 7 7 7 t 7 1 1 7 a u 7 7 7 7 2 7 7 7 D S D D D P D D U Y U P D P P P P P P P P ",
"P P P F G P P K D D P P P P P K J S S D D S D J Z A P t t 7 1 1 7 a u 7 7 7 7 P P P D D D H P H P D D P T P P P P P D G P P P P ",
"Y T P P G G P P P P P P P P P S S A D S S D K S s S P P P D 0 6 S E E D D P H P U D Z D P P P P P P P D G F D D P P F P P P P F ",
"U P G G D D G P P P P P K K K S Z D J D J P P D D U T P F D 0 6 D E Y D D D D H U D S K P P P P P P P D D D D D P P D P D D D D ",
"P D D D D S K P U P P P K G G A D P P P K P T P P U Y P P F 0 < D W E D D D F P P D D P T P G P H P D D P P P G D D D D D S S D ",
"P D D G D D P P P G K K P K K D D P T P D K U P P U Y U P P Z 6 D W Y P D P P P P D D P P P D D D P D D D P P D D G G P D D D K ",
"P G F H H P H P P G K P K P P D F P P J S P U P D F T P P J 0 6 D W Y D D H D P P D D P P K F P P D D D D K D S P K P U P K K P ",
"P P K D G H P G U P G G G G K D H P P P P P P P S D P D S Z 0 6 D E E D D D F F D D S D D D D P G D D D D G P P G P P P P D P P "
};
