/* XPM */
static char *pl51680100647[] = {
/* columns rows colors chars-per-pixel */
"64 64 151 2 ",
"   c #000000",
".  c #060A09",
"X  c #080A09",
"o  c #080A07",
"O  c #1D0F0E",
"+  c #1E100F",
"@  c #180717",
"#  c #180719",
"$  c #170616",
"%  c #0F1414",
"&  c #101415",
"*  c #1D131E",
"=  c #2F110F",
"-  c #31120F",
";  c #2B1D1D",
":  c #241C1B",
">  c #311211",
",  c #1B211F",
"<  c #232017",
"1  c #1D1220",
"2  c #261920",
"3  c #281920",
"4  c #1C2222",
"5  c #2F2F2F",
"6  c #322927",
"7  c #352D2B",
"8  c #39312E",
"9  c #2D2532",
"0  c #2F313D",
"q  c #333333",
"w  c #3D3533",
"e  c #31313D",
"r  c #3B313A",
"t  c #3C3C3C",
"y  c #393937",
"u  c #421E06",
"i  c #4B2B14",
"p  c #63351D",
"a  c #403637",
"s  c #403836",
"d  c #443C3B",
"f  c #534C2F",
"g  c #48403E",
"h  c #6F4424",
"j  c #704324",
"k  c #7E4E20",
"l  c #74502C",
"z  c #744A31",
"x  c #06145E",
"c  c #08175A",
"v  c #091859",
"b  c #091957",
"n  c #281E41",
"m  c #040F69",
"M  c #041262",
"N  c #03106D",
"B  c #061274",
"V  c #081275",
"C  c #07127A",
"Z  c #09147D",
"A  c #454545",
"S  c #464847",
"D  c #474749",
"F  c #4D4D4D",
"G  c #504E4E",
"H  c #4E504F",
"J  c #50504E",
"K  c #4D4F52",
"L  c #514F50",
"P  c #4F5150",
"I  c #495058",
"U  c #525252",
"Y  c #5E5252",
"T  c #5A5A5A",
"R  c #605252",
"E  c #636363",
"W  c #6A6A6A",
"Q  c #716F70",
"!  c #726B7D",
"~  c #99423B",
"^  c #9A6E37",
"/  c #996B4A",
"(  c #AE764B",
")  c #877E7F",
"_  c #C39653",
"`  c #C1AD56",
"'  c #DAB75D",
"]  c #DAB85E",
"[  c #CC8565",
"{  c #E4A57B",
"}  c #0E1982",
"|  c #0C1780",
" . c #18208B",
".. c #17228C",
"X. c #1B2690",
"o. c #1D2892",
"O. c #222D97",
"+. c #222D99",
"@. c #1C48A1",
"#. c #1851A8",
"$. c #224AAD",
"%. c #2D4EAB",
"&. c #285FAF",
"*. c #2658A5",
"=. c #314EB2",
"-. c #274CB7",
";. c #746B80",
":. c #2D4EC2",
">. c #2D50C4",
",. c #3457CD",
"<. c #3555D3",
"1. c #3A5AD5",
"2. c #2461C5",
"3. c #2664CB",
"4. c #2D64C8",
"5. c #2A69D4",
"6. c #2F68DC",
"7. c #316DD5",
"8. c #316EDA",
"9. c #3270DC",
"0. c #3E59E8",
"q. c #3F63EB",
"w. c #3176E8",
"e. c #3D68F3",
"r. c #3579F2",
"t. c #3879F7",
"y. c #3D76FE",
"u. c #3A7CFF",
"i. c #3A70F4",
"p. c #466ACB",
"a. c #435BEF",
"s. c #455FF2",
"d. c #4161EA",
"f. c #4964FE",
"g. c #466AFF",
"h. c #436AF6",
"j. c #4171FE",
"k. c #877E81",
"l. c #61A0EF",
"z. c #B19997",
"x. c #B29A98",
"c. c #C4B59E",
"v. c #C4B5A0",
"b. c #A8C3B0",
"n. c #A7C4B0",
"m. c #F9D6BA",
"M. c #E5E6C7",
"N. c #E6E7C8",
"B. c #FBEEE8",
"V. c #F2F8F8",
"C. c white",
/* pixels */
"F U U U T U U U U F U U F F F D G U U J T U A S F G F A U U t q U E T F F J U U T U U F J U U D F D F J U U A A U T T U G F D D ",
"U T U U U U U U F F U T J F F F U U F D U F A A F F U F U U A t U W E F F U U U F F D F F U U F F F S D J F D F U T U U U U F U ",
"J T U U U U F F F F U T U J U U U U F D J G A A F F F F F U t y U E T F U U U F A D F D F U T U U U F F U U F U T T U U U U U U ",
"F U F D D F U U F D J U U U T U H J F D U J D F U U F F K U t y D E T D J U J F F G J F U U U U U U J J U U F U U U U U J F F U ",
"D U G S D U U U G S F U F U U U r D F F F L F U T U U U U U A t F E T F F U K F U U U U U U U D U G F G U U F J D F H U F D F J ",
"U U U D F U U U F F U U F D F D r r F U L F G U U D J U U U t q D T T F F U U F F J U H U U J F F D S D G F D F F F U T F F U U ",
"F U U F F G J U J F U T F D F F r c.r U H G U U G D U U U U A q A T U F J U U F D F U J U U J H F D A S U J F F F U T U J U U J ",
"F J H U U U U U U F U U U J U J r c.r U H U U T U U T T U U A     X X     T U F A F J J D D F F U F S J T U U G J U T U D F U D ",
"U U U U G U U U U F U U U J U U r c.r G U U U U K F U P     4 % & & & & & & X   D G F D D F D F U J U U T U U F U U U F U F F F ",
"U U U U F F F U F U F U F F F U r x.c.r U U U U F F     & X e , e , & 4 4 X   X   U U U G F F F U U J U U U F F F U U U U U F H ",
"U U U U F F F F F F D F F F U U U r c.r F F L P F   & 4 0 4 e I I 4 I e 4 4 X   X X   U U F D F T U F D F F F D U U G F L U F U ",
"U T U F F F F U F F F F L U U U U r c.r F U U L G   4 e I e I 4 , e 4 I e 4 & X     .   F F G L T U F F F F F U T U U F U J F F ",
"T U U U U G U U U U F F P U F F F r c.r U U U U   X e I 4 e % 4 I e e 4 e e 4 4 & .   A D H U T U U F G U U T T T U U U U U F P ",
"U U F F F J U U U J F F F U U F G r c.r U U U F   & I 4 % I 4 e 4 I e & I e 4 & 4 & &   U J U U U F F F J U F D P L F F F F F U ",
"F F F F F F F D D F U U F G K U L r x.c.r T F S & X 4 & 4 4 I e & I 4 X I e e 4 X   X &   U U U F F F F F D A A D J F F F F F U ",
"D D F P U G F S S F U U F F F U U F r c.r U F   X   4 4 & 4 I 4 & 4 X e 4 I X e & .   X &   U U F F D U U U F F U U U U U F U U ",
"F U U U U U F F F T T U D D U T T J r c.r U A X & e & 4 & & 4 e 4 X & e X 4 & X 4 &   U U U U U U F U U U T U U U T T U U U U U ",
"J U U U U U F F U T T U F J U U U U r c.r U D & e 4 X % X 4   4 e   & 4 & X 4   X &   U F J U U F F U U U U H J U T T U J U F F ",
"U U U U U F F U U T U U F F F J U K r x.c.r J & 4 X   m.m.&   & 4 4   4 &   & &   X X   F F F K F D U U J U G F U T F S S D F F ",
"U U U J F F F D F F F F F D F J U F r ) c.r U   X   X m.m.  m.  % e   &   X X &     &   J H U U D D H U U U F F U U D A S F F F ",
"U F F F F D D F D D D J U F U U T U J r c.r U U & X m.m.m.m.m.m.  I     X &   X     X   U U U U F F J H F U F F J U U F T T U G ",
"U U U J U J F F U U J U U J U U U F U r x.r T U   & m.m.m.m.B.B.  4   m.  & &     X     U U U U J F J G F F F U L U F F U U U G ",
"U U U U U U J U T U U U U F D F F A S r x.r U T   % m.m.m.{ ~ ~ [ &   1 { m.&   X   3   U U U U F F * * * U U U U F A A D F F U ",
"U U F F U U F U U U U U U U U F G A A r ) c.r U D X m.m.m.: 2 k k . N.c.* * * X X   F U U U U U * * c.M.* U G U U U F S F F G U ",
"U F D F U F F F U L F F U U U U U G F F r c.r T F   m.m.m.f 2 V.V.  C.! ! ! !   .   * * * * * * c.c.! Y * U U F U U U F U T T U ",
"T U D F U U U F U U F F U U U F F L U T r z.r U S : m.m.m.< < V.m.* C.! ! ! ! !   ! ! ! c.c.v.M.! ! ! Y * U J F F U F D D U U F ",
"T U J U U U U U U U F F F J F F S F U U r z.r U D 2 { m.m.m.m.m.m.* N.! ..O.+.! ! ! ! ! ! ! ! ;.N M ! Y * U U F F F U F F U U U ",
"F F F J F F D F H U F F U U F F F F K U r ) r K F L 3 [ m.m.m.m.m.1 C.! o.+.+.+.O.X.} $.,.>.B m N x ! R * U L F F U F F F J U U ",
"U F D U U J D A D F D F F F D D A F P P r ) c.r U U 2 2 ~ { m.m.m.* C.! ..O.O.O.+.o.@.j.u.y.s.s.m x ! Y * G L J U U P F U U U U ",
"F F F K U F A A U U U U U U U F D U T U P r c.r D * 1 i i ~ ~ ~ ~ * c.! O.O.O.O.+.o.#.u.u.u.t.u.m x ! Y * D F K U F D F U U U U ",
"y t A A t y y t A A t t A t t t g A A A t r x.r 1 u * l j + + + O * c.!  .o.O.O.O.+.&.t.u.5.N M N x ! R * y t t t t y t t t t t ",
"5 5 5 y t q q q y t q 5 q q y y q y y q q r x.r 1 u 1 l l j j h j * c.! j.j.:.*.+.O.+.8.u.B N m =.1.! Y * q q q y q q q y q q q ",
"F D F F A t A H G F F F F D F F D F F F D r ) c.r * p * l l j j j * c.! C } u.h.d.+.+.9.u.V -.0.u.7.! Y * F F U U F D F J D D F ",
"T E W E T J T Q Q W W W W W W W W E W E E r k.x.r * * p * l z l l * c.! B } ..9.u.f.1.7.u.V y.u.m x ! Y * W W Q W W W W W W E W ",
"T E E E T T E W E T T T E E E T T R E T E E r x.r + j * p * l l l * c.! g.Z ..O.O.r.9.7.u.B N N m x ! Y * E E E E E T E E T E E ",
"U D F J U U T T D F F J J G G D H U H F F F r ) c.; j ^ * p * l l * c.! V j.e.,.o.o.9.7.u.B B $.%.h.! Y * U U F F F F F F F D J ",
"F S G U F D D F D F U T U F S A P U U F D D r ) x._ 2 ^ ^ * / * * * c.! 1.C C u.q.q.8.5.u.C 1.y.y.x ! Y * U H F F F F D S S F J ",
"A A F U F A D U J U J D D S S F U U F S A ; ` ' _ _ 2 h l ^ * / / * ! ! r.f.<.Z t.y.3.3.u.m u.m m f.! Y * P F K S S F F F F D F ",
"S S J T U F U T T U F D A D U T U U F S ; ` ' _ _ ( ; I j j j * 1 1 ! ! B w.i.f.C C 5.3.u.m M g.g.w.! Y * F U U F F F U U G F F ",
"J U T T J F U U H J U U J J U U T U F D ; ` ' _ ( ; O 0 I b.b.b.I * ! ! N B C C y.g.6.8.u.$.g.2.*.x ! Y * U U U J G U T U T U J ",
"U T T U G G G G D F F G J F D J U P F F ; _ ( ( ; ~ + O e b.9 b.e * ;.! ! m B C B B u.u.u.y.N m M c ! R 1 U U F F F U U U U D F ",
"D D F S S S D F F D F G U F F T T U F F ; ; _ ( ; ~ + O O ! ! ! O O * ! ! ! B m N B m u.u.r.m M c ! Y * F F U F G G F U U F D F ",
"F F F F F F G F U U U U T U J T T U U K L ; ; ; < ; O i = - O > > > > * * ! ! m M N m >.u.m M c ! R * S F G U F H U G F F F J F ",
"U T T U U U U J U G F U U F D U T U U P U U 3 3 : H O i h O j j j j i i i * ! ! N M N N u.x b ! Y * A D U U U U F U U U U U U F ",
"U T T U F J G F S S A G J S D U U F F F K U U F w w + = O O + + O i j i O O * ! ! m N 4.u.c ! Y 1 F F U T U U G U U U J F J F S ",
"U U U F D F J U D F F U U G F U U H F D F J w w w w * - u z p p O O O O O i u * ! ! ! ! ! ! Y * U U U T T U J F U U U F D D D A ",
"U U F D D U U U U U U T T U U U T U J U F w w w w w * / z p p p * * p p p i i * * ! ! ! Y Y * F D F U U U J F F G U F F F D F F ",
"U U J D U T U F D F U U U U D F U F U U w w w 8 w w * / z p p i * & * p p p i u * * * * * * 8 A A D G J F D F F F D F F F J U J ",
"F U U F G U D A y t A F H F F P F U J L w w s w w w * z p p i * & & & * p p p i u @ l.@ w w w w H T U J G U U U F U G F F F U U ",
"A J G S F U F g t A H T U F U U T U F S 7 8 8 w w w * p p p i * & < @ * z p p p p @ p.# w w w s T U U G U U F J K U U F F D U U ",
"G U U S F T F t A F E T T U U U H F D A 8 8 w w 8 * p p p p 1 : # ; * z z p p i u @ n @ w w w s U U F F U U H F J U F F J U U U ",
"U U J D F T D t F T E E U U U U F F J U a a d s * p p p p p p * 3 : z z p i i u u # @ w s w w w F F J U U U F F F F U U U U U T ",
"U F D D U T F S U T E T F F K F U D F J a s s * z z p p p p i * a * p p i i i * * w w a w w w w F U U U U G F D U J J U F J F F ",
"U F D F U U U J U U T J S F U F G F D G J a a * / / z p i i i * w * * * * * * 8 w y a w w w w H F U F F U U J F U H F D D F F D ",
"U U U F U U U U U T U F F U U U U F U U U U a w * * * * * * * 6 8 d s w w w w w w a w w w F F F U F S S J U L F L F D F F U U J ",
"U T U U U U U U H G F F D U U U U J J J F F J U s w w w s s 8 6 a d d w w w w 8 w w w F F F F L U K F F U G D U U F F U U U U U ",
"F U K F F U U F F F D D F U T U G F F F S A S F F D G d d w 7 6 8 g d w w w w F U U U F F F F F U F D T T T L F U U G U U U U U ",
"U U U F F U U F F F U U J U U F F F D F D D F F A A L U U U t q G W E U U P U U U J F D F F J U U F G U U U U U U J F U U U U U ",
"T T U U H G U U U U U U U U U F D S F D D G J F A D U U U H A q S E R F F J U L U G S D J U U U U U P F U U P F U U U U U H U U ",
"U U U F F F J U U U U U G J G S S D U J J J U F J U T U F F t 5 F E E F F F F K T F D J U U U U U U U F F F F F U U F K F F F F ",
"U F F F F F F U U U U U F F F D F U U U J U U U U T T U U G d q F W E F F F G U U F F U U U F U H U G F U U U F F F F L F D F F ",
"U G F J F D U U U F U U U U U F F U U U F U T U U T T U U U A 5 F E E J F U U U U F F U U U F U F U F F F U U F F F U U F F F F ",
"U L F U U U U U U U U U U U U F U U U J D U U U F F U U U F t q F W T F F U G J U F F U U U F U U F F D F L F F U U U U U J J U ",
"U U H F F U U U U U F J F F U F F U U U U U T U D F U U D D t q F E E F F F G K J D D F F F F U H F F J F F U U F P U U U F U U "
};
