/* XPM */
static char *pl61680100647[] = {
/* columns rows colors chars-per-pixel */
"64 64 150 2 ",
"   c #000000",
".  c #080A07",
"X  c #070908",
"o  c #080A09",
"O  c #1D0F0E",
"+  c #1E100F",
"@  c #170616",
"#  c #180717",
"$  c #0F1415",
"%  c #101415",
"&  c #1D131E",
"*  c #25181F",
"=  c #2B1D1D",
"-  c #221F16",
";  c #242017",
":  c #1D1220",
">  c #261920",
",  c #281920",
"<  c #1C2222",
"1  c #2F2F2F",
"2  c #22272A",
"3  c #302826",
"4  c #352D2B",
"5  c #39312F",
"6  c #2D2532",
"7  c #382F30",
"8  c #2B3034",
"9  c #333333",
"0  c #3D3533",
"q  c #363837",
"w  c #31313D",
"e  c #3B313A",
"r  c #3C3C3C",
"t  c #421E06",
"y  c #4B2B14",
"u  c #63351D",
"i  c #413836",
"p  c #443B3A",
"a  c #534C2F",
"s  c #41413F",
"d  c #704324",
"f  c #7E4E20",
"g  c #734F2B",
"h  c #74502C",
"j  c #744A31",
"k  c #091957",
"l  c #06145F",
"z  c #08175A",
"x  c #06185A",
"c  c #261F41",
"v  c #040F69",
"b  c #061262",
"n  c #03106D",
"m  c #050F70",
"M  c #061275",
"N  c #07127A",
"B  c #09147D",
"V  c #454545",
"C  c #484846",
"Z  c #4D4D4D",
"A  c #504E4F",
"S  c #4E504F",
"D  c #51514F",
"F  c #4F4E51",
"G  c #514F50",
"H  c #4E5151",
"J  c #495058",
"K  c #525252",
"L  c #5D5252",
"P  c #565857",
"I  c #555658",
"U  c #595758",
"Y  c #575958",
"T  c #5B5A5A",
"R  c #636363",
"E  c #6A6A6A",
"W  c #726B7D",
"Q  c gray44",
"!  c #804D22",
"~  c #99423B",
"^  c #97423B",
"/  c #996E37",
"(  c #9A6B4A",
")  c #AE784A",
"_  c #AD774B",
"`  c #877E7F",
"'  c #887E7F",
"]  c #C39654",
"[  c #C1AD56",
"{  c #D9B75D",
"}  c #CC8565",
"|  c #E4A57B",
" . c #0C1780",
".. c #0E1982",
"X. c #16218B",
"o. c #1B268F",
"O. c #1C2691",
"+. c #1D2892",
"@. c #222D97",
"#. c #232D99",
"$. c #1C47A3",
"%. c #1851A8",
"&. c #224AAD",
"*. c #2D4EAB",
"=. c #2A59A7",
"-. c #285FAF",
";. c #2358A4",
":. c #314EB2",
">. c #274CB7",
",. c #2D4EC2",
"<. c #2D50C4",
"1. c #3153CF",
"2. c #375BCB",
"3. c #3855D5",
"4. c #3859D4",
"5. c #2461C5",
"6. c #2664CC",
"7. c #2D64C8",
"8. c #2968D2",
"9. c #2D69DA",
"0. c #316DD5",
"q. c #316DD9",
"w. c #3270DC",
"e. c #3E59E8",
"r. c #3F63EB",
"t. c #3176E8",
"y. c #3D68F3",
"u. c #3678F4",
"i. c #3879F7",
"p. c #3D76FD",
"a. c #377CFE",
"s. c #3A7CFF",
"d. c #3A70F4",
"f. c #425CEF",
"g. c #455FF2",
"h. c #4160EC",
"j. c #4A64FF",
"k. c #466BFF",
"l. c #416AF6",
"z. c #4271FF",
"x. c #B19997",
"c. c #B39998",
"v. c #C4B59E",
"b. c #A7C4B0",
"n. c #A8C3B0",
"m. c #F9D6BA",
"M. c #E5E6C7",
"N. c #FBEDE7",
"B. c #F1F8F9",
"V. c white",
/* pixels */
"Z K K K Y U K K K Z A K A C A C K K H G I K V V C Z Z V K K r q K R T A Z K K K I K K F G K K C Z C Z F K K V C K T Y K G Z C Z ",
"K Y Y K K K K K F C U Y S Z Z F K K Z C K A V V F K K Z K K V q U E T Z D K K K Z Z Z C Z K K K Z Z C C K Z C C I T U K K G F G ",
"K K K A K G S Z Z Z K Y K A K K K K F C K Z V V Z Z Z Z A S r q A R Y Z K K K C C C Z C Z K I K K F Z Z K K Z H Y Y K K K K H K ",
"Z K F C C Z K K F C e I K K Y K Z F Z C K Z Z Z K K K Z S K s q Z R U Z K K K Z Z S F Z K K K K K K F K K K Z K K K K G Z Z Z K ",
"Z K Z C Z G K K H C e e D K K K C Z Z Z Z A Z K Y K K K K K V e Z R T Z K K Z Z K Z K G K K F Z K H F F K F Z F Z Z G K Z C Z F ",
"K K K Z Z F K K Z C e v.e C C C C Z F K K Z K K G C K K K K V 9     o o     K Z Z K K K K K K Z Z C C C F Z Z C C Z K U Z G K K ",
"Z K K Z Z Z K K K Z e v.e C Z Z K K K K Z K K K H Z K K K     < % % % % % $ % o   Z K K Z K G Z Z C V C K K C Z F K Y Y G K K H ",
"Z Z K Z K K K K K Z e c.v.e K K K K K K Z K Y K K K Y     % o w < w < % < < o   o   F F C C G Z K Z C F I U K K Z K I K C Z K C ",
"K K K K K K K K K Z F e v.e K K K K K K K K K K H Z   % < w < w J J < J w < < o   o o   C Z C Z K F K K Y K K Z K K K Z K Z Z Z ",
"K K K K Z Z Z K K Z K e c.v.e H K K Z Z A K K K Z Z   < w J w J < < w < J w < % o     o   Z Z Z K K G K K K Z Z G K K D K K Z H ",
"K U K H Z C Z Z Z C Z Z e v.e K H K Z Z Z Z K K F   o w J < w % < J w w < w w < < $ o   K S Z A T K Z Z Z Z Z C K K G F D K Z A ",
"Y K K Z Z F Z K Z Z Z Z e c.v.e K A Z Z Z D K S Z   % J < $ J < w < J w % J w < % < % %   Z A K Y K Z C Z G Z K K Y K Z K K Z Z ",
"Y U K A A K K K K K Z Z S e v.e K Z Z Z K K K K H % o < $ < < J w $ J < o J w w < o   o %   K K K K Z G K K Y U Y K K K K K Z G ",
"K K Z Z F Z D K F D S Z S e c.v.e Z Z Z K U K Z   o   < < % < J < % < o w < J o w % o   o %   K K Z Z Z K Z Z Z K H Z Z Z Z Z K ",
"F Z Z Z Z F Z C C Z K S Z S e v.e Z Z Z K K S V o % w % < % % < w < o % w o < % o < %   K K K K Z Z Z Z Z Z V V Z Z Z Z Z Z Z K ",
"C C Z Z H F Z C C G K D Z Z e x.v.e Z G K K C V % w < o % o <   < w   % < % o <   o %   K Y K K Z Z Z H K K Z Z A K K K K Z K K ",
"Z K K K K K Z Z Z Y T K C C H e v.e Z Z K K C V $ < o   m.m.%   % < <   < %   % %   o o   K K K K A K K P Y K K K Y Y K K K K K ",
"K K K K K K Z Z K T T U Z F K e x.v.e Z K K C V   o   o m.m.  m.  % w   %   o o %     %   Z K K C Z K K K K Z K K T Y K G K G Z ",
"K K K K K F Z K K K K K Z C F K e v.e Z Z K Z Z K $ o m.m.m.m.m.m.  J     o %   o     o   Z Z S Z C K K K K Z Z U K K C V Z Z Z ",
"K K K Z Z Z C Z F Z Z Z Z Z Z F e c.v.e C Z K K G   % m.m.m.m.N.N.  <   m.  $ %     o     Z K K C C S K D K Z F K K C V V Z Z Z ",
"Z H Z Z Z Z C C C C Z Z A H K K Y e v.e Z Z K K C   % m.m.m.| ~ ~ } %   | | m.%   o   >   K K K F Z A Z S K Z Z F K K Z K Y K K ",
"K K K Z K Z Z F K K G K K Z K K K e x.v.e F Y K Z F o m.m.m.> > f ! o m.| m.m.m.o o   K K K K K Z Z K H F Z Z K K K Z F K I K G ",
"K K K K K K H K Y K K K K Z Z Z F C e x.e Z U K Z Z   m.m.m.a > B.B.  & & | m.}   o   K K K K K Z Z K & & : Z K K Z C V C Z Z K ",
"K K G Z K K Z G K K K K G K Z Z H V e ` v.e K K V Z > m.m.m.; - B.m.& M.v.& : & ,   Z K K K K K C : : v.M.: K K K K C V Z F G K ",
"K K C Z K Z Z Z K K Z Z K I K K G F Z e x.e K Y Z V > | m.m.m.m.m.m.& V.W W W W & & & & & & & & : v.v.W L & K Z K K F Z K T Y K ",
"T K C Z K K K Z K K Z Z K K K Z Z K K e ` v.e K C F K > } m.m.m.m.m.& V.W W W W W W W W W v.v.v.M.W W W L & H Z Z H Z C C K K F ",
"Y K G K K K H K K K Z Z F F Z Z Z C K K e c.e F C H Y K > ~ | m.m.m.& M.W O.@.@.W W W W W W W W W n b W L & G Z Z Z G Z C K K K ",
"Z Z Z F Z Z C Z Z K Z Z G G Z Z Z Z H K e ` v.e Z K & & y y ~ ^ ~ ~ & V.W O.@.@.@.#.+.B &.2.<.M n v l W L & F F Z K K Z Z K K K ",
"K Z Z D K S C C C F C Z Z Z C C V C H K F e c.e K & t & g d + O O O & V.W O.@.@.@.#.+.$.z.s.p.g.h.n l W L & Z K K K K K K K K I ",
"Z Z Z H K Z V C K K K G K K F F Z K Y K H e ' v.e & t & h h d d d d & v.W o.@.@.@.#.@.%.s.s.a.i.s.n l W L & C G G Z C Z K K K K ",
"e r V V r q e r V V V r V s r s s C V s r r e x.e & & u & h h d d d & v.W X.+.@.#.@.@.-.i.s.9.n v n l W L & r r s r q r s p r r ",
"1 1 1 q q q 9 9 q q 9 1 1 q 9 q 9 q q e q q e ' v.e & & u & h h h h & v.W k.p.,.=.@.@.@.9.s.M n v :.2.W L & 9 9 q 9 8 9 9 9 1 9 ",
"Z C Z Z V q V G Z Z Z Z Z Z Z Z C Z Z Z Z F Z e x.e + d : u & h g h & v.W N ..p.l.h.#.#.q.z.M >.e.z.0.W L & Z K K Z C G H C C Z ",
"T R E R Y F R E Q E E E E E E R R E R R R R R e ` v.e = / & u & h h & v.W N ..+.0.a.j.0.0.s.N p.s.n l W L & E Q E E E E E E R E ",
"T T R R Y T E E R T T T R R R T T R R T R R T T e x.] = / / & ( & & & v.W k.B X.+.@.u.w.0.s.M n b v l W L & R E R T R R R T R R ",
"K Z Z G K U T K C Z Z F F F F Z Z F K Z Z Z F Z e [ { y d g / & ( ( & v.W N z.y.2.+.+.w.0.s.M n &.*.z.W L & Z Z S Z C Z Z C Z G ",
"F C Z K Z C Z Z C Z K I K F V V G K K Z C Z F = [ { _ O J d d d & & & v.W 4.B N p.f.r.0.0.s.N 3.p.p.l W L & Z Z Z Z Z C C C Z F ",
"V V F K Z V C F F K G Z C C C C G K F C C C F = [ ] = O w F b.b.b.J & W W u.j.1.B i.s.6.6.s.n s.v v j.W L & A D C C Z Z F Z C Z ",
"C C K K K Z K Y K K Z C C C K Y K K Z V C K K = [ ] = + O w n.6 n.w & W W M t.d.j.N N 8.6.s.n b k.z.t.W L & D K Z Z K K K F Z Z ",
"K I T Y K F K K K K K K H G K K T K Z C K I Y = ] _ = O O O W W W O & W W n m N B z.z.9.q.s.&.k.<.;.l W L & K K H F K K I I K F ",
"K I Y K K Z Z G C Z Z Z F Z C K K F Z G Z K K G = = = ~ ~ + d O d d & W W W n M M M M s.s.s.p.v n b k W L & F F Z Z K K K Z Z Z ",
"C Z Z C C Z C Z Z C Z F K F G I Y K Z Z Z K K Z K > ^ ~ ^ + O + O O y & W W W n n n n n s.s.i.n b k W L & Z K Z G Z G K K Z C Z ",
"Z Z Z Z Z Z F F K K G I Y K K T T I G G K K K K S S * * * % < 8 J J O O & & W W v n b v 5.s.v b x W L : Z Z K Z F K Z Z Z Z F Z ",
"K U I K K K K G K F Z K K Z C K U K G K K K I K Z 0 0 0 = $ & & & J 8 2 + + : W W v v v v a.b k W L : C K K K K Z K K K K K K Z ",
"K T Y K Z F Z Z C V V Z F C C K K Z Z Z Z K K 0 0 0 0 0 0 & ( j u & : & y y y & W W v v 7.s.k W L & A K T U K Z F K K F Z K Z C ",
"K K K Z C Z K K Z C Z K K F Z K I Z Z C Z K 0 0 0 0 0 5 0 & ( j u u t & u u y y & W W W W W W L & D K T Y K F Z K K K Z C C C V ",
"K K Z C Z K K H K K K T Y K G K K K A G Z 0 0 0 0 0 0 0 0 & j u u u t & u u y y & & W W W L L & C Z K K K G Z Z H H Z Z C Z Z C ",
"K K Z Z G Y K Z Z Z K K K K Z Z K G K K Z 0 0 0 0 0 0 5 0 & u u u u t : y u u y y & & & & & & 4 V C A A Z C Z Z C Z Z F F F K K ",
"Z K G Z K K C V r q V Z Z Z Z F Z Z K K Z 0 0 0 0 0 0 0 4 & u u u u & t t y u y y & @ c # 0 0 0 Z K Y K Z K K K Z K Z K Z Z K K ",
"C G F C K K Z s r V K Y K G K K U K G V s 5 0 0 0 0 0 0 & & u u u u & & y u u y y & @ @ 0 0 0 0 Y Y K A K K S A K K K Z C Z Z K ",
"Z K K C Z K Z r V F R T Y K K K Z Z Z C V 0 0 0 0 0 * & u u u u u u & y u u y y & 0 0 0 0 0 i i U K Z Z K K Z F Z K Z Z G K K Y ",
"K I F C F I C r Z U R R K K K K Z Z Z K K p 0 i 0 0 & ( ( j u u u y & u u y y & & 0 0 i i 0 0 0 C Z Z K K K Z Z Z Z K K K I K K ",
"F Z C Z K K Z C K T R I Z Z Z Z F C Z H K U p 0 0 q & j j u u u y y & : & & & 0 0 0 0 0 i 0 0 Z Z K K K K F Z C K F K F A Z Z Z ",
"K K C Z K K K G K Y Y K C F K G K C C G H K H 0 0 5 0 & & & & * & & p 0 0 0 0 0 0 0 i 0 i 0 Z Z Z K Z Z K K S Z K K C Z C Z C Z ",
"K I K Z K K K K K U K Z C K K K K Z K K K K K F A 0 5 0 i i 5 3 0 p p 0 0 0 0 5 0 0 0 0 Z Z Z Z K Z V C K K Z F F Z C Z Z K K K ",
"K K K K K I K K Z A Z Z Z K K K K A K K Z Z F F K Z A K 0 i 4 3 0 p p 0 0 0 0 0 K A H H Z Z Z F K G C K K F Z Z K Z Z Z K I K K ",
"Z K K C Z G K Z Z Z C Z C K Y K Z Z Z F C V C F Z C K K I K s 9 Z E R K Z Z Z Z K K K Z Z Z Z Z K Z Z K T Y K Z K K F K K K K K ",
"K K K G Z K K G Z Z K K K K K G F Z Z C C C Z Z V V K U I F s 9 Z E R F H K K K K K C Z Z Z D K K Z K K U K K K K S Z K K K K K ",
"T Y K K Z K K K K K K K K K K Z C C Z C C F F Z V C K K K Z r 9 C R R F Z K A K K F C C F K K K K K K Z Z K Z Z K K K K K Z K K ",
"U K H K Z C H K K K K K F F F C C C K Z F F K Z F K T K Z Z r 9 Z R T C C Z Z K I F C F K K K K K K K Z Z Z Z Z K K Z D S Z Z Z ",
"K Z Z Z Z C Z K K K K K Z Z Z C Z K K K G K U K K Y T K K Z s 9 Z E R Z Z Z Z K K Z Z K K K Z K Z K K Z K K K S Z Z Z Z Z C Z C ",
"K Z Z Z Z Z K K K Z K D K K K Z Z K U D Z K Y K K I T Y K K V 1 Z R R K F K K K K Z Z K K K Z G D F F C Z K K Z Z Z K K Z Z Z K ",
"K K F K K K K K K K K K K K K Z H K K F C K K K Z Z U K K F r 9 Z E T Z Z K K K K Z Z K K K S K K Z Z Z Z Z Z C K K K I K F G K ",
"K K Z Z Z K K K K K F G Z Z H Z G K K K K K I K C Z K Z C C q 9 Z R R Z Z Z Z Z F Z C C Z S Z K Z Z Z Z F G K K S A K K K Z K K "
};
