/* XPM */
static char *pl71680100647[] = {
/* columns rows colors chars-per-pixel */
"64 64 143 2 ",
"   c #000000",
".  c #080A07",
"X  c #060A09",
"o  c #080A09",
"O  c #1D0F0E",
"+  c #1B100E",
"@  c #180717",
"#  c #180719",
"$  c #0F1415",
"%  c #101415",
"&  c #111518",
"*  c #1D131E",
"=  c #2B1D1D",
"-  c #241F19",
";  c #311210",
":  c #222218",
">  c #1D1220",
",  c #261921",
"<  c #1C2222",
"1  c #2F2F2F",
"2  c #342C2A",
"3  c #39312F",
"4  c #2F2432",
"5  c #3B2F39",
"6  c #2F3130",
"7  c #2F313D",
"8  c #333333",
"9  c #3D3533",
"0  c #31313D",
"q  c #3B313A",
"w  c #3C3C3C",
"e  c #3D3835",
"r  c #421E06",
"t  c #4B2B14",
"y  c #63351D",
"u  c #413936",
"i  c #433B39",
"p  c #7D4D1F",
"a  c #534C2F",
"s  c #6F4223",
"d  c #704324",
"f  c #744B2F",
"g  c #74502C",
"h  c #744A31",
"j  c #071957",
"k  c #091957",
"l  c #06145F",
"z  c #08175A",
"x  c #281E41",
"c  c #040F69",
"v  c #051261",
"b  c #03106D",
"n  c #061275",
"m  c #06127A",
"M  c #09137C",
"N  c #454545",
"B  c #494947",
"V  c #494748",
"C  c #4D4D4D",
"Z  c #504E4F",
"A  c #4E504F",
"S  c #50504E",
"D  c #4E4F51",
"F  c #514F50",
"G  c #4F5150",
"H  c #495058",
"J  c #525252",
"K  c #5E5252",
"L  c #585856",
"P  c #565658",
"I  c #5B5B5B",
"U  c #605252",
"Y  c #636363",
"T  c #6A6A6A",
"R  c #726B7D",
"E  c gray44",
"W  c #804D20",
"Q  c #99423B",
"!  c #996E37",
"~  c #996B4A",
"^  c #877E7F",
"/  c #CD8565",
"(  c #E4A57C",
")  c #0C1780",
"_  c #0E1981",
"`  c #17228D",
"'  c #1B2690",
"]  c #1D2892",
"[  c #222D97",
"{  c #222D99",
"}  c #1C47A3",
"|  c #1851A8",
" . c #2249AC",
".. c #2C4DAA",
"X. c #2958A6",
"o. c #285FAF",
"O. c #2257A3",
"+. c #264CB7",
"@. c #314EB2",
"#. c #2B4EC2",
"$. c #2D50C4",
"%. c #3558CD",
"&. c #3456D2",
"*. c #395AD6",
"=. c #2561C7",
"-. c #2664CC",
";. c #2D64C8",
":. c #2968D2",
">. c #2D69DA",
",. c #316DD5",
"<. c #316ED9",
"1. c #3170D9",
"2. c #3E59E6",
"3. c #3273E3",
"4. c #3176EB",
"5. c #3D68F3",
"6. c #3578F2",
"7. c #3879F7",
"8. c #3E76FF",
"9. c #3778F8",
"0. c #3A7CFF",
"q. c #3A70F4",
"w. c #445EF2",
"e. c #4162EB",
"r. c #4964FE",
"t. c #456BFF",
"y. c #436AF6",
"u. c #4271FF",
"i. c #AF9A97",
"p. c #B19997",
"a. c #B29A98",
"s. c #C4B59E",
"d. c #C5B4A0",
"f. c #A8C3B0",
"g. c #CFC587",
"h. c #D0C686",
"j. c #D0C688",
"k. c #F9D6BA",
"l. c #E5E6C7",
"z. c #FAEDE7",
"x. c #F3F9F7",
"c. c #F2F8F8",
"v. c white",
/* pixels */
"C J J J L L J J J C D J C C G V J J G A P J N V C C C V J J w 8 G Y I C C G J J J P J A A J G V C V V J J J N N J I L J G C V C ",
"J L L J J J J J C C P L J V C C J J C V J A N N C G J C J J N w J T Y C C J J J C C C V C G J J C C B C J C V C J I P J J J C G ",
"J J J D G J G C C C J I J G J J J J C V J C N N C C C C G J w e J Y L C A J F C V V V V C J L J J G C C J J C D L L J J J J G J ",
"C J D V V C J G C V C J J J L J C G C C J C C V J J G C C D N 8 C Y P C J J J C C G J C J J J J J J C G J J C J J J J J D C C J ",
"C J J N V J J J A V C J G D J J V C C V S C C J L J J J J J N w     o o     J V Z J J J J J J C J D C D J J C G C C J J C V C C ",
"J J J V C J J J C V J P C V V C V C A J G C J J G V D J J     < % & $ % $ % % o   J A J J J A V C V N B G C V C V C J P C C J J ",
"C J J C C C J J G C J P C V C C J J J J C J J J J C J     % o 0 < 0 < % < < o   o   J G G J J C C V N B G J C C A J L L G J J J ",
"C C J A J J J J J A J J J A J J J J J J C J P J J J   $ < 0 < 0 H H < H 0 < < o   o o   V V C A J C B C P P G F G G P J V C J V ",
"J J J J S J J J J C S J J F J J J J J J J J J J D D   < 0 H 7 H < < 0 < H 0 < % o     o   V C C J C J J L J J C J J J C J C C C ",
"J J J q q q C S C J A C A C C G J J C C J J J J C   o 0 H < 7 & < H 0 0 < 0 0 < < % o   J C V C J J D G J J C C C J J F J J C C ",
"J L J q g.h.q C C C V C C C J J J G C V V C J F C   $ H < $ H < 0 < H 0 % H 0 < $ < % %   D C A I J C C C C V C J J J C J G C J ",
"L J J C q p.g.q C C C C Z J J J G J C C C J J G C % o < $ < < H 0 % H < . H 0 0 < o   o %   C J L J C C C C G J J L J D F J C C ",
"I P J F J q p.g.q J C C J J C C C C C C J P J J   o   < < % < D < % < o 0 < H o 0 $ o   o %   J P J C C J J L P L J J J J F C G ",
"J J C C C A q i.g.q S C C J C C J C C F J J J C o % 0 $ < $ % < 0 < o % 0 . < % X < %   A J S J J C C C G J C C J D C C C G C J ",
"C C C C C C C q p.h.q S C C J J J C C S J J D N % 0 < o $ o <   < 0   % < % o <   o %   J J J J C C C C C V N N C C C C C C C J ",
"C V C C J G V V q p.h.q C C C J J C C J J J V N % < o   k.k.%   % < <   < %   % $   o o   P J P C C V J J J C C F J J J J C J J ",
"C G J J J J C C C q p.j.q V J L P J C C J J B N   o   o k.k.  k.  $ 0   %   o o %     $   J L J J C J J J L J J J I L J J J J J ",
"C J J J J J C C J I q a.j.q J J L J C C J J B N C % o k.k.k.k.k.k.  H     o %   o     o   C J J C C J J J J G C J I L J J J D C ",
"J J J J J J C J J J J q a.h.q A J C V C G C D C J   % k.k.k.k.z.z.  <   k.  $ %     o     C C A V V J J J J C D P L C N V V C C ",
"J J J G C C V V D C C C q p.s.q J C V V V C J J A   $ k.k.k.( Q Q / %   ( ( k.$   o   ,   C G J C V J S J J C C J J C N N C C C ",
"C F C C C V V C V V C C J q p.s.q G A A C C J J C C o k.k.k., , W g . k.( k.k.k.o o   J J J J J C C G G C G V G J J D C J L J J ",
"J J J C J A C C S J J J J C q p.s.q J J C C P P C C   k.k.k.a , x.>   - ( ( k./   o   J J J J J C C * * * A C J G G C C J P J J ",
"J J J J J J A J L J J J C C C q p.s.q B N C P P C C , k.k.k.: : c.* l.s.* * * Q ,   G P J J J J * * d.l.* J C J J D B N V C C G ",
"J J G C J J C G P J J J J J A C q p.s.q w N J J N C , ( k.k.k.k.k.* v.R R R R * * * * * * * > > s.s.R K > J G J J J B V C C J J ",
"J J V C G G C C G J C C J J J J A q p.s.q F J L C N C , / k.k.k.k.* v.R R R R R R R R R s.s.d.l.R R R U * J J G J J J C J I L J ",
"I J B C J J J C J J C C J J J C C J q p.d.q L P C C J C , Q ( k.k.* l.R ' [ [ R R R R R R R R R b l R K * J J V C D C V V J J C ",
"L J D J J J G G G J C C A J C C V C A q p.s.q J V G > * t t Q Q Q * v.R ' [ [ [ [ ' _  .&.$.b c b l R K * J J C C C J C C G J J ",
"D C C C C V C C J J C C G J C C C C A S q p.p.q C > r * g d + + O * v.R ' [ [ [ [ ] } u.0.8.w.w.b l R U * J G C C J C C C J J J ",
"J C C J J C B V V C C V C D V V N V J J G q ^ p.q > r * g g d d s > s.R ' { { [ [ [ | 0.0.0.7.0.v v R U * A J J J J G C J J J J ",
"C C A J J C N N J J J J J J C J C J L J G D q ^ p.q * y * g g d s * s.R ` ' [ [ { { o.9.0.>.b c c v R K > V C C G C V C J J J J ",
"8 w w N w e e w N N w w N w w w w N N N w w N q ^ p.q * y * g g g * s.R u.t.#.X.{ { { 1.0.n b c @.*.R K * 8 w N w w w w w w w w ",
"8 1 8 8 w 8 6 0 8 w 8 6 6 8 8 w 8 w 8 8 8 8 8 8 q ^ p.q * y * g g > s.R m ) 8.y.e.[ { 1.0.n +.2.0.,.R K * 8 8 8 8 8 8 8 8 8 8 8 ",
"C V C C N w N A D C C C C C C D V C C C C C C V N 5 ^ s ! * y * g * s.R n _ ' 1.0.r.*.,.0.n 8.0.c v R K * C A J J C C G D C B C ",
"I Y T T P J I T E T T T T T T Y Y T Y Y Y Y Y I Y T 5 t ! ! * ~ * * s.R t._ ` ] ] 6.1.1.0.n b c c l R K * T T E T T T T T Y Y T ",
"I Y Y I L I T T Y I I I Y Y Y I I Y Y I Y I Y P I Y O t d f ! * ~ * s.R n u.5.%.[ ] 1.1.0.n b  ...8.R K * Y Y Y Y U Y Y Y I I Y ",
"J V C J J L I P V C C D G D D B C J J C C G J C J D C O H p d d * * s.R *.m M 0.e.e.1.1.0.n *.8.8.l R K * J S C C C C C C B C J ",
"C B C J C V V C V C J J J C V N A J J C B C C C G D G O 0 H f.f.f.* R R 6.r.&.m 7.0.-.-.0.b 0.c c r.R K * J C C A V V C B B D D ",
"N N C J C N V G A J J C B N B B J J C N N V D D C D D O O 0 f.4 f.* R R n 4.q.r.M n :.-.0.c b t.t.3.R K * F F F V V C C G B B C ",
"B C G P J D J L J J C V N V J L J J C V C J J J J J C O O O R R R * R R b n m M u.u.>.>.0. .t.=.O.l R K * F F F C C J J J J D B ",
"G J I L J G J J J G J J J G J J I J C V J L L J C J J O t ; ; O ; * R R R b n n n n u.0.0.0.c c v z R K * J J J G G J J L J J H ",
"J P P J J A C A C C C A G C V J J G C C F J J C D C C O t d d O s s * R R R c b b b c 0.0.6.b l k R K * C J J C C C J J J C C C ",
"B C C V V B V C V C V A J C D P L J D C C F J J F F C O O O O + O O t * * R R b c c c =.0.b v z R K * A C D G C A D C J J C V C ",
"V C C C V C A A J J G P L J J L I P J C J J J J Z Z C * ~ h y * * O + + O * R R c c c c 0.v j R K * V V C C A F C J J C C C C C ",
"J P P P J J J G J C C J J C C J L J F J J J J J C 9 9 * h y t * * ~ f y * * * R R c c ;.0.z R K * B V V J J J J C J J J J J J C ",
"J I L J A G C D B N N C G V V J J C V C C J J 9 9 9 9 * y t t t * ~ f y y * r * R R R R R R K * G C D P L P J G A P J G C A C N ",
"J J J C V C A J C V C J J C C J P C C C C J 9 9 9 9 9 = * r t t * f y y y * t t * R R R K K * J G J J L L J G C J J J C V C V N ",
"J J D V C J J J J J J I L J D J J J Z F C 9 9 9 9 u 9 = = > > r * y y y y y * t y * * * * * 9 V V C J J J J A C G J A V C V C V ",
"J J C V J L J C V D J J J J C C G J J J C 9 9 9 3 9 9 q 3 = = > t * y y y y * t y * # x @ 9 3 N N V D D C V C C V V C C C G J J ",
"C J J C J J V N w w N C C C C C C J J J V e 9 9 9 9 9 3 3 3 2 > * y y y y y * r * 9 @ @ 9 9 9 C C J L J S J J J C F Z C C C J J ",
"N J G N G J C w w N G J J G J J P J C N N 3 9 9 9 9 3 9 9 u , - y y y y y y * * * 9 3 9 9 9 u J P P J C J J C G J J D C C C C J ",
"C J J V C P C w N J Y Y P J J L G C V V N 3 9 9 9 9 9 e e u * ~ ~ h y y y t * 9 9 9 3 u 9 e e J J J C C J J C C C J C C J J J L ",
"J J D B G J B w V L Y Y J J J J C C A J J P i u e u 9 u 9 e * f h y y y t t * 9 9 9 9 u u e J Z C C G J J D C C C G J J J J J J ",
"J C V V J P C V J I Y P C C G C J V C D J P P e 9 9 9 9 9 9 & * * * * * * * 9 9 9 9 9 e e J Z C C J J J J J C C J J G J J C C C ",
"J G V C J J J S J L P J V C J C J V V G J J J C C 9 9 9 9 9 2 2 9 i u 9 u e 9 9 9 9 u F J J C C C J C V J J G C J A C V V C C V ",
"J P J C J L J A J P J C V J J J J C J J J J J G C C V J 9 u 3 4 9 i i 9 9 9 9 9 J Z F F C C V C J C N V J J J C C C V C C J G G ",
"J J J J J P J A A J G C V J J J F C J J C C D D S Z C J J L a 7 C Y Y C C C C C C D F C C D A G J G C C J C V G J C C C J P J J ",
"C J J V V J J C C V C V V J P J C C C C V N B C C V J J L J w 8 C T Y D C C C C J J J C C C C C J C C P I L J C J J C J J J J J ",
"J J J C G J J C C C S J J J P A C V C C B B C C N N J P L J w 8 C T Y D J J J J J J C V C C G J J C C J L J J J J J C J J J J J ",
"I L J J G C J J J J J J J J S C B V C V B C D C N V J J J D w 8 V Y Y C C F C J J C B V G J J J J J J C G D C C J J S J J J J J ",
"P J J F C C J J P J J J A A C V N C G C D G J C A J L J D C w 8 C Y I C C C C J P C B A J J J J J J J C C C C C J J C G C C C C ",
"J C C C C V C J J J J J A C C V C J J J J J L J J L I P J C N 8 C T Y C C C C J J C C J J J C J F J C C J J J C C C C G C V V C ",
"J C C A C C J J J J C J J J J C C J L J C J L J J P I P J J w 8 C Y Y J C J J J J C C J J J C F C J C C Z J J C C C J J C C C G ",
"J D C J A J J J J J J J J J S C C J J A V G J J C C J J J C w 8 C T I C C C G J J C C J J J C J J C C C C C C V J J J J J S D J ",
"J J G C C J J J J J C J C C G C J J J J J J P J V C J A V N w 8 C Y Y C C C J C G V V C C C G J C C C C A A J J Z D J J J C J J "
};
