/* XPM */
static char *pl81680100647[] = {
/* columns rows colors chars-per-pixel */
"64 64 144 2 ",
"   c #000000",
".  c #080A07",
"X  c #070908",
"o  c #080A09",
"O  c #1D0F0E",
"+  c #1B100E",
"@  c #0F1414",
"#  c #101415",
"$  c #1D131E",
"%  c #221F16",
"&  c #25181F",
"*  c #2B1D1D",
"=  c #311210",
"-  c #242017",
";  c #1D1220",
":  c #261920",
">  c #281920",
",  c #1C2222",
"<  c #2F2F2F",
"1  c #302826",
"2  c #342C2A",
"3  c #39312F",
"4  c #2D2532",
"5  c #2F313D",
"6  c #333333",
"7  c #3D3533",
"8  c #363837",
"9  c #31313D",
"0  c #3B313A",
"q  c #3C3C3C",
"w  c #421E06",
"e  c #4B2B14",
"r  c #63351D",
"t  c #413736",
"y  c #413836",
"u  c #443B3A",
"i  c #534C2F",
"p  c #41413F",
"a  c #704324",
"s  c #7E4E20",
"d  c #734F2B",
"f  c #74502C",
"g  c #744A31",
"h  c #091955",
"j  c #06145F",
"k  c #08175B",
"l  c #0A1859",
"z  c #040F69",
"x  c #051263",
"c  c #03106E",
"v  c #061275",
"b  c #081176",
"n  c #07127A",
"m  c #09147C",
"M  c #454545",
"N  c #484846",
"B  c #474749",
"V  c #4D4D4D",
"C  c #504F4E",
"Z  c #4E504E",
"A  c #50504E",
"S  c #4F4F51",
"D  c #514F50",
"F  c #4E5151",
"G  c #495058",
"H  c #525252",
"J  c #5E5252",
"K  c #575759",
"L  c #595758",
"P  c #5A5A5A",
"I  c #605252",
"U  c #605E5F",
"Y  c #636363",
"T  c #686667",
"R  c #696967",
"E  c #676769",
"W  c #6A6A6A",
"Q  c #726B7D",
"!  c gray44",
"~  c #99423B",
"^  c #996E37",
"/  c #996B4B",
"(  c #CD8666",
")  c #E4A57C",
"_  c #0C1780",
"`  c #0E1982",
"'  c #16218B",
"]  c #1B2690",
"[  c #1D2892",
"{  c #222D97",
"}  c #232E99",
"|  c #1C47A3",
" . c #1952A9",
".. c #2447AD",
"X. c #234BAD",
"o. c #2D4EAB",
"O. c #2258A2",
"+. c #2958A6",
"@. c #285FAF",
"#. c #274CB7",
"$. c #314EB2",
"%. c #736B80",
"&. c #2D4EC2",
"*. c #2D50C4",
"=. c #3153CE",
"-. c #375BCB",
";. c #3555D2",
":. c #375CD1",
">. c #3B58D9",
",. c #2461C5",
"<. c #2664CB",
"1. c #2D64C8",
"2. c #2D69DA",
"3. c #2A69D3",
"4. c #316DD5",
"5. c #316DD9",
"6. c #3270DC",
"7. c #3D58E5",
"8. c #3176EB",
"9. c #3174E5",
"0. c #3D68F3",
"q. c #3678F2",
"w. c #3879F7",
"e. c #3C77FE",
"r. c #377EFE",
"t. c #3A7BFF",
"y. c #3B71F5",
"u. c #445EF2",
"i. c #4162EB",
"p. c #4964FF",
"a. c #446BFE",
"s. c #4171FF",
"d. c #B19997",
"f. c #B29A98",
"g. c #C4B59E",
"h. c #C4B5A0",
"j. c #A8C3B0",
"k. c #CFC587",
"l. c #F9D6BA",
"z. c #E5E6C7",
"x. c #E5E5C9",
"c. c #FBEDE7",
"v. c #F2F8F8",
"b. c #FFFFFF",
/* pixels */
"V H H H L K H H H V H H Z V V V H H H V H H B B V V V B H H q 6 H W P V V H H H H H H V V H F V V V N V H H N N S L P H H V V N ",
"H L L H H H H A V V H L F V V V H H V V H V M p V V H V H H M 8 L E U V F H H H V V V V V H H H V V N V H V V B H P H H H H V V ",
"H K H Z V H V V V V H L H H H H H H V B H V N p V V V V S V p 6 C Y L Z H H H V B V V V V H L H H D V V H V V V L P H H H H H H ",
"V H V B V V H H V V V H H H H H V V V V H H V V H H S V S D p 8 V U L V V H H V V V V V A H H H H H V V H H H H H H H H V V V H ",
"V H V N V V H H V B V H V V H H N V V V V H H H L H H H H H N 8 V Y P S H H V V H S H Z H H H V H H V V H H V V V V Z H V V V V ",
"Z H H V V S H H V V H H V V V V V V V V H V V H V V H H H H M 6     X o     H V V H D H H H D B V V M N S V V V V Z H K S V H F ",
"V H H V V V H H H V H L V V V V H H H H V V H H Z V H H H     , # # # # @ # # .   V H V H D C V B V M V H H V V V V L L D H H A ",
"V V A H H H H H H V H H A V H V H H H H H H H H H H L     # . 9 , 9 , # , , .   .   H V N V V V H V N B H L F A Z H H H V V V V ",
"H H H H D H H H H V H H H S H H H H H V H H H H S V   # , 9 , 9 G G , G 9 , , o   o o   V V N V H V H H L H V V H H H V H V V V ",
"H H H H V V V H A Z V V V V V H H H H V H H H H V S   , 9 G 9 G , , 9 , G 9 , # o     o   V V V H H H V H H V V V H H H H H Z V ",
"H L H Z V V V V V V V V V V H H H V V V V V H H V   o 9 G , 9 # , G 9 9 , 9 9 , , @ o   H D V C P H V V V V V V H H H V H F V H ",
"L H H V V V V H V V V V V H H H H V V V V H H V Z   # G , @ G , 9 , G 9 # G 9 , # , # #   V V H L H V V V Z H H L H H V H D V V ",
"L K H Z S H H H H H V V H H V V V V V V H H H H F # . , # , , G 9 @ G , o G 9 9 , .   o #   H H H H V V H H L L K L H H H H V C ",
"H H V V V S Z H C C F V V H H V H V V A H H H V   .   , , # , G , @ , o 9 , G o 9 # .   o #   H H Z V V F V V B Z V V V V V V H ",
"V V V V V V V B V V H V V V Z H H V V V H K S B . # 9 # , # # , 9 , . # 9 o , # . , #   K H F H V V V V V V N M V V V V V V V H ",
"V V V Z H V V N N V L H V V V H H V V H H H B M # 9 , . # o ,   , 9   # , # o ,   o #   H K H H V V V H H H V V C H H H H V H H ",
"V V H H H H V V Z L P H V V H K K H V V H H V M # , X   l.l.#   # , ,   , #   # #   X .   H H H Z H H H H L H H H L L H A H H H ",
"V H H H H H V V H L P H V V H H H H V V H H V M   .   o l.l.  l.  # 9   #   o o #     #   H H H V B H H H H H Z H P K H H H V V ",
"H H H H H V V V H K H H V V V F H V V V H V V V H # . l.l.l.l.l.l.  G     . @   o     .   V D V N V H H H H H V K K V N N V V V ",
"H H H V V V V V V V V V V N V V H V N N V V V H V   # l.l.l.l.c.c.  ,   l.  @ @     .     V H H V V V H S D V C H H V M M V V V ",
"V H V V V V B V V N V V H V H H L H Z V V V H H V   @ l.l.l.) ~ ~ ( #   ) ) l.O   X   :   H H H V V D V H V V V S H H S H L H H ",
"H H H V H V V V H A V H H V H H H V H H V V H H V V X l.l.l.& : s s o l.) l.l.l.o o   K H H H H V V H S V Z V H F H V B H H H F ",
"H H H H H H S Z L K H H H V V V V N B V N V L K V V   l.l.l.i : v.c.  l.) ) l.(   o   H H H H H V V V V V H S H H C N p N V Z H ",
"H H C 0 0 0 0 F H H H D H H V V S M M N 8 M H H N V : l.l.l.% % ; ; ; k.k.) ~ ~ >   B H H H H H N $ ; $ H H V H H H V N V H V H ",
"H V V 0 k.k.g.0 0 H V V H H H H V V S V V H H L Z M : ) l.l.l.l.; x.g.$ $ $ ( & : V S D V H H $ $ g.x.$ H H H V H H V V H L K H ",
"P H B V 0 0 0 k.h.0 0 V H H H V Z H H P P P L H V V H & ( l.l.l.; b.Q Q Q Q $ $ $ $ $ $ $ ; $ g.g.Q J $ H H Z V V D V V V H H V ",
"L H V H H H H 0 0 k.h.0 0 H V V V V H H H K H V V A L F : ~ ) l.; b.Q Q Q Q Q Q Q Q Q g.g.g.z.Q Q Q J $ K H H V V V V V V Z H H ",
"F V V V S V B B D 0 0 k.g.0 0 B V V F H H H H S V H $ $ e e ~ ~ ; x.Q ] { { Q Q Q Q Q Q Q Q Q c j Q J $ H H V V V H H V V H H H ",
"H V V V H S B N V V V 0 0 g.h.0 0 N H H C V V N S $ w $ f a O + $ b.Q ] { { { { [ ` X.=.*.v c z j Q J $ V V C A H H D D H H H H ",
"V V V H H V N N H H H H H 0 0 g.g.0 0 H D V V V V $ w ; f f a a $ b.Q ] { { } } [ | s.t.e.u.u.z j Q J $ V V V C V V V V H H H H ",
"8 q M N q 8 8 u M M u q q M q 0 0 g.d.0 0 q M q 8 $ ; r $ f f a $ g.Q ] { { { { [  .t.t.t.w.t.z j Q J $ 8 q q q q q 8 q q q q q ",
"< < < 8 8 8 6 6 8 8 6 < 6 6 6 8 6 0 0 d.d.0 0 6 6 $ $ $ r $ f f $ g.Q ' ] { { { { @.w.r.2.c z z j Q J $ 6 6 6 6 8 6 6 6 8 6 6 6 ",
"V B V V N q M H F V V V V V V V V V V 0 0 d.f.0 0 B + a $ r $ f $ g.Q s.a.*.+.{ { { 6.t.v c z $.-.Q I $ V V V H H V V V Z V N V ",
"P Y W R H H P W ! W W W W W W W Y E T T T 0 0 f.f.0 0 a ^ $ r $ $ g.Q n ` t.a.u.} } 6.t.v #.7.t.4.Q J $ T R W ! W W E W W E T E ",
"P P Y U L P R W Y P P P P T P P L U Y P P Y P 0 0 h.g.e ^ ^ ; / $ g.Q n m ] 4.r.p.:.4.t.b e.t.z x Q J $ U Y Y T Y U U Y Y U P Y ",
"H V V H H L P H V V V V H H V V V Z H V V Z H V H 0 0 e a f ^ ; $ g.Q p.` ' ] { q.5.4.t.v c z c j Q J $ H H A V V V V V B N V H ",
"V B V H V N B V N V H H H B N M H H H V N V V V H V H 0 G a a a $ h.Q b s.i.:.[ [ 9.4.t.n z ..o.a.Q J ; H H V V V V V V N N V F ",
"N M V H V N B F V H D V N M B V F A V V M V V V V F H O 5 S j.j.; g.Q ;.m n t.i.i.4.4.t.b >.e.e.j Q J $ H H V F N N V V Z V V V ",
"N B H H H H H L H H V V N V H L H H V N V H H H C H V O O 9 j.4 $ Q Q q.p.;.m w.t.<.<.t.z t.z z p.Q J ; V V S H V B Z H H H V V ",
"F K P P H V H H H H H V F Z H H L H V N F L L H V H H O O O Q Q $ Q Q v 8.y.p.m n 3.<.t.z z a.a.9.Q J $ H H H H F H H H K H H V ",
"H K K H H V V V N V V V V V V V H Z V V D H H C A V V O e = = O $ Q Q c v b n s.s.2.5.t.X.a.,.O.j Q J $ V H H V V V H H H V V V ",
"N V V N N V V V V V V V H F H H L H V V V F H D C H V O e a a O ; Q Q Q z v b b b t.t.t.e.z c x k Q J $ V F H V C V V H H V V V ",
"V V V V V V V V H H H L L H H L P H H D H H H H C C B O O O O O + $ Q Q Q c c c c c t.t.q.z j h Q J $ V V V Z V V H H V V V V V ",
"H H L K H H H A H V V H H V V H L H H H H H H H V t 8 $ / g r $ $ + $ $ Q Q z z x c *.t.z x k Q J $ N B H H H H V H H H H H D V ",
"H L L A V Z V V N M M B C B V H H V B V Z H H 7 7 7 * $ / g r r e $ / g $ Q Q c c x z t.j l Q J $ V V H L K H Z H H H S V V V N ",
"H H H V B V H H V V V D H A B H H C V V V H 7 7 7 7 * $ g r r r r e $ g r $ Q Q c c 1.r.k Q J $ V H H P L H Z V H H H V V N B M ",
"H H V V V H H H F H H P L H V H L H V D V 7 7 7 7 7 * @ $ r r r r e $ r r r $ Q Q Q Q Q Q J $ V V V H K C C V V V H V V N V V V ",
"H H V V Z K H V V Z H H H H V V H S H H V 7 7 7 7 7 * * @ $ e r r e e $ r r r ; Q Q Q J J $ 3 M M V V V V B V V V V V V V F H V ",
"V H H V D H V M 8 q N V V V V V V V H H V 7 7 7 7 7 7 7 * $ r r r e e $ r r r r $ $ $ $ $ 7 7 V V H L H A H H H V A H V V V V H ",
"N F V N H H V q q M H L H S H H L H V B q 3 7 7 7 7 7 7 & r r r r e e $ r r r r r $ 7 7 7 7 7 H H L H V H H V S H H H V V V S H ",
"V H H B V H V 8 M H P P L H H H V V V N N 7 7 7 7 7 7 $ / / g r e e $ r r r r r r $ 7 7 7 7 7 K H H V V H H V V V V H V H H H L ",
"H H V V H H V q V L W Y H H H H V V V H H y y y t 7 8 $ g g r e e $ / / g r r r e $ 7 y y 7 7 D V V V H H H V V V H V H H H H H ",
"V C N N S H V N H P Y L V V V V H V N V H L y 7 7 7 7 7 $ $ $ $ $ $ g g r r r e e $ 7 7 7 7 H V V H H F H D B V A H H V Z V V V ",
"H H V V H H H D H L L F V V H V V V V V F H H 7 7 3 7 7 7 7 2 1 7 $ $ $ $ $ $ $ $ 7 y 7 7 H V V V H V V S H H V H H B N V V V V ",
"H H H H H L H H H K H V V H H H H V H H H H H H C 7 3 7 7 y 3 2 7 u y 7 7 7 7 3 y 7 7 H S V V V H V N N H H A V S V V V V H V V ",
"H H K Z H H H F Z Z V V B H H H H C H H V V V V H V V H y y 2 1 7 p u 7 7 7 7 7 H V S V V V C V H H V V H V V V H V V H H H H H ",
"V H V V B H H V V V V N V H L H V B V V B N V V V B H H K H p 6 C W Y H V V V V F H H V V V V V H V V H P K H V H H V H H H H H ",
"H H H S H H H V V V H H V H H Z V B V V B B V V M N H K K D q 8 V W Y H C H H H H D V V V V C H H V H H L H H H H V V H H H H H ",
"P L H H V H H H H H H H H H H V N N V V V V Z V M N H H H V q 6 N T P V V H D H H S N V V H H H H H H V Z D V V H H H H H A H H ",
"K H A V V V V H H H H H D F V N N V V V V A H V V H L H V V q 6 V Y P V V V V Z H V N H H H H H H H H V V V V V H H V H V V V V ",
"H V V V V V V H H H H H V V V V V H H H Z H L H H L P H H V p 6 V R Y V V V V H H A V H H H V H V H A V H H H C V V V V V V V V ",
"A Z V V V V H H H S C H H H V V V H L H V H L H H K P K H H M < V T Y H V H H H H B V H H H V H Z S V V V H H V V V H H V V V B ",
"H V F C A H H H H H Z H H H H V V H H V V Z H H V Z K H V V q 6 V R P V V V D H V V V H H H V H H V V V V V V V H H H H H H A H ",
"H H H V V H H H H H H V V V H V H H H H H H H Z V V H V V V 8 < V E Y V V V H V V V V V V V V H V V V V C F V H V H H H H V H H "
};
