/* XPM */
static char *pr11680098675[] = {
/* columns rows colors chars-per-pixel */
"64 64 145 2 ",
"   c #000000",
".  c #090A07",
"X  c #060908",
"o  c #090A09",
"O  c #1D0F0E",
"+  c #1B100C",
"@  c #170616",
"#  c #180717",
"$  c #160817",
"%  c #180815",
"&  c #180719",
"*  c #0F1415",
"=  c #101415",
"-  c #1E1010",
";  c #1D131E",
":  c #30110F",
">  c #2B1D1D",
",  c #232017",
"<  c #1D1220",
"1  c #261920",
"2  c #1C2222",
"3  c #2F2F2F",
"4  c #342C2A",
"5  c #39312F",
"6  c #2D2534",
"7  c #333334",
"8  c #3D3533",
"9  c #3D3835",
"0  c #31313D",
"q  c #3B313A",
"w  c #3C3C3C",
"e  c #421E06",
"r  c #421E08",
"t  c #4B2B14",
"y  c #63351D",
"u  c #403635",
"i  c #403836",
"p  c #433C3B",
"a  c #554C2F",
"s  c #704324",
"d  c #744B2F",
"f  c #74502C",
"g  c #744A31",
"h  c #06145F",
"j  c #040F69",
"k  c #051163",
"l  c #03106D",
"z  c #050F70",
"x  c #061276",
"c  c #081176",
"v  c #07127B",
"b  c #09147D",
"n  c #454544",
"m  c #494947",
"M  c #474949",
"N  c #4D4D4D",
"B  c #504E4F",
"V  c #4E504E",
"C  c #51514F",
"Z  c #4C4F53",
"A  c #4B4F58",
"S  c #514F50",
"D  c #4F5150",
"F  c #495058",
"G  c #525252",
"H  c #5E5252",
"J  c #565658",
"K  c #595758",
"L  c #5A5A5A",
"P  c #605252",
"I  c #605E5F",
"U  c #636363",
"Y  c #6A6A6A",
"T  c #726B7D",
"R  c #737373",
"E  c #99423B",
"W  c #97423B",
"Q  c #996E37",
"!  c #996B4A",
"~  c #877E7F",
"^  c #CC8565",
"/  c #E4A57C",
"(  c #0C1780",
")  c #0E1982",
"_  c #121F87",
"`  c #16218B",
"'  c #1A258F",
"]  c #1B2690",
"[  c #1D2892",
"{  c #222D97",
"}  c #222D99",
"|  c #1C47A3",
" . c #1851A8",
".. c #2147AA",
"X. c #234AAE",
"o. c #2D4EAB",
"O. c #2958A6",
"+. c #285FAF",
"@. c #2257A3",
"#. c #274CB7",
"$. c #314EB2",
"%. c #2D4EC2",
"&. c #2E51C7",
"*. c #3557CD",
"=. c #3555D2",
"-. c #3A5DD4",
";. c #3B53D9",
":. c #2461C5",
">. c #2664CB",
",. c #2D64C8",
"<. c #2C6BD5",
"1. c #2D69DA",
"2. c #316DD6",
"3. c #316DD9",
"4. c #3271DD",
"5. c #3E59E6",
"6. c #3176E8",
"7. c #3D68F3",
"8. c #3A70F4",
"9. c #3578F2",
"0. c #3878F6",
"q. c #3E75FF",
"w. c #3A7CFE",
"e. c #425CEF",
"r. c #455FF2",
"t. c #4162EA",
"y. c #4964FF",
"u. c #456BFF",
"i. c #436AF6",
"p. c #4171FF",
"a. c #887F80",
"s. c #B19997",
"d. c #B29899",
"f. c gray71",
"g. c #C4B59E",
"h. c #C4B5A0",
"j. c #CFC587",
"k. c #D0C688",
"l. c #F8D5B7",
"z. c #F9D6BA",
"x. c gainsboro",
"c. c #E5E6C7",
"v. c #E6E7C8",
"b. c #FAEDE6",
"n. c #FFFFFF",
/* pixels */
"N G G G K K G G G N V G V N B M C G G N K G M m M N N M G G w 7 D Y L N N D G G G G G N B G V M N M M C G G M m G L L G G N M M ",
"G K K G G G G V N N J K C M N B G G N N G B n p N G G N G G n 9 G Y L Z G G G G N N N N N G G G B N m N V N M M G L G G G G B G ",
"G G G V G G N N N N G L G C G G G G N M G N M n N N N N N V n 7 D U L N G G G N m M M M N G K G G B M N G G N N K K G G G G C G ",
"N G N M M N G G N M B G G G K G N B N N C D M N G G B N N Z n 7 N I K N D G G N N B G N G G G G G G B G G G B G G G G G N N N G ",
"N G C M M G G G N m V G V B G G M N M N B B Z S K G G G G G n w N U L N S G G N G G G G G G C N G C N N G G N G N N G G N M N N ",
"G G G M N B G G N N G G N M N M N N B S B N Z     o o     G n 7 M I K N N G G N N N S G G G B N N M n m S N M N M N G K B N G G ",
"N G G N N B C G C N G K N M N N G G G G   o = = = = = = = 2     M K G N G G G N m N G B G G B N N M M m G S N N N G K K C G G G ",
"N G N G G G G G G N G G G B G G G G G   o   o 2 2 = 2 0 2 0 o =     J N G G G N M N C N M M N N G N m N J K N G V G G G N N C M ",
"G G G G V G G G G Z C G G G G G G   o X   o 2 2 0 F 2 F F 0 2 0 2 =   G G G N m m N N N M M N N G N G G K G G N G G G N G N N N ",
"G G G G N N N G C B N B C N N S   o     X = 2 0 F 2 0 2 2 F 0 F 0 2   G G V N M N G G S G N N N G G G G G G N N N G G C G G B Z ",
"G G G G N N N N N M N N N N G G G   o = 2 2 0 0 2 0 0 A 2 = 0 2 F 0 o   G G G G G K G G G N N N L G N N N N N M G G G V C G N B ",
"K K G N N N B G N N N N N G G G   * = 2 = 2 0 F * 0 A 2 0 2 F = 2 F =   K G G V N G N N N N N G K G N M N C G G G K G N G C N N ",
"K G G D B G G G G N N N G G N   * o   o 2 0 0 F o 2 A * 0 A 2 2 = 2 o = G G N n n M M M m N G G G G N N G G K G K G G G G G N D ",
"G G D N N B V G G G N C N G   = o   o * 0 o F 2 0 o 2 * 2 A 2 * 2 2   o   N M n m M V D G N G G G V N B C B N N G G N N N N N G ",
"N N N N N B N M M N G N N B G G G   = 2 o * 2 o 0 * o 2 0 2 * * 2 = 0 = o G G N G K K K G G G G N N N N N M M n M N N N N N N G ",
"N M N N G C M M m B G G N N N G G   = o   2 o * 2 *   0 2   2 . = o 2 0 * G G N G G G G G K G G N N M G G G N N G G G G G N G G ",
"N G G G G G N N V K L G M N G K   o o   = *   = 2   2 2 *   = z.z.  o 2 = G G N G G G G G G G G G N G G G K G G G K K G G G G G ",
"N G G G G G N N G K L G N N G G   =     = o o   =   0 =   z.  z.z.o   o   G G N Z G G G N G G G N N G G G G D G G L G G G G D N ",
"G G G G G N N G G K G G N N N V   o     o   * o     A   z.z.z.z.z.z.o * G D N N N N N G N N N N M M G G G G D N G K D M M M M N ",
"G G G C N N M N N N N N N M N C     o     = =   z.  2   b.b.z.z.z.z.*   G N M N N m N G G V G G N M C G S G N N G G N n m N C N ",
"B N N N N M M N N M M V B N G G   1   o   * z./ /   * ^ W W / z.z.z.*   G N m N G N N G G G G G N N Z B N C N N S G S N G K G G ",
"G G G N G B N N D ; ; ; G C G G G N   o o z.z.z./ z.X ; ; > > z.z.z.o M G V N C K G G G G G G G N N G C N C N C S G N N G G G G ",
"G G G G G G C G K ; c.g.; ; M N N M   o   ^ z.; ; ;   c.; 1 a z.z.z.  C K G N G K C B G G G G G N N B N B G N G G Z m n M N N G ",
"G G G N G G N S G ; H T g.g.; ; ; ; ;   ; ; < T T T T n.; > , z.z.z.1 G K G M G G M N G G G G G m N G B G G G G G C M m N N G G ",
"G G M N G Z N N B ; P T T T c.g.g.g.T T T T T T T T T n.; z.z.z.z./ 1 G G N G V N N C G N G G G N N N N G G G C G G N N G K K G ",
"L G m N G G G N G ; H T ] { T T T T T T T T T x l k T c.; z.z.l.^ 1 K G G G N N G N N N N G G G M M N N G G B M N G N m N G G V ",
"K G N G G G D D C ; H T ] { { { &.=.X.v v v z z l h T n.; z./ E 1 1 I V C N N G N N N m M N G N m N G G G G G N N N B N N D G G ",
"D N N N N M N N N ; H T ' { r.e.q.w.p.| b x l j j h T n.; E E E t O U G G N M N N N B B C G K G M M G G G G C N N G G N N G G G ",
"G N M G G G M M M > H T ] { 0.w.w.w.w. .( x z j j h T g.; O O s f t + w N G M m n n M m N G J G B B G G D N Z G G G D V G G G G ",
"N N Z G G M n n Z ; H T _ [ { { 1.w.0.+.) x j j j h T g.; s s f f s O n n m p M M M N N Z G K D N N N N M M N B S N M Z G G G G ",
"9 w n n a 7 w w n ; H T -.$.[ { [ w.4.' ) v O.%.p.p.T g.; s f f f s % w 7 w 9 n M n M n n n n w w w 9 9 w w w w w w 9 w w w w w ",
"3 3 3 7 0 0 7 7 7 ; H T 2.q.e.#.} w.4.' ) t.i.w.j h T g.; f f f f s + n w 7 3 3 7 7 7 7 7 7 7 3 7 3 7 7 7 7 7 7 9 7 7 7 7 7 7 7 ",
"N M N N M w M G N ; H T v ) w.q.} w.2.2.y.w.4.l l h T g.; f f f f s O V 7 G m n M M n m M B N N M N M m S N D G G N M B C M M N ",
"L U Y Y G G L Y R ; H T z ( _ [ { w.2.2.9.c l k k u.T g.; f f f Q s % D m U I I Y Y Y U Y Y U U Y U I I U Y Y R Y U Y Y Y Y U Y ",
"L I U L K L Y Y I ; H T u.o..._ { w.2.4.b c *.7.p.k T h.; Q Q Q Q t + n n G D K Y Y Y U U Y Y L U L K L L U U U U L U U U L I U ",
"G N N C G K L G M ; H T x q.q.;.` w.2.2.t.t.q.l j =.T g.; ; Q f s t + 9 n V M J G G N M N G G N N V N V G G D N G N M N M m N G ",
"N m N G N M m N M ; H T y.v v w.b w.>.>.w.0.j =.y.9.T T ; g < x.R ~ q q q q D L G M n n N V N N N G G G G G G N N N M N M m N B ",
"M n N G N M m N N ; H T 6.u.u.v v w.>.<.j j y.8.6.h T T ; ; ! f.R q ~ s.g.g.q q q q w M G G B N M B G N G G N S m M N N B N M N ",
"M N G G G V G K J ; P T l @.:.u.#.w.3.1.p.p.j j j k T T ; 6 < R R O q q q 0 s.s.g.g.q q q q C N N G G N N N G D N M B G G G N N ",
"G G L K G V G G C ; H T k l x v q.w.q.w.j j j j k T T T ; T T O O O . > M N 3 6 q q d.g.k.k.q q q q G G G G G G G G G G K G G G ",
"G G K G G N V C N N ; H T j j l 0.w.w.j j j j k T T T ; 1 O : s t O o > G G G N N C q q q q g.g.j.j.q q q q G N N N G G G B N N ",
"M N N M m M M N M M N ; H T j j l w.:.j j j k T T ; ; E 1 O s O : + < 1 G G B N M M N M N G q q q q g.g.j.k.q q q q B C G N N N ",
"N N N N M N B N G G C J ; P T j k w.l j l k T T ; 1 1 1 O O O y g ! ; , G N N M G C N N N N C B B N q q q q g.g.k.k.q N N N N N ",
"G K K G G G G G G C N G G ; H T j w.,.k k T T ; O O O O * ; t y y g 1 > u 8 N N G G G G G G G G N m M M G G q q q q G G G G Z N ",
"K L K G B N G N m n n N V m ; H T T T T T T ; y g ; @ > # ; t y y g ; o > u 8 C B N N N G G G G B B B G K K G Z G G G B N S N m ",
"G G G N m N N G N M N G G V 5 ; H H T T T ; y d > . @ @ > # ; y y y e < > u 8 u C N N N G G G G B G G L K G D N G G G N M M M M ",
"G G N M N G G G G G G L L G 9 u ; ; ; ; ; t : > . + # > # # ; t y y y r ; ; ; 8 G G N G G G N M m N G G G S N N S C B N M N M N ",
"V G V M G K G N m B G G G 9 5 ; e t y y t e ; % . . # > # > ; t y y y g ! ! t ; 8 C G G G S M M n M C N M N N N M N N N N S G B ",
"N G C N G G M n w w M N N 8 5 ; e y y y y t ; > o . > # & > # ; t y y y g g g ; 5 N N G G N N N N G K C B G G G N G N S N N G G ",
"M B N m G G N p w n C J G 8 8 ; e y y y y y y ; > > > > > > > ; t y y y t t ; 8 8 N M N B G G G K J G V G G N C S G G N M N N G ",
"B G G M B G N w n Z L I K G u i ; t y y y g g ! ; 8 8 9 9 i 5 ; t t t t t > 8 8 C N M N G G G G G G N N G G N N N D N N C G G K ",
"G G B M C G M w N K Y U G C G u 8 ; t t g g g ! ; u 8 i 8 9 5 4 ; ; ; ; ; 8 8 G G C G G G G G N N N C G G G N N N G G G G J G G ",
"C N M M G G N M G L U K N N V N 8 8 ; ; ; < ; ; 8 8 8 8 8 8 4 4 8 p p 8 u u G N M N G G G G N N N G G G G G N M G G B G V N N N ",
"G G M N G K G C G K K C m N G N G M 8 8 8 8 8 8 8 5 8 8 8 8 4 4 5 p i 8 G G C M C S G G G G G N N G N M G G G N G N N M M N N N ",
"G G G D G K G G G K G Z M G G G G N G G G 9 8 8 8 8 5 9 8 i 5 4 8 U I N C G C M G G G N S N N N G N M m G G B N B N M N N G B C ",
"G G K V G G G N C B N N M G G G G N G G N N B S G N N G K K w 3 M Y I N N N N N N V B B N N N N G V M B G B M C G V N G G G G G ",
"N G G N M G G N N M M M N G K G N M B N M m M N M m G G K G n 7 Z Y U G N N N N G G G N N N N N G N N G L K Z N G G Z G G G G K ",
"G G G N C G G B N N C G G G G N N m N M m m N N M M G K G G w 7 N Y U S G S G G G G M N N N C G G N G G K G G G G N N C C G G G ",
"K K G G N G G G G G G G G G G N m M N M M N S N n m G G G V w 7 m U I B N G D G J N m M B G G G G G G N C C C N G G G G G G C G ",
"K G B G N M C G K G G G G S N m M N B N N G G N N G L G N N w 3 M U L N N N N B G N m G G G G G G G G N N N N N G G N G N N M N ",
"G N N N N M N G J G G G N N N M N G G G G G K C G K L G G Z w 7 N Y U S N N V G G N N G G G N G N G G N G G G N N N N V N M N N ",
"D V N N N N G G G N D G G G G N N G J G N C K G G K L J G G n 7 N Y I N N G G G G N N G G G N G G N N N N G G N N N G G N N N B ",
"G G D G G G G G G G G G G G G N D G G V M C G G N V J G D N w 7 N U U N N G N G B N N G G G N G G C N M N N N M G G G G G B B G ",
"G G N N N G G B G G N C N B N N C G G G G G K G M N G N N M 9 7 M Y L N N N N G G M M N N N N G N N N N G N G G S C G G G N G G "
};
