/* XPM */
static char *pr21680098676[] = {
/* columns rows colors chars-per-pixel */
"64 64 146 2 ",
"   c #000000",
".  c #080A07",
"X  c #060908",
"o  c #080A09",
"O  c #1D0F0E",
"+  c #1E100F",
"@  c #180717",
"#  c #160816",
"$  c #180719",
"%  c #170616",
"&  c #0F1415",
"*  c #101415",
"=  c #1D131E",
"-  c #25191F",
";  c #2B1D1D",
":  c #311210",
">  c #232017",
",  c #1C1220",
"<  c #261921",
"1  c #281920",
"2  c #1C2222",
"3  c #22272A",
"4  c #2F2E2F",
"5  c #312927",
"6  c #352C2B",
"7  c #2B3034",
"8  c #333333",
"9  c #3D3533",
"0  c #31313D",
"q  c #3B313A",
"w  c #3C3C3C",
"e  c #3D3835",
"r  c #421E06",
"t  c #4B2B14",
"y  c #63351D",
"u  c #413736",
"i  c #413936",
"p  c #443C3A",
"a  c #534C2F",
"s  c #6F4423",
"d  c #704324",
"f  c #7E4E20",
"g  c #744D2D",
"h  c #74502C",
"j  c #744A31",
"k  c #06145F",
"l  c #281E41",
"z  c #040F69",
"x  c #030E67",
"c  c #051162",
"v  c #03106C",
"b  c #050F70",
"n  c #061276",
"m  c #081176",
"M  c #07127B",
"N  c #09147D",
"B  c #454545",
"V  c #484647",
"C  c #464847",
"Z  c #494947",
"A  c #494748",
"S  c #474948",
"D  c #4D4D4D",
"F  c #504E4F",
"G  c #4E504F",
"H  c #51504E",
"J  c #4C4E53",
"K  c #4B4F58",
"L  c #514F50",
"P  c #4F5150",
"I  c #495058",
"U  c #525252",
"Y  c #5E5252",
"T  c #595758",
"R  c #5A5A5A",
"E  c #605252",
"W  c #5E605F",
"Q  c #636363",
"!  c #676968",
"~  c #6A6A6A",
"^  c #726B7D",
"/  c #737473",
"(  c #99423B",
")  c #996E37",
"_  c #996B4B",
"`  c #CC8566",
"'  c #E4A57C",
"]  c #0D1780",
"[  c #0E1982",
"{  c #131E87",
"}  c #16218B",
"|  c #1C2690",
" . c #1D2892",
".. c #222D96",
"X. c #232E99",
"o. c #1C47A3",
"O. c #1851A8",
"+. c #224AAD",
"@. c #2D4EAB",
"#. c #2859A6",
"$. c #285FAF",
"%. c #2257A3",
"&. c #284DB8",
"*. c #314EB2",
"=. c #736B80",
"-. c #2D4EC2",
";. c #2D50C4",
":. c #3457CD",
">. c #3455D2",
",. c #3A5AD5",
"<. c #2461C5",
"1. c #2664CB",
"2. c #2E65C9",
"3. c #2968D2",
"4. c #2D68DA",
"5. c #316DD6",
"6. c #316DDA",
"7. c #3170DA",
"8. c #3E59E6",
"9. c #3373E2",
"0. c #3176EB",
"q. c #3D68F3",
"w. c #3679F2",
"e. c #3879F7",
"r. c #3D76FE",
"t. c #3A7CFF",
"y. c #3A70F4",
"u. c #466ACB",
"i. c #425CEF",
"p. c #455FF2",
"a. c #4162EB",
"s. c #4A64FF",
"d. c #466BFF",
"f. c #446BF7",
"g. c #4271FF",
"h. c #B19997",
"j. c gray71",
"k. c #C4B59E",
"l. c #C2B6A0",
"z. c #CFC587",
"x. c #D0C786",
"c. c #F9D6BA",
"v. c gainsboro",
"b. c #E5E6C7",
"n. c #FAEDE7",
"m. c white",
/* pixels */
"D U U U T T U U U D G U G D D S U U U F T U V V S D D S U U w 8 G Q W D D F U U U U U D U U U S D S S L U U V V U R T P P D S D ",
"U T T U U U U U D D T T D D D D U U D S U F B B D H U D U U B w T ! R G U U U U D D D D S U U U D D A D U D S S U T T U U U D G ",
"U U U G U L D D D D U R U U U U U U S A U D V B D D D S P J w e F Q T D U U U D A S D S D U T U U F D D U H D H R T U U U U U U ",
"D U D S S D U U D S D U U U T U D F D D U G S D U U U D D J B 8 D W T D G U U D D D U D U U U U U U D U U U F U U U U U D D D U ",
"D U F A S U U U F S D U P D U U A S D D F L L J R U U U U U B w D Q R D H U U D U U F F U U U S U H D D U U D D D D P U D S D D ",
"U U U S S U U U D D U U D S D D D F F U D D J     o o     U B 8 S W T D D U U D D U U U U U L D D S A S L D D D S D U T D U U U ",
"D U U D L D U U U D U T D S D S U U U U   o & & * * * * * 2     V T U D U U U D S D U F U L U D D S B S U U D D D U T T F U U F ",
"D U D U U U U U U D U U U L U U U U U   o   o 2 2 * 2 0 2 0 o *     T D U U U D V S U F S S D D U D A D T U U J G U T U S D U S ",
"U U U U D U U U U D L U U U U U U   o o   o 2 2 0 I 2 I I 0 2 0 2 &   U U U D S S F D S S S D D U D U U T U U D U U U D U D D D ",
"U U U U U D D U U F F U D D D U   o     o & 2 0 I 2 0 2 2 I 0 I 0 2   U U H D S F U U L G D D D U U U U U U D D D U U H U U F J ",
"U T U U D S D D S D D D D D U U U   o * 2 2 0 0 2 0 0 K 2 * 0 2 I 0 o   U U U H U T T U U D D D R U D D D S S D U U U D U U D H ",
"T U U D D D G U D D S D D U U U   & * 2 * 2 0 K & 0 I 2 0 2 I * 2 I *   T U U D D U F S D D D U T U D S D U U U T U U G H H D D ",
"T U U U F H U U U U D D U U D   & o   o 2 0 0 I o 2 K & 0 I 2 2 * 2 o * U U D B B V V B S D U U U U D U U U U T T T U U U H F F ",
"U U D D F J H U D P H D D U   * o   o * 0 o I 2 0 o 2 & 2 I 2 * 2 2   o   J S B V S G G P P P U U D D D U P D D G D D D D J D U ",
"D D D D D D D S S D U D D F H U U   & 2 o & 2 o 0 & o 2 0 2 * * 2 * 0 * o U U D U T T T U U U U D D S D D S V B S F D D D D D U ",
"D S D G U L D C A L U U D D F U U   & o   2 o & 2 *   0 2   2 . * o 2 0 * U U D H U T U T U U T D D D U U U D D U U U U U P H U ",
"D U U U U U D D D T R U D S U T   o o   * *   * 2   2 2 *   * c.c.  X 2 * U U F U U U U U U U U L F U U T T U U U T T U U U U U ",
"D U U U U U D D U R R U D D U U   *     * o o   *   0 *   c.  c.c.X   o   U U D U U U U D H U U D D U U U U G G U R T G P U G G ",
"U U U U U F D U U U U U D D D P   o     o   * o     I   c.c.c.c.c.c.o * U U D D D S D U D D D D D S U U U U D F T T D V V S S D ",
"U U U D D D S D F D D D D D D H     o     * *   c.  2   n.n.c.c.c.c.*   U S S D D D D U P L U U D S D U H U D D U U D B V D H D ",
"D U D D D D C S S D S D F J U U   -   o   * c.' '   & ` ( ( ' c.c.c.*   U D C D U D D U U U U U D D D U D U D J H U J P U T U U ",
"U U U D U F D D F J U U U D U U U J   o X c.c.c.' c.o f f - - c.c.c.o D U P S U T U U U U U U U F D U F D D D P U U F S U U U U ",
"U U U U U U U U U < = = H D D D F V   X   ` c.' ' c.  = = - a c.c.c.  D T U D U T D D U U U U U S D L D U U D U U D V B S D G U ",
"U U F D U U D F T = b.k.= = D D G B V   - ( ( = = = k.b.= > - c.c.c.1 U T U S U U D D U U U U U S D U F F U q q q q D A D D P U ",
"U H S D U D D D P = Y ^ k.k.= = = = = = = = = ^ ^ ^ ^ m.= c.c.c.c.' < U U D U D J F F H F U U U D D D D q q k.z.x.q H D U T T P ",
"R U S D U U U D U = Y ^ ^ ^ b.l.k.k.^ ^ ^ ^ ^ ^ ^ ^ ^ m.= c.c.c.` < R U U U D D L D D D D G U U V S q q k.x.q q q J D A D U U G ",
"T U L U U U P U U = Y ^ | X.^ ^ ^ ^ ^ ^ ^ ^ ^ n v k ^ b.= c.' ( - < W P U D D U D D D S S D U D q q k.z.q q U D D H D D S U U U ",
"P D D D D D S D U = Y ^  .X. .X.-.:.+.M N n n v z k ^ m.= ( ( ( t + Q U U D V D D D L U U U q q k.z.q q U F H D D H U D D P U U ",
"U D D P U L S V S = Y ^ |  .a.p.r.r.g.o.N n v v z c ^ m.= + + d h t O w D H V S w B A A q q k.k.q q U U D D P U U U F J U U T U ",
"D D J P U S V V U = Y ^ | X.t.t.t.t.t.O.N n v v v k ^ k.= d d h h s O w B C B V D D q q k.l.q q D D D S D C D J L D S D U U U U ",
"e w B B B w 8 w B = Y ^ }  . .X.4.t.t.$.[ n v c c c ^ k.= s h h h s O B e w w w q q h.l.q q V w w w w w w w w w p w w w w w w w ",
"4 4 4 8 8 8 8 8 e = Y ^ ,.*. .X...t.4.| [ n #.;.g.g.^ k.= g h h h d O B 8 8 q q h.h.q q 8 e 8 4 8 4 4 8 8 8 8 7 e 8 8 8 8 8 8 8 ",
"S S D D V w B G D = Y ^ 5.r.i.&.X.t.5.| [ a.f.g.c k ^ k.= h h h h s O L q q h.h.q q C A D D J S D D C A D L D U U D D F D D A D ",
"E Q ~ ! U H W ~ / = Y ^ m [ e.r.X.g.5.5.s.t.7.v v k ^ k., h h h ) d q q h.h.q q ! ! ! ! ! ! ! Q Q ! W W Q ! ~ / ~ ! ! ~ ~ ! Q ! ",
"W W Q W T R ! ~ W = E ^ m N }  ...t.7.7.w.n v v v d.^ k.= ) ) ) ) t l.l.q q L T ~ / ! Q ! ~ ! E Q E R T W Q Q Q Q R Q Q Q W E ! ",
"U D D P U T R T A = E ^ g.@.+.{ ..t.7.7.N n :.y.g.k ^ k.= ) ) h s t q q B J D U U U S V D U U L J F J D U U U D F D S D D S D U ",
"J S D U D A A D A = Y ^ n t.g.,.} t.5.5.a.a.g.v z >.^ k.= = d d K q ; B D U H T U S B B D D L S D U U H U U D D F S S D C A D L ",
"V B D U D V A G D , E ^ s.n N t.N t.1.1.r.e.c >.s.w.^ ^ , j = v./ O ; U R T U R U V B V U U U D S U U D U U U D S S D D J S S D ",
"C D U U U J U T U = Y ^ 0.g.s.M N t.1.3.v z s.y.0.k ^ ^ = = _ j./ + ; U U D S D D V B G T T U D S U U U D D U U D D L U U U D D ",
"U U R R U L U U U , Y ^ v O.;.r.+.t.6.4.g.g.z z z c ^ ^ = ^ = / / O . % D U D U U G D U R T U D D U U U U U U U U L U U T U U U ",
"U U T U U D D U D = Y ^ x z n n r.t.r.t.c z z z c ^ ^ ^ = O : : t O . % U U U H F F U U U T U D F U U L D U U D D D U U U D D D ",
"S D D S S S S D D S = Y =.z z n e.t.t.z v z v c ^ ^ ^ = d O d d t + o @ U U D D S S D S D U U P U T U D D D U D L D H F U D S D ",
"S D D D S D D F U P U = Y ^ x v v t.<.z z z c ^ ^ = = O O O O + O O - % U D S S F F D D D G H F U D S S D G U D J H U D D D F D ",
"U T T T U U U U U D D U = Y ^ x c t.v v z k ^ ^ = < + O = 3 7 7 = = , @ U L D G U U U U U U U U D S A S U U U U D U U U U U U D ",
"T R T U F F D D S V V D G = Y ^ z t.2.z c ^ ^ = r r r j _ = 7 7 , t @ l @ U D U U D D F U U U U U D D U T T U G U U U L D L D A ",
"U U U D S D U U D S D U U D = Y ^ ^ ^ ^ ^ ^ = t t t y j j = 3 = t t @ u.% 9 D U H D S D U U U U F U U R T U P D U U U D S S V V ",
"U U D S D U U U U U U R R U G = Y Y ^ ^ ^ = t y y y y y = 2 , t t t % u.@ 9 9 U U U F U U U D D S F U U U L F D F U D D D S S S ",
"G U F S G T U D S D U U U H 9 9 = = = = = y y t t r r = = = r t t y % l % 9 9 9 J H U U T D C B V S D U S D D D S S D D D U U U ",
"D U U D U U S V w w V D D 9 9 9 9 9 = t y y y t r = = % $ < t t y y = $ u 9 9 9 9 D D U U D D D D T T G U U U U D U U D D D U U ",
"V G D V D U D w w B L T U 9 9 9 u 9 9 = y j j _ _ = ; ; > , t y y y y , = 9 u 9 u S S D F U U U U T U D U U D D U U F D D S F U ",
"H U U S D T D w B U W W T 9 u u 9 6 9 = t y y j j t = 9 e = t y y y j _ _ , 9 9 9 D S L U U U U U U D D U U D D D U D D G U U T ",
"U U F S D T S w S T ! Q U U u 9 9 9 9 9 , t t t t t = e u = r y y y y g j = u 9 F J H U U U F U D D G U U F D D D G U U U T U U ",
"U D S S U U D S U R Q T D D G 9 9 9 9 9 9 < = = = = = 9 9 = , = = = = = = = 9 D D D U U U U U D D U U U U U D D U U U L D D D D ",
"U J S D U T U D U T T H V D U D 9 9 9 9 9 9 9 9 9 9 9 9 9 9 6 5 9 p u 9 9 9 U S F F U U U H D D D U D S U U D D U D D S S D S D ",
"U U U H U T U U U T U F S U U U U D 9 9 9 9 9 9 9 9 9 9 9 u 6 6 9 p i 9 U U F D U U U H H D D D U D V S U U U D D D S D D U U U ",
"U T U H U U U F G G J D S U U U H J U L D 9 9 9 9 9 9 9 9 u 6 5 9 ! Q G D D D S F D U D D D J D U U S D U F S U U F D U U U U U ",
"D U H S D H U D D D S S D U T U D D D D S V A D D S P U T U w 8 D ! Q P P J D D U U U D D D D D U D D T R T U D U U U U U U U U ",
"U U U F D U U U D D U U U U U D D S S D S S D D B V U T T U w 8 D ! W P P U U U U U S D D D L U U D D U T U U U U F D U U U U U ",
"R T U U J H U U U U U U U U U S V V S D S D L D B S U U U G w 8 S Q E G D U F U U D A S L U U U U U U D G G D D U U U U U U U U ",
"T U U D D D D U U U U U F U F S V D U D F U U D D U T U G D w 8 D Q Q D S D D H T D C L U U U U U U U D D D D D U U D D D D S D ",
"U D D D D S F U U U U U D D H S S U T U G U T U U T W U U D p 8 F ! Q D D D L U U D D U U U D U G U F D H U U H D D D L D S D D ",
"U D D G D D U U U F U H U U U D P U U U D G T U U T R U U U B 7 D Q Q L L U U U U D D U T U D G D U D D D U U D D D U U D D D D ",
"U D D U U U U U U U J U U U L D D U U G D G T U D G T U J D p 4 D ! W D D U D U U D D H U G F U U D D S D F D D U U U U U H L U ",
"U U U D D U U H U U U D D D U D U H U U U U U U S D U D D C w 8 D ! W D D D D P D D S D D D D U G D D F J D U U D P U U U D U U "
};
