/* XPM */
static char *efe5f72f600d4881885186c33d6dccd7IOS8OweXrFTltb1J[] = {
/* columns rows colors chars-per-pixel */
"64 64 148 2 ",
"   c #000000",
".  c #080A07",
"X  c #070908",
"o  c #090A09",
"O  c #1D0F0E",
"+  c #1B100E",
"@  c #180717",
"#  c #170816",
"$  c #0F1315",
"%  c #101415",
"&  c #1D131E",
"*  c #2B1D1D",
"=  c #232017",
"-  c #1E1220",
";  c #261920",
":  c #281920",
">  c #1C2222",
",  c #2E2E2E",
"<  c #282727",
"1  c #352D2B",
"2  c #2E302F",
"3  c #39312F",
"4  c #2D2532",
"5  c #2D3139",
"6  c #333333",
"7  c #3D3533",
"8  c #31313D",
"9  c #3B313A",
"0  c #3C3C3C",
"q  c #3D3835",
"w  c #421E06",
"e  c #4B2B14",
"r  c #63351D",
"t  c #413937",
"y  c #453D3A",
"u  c #534C2F",
"i  c #41413F",
"p  c #6F4223",
"a  c #704324",
"s  c #7E4E20",
"d  c #744D2D",
"f  c #74502C",
"g  c #744A31",
"h  c #06145F",
"j  c #281E41",
"k  c #040F69",
"l  c #051262",
"z  c #03106E",
"x  c #070F71",
"c  c #061276",
"v  c #07127B",
"b  c #09137B",
"n  c #454545",
"m  c #484846",
"M  c #4D4D4D",
"N  c #484647",
"B  c #504E4F",
"V  c #4E504E",
"C  c #51514F",
"Z  c #4C4F53",
"A  c #514F51",
"S  c #4F5150",
"D  c #495058",
"F  c #525252",
"G  c #5E5252",
"H  c #5A5A5A",
"J  c #575759",
"K  c #605252",
"L  c #61615F",
"P  c #636363",
"I  c #6A6A6A",
"U  c #726B7D",
"Y  c #737373",
"T  c #99423B",
"R  c #996E37",
"E  c #996B4A",
"W  c #877E7F",
"Q  c #CC8565",
"!  c #E4A57C",
"~  c #0C1780",
"^  c #0E1982",
"/  c #131E87",
"(  c #16218B",
")  c #1B2690",
"_  c #1D2893",
"`  c #222D97",
"'  c #232E98",
"]  c #1C47A3",
"[  c #1652A8",
"{  c #234AAD",
"}  c #2D4FA9",
"|  c #2659A5",
" . c #314EB2",
".. c #274CB7",
"X. c #2760AF",
"o. c #736B80",
"O. c #2D4EC2",
"+. c #2D50C4",
"@. c #3457CC",
"#. c #3555D2",
"$. c #3A5AD5",
"%. c #2461C5",
"&. c #2664CB",
"*. c #2D64C8",
"=. c #2D69DA",
"-. c #2968D2",
";. c #316DD5",
":. c #316DDA",
">. c #3270DC",
",. c #3270D7",
"<. c #3F58E6",
"1. c #2F75E4",
"2. c #3176EB",
"3. c #3A74F5",
"4. c #3579F3",
"5. c #3D76FE",
"6. c #3A7CFF",
"7. c #377EFE",
"8. c #3B69F3",
"9. c #466ACA",
"0. c #425CED",
"q. c #455FF2",
"w. c #4162EB",
"e. c #4964FE",
"r. c #456BFE",
"t. c #486AFF",
"y. c #4271FE",
"u. c #B19997",
"i. c #B29896",
"p. c #B19997",
"a. c gray71",
"s. c #C4B59E",
"d. c #C5B69E",
"f. c #C4B59E",
"g. c #C5B4A0",
"h. c #A7C4B0",
"j. c #CFC587",
"k. c #CFC685",
"l. c #D0C587",
"z. c #F9D6BA",
"x. c #F8D6BA",
"c. c #FAD5BB",
"v. c gainsboro",
"b. c #E5E6C7",
"n. c #E7E6C8",
"m. c #F9EDE7",
"M. c #F2F8F8",
"N. c white",
/* pixels */
"M F F F H J F F F M C F M M M M F F F M F F m m M Z M N F F 0 6 S I H M M S F F F F F M M F B M M M N M F F N N S H H F F M M M ",
"F J J F F F C C M M J J C M M M F F M M F M n i M S F M F F n q F I H M F F F F M M M M M F F F M M N M F M M m F H F F F F M M ",
"F F F C M Z M M M M F H F M F F F F M N F M N n M M M M S Z n 6 S P J Z Z F F M m M M M M F J F F F M M F S M M J J F F F F V F ",
"M F M m M V F F B m M F F F J F M M M M F F M m F F M M S S i 6 M L J M C F F M M M M M F F F F F F M V F F A F F F F F M M M F ",
"M F M N M M F F M m M F C M F F N M M M C M M C H F F F F F n q M P H M C F A M F F F F F F V M F M M M F F M M M M F F M M M M ",
"F F F M M F F F M M F F M M M M M M M A M M F F     o o     i 9 N P H M M F F M M S Z C F F F M M M N m S M M M m C F J M F F M ",
"M F F M M M F F F M F J M M M M F F F F F   o % % % % % % % >     J F M F F F M m M F M M F M M M M n m F F M M M F J J M F F F ",
"M F M F F F F F F M F F F M F M F F F F   o   o > > % > 8 > 8 o %     M F F F M N M M M M M M M V M N M J F F S C F F F M M M M ",
"F F F F F F F F F M C F F F F F F F   o o   o > > 8 D > D D 8 > 8 > %   F F M N N M M M M N M M A M F F J F V M F F C F F M M M ",
"F F F F M M M F F M M M M M M F F   o     o % > 8 D > 8 > > D 8 S 8 >   C Z M M M F F V F M M M F F F S F S M M Z F C V F C M V ",
"F J F M M M M M M M M M M M F F F Z   o % > > 8 8 > 8 8 D > % 8 > D 8 o   F F F F J F F C M M V H F M M M M M M 9 9 9 M F F M S ",
"J F F M M M M F M M M M M F F F F   % $ > % > 8 D $ 8 D > 8 > D $ > D %   F F M V F M M M M M F J F M M M V F 9 l.l.9 V V A M M ",
"H J C C M F F F F F M M S F A M   % o   o > 8 8 D o > D % 8 D > > % > o % F M n n n n n m B F F F F M F F F 9 l.i.9 F B F F M M ",
"F F M M M F F F Z C M M M F F   % .   o $ 8 o D > 8 o > % > D > % > >   o   m n N M M C C C C F F M M M C 9 l.i.9 C M M M S M F ",
"M M M M M M M M m M F C B Z M F F M   % > o $ > o 8 $ o > 8 > % $ > % 8 $ o F M V J J J F F F F M M M M 9 j.i.9 M M M M M M B F ",
"M M M C V M M N N C F C M M M F F Z   % o   > o % > %   8 >   > o $ o > 8 % F M F F J F J F F J M M M 9 l.i.9 M A F F F F Z F F ",
"M M F F F F M M M J H F M m F J J   o o   % %   % >   > > $   % z.c.  o > % F M F F F F F F F F Z B 9 l.p.9 F F F J J F F F F F ",
"M F F F F F M M F H H J M M F F J   %     % o o   %   8 %   z.  z.z.o   o   F M B F F F B M F V M 9 j.i.9 F B F F H J C C F C M ",
"F F F F F M M F F F F F M M M Z F   o     o   % o     D   z.z.z.z.z.z.o % M M M M M Z C M M M F 9 j.i.9 F F M B J J C n N M M M ",
"F F F M M M M M C M M M M N M S F     .     $ $   z.  >   m.m.z.z.z.c.%   M N M M M M F F C M 9 j.i.9 V C F M M F F M n N M M M ",
"M F M M M M M N M M N M C M F F J   ;   o   $ c.! !   $ Q T T ! z.z.z.$   B m M C M M F F F 9 s.i.9 M V M F M M S F M M F J F F ",
"F F F M F M M M F F M F F V F F F M F   o o z.z.z.! z.o s s ; ; x.z.z.o F C M F F F F F F 9 d.i.9 M F F Z M M F F F M M F F F C ",
"F F F F F F M F J F F F F M M M V N m   o   Q z.! ! c.  M.M.: u c.c.z.  J C M F J M Z F 9 g.p.9 M M M M C F M F F M N n M M V S ",
"F F V M F F M F F & - & F F M M V n n n   : T T ! ! - & & M.= = c.c.c.; J F m F F M M 9 d.p.9 F M M C S C F F F F F m N M M F F ",
"F F M M S Z M M F & b.s.& & F F C M V & - ; ; & & & s.b.& c.z.z.c.c.! ; F M F Z Z M 9 d.i.9 F F M M M M F F F M F F M M F J J C ",
"H F N M S J S M F & G U d.d.& & & & & & & & & U U U U N.& z.z.c.c.Q ; S F F M M S 9 d.i.9 F F F n M M M F F S M M S M M M F F M ",
"J F M S S F S S S & G U U U b.d.d.d.U U o.U U U U U U N.& z.z.! T ; ; S F M M F 9 s.p.9 N M F B N M F F F F F M M Z B M M F F F ",
"C M M M M M M S Z & G U ) ` U U U U U U U U U c k h U b.- T T T T e O F F M N 9 s.p.9 V S F J F N M F F F F C M M F C M M F F F ",
"F M M S F S m n M & G U ) ` ` ` O.#.{ c c c k z k l U N.& O O O a f e O M Z 9 i.p.9 m m M F J F M V F F M M Z C F F M M F F F F ",
"M M S S S M n n C & G U ) ` q.0.5.5.y.] ~ c c k z h U N.& p a a f f p O n 9 i.W 9 m Z M M F J F M M M M M N M B M M M M F F F F ",
"q 0 i n 0 9 q 0 n & G U ) ` 7.6.7.5.7.[ ~ c z k l l U s.& a a f f f a O 9 i.W 9 n n n n i N n 0 0 0 0 0 0 0 0 i n 0 0 0 i 0 0 i ",
"2 , 2 9 0 6 6 6 6 & G U ( _ ` ` =.7.6.X.^ c z k k l U d.& f f f f f p 9 i.W 9 , 6 6 q 0 6 6 6 , 6 , , , 6 6 6 6 6 , 6 6 6 6 , 6 ",
"M m M M N 0 N V M & G U @. ._ ' ' 7.;._ b c | O.y.y.U s.& f f f d f 9 p.W 9 N N n n n N m S M M M M M N A M V F F M M M F M M M ",
"H P I I F F H I Y & G U ;.5.0...' 6.,._ / q.r.6.k h U s.& f f f f R a W 9 P L L I I I I I I P P P P L L P P I Y I I P I I P P P ",
"J H P L H H I I K - G U c ^ 7.y.' 6.;.$.e.7.,.k k h U s.& R R R R R e 9 n F S J I I I P P I I H P H J J P P P P P H P P P H P P ",
"F M M S F J H F M - K U c ~ / _ ` 7.;.;.4.c z k k r.U s.& & & R f p e + n Z M F J F M m M F S Z M S M M F F F M M M M M M N M F ",
"M m M F M m M M m - F U r.} { / _ 6.;.:.~ c @.8.y.h U s.& g g & v.Y O * M F C H F M i i M C M M M F C F F F M M M M M M M N M M ",
"N N M F M N N V S & K U c 5.5.$./ 6.>.>.w.w.6.k k #.U d.& - & E a.Y O * H J F J F N i m F F M M M F F Z C F F M m N M M M M M M ",
"m m S J F V F J J & K U e.b b 7.~ 7.&.*.5.4.k #.e.4.U U - h.4 - Y Y O * F M M M M N n M J J C M m F F M M M F F M M V F F F M M ",
"S J H J F M F F F & G U 1.t.t.b b 7.&.-.k k e.3.2.l U U - e + o.+ O O . * C M F F C M F H H F B M F F F F F F F S M F F J F F M ",
"F F F F F M M V M & G U k [ %.r.{ 7.:.:.y.y.k k k l U U & O O + + O @ o : F F M M M M F J J F M V F F M M F F M M M F F F M M M ",
"M M M M m M M M M & G U z z c c y.6.y.6.k k k k l U U U & 2 > - * o @ o * F V M M M M M M F F M F J F M M A F M S M M F F M M M ",
"M M M M M M M M F F & G U l z z 4.6.6.k k k k l U U U & D * @ r g & * @ * M M M F M M M M M F M F M M N M M C M M F F M M M M M ",
"F F J J F F F C F M M & K U k k z 7.%.z k k l U U & & & & e r r g E * @ * M M M F F F C F F F F M M N M F F F F M F F F F F F M ",
"F J J B M M S M m n n M & K U z l 5.k k k l U U & & w e & r r r g E @ j @ * 7 F Z M M M F F F F M M M F J J F V F F F C M M M N ",
"F F F M N M F F M M M F F & G U z 6.*.k l U U & * & e & e e e r r g # 9.# * 7 q C M M M F F F F V F F H J F C M F F F M M N m n ",
"F F M M M F F S F C J H H F & K U U U U U U & * & w & e e r r r r @ @ 9.@ * 7 7 q C C F F F M M m M F F C V M M M F M M N M M M ",
"F F M M F J F M m M C F F F 3 & G G U U U & @ & w e & e r r r r & @ @ j @ * 7 7 7 B F F F B M n n M Z C N M M M M M M M M Z F S ",
"M F F M F F M n 0 q n Z M M 7 q & & & & & 4 @ & e e & w r r r r & # * @ t 7 7 7 7 M M S F M M M M F J C C F F F M B F M M M M F ",
"m C M N F F M 0 0 n S J F M 7 q t t 7 3 3 @ @ w e e & w r r r r r & t 7 7 7 7 7 7 M N M B V F J J J C B F F M F F F F M M M F F ",
"M F F m V F M 0 n S L L J A t t 7 7 7 3 3 7 & w w e e & r r r d E E & 7 7 7 7 7 7 M M M F F F F F F M M F F M M M M F M F F F F ",
"F F M M M F M 0 M J P P F A q 7 7 3 7 7 9 t & w w e e & w e e r g g & 7 7 7 7 7 q M C F F F M F M M C F F M M M M F M F F F F J ",
"S M M N M F M m F H P J M M B 7 7 7 3 7 t t t & & & & & & & & & & & & 7 7 t t 7 M M F F F F F M M F F F F M M M F F F M M M M M ",
"F F M M F F F C F J J C N M F M 7 7 7 7 7 7 7 7 7 3 6 7 7 7 1 1 7 y t 7 7 q 7 M M B F F F F M M V C M M F F C M F M M m M M M M ",
"F F F M F F F F F J F M M F F F F M t q t t 7 7 7 7 7 7 7 t 1 1 7 y t q 7 F M M F F F M M M M M F M N m F F S M M M M M M C M V ",
"F J F F F J F F C C M M N F F F C M B B M M 7 7 7 7 7 7 t t 1 < 7 y P B M M M M M M F B M M M V F A M M F M M Z F F M B F J F F ",
"M F M M M B F M M M M M m F J F M M M M m n N M M M C F H F 0 6 M I P A M M M M F F F M M M M M F M M J H J F M F M F F F F F F ",
"F F F V M F F F M M F F M F F C M M M m m m M M n N C J J F 0 6 M I P A F F F F F V M M M M V F F M M F J F F F F F M F F F F F ",
"H J F F V B F F C F F F F F F M N N M M M Z Z M n N F F F M 0 6 N P H M M F Z F J M N M M F F F F F F M C V M M F F F F F M F F ",
"J F F M M M M F F F F F V F M N N M M V M S F M M F H F Z M 0 6 M P L M M M M C F M N A F F F F F F F M M M M M F F M M S M M M ",
"F B M M M M M F F F F Z M M M M M F F F C F J F F H H J F M i 6 M I L S M M B F F M M F F F M F C F F M V F F A M M M V M M M N ",
"F M M M M M C F F B C F F F M M M F F F M F J F F F H F F F n 2 Z I P S M F C F F M M F F F M F M C M M A F F M M M F F M M M M ",
"F M V C F F F F F F F F F F F M F F F M M V F F M C J F M M 0 6 M P K S M C F B M M M F F F M F F M M M M M M M F F F F F A S F ",
"F F F M M F F F F F M F M M F M C F F F F F F C M M F M M N 0 2 M I L M M Z M V M M M M M M M F M M M M V M A F M F F F F M F F "
};
