/* XPM */
static char *_b198583506344759bea6ad47cd0d754vwvatWKvSPwTI8Nv[] = {
/* columns rows colors chars-per-pixel */
"64 64 149 2 ",
"   c #000000",
".  c #070908",
"X  c #080A09",
"o  c #080A07",
"O  c #1D0F0E",
"+  c #1D100F",
"@  c #180717",
"#  c #170717",
"$  c #0F1414",
"%  c #101415",
"&  c #1D131E",
"*  c #26191F",
"=  c #2B1D1D",
"-  c #311210",
";  c #232017",
":  c #1D1220",
">  c #261920",
",  c #281920",
"<  c #1C2222",
"1  c #2F2F2F",
"2  c #342C2A",
"3  c #39312F",
"4  c #2D2532",
"5  c #333333",
"6  c #3D3533",
"7  c #31313D",
"8  c #3B313A",
"9  c #3C3C3C",
"0  c #4B2B14",
"q  c #63351D",
"w  c #413937",
"e  c #463D3C",
"r  c #413736",
"t  c #534C2F",
"y  c #48403E",
"u  c #6F4324",
"i  c #704324",
"p  c #7E4E20",
"a  c #744D2D",
"s  c #74502C",
"d  c #744A31",
"f  c #06145F",
"g  c #281E41",
"h  c #271D40",
"j  c #040F69",
"k  c #051163",
"l  c #03106D",
"z  c #061275",
"x  c #081176",
"c  c #07127A",
"v  c #09147D",
"b  c #454545",
"n  c #474948",
"m  c #4D4D4D",
"M  c #494947",
"N  c #504E4F",
"B  c #4E504F",
"V  c #50504E",
"C  c #4D4F52",
"Z  c #514F50",
"A  c #495058",
"S  c #4F5150",
"D  c #525252",
"F  c #5E5252",
"G  c #565857",
"H  c #585856",
"J  c #5B5B5B",
"K  c #575858",
"L  c #605252",
"P  c #636363",
"I  c #6A6A6B",
"U  c #686667",
"Y  c #726B7D",
"T  c #737374",
"R  c #99423B",
"E  c #996E37",
"W  c #996B4A",
"Q  c #AD774A",
"!  c #877E7F",
"~  c #C49653",
"^  c #C1AD56",
"/  c #DAB95C",
"(  c #CC8565",
")  c #E4A57B",
"_  c #0C1780",
"`  c #0E1982",
"'  c #121D86",
"]  c #16218B",
"[  c #1A248E",
"{  c #1B2690",
"}  c #1D2892",
"|  c #222D97",
" . c #222D99",
".. c #1C47A3",
"X. c #1851A8",
"o. c #224AAD",
"O. c #2D4EAB",
"+. c #255AA8",
"@. c #314EB2",
"#. c #274CB7",
"$. c #2D4DC4",
"%. c #2D50C6",
"&. c #3558CD",
"*. c #3555D2",
"=. c #3A5ED4",
"-. c #3B53D9",
";. c #2461C5",
":. c #2664CB",
">. c #2D64C8",
",. c #2C69DA",
"<. c #2967D4",
"1. c #316DD5",
"2. c #316DD9",
"3. c #3270DD",
"4. c #3F58E6",
"5. c #3176E8",
"6. c #3D68F3",
"7. c #3578F2",
"8. c #3878F6",
"9. c #3D75FF",
"0. c #3A7CFF",
"q. c #3974F6",
"w. c #456ACA",
"e. c #425CEF",
"r. c #455FF2",
"t. c #4162EB",
"y. c #4964FE",
"u. c #456BFF",
"i. c #436AF6",
"p. c #4271FF",
"a. c #887F80",
"s. c #877E81",
"d. c #B19997",
"f. c #B29A98",
"g. c gray71",
"h. c #C4B59E",
"j. c #C5B59E",
"k. c #C4B69D",
"l. c #C4B59E",
"z. c #A8C3B0",
"x. c #F9D6BA",
"c. c #F8D6BA",
"v. c #F9D6BA",
"b. c gainsboro",
"n. c #E5E6C7",
"m. c #E6E6C9",
"M. c #FAEDE7",
"N. c #F2F8F8",
"B. c white",
/* pixels */
"m D D D K K D D D m Z D m m m M D D Z m K D b M M C m b D V 9 5 D U P m M S D D D D D m Z D C M m m M m D D b b D J K D D m M m ",
"D K K D D D D D C M K K Z m C m D D m M D C b b m Z D m H D b 9 D U J m S D D C m m m m M D D D m m M m V m M m D J D D D D m Z ",
"D K D V S D m m m M D J D V D D D D m n D m b b m m m M B B b 5 D P K m D D D m M M M m C D H D D Z m m D D m D K J D D D D Z D ",
"m D m M M m D D V M Z D D D K D m C m m D V M m D D D m B D 9 8 m P H m m D D m m C C m D D D D D D C Z D D m D D D D D C m m D ",
"m D Z n M Z D D C M m D C m D D M m M m C V C D J D D D D D b 5 C U J m D D m m Z D S D D D D m D m m m D Z m m M m Z D m M m m ",
"Z D D M m D D D m M D K m M M m m m Z Z V m V D C M Z D D D b 5 n L K m m D D m m D D Z D D m m C M b n V C 8 m m V D H m m D D ",
"m D D m C m D D Z m D K m M m m D D D D V m D D C M D H D D b 5 b J D m D D D m M m D C D D C m m M b M Z 8 8 m m D K K C D D D ",
"M D C V D Z D D D m D D D Z D Z D D D D m D D D D D     X X     n J H m D K D m b m Z m M M m m D m M C 8 k.8 C C Z K D M m D M ",
"D D D D D Z D D D m D D D Z D D D D Z V D D K   X % % % % % % % <     D D D m M M m m M M M m m D C Z K 8 h.8 m D D D D D Z m m ",
"D D D D m m m D V C m Z m m m D D D C m D D   X   . < < % < 7 < 7 X %     m m M m D D D Z m m m D D C 8 k.d.8 m m D Z V D m m m ",
"D D D D m M m m m m M m C m D D D D m m   X X   X < < 7 A < A A 7 < 7 < %   D D D K K D D m m m J D m 8 l.8 m M D D D m D S m D ",
"K H D m m C m D m m m m m D D D Z V m   X     X % < 7 A < 7 < < A 7 A 7 <   D B V C m m m m m D K D 8 h.d.8 V D H D D C Z D m m ",
"K D D D m D D D D D m m V D C m C m m m   X % < < 7 7 < 7 7 A < % 7 < A 7 X   b b b b b M C D D D V 8 k.8 D D K K D D D D Z m S ",
"D D V m Z m D D V m D m m D V m V m m   % % < % < 7 A % 7 A < 7 < A % < A %   b n M V V Z Z Z D D 8 k.f.8 D m m D V m m m S m D ",
"m m M m m V m M M m D V C m V D D C   $ X   . < 7 7 A X < C % 7 A < < % < X % m D K K K D D D D V 8 k.8 m m b b m m m m m m m D ",
"M m m Z Z C m b M C D D m m m D D   % X   X % 7 X A < 7 X < % < A < % < <   X   Z D K D H D D K 8 k.f.8 D D m m Z D D D D m D D ",
"m D D D D D m m m K J D M M D K H D m m   $ < X $ < X 7 % X < 7 < % % < $ 7 % X D D D D D D D D 8 k.8 D D K D D D K K D D D D D ",
"C D D D D D m m D J J H m C D D H D m Z   % X   < X $ < %   7 <   < X % X < 7 % m D D D m C D 8 k.d.8 D D D Z D D J K D D D V m ",
"D D D D D C m D D K D D m m m V Z m M   X X   % %   % <   < < %   % x.x.  X < % m m m D m m m 8 h.8 D D D D m m H H m b b m M m ",
"Z D D m m m M m m m m m m M m C D m M   %     $ X X   %   7 %   x.  x.x.X   X   m M m D V V 8 k.d.8 Z Z Z D m C D D m b b m m C ",
"m D m m m m M M M M m m D m D D K D D   X     X   % X     A   v.x.x.x.x.x.X $ m D m V D D V 8 k.8 m V C m D m m Z D Z m D K D D ",
"D D Z V D m m m Z D C D D m D D D m D     .     % %   v.  <   M.M.x.x.x.v.%   D K D Z D D 8 k.d.8 m D m m V m D S Z C m D K D Z ",
"D D D D D D C D K H D D D m m m m b M   >   X   % x.) )   % ( R R ) x.x.v.%   D H m m D V 8 l.8 m M D V V D m D D C M b M m V Z ",
"D D m m D D m D D D D Z D D C M D b b b 9   . X x.x.v.) v.X p p > > x.x.v.X M D D m m D 8 l.d.8 M m S C Z D Z D D D M n m m Z D ",
"D C M m Z C m m Z D & & & D D D C V m m m   X   ( x.) & &   N.N.> t c.v.v.  V C m m D D 8 d.8 D m m m m D D D D D D D m D J K D ",
"J D M m D D D m D D & n.k.& > C m V D J J K   > : & & l.n.& v.N.; * c.v.c.= m m Z m m 8 k.! 8 D b M m m D D m M m V m b M D D m ",
"K D C D D D Z Z m D & F Y k.k.& & & * & & & & & Y Y Y Y B.& v.v.c.c.c.c.) , m D m m M 8 d.8 Z V M m D D D D D m m m Z m M D D D ",
"V m m m m m M m D D : F Y Y Y n.l.l.l.Y Y Y Y Y Y Y Y Y B.: v.v.c.c.c.( > m b m C m 8 k.s.8 K D M m D D D D C m m D D m C D D D ",
"D m m C D S M n M m & F Y [  .Y Y Y Y Y Y Y Y Y z l f Y n.& v.v.x.) R > > D n M b b 7 d.8 D K D C m D D Z C m D D S S S D D D D ",
"m m S D D M n n D D & F Y [  . . .%.&.o.c c z z l l f Y B.& R R R R R 0 + n b b m 8 l.! 8 H K D m m m m M M m Z C m m m D D D D ",
"6 9 b b 9 9 5 9 b b & F Y [  .t.r.9.0.p...v z l j j f Y B.& O O + + i s 0 + 9 9 b 5 d.8 9 M b 9 9 9 9 9 9 9 9 b 9 9 9 9 e 9 9 9 ",
"1 1 1 5 9 5 5 5 8 9 & F Y {  .0.8.0.0.0.X._ c l j j f Y k.& u i i i s s i + 1 1 1 f.d.8 5 8 5 1 5 1 1 1 5 1 5 5 5 5 1 5 5 5 5 5 ",
"m n m S b 9 b C m m & F Y ] { | | ,.0.8.+.` x l j k f Y k.& u u i a s s i + M M 8 d.8 n M C m m M m M M m m m B D m m m m m M m ",
"J P I U K G L I T I & F Y =.@.[ |  .0.1.} ` x +.$.p.p.Y l.& s s s s s s i + J 8 l.! 8 U I I P P U P J P U U I T I U I I I U U U ",
"J J P J J J I I P J & F Y 1.9.e.#. .0.3.} ` t.i.9.l f Y k.& s s s s s s i + D 8 d.8 I P P I U J P J J J P P P U P J P P P J J P ",
"D m m S D K J D M M & F Y z ` 0.9.| 0.1.=.y.0.3.k j k Y k.& a a a s s E i , 8 j.! 8 m M m D D C m Z m m D D C m B m M m m n m D ",
"C M m D m M M m M m & F Y z v [ }  .0.1.3.7.z l j j u.Y l.& & E E E E E 0 = ~ f.8 M 9 b m m m M m Z D C D D V m m M m M n n m m ",
"b b m D C b M Z C V & F Y p.O.o.' } 0.1.3.v x &.6.p.f Y j.& d & * E s i 0 + / ^ 8 b b M D D D m m Z Z C D D m m m n m m B m M m ",
"n M D D D Z D K D D & F Y x 9.9.-.] 0.1.2.t.t.9.j j *.Y j.& & a d & b.T O , Q / ^ = b C H K V m M D Z m m m D D m M D D D D m m ",
"C K J J Z m D H D D & F Y y.v v 0.v 0.:.:.0.8.j *.y.7.Y Y & A & & W g.T O R = ~ ^ = m D J K D m m D K D D D D D D C D D K D D D ",
"D D H D D m C m M m : F Y 5.u.u.v v 0.:.<.l l y.q.5.f Y Y & 7 z.4 & T T + R = ~ ^ = V D H H D m V D D C m D D m m m D D D m m m ",
"M m m m M M M m m M & F Y j X.;.p.o.0.,.,.p.p.l j j f Y Y & O Y Y Y O O O R = Q ~ = M M m D D m D K D m m C D m Z m m D D m M m ",
"m m m m M m Z C D D & F Y j j c z 9.0.0.0.j k l j k Y Y Y & - - O - u O R R = = = Z C m m C D m D m m M m V Z m C Z D m m m m m ",
"D K K D D D D Z D m m & F Y j l l 8.0.0.j j j l f Y Y Y & i i i u + O O R R R * D D D D D D D D m M b M Z D D D m D D D D D D m ",
"D J K D C V m m n b b S & F Y l l k 0.%.j j k k Y Y & & i 0 + + O O & # > > > D D m m m D D D D Z m C D K K D V D D D Z m C m M ",
"D D D m M m Z D m M m D D & F Y k l 0.j j j k Y Y & O O O + O q d W & # @ 6 6 Z Z m m m D D D D Z D H K K D Z m D D D m M M M b ",
"D D m M m D D D D S D J J D & F Y l 0.>.j k Y Y & & 0 & q q q q q d W # h @ 6 6 6 D m D D D m m M m D D D C m m m D m m M M m m ",
"D D m m Z K D m M B D D D B n & F Y Y Y Y Y Y * & 0 0 & q q q q q q d # w.@ 6 6 6 6 D D D D n b b m m m M m m m m M m m C Z D C ",
"m D D m Z D M b 9 9 b m C m m m & F F Y Y Y : = : 0 0 0 & q q q q q d @ w.# 6 6 6 6 6 D D m m m m K K D Z D D D m C Z m m m S D ",
"b D C b D D m 9 9 b D K D V D D 6 & : & & & w.@ 0 0 0 0 & 0 q q q q q # g # 6 6 6 3 6 m D Z D D K D D m D D m Z D D V m m m m D ",
"m H D M C D m 9 b D J J H D D K 6 6 6 3 2 @ g @ q 0 0 0 0 & 0 q q q 0 0 @ : & 6 6 6 6 m D Z D D D D m m D D C m V D m m V D D K ",
"Z D C M Z D M 9 m K I P D D D D 6 6 6 6 w w @ @ q q 0 0 0 & 0 q 0 0 0 0 q q & 6 6 6 6 D D D D Z m m V D D V m m m m D D D K D D ",
"V m M M D K m M D J P K m m C m 6 6 6 6 6 w & 0 q q q 0 0 0 : q q q d d W W : 6 6 6 6 D D D V m m D D D D D m M V D C Z Z m m m ",
"D Z M m D D D Z H K K D M m D m 6 6 3 6 6 6 & & 0 q q 0 0 0 : 0 q d 0 0 0 0 & 6 6 6 r D D D m m m Z m M D D Z m D C m M M m m M ",
"D D D S D K D Z D D D m M D D D D 6 6 w 6 w 6 & : & & : & & & & d 0 0 0 0 & 6 6 6 6 D m m m m m D m b M D D V m Z m M m m D C D ",
"D K D Z D D D C Z Z m m M D D D D C 6 6 6 6 6 6 6 6 6 6 w w 3 * & & & & & 6 6 6 6 S Z m m m C V D D M C D C m m D m m D D D D D ",
"m D D M M Z D m m m M M m D K D m m m m 3 3 6 6 6 6 6 w w 6 2 2 6 y e 6 6 6 6 m D D D m m m m m D m m D J K V m D D V D D D D D ",
"D D D V Z D D V m m D D Z D D C m m m m n M m m 2 6 6 w w 6 2 2 6 e e 6 C D V D D D m M m m C D D m Z D K D D D D V m D D D D D ",
"J K D D C V D D D D D D D D D M M n M m n m Z m b M D D D m 9 5 M U J m m C V D D m b m Z D D D D D D V D m m m D D D D B D D Z ",
"K D C D m M C D D D D D D Z C M b m Z m C Z D m m D K D B m 9 5 m U J m m m m V K m M m D D D D D D D m m m m m D D m C m m m m ",
"D m m m m M m D D D D D m m m M M D D D D D D D D K L J D m b 5 m I P m m m V D D m m D D D m D C D D m m D D D m m m m m M m M ",
"Z m m Z m m D D D D m D D D Z m m D K D m D K D D K J G D D 9 5 m U P D m D Z D D m m D D D m D m V m m D D D m m m D D m m m Z ",
"D Z m D D D D D D D Z D D D D m D D D C M D D D m S G D D m 9 1 m U J m m V Z D D m M D D D m D D C m M m m m m D D D D D C D D ",
"D D S m m S D D D D V C m m D m D m D D D D K D M m S C M n 9 5 m U P m m m C m C m M m m m m Z V m m m m m D D m D D D D m D D "
};
