/* XPM */
static char *cHI1[] = {
/* columns rows colors chars-per-pixel */
"64 64 149 2 ",
"   c #000000",
".  c #090907",
"X  c #060A09",
"o  c #080A09",
"O  c #1D0F0E",
"+  c #1B100E",
"@  c #180717",
"#  c #190818",
"$  c #180815",
"%  c #0F1414",
"&  c #101415",
"*  c #1D131E",
"=  c #25191E",
"-  c #2B1D1D",
";  c #311210",
":  c #232017",
">  c #1D1220",
",  c #261920",
"<  c #281920",
"1  c #1C2222",
"2  c #2E2E2E",
"3  c #302826",
"4  c #342C2A",
"5  c #39312F",
"6  c #2D2532",
"7  c #382F30",
"8  c #333333",
"9  c #3D3533",
"0  c #31313D",
"q  c #3B313A",
"w  c #3C3C3C",
"e  c #421E06",
"r  c #4B2B14",
"t  c #63351D",
"y  c #413936",
"u  c #433B39",
"i  c #7E4E1E",
"p  c #534C2F",
"a  c #48403E",
"s  c #46413E",
"d  c #6F4223",
"f  c #704324",
"g  c #7E4E20",
"h  c #74502C",
"j  c #744A31",
"k  c #06145F",
"l  c #281E41",
"z  c #030E67",
"x  c #040F69",
"c  c #041163",
"v  c #03106D",
"b  c #061275",
"n  c #06127A",
"m  c #09147D",
"M  c #0C187E",
"N  c #413F40",
"B  c #454544",
"V  c #494947",
"C  c #464648",
"Z  c #4D4D4D",
"A  c #484848",
"S  c #504E4F",
"D  c #4E504F",
"F  c #51514F",
"G  c #4F4F51",
"H  c #514F50",
"J  c #4F5150",
"K  c #495058",
"L  c #525252",
"P  c #5E5252",
"I  c #5A5A5A",
"U  c #565855",
"Y  c #636363",
"T  c #6A6A6A",
"R  c #676867",
"E  c #6E706F",
"W  c #726B7D",
"Q  c #737373",
"!  c #99423B",
"~  c #9A6E37",
"^  c #996B4A",
"/  c #AD774B",
"(  c #877E7F",
")  c #C39653",
"_  c #C1AD55",
"`  c #D9B75D",
"'  c #CC8565",
"]  c #E4A57C",
"[  c #0C1780",
"{  c #0E1982",
"}  c #131E87",
"|  c #16218B",
" . c #1B268F",
".. c #1B2690",
"X. c #1D2892",
"o. c #222D97",
"O. c #1C47A3",
"+. c #1851A8",
"@. c #224AAD",
"#. c #2E4FAC",
"$. c #285FAF",
"%. c #2659A4",
"&. c #314EB2",
"*. c #274CB7",
"=. c #2D4DC4",
"-. c #2D50C4",
";. c #3457CD",
":. c #3555D2",
">. c #3959D5",
",. c #2461C5",
"<. c #2664CB",
"1. c #2D64C8",
"2. c #2D69DA",
"3. c #2868D2",
"4. c #316DD5",
"5. c #316EDA",
"6. c #3270DC",
"7. c #3E59E6",
"8. c #3175E8",
"9. c #3D68F3",
"0. c #3479F2",
"q. c #3879F7",
"w. c #3D76FE",
"e. c #3A7CFF",
"r. c #3A70F4",
"t. c #466ACB",
"y. c #425CEF",
"u. c #455FF2",
"i. c #4162EB",
"p. c #4964FF",
"a. c #466BFF",
"s. c #436AF5",
"d. c #4171FF",
"f. c #5FA1EF",
"g. c #B19997",
"h. c #B29999",
"j. c gray71",
"k. c #C4B59E",
"l. c #C4B5A0",
"z. c #A8C3B0",
"x. c #F9D6BA",
"c. c #F8D6BA",
"v. c #F9D5B9",
"b. c #F7D5B9",
"n. c #DDDDDD",
"m. c #E5E6C7",
"M. c #FBEEE8",
"N. c #F2F8F8",
"B. c #FFFFFF",
/* pixels */
"Z L L L U U L L L Z H L H Z Z A L L L Z U L B C A Z Z A L L w 8 L Y I G Z H L L L U L G G L H Z Z C A H L L B B L I U L H G C Z ",
"L U U U L L L L G Z U U G Z Z Z L L Z A L H B B Z L L Z U L B w U R I G G L L H Z Z Z A A L L H G Z C Z L Z A Z L I U H L L Z H ",
"L L L G L Z S Z Z Z L I L L L L L L Z A L Z B B Z Z Z A G Z N w H Y U Z G L L Z C A A Z Z L U L L L A Z L Z Z G U I U L L L H L ",
"Z L S C A Z L L H C Z L L L U L Z G Z Z L Z Z Z L L L Z G J N 8 Z Y U G L L L Z Z G S Z L L U L L L H L L L G L L L L L G Z Z L ",
"Z L Z C A L L L G A G L H H L L A A Z A Z G H L U L L L L L B 8 Z Y I G Z L Z Z S L S F L L F A L Z Z L L L Z Z C Z H L Z A Z G ",
"H L L Z A L L L Z A L U Z C Z A Z Z F L H Z H L Z Z H L L L B 8 C Y U Z S L L Z Z L L L L L L q Z A B A Z Z Z Z C G U U Z Z L L ",
"Z L L Z L Z L L H Z L U Z A Z Z L L L L G Z L L L A L U U L B 8 B U L Z L U L Z A S L S J L q q Z A B A L L Z Z H L U I L L L L ",
"Z H G F L L D L L Z L L L Z L L L L L L S L L U L L U I H G N 8 C I L Z L U L Z B Z H Z C q k.q L Z A Z U U H H H L U L A Z Z A ",
"L L L L G L L L L G L L L L L L L L L L L L U L F Z L     o o     Y I U L L Z A A Z Z A Z q k.q L G L L U L G Z L L L G L Z Z Z ",
"L L L L Z Z Z L L Z Z L Z Z Z L L L S Z Z L L L   . & & & & & & & 1     L Z A A F L L L H q k.q L L H L L L Z Z Z L L Z L L Z Z ",
"L L L F Z Z Z Z Z A Z Z Z Z L L L Z Z A Z L D   o   o 1 1 & 1 0 1 0 o &     L H L U U L q l.h.q I L Z A Z Z Z Z L L H G L Z Z L ",
"U U L Z Z Z Z L Z Z A Z Z L L L L L Z Z Z   o o   o 1 1 0 K 1 K K 0 1 0 1 %   H G L Z Z q l.q H U L Z Z Z G H H L U L H L L Z Z ",
"I U L H H L L L L L Z Z L L Z Z J Z Z Z   o     o & 1 0 K 1 0 1 1 K 0 K 0 1   B B B C B q k.q U U H Z H L L U U U L L L L L Z S ",
"L L G Z Z F J L L Z G Z Z L F Z L Z Z G L   o & 1 1 0 0 1 0 0 K 1 & 0 1 K 0 o   C Z G G q k.q L L Z Z G J L Z Z L D Z Z Z D Z L ",
"Z Z Z Z Z Z Z A A Z L L Z Z L L H Z Z G   & & 1 & 1 0 K & 0 K 1 0 1 K & 1 K &   H U U U q k.q L Z Z A Z Z A B B Z Z Z Z Z Z Z L ",
"Z A Z Z L L A A A Z L L Z Z Z L L Z Z   & o   o 1 0 0 K . 1 K & 0 K 1 1 & 1 o & L L I q k.g.q L Z Z Z L L L H Z H L L L L Z L L ",
"Z H L L L L Z Z Z U I L A A H U I H   % o   o & 0 o K 1 0 o 1 & 1 K 1 & 1 1   o   F L q l.q L L G Z L L L U L L L U I H J L L H ",
"G L L L L L Z Z L I I U Z G H U U L Z G U   & 1 o & 1 o 0 & o 1 0 1 & & 1 & 0 & o D L q l.q L L Z Z L L L L L L L I I H L L G G ",
"L L L L L G Z H L U L L Z Z Z H L Z C Z G   & o   1 o & 1 %   0 1   1 o % o 1 0 & Z F q l.q Z G A A L L L L S Z U U H B C A A Z ",
"L L L Z Z Z A Z Z Z Z Z Z A Z H L G C A   o o   & &   & 1   1 1 &   & c.c.  o 1 % Z q k.h.q L L A A H L F L Z Z L L Z B B Z Z G ",
"Z L Z Z Z Z A A Z C Z Z L Z L L U F L Z   &     & o o   &   0 &   c.  c.x.o   o   Z q k.( q L L Z Z F Z Z L Z Z L L L Z L U U L ",
"L L L Z L Z Z Z H H G L L D L L L Z L L   o     o   & o     K   c.c.v.c.x.x.o & U L q k.q L L L J Z L G G Z Z L L L Z Z L U L H ",
"L L L L L L L L U U L L L Z Z Z Z B A Z     o     & &   x.  1   M.M.v.v.x.x.&   U Z q h.q L L L Z Z L Z F L Z L L Z A B C Z G H ",
"L L Z Z L L Z L U L * * * F D Z L B B B   <   o   & c.* *   % ' ! ! ] v.x.x.&   L A q g.q L L L A A L L L L G L L L A B Z G H L ",
"L Z Z Z L L Z Z L L * m.l.# > L H Z Z Z Z G   o o * * k.m.* . g ! : : x.x.x.o D D q k.( q L L L Z Z Z Z L L L S L L L Z L U I L ",
"I L A Z L L L A L L * P W k.l.> * * * > * *   o   W W W B.*   N.N.* p c.x.x.  Z L q k.q Z Z L L B A Z Z L L L A Z Z Z B A L L G ",
"U L Z L L L L L Z L * P W W W m.k.l.k.W W W W   W W W W B.* c.v.N.: : c.x.x.- L Z q g.q A Z L L A Z L L L L L Z Z L Z Z A L L L ",
"L Z Z Z Z A A Z L L * P W ..o.W W W W W W W W W b v k W m.* c.v.b.b.b.b.x.] , Z D q g.q L L U L A Z D L L L L Z Z L L Z Z L L L ",
"L Z Z L L G A A A Z * P W  .o.o.o.-.;.O.m m n v v v k W B.* v.v.c.c.b.b.' = A A N q ( q Z L L L Z L L L L Z J L L L L Z L L L L ",
"Z Z Z L L A A B L L * P W  .o.s.u.w.e.d.O.[ n v z z k W B.* v.v.c.c.] ! , , B B q k.( q H U U L Z Z Z A A B Z Z D Z A Z L L L L ",
"8 w B B B w 8 w B B * P W  .o.e.e.e.e.e.+.M b v v z k W k.* ! ! ! ! ! ! r O w B q k.q N N B B w w w w w w w w w w w w w w w N w ",
"8 2 2 8 8 8 8 8 8 w * P W | X.X.o.2.e.q.$.{ b v z v k W k.* O O O O O d h r O 2 q g.q w 8 q 8 2 8 2 2 8 8 8 8 8 w 8 8 8 8 8 8 8 ",
"A C Z G B w B H H Z * P W >.&...o.o.e.4...{ b %.=.a.w.W k.* f f f f f h h f O B q h.q C Z Z Z Z Z Z C A Z Z S L L Z A D L Z A Z ",
"I Y T Y U L I E E T * P W 4.w.7.*.o.e.6...} i.s.w.x k W k.* f f f f h h h f O q k.( q Y R T Y Y Y R Y Y Y R T Q T Y T T T Y Y T ",
"I Y Y Y U I R T Y I * P W b { e.w.o.e.4.>.p.e.6.v z k W k.* h h h h h h h f + q g.( q Y Y T T I I Y U U Y Y Y Y Y I Y Y Y I Y Y ",
"L A Z H L I I U A Z * P W b { } X.o.e.4.6.0.b v x c a.W k.* * h h h h h h f O q h.q Z C S L L Z Z H Z Z L L L Z L Z A Z A A A L ",
"Z A H L Z A A A A Z * P W a.#.@.} X.e.4.5.m b ;.9.d.k W k.* t * h h h h ~ d , k.( q N B Z G Z Z Z H L H L L G Z Z A A Z A A Z Z ",
"B B Z L G B A L Z L * P W b e.w.>.} e.5.4.9.i.w.z v :.W k.* * j * * ~ ~ ~ = ) g.( q N C L L Z Z A L L G L L Z Z A A Z Z L Z A Z ",
"A A H U L Z L U L L * P W p.n n e.[ e.<.<.e.q.z :.p.q.W W * f * j j * n.Q = ) ) ` _ - G U U L Z Z L L Z Z Z L L Z Z L L L L Z Z ",
"H U I U L G L L L L * P W 8.a.a.n n e.<.3.v z p.r.8.k W W * r f * * ^ j.Q - / ) ) ` _ - I I L Z Z L L L L L L L L L L L U L L L ",
"L U I H H H G G Z Z * P W v %.,.a.@.e.5.5.d.d.x x x k W W * K K z.z.* Q Q + - / ) ` _ - L U U Z H L L J Z L L Z Z Z L L L J A Z ",
"C G Z A A A C Z A A * P W x x b b w.e.e.w.x x x z c W W W * 0 0 z.6 z.0 O O ! - / / ) - Z L L H L U L Z Z L H Z H Z Z H L Z Z Z ",
"A G Z Z Z Z H Z L L L * P W x b b 0.e.e.x x x x c W W W * O + O W W W + + O ! - / ) - - Z J F D L G Z C Z Z H Z Z L L Z Z Z Z Z ",
"U U U L L L L H L Z Z L > P W x z v e.,.x x c c W W * * ; ; ; ; ; + ; ; r + , - - - - L L L L L A A B A L L L L Z L L L L L L Z ",
"U I U L Z H G Z C B B Z J * P W x x e.x x x c W W * r r r r f f f f O f r + Z = < < Z F L L L L L Z Z L U U L G L L L F Z L Z B ",
"H U L Z C Z Z L Z Z Z L L Z * P W x e.1.c c W W * O O O r f r O O O O O O O 9 9 L Z A F L U L L L L U U U L H G L L L Z A A A B ",
"H L Z A Z L L L L L L I I L F * P W W W W W W * * e r O O O O O t t j e e * 9 9 y y S L L F Z Z A Z L L L L Z Z Z L G Z A A Z A ",
"H H Z Z L U L Z A Z L L L L Z S * P P W W W * # * r r t t t * * t t t j ^ > 9 9 q 9 5 L L Z A B B A G H Z A Z Z Z A Z Z Z L L L ",
"G L L Z H L Z B w w B Z Z A Z L Z * * * * * @ * e r t t t * % * r t t j ^ * 9 9 9 9 9 9 L Z Z Z Z U I H Z L L L Z Z H Z Z Z L L ",
"C H Z C H L Z w w B G L L L L L y 9 9 9 @ f.@ e r t t t > % & & * r t t j * 9 9 9 9 5 9 S G L L U U H G L L Z L L L J Z Z A L L ",
"Z L L A Z U Z w B G Y Y U L L L 9 9 8 5 @ t.@ t t t t j = @ - & * r t t t > 9 9 9 5 9 9 L L L L L H Z Z L L Z Z L L Z Z L L L L ",
"L L G A L L A w Z U Y Y L L L L 9 5 9 9 @ l @ e r t t j j # - @ , * t t t t > 9 y 9 9 9 L L L L Z G G H L L Z Z Z Z L L L L U L ",
"L Z A A L L Z A L I Y U Z Z H Z 9 9 9 9 y @ @ e e r r t j j * - * t t t t t t * 9 9 9 y L L L Z Z L L L L L A Z L L L L G Z Z Z ",
"L L Z A L L L H U U U L A G L Z 9 9 5 9 9 9 y * * r r r t t * 4 * r t t t t j j * 9 9 9 L L Z A G H Z A L L L Z L J A A A Z Z A ",
"L L L G L U L L L U L Z A L L L L 9 9 y 9 y 9 9 9 * * * * * * 4 > r r r t j ^ ^ * 9 y S D Z Z Z L Z B A L L L Z Z Z A Z Z L L H ",
"L L U L L L L L H H G Z A L L L L Z S 9 9 5 9 9 9 9 9 9 y y 4 3 9 * * * * * = * 9 9 S Z Z Z Z Z L G A L L Z A F L Z Z L L L L L ",
"Z L D Z Z L L Z G A Z C Z L U L Z Z Z Z A 5 9 9 9 9 y y y y 4 4 9 s u y 9 9 q 9 L L L Z Z Z Z S L Z Z U I U L Z L L S L L L L L ",
"L L L Z Z L L Z Z G H H G L L G Z Z Z A A A Z Z B 7 9 y y 9 5 4 9 s u 9 9 L F L L L Z A Z Z Z L L Z G L U L L L L L Z L L L L L ",
"I U L L D S L L H L L L L L L Z C C Z A A Z L A B A L L L Z w 8 A Y Y Z Z D D L U Z A A L L L L L L G Z H H Z Z L L L L L D L L ",
"U L L Z Z Z G L L L U L H H Z C B Z G G Z L L Z Z L U L S Z w 2 A Y I Z Z Z Z L L Z A G L L L L L L L Z Z G Z Z L L Z Z Z Z Z Z ",
"L Z Z Z Z A Z L L L L F Z G Z A Z L U H H U U H L I I U L G w 8 Z T Y Z Z Z S L L Z Z L L L Z L Z L F Z G L L F Z Z F Z Z A A Z ",
"L H Z G Z Z L L L Z L L L L L Z G L U G Z H U L L U I U L L B 8 Z Y Y L Z L L L L Z Z L L L Z J H G Z Z Z L L Z Z Z L L Z Z Z L ",
"L J Z H L L L L L L L L L L L A G H H G A H U H Z H L L L Z w 8 Z R I Z Z L D F H Z Z L L L Z L L Z Z A Z Z Z Z L H L L L L Z L ",
"L L H Z Z L L L L L Z L Z Z L Z H H L L H U U L C Z H H A A w 8 Z Y Y Z Z Z Z S L A A Z Z Z H L Z Z Z J L Z J L Z L L L L Z L L "
};
