/* XPM */
static char *cHI2[] = {
/* columns rows colors chars-per-pixel */
"64 64 149 2 ",
"   c #000000",
".  c #080A07",
"X  c #060A09",
"o  c #080A09",
"O  c #1D0F0E",
"+  c #1C100F",
"@  c #180717",
"#  c #170616",
"$  c #0F1414",
"%  c #101415",
"&  c #1D131E",
"*  c #2B1D1D",
"=  c #261A1E",
"-  c #232017",
";  c #1D1220",
":  c #261920",
">  c #1C2222",
",  c #2E2E2E",
"<  c #23282B",
"1  c #302826",
"2  c #352D2B",
"3  c #38302E",
"4  c #2D2532",
"5  c #3B2F39",
"6  c #2B3034",
"7  c #2F313E",
"8  c #333333",
"9  c #3D3533",
"0  c #31313D",
"q  c #3B313A",
"w  c #3C3C3C",
"e  c #421E06",
"r  c #4B2B14",
"t  c #63351D",
"y  c #403635",
"u  c #413936",
"i  c #443C3A",
"p  c #534C2F",
"a  c #46413E",
"s  c #6F4223",
"d  c #704324",
"f  c #734F2B",
"g  c #7E4E20",
"h  c #74502C",
"j  c #744A31",
"k  c #06145F",
"l  c #281E41",
"z  c #040F69",
"x  c #030E67",
"c  c #051163",
"v  c #04106D",
"b  c #061175",
"n  c #06127A",
"m  c #09147C",
"M  c #454545",
"N  c #484846",
"B  c #474948",
"V  c #4D4D4D",
"C  c #504E4F",
"Z  c #4E504F",
"A  c #50504E",
"S  c #4C4F53",
"D  c #514F50",
"F  c #4E5151",
"G  c #495058",
"H  c #525252",
"J  c #5E5252",
"K  c #595758",
"L  c #5A5A5B",
"P  c #575759",
"I  c #636463",
"U  c #6A6A6A",
"Y  c #6E706F",
"T  c #726B7D",
"R  c #737374",
"E  c #804D20",
"W  c #99423B",
"Q  c #996E37",
"!  c #9A6F39",
"~  c #9A6B4A",
"^  c #AD774A",
"/  c #877E7F",
"(  c #887E7F",
")  c #C39653",
"_  c #C2AD56",
"`  c #D9B75D",
"'  c #CE8666",
"]  c #E4A57B",
"[  c #0C1780",
"{  c #0E1982",
"}  c #131E87",
"|  c #16218B",
" . c #1B268F",
".. c #1B2690",
"X. c #1D2892",
"o. c #222D97",
"O. c #1C47A3",
"+. c #1851A8",
"@. c #224AAD",
"#. c #2E4FAC",
"$. c #2659A4",
"%. c #314EB2",
"&. c #274CB7",
"*. c #2760AF",
"=. c #2D4EC2",
"-. c #2E51C5",
";. c #3458CD",
":. c #3555D2",
">. c #3959D5",
",. c #2461C5",
"<. c #2664CB",
"1. c #2D64C8",
"2. c #2D69DA",
"3. c #2868D2",
"4. c #316DD5",
"5. c #316EDA",
"6. c #3270DC",
"7. c #3E59E6",
"8. c #3176E8",
"9. c #3E67F3",
"0. c #3479F3",
"q. c #3879F7",
"w. c #3D76FE",
"e. c #3A7CFF",
"r. c #3A70F4",
"t. c #425CED",
"y. c #455FF2",
"u. c #4162EB",
"i. c #4964FF",
"p. c #466AFF",
"a. c #436AF5",
"s. c #4271FF",
"d. c #887F80",
"f. c #B19997",
"g. c #B29A98",
"h. c gray71",
"j. c #C4B59E",
"k. c #C5B59E",
"l. c #C5B69E",
"z. c #C4B59E",
"x. c #A8C3B0",
"c. c #F9D6BA",
"v. c #F8D6BA",
"b. c #F9D6BA",
"n. c gainsboro",
"m. c #E5E6C7",
"M. c #FAEDE7",
"N. c #F2F8F8",
"B. c white",
/* pixels */
"V H H H K K H H H V H H Z V V B H H D C K H N N B V V M H H w 8 H I L Z V H H H K H H C C H Z B V B B C H H N M H L K H H V B B ",
"H K K H H H H F V V H K A V V V H H V B H V M M V D H D H H M w H U L V A H H H B V V B B H H H C V N V D V B B P L H H H H V H ",
"H H H Z C H C V V V H L H H H H H H V B H V M M V V V V V H w w H I K V H H H B B V V B C H K H H A V B H H V H K K H H H H H H ",
"V H V B B V H H V B C H H H K H V D V B H H B V H H S V C V M 8 V I P V C H H V V V C C H H H H H H C H H H V H H H H H V V V H ",
"V H C N B H H H V B V H V A H H B V B V V H Z H K H H H H K M 8 Z I L V H H V V H H H H H H D V H D V D H D q C V V Z H V B V V ",
"H H H B V D H H V V H H V B V B V V D H Z V A H C B S H H H M 8 N L P V V H H V V H S A H H D V V V M B D q q V B V H P V D H H ",
"V H H V V S A H H V H K V B V V H H H H C Z H H C V H     o o     K H V H H H V M V H C H F H V V B M B q k.q V V H K K D H H H ",
"V V H H H H H H H V H H H C H H H H H H V H H P   o % % % % % % $ >     H K H V N V C C B B V V F V B D q k.q S A H K H B V D B ",
"H H H H H D H H H V D H H H H H H H H H H H H   o   . > > % > 0 > 0 o %     V B B V V V B V B V A C H q l.g.q V H H H V H V V V ",
"H H H H V V V F D D D H V V V H H H V V C   X .   o > > 0 G > G G 0 > 0 > $   B Z H H A A V V V H H S q l.q V V V H H F H H V C ",
"H H H H V B V V V B V V V V H H F A V V   o     o % > 0 G > 0 > > G 0 G 0 >   H H K K H H V B V L H q l.g.q V B H H H Z H H V A ",
"K K H C V V H H V V B V V H H H H A V V V   o % > > 0 0 > 0 0 G > % 0 > G 0 o   V H V B V V C H L H q z.q C V H H K H V V H V V ",
"K H H F D H H H H H V V H H V V V V V V   % % > % > 0 G % 0 G > 0 > G $ > G %   M N N N M V H K H q l.f.5 H H K K H H H H H V V ",
"H H Z V V H V H H V C V V H F V H V S   $ X   o > 0 0 G o > G % 0 G > > $ > o $ N B V F F H H H H q l.q H H V V F H V V V H V H ",
"V V V V V V V B B V H H V V H H H V   % o   o % 0 . G > 0 o > % > G > % > >   o   K K P H H H H q l.f.5 V B N M V V V V V V V H ",
"V B V Z D C V N B V H H V V V H H V V Z H   % > . % > . 0 $ o > 0 > % % > $ 0 $ o H K H P H H H q l.q D H H V V C H H H H V H H ",
"V C H H H H V V V K L H V B H P P H V V H   % o   > X % > %   0 >   > o % o > 0 % H H H H H H q l.f.q H H K A A H L K H H H H H ",
"C H H H H H V V H K L H V V H H H H V V   o o   % %   % >   > > %   % c.c.  o > % H H H F S F q z.q H H H H F H H L K A H H Z V ",
"H H H H H C V H H K H H V V V H H V V V   %     % o o   %   0 %   b.  c.c.o   o   V V H V V q j.f.5 D H H H Z C P P V M N V V V ",
"H H H V V V B V C V V V V B V A H V N B   o     o   % o     G   c.c.c.c.c.c.o % V V V H H V 5 k.q B H D H A V V H H V M M V V V ",
"V D V V V V N B B B B V F V H H H H H V     o     % %   c.  >   M.M.c.c.b.v.%   H V V H H 5 j.g.q V A V V H V V H H D C H K H H ",
"H H H V H V V V H H H H H F H H H V H H   =   o   % b.] ]   % ' W W ] c.b.b.%   P H H H H q k.q V V H C V Z V Z C H V V H H H H ",
"H H H H H H H H K H H H H V V V H N B B N V   o o b.b.b.] c.o g E : : c.b.b.o H K C S H q l.g.5 V V H S A H V H H V B M B V Z Z ",
"H H V V H H V H K H & & ; A V V F M M M w M   o   ' b.; ; ;   N.N.: p c.b.b.  H H B V H q g.5 H B B H D H H H H H H B N V V Z H ",
"H H B V S C V V H C & m.j.; ; H C V V V V & &   & & & z.m.& b.c.N.- - v.v.c.: F C V C q l.( w D V V V V H H H H H H D V H L K H ",
"L H B V H H D V H H & J T z.j.& & & & ; & & & & T T T T B.& b.b.b.b.b.b.b.] : V C V V q f.q H H N B V V H H C B V H V B B H H V ",
"K H C H H H D H H A & J T T T m.l.l.l.T T T T T T T T T B.& c.c.b.b.b.v.' : B H S V q k.( q H A M V D H H H H V V V V V V H H H ",
"Z V V V V V V V V H & J T ..o.T T T T T T T T T b v k T m.; c.b.b.b.] W : : N V V S q g.q H K H B V H H H H A V V H H V V H H H ",
"H V B H H H B M B C & J T  .o.o.o.-.:.@.n n n b z z k T B.& W W W W W W r + M V w q k.d.q H K H D S H H S V C H H H A S H H H H ",
"V V V H H B N N H H & J T  .o.y.t.w.e.w.O.m b v z v k T B.& + O + + + d h r + M V q g.q Z H K H V V V V V B V V C V B V H H H H ",
"9 w M N w w 8 w M M & J T ..o.e.e.e.e.e.+.m m v z z k T z.& s d d d d j f d + w q k.d.w a M N w w w w w w w w w a w w w w w w w ",
"6 , , 8 w 8 8 8 8 w & J T } X.o.o.2.e.q.*.{ b v z z k T l.& s d d d f f f d + 8 q g.q 8 8 8 8 , 6 , , 2 8 8 8 8 8 8 8 8 8 8 8 8 ",
"V B B V N w M D D B = J T >.%...o.o.e.4.o.{ b $.=.p.s.T l.& h h h h h h h d + q k.d.q M B D D V V V B B V V V H H V V V V V B V ",
"L I U U P H L U Y U & J T 4.e.7.&.o.e.6. .{ u.a.e.z k T l.& f h h f h h h d O q f.q U U U U U L I I I L I U U R U I U U U U I U ",
"L L I I K L U U L L & J T b { e.s.o.e.4.>.i.e.6.z z k T l.& & h h h h h Q * q l.d.q U I I U U L L L L L I I I U I L I I I L L I ",
"H C B Z H P K K N S & J T b [ | X.X.e.4.4.0.b b c x p.T j.& t & Q Q Q Q Q * ) f.q D V N V D D S D D V C H H V V H V B V V B V H ",
"V B V H V B B V V S & J T p.#.@.| ..e.4.6.m n 1.9.s.c T z.& & j & & ! h d r ` _ y V w M V C V B V H H C H H V V C B V B B N V D ",
"N M V H V N B D C D & J T n w.w.>.| e.4.2.t.u.s.z z :.T l.& r & j j & n.R + ^ ` _ * M B H H H V V H D S H H A V B B V V C V B V ",
"B B D K H V H K K D & J T y.n n e.[ e.<.<.e.q.z ;.i.q.T T & G G & & ~ h.R O * ) _ - M F K P H V B H H D V V H H V V H H H D V V ",
"H H L K H V H H C C & J T 8.p.p.n n e.<.3.z x p.r.8.k T T & 0 0 x.4 & R R + * ) _ = V H L K H V V H H H H H H H D D H H K H H D ",
"H K K H H C V D B V ; J T z $.,.p.@.e.5.2.s.s.z v z k T T & O O T T T O + + = ^ ) * A H H K H V V H H D V H H V V V H H H C V V ",
"B B V B B B B V V B & J T z z b b e.e.e.e.z z z c c T T T & d d d + d O W W * * * B B V V H H F H K H V V H C V D V V H H V V B ",
"V V V V V V D V H H D & J T z b v q.e.e.z z z z c T T T ; d r O O O O O W W W : C C C V V D A C H D B B B H H V S A H V V V V V ",
"H K K H H H H H H V V H : J T z z v e.,.z z c c T T & & O + + G G 6 > % : : : D H H H H H H H F V B N B H H H H V H H H H H H V ",
"H L K H V V D V B N M V Z & J T x z e.c z z c T T & + O O < 6 G & & & % * 9 9 9 C V V V H H H H D V V H K P H Z D H H C V D V B ",
"H H H V B V D H V B V H H V & J T v e.;.c c T T & & r r r ; & & t j ~ ; 9 9 9 y 9 9 V Z H H H H D H H L K H Z V H H H V B B B M ",
"H H V B V H H H H H H L L H F & J T T T T T T = & r r t t & e t t f ~ & y 9 9 9 y 9 9 H H H V V B V H H H D V V D D V V B V V N ",
"H H C B F K H V B V H H H H V V & J J T T T & # ; r r t t & e t t t j & 9 9 9 9 9 9 9 y H A N M N B C F V B V V V B V V C D H H ",
"V H H V H H B M w w N V V V V V V & & & & & @ & r r t t r & e t t t t & y 9 9 9 9 9 9 3 H V B V V K K F H D H H V V H V V V H H ",
"N D V N V H V w w M H K H S H H K 9 9 9 @ l @ & r r t r e e & t t t t & y 9 9 9 9 3 9 9 D D H K K H H V H H V H H H V V V B H H ",
"V H H M V K B w M H L L P H H K C 9 9 3 3 @ @ & r r t t r & & t t t t & ; 9 9 y 9 9 9 9 H S H H H H V V H H V V F H V V H H H H ",
"H H S V H H V w V K U I H H H H V 9 9 9 y y i 9 & r r t t r & t t t t t t & : 9 9 9 9 y H H A Z V V C H H D V V V C H H H H H K ",
"H V B B H H V N H L I K V V V V C 9 3 9 9 i y 9 & & r r t t & r t t t j ~ ~ & 9 9 9 9 y H H S V V H H H H H V B H H D H V V V V ",
"H C V B H K H C H K K A N V H V H B 9 9 9 9 y 9 9 9 & & & & & r r t t t j f ; 3 9 9 9 H H H C V V H V B H H H V H V V B B V V V ",
"H H H H H H H H H P H V B H H H H V H 9 y 9 y 9 9 9 9 9 9 y 3 & & & & & & & 9 9 9 9 H V H V V V H V N B H H D V S V B V V H C H ",
"H P H A H H H H A Z C V B A P H H V F H V 9 9 y 9 9 9 9 9 y 3 1 9 a i 9 9 9 9 9 A Z A C V V V V H H B V H C B D A C V A H H H H ",
"V H Z V B H H V V V B B V H K H D B V V B M B V V 3 9 i i 9 2 1 9 i i 9 9 V V V H H H V V V V V H V V K L K A V H H V H H H H H ",
"H H H V C H H C V V H H H H H V V B V V B B V V M N H H H D M 8 V U I D D H H H H H B V V V D H H V V H K H H H H C V H H H H H ",
"L K H H Z C H H H H H H H H H B B N B B N S D V M B H H H V w 8 B I L V V H C H H V B B D H H H H H H V F Z V V H H H H H H H H ",
"P H H V V V C H H H H H A H C B N V H H D D D V S H K H D V w 8 B I I V B V V C K V N C H H H H H H H V V V V V H H V A V V V V ",
"H V V V V B V H H H H H V V S B V H H H H H H H H K L H D D w 8 V U I V V V D H H V V H H H V C V H H V Z H H H V V V Z V B B V ",
"H V V V V V H H H V H H H H A V V H H H V H K H H K L K H H M 8 V U I H A H F H H V V H K H V H H V V V C H H V V V H H V V V D ",
"H H A H H H H H H H A H H H H V A H H C B H H H V H H H D C w 8 V I L V V V D H H V B H H Z V H H C V B V V V V H H H H H D D H ",
"H H V V V H H H H H Z C V C D V Z H H H H H K H B V H V B N w 8 B U I V V V H V C V B V V V Z H V V V V A V C H A S H H H V H H "
};
