/* XPM */
static char *cHI3[] = {
/* columns rows colors chars-per-pixel */
"64 64 143 2 ",
"   c #000000",
".  c #080A07",
"X  c #070908",
"o  c #080A09",
"O  c #1D0F0E",
"+  c #1B100E",
"@  c #180717",
"#  c #170616",
"$  c #0F1515",
"%  c #101415",
"&  c #1D131E",
"*  c #26191E",
"=  c #2B1D1D",
"-  c #221F16",
";  c #311210",
":  c #232017",
">  c #1D1220",
",  c #261920",
"<  c #1C2222",
"1  c #2E2E2E",
"2  c #302826",
"3  c #342D2B",
"4  c #39312F",
"5  c #2E2A31",
"6  c #333333",
"7  c #3D3533",
"8  c #31313D",
"9  c #3B313A",
"0  c #3C3C3C",
"q  c #421E06",
"w  c #4B2B14",
"e  c #63351D",
"r  c #413936",
"t  c #443C3A",
"y  c #704324",
"u  c #744D2D",
"i  c #7E4E20",
"p  c #74502C",
"a  c #744A31",
"s  c #534C2F",
"d  c #06145F",
"f  c #281E41",
"g  c #040F69",
"h  c #051162",
"j  c #03106D",
"k  c #061275",
"l  c #07127A",
"z  c #09137B",
"x  c #413F40",
"c  c #454545",
"v  c #484846",
"b  c #4D4D4D",
"n  c #504E4F",
"m  c #4E504F",
"M  c #51514F",
"N  c #4E4E50",
"B  c #514F50",
"V  c #4C5153",
"C  c #495058",
"Z  c #525252",
"A  c #5E5252",
"S  c #565857",
"D  c #595758",
"F  c #5A5A5A",
"G  c #605252",
"H  c #60605E",
"J  c #636363",
"K  c #6A6A6A",
"L  c #726B7D",
"P  c #737373",
"I  c #804D22",
"U  c #99423B",
"Y  c #996E37",
"T  c #9A6F38",
"R  c #996B4A",
"E  c #877E7F",
"W  c #CC8565",
"Q  c #E4A57C",
"!  c #0C1780",
"~  c #0E1982",
"^  c #131E87",
"/  c #16218B",
"(  c #1B2690",
")  c #1D2892",
"_  c #212D96",
"`  c #232E98",
"'  c #1C47A3",
"]  c #1750A7",
"[  c #224AAD",
"{  c #2D4EAB",
"}  c #2958A6",
"|  c #285FAF",
" . c #2257A3",
".. c #314EB2",
"X. c #274CB7",
"o. c #2D4EC2",
"O. c #2D50C4",
"+. c #3457CD",
"@. c #3555D2",
"#. c #3959D6",
"$. c #2461C5",
"%. c #2664CB",
"&. c #2C63C7",
"*. c #2A69D4",
"=. c #2F68DC",
"-. c #316DD5",
";. c #316DD9",
":. c #3270DC",
">. c #3E59E6",
",. c #3176E8",
"<. c #3D68F3",
"1. c #3578F2",
"2. c #3879F7",
"3. c #3D76FE",
"4. c #3A7CFF",
"5. c #3A70F4",
"6. c #425CEF",
"7. c #455FF2",
"8. c #4163EB",
"9. c #4A63FE",
"0. c #466AFF",
"q. c #476AFB",
"w. c #4271FF",
"e. c #877E81",
"r. c #AF9A97",
"t. c #B19997",
"y. c #B29A98",
"u. c gray71",
"i. c #C4B59E",
"p. c #C4B5A0",
"a. c #A8C3B0",
"s. c #CFC586",
"d. c #D0C688",
"f. c #F9D6BA",
"g. c #F8D6BA",
"h. c #FAD6BA",
"j. c #F8D5B7",
"k. c #DCDCDE",
"l. c #E5E6C7",
"z. c #E6E7C8",
"x. c #FBEDE7",
"c. c #F1F8F9",
"v. c #FFFFFF",
/* pixels */
"b Z Z Z D D Z Z Z b Z Z b b N v B Z V b D Z v v b N b v Z Z 0 6 Z J F b b M Z Z Z D Z N N Z m v b v v Z Z Z v v Z F D Z N b v b ",
"Z D D Z Z Z Z V b b S D M v b N Z Z b b Z b x c b N Z b Z Z c 0 Z K H b V Z Z Z b b b v v Z Z Z N b v b Z b v v S F S Z Z Z N N ",
"Z S Z m b Z Z b b b Z F Z Z Z Z Z Z b v Z b v c v b b b b V 0 0 Z J D b Z Z Z b v v b v N Z D Z Z Z b b Z Z b n S F Z Z Z Z N Z ",
"b Z b v v Z b n n v b Z Z Z D Z b N b b Z n v b S Z N b N N x 6 b H D b b Z Z b b n V B Z Z Z Z Z Z N N Z Z b Z Z Z B B b b b Z ",
"b Z n v v Z Z Z b v N Z m N Z Z v b v b b Z M n S Z Z Z Z Z v 0 B J F n B Z m b Z Z N b Z Z n b Z b b N Z Z N N v b V Z b v b N ",
"B Z Z b b N Z Z b b Z Z b v b v b b Z Z b b b Z N v     o o     v F D b n Z Z b b N Z Z Z Z M b b v c v N b v b v n Z S N b Z Z ",
"b Z Z b b N Z Z V b Z D b v b b Z Z Z Z Z b Z   o % % $ % % % $ <     b Z Z Z m v N Z Z B Z V b N v v v Z N b b Z Z D D N Z Z Z ",
"b b V M Z Z Z Z Z n Z Z Z N Z Z Z Z Z Z b Z   o   o < < % < 8 < 8 o %     Z Z b v b b N v v b N Z b v N S S B N b Z D Z v b Z v ",
"Z Z Z Z Z Z Z Z Z b M Z Z n Z Z Z Z Z b   o o   o < < 8 N < C C 8 < 8 < %   v v v N b v v b v b Z M M Z D Z Z b Z Z Z Z Z b b b ",
"Z Z Z Z b b b Z M n n V n b b Z Z Z B   o     o $ < 8 C < 8 < < C 8 C 8 <   b b N Z Z V N b b b Z Z M n Z Z b b M Z n Z Z b b M ",
"Z Z Z Z b v b b b v b b b b Z Z B M b b   o % < < 8 8 < 8 8 C < $ 8 < C 8 o   N Z D D Z Z b v Z F Z b b b b b v Z Z 9 9 9 b b Z ",
"D D Z b b N b Z b b b b m Z Z Z Z M b   % % < % < 8 C $ 8 C < 8 < C $ < C %   b b Z B v b b B Z F Z b b b V M Z Z 9 d.d.9 Z b b ",
"D Z Z V Z b Z Z Z Z b b Z Z b b n b   % o   o < 8 8 C o < C % 8 C < < % < o % v c v v v v b Z Z Z M b n Z Z D Z 9 s.y.9 Z Z b b ",
"Z Z M b b B Z Z Z n m b b Z n b V   % o   o % 8 o C < 8 o < % < C < % < <   o   c b b M B V Z Z Z n b b B Z b 9 s.y.9 b m N b Z ",
"b b b b b n b v v b Z Z b b Z Z Z b b B   % < o % < X 8 % o < 8 < % % < % 8 % o N D D S Z Z Z Z b b b b b v 9 s.y.9 b b b b n Z ",
"b v b b V N b v v b Z Z b b b Z Z b b b   % o   < o $ < %   8 <   < o % o < 8 % V Z D Z D Z Z Z b v b M Z 9 s.y.9 Z Z Z Z b Z Z ",
"b Z Z Z Z Z v b b D F Z v v Z Z D Z b   o o   % %   % <   < < %   % h.h.  o < $ Z Z Z Z Z Z Z Z Z b Z Z 9 s.t.9 Z F D Z Z Z Z Z ",
"b Z Z Z Z Z b N Z F F S b V Z Z D Z N   $     % o o   %   8 %   h.  h.h.o   o   b Z Z Z b M Z M b b Z 9 s.y.9 m Z F S Z Z Z b b ",
"Z Z Z Z Z N b Z Z Z Z Z b b b Z Z b v   o     o   % .     C   h.h.h.h.h.g.o % b b b m Z b b n b v b 9 d.y.9 n n S Z M c v b b b ",
"Z Z Z Z b b v b b b b b b v b Z Z b v     o     % $   h.  <   x.x.g.g.g.g.%   b b v b Z b Z V Z v 9 s.y.9 M b b Z Z b c v b b b ",
"b B N v b b v v v b b N Z b Z Z D Z N   ,   o   $ h.Q Q   $ W U U Q h.g.h.$   N Z b N Z Z Z Z Z 9 i.y.9 b M b b Z Z N N Z D Z Z ",
"Z Z Z Z Z b b N B N N B Z n n Z S b M Z b   o o h.h.g.Q h.o I i , , h.h.h.o v Z F Z Z Z Z Z Z 9 i.y.9 Z b b b Z N Z b b Z Z Z Z ",
"Z Z Z Z Z Z Z Z S S > , & b b b b c v b v   o   W h.Q & &   c.c., s h.g.g.  b Z S N b Z Z Z 9 i.y.9 M b Z b V Z Z b v c v b b V ",
"Z Z b b Z Z b N Z Z & l.i.& & b b c c c & >   , & & & i.l.& g.c.- - g.h.g., v Z B b b Z Z 9 i.y.9 b Z m Z Z n Z Z Z v v b n M Z ",
"Z Z v b Z N b b n Z & A L p.p.& & & & & & & & & L L L L v.& h.g.g.g.h.g.Q , B n n b B B 9 i.y.9 b b b b Z Z Z b Z Z Z b Z F D Z ",
"F Z v b Z Z Z b Z Z & A L L L z.i.i.p.L L L L L L L L L v.& h.h.g.g.h.W , Z N b N b b 9 i.y.9 Z v v b b Z Z M b b Z b v v Z Z N ",
"D Z N Z Z Z Z V Z N & A L ( ` L L L L L L L L L k j d L l.& h.j.g.Q U , * b b Z b b 9 i.y.9 Z b v b n Z Z Z Z b b b b b b V Z Z ",
"m b b N b b v b n Z & A L ( ` ` _ o.@.[ l l k k j j d L v.& U U U U U w O b v b b 9 i.t.9 Z D Z v b Z Z Z Z V b b Z Z b b Z Z Z ",
"Z b v Z Z V v c v b & A L ( _ 8.6.3.4.w.' z k j j h d L v.& + O O O y p w O v v 9 t.t.9 b Z Z Z N N Z Z N b N Z Z Z V b Z Z Z D ",
"b b b Z Z b c c S Z & A L ( _ 4.2.4.4.4.] ! k k g g d L i.& y y y y p p y O c 9 r.e.9 b N Z D V b b b b b v b b V b v b M Z Z Z ",
"6 0 c v 0 7 0 0 c c & A L / ) _ ` *.4.2.| ~ k j g g d L i.& y y y p p p y O 9 t.E 9 c c c c v x 0 0 0 0 0 0 0 0 t 0 0 0 x 0 0 0 ",
"6 1 1 6 0 6 6 6 6 0 & A L @...) ` ` 4.:.( ~ k } o.w.w.L i.& u u p p p u y 9 t.E 9 6 0 7 6 6 6 1 6 1 1 1 6 1 6 6 0 6 6 6 6 6 3 6 ",
"b v b b c 0 c N m b & A L -.4.>..._ 4.:.) z 8.q.w.g d L i.& p p p p p p 9 r.e.9 c c c v v N b b v b v v b b n Z Z b b b b v b b ",
"F J K K S N H K K K & A L l ~ 4.3._ 4.-.=.9.4.:.h g d L i.& p p p p p T y e.9 H K K K K K K K H K J H H J K K P K J K K K K J K ",
"F F J H D F K K J H & A L k ! / ) ) 4.:.-.1.z j j j q.L u.- & Y Y Y Y T w 9 Z S K K K J J K K F H F F F H J J K J F J J J H F J ",
"Z b b N Z S D S v v & A L 0.{ [ / ) w.-.:.z z &.<.w.d L i.@ a & & T p y w + b Z S N b v b Z N N N N N N Z Z b b Z b v b b v b Z ",
"N v N Z b v v b v b & A L k 4.w.#./ 4.-.;.8.>.w.h g @.L i.& & a a , k.P + V B F Z v x c b M b b v N B N Z Z b b b b b v v v b N ",
"c c b Z b v v Z V Z & A L 9.k l 4.! 4.%.%.4.2.j @.9.2.L L & C & > R u.P O D Z D Z v c v Z Z b b b Z N N Z Z n n v v b N N b v b ",
"v v N S Z M Z D Z Z & A L ,.0.q.l l 4.%.*.g g 0.5.,.d L L & 8 a.5 & P P + b v b N v v m D Z Z b v B Z N b N V Z b b N Z Z N b b ",
"Z Z F D Z m Z Z Z V & A L j } $.0.[ 4.;.=.3.0.g g g d L L & O L L L O + O Z b Z Z b b Z F F Z b N Z S Z Z Z Z Z B N Z Z S S Z N ",
"Z S D Z B N N N b b & A L j j k k 3.4.4.4.g g g h h L L L & ; ; O ; ; w O Z Z M b B Z Z Z D Z m N Z Z B b Z Z b b b Z Z Z N b b ",
"v b N v v v b b b v v > A L j j k 2.4.4.g g j g h L L L > y y y O y y w O Z b b v v b v b Z Z V Z D Z b b b Z b N N b Z Z b b v ",
"b N b b b b b b Z N Z Z & A L j g g 4.$.g g g d L L & & y w O O O O O O O b v b N B N b b b Z N Z b v v b V b B b Z B b b b b b ",
"Z S S Z B Z Z B Z N b Z Z > A L g g 4.g g g h L L * + + O O O & & e a R & n b n Z Z Z Z Z Z Z Z b v v b M Z Z Z b Z Z Z Z Z Z b ",
"S F F Z N N N b v v c b N v & A L g 4.&.g h L L & & & & e a R & & w e a & 7 r n N b b m Z Z Z Z Z b N Z D Z Z Z Z Z Z N b N b v ",
"Z Z Z b v b b Z b b b Z Z b b & A L L L L L L & w q & e e a R & w w w e & 7 4 r 7 b b b Z Z Z Z N Z Z D F Z Z b Z Z Z b v b v c ",
"Z Z b v b Z Z Z Z Z Z F F Z Z Z & A A L L L & w w w & e e e a & w w q > = r 4 7 7 7 Z Z Z Z b b v N Z Z Z B b b N V b b v b b v ",
"N Z N v Z D Z b v b Z Z Z Z b b b & & & & & & e w & e e e e e & q & & * * 7 7 7 7 7 7 Z Z b v v v v b Z v b b b v b b b N N Z Z ",
"b Z Z v N Z v c 0 0 v b N v N N M 7 7 @ f @ & e w & e e e e & w & = = r r 7 7 7 7 7 7 Z Z b v b b Z D Z n Z Z Z b Z Z b b b Z Z ",
"v N N v B Z b c 0 x N S Z N Z Z S 7 7 4 @ @ 7 & q & e e e e e & & t t 7 7 7 7 7 7 7 7 b b Z Z D S S Z b Z Z b M n Z m b b v B Z ",
"b Z Z v N Z b 0 c N H H D Z Z Z N 9 7 7 4 4 7 & & & e e e e e e & * t 7 7 7 7 7 7 7 7 b Z Z Z Z Z Z b b Z Z b b m Z b b Z Z Z S ",
"Z Z N b N S v 0 b S K H Z Z Z Z b 4 7 7 7 r r r 7 & w e e e a R R & t 7 7 7 7 7 7 7 7 Z Z Z Z n b b N Z Z n b b b n Z Z Z Z Z Z ",
"N b v v Z S N v Z F J S b b N b N b 7 7 7 t t 7 7 & w w e e e a a & t 7 7 r 7 9 4 7 Z Z Z Z M b b Z Z Z Z N b b Z Z Z N B N b b ",
"Z Z b v Z Z Z B Z D D Z v N Z b Z v v 7 7 7 7 7 7 7 & & & & & & & & t 7 r 7 7 7 7 b Z Z Z Z M b b Z b b Z Z V b Z B v b v b b v ",
"Z S Z Z Z S Z B Z Z Z b v Z Z Z Z b Z Z Z 7 7 7 7 7 4 7 7 r 4 2 7 t t 4 7 r 7 v B Z Z N b b b b Z b v v Z Z N b N b v b b Z Z N ",
"Z Z Z B Z Z Z N Z Z b b b Z Z Z Z N Z Z b b N N 7 7 7 7 0 r 3 2 7 t t 7 b b N b b Z b b b b b m Z B v N Z N v Z Z b b b Z S Z Z ",
"b Z Z v b M Z b b v v b v Z D Z b b b N v c v b b v M Z D Z 0 6 n K J N b b b b B Z Z b b b b N Z b b S F D Z b Z Z n Z Z Z Z Z ",
"Z Z Z Z b Z Z n b N Z Z Z Z Z V N b b v v v b b c v Z D Z b c 6 b K J Z Z Z Z Z Z B b b b b N N Z b b Z S Z Z Z Z N b Z Z Z Z Z ",
"F D Z Z B b Z Z Z Z Z Z Z Z Z v v v b v v N N b c v Z Z Z V 0 6 v K F B b M n Z S b v v N Z Z Z Z Z Z b n M m b Z Z Z Z Z m Z Z ",
"S Z b Z b b V Z Z Z Z Z N Z B v v v Z n N Z Z b b Z F Z b n 0 6 v J F b b b n V S b v Z Z Z Z Z Z Z Z b b b b b Z Z b m b b b b ",
"Z b b b b v b Z Z Z Z Z N b b v b Z Z Z B Z S Z Z D H Z Z N 0 6 b J J b b b Z Z Z b b Z Z Z b Z B Z Z b Z Z Z b b b b b b v b v ",
"Z b b b b b Z Z Z Z b Z Z Z Z b n Z Z Z b B D Z Z S F S Z Z c 6 N K J Z b M n Z Z b b Z Z Z b Z b N b b b Z Z b b b B Z b b b Z ",
"Z Z N Z Z Z Z Z Z Z Z Z Z Z Z b M Z Z N b N Z Z b N S B N b 0 6 b J F b b b M Z N b v Z Z Z b Z Z b b v b b b b Z Z Z S Z N B Z ",
"Z Z b b b Z Z B Z Z b Z b b N b n V Z Z Z Z S Z v b Z b v v 0 6 b K J b b b Z b b b b b b b b Z M b b N Z b N Z b Z Z Z Z b Z Z "
};
