/* XPM */
static char *cHI4[] = {
/* columns rows colors chars-per-pixel */
"64 64 143 2 ",
"   c #000000",
".  c #080A07",
"X  c #060A09",
"o  c #080A09",
"O  c #1D0F0E",
"+  c #1B100E",
"@  c #0F1414",
"#  c #101415",
"$  c #1D131E",
"%  c #30110F",
"&  c #2B1D1D",
"*  c #311210",
"=  c #232017",
"-  c #1D1220",
";  c #261920",
":  c #1C2222",
">  c #2F2F2E",
",  c #302826",
"<  c #352C2B",
"1  c #2D2532",
"2  c #3B2F39",
"3  c #2F313D",
"4  c #333333",
"5  c #3D3533",
"6  c #31313D",
"7  c #3B313A",
"8  c #3C3C3C",
"9  c #3E3935",
"0  c #4B2B14",
"q  c #63351D",
"w  c #403836",
"e  c #403738",
"r  c #443C3A",
"t  c #7E4E1E",
"y  c #534C2F",
"u  c #43413E",
"i  c #6F4424",
"p  c #704324",
"a  c #7E4E20",
"s  c #744B2F",
"d  c #74502C",
"f  c #744A31",
"g  c #06145F",
"h  c #040F69",
"j  c #051262",
"k  c #03106C",
"l  c #061275",
"z  c #07127A",
"x  c #09147D",
"c  c #454544",
"v  c #464847",
"b  c #494748",
"n  c #474948",
"m  c #4D4D4D",
"M  c #504E4F",
"N  c #4E504F",
"B  c #51514F",
"V  c #4E4E50",
"C  c #4B4F58",
"Z  c #514F51",
"A  c #4F5150",
"S  c #495058",
"D  c #525252",
"F  c #5E5252",
"G  c #575759",
"H  c #5A5A5A",
"J  c #605252",
"K  c #636363",
"L  c #666668",
"P  c #6A6A6A",
"I  c #726B7D",
"U  c #737373",
"Y  c #99423B",
"T  c #996E37",
"R  c #996B4A",
"E  c #CD8565",
"W  c #E4A57C",
"Q  c #0C1780",
"!  c #0E1982",
"~  c #131E87",
"^  c #16218B",
"/  c #1C2691",
"(  c #1D2892",
")  c #222C97",
"_  c #242D9A",
"`  c #1C47A3",
"'  c #1851A8",
"]  c #224AAD",
"[  c #2C4FAB",
"{  c #2058A3",
"}  c #2958A6",
"|  c #285FAF",
" . c #274CB7",
".. c #314EB2",
"X. c #2E4DC2",
"o. c #2D50C4",
"O. c #3457CD",
"+. c #3555D2",
"@. c #3A5AD5",
"#. c #2562C4",
"$. c #2664CC",
"%. c #2D64C8",
"&. c #2C6AD3",
"*. c #2D69DA",
"=. c #316DD6",
"-. c #316DD9",
";. c #3171DC",
":. c #3E59E8",
">. c #3176E8",
",. c #3D68F3",
"<. c #3578F2",
"1. c #3879F7",
"2. c #3C76FD",
"3. c #3A7CFF",
"4. c #3A70F4",
"5. c #425CEF",
"6. c #455FF0",
"7. c #4162EB",
"8. c #416AF6",
"9. c #4964FE",
"0. c #466BFF",
"q. c #4260F4",
"w. c #4271FF",
"e. c #B19997",
"r. c #B39998",
"t. c gray71",
"y. c #C4B59E",
"u. c #C3B59E",
"i. c #A8C3B0",
"p. c #CFC587",
"a. c #D0C587",
"s. c #D0C688",
"d. c #F9D6BA",
"f. c #F8D6BA",
"g. c #FAD7BB",
"h. c #F9D5B9",
"j. c #FAD6BC",
"k. c #DBDDDC",
"l. c #E5E6C7",
"z. c #FBEDE6",
"x. c #F2F8F6",
"c. c #F2F8F8",
"v. c white",
/* pixels */
"m D D D H G D D D m B D M m m m D D D m D D v b m V m v D A 8 > G L H N m D D D D D D m m D B m m m v m D D v v m H G B B m m m ",
"D G G D D D D D m m G G B m m m D D m m D M c u m A V V D D c 9 G L H m A D D D m m m m m D D A m m v m B m b m D H G D D D m m ",
"D G D B m m D m m m D H D D B D D D m m D m v u m m V m V A u 4 A K G m D D D m b m m m m D D D D Z m m D D m m G H D D D D B D ",
"m D m n m m D m m n m D D D D D m m v m D B m m D D m m V A u 8 m K G m N D m m m m m m D D G D D D m M D D M D D D D D m m m D ",
"m D m v m M D D m m B D D m D D b m m m A m N A G D D D D D c 4 B K H m B D D m m D D B D D B m D V m m D D m m m m B D m m m m ",
"M D D m m D D D m m D D m v m m m m m m m m N D m m m D D D c 4 n H G m m D D m m D D D D D m m m m c v M m m m m m D G M m D D ",
"m D D m m m D D m m D G m m m m D D D D D m D D     o o     c 4 v G G m D D D m b m D m D D M m m m c m D D m m m B G G D D D m ",
"m m B B D D D D D m D D m Z D m D D D D A   o # # # # # # # :     H D m D D D m v m Z m v m m m m m v m G D B D m D D D m m m m ",
"D D D D M D D D D m D D D D D D D D D m   o   o : : @ : 6 : 3 o #     D D m m n b m m m m m m m D m D D G D m m D D D V D m m m ",
"D D D D m m m D D m m m m m m D D D   o o   o : : 3 S : S C 6 : 6 : #   D D m m m D D M m m n m D D V B D D m m B D B D D D m m ",
"D G D B m m m m m m m m m m D D D   o     o # : 6 S : 6 : : S 6 S 6 :   D D D M D G D D B m m m H D m m m m m m D D B m D N m D ",
"G D D m m m m D m m m m m D D D D Z   o # : : 6 6 : 3 6 S : # 6 : S 6 o   D D m B D m m m m M D G D m m m B D D D G D V D D m m ",
"G G D B m D D D D m m m D D m m V   # # : # : 6 S # 6 S : 6 : S # : S #   D m c c v n c n M D D G D m B D D G D G D D D D D m M ",
"D D m m m D D D D D m m m D D m   # o   o : 3 6 S o : C @ 6 S : : # : o # m b v c m m B B B D D B m m m Z m m m D B m m m m m D ",
"m m m m m m m m m m D D m m m   @ X   o # 3 o S : 6 o : @ : S : # : :   o   Z m M G G G D D D B m m m m m m v c m m m m m m m D ",
"n m m B D m b v v m D D m m D D D V   # : o # : o 6 # o : 6 : # # : # 6 # o D m B D G D G D D G m m m B D D m m B D D D D m D D ",
"m M D D D D m m m G H B n m B G G B   # o   : o @ : @   6 :   : o # o : 6 # Z m D D D D D D D D D m D D D G D D D G G D D D D D ",
"m D D D D D m m D G H G m m B G G   o o   # #   # :   : : #   # d.j.  o : # Z m B D D D m B D D m m D D D D D B D H G B B D B m ",
"D D D D m m m D D G D D m m m B D   #     # o o   #   6 #   d.  d.h.o   o   m m m m V D m m m N v m D D D D D m G G B c v m m m ",
"D D D B m m m m M m m m m n m M D   o     o   # o     S   d.d.d.d.d.j.o # m v m m m m D m D B D m n D V m D m m D D m c v m m m ",
"m A m m m m v b m n m m D m D D G     X     # #   d.  :   z.z.f.d.d.d.@   m n m D m m D D D D D m m D m m D m m D D m m D G D D ",
"D D D m D D m m D D m D D B B D D   ;   o   @ d.W W   # E Y Y W d.d.h.#   B m D D D D D D D D D m m D B m m m Z M D m m D D D B ",
"D D D D D D m D G D D D D m m m m v n   o o d.j.f.W d.X t t $ & d.d.d.. G D m D D m D D D D D D m m M m D A m D D m v c m m M B ",
"D D B m D D m D D D D D D D m m M c v   X   E d.W W d.  c.x.& y d.g.d.  G Z m D D m m D D D D D v b D M D D D D D D b v m m D D ",
"D D m m V m m m Z $ $ $ D G D D B M m m   ; Y Y W W $ $ $ c.& & g.d.d.; A V D m m M N D M D D D m m m A D D D 7 7 7 7 m D G G D ",
"H D v m D D D m D $ l.u.$ $ D N m D D $ $ ; ; $ $ $ u.l.$ d.f.f.d.d.W ; D D N m M m m m m B D D c m m m D 7 7 y.a.s.7 b m D D N ",
"G D m Z D D Z Z D $ F I y.y.- - $ $ - $ $ $ $ I I I I v.$ d.d.d.d.E ; A Z m m D M m m n m m D m v m A 7 7 u.p.7 7 7 m m m N D B ",
"B m m m m m m m Z $ F I I I l.y.y.y.I I I I I I I I I v.$ j.d.W Y ; ; D D m v m m m B M m D G D b 2 7 y.p.7 7 m M D D m m D D D ",
"D m m A D A n v m $ F I ( ) I I I I I I I I I l k j I l.$ Y Y Y Y 0 O 8 m Z v m 8 c v b m D D 2 7 y.p.7 7 V V A D V A A D D D D ",
"m m m D D m v v Z $ F I / ) ( _ o.+.] x z l l h k g I v.$ + O O i d 0 O c v u c v m m m Z 7 7 y.y.7 7 m m n m A V m m m D D D D ",
"9 8 u v 8 8 4 8 u - F I / _ q.7.2.3.w.` x l k k k g I v.$ p p p d d i O 4 8 9 c c c v 7 7 y.y.2 6 8 8 8 8 9 8 u u 8 8 8 u 8 u 8 ",
"> > > 6 9 4 4 4 4 - F I / ( 3.3.3.3.3.' Q l l j j j I y.$ p i d d d i O 8 4 > > 4 7 7 r.y.7 2 > 4 > > 4 4 6 > 4 4 4 > 4 4 4 > 4 ",
"m n m m c 8 c m m $ F I ~ / ) ) *.3.4.| ~ l k k h g I u.$ d d d d d i O 6 D b 7 7 e.r.7 7 V A n n m n n m m m D D m m B B m n m ",
"H K P K G D H U P $ F I @.../ ) _ 2.-./ x l } X.0.2.I u.$ d d d d d i + c 7 7 e.r.7 9 L L L P K L L K K K P P U P L L L P L K P ",
"H J K K G H L P K $ F I =.2.:. ._ 3.=./ ~ 5.8.2.k g I u.$ d d d d T i 2 7 r.e.7 7 P L K L P P J K H G G K K K L K K H K L J H K ",
"D N m B D G H D b $ J I l ~ 3.2._ 3.=.=.9.3.;.j h g I u.$ T T T T T 0 u.y.7 7 D D D m v m D D m m m m m D D M N m m m m m n m D ",
"N m m A m b m m b $ F I l Q ^ ) ) 3.=.=.<.l h k h 0.I u.$ $ $ T d p 0 7 7 B D H D m 8 u m m m m m D D D D D m m m m m m n n m N ",
"v c m D m v v M Z $ F I 0.[ ` ~ / 3.=.;.x l O.,.w.g I u.$ f f $ k.U 7 G H G D H D v c m D D M m m B D m D D m m v v m m N m m m ",
"n n D D D m D G D $ F I l 2.2.+.^ 3.=.;.7.5.2.h h +.I u.$ $ $ R t.U O D B m n m m v u M G G D m m N D m m m D D m m B D D D m m ",
"B G H G D M D D Z $ J I 9.z x 3.x 3.$.$.3.1.h +.9.<.I I $ i.1 - U U + m m B m D D B N D G H D m m D D D D D D D D m D D G D D m ",
"D D G D B m M M b $ F I >.0.0.z x 3.$.&.k h 9.4.>.g I I $ I I I O + O B D D D Z m m M D D G D m m D D m m D D m m m D D D m m m ",
"m m m n n m n m m $ F I h { #.0.] 3.-.-.0.w.h h h j I I $ % + % % 0 O D D D m m m v m m m D D B D G D m m M D m m m m D D m m m ",
"m m m m m m m M D - F I h h l z 3.3.3.3.h h h h j I I I $ i + i p 0 O M B m m m m D m m m m D M D M m v m m B m D M D m m m m m ",
"D D G G B D D B D m $ F I h k k 1.3.3.k h j k j I I I $ O O O O O O O M D m m B D D D m D D D D m m v m D D D D m D D D m D D m ",
"D H D D m m m m v c c $ F I j h h 3.#.h h h j I I $ - O O ; $ q f R $ 5 e D m D D m m m D D D D m m m D G G D B D D D M m m m v ",
"D D D m m m B D m m m D $ F I h k 3.h k h j I I $ q f R $ 0 q q s R $ & 5 5 5 B A m m M D D D B M D G G G D B m D D D m m m v c ",
"D D m m m D D D A D D H G - F I h 3.%.h j I I $ q q f $ 0 q q q q f $ & e 5 5 5 D D M D D D m m n m D D D m m m m D m m n m m b ",
"D D m m B G D m m V D D D A $ F I I I I I I - q q q q $ 0 q q q q $ # & e 5 5 5 7 M B D D M n v c m B m v m m m m m m m m M D D ",
"m D N m M D m c 8 9 c m m m m $ J F I I I $ q q q q $ 0 0 q q 0 $ # & & 9 5 5 5 5 m m D D m m m m G G B D D D D m D N m m m Z D ",
"b D m b M D m 8 8 c N G D D B 9 $ $ $ $ $ $ q q q q $ 0 0 q q q $ & r 5 5 5 5 w 5 m v m M m D G D G B m D D m V N D D m m m m D ",
"m D D n M G m 8 c A H K G D D w 5 5 5 5 $ q q q q q $ 0 0 q q q q $ r 5 5 5 5 5 5 m m m D B D D D D m M D D m m M D m m B D D G ",
"D D m m B D n 8 m G L K D D D 5 5 < 5 5 $ q q q q q q $ 0 0 q f R R $ 5 5 5 5 5 5 m D D D D N D m m B D D m m m m m D D D G D D ",
"D m v v B D m n D H K G m m B 5 5 5 5 5 $ 0 q q q s R R $ 0 0 q s s $ 5 5 w 5 5 5 M D D D D V m m D D D D m m m D D B m N m m m ",
"D m m m D D D M D G G M n m D M 5 5 < 5 $ 0 0 q q q s s $ $ $ $ $ $ w 5 5 e 5 5 m M D D D B m m m B m m D D B m D M m n m m m n ",
"D D D B D G D D D D D m m B D D D 5 5 w 5 $ $ $ $ $ $ $ $ e < < 5 r r 5 5 5 5 m D D D m D m m m D m v b D D D m m m m m m D M M ",
"D G G M D D D D B B m m v D D D B m M 5 5 5 5 5 5 5 5 9 e w < , 5 u w 5 5 m m m m m D m m m m V D B m m D m m m D m m D D D D D ",
"m D B m m m D m m m m n m D G D m m m m v c 5 5 5 5 5 w w 9 < < 5 r K B N m m m D D D m m m m m D m m G H D D m D D N D D D D D ",
"D D D m m D D D m m B B m D D B m m m m b v m m c v D D D m c 4 m P K B B B D D D B m m m m B Z D m m D G D D D D D m D D D D D ",
"H G D D D m D D D D D D D D D m b v m m n m Z m c b D D D Z 8 4 n K H B m D B D G m v m m D D D D D D m D B m m D D D D D M D D ",
"G D D m m m m D D D G D D M m v c m B m m D D m m D H D m m 8 4 m K H M m m m m D m v M D D D D D D D m m m m m D B m V m m m m ",
"D m m m m m m D D D D D m m m m m D D D N D G D D G J G D m c 4 B L K m m m D D D m m D D D m D B D m m m D D D m m m m m m m m ",
"D m m m m m N D D M N D D D m m m D D D m B G D D G H G D D 8 4 m L K D m D D D D m m D D D m D m D m m D D D m m m B D m m m m ",
"D D B D D D D D D D M D D D D m D D D B m N D D m N G D m m 8 4 m L H m m m m D m m m D D D m D D m m m m m m m D D D G D m m D ",
"D D m m m D D D D D D m m M B m M B D D B D G B m N N N m n 9 4 m L K m m m D m m m m m m m m D N m m m m m D D m D D D D m D D "
};
