/* XPM */
static char *pu11680101622[] = {
/* columns rows colors chars-per-pixel */
"64 64 109 2 ",
"   c #000000",
".  c #060B07",
"X  c #080A07",
"o  c #070908",
"O  c #080A09",
"+  c #1D0F0E",
"@  c #170616",
"#  c #180717",
"$  c #160817",
"%  c #180815",
"&  c #180719",
"*  c #170918",
"=  c #1A0818",
"-  c #0F1415",
";  c #101415",
":  c #1D131E",
">  c #25181F",
",  c #2B1D1D",
"<  c #1D1220",
"1  c #261920",
"2  c #1C2222",
"3  c #2E2926",
"4  c #2E2E2E",
"5  c #342C2A",
"6  c #39312F",
"7  c #2D2531",
"8  c #2F313D",
"9  c #333333",
"0  c #3D3533",
"q  c #3D3835",
"w  c #31313D",
"e  c #3B313A",
"r  c #3C3C3C",
"t  c #421E06",
"y  c #4B2B14",
"u  c #63351D",
"i  c #403635",
"p  c #403836",
"a  c #453D3B",
"s  c #45403D",
"d  c #48403E",
"f  c #744A31",
"g  c #08175A",
"h  c #271E40",
"j  c #281E41",
"k  c #272042",
"l  c #040F69",
"z  c #051165",
"x  c #03106E",
"c  c #061274",
"v  c #081176",
"b  c #061279",
"n  c #09147D",
"m  c #454545",
"M  c #494947",
"N  c #494748",
"B  c #4D4D4D",
"V  c #4E504F",
"C  c #51514F",
"Z  c #4E4E50",
"A  c #4D4A5D",
"S  c #514F50",
"D  c #4E5151",
"F  c #495058",
"G  c #525252",
"H  c #5E5252",
"J  c #565857",
"K  c #565658",
"L  c #575958",
"P  c #5A5A5A",
"I  c #615353",
"U  c #61615F",
"Y  c #5E5E60",
"T  c #636363",
"R  c #666867",
"E  c #6B6B6B",
"W  c #726B7D",
"Q  c gray44",
"!  c #97423B",
"~  c #99423B",
"^  c #996B4A",
"/  c #A5745D",
"(  c #867D7E",
")  c #C49754",
"_  c #CD8565",
"`  c #E5A57C",
"'  c #0C1780",
"]  c #0E1982",
"[  c #131E87",
"{  c #16228B",
"}  c #1B2690",
"|  c #1D2892",
" . c #222D97",
".. c #232E98",
"X. c #3C4AAD",
"o. c #736B80",
"O. c #466ACA",
"+. c #887F80",
"@. c #609FEE",
"#. c #5FA1EF",
"$. c #5FA0F0",
"%. c #61A0EF",
"&. c #62A1F0",
"*. c #B19997",
"=. c #C4B59E",
"-. c #CFC587",
";. c #F9D6BA",
":. c #FBECE7",
">. c white",
/* pixels */
"B G G G L J G G G B S G B B B B G G D V L G m N B B B N D D r 9 G R P B B G G G J G G V D G S N B N N G G C M N D P L G G B N N ",
"G L L G G G G S B B J L G N B B G G B N G B s m B D D B J G m q K R Y Z S G G G N B B N B G G G B B M B G B N N J P G G G G B G ",
"G G G S G G B B B B G P G G G G G G B N G B M m B B D N Z B s 9 D e L B C G G B N B B N B G J G G D B B G G B S L L G G G G G G ",
"B G B N N B G G B N B G G G L G B G B N G C N B G G D B Z Z m r B e e B Z G G B B B V B G G G G G G B V G G B G G G G G B B B G ",
"B G V M N G G G B N B G B D G G N B B B B S B G L G G G G G m 9 S e -.e G G D B G G G G G G G N G C B D G D B D N B S G B N B V ",
"G G G N B D G G B B G J B N N B B B B D S B S G B B G G G G s 9 N e =.e B G G B B D G V G G D B B N m N D B N B N S G J Z B G G ",
"B G G B B B G G C B G L B N B B G G G G B C G J G N G G G G m 9 M e =.e S G G B N B G V C G G B B N M N G S B B V G L L D G G G ",
"B B G G G G G G G B G G G B G G G G G G B G G J G G L P G S m 9 M e *.-.e J G B M N G V N N B D G B M B J J S C S G L G N B C N ",
"G G G G G V G G G B C G G G G G G G G C G G G G C B G B G V m       e =.e G B M M B B B N N N B G B G G L G G B G G G V G B B B ",
"G G G G B B B G G Z V G B B B G G G Z B G G G G B B B       . . 8 o O       B M B G G V S B B B G G G G G G B B B G S G G G B B ",
"G G G G B N B B B N B B B B G G D C B N B B G Z O     O ; ; ; 2 2 2 ; ; O O   O O L J G G B B B P G B B B N N B G G G B G S B G ",
"L L G V B B S G B B N B B G G G C G B B B G G     ; ; 2 2 2 F 2 F F w 2 w - O   B D V N B B B G L G B N B G G G G L G B V G B B ",
"L J S S C G G G G G B B G G B B B S B           ; 2 w w 8 w w F w w 8 F 2 8 ; .     M M m B G G G G B G G G G L L G G G G G B B ",
"G G S B B D Z G V S B B B G G B G B B V   O O ; 2 w w F F F w w F w 3 ; . . 2 ; O O   B Z G G G G B B B G Z B B G S B B B C B G ",
"B B N B B B B N N B G S B B D G G B B B G   ; O ; ; F 2 3 8 F w F 8 2 k ; ; . 2 ; O O     G G G B B N B B N M m N V B B B B B G ",
"N N B G G V B M N B J G B B B G G B B G G G   O   ; w ; k w F w w Z - 2 w ; ; O O       G G G L B B B G G G B B G G G G G Z G G ",
"B G G G G G B B B L P G B B G G L G B B G G   O   2 O 2 w F w 2 w F 2 - F ; ; O     G G G G G G G D G G L L S G G L L G G G G G ",
"V G G G G G B B G L P G B B G K L G B D G     O   w ; O w F w 2 F 2 w ; 2 O   ;   O o G V B G G B N G G G G S G G L L S S G S B ",
"G G G G G V B G G J G G B B B S G B N     O ; ;   ;   O w F 2 - F 2 w ; ;       O   O   B B B S N N G G G G S B L J S M m N B B ",
"G G G B B B N B V B B B B N B Z G B N N N   O O     O - 2 w F ; 2 ; F ; O ; O   O     G Z V G G B N C G B G B B G G N m N B B B ",
"B S B B B N N B N N B B V B G G G G G D B 1     ; ; ; O - 2 w - O - F ; O ; O   O   > G G G G G B B V B B G B B D G D B G L G G ",
"G G G V G V B B S S C G G V G G G B G D B 1 ;.` O O - 2 O 2 2 O ; ; 2 ; O O       ;.1 G G G G G B B G C B S B G G G B B G L G G ",
"G G G G G G V G J J : : : B B B B N M N M 1 ~ ;.  . 2 8 ; ; 2 O ; O 2 O O   O   ;.~ 1 G G G G G B B V V D C B G G B N m N B B S ",
"G G B B G G B G J G : W W : : : G m m m r m 1 ;.  . - A ; O - O - O - O   O   _ ;.1 B G G G G G N B D V G G G G G G N M B S Z G ",
"G G N B G D B B G Z : H W W W W : : : : : : : 1 !   - 2 O   O ; ;   - O   O   ~ > B C C B G G G B B B V C J G C G G D B G L L G ",
"P G M B G G G B G G : H W W W W W W W W W W W W 1 _   ; O O   O - O O   O   _ 1 S M B : B G G G M N B B C G V M B V B N N G G S ",
"L G B G G G D D G C : H W }  ...W W W W W : : : + ~ _ O   O .   ; O   O   _ ~ + : : : f : B G G M B C G G G C V B B G B N G G G ",
"B B B D B B N B Z C : H W }  . . . .} ] : 7 A A : + ~ ~   O O O O   O `   ~ + : A : t f ^ : G G m B G G G G V V B G C B B G G G ",
"G B B Z G Z B m N B : H W {  . . . .| : 7 A W W % & & + / O   O     / / + # # & W > t u f ^ : G Z D G G V V V V G G G D G G G G ",
"B B Z G G B m m G G : H W }  ., , , , , , , ( # # j j % &   +     + + % # j j # % % : t u f : G B B B N V M B V D B N Z G G G G ",
"q r m M r r r r m m : H W { | y y y y y y y W # j j j j j % & # # # # j j k j j @ , : t t u f : r r q r r r s k r r q r r r m r ",
"4 4 4 9 q 9 4 9 q r : H W n { , , , , , , , : # j j X.X.j j j j j j j j X.X.j j @ O *.: : < < 4 9 4 4 9 9 9 q 9 q 9 9 9 9 9 4 9 ",
"N M B B M r m G B B : I W c ] }  . .7 A W +.+.% X.h X.O.O.X.X.X.X.X.X.O.O.X.j j # ( A A 7 7 : B N N N N B B S S G B N B D B N B ",
"P R E R K G P E Q E : H W b ] }  .: : : A A A & X.7 X.O.#.O.O.X.X.O.O.O.O.X.j j # A 7 7 : : : T R R U T R R E Q E R E E E R R R ",
"P P T T L P R E T P : H W c ' { } : +.: : : : % X.h X.X.O.#.%.O.O.O.O.O.X.X.j j # : : : : A : P T P L L U T R R T Y T R R I P T ",
"G B N S G L P G N B : H W b n ' [ : >.W A : c # O.h O.X.O.#.%.#.@.O.O.O.X.j j j & : < A ( ( : B B S B B G G B B S B N N B N B G ",
"Z N B G B M N B M B : H W b b n ' : =.+.o.1 c c O.h O.X.X.O.%.%.O.&.O.X.X.j j j & ) : =.=.( : B B G G D G G B B V N B N N N B V ",
"M m B G B M N D Z G : H W c b 1 , , , , , , , X.O.O.O.O.X.O.O.O.%.O.O.X.j j j j j # : =.( ( : B N G G B G G C B N N B B D B N B ",
"N N G G G S G L G G : H W c c y y y y y y y y X.O.O.$.O.X.X.O.O.O.O.X.X.j j j j j # : : : A < B N G G B B B G G B B G G G D B B ",
"G K P L G Z G G G C : H W l c , , , , , 1 1 1 O.O.$.$.O.O.X.X.O.O.X.X.j j j j j j # ;.;.:.: : V B G K G G G G G D D G G L G G D ",
"G G L G G B D G B B : H W W x c v 1 _ ;.;.;.& O.%.%.%.%.O.j X.X.X.X.X.j X.j j j j & ;.;.;._ 1 B V G G D B G G B B B G G G V N B ",
"N B B N N N B N B N N < I H W x l > ! ;.;.;.& $.%.%.%.%.%.O.j X.X.j j X.X.j h j j & ;.;.;.~ 1 B G L G B B S G B C B B G G B B B ",
"B B B B B B B B G G G J < : H W l l 1 _ ;.` & @.%.%.@.%.%.O.j X.X.7 j X.j j j h j & ` ;._ 1 G V G B N N N G G B V G S B B B B B ",
"G L L G G G G G G B B G J B : H W l l 1 1 & X.@.O.%.O.&.%.%.O.O.$.O.%.O.j X.j X.j j & 1 > G G G B N M N G G G G B G G G G G G B ",
"J P L G B B D B N m m B V N N < H W l l l z g %.O.%.O.O.O.%.@.O.O.$.O.O.j X.j X.j j # S G G G G G B B G L L G B G G G V B D B M ",
"G G G B M B G G B B B G G V B G : H W W W W W O.O.%.O.O.O.O.O.@.$.O.O.O.O.X.j O.j j # B G G G D V G G P L G S B G G G B N N M M ",
"G G B N B G G S G G G L P G C G G < H H H I I O.O.%.O.X.O.O.O.O.O.O.O.O.O.X.j X.X.j # G G G B B N B G G G D B B B G V B N B N N ",
"G G Z N C L G B N B G G G G B B C G : : : : : : X.O.%.X.X.O.X.O.O.X.O.X.X.j X.X.O.X.j # G S N m m B B G N B B B B N B B B D G G ",
"N G G B D G N m q r M V B B B V B Z G 0 # #.O.O.X.O.&.O.X.X.X.X.X.X.X.X.X.7 X.O.X.X.j # 0 B B B B L L S G V G G B B Z B B B G G ",
"N D B M G G B m k s V J C V C G L G 0 6 # %.O.X.X.X.O.$.X.X.X.X.X.X.X.X.X.O.O.O.X.X.j # 0 0 C L J G G B G G B G G G C B B B B G ",
"V G G N Z G B q M V U U J G G J S 0 6 0 # O.X.X.X.X.O.&.O.X.X.X.X.X.X.X.O.O.O.X.X.X.j # i 0 q G G G B B G G B B G G B B S G G L ",
"G G V N D G B r C U R U G G G G N 0 0 0 % X.X.X.X.X.X.O.%.O.X.X.X.X.X.O.O.O.X.O.X.X.j # p 0 0 B B B S G G G B B B B G G G J G G ",
"G B B N G G B M G P T J B B V B D 0 0 0 p # # X.X.X.X.X.O.O.O.X.X.X.X.O.O.X.X.O.X.# # p 0 q 0 B B G G G G G B N C G G D B B B B ",
"G B N N G G G D G L J G N B G B G N 6 0 0 0 0 # & k X.X.X.X.X.X.X.X.X.X.X.X.j # & 0 0 0 i 0 S B B G B B D G V B G B B N N B N B ",
"G G G G G G G G G J G B N G G G G B G i i i 0 0 : & # # # # # & & & @ X.% # # : p p 0 0 0 B B B G B M N G G G B D B N B B G G G ",
"G L G G G J G G S S B B B G G G G B C C 0 0 0 p 0 0 0 p p p 5 3 0 d p e 0 0 0 6 0 0 0 0 B B B B G V N B G B N G G B B G G G G G ",
"B G G N N G G B B N N N B G L G B B B B N M 9 6 0 6 0 p p q 5 5 0 a p 0 0 0 0 0 0 q C B N B B V G B B G P L D B G G G G G G G G ",
"G G G S D G G C B B S G D G G C B N B N N N B B M M 0 q p q 6 3 0 a a 0 0 q S G G D B B B C V G G B G G L G G G G C B G G G G G ",
"P L G G B G G G G G G G G G G N N M N B M B D B m M J C C V r 9 N R P B B S S G J B N N G G G G G G G B S S C B G G G G G G G G ",
"G G V G B N V G G G L G V G V N M B G B D G G B V G P C V B s 9 B T Y B B B B D L B N S G G G G G G G B B B B B G G B B B B N B ",
"G B B B B N B G G G G G B B B N B G G G S G G G G L P G G B k 9 S R T B B B S G G B B G L G B G S G G B G G G B B B B D B N B B ",
"G G B B B B G G G Z C G G G G B B G G G B G J J G J P L G G M q B R T G B G G G G B B G G G B C B B B B B G G B B B G G B B B B ",
"G B B G G G G G G G G G G G G B G G G S B S G G B B G G D Z r 9 B R P B B B B G G B N G G G B G G B B N B B B N G G G G G C D G ",
"G G G B B G G G G G B V B B G B C B G G G G J G N B G S N B q 9 N R T B B B G B V B N B B B B G S B B D S V G G Z C G G G B G G "
};
