/* XPM */
static char *pu21680101622[] = {
/* columns rows colors chars-per-pixel */
"64 64 106 2 ",
"   c #000000",
".  c #080A07",
"X  c #070908",
"o  c #080A09",
"O  c #1D0F0E",
"+  c #1B100E",
"@  c #170616",
"#  c #180717",
"$  c #160817",
"%  c #180815",
"&  c #180719",
"*  c #190818",
"=  c #0F1414",
"-  c #101415",
";  c #111518",
":  c #1D131E",
">  c #2B1D1D",
",  c #1D1220",
"<  c #261920",
"1  c #281920",
"2  c #1C2222",
"3  c #2F2F2F",
"4  c #332927",
"5  c #342D2B",
"6  c #2F312E",
"7  c #39302F",
"8  c #2D2532",
"9  c #302E31",
"0  c #333333",
"q  c #3D3533",
"w  c #31313D",
"e  c #3B313A",
"r  c #373938",
"t  c #3C3C3C",
"y  c #421E06",
"u  c #421E08",
"i  c #4B2B14",
"p  c #63351D",
"a  c #413736",
"s  c #403836",
"d  c #453D3B",
"f  c #40403E",
"g  c #48403D",
"h  c #744B2F",
"j  c #744A31",
"k  c #08175A",
"l  c #271E40",
"z  c #281E41",
"x  c #3F3D40",
"c  c #040F6A",
"v  c #051163",
"b  c #03106D",
"n  c #061274",
"m  c #07127A",
"M  c #09147D",
"N  c #0C187E",
"B  c #454545",
"V  c #474749",
"C  c #4D4D4D",
"Z  c #504E4F",
"A  c #4E504F",
"S  c #50504E",
"D  c #4D4E51",
"F  c #4D4A5D",
"G  c #514F50",
"H  c #4F5150",
"J  c #495058",
"K  c #525252",
"L  c #5E5252",
"P  c #595758",
"I  c #5A5A5A",
"U  c #605252",
"Y  c #615F60",
"T  c #636363",
"R  c #686667",
"E  c #6B6B6B",
"W  c #6F6B7C",
"Q  c #726B7D",
"!  c gray44",
"~  c #99423B",
"^  c #9A6B4A",
"/  c #A5745D",
"(  c #867D7E",
")  c #887E7F",
"_  c #CC8565",
"`  c #E5A47B",
"'  c #0C1780",
"]  c #0E1982",
"[  c #131E87",
"{  c #16218B",
"}  c #1A258F",
"|  c #1B2691",
" . c #1D2892",
".. c #222D97",
"X. c #3C4AAD",
"o. c #466ACA",
"O. c #877E81",
"+. c #619FEF",
"@. c #5FA1EF",
"#. c #61A0EF",
"$. c #61A1F0",
"%. c #B19997",
"&. c #C5B69F",
"*. c #CFC587",
"=. c #F9D6BA",
"-. c white",
/* pixels */
"C K K K P P K K K C A K A C C C K K S C K K V V C A C V P H t 0 K R I C C H K K K K K C C K C C C C V C K K V B S I I K K C C V ",
"K P P K K K K H C C P P A C C C K K C C K K B t C A S C K K B t K R Y C A H K K V C C C C K K K C C V C A C C V K I K K K K C A ",
"K K K A C K C C C C K P K K K K K K C V K C V B C C C C K C t 0 K T P C K K K C C C C C C K P K K S C C K K C A I P K K K K S K ",
"C K A V C C K K C C C K K K K K C C C C K C C C K S A C C K f r C Y I C H K H C C C C C K K K K K K C A K K C K K K K K S C C K ",
"C K C V C C K K C V C K C C K K C C C C K C C K I K K K K K V r C T I C D K C C K K S S K K S C K S C S K K C C C C H K C C C C ",
"K K K C C S K K C C K K C C C C C C C C C C A K C C A K e K f 0 V Y P C Z K K C C S K K K K A C C C B V Z C C C C C K P C C K K ",
"C K K C C C K K A C K P C C C C K K K K K C K P Z C K P e e B 0 B I K C K K K C V C K C S K S C C C B V S A C C C A P P K K K C ",
"C C S K K K K K P C K K K C K C K K K K C K K P K S P P e *.e r V I P C K P K C V C S C V C C C C C V C P P S K A K K K C C C C ",
"K K K K K K K K A C K K K C K K K K K C K K K K A C K K e &.e t V Y Y K K G C V V C C C C C V C K C K K P K C C K K K K K Z C C ",
"K K K K C C C K S A C C C C C K K K A C K K K K C C C C e %.*.e       K K A C C C K K C C C C C K K H S K K C C C K A K K C C A ",
"K P K C C C C C C C C C K C K K K C C C C K C C C C C D       X o w o o       K K P P K K C C C I K C C C C C C K K K C K K C K ",
"P K K C C C C K C C C C C K K K K G C C C K K K C X     o - = = 2 2 2 = = o o   o . C C C C C K P K C C C A K K K P K C D S C C ",
"I P K A K C K K K K C C A K Z C C A C C K K K K     - = 2 2 2 J 2 J J w 2 w = o   V V V V C K P K K C S K K P K P K K K K K C A ",
"K K C C C S K K K C Z C C K C C K C C C           - 2 w w w w w J w w w J 2 w - .     C A S K K K D C C S C C C K A C C C Z C K ",
"C C C C C S V V C C K K C A K K K C C S K   o o - 2 w w J J J w w J w 2 = o o 2 - o o   K K K K C C C C C C V B C C C C C C C K ",
"V C C A S S C V V C K K C C C K K C C A K K   - o - - J 2 2 w J w J w 2 w = = o 2 - X o     K K C C C K K K C C A K K K K G S K ",
"C S K K K K C C C P I H V C K P P S C C K K V   o   - w - w w J w w J - 2 w = - o o       K K K C C K K K P K K K P P K H K K K ",
"C K K K K K C C K I I P C C K K P K A C K K C   o   2 o 2 w J w 2 w J 2 - J - - o     K S S K K C C K K K K H K K I P K K K C C ",
"K K K K K C C K K P K K C C C A K C V C C K     o   w ; X w J w 2 J 2 w - 2 o   -   o   C C C D V V K K K K C C K P H V V C C C ",
"K K K A C C C C C C C C C V C A K C C B     o - -   -   o w J 2 - J 2 w = -       o   o   C K K V C K K K K C C K K C B B C C C ",
"C C C C C C V V C V C C Z C G P P K S S C C   o o     X ; 2 w J - 2 - J - . - o   o     K K K K C C K C C K C C S K S C K P K K ",
"K K K C K C C C K A C K K Z D K K C K S C D <     ; ; = X = 2 w - o - J - . - .   o   1 K K K K C C K C S C C K S K C C K K K K ",
"K K K K K K S K P P K K K C C C C V V V B C < =.` o X = 2 X 2 2 o - - 2 - o o       =.1 K K K K C C S S G H C K K C B B C C A A ",
"K K K C K K C S K K K K K K C C S B B B t V < ~ =.  X , x = - 2 o - o 2 o o   o   =.~ < K K K K V C S S K K K K K K V V C A S K ",
"K K C C Z C C C K S C : : : K K S C C C C C K < =.  o ; J - o ; o - o - o   o   _ =.< D D G K K C C C K K K K C K K A C K P P K ",
"I K V C K K K C K K A , Q Q : : : K P I I I P P < ~   - 2 o   o ; -   - o   o   ~ < C C C H K K B C C C K K K C C K C V C K K C ",
"P K C K K K S S S K C : L Q Q Q Q : : : : : : : : < _   - o o   o - o o   o   _ > C V C : C K C V C C K K K K C C C G C C A K K ",
"A C C C C C C C K K C : L Q Q Q Q Q Q Q Q Q W Q + + ~ _ o   o o   - o   o   _ ~ O : : : j : P K V C K K K K S C C K K C C K K K ",
"K C C Z K S V B C C C : L W } ....Q Q Q Q Q : : : i + ~ ~   o o o o   o `   ~ + , F : u h ^ : K C C K S C C S K K H K C K K K K ",
"C C C Z K C V V K K K : L Q | ........ .] : 8 F F * * * + / o   o     / / + * * * Q : y p j ^ : C C C C C V C C C C C C K K K K ",
"r t B B t r r t B B t : L Q } ........ .: 8 F Q * $ z z * *   O     % O & & 8 z @ & : : y p j : t t t t t t t t x t t t B t t f ",
"3 3 3 r t 0 0 0 r r 0 : L Q | ..> > > > > > > ) * l z z z z * * & * & & z z z z z * y : y y p j , 3 3 0 0 0 0 0 r 0 3 0 0 0 3 0 ",
"C V C A B t B A Z C C : U Q [ | i i i i i i i Q & z z X.X.z l l z z 8 z z X.X.z z $ : ( : : : : C C V V C C C K K C C A A C V C ",
"I T E R P K I ! ! E E : L Q ] [ > > > > > > > : @ X.z X.o.o.X.X.X.X.X.X.o.o.X.z z & ( F F 8 8 : T R T U R R E ! E R R E E R T R ",
"I I T Y P I R E Y I I , L Q m ] | ....8 F Q ) ) & X.z X.o.+.o.o.X.X.o.o.o.o.X.z z & F 8 8 : : : Y I I I T T T R T Y Y Y T Y Y T ",
"S A C A K P I K C C C : L Q m ] } ..: : : F F F * X.z X.X.o.$.+.o.o.o.o.o.X.X.z z & , , : : F : C H C H K K A C H C C C V V C H ",
"A V C S C V C C V C K : L Q n N {  .: ( : : : : @ o.z o.X.o.$.$.+.+.o.o.o.X.z z z & , , F ) F : C H K A K K H C C C V C V V A A ",
"B B S K C V V C C C K : L Q n M ] [ : -.Q F : : c o.z o.X.X.o.$.+.o.+.o.X.X.z z z & < * : : ( : C H K D K K C C V V C A A C C C ",
"V V K K K S K P K K C : L Q n m m ' : &.O.Q , n b o.o.o.o.X.o.o.o.+.o.o.X.z z z z z * ` =.=.: : C H K C C C K K C C A K K S C C ",
"S P I I K C K K K K K : L Q m m > > > > > > 1 > X.o.o.+.o.X.X.o.o.o.o.X.X.z z z z 8 * =.=.=._ < C K P H K K K K S A S P P K S A ",
"K P P K A A C A C C C : L Q n m i i i i i i i i o.o.@.@.o.o.X.X.o.o.X.X.z z z z l z & =.=.=.~ 1 C K K S C K K C C C K K K S C C ",
"V C C V C V V C C C V : L Q c n > > > > > > > > o.$.@.+.+.o.l X.X.X.X.X.z X.z z z z & _ =._ < D K P K C C A K C A C C K K C C C ",
"C C C A C C A A K K C : L Q Q c n m < _ =.=.=.@ $.@.+.+.@.@.o.l X.X.z z X.X.z z z z & < < < K C K S V V C C K C S S K C C C C C ",
"S P P K K S S S K C C K : L L Q b b > ~ =.=.=.@ +.$.+.+.+.+.o.l X.X.z z X.z z z z z & G K K K K C V V C K K K K C S K K K K H C ",
"P P P A A S Z C V V B C A : : U Q c c < _ =.& X.+.o.$.o.$.$.$.o.o.+.o.$.o.z X.z X.z z @ K P K K S C A K P P K C S K K S C C C V ",
"K K K C V C S S V C C K K A C : L Q c c < < & o.+.o.@.o.o.o.$.$.o.o.$.o.o.z X.z X.z z @ H K K K S K P P I K A C K K K C C V V B ",
"H K C C C K K K K K K P I K Z K : L Q c v b v k o.o.$.o.o.o.o.o.$.$.o.o.o.o.X.z o.z z @ K G C C V C K K A C C C S K Z C V C C V ",
"A K C C K P K C C H K K K K C C K : L Q Q Q W W o.o.$.o.X.o.o.o.o.o.o.o.o.o.X.z X.X.z @ t C V B B C A C V C C C C C C C C S K S ",
"C K S C S K C B t t B C A C C A A A : L L L L U X.X.o.o.o.X.o.X.o.o.X.o.X.X.z X.X.o.X.z @ q C C C P P A K K K K C K K C C C C K ",
"V A A V K K C t t B A P K C K K P K C : : : : o.o.X.X.X.X.X.o.o.X.X.X.X.X.X.z X.o.X.X.z $ q q K K P S C K K C G A K Z C C C A K ",
"C P K V A K C t B C Y Y P K K P S C 7 7 7 * #.o.X.X.X.z z X.X.o.X.X.X.X.X.X.o.$.o.X.X.z * q q s K K C A K K C C Z K C C K K K P ",
"S K S V C K C t C P R T K H K K A A q a s * o.X.X.X.z z z z X.o.o.X.X.X.o.o.@.o.X.X.X.z * q q q C C A K K C C C C A K K K K K K ",
"S C V V S K C V K I T P C C A C A C 7 q a * X.X.X.z z z z z z X.o.X.X.o.+.$.o.X.o.X.X.z @ q q q C K K K K S C C K K C C K C C C ",
"K S C C K K K A K P P S V C K C A C 7 q 7 q * X.z z * * * @ 8 X.X.o.X.$.$.o.X.X.o.X.* $ q q q q C S C V K K S C K C C C C C C V ",
"K K K K K P K K K P K C C K K K K A S s a a q * & * : : : : * z X.X.o.o.+.o.o.z @ @ > q q q q C K C V V K K S C C C C C C A C S ",
"K I K C K K K K A A C C V K K K A A K S q 7 q a q q q q s s 5 * * X.o.$.+.@.o.X.i : q q q q C Z K K C C K A C C K K C A K P K K ",
"C K G C C C K C C C C V C K P K C C C C B 7 7 q q q q s s q 5 5 q d X.X.X.X.X.: : q q q 7 C C D K C C K I P K C K C A K K K K K ",
"K K K C C K K K C C A K A K K A C V C C B C C 7 5 7 q s s q 5 5 a g d q q q q q q q q C C A S A K C K K P K K K K K C K K K K K ",
"I P K K K C K K A K K K K K K V V V C C C C S C V C K s a q 5 4 7 d d q q q q K P C V C A K K K K K K C A A Z C K K K K K Z K K ",
"P K K C C C C K P K K K S S A V V C C Z C S K C C K P K C C t 6 C T I C C C C S K C V K K K K K K K K C C C C C K K C Z C C C C ",
"K A C C C C C K K K K G S A C C C K K K S K P K K P Y K Z C f 9 D R T C C C S K K C C K P K C K C K K C K K K C C C C C C C C C ",
"H C C C C C H K K C K K K S C C A K K K C A P K K K I K K K B 0 D R T S C K S K K C C K K K C D A S C C C K K C C C H K C C C C ",
"K K A K K K K K K K K K K K K C S K K C C A K K C A P K C C t 9 C R T C C K K K C C C S K S C K G C C C C C C C K K K P K C C K ",
"K K C C C K K K K K C K C C S C H A K K K K K K C C K C C C t 0 C R I C C Z C C C C C C C C H K C C C C K C A K C K K K K C K K "
};
