/* XPM */
static char *pu31680101623[] = {
/* columns rows colors chars-per-pixel */
"64 64 99 2 ",
"   c #000000",
".  c #080A07",
"X  c #070909",
"o  c #080A09",
"O  c #1D0F0E",
"+  c #1B100E",
"@  c #170616",
"#  c #180717",
"$  c #160817",
"%  c #180815",
"&  c #180719",
"*  c #190818",
"=  c #0F1415",
"-  c #101415",
";  c #1D131E",
":  c #26191E",
">  c #2B1D1D",
",  c #1E1220",
"<  c #261920",
"1  c #281920",
"2  c #1C2222",
"3  c #2F2F2F",
"4  c #322927",
"5  c #352E2B",
"6  c #39312F",
"7  c #2D2532",
"8  c #2F313D",
"9  c #333333",
"0  c #3D3533",
"q  c #383A37",
"w  c #31313D",
"e  c #3B313A",
"r  c #3C3C3C",
"t  c #421E06",
"y  c #4B2B14",
"u  c #63341C",
"i  c #413736",
"p  c #413937",
"a  c #443D3B",
"s  c #48403E",
"d  c #744B2F",
"f  c #744A31",
"g  c #261E41",
"h  c #281E41",
"j  c #040F6A",
"k  c #051163",
"l  c #03106D",
"z  c #070F71",
"x  c #061275",
"c  c #06127A",
"v  c #09147D",
"b  c #454545",
"n  c #464847",
"m  c #494947",
"M  c #4D4D4D",
"N  c #504F4E",
"B  c #51514F",
"V  c #4E4E50",
"C  c #4B4758",
"Z  c #4D4A5D",
"A  c #514F51",
"S  c #475057",
"D  c #495058",
"F  c #525252",
"G  c #5E5252",
"H  c #5A5B5A",
"J  c #605252",
"K  c #636363",
"L  c #6A6A6A",
"P  c #726B7D",
"I  c gray44",
"U  c #97423B",
"Y  c #99423A",
"T  c #996B4A",
"R  c #A4745D",
"E  c #877E7F",
"W  c #CC8565",
"Q  c #E4A57C",
"!  c #0C1780",
"~  c #0E1982",
"^  c #131E87",
"/  c #16218B",
"(  c #1B2691",
")  c #1D2892",
"_  c #222D97",
"`  c #232D99",
"'  c #3C4AAD",
"]  c #466ACA",
"[  c #887F80",
"{  c #629FEF",
"}  c #5FA1EF",
"|  c #61A0EF",
" . c #62A1F0",
".. c #B29A98",
"X. c #C4B59E",
"o. c #CFC587",
"O. c #D0C587",
"+. c #F9D6BA",
"@. c #FFFFFD",
/* pixels */
"M F F F H H F F F M F F M M M M B F B V H B n n M M M n V F r 9 F K H M M A F F F H V M V F F m m m M V F F b b F H H F F M m m ",
"F H F F F F F M M M F H F m M M F F M M F M b s M V A V H F b q F L K M M F F V M M M m M F F V V M m m F M m M F H F V F F V F ",
"V H F F F V M M M M F H F M F F F F M m B V b b M M V M B M b 9 F K H M F F F M m m M m M F H F F V M M F M M M H H F F F F V F ",
"M F M m m M F F M m V F F F H F M V M M F V M m F B V M V F r 9 M K H m V F F M M V V M F F F F F F V F F F F F F F F F V M M F ",
"M F V m m F F F V n M F V V F F m M M M B V V B H F F V F F b q M K H M F F B m F F V B F F F M F V M A F F M V M M F F M m M M ",
"M F F m M V F F M M F F M m M m M M M V V M V V V m V F F F b 9 m H H M M F F V M F F F F F M M M m b n A M M m m M F F M V F F ",
"M F F M V M F F A M F H M m M M F F F F V B F F B M F F H B b 9 n H F M F F F M m M F V F F V M M m b n F F M M V F H H M F F F ",
"M F M F F F F F F M F F F M F F F F F F V B H F F F H H V M s 9 n H F M F H F M b M V V m m M M F M m V H F V F M F F F M M F m ",
"F F F F F F F F F M V F F F F F F F F V F H H F V M F V F V b r       H F F M m n V M m m m M M A A F F H F A M F F F F B M M M ",
"F F F F M M M F F V V F M M M F F F e e e B F B M M V V       o o 8 X X       m V F F A B M M M F F A F F F M M V F F M F F M M ",
"F F F F M m M M m M M M M M F F F B e O.o.e V B M .     o = = = 2 2 2 = - o o   o o H F F M M M H F M m M M m M F F M M F V M F ",
"F H F V M M M F M M m M V F F F B B M e ..o.e B     = - 2 2 2 D 2 D D 8 2 w = o   A V m M M M F H F M M M M A V F H F F F F M M ",
"H F F F B F F F F B M M F B A M V V M M           - 2 w w w w w S w w w D 2 w - o     b m M F F F A M A F F H H H F F B F F M V ",
"F F M M V V V F B V V M M F M M V M M M F   o o - 2 w w D D D w w D w 2 - o o 2 - o o   V F F F F M M M F M M m F B M M M M M F ",
"M M M M M M M m m M F F M V F F F M M M F H   - o - - D 2 2 w D w D w 2 w - - o 2 - o o     F F V m M M M M b b m M M M M M M F ",
"m M m F F F m n n A F F M M M F F V M M F F M   .   - w - 8 w D w w D - 2 w - - o o       F F F M M M F F F M M F F F F F V F F ",
"M F F F F F M M V H H F n m B H H V M M F F n   o   2 o 2 w D w 2 8 Z 2 - D = - o     H A F F F F M F F F H F F F H H A V F F F ",
"V F F F F F M M F H H F M V V H H B M V F F     o   w - o w D w 2 V 2 w - 2 o   -   X   V F F F M M F F F F M F F H H F F F M M ",
"F F F F F V M F F F H B M M M B V M m M     o - -   -   o w D 2 = S 2 w - -       o   o   M V M M m F F F F V M F H M n n M m M ",
"F F F M M M m M M M M M M m M V B M n m m M   o o     o - 2 w D - 2 - D = o - o   o     A M A V m m V A F F M M F F m n n M V M ",
"M F M M M M m m M n M V A M A H H F A V M M <     - - - o - 2 w - o - D - X - o   o   < F F F F M M F M M F M M F F A M F H F F ",
"F F F M F M M M V M V B F M A F F M F F M V : +.Q o o - 2 o 2 2 o - - 2 - o o       +.< F F F H V M F V M M M B V B V M F F F A ",
"F F F F F F V F F H F F A V M M M b n M b m < Y +.  o 2 w - - 2 o - o 2 o o   o   +.Y : F F F F M M F V F F M F F V n b m M M F ",
"F F M M F F V F H F F , ; ; A m V b n b r b F : +.  o = Z - o - o - X - o   o   W +.< F F F F F n m F V A F F F F B m n M V V F ",
"F V m M V V M M M F M ; P P ; ; ; M V M M V F H : Y   - 2 X   o - -   - o   o   Y < A F M F F F M M M V B H F V F H V M B H H B ",
"H F m M F F F M F F M ; G P P P P ; ; ; , , ; ; ; : W   - o o   o - o o   o   W < M M M ; F F F n m M V B B V M M M M m M F F M ",
"H F V F F F A A F F M ; G P P P P P P P P P P P O + Y W o   o o   - o   o   W Y O ; ; ; f ; F M n M V F F F B M M V V M M F F F ",
"M M M V M M M M M F M ; G P ( _ ` P P P P P * : : y % Y Y   o o o o   X Q   Y O , Z ; t f T ; F m M F F F F B V M V B V M F F B ",
"F M M A F A m n m M m ; G P ( _ _ ` _ ) ~ ; 7 Z Z # # # O R X   X     R R + & $ # P ; t u f T ; M F F N V V V B F F B V F F F H ",
"M M M F A M n b F F F ; G P ( _ ` _ _ ) ; 7 Z P # # h h # #   O     O + & & h h % # ; , t u f ; M M M M M n M M V M M V B F B V ",
"q r b b r q q r b b b ; G P ( _ > > > > > > > E # h h h h h # # % # # # h h h h h # t ; t t u d , r q r r r r r r r q r r r r r ",
"3 3 3 9 r 9 9 9 r 9 9 ; G P / ) y y y y y y y P # h h ' ' h h h h h h h h ' ' h h # ; [ ; ; ; ; 3 3 3 9 9 9 9 9 q 9 9 9 9 9 9 9 ",
"n n M V n r b M M M M , G P ! ^ > > > > : > > ; # ' h ' ] ] ' ' ' ' ' ' ] ] ' h h & C Z 7 7 ; M n M M n A V V F F M M M V m m M ",
"H K I K H F H I I L L , G P c ~ ( ` ` 7 Z P [ E # ' h ' ]  .] ] ' ' ] ] ] ] ' h h & 7 7 , , ; K K K K K K K L I L L L L L L K L ",
"H K K K H H L L K H H , G P c ! ( _ ; ; ; Z Z Z & ' h ' ' ] } { ] ] ] ] ] ' ' h h & ; ; , Z ; H K H H H K K K K K K H K K K H K ",
"F m m A F F H F M m V , G P x ! / ) ; E ; ; ; ; & ] g ] ' ] { { | | ] ] ] ' h h 7 # ; ; ; Z ; M M V M n F F F M M M M m n m M F ",
"M n M F M n m M n M F ; G P x ! v ^ ; @.P Z ; ; j ] g ] ' ' ]  . .]  .] ' ' h h h # W Q Q ; ; M M V F F F F M M V m M m n n M A ",
"b b A F M n n A M A V ; G P x c v ~ ; X.[ P ; x ' ] ] ] ] ' ] ] ]  .] ] ' 7 h h h h $ +.+.Y : M M A F M A F F M n n M V M M m M ",
"n n A F F A F H F F M , G P x c > > > > > > > : ' ] ]  .] ' ' ] ] ] ] ' ' h h h h h # Y Y : F M m F F V M M F F M M M F F F M M ",
"A H H H A M F F F F F ; G P x c y y y y y y y y ] ]  .{ ] ] ' ' ] ] ' ' h h h h h h # < : H F M M F F F F F F F A A F F H F F F ",
"F F H F A M M A m M M , G P j z > > > > > > > > ] { } { } ] g ' ' ' ' ' g ' h h h h & F H F F M M F F A M F F M M M F F F B M M ",
"m M M m n M n M M m M ; G P P j x x ; ; +.+.+.# { } { ] { { ] g ' ' h h ' ' h h h h # n M F F B F H F M M V F M V V M F F M M m ",
"M M M n M M V M F F V H ; G G P j l : U +.+.+.# { { ] ' } { ] g ' ' h h ' h g g h h # V M M F V F M M n M M F M N F V M M M M M ",
"F H H F F F F A F M M F F ; ; G P j l : W +.# ' { ] ' ' ] { } ] ] { ] { ] g ' g ' h h # F F B A M m n m F F F F M F F F F F F M ",
"F H H F M A A M m b b M V n b < G P k j : : # ] { ' ] ' ' ] { { ] ] } ] ] g ' g ' h h # i F F F V M V F H F F M A F F V M V V n ",
"F F F M n M A A M m M F F M M F ; G P l j j k } ] ' ' ] ' ] ] ] { { ] ] ] ] ' h ] h h # 0 i F F F A F H H F F M F F F M m m n b ",
"F F M m m F F F B F H H H F V F F , G P P P P | ' ' ' h ' ' ] ] ] ] ] ] ] ] ' h ' ' h # i 0 0 M m M F F F V V M A F V M n M M m ",
"A F V m F H F M m M V F F F M M A F ; G G G G  .' ' g ' g ' ] ' ] ] ' ] ' ' h ' ' ] ' h # 0 6 6 b m F M m M M M m m M M M A F F ",
"M F F M F F m b r r n M M M M M M M 0 ; ; ; ; ] ] ' h h ' h ' ] ' ' ' ' ' ' h ' ] ' ' h $ 0 6 0 M H F F A F F F M V V M M M F F ",
"n A V n F F M r r b A F F V F F H F 0 0 5 #  .] ' h h h g h ' ] ' ' ' ' ' ' ] | ] ' ' h # 0 0 p H F F M F F M A F F B M M M M F ",
"V F F n V F M r b M K K F F F H V M 0 0 6 & ' ' ' h h h h h ' ' ] ' ' ' ] ]  .] ' ' ' h # 0 0 p F F M M F F M M V F M M F F F H ",
"F F A n A F m r M H K K F F F F M n 0 0 0 p # ' h h h h h h 7 ' ] ' ' ] }  .] ' ] ' ' h % 0 0 0 M M V F F A M M M B F F F F F F ",
"V V m m F F M m F H K H M M A M A m M 0 0 i p # % # # # # # h h ' ' ] ] | ] ] g ] ' # # p 0 0 M M F F F F A M m F V F V M M M M ",
"F B m M F H F B F H F F m M F M V M M M 0 i 0 0 0 0 6 0 0 0 # # # ' ] } |  .] ' # # < 0 0 0 M M M F M M A F A M F V M m m M m M ",
"F F F V F F F F F F F M m F F F F M F F F p 0 0 0 0 0 0 0 0 5 4 6 a ' ' ' ' ' u u ; 0 0 q M M M F M b m F F A M B M m M M V F V ",
"F H F V F F F V F F M M M F F F A V F F M M A 0 0 0 0 0 i p 6 4 6 s p 0 ; ; ; ; , 0 0 A M M M M F F m V F A M M F M B M F H F F ",
"M F V m m F F M M m m M m F H F M M M M n b n M M m F p a 0 9 4 0 s a 0 6 0 0 M F F F M M M M M F M M F H H V M F F B F F F F F ",
"F F F B V F F V M M V F V F F V M M M M n n M M b b V F F A a 9 V L K V B F F F F A M m M V F F F M F F H F F F F V M F F F F F ",
"H H F F F M F F F V F F F F F m n n M m m M A M b m F F F A r 9 m K K M M F B F F M n m M F F F F V V B M B B M F F F F F V F F ",
"H F F M M M V F H F F F V F V m n m V M A A F M V F H F M M r 9 M K H M M M M B H M n F F F F F F F F M M M M M F F M V M M M M ",
"F V M M M m M F F F F B M M V m m F F F V F F F F H H F A V a 9 M L K M M M M F F V M F F F M F F F V M V F F V M M M M M m m M ",
"M M M M M M F F F M F F F F F M M F H F M F H F F H H F F F b 3 M K K F M F F F F M M F H F M V M B M M B F F M M M B B M M M V ",
"F B F M F F F F F F F F F F F M F F F V m F F F M M F F F M r 9 M L H M M F N F F m m F F M M F F M M M M M M m F F F H F V F F ",
"F F F M M F F F F F M F M V M M V F F F F F H F m M F F m n r 9 M K K M M M N M V M m M M M B F M M M M V M F F F V F F F M F F "
};
