/* XPM */
static char *pu41680101623[] = {
/* columns rows colors chars-per-pixel */
"64 64 95 2 ",
"   c #000000",
".  c #070906",
"X  c #080A07",
"o  c #060909",
"O  c #080A09",
"+  c #1D0F0E",
"@  c #1E100F",
"#  c #170616",
"$  c #180717",
"%  c #160817",
"&  c #180815",
"*  c #180719",
"=  c #190818",
"-  c #0F1515",
";  c #101415",
":  c #1D131E",
">  c #25181F",
",  c #2B1D1D",
"<  c #1B211F",
"1  c #1D1220",
"2  c #261920",
"3  c #281920",
"4  c #281D3F",
"5  c #1C2222",
"6  c #2E2E2E",
"7  c #302825",
"8  c #352D2B",
"9  c #3A302F",
"0  c #2D2533",
"q  c #382F30",
"w  c #3B2F3B",
"e  c #2F313D",
"r  c #333333",
"t  c #3D3533",
"y  c #3D3835",
"u  c #31313D",
"i  c #3B313A",
"p  c #3C3C3C",
"a  c #421E06",
"s  c #4B2B14",
"d  c #63351D",
"f  c #403635",
"g  c #413937",
"h  c #453D3A",
"j  c #46413E",
"k  c #744A31",
"l  c #271E41",
"z  c #281E41",
"x  c #040F69",
"c  c #051163",
"v  c #04106D",
"b  c #051274",
"n  c #061279",
"m  c #0A157E",
"M  c #454545",
"N  c #474749",
"B  c #4D4D4D",
"V  c #504E4F",
"C  c #50504E",
"Z  c #4D4E53",
"A  c #4D4A5D",
"S  c #514F50",
"D  c #4F5150",
"F  c #495058",
"G  c #525252",
"H  c #5E5252",
"J  c #595758",
"K  c #5A5A5A",
"L  c #636363",
"P  c #6A6A6A",
"I  c #726B7D",
"U  c gray44",
"Y  c #99423B",
"T  c #996B49",
"R  c #A6745D",
"E  c #867D7E",
"W  c #CC8565",
"Q  c #E4A57C",
"!  c #0C1780",
"~  c #0E1982",
"^  c #131E88",
"/  c #16218B",
"(  c #1B2690",
")  c #1D2892",
"_  c #222D97",
"`  c #3C4AAD",
"'  c #466ACA",
"]  c #619FEF",
"[  c #5FA1EE",
"{  c #61A0EF",
"}  c #62A1F0",
"|  c #B19997",
" . c #C4B59E",
".. c #F9D6BA",
"X. c white",
/* pixels */
"B G G G J J G G G B D G D B B B G G G B G G M M B B B B D D p r G L L B B G G G G G G B B G B B B B M B G G M M B K J G G B B N ",
"G J J G G G G D B B G J D B B B G G B B G G M M B B G B J G M p G P K D B G G G B B B B B G G G B B B B G B B B G K G G G G B D ",
"G J G D B G G B B B G J G G G G G G B M G B M M B B B B D B M r G L K B B G G B N B B B B G J G G G B B G C B B J K G G G G G G ",
"B G B N B B D C B B B G G G G G B B B B G B B B G G B w D D p y B K J B G G G B B B B B G G G G G G B B G G D G G G G G B B B G ",
"B G B B B B G G B N B G B B G G M B B B B G D G J G G i i G M r B L K S G G G B G G G D G G C B G B B V G G B B B B D G B B B B ",
"D G G B B B G G B B G G B B B B B B B G G B B G B B C i  .i M r M L J B B G G B B B C G G G B B B B M N C B B B B B G J B D G B ",
"B G G B V B G G G B G J B B B B G G G G B G G G D N G i  .i M r M J G B G G G B B B G B G G C B B B M N G G B B B D J J C G G G ",
"B B D B G G G G G B G G G B G B G G G G B G G J G G K i |  .i       G B G G G B M B C B N B B B D B M B J G C G B G G G B B B B ",
"G G G G D G G G G B G G G G G G G G G G G G G G D B G       O O u o O       B M B B B B B B N B G B G G J G B B G G G B G B B B ",
"G G G G B B B G B D B B B B B G G G B B G G G G O     O ; ; ; 5 5 5 ; - O O   O o G G B B B B B G G D D G G B B D G G G G G Z B ",
"G J G S B B B B B B B B B B G G G C B B B B G     ; ; 5 5 5 F 5 F F u 5 u ; O   G J J G D B B D K G B B B B B B G G D B G C B C ",
"J G G B B B B G B B B B V G G G V D B           ; 5 u u u u u F u u u F 5 u ; O     B B B B B G J G B B B B G G G J G B G G B B ",
"J J D D G G G G G G B B C G D B B B B B   O O ; 5 u u F F F u u F u 5 ; O O 5 ; O O   N N B G G G G B B G G G J J G G G G G B V ",
"G G D B B B S G D B G B B G B B G B B V G   ; o ; ; F 5 5 u F u F u 5 u ; ; O 5 ; O O     C D G G D B B G B B B D G B B B B B G ",
"B B B B B B B B B B G B B B G G G B B B G G   O   ; u ; u u F u u F ; 5 u ; ; O O       J G D D B B B B B B M M B B B B B B B G ",
"N B B B G B B M M B J G B B B G G B B G G G   O   5 O 5 u F u 5 u F 5 ; F ; ; X     J G G J G J B B B G G G B B G G G G G B G G ",
"B D G G G G B B B J K G N B G G J G B B G     o   u ; O u F u 5 F 5 u ; 5 O   ;   X   G C G G G C B G G G J G G G J J G D G G G ",
"D G G G G G B B G K K J B B G G J G B     O ; ;   ;   O u F 5 ; Z 5 u ; ;       O   O   D B G G B B G G G G D G G K J D G G D B ",
"G G G G G B B C G G G G B B B D G Z B B V   o O     O ; 5 u F ; 5 - F - O ; O   O     G B B Z B N N G G G G B B J J B M M B B B ",
"G G G B B B B B B B B B B B B B G B M B B 2     ; ; ; O ; 5 u ; o - F ; O ; O   O   > G G B G G N B Z G G G B B G G B M M B B B ",
"B G B B B B B M B N B B G D G J J G C B B > ..Q O O ; 5 O 5 5 o ; ; 5 ; O O       ..2 G G D G G B B C D B G B B G G B B G J G D ",
"G G G B G B B B D D B G G B D G G B G D B > Y ..  O 5 u ; ; < O ; o 5 O O   O   ..Y 3 G G G G G V B G B B B B G V G B B G J G D ",
"G G G G G G V G J J G : : : B B B M M B M B > ..  O ; F - o - O ; O ; o   X   W ..2 D G J G G G B B C C G G B G G B M M B B D D ",
"G G B B G G B G G G G : I I = > : M M M p M G > Y   ; 5 O   o ; ;   ; O   o   Y 2 B B G G G G G N B C C V G G G G G B M B B D G ",
"G G B B D D Z B G G B : H I I I I : : : : : : : > W   ; O O   O ; O O   O   W 2 V D B : D G G C B B B D G G G B G G D B G J J G ",
"K G M B G G D B S G B : H I I I I I I I I I I + + Y W X   O O   ; O   O   W Y & : : : k : C G G M B B B G G D B B G B N B G G B ",
"J G B G G D D D G G B : H I ( _ _ I I I I : : : s + Y Y   O O o O   O Q   Y @ > A : a k T : G B M B B G G G G B B B C B B G G G ",
"D B B B B B B B B G B : H I ( _ _ _ _ ( : 0 A A $ & # + R O   .     R R + $ $ # I : a d k T : G B B G G G G D B B G G B B C G G ",
"G B B D G B N N B B B : H I ( _ _ _ _ > 0 A I $ $ z z $ $   >     + @ % & l z % & : : a d k 1 D B B G G D B Z G G B G D G G G G ",
"B B Z G G B M M G G G 1 H I ( _ , 3 , , , , , $ l l z z z $ $ $ $ $ $ z l z l z % a : a a d k 1 B B B B B N B B Z B B B G G G G ",
"y p M M p y y p M M p : H I ^ ) s s s s s s s $ z z ` ` z z z z z 4 z z ` ` z z % : E : 1 : 1 p p p y y p p p p j p p p p p p p ",
"6 6 6 r p r r r r p r : H I m ^ , , , , , , , % ` l ` ' ' ` ` ` ` ` ` ' ' ` z z % E A A 0 0 1 6 r 6 6 r r r r r y 6 r r r r r r ",
"B B B B M p M G B B B : H I n ! ( _ 0 A I E E $ ` z ` ' ] ' ' ` ` ' ' ' ' ` 0 z $ A 0 0 : : 1 B B B N N B B B G G B B B B B B B ",
"K L P P J G K P U P P : H I n ! ( : : : A A A * ` z ` ` ' { ] ' ' ' ' ' ` ` z z $ : : : : A 1 K L L L L P L P U P P P P P L P L ",
"J K L K J K P P L K K : H I n ! / : E : : : : $ ' z ' ` ' { { { { ' ' ' ` z l l $ : :  .E | O K L K J K L L L L L L K L L K K L ",
"G B B D G J K G B B B : H I n ! m : X.I A : : b ' z ' ` ` ' { { ' { ' ` ` z l z $ > : 1 : A % Z B D B B G G G B B B B B B B B G ",
"B B B G B N B B M B G 1 H I n n n 2  .E I : n b ' ' ' ' ` ' ' ' } ' ' ` z z l z z $ Q ....: : B B D G D G G B B B B B B M B B B ",
"M M B G D M M C B D D : H I b n , , 3 , , , , , ' ' { ' ` ` ' ' ' ' ` ` l z z z z $ ......W > B B D G B C G G B M M B D B B B B ",
"N B D G G B G J G G B : H I b n s s s s s s s s ' { { ' ' ` ` ' ' ` ` z z z z z z & ......Y > B N G G D B B G G B B B G G G B B ",
"G G K K G D G G G G G : H I x b , , , , , , , , { { { { ' l ` ` ` ` ` z ` z z l 4 & Y ..W > G B B G G G G G G G G B G J G G G B ",
"G G J G D B B D N B B : H I I x b 3 W ......& { [ { { ] [ ' l ` ` z z ` ` z z z z * 2 2 > J G B B G G B B G G B B B G G G V B B ",
"B B B B N B N B B B B B : H H I v 2 Y ......# { } { { } { ' l ` ` z z ` z z z z z * B N B G G V G J G B B G D B G B B G G B B B ",
"B B B B B B B D G G S G J : 1 H I v > W ..$ ` { ' } ' } } } ' ' } ' } ' l ` l ` z z * B B Z D S G D B M B B G B B G D B B B B B ",
"G G J G C G G C G B B G G B B : H I v > > % ' { ' } ' ' ' ] } ' ' } ' ' z ` l ` z l * S G G G S B B M B G G G G B G G G S G D B ",
"G K G G B B B B M M M B D N N G : H I v v c c ' ' [ ' ' ' ' ' } } ' ' ' ' ` z ' z z $ B G G G G B B G G J J G D G G G C B B B M ",
"G G G B B B C G B B B G G B B J J : H I I I I ' ' } ' ` ' ' ' ' ' ' ' ' ' ` z ` ` z # t G G G G B G G J J G D B G G G B B B M M ",
"G G B B B G G G G G G K J G B G G G 1 H H H } ` ` ' ' ' ` ' ` ' ' ` ' ` ` l ` ` ' ` 4 $ g S B B B B G G G B B B B G B B N B B B ",
"G G B B D J G B B C G G G C B D D D y = 2 : ' ' ` ` ` ` ` ' ' ` ` ` ` ` ` z ` ' ` ` l $ g t N M M B B D M B B B B B B B B B G G ",
"B G G B C G B M p p M B D B B D D t t t & ] ' ` ` ` z z ` ` ' ` ` ` ` ` ` ' } ' ` ` z $ t t 9 B B G J D G G G G B B G B B B G G ",
"M G G M C G B p p M G J G B G G J t t 9 $ ' ` ` ` z z z z ` ' ' ` ` ` ' ' ] ' ` ` ` z & t t t J G J G B G G B G G G B B B B B G ",
"B G G M B G B p M D K K J G G G C t t 9 q $ ` ` ` z l z z z z ` ' ` ` ' { { ' ` ' ` z & t y g G G G B B G G B B G G B B G G G G ",
"G G B B D J N p B J P L G G G G B r t t y f & ` z z $ $ & * z ` ` ' ` { [ ' ` ` ' ` & y f t t V B B G G G B B B B B G G G G G J ",
"G B N N C G B N G K L J B B B B G B t t f f y # & $ : : : t & z ` ` ' ' { ' ' l $ $ y g y y S B B G G G G G B B G G B G D B B B ",
"G B B B G G G D G J J C B B G B B B N t y t t t t t t 9 t t q & $ ` ' } ] ] ' ` 1 y t t y B B B B D B M G G B B G B B M B B B B ",
"G G G B G G G G G J G B B G G G G B G G y f t t i 9 t t t f 9 7 t h ` ` ` ` ` : t t g t D B B B G B M B G G B B G B B B B G B B ",
"G J J D G J G G D D B B N G G G G B G C B B t t t t t f y f q 7 t h h y 9 t t t t t V B B B B D G G B B G B B G G B B G G G G G ",
"B G B B B B G B B B B N B G J G B B B B M M B B B N y f g f q 8 t h h t t t B B G G C B B B B B G B B G K G G B G G B G G G G G ",
"G G G G B G G G B B G G D G G B B B B B M B B B M N G G J G p r B P L B D D G G G G B B B B D G G B G G J G G G G B G B G G G G ",
"J J G G G B G G D G G G G G G B M N B B B B B B M N G G D D p r B L K B B C S G J B M B B G G G G G G B G G B B G G G G G V G G ",
"J G G B B B B G G G G G D D B N M B B B B D G B D G K G B B p 6 N L L B B B B Z G B N V G G G G G G G B B B B B G G B G B B B B ",
"G B B B B B B G G G G B B C B B B G G G D G J C G J K G G C p r B L L B B B V G G B B G G G B G B G G B B G G G B B B B B B B B ",
"D D B B B B V G G G G G C G B B B G J G B D J G G J K J G G M r B P L G B G C G G B B G G G B G D B B B G G G B B B G G B B B B ",
"G G D B G G G G G G G G G G G B D C C D B D G G B D G G B B p r B P K B B V G G B B B G G G B G G B B B B B B B G G G G G D B G ",
"G G G B B G G D G G B G B B C B G D G G G G J C B B G B N B p r B L L B B D B B B B B B B B B G B B B B B B G G B G G G G B G G "
};
