/* XPM */
static char *pu61680101623[] = {
/* columns rows colors chars-per-pixel */
"64 64 95 2 ",
"   c #000000",
".  c #060B07",
"X  c #080A07",
"o  c #060908",
"O  c #080A09",
"+  c #1D0F0E",
"@  c #1B100E",
"#  c #170616",
"$  c #180717",
"%  c #160817",
"&  c #180815",
"*  c #180719",
"=  c #190818",
"-  c #0F1314",
";  c #101415",
":  c #111518",
">  c #1D131E",
",  c #25191F",
"<  c #2B1D1D",
"1  c #1D1220",
"2  c #261920",
"3  c #281920",
"4  c #271D3F",
"5  c #1C2222",
"6  c #2E2E2E",
"7  c #342C2A",
"8  c #382E2D",
"9  c #39312F",
"0  c #2D2532",
"q  c #2E303C",
"w  c #333333",
"e  c #3D3533",
"r  c #3E3936",
"t  c #31313D",
"y  c #3B313A",
"u  c #3C3C3C",
"i  c #421E06",
"p  c #4B2B14",
"a  c #63351D",
"s  c #413736",
"d  c #413937",
"f  c #443C3A",
"g  c #744A31",
"h  c #271E41",
"j  c #281E41",
"k  c #040F69",
"l  c #031263",
"z  c #03106C",
"x  c #051274",
"c  c #07127A",
"v  c #09147C",
"b  c #454545",
"n  c #494947",
"m  c #4D4D4D",
"M  c #4E504F",
"N  c #51514F",
"B  c #4D4F52",
"V  c #4D4A5D",
"C  c #514F50",
"Z  c #495058",
"A  c #525252",
"S  c #5E5252",
"D  c #575759",
"F  c #5A5A5A",
"G  c #605252",
"H  c #5E5E60",
"J  c #636363",
"K  c #6A6A6A",
"L  c #726B7D",
"P  c gray44",
"I  c #99423B",
"U  c #996B4A",
"Y  c #A4745D",
"T  c #877E7F",
"R  c #887E7F",
"E  c #CD8565",
"W  c #E5A57C",
"Q  c #0C1780",
"!  c #0E1982",
"~  c #131E87",
"^  c #16218B",
"/  c #1B2690",
"(  c #1D2992",
")  c #222D97",
"_  c #222D99",
"`  c #3C4AAD",
"'  c #466ACA",
"]  c #619FEE",
"[  c #5FA1EF",
"{  c #61A0EF",
"}  c #61A0F0",
"|  c #B19997",
" . c #C4B59E",
".. c #F9D6BA",
"X. c #FAEDE7",
/* pixels */
"m A A A D D A A A m A A N m m m A A A m D A b n m m m n A A u w A J G B M A A D A A A m B C N n m n n C A A b b A F F A A m n n ",
"A D D A A A A A m m A D A n m m A A m n A N b b m B A m A A b u A K F N M A A M m m m m m A A A m m b m A m n m A F A A A A m A ",
"A A A N A B m m m n A F A M A A A A m n A m b b m m m n N A u w A J F m A A A m n n m n m A D A A C m m A m m B D F A A A A C A ",
"m A m n n m A A N n C A A A D A m B m m A m m n A A C m m B b u m H D m M A A n y B m m A A A A A A B A A A N A A A A A B m m A ",
"m A B n n A A A B n m A C B A A n m n n m A m A F A A A A A b w m J F m M A m y  .y A A A A A n A m m B A A m A n m N A m n m m ",
"A A A n m C A A m m A A m n m n m m B A A m m A B n C A A A b       D m M A A y  .y C A A A C m m n b n N m n m n m A F m N A A ",
"m A A m m m A A N m A D m n m m A A A A m C A D C n A       O O t O O       A y  .y A m A M A m B n b n C C m m C A D D A A A C ",
"m A m A A A A A D m A A A m A A A A A A m A A A O     O : : ; 5 5 5 ; ; O .   O O y C B b m m m A m n m D D A m B A D A n m B n ",
"A A A A N A A A N m N A A C A A A A A m A A D     ; ; 5 5 5 Z 5 Z Z t 5 t ; O    .y m n n m n m A m A A D A A m A A A m A m m m ",
"A A A A m m m A A m B A m m m A A A A           ; 5 q t t t t Z t t t Z 5 t ; O     A A N m m m A A A N A A m m m A A N A A N m ",
"D A A B m m m m m n m m C m A A A m M n   O O - 5 t t Z Z Z t t Z t 5 ; X O 5 ; O O   A A m m N F A m m m m n m A A N m A N m B ",
"D D A m m m m A m m n m m A A A C N B m N   : O ; ; Z 5 5 t Z t Z t 5 t ; ; O 5 - O O     m m A D A m m m m M A D A A A C A m m ",
"F A A N B N A A A A m m A A m m m m m m A A   O   ; t ; t t Z t t Z ; 5 t ; ; O O       n B A A A A m m A A D D D A A C A A m m ",
"A N N m m A A A A C m m m A B m A m m M A A   O   5 O 5 t Z t 5 t Z 5 ; Z ; ; O     y C A N A A A N m m A m m m A C m m m N m A ",
"m m m m m m m n n m A A m N N A A m m N A     O   t - O t Z t 5 Z 5 t ; 5 O   -   O   A A A A A m m m m m m b b m m m m N m m A ",
"m n m m C B m n b m A A m m m A A m m     O - ;   ;   O t Z 5 ; Z 5 t ; -       O   O   A D A A m n m A A A m m N A A N A B A A ",
"m C A A A A m m N F F A n n A D D A m m A   O O     O ; 5 t Z ; 5 ; Z ; O ; O   O     A A C D A A m A A A D A A A D D A A A A A ",
"m A A A A A m m A F F A m B A A D A m B A 3     - - ; O ; 5 t : O ; Z ; O : O   O   3 A m N N N m m A A A A A N A F D A A A N m ",
"A A A A A B m C A A A > > > m C A m n m C 3 ..W O O - 5 O 5 5 O ; ; 5 ; O O       ..2 y m m B m n n A A A A m N D F m b b m m m ",
"A A A N m m n m B m m > L L > > , n b n m 3 I ..  O 5 t - - 5 O ; O 5 O O   O   ..I 2 y C N A A m n A A C A m m A A n b b m m m ",
"m C m m m m n n m n m > S L L L L > > > > > 2 ..  O ; Z ; O ; O ; O ; O   O   E ..2  .y A A A A m m C m m A m m C A C m A D A N ",
"A A A m A m m m M C B > S L L L L L L L L L L 2 I   ; 5 O   O ; ;   ; O   O   I 2 y  .y A A A A m m A m m N m A M A B m A F A A ",
"A A A A A A A A F D A > S L / _ _ L L L L L L L , E   - O O   O ; O O   O   E 2 D y  .y A A A A m m B N C M B A A m b b n m m N ",
"A A N m A A m B A A A > S L / _ _ ) _ / Q > > 1 + I E O   O O   ; O   O   E I + + y | 1 A A A A b m A B A A N A A A m n n m A A ",
"A A n m B m m m A A m > S L / _ ) ) ) ( > 0 V V > @ I I   O O O O   O W   I @ p > > > g > S A A m m m m A A A B A A A m A F D A ",
"F A n m A A A m A A m > S L / _ < < < < < < < L % = # + Y O   O     Y Y @ = = = V > i g U > A A b n m m A A N n m A m b n A A m ",
"D A B A A A A A C A m > S L ^ ( p p p p p p p # # j h % =   +     @ @ = = j 4 = & > i a g U = m n m N A A A A m m m C m n A A A ",
"N m m m m m n m B A N > S L Q ~ < < < < < < < = j j 4 j j # = = = % = j 4 j h 4 & > > i a g 2 A n m A A A A A m m A A m B A A A ",
"A m n A A M m b n m m > S L c ! / _ > > > T 1 = j h ` ` j j j j j j h 4 ` ` j j # < , i i a g > B C A C A m B A A A M M A A A A ",
"m m m B A m b b A A M > S L x Q / ) 0 0 V V T # ` j ` ' ' ` ` ` ` ` ` ' ' ` j j # > R + > > > A m m m m n n m m B m m m A A A A ",
"r u u b u u w u b u u > S L x Q ^ > > > 0 0 V # ` j ` ' } ' ' ` ` ' ' ' ' ` j j # T R L V 0 > u u u u u u u u b u u u u u u f u ",
"6 6 w u u w w w r u u > S L x Q Q > V > 1 > > * ` j ` ` ' } } ' ' ' ' ' ` ` j j = V V V > > > 6 w 6 6 6 w 6 w w w w 6 w u w 6 w ",
"n n m M n u b B m m m 1 S L c v c > b | V > > # ' h ' ` ' { { { { ' ' ' ` j j j = > > > > V > n m m n n N m m A A m n B N n n m ",
"F J K K D A G K P K K > S L x v , , > < 3 < < < ' j ' ` ` ' { { ' { ' ` ` 4 j j # > > V T T 2 H J J J H J K K P K K K K K K J K ",
"F H J H F F K K J H F 1 S L c x p p p p p p p p ' ' ' ' ` ' ' ' { ' ' ` j h h j j = >  . .R > F J F F D H J J K J F J J J H H J ",
"M m m M A D D D n n m 1 G L z x < < < < < < < < ' ' { ' ` ` ' ' ' ' ` ` j j j j h # >  .T R > m m C m B A A m m N m n m n n n A ",
"m n m B m n n m b m A 1 S L L k x , I ......* ' ' { ] ' ' ` ` ' ' ` ` j j j j j 4 = > 1 > V > m m C A C A A m m m m m n m b m C ",
"n b M A m b n C B A N m > S S L z x , E ..E # ' { { { { ' j ` ` ` ` ` j ` j j j 4 = ....X.> 1 m n A A N A A B m b n m m m m m m ",
"n n A A A N A D A A m n n > > G L k k 2 2 2 & { { { { { { ' h ` ` j j ` ` j j j j = ......E 2 m n A B m m m A A m m N A A A m m ",
"A D F D A B A A A A A C N N A > S L k k k k l { { { { { { ' j ` ` j j ` j j j j 4 = ......I < m m D A A A A A A C C A D A A A B ",
"A A D A A m m M m m m B C m m m > S L z z l l } ' [ ' } { } ' ' } ' { ' j ` j ` j j = ..E , A m m A A A m A A m m m A A A N m m ",
"n m m m n n n m n n m m A m m F D > S L L L L ] ' { ' ' ' [ { ' ' { ' ' j ` j ` h 4 = 2 , A A m A D A m m m A m m B m A A m m n ",
"m m m m n m B N A A A D D A A D F D 1 S S S G ' ' { ' ' ' ' ' } } ' ' ` ` j j ` j j % m m M B A A M m b m C N m A B N m m m m m ",
"A D D A A A A C A m m A A m m A D M M > > > > ' ' ] ' ` ' ' ' ' ' ` ` ` j h ` ` ` 4 = e A A A A m n b n A A A A m A A A A A A m ",
"D F D A B m A m b b b m B n n A A m n e = ' ] ` ` ' ] ` ` ' ` ` ` ` j j 4 h ` ` ' ` j = r A A A A m m A D D A N C A A N m B m n ",
"A A A m n m B A m n m A A m m A D m e e = ] ' ' ` ' } ' ` ` ` ` ` j j h j j j ' ' ` j = r s A M B A A F D A A m A A A m n n n b ",
"N A m n m A A N A A A F F A N A D s e e = { ' ` ` ' ] ' ' ' ` ` ` j j = = h h j ' ` j * e e e m n B A A A C m m B N B m b m m n ",
"N A m m A D A m m m A A A C m m N e e s = ' ` ` ` ' ] ' [ ' ' ` j j = = # = j j ` j j * s e 9 b b n N N n m m m n m m m B C A C ",
"m A C m N A n b u u b m N m m C B e r e = ` ` ` ` ' ' { ' ] ' ' j = = = # = = = j 4 4 = e e e m m D F N N A A A m A A m m m M A ",
"n N C b N A m u u b N D A m A A D s e 9 8 = = ` ' ' { [ { ' ' ` = = > p p p = = = # = e e s r A A D A m A A m m A A m m m m C A ",
"m A A n m D n u b C F H D A A A A m 8 e 8 e , = = { ' { ' { ] ' = f s > > > = 1 e e e e e r A A A C m m A A m m m A m m A A A D ",
"A A B n B D n u m D K J A A A A m n m r e s s > p 4 { ' { { ' # e f f e e e e e e e e r s A A C m m N A A N m m m C A A A A A A ",
"A m n n A A m n A F J D m m A m C m m B s s s r > > h j j j j 7 e f f e s r e e e e e s A A A m m A A A A B m m A C A B N m m m ",
"A C n m A D A N A D F A n m A m A n n m C A r r e 9 e e e e 7 7 e f s e e r e e e e C C A A m m B C m m A A B m A m m m n m m n ",
"A A A M A D A A A A A m n A A A A m A A A A A B N m e e e s 9 7 9 s f e r s m m A A A m m m m m N m b n A A A m m m n n m N A B ",
"A D A A A A A B N A B m n A A A N C A A m m C C C m m A A D u w m K J m m m m m m B A m B m m m A A n C A m n C A A m A A D A A ",
"m A A n n C A m m m n n m A D A B n m m n b n m m n N A F A u w M K J A m m m m N A A m m m m N A m m D F D N m A m A A A A A A ",
"A A A B C A A N m m A A C A A A m m m m b n m m b b A F D A u w m K J A N A A A A A m n m m B A A m m A D A A A A A m A A A A A ",
"F D A A B N A A A A A A A A A n n b m n m m B m b n A A M M u u n J H M m A M A A B b m C A A A A N A m A N m m A A A A A A A A ",
"F A C A m n B A A A A A N A B b b n A m m A A m m A D A B m u w n J F m n m m C D m n M A A A A A A A m m m B n A A m m m m n m ",
"A m m m m n m A A A A B m m m n m A A A A A D A A D H A A m f w m K J m m m C A A m m A A A m A A A A m C A A A m m m C m n m m ",
"N m m m m m A A A N N A A A A m m A D A m A D A A D D F A A u w m K J N M A A A A m m A D A m C m N m m m A A m m m A A m m m m ",
"N A N B A A A A A A A A A A A m A N A m m N A A m N D N M B u w n K H m m C B A C m m A A A m A N B m n m m m n A A A A A N B A ",
"A A N m m A A A A A C M m m C m N A A A A A A A n m A m n n u w m J H m m m N m m m n n m m m A N m m m A m A A N B A A A m A A "
};
