/* XPM */
static char *pu71680101623[] = {
/* columns rows colors chars-per-pixel */
"64 64 96 2 ",
"   c #000000",
".  c #060B07",
"X  c #080A07",
"o  c #070909",
"O  c #080A09",
"+  c #1D0F0E",
"@  c #170616",
"#  c #180717",
"$  c #160817",
"%  c #180815",
"&  c #180719",
"*  c #190819",
"=  c #0F1415",
"-  c #101415",
";  c #1D131E",
":  c #25181F",
">  c #2B1D1D",
",  c #1D1220",
"<  c #261920",
"1  c #1C2222",
"2  c #2F2F2F",
"3  c #302826",
"4  c #342C2A",
"5  c #39312F",
"6  c #2D2532",
"7  c #2F313D",
"8  c #333333",
"9  c #3D3533",
"0  c #31313D",
"q  c #3B313A",
"w  c #3C3C3C",
"e  c #421E06",
"r  c #4B2B14",
"t  c #63351D",
"y  c #403635",
"u  c #413937",
"i  c #453C3B",
"p  c #46413E",
"a  c #744A31",
"s  c #271E40",
"d  c #281E41",
"f  c #030E67",
"g  c #040F69",
"h  c #03116D",
"j  c #050F70",
"k  c #051174",
"l  c #07127A",
"z  c #09147D",
"x  c #454545",
"c  c #494947",
"v  c #494748",
"b  c #4D4D4D",
"n  c #504E4F",
"m  c #50514F",
"M  c #4B4758",
"N  c #4D4B5C",
"B  c #4D5152",
"V  c #495058",
"C  c #525252",
"Z  c #5E5252",
"A  c #575759",
"S  c #5A5B5B",
"D  c #5E5E60",
"F  c #636363",
"G  c #6A6A6B",
"H  c #726B7D",
"J  c gray44",
"K  c #97423B",
"L  c #99423B",
"P  c #996B4A",
"I  c #A4745D",
"U  c #877E7F",
"Y  c #CD8565",
"T  c #E4A57C",
"R  c #0C1780",
"E  c #0E1981",
"W  c #141E87",
"Q  c #16218B",
"!  c #1B2690",
"~  c #1D2994",
"^  c #222D97",
"/  c #232E98",
"(  c #3C4AAD",
")  c #3D4AB0",
"_  c #466ACA",
"`  c #887F80",
"'  c #609FEE",
"]  c #5FA1EF",
"[  c #61A0EF",
"{  c #62A1F0",
"}  c #B19997",
"|  c #C4B59E",
" . c #CFC587",
".. c #D0C688",
"X. c #F9D6BA",
"o. c #FAEDE6",
/* pixels */
"b C C C A C C C C b C C m b b c C C n b A C x v c b b v C m w 8 C F S b b m C C C C C B n C C c b c b n C C x v C S S C C b c c ",
"C A A C A C C C b b C A B b b b C C b b C b x x b C C b A C x w C G D b m C C m b b b c b C C C b b v b C b c c C S C C C C n C ",
"C C C m C n b b b b C S C C C C C C b c C b x x b b b c n b w 8 C F A b C C C b v b b c b C A C C C v b C B b B S A C C C C n C ",
"b C b c c b C C b c n C C C A C b n b b C B c b C C B b B b x w b F A b n C C b b n n b C C C C C C B B C C n C C C C C n b b C ",
"b C b c c C C C b v B C b n C C c b b b m n b C S C C C C C x 8 b F S b n C m c B C C C C C n b C b b n C B b n c b m C b v b B ",
"C C C b b C C C b b C C b c c b c b n B b b m C n c C C C C x 8 c D A b n C C n b n m B C C B b b c x v C b c b c m C A n b C B ",
"b C C b b n B C C b C A n c b b C C C C C b C C C b C C C C x 8 x A A b C C C b v n C C n C n n n c x v C C b b n C A A n C C B ",
"b n C b C C C C C b C C B n C C C C C C n C A A C C A A C b x 8 c S C b C A C b v b q b c c b b B b c n A C C m C C A C c b C c ",
"C C C C m C C C C b C C C B C C C C C b C C C C m b C n C b x       D A C C b c v q  .q c b c b C b C C A C C b C C C C C b b b ",
"C C C C b b b C C b n C b b b C C C C b C C C b b b b       . O 0 O O       b c n q  .q m b b b C C C m C C b b b C b C C C b b ",
"C A C n b b b b b c b b n b C C C b b b b b C C O     O - - - 1 1 1 - - O O   O O q  .q n b b b A C b b b b c b C C C b C b b C ",
"A C C b b b b C b b c b b C C C C b b b b C C     - - 1 1 1 V 1 V V 0 1 0 - O   n q  .q b b b C S C b b b b n C C A C b C C b b ",
"A C C m n B C C C m b b C C b b b b m           - 1 0 0 0 0 0 V 0 0 0 B 1 7 - X     | q c n C A C C b m C C A A A C C B C C b b ",
"A m b n b C C C C n B b b C n b C b b b   O O - 1 0 0 V V V 0 0 V 0 1 - o o 1 - O O   q B C C m C b b b n C b b m C b b b m b C ",
"b b b b b b b c c b C C b b C C C b b b C   - O - - V 1 1 0 V 0 V 0 1 0 = - O 1 - O O     C C C b b b b b c x x b b b b b b b C ",
"c c b m B n b v v b C C b b b C C b b C C C   O   - 0 - 0 0 N 0 0 V - 1 0 - - . O       C C C A b b c C C C b b C C C C C n C C ",
"b C C C C C b b b A S C c c C A A C b b C C   O   1 O 1 0 V 0 1 0 V 1 = V - - O     | q n C C C C b C C C A C C C A A C m C C C ",
"C C C C C C b b C A S A b n C C A C b n C     O   0 - O 0 V 0 1 V 1 0 - 1 O   -   O   q n C C C b b C C C C C C C S A C C C m b ",
"C C C C C n b C C C A B b b b B C b c     O - -   -   X 0 V 1 - V 1 0 - -       O   O   n b n b c c C C C C B b A A m x x b b b ",
"C C C b b b c b b b b b ; ; ; m C b c v c   O O     O = 1 0 V - 1 - V - O = O   O     q C b C C b v C C b C b n C C c x x b b b ",
"b B b b b b v v c c c n ; H H ; ; ; C b b <     - - - O - 1 0 - O - V = O - O   O   < q C m C C b b n n b B c n C C n n C A C m ",
"C C C n C n b b C m C C ; Z H H H H ; ; ; < X.T O O - 1 O 1 1 O - - 1 - O O       X.< q C C C C b b C B b C b C n B n b C A C C ",
"C C C C C C B B A C C C ; Z H H H H H H H : L X.  . 1 7 - - 1 o - O 1 O O   O   X.L < | q C C C b b B n b C b C C n c x c b n m ",
"C C b b C C b C A C C C , Z H ! ^ ^ H H H H < X.  . = N - O - O - O - o   O   Y X.< q | q C C C v c C n C C C C C C c x b n m C ",
"C C c b C b b b B C b b ; Z H ! / ^ ^ ^ ! R l < L   - 1 O   O - -   - O   O   L < b q | q C C C b b b b C C C C C C n b C A A C ",
"S C c b C C C b C C b b ; Z H ! / ^ ^ ^ ^ W R z < Y   - O O   O - O O   O   Y < C b q } q m C C x c b b C C b c b B b v b C C b ",
"A C n C C C B B C C b b ; Z H ! ^ > > > > > > > + L Y O   O .   - O   O   Y L % + ; ; ; q b C m c b C C C C C b b b m b b m C C ",
"C b b b b b b b b C b b , Z H Q ~ r r r r r r r ; % L L   O O O O   O T   L + r ; ; ; a ; C A C c b C C C C B b b C C b b C C C ",
"C c b n C B v x c b c b ; Z H R W > > > > > > > % % * + I O   O     I I + * $ % N ; e a P , C C n n B C B b n C C C m B C C C C ",
"b b b C C b v x C C C C ; Z H l z ! ^ ; N U U # % d d % *   +     + + % % d d % $ ; e t a P , C n b b b c v b n n b c b C C C C ",
"w w x x w 9 w w x x w w ; Z H l W ! ; N U ; H $ d d d d d $ % * & # * d d d d d & ; , e t a ; w w w w w w w w x x w w w w w w w ",
"2 2 2 8 w 8 2 8 w 8 8 8 ; Z H k z Q ; ; ; N ; $ d d ( ( d d d d d d d d ( ( d d * e ; e e t a , 8 2 2 2 8 2 8 8 8 2 8 8 8 8 8 8 ",
"c c b b x w x n b b b b ; Z H l z R ; ; ; 6 6 % ( d ( _ _ ( ( ( ( ( ( _ _ ( d d @ ; ` ; ; ; ; b c b c c b b b C C b c b C b c b ",
"S F G G A C S J J G G G < Z H k l l ; N ; ; : # ( d ( _ [ _ _ ( ( _ _ _ _ ( d d @ M N N ; ; ; D G F F D F G G J G G G G G F F G ",
"S F F D A S F G D D S D * Z H k l > > > > > > > > d ) ( _ [ [ _ _ _ _ _ ( ( d d & , , , , N ; D F S A A F F F F F D F F F S D F ",
"C c b m C A A A v b b C , Z H k l r r r r r r r r d _ ( _ [ [ [ ' _ _ _ ( d d d @ ; , N U U , b b m b b C C C n b b c b b c b C ",
"b c n C b c c b v b C A ; Z H k g > > > > > > > > d _ ( ( _ [ [ _ { _ ( ( d d d $ , , | | U ; b b C C C C C b b b c b c c v b n ",
"x x n C b x c C m B m b ; Z H H j k < K X.X.# ( _ _ _ _ ( _ _ _ [ _ _ ( d d d d s $ , | U U ; b c m C n B C b n b b c m n b v b ",
"c b B C C m C A C C b c x ; Z Z H h j < L L & ( _ _ ] _ ( ( _ _ _ _ ( ( d d d d s $ , | U } ; b b C C b b b C C b c B C C C b b ",
"C C S S C b C C C C B C C B ; ; Z H g g < < # _ _ [ ' _ _ ( ( _ _ ( ( d d d d d s $ , , $ x , b b C C C C C C C B n C C A C C B ",
"C C A C C b b B c b b n B b c C ; Z H h h h f _ [ { { [ _ d ( ( ( ( ( d ( s d d d & X.o.o., , b B C A n b C C b n b C C C C c b ",
"c b b c c b c b b c b n C b n A A ; Z H f g f [ [ [ { [ { _ s ( ( d d ( ) s d d d & X.X.X.Y < n C C C b b m C b n n b C C b b b ",
"b b b b b b n b C C B A A C C S S C , Z H H H [ { [ [ { [ _ d ) ( d d ( s s s s d # X.X.X.L < n C n c v c C n n n C B b b b b b ",
"C A A C C C C C C b b C C b c C A C C ; Z Z Z [ _ [ _ { [ [ _ _ [ _ ' _ s ) s ) d s & X.Y < C C b v v c C C C C b B C C n C C b ",
"C S A C b b B b c v x b B v c C C b b b ; ; ; [ _ [ _ _ _ [ [ _ _ _ _ ( d d 6 ) d d # < : C C C B b b C A A C B C C C C b n b v ",
"C C C b v b n C c b b C C n b C A b c 5 9 % [ _ _ ' _ _ _ _ _ _ _ ( ( d s d ( ( d d # 9 y A C C B C C S S C b b C C C b c b v x ",
"C C b c b C C C C C C S A C C C C C 9 9 9 # [ _ _ ' _ ( _ _ _ ( ( ( d d d d d ( ( d @ 9 y 9 b c c b C C C n b b b C b b c c v b ",
"C C b b m A C b c b C C C C c b C u y y # _ { ( ( _ ' ( ( _ ( ( ( d d % @ d d ( ( ( d & 9 9 9 x x c n m c b b b b c b b B B C B ",
"b C m b B C c x w w x b m b b m b 9 9 9 % { _ _ ( _ ] _ ( ( ( ( d d # # # d d d ( ( d $ 9 9 9 b n C A C C B C C b C C b b b C C ",
"v C n x C C b p w x B A C b C C A 9 9 5 $ [ _ ( ( _ [ _ _ _ ( ( d d # # # * d d ( d d & 9 9 9 C A A C b C C n b C C n b b c n C ",
"b C C v b C c w w n D D A C C C n q 9 9 % _ ( ( ( _ [ _ [ _ ( d d @ @ # # # # % d d d * 9 9 y A C C b b C C b b b C b b C C C A ",
"C C B c C C b w n S G D C C C C b 5 9 9 % ( ( ( ( _ _ [ _ [ _ d # # i , , ; # % # & * u 9 9 9 n b b m C C n b b b m C C C C C C ",
"C b c c C A b v C S F A b b C b C b 9 9 9 * $ ( _ _ { { [ _ _ s # i i 9 9 9 y 9 9 9 9 9 y 9 B n b C C C C C b b C C n B B b b b ",
"C n c b C C C B C A A C c b C b B c c 9 9 9 < $ % d { _ [ { _ # 9 i u 9 9 9 9 5 9 9 9 9 9 C b b b C b c C C n b C b b b c b b c ",
"C C C m C A C C C C C b c C C C C b m A 9 u 9 , t t s s d d s 4 9 i u 9 9 9 9 9 9 9 y 9 b b b c C b v c C C B b b b c b b C C n ",
"C A C C C C C n m C b b b C C C m m m C b b 9 9 ; ; ; ; ; u 4 4 9 i i 9 9 9 9 9 9 9 C b b b n C C b c B C n b b C C b b C C A C ",
"b C b b c C C b b b c c b C A C b b b b v x v b b c 9 u i 9 5 4 9 i i 9 9 9 b b C C C b b b b b C b b C S A C b C b m C C C C C ",
"C C C b n C C B b b C C C C C b b b b c v v n b x x C C C C w 8 b G F B m B C C C B b c b b b C C b C C A C C C C C b C C C C C ",
"S A C C B b C C C C C C C C C b c v b c v b C c x c C C C b w 8 v G S b b b C C A b x b C C C C C C C b m m b b C C C C C n C C ",
"A C C n b b n C C C C C n C b v v c n b B B C b n C S C B b w 2 c F D c b b b m C b v n C C C C C C C b b b b b C C b n b b b b ",
"C m b b b c n C C C C n b b m c b C C C C C C C A S S C C n w 8 b G F b b b C C C b b C C C b C b C C b B C C n b b b b b c b b ",
"C b b b b b C C C n C C C C n b b C A C b C A C C C S A C C x 8 b G F C b C B C C b b C A C b B C b b b n C C b b b C C b b b b ",
"C n n m m C C C C C B C C C B b m C C b b m C C b C C C B b w 8 c G S b b b n C C b b C C m b C C n b c b b b c C C C C C B n C ",
"C C m b b C C C C C B n b n C b B C C C C C A C c b C b c v w 8 b F F b b m b n n b c c b b n C b b b b n b C C C B C C C n C C "
};
