/* XPM */
static char *pu81680101623[] = {
/* columns rows colors chars-per-pixel */
"64 64 97 2 ",
"   c #000000",
".  c #050A06",
"X  c #080A07",
"o  c #060A09",
"O  c #080A09",
"+  c #1D0F0E",
"@  c #170616",
"#  c #180717",
"$  c #160817",
"%  c #180815",
"&  c #180719",
"*  c #190818",
"=  c #0F1415",
"-  c #101415",
";  c #1D131E",
":  c #2B1D1D",
">  c #1D1220",
",  c #261920",
"<  c #281920",
"1  c #271D3F",
"2  c #1C2222",
"3  c #2E2E2E",
"4  c #312927",
"5  c #342C2A",
"6  c #35302D",
"7  c #2D2532",
"8  c #333333",
"9  c #3D3533",
"0  c #31313D",
"q  c #3B313A",
"w  c #3C3C3C",
"e  c #421E06",
"r  c #4B2B14",
"t  c #63351D",
"y  c #413737",
"u  c #413937",
"i  c #443C3A",
"p  c #48403E",
"a  c #754A31",
"s  c #271E40",
"d  c #281E41",
"f  c #040F69",
"g  c #051163",
"h  c #03106D",
"j  c #051274",
"k  c #06127A",
"l  c #0A157E",
"z  c #454545",
"x  c #484647",
"c  c #474948",
"v  c #4D4D4D",
"b  c #504E4F",
"n  c #4E504F",
"m  c #50504E",
"M  c #4F4F51",
"N  c #4D4A5D",
"B  c #514F50",
"V  c #4F5150",
"C  c #495058",
"Z  c #525252",
"A  c #5E5252",
"S  c #565855",
"D  c #565658",
"F  c #5A5A5A",
"G  c #605252",
"H  c #636363",
"J  c #6A6A6A",
"K  c #706E6F",
"L  c #726B7D",
"P  c gray44",
"I  c #97423B",
"U  c #99423B",
"Y  c #9A6C4B",
"T  c #A4745D",
"R  c #867D7E",
"E  c #CC8565",
"W  c #E5A57C",
"Q  c #0C1780",
"!  c #0D1982",
"~  c #131E87",
"^  c #16218B",
"/  c #1B2691",
"(  c #1D2892",
")  c #222D97",
"_  c #3C4AAD",
"`  c #466ACA",
"'  c #877E81",
"]  c #619FEF",
"[  c #5FA1EF",
"{  c #5FA0F0",
"}  c #61A0EF",
"|  c #62A1F0",
" . c #B19997",
".. c #C4B59E",
"X. c #C4B5A0",
"o. c #F9D6BA",
"O. c #FAEDE7",
/* pixels */
"v Z Z Z D S Z Z Z v Z Z b v v c Z Z Z b D Z z c v v v z V Z w 8 Z H H v v m Z Z Z D Z b m Z b c v c c m Z Z z z Z F S Z Z v c v ",
"Z D D Z Z Z Z Z v v Z D m v v v Z Z v c Z b p z v M Z v D Z z w Z J F v v Z Z m v v v c c Z Z m b v x v b v c v Z F D Z Z Z v b ",
"Z Z Z m B Z V v v v Z F Z Z Z Z Z Z v c Z v z z v v M c M v z 8 Z H D v Z Z Z v x c c c b Z D Z Z Z v v Z Z v Z D F Z Z Z Z b Z ",
"v Z b c c v Z b v c b Z Z Z D Z v B v c Z v v v Z Z V v v v z 9 v H S v n Z V v v B Z v Z Z D Z Z Z v Z Z Z v Z Z Z Z Z b v v Z ",
"v Z v c c Z Z Z v x v Z m b Z Z c c v v v Z v Z D Z Z Z Z Z z 8 v H F v Z Z n v Z B Z Z Z Z Z c Z v v b Z Z v m c v Z Z v c v v ",
"Z Z Z v v B Z Z v v Z D v c c v v v B B m v m Z v v Z Z Z Z z 8 c H D v n Z q v v Z Z b Z Z B v v c z c B v c v c b D S v m Z Z ",
"v Z Z v v b Z Z m v Z D v c v v Z Z Z Z M v Z Z Z c Z S Z Z z 8 z D Z v m q ..q c b Z b B Z Z v b c z c Z m v v b m D D Z Z Z Z ",
"v m Z v Z Z Z Z Z b Z Z Z b Z Z Z Z Z Z m Z D D Z Z D F Z       c F Z v Z q ..q z c Z b c c v b Z v x v D D Z b b Z D Z c v b c ",
"Z Z Z Z V Z Z Z Z v Z Z Z Z m Z Z Z Z m Z Z Z Z B       O O 0 O O       Z q X.q c v v c v c v v Z v Z Z D Z b v m Z Z m Z v v v ",
"Z Z Z Z v v v Z Z v v b v v v Z Z Z v v Z Z O     O - - - 2 2 2 - - O O   O O q B Z Z Z m v c v Z Z Z Z Z Z v v m Z Z m Z m v B ",
"Z Z Z B v v v v v c v v b v Z Z Z v M v v     - - 2 2 2 C 2 C C 0 4 0 - o   X.q Z D D Z m v v v F Z v c v v c v Z Z b v M Z v V ",
"D D Z v v v v Z v v v v v Z Z Z Z           - 2 0 0 0 0 0 C 0 0 0 C 2 0 - O     b Z b c v v v Z D Z v v v m Z Z D D Z b Z Z v v ",
"F S Z b b Z Z Z Z Z v v Z Z v v v v   X O - 2 0 0 C C C 0 0 C 0 2 = o o 2 - O o   z z z c v Z D D m v m Z Z S D D Z Z Z Z Z v m ",
"Z Z v v M v m Z B m n v v Z Z v Z v v   - O - - C 2 2 0 C 0 C 0 2 0 = = O 2 - O X     Z B Z m Z Z v v b b Z v v Z B v v v v v Z ",
"v v v v v v v c c v Z b v v n Z Z v c M   O   - 0 - 0 0 C 0 0 C = 2 0 = - O O       D S Z Z Z Z v v v v v c z z v v v v v v v Z ",
"c c v m Z B v x c v D Z v v v Z Z v v V   O   2 o 2 0 C 0 2 0 C 2 = C = - O     q D S D Z D Z D v v v m Z Z v v Z Z Z Z Z v Z Z ",
"v Z Z Z Z Z v v v D F Z v c Z D D Z v     X   0 - O 0 C 0 2 C 2 0 - 2 O   -   O   Z Z Z Z Z Z Z Z B Z Z Z D Z Z Z D D Z Z Z Z Z ",
"Z Z Z Z Z Z v v Z D F S v v Z Z D     O - -   -   o 0 C 2 - C 2 0 - -       X   X   Z Z v b Z Z c v Z Z Z Z m Z Z F D Z Z Z m v ",
"Z Z Z Z Z B v B Z D Z V v v v M Z v c   O .     X - 2 0 C - 2 - C - O - O   O     v v Z v v b v v c Z Z Z Z v b S D m z x c v v ",
"Z Z Z v v v c v V v v v v c v V Z v c <     - - = O = 2 0 - O - C - O - O   O   < c v Z Z m Z Z c c v Z Z Z v v Z Z v z x v v v ",
"v B v v v v c c v > > ; m v Z S D V V < o.W O O = 2 X 2 2 X - - 2 - O O       o.< q V Z Z Z Z Z v v Z v v Z v v Z Z B b Z D Z Z ",
"Z Z Z v Z v v v V * L L ; ; ; Z D M V < U o.  O 2 0 - - 2 X - X 2 O O   X   o.U < q Z Z Z Z Z Z b v Z v v M v n v Z v v Z S Z Z ",
"Z Z Z Z Z Z B Z S : G L L L L ; ; ; ; ; < o.  O - C - O - O - O - O   O   E o.< X.q v Z Z Z Z Z v v Z b b Z v Z Z b c z c v v Z ",
"Z Z b v Z Z v Z D ; A L L L L L L L L L L < U   - 2 O   O - -   - O   O   U < q ..8 v Z Z Z Z Z x c Z B Z Z Z Z Z Z c x v v m Z ",
"Z Z c v Z v v v Z ; A L / ) ) L L L L L L L < E   - X O   O = O O   X   E : B y ..q c b v Z Z Z v v v v Z Z Z B Z Z Z v Z D D Z ",
"F Z x v Z Z Z v Z ; A L / ) ) ) ) / ! ; ; ; % U E X   X O   - O   O   E U + % q  .: v v c Z Z Z z c v M Z Z V c v Z v c c Z Z m ",
"D Z V Z Z Z m n Z ; A L / ) ) ) ) ( ; 7 N N > + U U   O O o O   O ..X U + r ; ; ; a ; x c b Z b c v v Z Z Z Z v v v v v v Z Z Z ",
"Z v v v v v c v n ; A L / ) : : : : : : : L @ @ & + T X   o     T T + + # # N ; e a Y ; Z Z D Z c v Z Z Z Z Z v v Z Z v v Z Z Z ",
"Z v v B Z m c c c ; A L ~ / r r r r r r r @ @ d d & %   +     + + * * d 1 # # ; e t a Y > D Z Z b b Z Z M v M Z Z Z V M Z Z Z Z ",
"v c v Z Z v z z Z ; A L l ~ : : : : : : : @ d d d d d & & % @ % * d d d d d # ; ; e t a ; Z D Z v v v v c c v v M v c v Z Z Z Z ",
"w w z z w q w w z ; A L j l ( ) ; ; ; R ; % d d _ _ d d s d d d d d _ _ d d # e ; e : t a ; z w w w w w w w w z w w w w z w i w ",
"3 3 3 8 w 8 8 8 w ; A L k ~ / ) 7 7 N N R @ _ d _ ` ` _ _ _ _ _ _ ` ` _ d d # ; R + : ; ; w w 3 3 3 3 5 8 6 8 8 8 8 3 8 8 8 3 8 ",
"c c v b z w z B v ; A L j Q ^ ; ; ; 7 7 N @ _ d _ ` } ` ` _ _ ` ` ` ` _ d d * R R L N 7 ; v v v c v c c v v v Z Z v v v V v c v ",
"G H J H Z B H J J > A L k l Q ; N > ; ; : & _ d _ _ ` } [ ` ` ` ` ` _ _ d d @ N N N ; ; ; J H H J H H H H J J P J J J J J H H J ",
"H F H H D F J J H > A L j k k ; '  .X.; * # ` d ` _ ` | } } } ` ` ` _ d d d @ * ; ; ; N ; J J F H F D D H H H J H H G H H F H H ",
"V n v Z Z D F Z v ; A L k k : : : - : : < < ` d ` _ _ ` } } ` } ` _ _ d d d & , ; N R R ; Z Z M v M v v Z Z v v Z c M v v c v V ",
"M c v Z v c c v c ; A L j k r r e r r r r r ` ` ` ` _ ` ` ` } ` ` _ d d d d d & ; X...R > V v c v M Z b Z Z v v B c c v c c v M ",
"z z v Z v z c Z v ; A L f j : : : : : : : : ` ` [ ` _ _ ` ` ` ` _ _ d d d d d & ; ..' R ; Z V v c Z Z b m Z n v c c v v v v c v ",
"c c Z Z Z m Z D Z > A L L f j < U o.o.o.% ` ` } } ` ` _ _ ` ` _ _ d d s d d s & > ; ; N ; D Z v c Z Z v v b Z Z v v B Z Z Z v v ",
"B S F F Z V Z Z Z Z ; A A L j f < E o.I @ ` } } } } ` d _ _ _ _ _ d _ d s d d @ o.o.O.> : D Z v v Z D Z Z Z Z Z Z B Z Z D Z Z B ",
"Z D D Z Z b v b c v v ; ; A L f f : , , # { ] ] } } } ` 1 _ _ s d _ _ s d d d & o.o.o.E < D Z v m Z Z n v Z Z v v v Z Z Z M c v ",
"c v v v c c c v v c v m Z ; A L f f f f f { ] ] } } } ` d _ _ d d _ d d d d d @ o.o.o.U < Z Z v Z D Z v v Z B v B v v Z Z v v v ",
"c v b v v v b b Z Z Z Z D Z ; G L f f f g { ` | ` ] } } ` ` [ ` ] ` d _ d _ d s @ o.E : v v Z B Z B v x c Z m B v Z B v v v v v ",
"Z D D Z Z Z Z m Z b v Z Z v v ; A L L L L | ` ] ` ` ` } } ` ` [ ` ` d _ d _ d d # , , V Z Z Z Z v c z c B Z Z Z v Z Z Z Z Z Z v ",
"Z F D Z v v m v x z z b b c c Z ; G A A A ` ` | ` ` ` ` ` } } ` ` _ _ d d _ d d # v v B Z D Z Z B v v Z D S Z b Z Z Z b v B v x ",
"Z D Z v c v Z Z c v v Z Z v v Z Z ; ; ; ; ` ` ] ` _ ` ` ` ` ` _ _ _ d d _ _ _ d # 9 c v Z Z Z Z V Z Z F D Z Z v Z Z Z v c c c z ",
"Z Z v c v Z Z Z Z Z Z D F Z b Z D y & ` ] _ _ ` } _ _ ` _ _ _ _ d d d d _ _ ` _ s & 9 Z Z Z v v c v Z Z Z b v v b Z v v v c v c ",
"m Z B c m D Z v c m Z Z D m v n 9 9 @ | ` ` _ ` } ` _ _ _ _ _ d d d d d d ` ` _ s & 9 9 Z v x z z v v B v c v v v c v v v B Z Z ",
"v Z m v m Z c z w w z v v c v y 9 9 % | ` _ _ ` } ` ` ` _ _ _ d d & @ d d d ` _ s # 9 9 9 v c v v D S b B Z Z Z v M m v v v Z Z ",
"x Z v x b Z v p w z Z Z Z Z Z u u 9 % ` _ _ _ ` } ` ] ` ` _ 1 1 % % & & d d _ d d # 9 9 9 Z Z Z D D Z b Z Z v B Z Z M v v v v Z ",
"b Z Z c v D v w z V F H D Z Z u 9 9 & _ _ _ _ ` ` ] ` } ` ` d % & @ % @ & @ d d d # 9 9 9 Z Z D Z Z v v Z Z v v v Z v v Z Z Z D ",
"Z Z B c b D c w c D J H Z Z Z 9 9 9 9 % % _ ` ` } } } ` ` _ @ @ , r r r & @ % @ # 9 9 9 y Z Z n v v n Z Z Z v v v m Z Z Z Z Z Z ",
"Z v c v B Z v c Z F H D v v Z v 9 9 9 9 < % @ | ` } ` } } ` % 5 9 ; ; ; ; * u 9 9 9 9 9 Z Z Z v v Z Z Z Z Z v c Z B Z B Z v v v ",
"Z v c c Z D Z m Z F D b c v Z v v 9 6 9 9 ; r d } ` | } ` % 6 4 9 u u 9 9 y 9 9 9 9 9 Z Z Z v v b m v c Z Z B v Z v v c c v v c ",
"Z Z Z Z Z D Z Z D Z Z v c Z Z Z Z v 9 9 u y ; ; d d d 1 s u 6 4 9 i u 9 9 y 9 9 9 9 Z M v v v v Z v z x Z Z V v b v c v v Z B Z ",
"Z D S B Z Z Z b m m b v c Z Z Z Z v Z m 9 9 9 9 9 9 9 9 u u 6 4 9 p i 9 6 9 9 9 Z B v M v v v v Z m c Z Z b c Z Z v v Z Z Z Z Z ",
"v Z v v v b Z v v v v c v Z S Z b v v v c z x v 9 9 9 u u 9 5 5 9 i u 9 M v v v Z Z Z v c v v v Z v v S F D B v Z Z v Z Z Z Z Z ",
"Z Z Z v v Z Z Z v v m m b Z Z b v c c v c c v v z z Z Z D V z 8 v J H M Z Z Z Z Z Z c v v B Z B Z v v Z D Z Z Z Z m v Z Z Z Z Z ",
"F D Z Z n b Z Z Z Z Z Z Z Z Z v x x c v v v b v z c Z Z Z v w 8 c H H v v Z M Z Z m x c Z Z Z Z Z Z Z v Z m v v Z Z Z Z Z Z Z Z ",
"D Z Z v v v v Z Z Z D Z b Z v x z v Z v v Z Z v v Z F Z v v w 6 v H F v v v v v D v x B Z Z Z Z Z Z Z v v v v v Z Z v B v v v v ",
"Z m v v v c b Z Z Z Z Z v v v c c Z Z Z B Z D Z Z D H Z B M w 8 v J H v v v v Z Z v v Z Z Z v Z Z Z Z v v Z Z Z v v v B v c c v ",
"Z m v v v v Z Z Z Z v Z Z Z Z v Z Z D Z v Z S Z Z D F Z Z Z z 8 v J H v v Z Z Z Z v v Z Z Z v V v v v v Z Z Z v v v Z Z v v v B ",
"Z v v Z n Z Z Z Z Z b Z Z Z Z v v Z Z b v b D Z v Z S Z Z b w 8 v H H v v V V Z Z v v Z Z Z v Z Z v v c v v v v Z Z Z Z Z m M Z ",
"Z Z Z v v Z Z Z Z Z Z v v v Z v Z m Z Z Z Z Z Z c v Z v c c w 8 v H F v v v B v B c c v v v B Z v v v B v v Z Z v V Z Z Z v Z Z "
};
