/* XPM */
static char *_1629f1c573a4cd0a6c2fad69f0a7bc4m7dJYGU4I5Ft6QjR[] = {
/* columns rows colors chars-per-pixel */
"64 64 166 2 ",
"   c #1E1E1E",
".  c #201F1E",
"X  c #1F201D",
"o  c #21211F",
"O  c #1F1F21",
"+  c #1F2121",
"@  c #242423",
"#  c #282726",
"$  c #292927",
"%  c #262629",
"&  c #272A29",
"*  c #2B2B2A",
"=  c #31312F",
"-  c #2E2E32",
";  c #302F34",
":  c #2F3131",
">  c #323333",
",  c #35343A",
"<  c #38373C",
"1  c #37383C",
"2  c #39393E",
"3  c #373542",
"4  c #393744",
"5  c #373945",
"6  c #3C3C43",
"7  c #3A3748",
"8  c #3E3C4B",
"9  c #413E4D",
"0  c #423E51",
"q  c #3F4045",
"w  c #3F424B",
"e  c #414246",
"r  c #43434B",
"t  c #46494E",
"y  c #48494D",
"u  c #444253",
"i  c #484654",
"p  c #464A53",
"a  c #4A4956",
"s  c #474559",
"d  c #494659",
"f  c #464B5B",
"g  c #4A4C5C",
"h  c #504758",
"j  c #534D5D",
"k  c #4D515D",
"l  c #52535E",
"z  c #4C4E61",
"x  c #534F61",
"c  c #4C5162",
"v  c #4F5568",
"b  c #555363",
"n  c #595666",
"m  c #555965",
"M  c #595A66",
"N  c #545669",
"B  c #5A5768",
"V  c #565B6D",
"C  c #5A5B6B",
"Z  c #565D70",
"A  c #595E71",
"S  c #625E6D",
"D  c #5B616F",
"F  c #576272",
"G  c #5B6273",
"H  c #5D6678",
"J  c #67646F",
"K  c #6F6F6F",
"L  c #646464",
"P  c #706E6F",
"I  c #6E706F",
"U  c #70706E",
"Y  c #626474",
"T  c #696473",
"R  c #626976",
"E  c #6F6F71",
"W  c #626779",
"Q  c #6A6778",
"!  c #646B7B",
"~  c #696D7D",
"^  c #6F7171",
"/  c #67707F",
"(  c #6A717E",
")  c #747474",
"_  c #767877",
"`  c #767779",
"'  c #7A7A7A",
"]  c #807E7F",
"[  c #7E807F",
"{  c #676E81",
"}  c #686F81",
"|  c #6B7283",
" . c #6E7688",
".. c #717384",
"X. c #727A86",
"o. c #717689",
"O. c #747C8C",
"+. c #797D8D",
"@. c #767E90",
"#. c #787F91",
"$. c #817F80",
"%. c #7F8081",
"&. c #76808A",
"*. c #7A828E",
"=. c #778294",
"-. c #7B8394",
";. c #7E8894",
":. c #7E869A",
">. c #7E899B",
",. c #818182",
"<. c #818694",
"1. c #838B96",
"2. c #808699",
"3. c #838B9B",
"4. c #898E9B",
"5. c #8A919C",
"6. c gray59",
"7. c #999997",
"8. c #90949F",
"9. c #979998",
"0. c #9D9D9D",
"q. c #A2A29F",
"w. c #848DA2",
"e. c #888FA1",
"r. c #8790A1",
"t. c #8F95A2",
"y. c #8991A5",
"u. c #8B94A5",
"i. c #8B93A2",
"p. c #8F98A7",
"a. c #8E96A9",
"s. c #8D98A9",
"d. c #9096A2",
"f. c #9196A1",
"g. c #9197A5",
"h. c #9296A3",
"j. c #949CA7",
"k. c #9298A4",
"l. c #9097A9",
"z. c #939BA8",
"x. c #959BA9",
"c. c #969DA9",
"v. c #9199AB",
"b. c #949FB1",
"n. c #9FA1A0",
"m. c #95A0B2",
"M. c #A1A1A1",
"N. c #A3A3A1",
"B. c #A1A2A2",
"V. c #A5A5A5",
"C. c #A4A4A3",
"Z. c #A9A9A7",
"A. c #ACACAB",
"S. c #AFB0AB",
"D. c #AFAFB1",
"F. c #B1AFB0",
"G. c #B6B6B6",
"H. c #B7B7B9",
"J. c #B9B7B8",
"K. c #BBBBBB",
"L. c #BEBEBE",
"P. c #BCBCBC",
"I. c #C0C0BE",
"U. c #BEBEC0",
"Y. c #C2C3C2",
"T. c gray79",
/* pixels */
"0.0.6.7.7.0.6.6.6.7.7.7.7.0.q.M.q.B.n.n.0.0.0.0.0.M.B.M.M.q.0.0.0.0.0.0.0.q.M.B.C.C.M.n.0.0.0.q.M.M.M.0.B.C.B.V.V.Z.Z.V.Z.S.V.L ",
"n.,.' ] ] [ ' %.[ %.,.,.,.%.+.' ' ' ' ,.,.,.,.,.,.,.,.,.,.[ ,.$.%.,.,.[ ,.,.$.,.,.$.,.] ,.,.,.' ' ' ' ,.,.,.,.,.,.%.,.[ ' [ Y.J ",
"7.) 4.h.h.f.h.h.h.t.g.k.j.e o $ * o 6 <.*.*.*.*.*.*.;.*.;.-.;.*.*.*.*.*.*.*.*.*.;.*.;.*.*.;.+.* $ @ r 5.1.1.1.3.4.1.5.<.5 9 L.K ",
"0.) 8.m.x.j.j.x.j.t.i.5.8.l > $ * 2 k 1.;.<.;.1.<.;.*.*.&.&.&.*.;.<.;.<.;.;.1.;.&.&.&.O.+.*.X.2 > @ r r.5.3.3.r.;.-.;.-.7 e L.I ",
"q.) 8.j.r.y.y.y.u.-.~ ~ ( ..| * = &.;.*.*.*.*.*.*.;.R D D D D D &.*.*.*.*.*.;.( V D D D D C D R m o q :.=.:.-.-.H Z A V 4 9 I.) ",
"Z._ h.x.r.y.y.4.3.+.( | ( | ! = = X.&.*.&.X.X.X...X.G C M D D D X.X.X.X...X.X.~ D D D D D D D C g @ e 2.@.X.@.O.W A G A 4 r P.) ",
"Z.' i.c.u.u.s.-.~ | | | | | ~ > > X.*.;.X.V D D D D M l b M D G D D D D F F C D G D F D D D D i e * r 3.| Z Z Z A A F A 7 9 L.P ",
"Z.) 5.x.-.+.+...Q ~ | ( ( Q G > > &.O./ ~ D D D D D V M M l M M C C D D C M M C M D D D D D D g r * r 3.| Z G Z A G F V 7 e L.E ",
"Z._ h.5.( Q J T T Q | | ..S j > > &.X.V D D D D D D D D M l l l l b G C l M l l l C D D D G D a r * r 3.} Z G G G G G A 7 9 U.K ",
"Z.) h.5.Q Q T Q ~ ( | R Y C b > > &.&.D D D D D D D D D C M M D C C D D M M l B S D D D D b l i r * r 3.| Z A A V N B B 5 9 L.E ",
"V.) h.5.Y T Q ~ ..| | C b B b = > &.X.D D D D D D D D D J G G G G D D G D M b M D D J G D i i i r * r w. .Z A G B j x x 5 9 L.K ",
"C.) k.i.~ Q B C C S S B B B b > > X.X.D D D D D D G l k g k g a k j g l D D D D G l g k g i i i r * 6 { G Z C n Z A A C 5 r L.K ",
"Z.) g.i.| Q b n n n n B B B b = > &.&.D D G D D D G l r i i i u r i i a G D D D D k u i r i d i r * 6 G A G C j A G G A 5 9 L.P ",
"Z.) h.4.B S M n B n n B B B b * : G R D D D D D M g i i i r i i i i i i j k g g g i i i i i i i 9 @ 2 H F A A V A G z g 3 9 L.P ",
"A.) h.3.b B n B n n n n n n b * * m C D D D D D l r i i i i i i i i i i r p i i y i i i i i i i r @ < A V A A Z Z A d 9 7 9 L.K ",
"A.) f.4.b B B B B B B B n S M * * * , a i i g i i i i i i i i i i i i i i i i i i i i i i i i i e @ * * 7 s u s u s u u 4 e L.K ",
"A.) 5.<.l n n b n n b n b b b * * $ : i r i u i i i r i i i i i i i i i i i i i i i i i i i i i 8 @ * # < s u u 0 u 0 9 3 r U.E ",
"A.) - = @ * * = = * * > = * @ @ @ @ $ * * * $ @ * : * : : * : * * * $ $ @ 2 g i a i i i i i i * * * * @ @ @ * * * @ * *   * P.E ",
"G.K @ * q q r r r r u w e e 6 6 q q 2 $ * & : 2 6 q q q 6 q 6 q q 2 2 , * , e 8 e r r r r e 9 $ * $ - e 6 e 9 e 6 q * $   * P.K ",
"A.P   6 w.:.>.3.>.>.>.>.3.:.2.3.3.w.( o * @ p  .( ! ! { | | / | | (  .D @ @ & @ o * * * * @ o @ @ . 6 w.:.>.2.w.3.w.e @ O * P.^ ",
"A.) 2 l -.=.=.-.#.#.:.#.-.-.=.O. .@.H , , o p | ! ! ! ! H H G H H F ! c : - $ > e r y r r 6 q 9 e 4 k -.=.-.@.o.O.@.p >   * K.K ",
"A.) 5.r.:.:.:.:.:.:.:.#.:.2.-.A A Z G H v o p | ! ! ! | v f k z f k f k v q   m w.-.:.w.2.w.3.>.;.3.:.:.-.3. .Z Z Z G F @ $ P.K ",
"A.) 1.1.| } Q } | o.:.#.#. .} C V A V b p @ p | ! ! F V z a g a f z c f u 5 @ b w.#.=.o.} } | #.=.=.#.} } ~ W A A G A V . * P.E ",
"A.) 3.-.Z C h N Z | :.:.:.{ Z x x H V 0 e $ k | ! { m f g p i p z k z p 3 < $ V 2.=.:.W Z A G -.:.2.O.Z B j N A A A G Z @ * L.I ",
"A.) 1.1.A A V A A !  .{ Q A B C B b z u 8 * k | D C k g g i g p f z c f 5 , & v 3. .} H A V C } }  .} A A V A A A F N z O * P.E ",
"A.) 1.;.A A G G A F Z x x b n A A u 8 u 9 * p | M r i i i i z c z c v w 5 3 & m w.H V A A b x A Z Z Z A A G G A G H d 8 O * P.E ",
"A.) 4.*.s g d N A A A z u d d j s s s u e * a | M i g f z f 9 9 w v w 8 5 , $ m w.W Z C n b n n C A A G N d d g s z s u   * L.K ",
"A.) 3.+.0 0 8 z H A H g 0 s 0 0 0 0 0 s 8 * k  .V i g c k k 4 4 v w 5 5 5 1 $ M w.H A B x b x b B G A H z 0 0 0 0 0 0 0   * P.K ",
"D.) 4.+.0 u u s g d g s 0 u 0 u 0 s u s 8 # w V k g c f w 8 5 7 8 7 5 7 7 > @ i } G G A A A C d d g z d s u 0 s u u u u   * K.K ",
"A.) 1.+.8 u u 0 0 0 0 0 s 0 s u s 0 u u 7 @ 5 f f f g z 8 5 5 4 7 3 7 5 7 ; @ r F V A Z Z A Z u 0 0 0 0 0 u u u u u u 0 O * L.K ",
"S.) 5.-.0 s 0 s s u u u 0 0 u 0 0 s 8 % * * * * , 7 7 5 7 5 7 4 7 4 7 , * * * * * 8 s i s u s u s s u s u u u u 0 u u 9   * K.K ",
"S.) <.X.0 u u 0 0 0 0 0 s 0 u u 0 s 8 % * * * # > 7 5 5 5 7 4 4 4 4 7 , $ * * & * 7 0 0 0 0 0 0 0 0 0 0 u 0 0 u u 0 u u O * L.K ",
"S.K : : * * @ $ * * * # @ * * * * @ @ @ @ @ @ @ @ @ * * * * * * * * @ @ @ @ @ @ o * * * * @ * * * : * @ $ @ * @ $ @ $ @   $ P.I ",
"D.) e y y y q > # * $ 2 e y y y y e e w e e r r r r r y p t i r y y e 9 e r e e r = $ * * 6 6 e r r e q 6 7 2 e q 6 e q @ > P.I ",
"S.` 4.i.5.5.s.D @ *   X.b.a.a.a.a.a.a.s.s.v.a.s.s.s.a.a.v.v.g.a.v.l.l.v.v.a.v.s.m.r @ @ * O.=.=.#.-.-.-.#.-.#.#.-.=.4.1.7 e L.I ",
"D.) 1.3.&.&.;.l o 1 9 +.u.w.i.r.r.3.3.:.1.1.3.e.r.r.3.:.1.3.3.3.;.;.<.2.1.3.2.;.<.e @ 2 e ..O. .| | | |  .| o.#.o. .O.O.7 9 L.I ",
"F.) 4.;.G Y ! i   D m.5.r.u.u.u.y.( ~ | | ! ;.l.a.a.o.~ | | | | T T J T } ~  .Y b , o Q -.#.@.V N N N V V v | g.~ H Y G 5 r L.P ",
"D.) 3.<.Y D A e   l v.5.y.;.#.-.-.| | | | Q ..+.+.+.| | Y Y Y Y S J ~ ~ | ! Y B B < # Y @.Y Y n v V N b N z S ~ R Y R H 7 r L.E ",
"F.) 3.1.R G a 6 X D v.i.s.X.~ | |  .| | ~ T T J T T ~ ..B n n n b S | |  .Y b n B 6 * ! #.z d h x Z N j z x j d Y ! ! W 7 r L.K ",
"F.) 1.;.M b h 2 X b 3.*.-...~ Y Y Y Y ( ~ S S S C S T Y B n n M n B Y Y Y B n n B < # V { b N b z g g d 0 d d x b b c b 3 9 L.K ",
"S.) 4.&.i g j 7 @ i o.| ( | | B b b S | Q n b n n n n n B B B B B B n n B B B S B < @ g V V V Z x 9 9 9 8 8 i j 8 7 7 9 4 0 L.K ",
"A.) 1.+.i r > = @ r Y B S C C n n B B S C M M n n n 6 , , < < , 2 6 6 2 2 9 2 < , * # 9 d u i u 0 9 9 0 0 9 u u 9 0 9 9 3 9 L.K ",
"A.) i.;.g r @ * # e C B C B B B B B B B B B M B B S , @ $ $ @ o $ * * * # # * % o # $ 4 0 9 9 9 0 9 0 9 0 9 9 9 9 0 9 0 7 r L.K ",
"Z.E q q ; ; # * @ - , < 2 < < 2 2 2 2 2 2 2 < 2 , , * @ % * R ~ ~ ~ ~ ~ { { { { ~ < @ = ; ; - - - - ; ; ; ; - - ; - ; - @ ; P.K ",
"Z.J @ % * * ; - - - * : > > , > > > > , > > > > > * * * * , :.>.1.;.>.:.>.:.>.>.w.r * * @ $ $ $ % * * , : * * : * * * $ O * K.K ",
"V.K @ 6 <.#.+.+.@.@.@.@.#.@.@.@.@.#.#.#.#.#.*.-.#.=.q @ W -.#.-.-.=.-.#.#.#.#.#.=.-.*.9 @ * * @ < ! W W R H ! H ! ! 1 @ O * P.K ",
"V.K * e w.-.-.-.:.-.-.:.-.-.:.-.;.-.-.-.-.=.=.=.#.:.e . { w.-.-.-.-.:.:.:.#.:.#.-.=.2.e # * * * 6 | ! ! ! ! / ! ! { 6 &   * P.K ",
"q.U -.3.#.-.>.-.-.:.:.-.-.-.-.-.-.>.@.A G W G G F H 6 * ! :.-.-.-.-.-.-.#.:.w. .A G G F V * * H ! ! ! | D f D | v z f s O * K.) ",
"q.^ 1.r.#.-.@. .@.o.O.#.-.#.-.@.o.@. .V A V A B A A 9 * ~ >.=.-.o.@.:.-.#.@.o.{ Z A Z Z N * * ! ! ! ! H N f v H v f z f + * P.) ",
"0.) 1.3.>.o.Z Z Z A Z @.>.-.:.A A A V x x b b x B A 7 * } 2.-.#.A W >.-.:.Q j V G A G g u : , Y ~ { R f z c c f k k c f + & P.) ",
"0.K 1.4.-.O.A A Z A Z | o.o. .A A A B b b n x x b V 2 * { 2.-.#.A H o.o.@.W x B A A G d w > > R ! H D f k f g k f z f s + & P.) ",
"n.) 1.e.>.@.A B b b x x b x v A A b b x B W v 9 0 r < * { :.>.-.H A x x x x x x x A G g 0 - > ! H f k c g i i i p p 8 3   * P.) ",
"0.P 1.1.| ! A Z b b b x b B A A A A V V N b g 0 u s , $ ~ :. .} C B b N V B B V B N z s 0 : > ! H f g a a g g i f a 8 3 . * L.) ",
"n.I 1.;.Z A G N x b n n b A H A A A A W V 0 0 0 u u , * ( :.A Z x x b n A H H G H d 8 0 r ; > ! G i i a f v a i g v 8 3 O * L.P ",
"M.K 1.;.N C C B B x d g j z x A A N z N z 0 u s u s , * ! :.G A C N h x A N z v v d s 0 u : > ! G i f 9 r w s f p w 7 4   * P.) ",
"C.) 4.-.j b j C H x 0 0 0 0 0 A A 0 0 0 0 0 0 0 0 u , * ( 3.A A G N 8 g H x 0 0 0 0 0 s r : > ! R c f < 5 3 s v 7 7 7 3   * L.U ",
"M.K 1.;.V V Z b z s u s 0 0 u d g s 0 0 0 s 0 s 0 u , @ N { A Z z s 0 s g s u s u 0 s u 0 * * v k 8 7 4 4 4 7 8 7 7 5 4 . * L.U ",
"V.) e.3.A G H c 0 0 0 u 0 s s 0 0 u 0 s s 0 u u 0 s > @ z G G A 0 0 s 0 0 0 u 0 u u 0 u u * * g f < 7 4 4 5 5 < 5 5 7 7 . * P.) ",
"Z.K 6 r g d g s 0 s 0 s u s 0 0 u u u u 0 s u u 7 ; * & , 1 d g s s 0 u s u s 0 u u s < ; * * 7 7 5 7 6 4 4 7 4 7 7 > *   * P.) ",
"Z.K @ - 0 0 8 u 0 0 0 0 0 u 0 u u 0 0 0 0 0 0 u 4 @ * * @ & 8 0 0 0 0 u 0 u 0 0 0 0 0 * @ * * 3 4 7 4 4 4 4 3 4 4 7 * #   * P.U ",
"A.P # @ . @   X O o o o @ @ O O O O o @ O O O O .               O o o O O o O O + X +           .     .         o         # P.) ",
"A._ = = $ # @ * * # * * # # * # * $ * % * * * * * * * @ * * * & * % * * * * * % * * * * * * & * $ * * * * * * & * % * * @ > P.) ",
"F.T.I.K.J.J.J.K.J.J.J.J.P.J.J.J.K.G.H.J.G.G.K.G.G.K.G.G.H.J.K.H.H.H.K.G.G.J.J.J.H.J.J.H.G.G.K.J.J.J.G.G.K.G.G.J.H.G.G.G.G.G.L.) ",
") ' ' _ _ ' _ _ ` ` ` _ _ ' ` ` ) ) ) ) ) ) ) ) ) ) ) ) ) ) ) ) ) ) ) ) ) ` ) ) ) ) ) ) ) ) ) ) ) ) ) ) ) ) ) ) ) ) ) ) ) ) ) L "
};
